<svg width="485" height="728" viewBox="0 0 485 728" fill="none" xmlns="http://www.w3.org/2000/svg">
<rect x="0.5" y="0.5" width="484" height="727" fill="white"/>
<path d="M24.5254 704.434V710H22.6504V695.781H27.8945C29.4505 695.781 30.668 696.178 31.5469 696.973C32.4323 697.767 32.875 698.818 32.875 700.127C32.875 701.507 32.4421 702.572 31.5762 703.32C30.7168 704.062 29.4831 704.434 27.875 704.434H24.5254ZM24.5254 702.9H27.8945C28.8971 702.9 29.6654 702.666 30.1992 702.197C30.7331 701.722 31 701.038 31 700.146C31 699.3 30.7331 698.623 30.1992 698.115C29.6654 697.607 28.9329 697.344 28.002 697.324H24.5254V702.9ZM36.9473 710H35.1406V699.434H36.9473V710ZM34.9941 696.631C34.9941 696.338 35.082 696.09 35.2578 695.889C35.4401 695.687 35.707 695.586 36.0586 695.586C36.4102 695.586 36.6771 695.687 36.8594 695.889C37.0417 696.09 37.1328 696.338 37.1328 696.631C37.1328 696.924 37.0417 697.168 36.8594 697.363C36.6771 697.559 36.4102 697.656 36.0586 697.656C35.707 697.656 35.4401 697.559 35.2578 697.363C35.082 697.168 34.9941 696.924 34.9941 696.631ZM44.2324 710.195C42.8001 710.195 41.6348 709.727 40.7363 708.789C39.8379 707.845 39.3887 706.585 39.3887 705.01V704.678C39.3887 703.63 39.5872 702.695 39.9844 701.875C40.388 701.048 40.9479 700.404 41.6641 699.941C42.3867 699.473 43.168 699.238 44.0078 699.238C45.3815 699.238 46.4492 699.691 47.2109 700.596C47.9727 701.501 48.3535 702.796 48.3535 704.482V705.234H41.1953C41.2214 706.276 41.5241 707.119 42.1035 707.764C42.6895 708.402 43.4316 708.721 44.3301 708.721C44.9681 708.721 45.5085 708.59 45.9512 708.33C46.3939 708.07 46.7812 707.725 47.1133 707.295L48.2168 708.154C47.3314 709.515 46.0033 710.195 44.2324 710.195ZM44.0078 700.723C43.2786 700.723 42.6667 700.99 42.1719 701.523C41.6771 702.051 41.3711 702.793 41.2539 703.75H46.5469V703.613C46.4948 702.695 46.2474 701.986 45.8047 701.484C45.362 700.977 44.763 700.723 44.0078 700.723ZM54.9746 704.629C54.9746 703.008 55.3587 701.706 56.127 700.723C56.8952 699.733 57.901 699.238 59.1445 699.238C60.3815 699.238 61.3613 699.661 62.084 700.508V695H63.8906V710H62.2305L62.1426 708.867C61.4199 709.753 60.4141 710.195 59.125 710.195C57.901 710.195 56.9017 709.694 56.127 708.691C55.3587 707.689 54.9746 706.38 54.9746 704.766V704.629ZM56.7812 704.834C56.7812 706.032 57.0286 706.969 57.5234 707.646C58.0182 708.324 58.7018 708.662 59.5742 708.662C60.7201 708.662 61.5566 708.148 62.084 707.119V702.266C61.5436 701.27 60.7135 700.771 59.5938 700.771C58.7083 700.771 58.0182 701.113 57.5234 701.797C57.0286 702.48 56.7812 703.493 56.7812 704.834ZM71.0879 710.195C69.6556 710.195 68.4902 709.727 67.5918 708.789C66.6934 707.845 66.2441 706.585 66.2441 705.01V704.678C66.2441 703.63 66.4427 702.695 66.8398 701.875C67.2435 701.048 67.8034 700.404 68.5195 699.941C69.2422 699.473 70.0234 699.238 70.8633 699.238C72.237 699.238 73.3047 699.691 74.0664 700.596C74.8281 701.501 75.209 702.796 75.209 704.482V705.234H68.0508C68.0768 706.276 68.3796 707.119 68.959 707.764C69.5449 708.402 70.2871 708.721 71.1855 708.721C71.8236 708.721 72.3639 708.59 72.8066 708.33C73.2493 708.07 73.6367 707.725 73.9688 707.295L75.0723 708.154C74.1868 709.515 72.8587 710.195 71.0879 710.195ZM70.8633 700.723C70.1341 700.723 69.5221 700.99 69.0273 701.523C68.5326 702.051 68.2266 702.793 68.1094 703.75H73.4023V703.613C73.3503 702.695 73.1029 701.986 72.6602 701.484C72.2174 700.977 71.6185 700.723 70.8633 700.723ZM91.1953 704.834C91.1953 706.442 90.8275 707.738 90.0918 708.721C89.3561 709.704 88.36 710.195 87.1035 710.195C85.821 710.195 84.8118 709.788 84.0762 708.975V714.062H82.2695V699.434H83.9199L84.0078 700.605C84.7435 699.694 85.7656 699.238 87.0742 699.238C88.3438 699.238 89.3464 699.717 90.082 700.674C90.8242 701.631 91.1953 702.962 91.1953 704.668V704.834ZM89.3887 704.629C89.3887 703.438 89.1348 702.497 88.627 701.807C88.1191 701.117 87.4225 700.771 86.5371 700.771C85.4434 700.771 84.623 701.257 84.0762 702.227V707.275C84.6165 708.239 85.4434 708.721 86.5566 708.721C87.4225 708.721 88.1094 708.379 88.6172 707.695C89.1315 707.005 89.3887 705.983 89.3887 704.629ZM100.023 710C99.9193 709.792 99.8346 709.421 99.7695 708.887C98.9297 709.759 97.9271 710.195 96.7617 710.195C95.7201 710.195 94.8639 709.902 94.1934 709.316C93.5293 708.724 93.1973 707.975 93.1973 707.07C93.1973 705.97 93.6139 705.117 94.4473 704.512C95.2871 703.9 96.4655 703.594 97.9824 703.594H99.7402V702.764C99.7402 702.132 99.5514 701.631 99.1738 701.26C98.7962 700.882 98.2396 700.693 97.5039 700.693C96.8594 700.693 96.319 700.856 95.8828 701.182C95.4466 701.507 95.2285 701.901 95.2285 702.363H93.4121C93.4121 701.836 93.5977 701.328 93.9688 700.84C94.3464 700.345 94.8542 699.954 95.4922 699.668C96.1367 699.382 96.8431 699.238 97.6113 699.238C98.8288 699.238 99.7826 699.544 100.473 700.156C101.163 700.762 101.521 701.598 101.547 702.666V707.529C101.547 708.499 101.671 709.271 101.918 709.844V710H100.023ZM97.0254 708.623C97.5918 708.623 98.1289 708.477 98.6367 708.184C99.1445 707.891 99.5124 707.51 99.7402 707.041V704.873H98.3242C96.1107 704.873 95.0039 705.521 95.0039 706.816C95.0039 707.383 95.1927 707.826 95.5703 708.145C95.9479 708.464 96.4329 708.623 97.0254 708.623ZM98.6953 695H100.883L98.2656 697.871H96.8105L98.6953 695ZM103.949 704.629C103.949 702.982 104.33 701.673 105.092 700.703C105.854 699.727 106.863 699.238 108.119 699.238C109.408 699.238 110.414 699.694 111.137 700.605L111.225 699.434H112.875V709.746C112.875 711.113 112.468 712.191 111.654 712.979C110.847 713.766 109.76 714.16 108.393 714.16C107.631 714.16 106.885 713.997 106.156 713.672C105.427 713.346 104.87 712.9 104.486 712.334L105.424 711.25C106.199 712.207 107.146 712.686 108.266 712.686C109.145 712.686 109.828 712.438 110.316 711.943C110.811 711.449 111.059 710.752 111.059 709.854V708.945C110.336 709.779 109.35 710.195 108.1 710.195C106.863 710.195 105.86 709.697 105.092 708.701C104.33 707.705 103.949 706.348 103.949 704.629ZM105.766 704.834C105.766 706.025 106.01 706.963 106.498 707.646C106.986 708.324 107.67 708.662 108.549 708.662C109.688 708.662 110.525 708.145 111.059 707.109V702.285C110.505 701.276 109.675 700.771 108.568 700.771C107.689 700.771 107.003 701.113 106.508 701.797C106.013 702.48 105.766 703.493 105.766 704.834ZM117.572 710H115.766V699.434H117.572V710ZM115.619 696.631C115.619 696.338 115.707 696.09 115.883 695.889C116.065 695.687 116.332 695.586 116.684 695.586C117.035 695.586 117.302 695.687 117.484 695.889C117.667 696.09 117.758 696.338 117.758 696.631C117.758 696.924 117.667 697.168 117.484 697.363C117.302 697.559 117.035 697.656 116.684 697.656C116.332 697.656 116.065 697.559 115.883 697.363C115.707 697.168 115.619 696.924 115.619 696.631ZM122.182 699.434L122.24 700.762C123.048 699.746 124.102 699.238 125.404 699.238C127.637 699.238 128.764 700.498 128.783 703.018V710H126.977V703.008C126.97 702.246 126.794 701.683 126.449 701.318C126.111 700.954 125.58 700.771 124.857 700.771C124.271 700.771 123.757 700.928 123.314 701.24C122.872 701.553 122.527 701.963 122.279 702.471V710H120.473V699.434H122.182ZM138.031 710C137.927 709.792 137.842 709.421 137.777 708.887C136.938 709.759 135.935 710.195 134.77 710.195C133.728 710.195 132.872 709.902 132.201 709.316C131.537 708.724 131.205 707.975 131.205 707.07C131.205 705.97 131.622 705.117 132.455 704.512C133.295 703.9 134.473 703.594 135.99 703.594H137.748V702.764C137.748 702.132 137.559 701.631 137.182 701.26C136.804 700.882 136.247 700.693 135.512 700.693C134.867 700.693 134.327 700.856 133.891 701.182C133.454 701.507 133.236 701.901 133.236 702.363H131.42C131.42 701.836 131.605 701.328 131.977 700.84C132.354 700.345 132.862 699.954 133.5 699.668C134.145 699.382 134.851 699.238 135.619 699.238C136.837 699.238 137.79 699.544 138.48 700.156C139.171 700.762 139.529 701.598 139.555 702.666V707.529C139.555 708.499 139.678 709.271 139.926 709.844V710H138.031ZM135.033 708.623C135.6 708.623 136.137 708.477 136.645 708.184C137.152 707.891 137.52 707.51 137.748 707.041V704.873H136.332C134.118 704.873 133.012 705.521 133.012 706.816C133.012 707.383 133.201 707.826 133.578 708.145C133.956 708.464 134.441 708.623 135.033 708.623Z" fill="black"/>
<rect y="152" width="485" height="504" fill="white"/>
<rect x="30.5" y="215.5" width="160" height="50" rx="13.5" fill="#10B6AC" stroke="black"/>
<path d="M70.502 243.289H64.5449L63.207 247H61.2734L66.7031 232.781H68.3438L73.7832 247H71.8594L70.502 243.289ZM65.1113 241.746H69.9453L67.5234 235.096L65.1113 241.746ZM79.6523 245.721C80.2969 245.721 80.86 245.525 81.3418 245.135C81.8236 244.744 82.0905 244.256 82.1426 243.67H83.8516C83.819 244.275 83.6107 244.852 83.2266 245.398C82.8424 245.945 82.3281 246.382 81.6836 246.707C81.0456 247.033 80.3685 247.195 79.6523 247.195C78.2135 247.195 77.0677 246.717 76.2148 245.76C75.3685 244.796 74.9453 243.481 74.9453 241.814V241.512C74.9453 240.483 75.1341 239.568 75.5117 238.768C75.8893 237.967 76.4297 237.345 77.1328 236.902C77.8424 236.46 78.679 236.238 79.6426 236.238C80.8275 236.238 81.8105 236.593 82.5918 237.303C83.3796 238.012 83.7995 238.934 83.8516 240.066H82.1426C82.0905 239.383 81.8301 238.823 81.3613 238.387C80.8991 237.944 80.3262 237.723 79.6426 237.723C78.7246 237.723 78.0117 238.055 77.5039 238.719C77.0026 239.376 76.752 240.33 76.752 241.58V241.922C76.752 243.139 77.0026 244.077 77.5039 244.734C78.0052 245.392 78.7214 245.721 79.6523 245.721ZM90.2676 247.195C88.8353 247.195 87.6699 246.727 86.7715 245.789C85.873 244.845 85.4238 243.585 85.4238 242.01V241.678C85.4238 240.63 85.6224 239.695 86.0195 238.875C86.4232 238.048 86.9831 237.404 87.6992 236.941C88.4219 236.473 89.2031 236.238 90.043 236.238C91.4167 236.238 92.4844 236.691 93.2461 237.596C94.0078 238.501 94.3887 239.796 94.3887 241.482V242.234H87.2305C87.2565 243.276 87.5592 244.119 88.1387 244.764C88.7246 245.402 89.4668 245.721 90.3652 245.721C91.0033 245.721 91.5436 245.59 91.9863 245.33C92.429 245.07 92.8164 244.725 93.1484 244.295L94.252 245.154C93.3665 246.515 92.0384 247.195 90.2676 247.195ZM90.043 237.723C89.3138 237.723 88.7018 237.99 88.207 238.523C87.7122 239.051 87.4062 239.793 87.2891 240.75H92.582V240.613C92.5299 239.695 92.2826 238.986 91.8398 238.484C91.3971 237.977 90.7982 237.723 90.043 237.723ZM105.414 241.834C105.414 243.442 105.046 244.738 104.311 245.721C103.575 246.704 102.579 247.195 101.322 247.195C100.04 247.195 99.0306 246.788 98.2949 245.975V251.062H96.4883V236.434H98.1387L98.2266 237.605C98.9622 236.694 99.9844 236.238 101.293 236.238C102.562 236.238 103.565 236.717 104.301 237.674C105.043 238.631 105.414 239.962 105.414 241.668V241.834ZM103.607 241.629C103.607 240.438 103.354 239.497 102.846 238.807C102.338 238.117 101.641 237.771 100.756 237.771C99.6621 237.771 98.8418 238.257 98.2949 239.227V244.275C98.8353 245.239 99.6621 245.721 100.775 245.721C101.641 245.721 102.328 245.379 102.836 244.695C103.35 244.005 103.607 242.983 103.607 241.629ZM110.17 233.875V236.434H112.143V237.83H110.17V244.383C110.17 244.806 110.258 245.125 110.434 245.34C110.609 245.548 110.909 245.652 111.332 245.652C111.54 245.652 111.827 245.613 112.191 245.535V247C111.716 247.13 111.254 247.195 110.805 247.195C109.997 247.195 109.389 246.951 108.979 246.463C108.568 245.975 108.363 245.281 108.363 244.383V237.83H106.439V236.434H108.363V233.875H110.17ZM120.785 247C120.681 246.792 120.596 246.421 120.531 245.887C119.691 246.759 118.689 247.195 117.523 247.195C116.482 247.195 115.626 246.902 114.955 246.316C114.291 245.724 113.959 244.975 113.959 244.07C113.959 242.97 114.376 242.117 115.209 241.512C116.049 240.9 117.227 240.594 118.744 240.594H120.502V239.764C120.502 239.132 120.313 238.631 119.936 238.26C119.558 237.882 119.001 237.693 118.266 237.693C117.621 237.693 117.081 237.856 116.645 238.182C116.208 238.507 115.99 238.901 115.99 239.363H114.174C114.174 238.836 114.359 238.328 114.73 237.84C115.108 237.345 115.616 236.954 116.254 236.668C116.898 236.382 117.605 236.238 118.373 236.238C119.59 236.238 120.544 236.544 121.234 237.156C121.924 237.762 122.283 238.598 122.309 239.666V244.529C122.309 245.499 122.432 246.271 122.68 246.844V247H120.785ZM117.787 245.623C118.354 245.623 118.891 245.477 119.398 245.184C119.906 244.891 120.274 244.51 120.502 244.041V241.873H119.086C116.872 241.873 115.766 242.521 115.766 243.816C115.766 244.383 115.954 244.826 116.332 245.145C116.71 245.464 117.195 245.623 117.787 245.623ZM130.248 238.055C129.975 238.009 129.678 237.986 129.359 237.986C128.174 237.986 127.37 238.491 126.947 239.5V247H125.141V236.434H126.898L126.928 237.654C127.52 236.71 128.36 236.238 129.447 236.238C129.799 236.238 130.066 236.284 130.248 236.375V238.055Z" fill="black"/>
<rect x="251.5" y="215.5" width="160" height="50" rx="13.5" fill="white" stroke="black"/>
<rect x="30.5" y="215.5" width="160" height="50" rx="13.5" fill="#10B6AC" stroke="black"/>
<rect x="251.5" y="215.5" width="160" height="50" rx="13.5" fill="white" stroke="black"/>
<path d="M0 82H485V152H0V82Z" fill="#EBFFFE"/>
<path d="M33.8633 120H30.9102V102.938H33.8633V120ZM39.875 107.32L39.957 108.785C40.8945 107.652 42.125 107.086 43.6484 107.086C46.2891 107.086 47.6328 108.598 47.6797 111.621V120H44.832V111.785C44.832 110.98 44.6562 110.387 44.3047 110.004C43.9609 109.613 43.3945 109.418 42.6055 109.418C41.457 109.418 40.6016 109.938 40.0391 110.977V120H37.1914V107.32H39.875ZM53.6211 120H50.7734V107.32H53.6211V120ZM50.5977 104.027C50.5977 103.59 50.7344 103.227 51.0078 102.938C51.2891 102.648 51.6875 102.504 52.2031 102.504C52.7188 102.504 53.1172 102.648 53.3984 102.938C53.6797 103.227 53.8203 103.59 53.8203 104.027C53.8203 104.457 53.6797 104.816 53.3984 105.105C53.1172 105.387 52.7188 105.527 52.2031 105.527C51.6875 105.527 51.2891 105.387 51.0078 105.105C50.7344 104.816 50.5977 104.457 50.5977 104.027ZM61.9414 117.961C62.6523 117.961 63.2422 117.754 63.7109 117.34C64.1797 116.926 64.4297 116.414 64.4609 115.805H67.1445C67.1133 116.594 66.8672 117.332 66.4062 118.02C65.9453 118.699 65.3203 119.238 64.5312 119.637C63.7422 120.035 62.8906 120.234 61.9766 120.234C60.2031 120.234 58.7969 119.66 57.7578 118.512C56.7188 117.363 56.1992 115.777 56.1992 113.754V113.461C56.1992 111.531 56.7148 109.988 57.7461 108.832C58.7773 107.668 60.1836 107.086 61.9648 107.086C63.4727 107.086 64.6992 107.527 65.6445 108.41C66.5977 109.285 67.0977 110.438 67.1445 111.867H64.4609C64.4297 111.141 64.1797 110.543 63.7109 110.074C63.25 109.605 62.6602 109.371 61.9414 109.371C61.0195 109.371 60.3086 109.707 59.8086 110.379C59.3086 111.043 59.0547 112.055 59.0469 113.414V113.871C59.0469 115.246 59.293 116.273 59.7852 116.953C60.2852 117.625 61.0039 117.961 61.9414 117.961ZM72.3242 120H69.4766V107.32H72.3242V120ZM69.3008 104.027C69.3008 103.59 69.4375 103.227 69.7109 102.938C69.9922 102.648 70.3906 102.504 70.9062 102.504C71.4219 102.504 71.8203 102.648 72.1016 102.938C72.3828 103.227 72.5234 103.59 72.5234 104.027C72.5234 104.457 72.3828 104.816 72.1016 105.105C71.8203 105.387 71.4219 105.527 70.9062 105.527C70.3906 105.527 69.9922 105.387 69.7109 105.105C69.4375 104.816 69.3008 104.457 69.3008 104.027ZM74.9023 113.543C74.9023 112.301 75.1484 111.184 75.6406 110.191C76.1328 109.191 76.8242 108.426 77.7148 107.895C78.6055 107.355 79.6289 107.086 80.7852 107.086C82.4961 107.086 83.8828 107.637 84.9453 108.738C86.0156 109.84 86.5938 111.301 86.6797 113.121L86.6914 113.789C86.6914 115.039 86.4492 116.156 85.9648 117.141C85.4883 118.125 84.8008 118.887 83.9023 119.426C83.0117 119.965 81.9805 120.234 80.8086 120.234C79.0195 120.234 77.5859 119.641 76.5078 118.453C75.4375 117.258 74.9023 115.668 74.9023 113.684V113.543ZM77.75 113.789C77.75 115.094 78.0195 116.117 78.5586 116.859C79.0977 117.594 79.8477 117.961 80.8086 117.961C81.7695 117.961 82.5156 117.586 83.0469 116.836C83.5859 116.086 83.8555 114.988 83.8555 113.543C83.8555 112.262 83.5781 111.246 83.0234 110.496C82.4766 109.746 81.7305 109.371 80.7852 109.371C79.8555 109.371 79.1172 109.742 78.5703 110.484C78.0234 111.219 77.75 112.32 77.75 113.789Z" fill="black"/>
<path d="M151.863 120H148.91V102.938H151.863V120ZM157.875 107.32L157.957 108.785C158.895 107.652 160.125 107.086 161.648 107.086C164.289 107.086 165.633 108.598 165.68 111.621V120H162.832V111.785C162.832 110.98 162.656 110.387 162.305 110.004C161.961 109.613 161.395 109.418 160.605 109.418C159.457 109.418 158.602 109.938 158.039 110.977V120H155.191V107.32H157.875ZM175.699 116.555C175.699 116.047 175.488 115.66 175.066 115.395C174.652 115.129 173.961 114.895 172.992 114.691C172.023 114.488 171.215 114.23 170.566 113.918C169.145 113.23 168.434 112.234 168.434 110.93C168.434 109.836 168.895 108.922 169.816 108.188C170.738 107.453 171.91 107.086 173.332 107.086C174.848 107.086 176.07 107.461 177 108.211C177.938 108.961 178.406 109.934 178.406 111.129H175.559C175.559 110.582 175.355 110.129 174.949 109.77C174.543 109.402 174.004 109.219 173.332 109.219C172.707 109.219 172.195 109.363 171.797 109.652C171.406 109.941 171.211 110.328 171.211 110.812C171.211 111.25 171.395 111.59 171.762 111.832C172.129 112.074 172.871 112.32 173.988 112.57C175.105 112.812 175.98 113.105 176.613 113.449C177.254 113.785 177.727 114.191 178.031 114.668C178.344 115.145 178.5 115.723 178.5 116.402C178.5 117.543 178.027 118.469 177.082 119.18C176.137 119.883 174.898 120.234 173.367 120.234C172.328 120.234 171.402 120.047 170.59 119.672C169.777 119.297 169.145 118.781 168.691 118.125C168.238 117.469 168.012 116.762 168.012 116.004H170.777C170.816 116.676 171.07 117.195 171.539 117.562C172.008 117.922 172.629 118.102 173.402 118.102C174.152 118.102 174.723 117.961 175.113 117.68C175.504 117.391 175.699 117.016 175.699 116.555ZM184.559 104.238V107.32H186.797V109.43H184.559V116.508C184.559 116.992 184.652 117.344 184.84 117.562C185.035 117.773 185.379 117.879 185.871 117.879C186.199 117.879 186.531 117.84 186.867 117.762V119.965C186.219 120.145 185.594 120.234 184.992 120.234C182.805 120.234 181.711 119.027 181.711 116.613V109.43H179.625V107.32H181.711V104.238H184.559ZM195.621 109.922C195.246 109.859 194.859 109.828 194.461 109.828C193.156 109.828 192.277 110.328 191.824 111.328V120H188.977V107.32H191.695L191.766 108.738C192.453 107.637 193.406 107.086 194.625 107.086C195.031 107.086 195.367 107.141 195.633 107.25L195.621 109.922ZM205.102 118.758C204.266 119.742 203.078 120.234 201.539 120.234C200.164 120.234 199.121 119.832 198.41 119.027C197.707 118.223 197.355 117.059 197.355 115.535V107.32H200.203V115.5C200.203 117.109 200.871 117.914 202.207 117.914C203.59 117.914 204.523 117.418 205.008 116.426V107.32H207.855V120H205.172L205.102 118.758ZM215.965 117.961C216.676 117.961 217.266 117.754 217.734 117.34C218.203 116.926 218.453 116.414 218.484 115.805H221.168C221.137 116.594 220.891 117.332 220.43 118.02C219.969 118.699 219.344 119.238 218.555 119.637C217.766 120.035 216.914 120.234 216 120.234C214.227 120.234 212.82 119.66 211.781 118.512C210.742 117.363 210.223 115.777 210.223 113.754V113.461C210.223 111.531 210.738 109.988 211.77 108.832C212.801 107.668 214.207 107.086 215.988 107.086C217.496 107.086 218.723 107.527 219.668 108.41C220.621 109.285 221.121 110.438 221.168 111.867H218.484C218.453 111.141 218.203 110.543 217.734 110.074C217.273 109.605 216.684 109.371 215.965 109.371C215.043 109.371 214.332 109.707 213.832 110.379C213.332 111.043 213.078 112.055 213.07 113.414V113.871C213.07 115.246 213.316 116.273 213.809 116.953C214.309 117.625 215.027 117.961 215.965 117.961ZM228.527 117.961C229.238 117.961 229.828 117.754 230.297 117.34C230.766 116.926 231.016 116.414 231.047 115.805H233.73C233.699 116.594 233.453 117.332 232.992 118.02C232.531 118.699 231.906 119.238 231.117 119.637C230.328 120.035 229.477 120.234 228.562 120.234C226.789 120.234 225.383 119.66 224.344 118.512C223.305 117.363 222.785 115.777 222.785 113.754V113.461C222.785 111.531 223.301 109.988 224.332 108.832C225.363 107.668 226.77 107.086 228.551 107.086C230.059 107.086 231.285 107.527 232.23 108.41C233.184 109.285 233.684 110.438 233.73 111.867H231.047C231.016 111.141 230.766 110.543 230.297 110.074C229.836 109.605 229.246 109.371 228.527 109.371C227.605 109.371 226.895 109.707 226.395 110.379C225.895 111.043 225.641 112.055 225.633 113.414V113.871C225.633 115.246 225.879 116.273 226.371 116.953C226.871 117.625 227.59 117.961 228.527 117.961ZM238.91 120H236.062V107.32H238.91V120ZM235.887 104.027C235.887 103.59 236.023 103.227 236.297 102.938C236.578 102.648 236.977 102.504 237.492 102.504C238.008 102.504 238.406 102.648 238.688 102.938C238.969 103.227 239.109 103.59 239.109 104.027C239.109 104.457 238.969 104.816 238.688 105.105C238.406 105.387 238.008 105.527 237.492 105.527C236.977 105.527 236.578 105.387 236.297 105.105C236.023 104.816 235.887 104.457 235.887 104.027ZM241.488 113.543C241.488 112.301 241.734 111.184 242.227 110.191C242.719 109.191 243.41 108.426 244.301 107.895C245.191 107.355 246.215 107.086 247.371 107.086C249.082 107.086 250.469 107.637 251.531 108.738C252.602 109.84 253.18 111.301 253.266 113.121L253.277 113.789C253.277 115.039 253.035 116.156 252.551 117.141C252.074 118.125 251.387 118.887 250.488 119.426C249.598 119.965 248.566 120.234 247.395 120.234C245.605 120.234 244.172 119.641 243.094 118.453C242.023 117.258 241.488 115.668 241.488 113.684V113.543ZM244.336 113.789C244.336 115.094 244.605 116.117 245.145 116.859C245.684 117.594 246.434 117.961 247.395 117.961C248.355 117.961 249.102 117.586 249.633 116.836C250.172 116.086 250.441 114.988 250.441 113.543C250.441 112.262 250.164 111.246 249.609 110.496C249.062 109.746 248.316 109.371 247.371 109.371C246.441 109.371 245.703 109.742 245.156 110.484C244.609 111.219 244.336 112.32 244.336 113.789ZM258.328 107.32L258.41 108.785C259.348 107.652 260.578 107.086 262.102 107.086C264.742 107.086 266.086 108.598 266.133 111.621V120H263.285V111.785C263.285 110.98 263.109 110.387 262.758 110.004C262.414 109.613 261.848 109.418 261.059 109.418C259.91 109.418 259.055 109.938 258.492 110.977V120H255.645V107.32H258.328ZM274.629 120.234C272.824 120.234 271.359 119.668 270.234 118.535C269.117 117.395 268.559 115.879 268.559 113.988V113.637C268.559 112.371 268.801 111.242 269.285 110.25C269.777 109.25 270.465 108.473 271.348 107.918C272.23 107.363 273.215 107.086 274.301 107.086C276.027 107.086 277.359 107.637 278.297 108.738C279.242 109.84 279.715 111.398 279.715 113.414V114.562H271.43C271.516 115.609 271.863 116.438 272.473 117.047C273.09 117.656 273.863 117.961 274.793 117.961C276.098 117.961 277.16 117.434 277.98 116.379L279.516 117.844C279.008 118.602 278.328 119.191 277.477 119.613C276.633 120.027 275.684 120.234 274.629 120.234ZM274.289 109.371C273.508 109.371 272.875 109.645 272.391 110.191C271.914 110.738 271.609 111.5 271.477 112.477H276.902V112.266C276.84 111.312 276.586 110.594 276.141 110.109C275.695 109.617 275.078 109.371 274.289 109.371ZM289.043 116.555C289.043 116.047 288.832 115.66 288.41 115.395C287.996 115.129 287.305 114.895 286.336 114.691C285.367 114.488 284.559 114.23 283.91 113.918C282.488 113.23 281.777 112.234 281.777 110.93C281.777 109.836 282.238 108.922 283.16 108.188C284.082 107.453 285.254 107.086 286.676 107.086C288.191 107.086 289.414 107.461 290.344 108.211C291.281 108.961 291.75 109.934 291.75 111.129H288.902C288.902 110.582 288.699 110.129 288.293 109.77C287.887 109.402 287.348 109.219 286.676 109.219C286.051 109.219 285.539 109.363 285.141 109.652C284.75 109.941 284.555 110.328 284.555 110.812C284.555 111.25 284.738 111.59 285.105 111.832C285.473 112.074 286.215 112.32 287.332 112.57C288.449 112.812 289.324 113.105 289.957 113.449C290.598 113.785 291.07 114.191 291.375 114.668C291.688 115.145 291.844 115.723 291.844 116.402C291.844 117.543 291.371 118.469 290.426 119.18C289.48 119.883 288.242 120.234 286.711 120.234C285.672 120.234 284.746 120.047 283.934 119.672C283.121 119.297 282.488 118.781 282.035 118.125C281.582 117.469 281.355 116.762 281.355 116.004H284.121C284.16 116.676 284.414 117.195 284.883 117.562C285.352 117.922 285.973 118.102 286.746 118.102C287.496 118.102 288.066 117.961 288.457 117.68C288.848 117.391 289.043 117.016 289.043 116.555Z" fill="black"/>
<path d="M0 82V81H-1V82H0ZM485 82H486V81H485V82ZM485 152V153H486V152H485ZM0 152H-1V153H0V152ZM0 83H485V81H0V83ZM484 82V152H486V82H484ZM485 151H0V153H485V151ZM1 152V82H-1V152H1Z" fill="white"/>
<path d="M0 0H485V83H0V0Z" fill="#11D0C5"/>
<path d="M30.4746 28.3242H25.9043V41H24.0391V28.3242H19.4785V26.7812H30.4746V28.3242ZM34.2637 41H32.4473V30.4336H34.2637V41ZM34.2832 26.0098H36.4707L33.8535 28.8809H32.3984L34.2832 26.0098ZM39.6934 27.875V30.4336H41.666V31.8301H39.6934V38.3828C39.6934 38.806 39.7812 39.125 39.957 39.3398C40.1328 39.5482 40.4323 39.6523 40.8555 39.6523C41.0638 39.6523 41.3503 39.6133 41.7148 39.5352V41C41.2396 41.1302 40.7773 41.1953 40.3281 41.1953C39.5208 41.1953 38.9121 40.9512 38.502 40.4629C38.0918 39.9746 37.8867 39.2812 37.8867 38.3828V31.8301H35.9629V30.4336H37.8867V27.875H39.6934ZM50.3086 39.9551C49.6055 40.7819 48.5736 41.1953 47.2129 41.1953C46.0866 41.1953 45.2272 40.8698 44.6348 40.2188C44.0488 39.5612 43.7526 38.5911 43.7461 37.3086V30.4336H45.5527V37.2598C45.5527 38.8613 46.2038 39.6621 47.5059 39.6621C48.8861 39.6621 49.804 39.1478 50.2598 38.1191V30.4336H52.0664V41H50.3477L50.3086 39.9551ZM56.7832 41H54.9766V26H56.7832V41ZM59.2051 35.6191C59.2051 34.584 59.4069 33.653 59.8105 32.8262C60.2207 31.9993 60.7871 31.3613 61.5098 30.9121C62.2389 30.4629 63.069 30.2383 64 30.2383C65.4388 30.2383 66.6009 30.7363 67.4863 31.7324C68.3783 32.7285 68.8242 34.0534 68.8242 35.707V35.834C68.8242 36.8626 68.6257 37.7871 68.2285 38.6074C67.8379 39.4212 67.2747 40.056 66.5391 40.5117C65.8099 40.9674 64.9701 41.1953 64.0195 41.1953C62.5872 41.1953 61.4251 40.6973 60.5332 39.7012C59.6478 38.7051 59.2051 37.3867 59.2051 35.7461V35.6191ZM61.0215 35.834C61.0215 37.0059 61.2917 37.9466 61.832 38.6562C62.3789 39.3659 63.1081 39.7207 64.0195 39.7207C64.9375 39.7207 65.6667 39.3626 66.207 38.6465C66.7474 37.9238 67.0176 36.9147 67.0176 35.6191C67.0176 34.4603 66.7409 33.5228 66.1875 32.8066C65.6406 32.084 64.9115 31.7227 64 31.7227C63.1081 31.7227 62.3887 32.0775 61.8418 32.7871C61.2949 33.4967 61.0215 34.5124 61.0215 35.834ZM75.6113 35.6289C75.6113 34.0078 75.9954 32.7057 76.7637 31.7227C77.5319 30.7331 78.5378 30.2383 79.7812 30.2383C81.0182 30.2383 81.998 30.6615 82.7207 31.5078V26H84.5273V41H82.8672L82.7793 39.8672C82.0566 40.7526 81.0508 41.1953 79.7617 41.1953C78.5378 41.1953 77.5384 40.694 76.7637 39.6914C75.9954 38.6888 75.6113 37.3802 75.6113 35.7656V35.6289ZM77.418 35.834C77.418 37.0319 77.6654 37.9694 78.1602 38.6465C78.6549 39.3236 79.3385 39.6621 80.2109 39.6621C81.3568 39.6621 82.1934 39.1478 82.7207 38.1191V33.2656C82.1803 32.2695 81.3503 31.7715 80.2305 31.7715C79.3451 31.7715 78.6549 32.1133 78.1602 32.7969C77.6654 33.4805 77.418 34.4928 77.418 35.834ZM91.7246 41.1953C90.2923 41.1953 89.127 40.7266 88.2285 39.7891C87.3301 38.8451 86.8809 37.5853 86.8809 36.0098V35.6777C86.8809 34.6296 87.0794 33.6953 87.4766 32.875C87.8802 32.0482 88.4401 31.4036 89.1562 30.9414C89.8789 30.4727 90.6602 30.2383 91.5 30.2383C92.8737 30.2383 93.9414 30.6908 94.7031 31.5957C95.4648 32.5007 95.8457 33.7962 95.8457 35.4824V36.2344H88.6875C88.7135 37.276 89.0163 38.1191 89.5957 38.7637C90.1816 39.4017 90.9238 39.7207 91.8223 39.7207C92.4603 39.7207 93.0007 39.5905 93.4434 39.3301C93.8861 39.0697 94.2734 38.7246 94.6055 38.2949L95.709 39.1543C94.8236 40.515 93.4954 41.1953 91.7246 41.1953ZM91.5 31.7227C90.7708 31.7227 90.1589 31.9896 89.6641 32.5234C89.1693 33.0508 88.8633 33.793 88.7461 34.75H94.0391V34.6133C93.987 33.6953 93.7396 32.9857 93.2969 32.4844C92.8542 31.9766 92.2552 31.7227 91.5 31.7227ZM104.869 41H103.062V26H104.869V41ZM114.293 41C114.189 40.7917 114.104 40.4206 114.039 39.8867C113.199 40.7591 112.197 41.1953 111.031 41.1953C109.99 41.1953 109.133 40.9023 108.463 40.3164C107.799 39.724 107.467 38.9753 107.467 38.0703C107.467 36.9701 107.883 36.1172 108.717 35.5117C109.557 34.8997 110.735 34.5938 112.252 34.5938H114.01V33.7637C114.01 33.1322 113.821 32.6309 113.443 32.2598C113.066 31.8822 112.509 31.6934 111.773 31.6934C111.129 31.6934 110.589 31.8561 110.152 32.1816C109.716 32.5072 109.498 32.901 109.498 33.3633H107.682C107.682 32.8359 107.867 32.3281 108.238 31.8398C108.616 31.3451 109.124 30.9544 109.762 30.668C110.406 30.3815 111.113 30.2383 111.881 30.2383C113.098 30.2383 114.052 30.5443 114.742 31.1562C115.432 31.7617 115.79 32.5983 115.816 33.666V38.5293C115.816 39.4993 115.94 40.2708 116.188 40.8438V41H114.293ZM111.295 39.623C111.861 39.623 112.398 39.4766 112.906 39.1836C113.414 38.8906 113.782 38.5098 114.01 38.041V35.873H112.594C110.38 35.873 109.273 36.5208 109.273 37.8164C109.273 38.3828 109.462 38.8255 109.84 39.1445C110.217 39.4635 110.702 39.623 111.295 39.623ZM132.535 35.834C132.535 37.4421 132.167 38.7376 131.432 39.7207C130.696 40.7038 129.7 41.1953 128.443 41.1953C127.161 41.1953 126.152 40.7884 125.416 39.9746V45.0625H123.609V30.4336H125.26L125.348 31.6055C126.083 30.694 127.105 30.2383 128.414 30.2383C129.684 30.2383 130.686 30.7168 131.422 31.6738C132.164 32.6309 132.535 33.9622 132.535 35.668V35.834ZM130.729 35.6289C130.729 34.4375 130.475 33.4967 129.967 32.8066C129.459 32.1165 128.762 31.7715 127.877 31.7715C126.783 31.7715 125.963 32.2565 125.416 33.2266V38.2754C125.956 39.2389 126.783 39.7207 127.896 39.7207C128.762 39.7207 129.449 39.3789 129.957 38.6953C130.471 38.0052 130.729 36.9831 130.729 35.6289ZM141.363 41C141.259 40.7917 141.174 40.4206 141.109 39.8867C140.27 40.7591 139.267 41.1953 138.102 41.1953C137.06 41.1953 136.204 40.9023 135.533 40.3164C134.869 39.724 134.537 38.9753 134.537 38.0703C134.537 36.9701 134.954 36.1172 135.787 35.5117C136.627 34.8997 137.805 34.5938 139.322 34.5938H141.08V33.7637C141.08 33.1322 140.891 32.6309 140.514 32.2598C140.136 31.8822 139.579 31.6934 138.844 31.6934C138.199 31.6934 137.659 31.8561 137.223 32.1816C136.786 32.5072 136.568 32.901 136.568 33.3633H134.752C134.752 32.8359 134.938 32.3281 135.309 31.8398C135.686 31.3451 136.194 30.9544 136.832 30.668C137.477 30.3815 138.183 30.2383 138.951 30.2383C140.169 30.2383 141.122 30.5443 141.812 31.1562C142.503 31.7617 142.861 32.5983 142.887 33.666V38.5293C142.887 39.4993 143.01 40.2708 143.258 40.8438V41H141.363ZM138.365 39.623C138.932 39.623 139.469 39.4766 139.977 39.1836C140.484 38.8906 140.852 38.5098 141.08 38.041V35.873H139.664C137.451 35.873 136.344 36.5208 136.344 37.8164C136.344 38.3828 136.533 38.8255 136.91 39.1445C137.288 39.4635 137.773 39.623 138.365 39.623ZM140.035 26H142.223L139.605 28.8711H138.15L140.035 26ZM145.289 35.6289C145.289 33.9818 145.67 32.6732 146.432 31.7031C147.193 30.7266 148.202 30.2383 149.459 30.2383C150.748 30.2383 151.754 30.694 152.477 31.6055L152.564 30.4336H154.215V40.7461C154.215 42.1133 153.808 43.1908 152.994 43.9785C152.187 44.7663 151.1 45.1602 149.732 45.1602C148.971 45.1602 148.225 44.9974 147.496 44.6719C146.767 44.3464 146.21 43.9004 145.826 43.334L146.764 42.25C147.538 43.207 148.486 43.6855 149.605 43.6855C150.484 43.6855 151.168 43.4382 151.656 42.9434C152.151 42.4486 152.398 41.752 152.398 40.8535V39.9453C151.676 40.7786 150.689 41.1953 149.439 41.1953C148.202 41.1953 147.2 40.6973 146.432 39.7012C145.67 38.7051 145.289 37.3477 145.289 35.6289ZM147.105 35.834C147.105 37.0254 147.35 37.9629 147.838 38.6465C148.326 39.3236 149.01 39.6621 149.889 39.6621C151.028 39.6621 151.865 39.1445 152.398 38.1094V33.2852C151.845 32.276 151.015 31.7715 149.908 31.7715C149.029 31.7715 148.342 32.1133 147.848 32.7969C147.353 33.4805 147.105 34.4928 147.105 35.834ZM158.912 41H157.105V30.4336H158.912V41ZM156.959 27.6309C156.959 27.3379 157.047 27.0905 157.223 26.8887C157.405 26.6868 157.672 26.5859 158.023 26.5859C158.375 26.5859 158.642 26.6868 158.824 26.8887C159.007 27.0905 159.098 27.3379 159.098 27.6309C159.098 27.9238 159.007 28.168 158.824 28.3633C158.642 28.5586 158.375 28.6562 158.023 28.6562C157.672 28.6562 157.405 28.5586 157.223 28.3633C157.047 28.168 156.959 27.9238 156.959 27.6309ZM163.521 30.4336L163.58 31.7617C164.387 30.7461 165.442 30.2383 166.744 30.2383C168.977 30.2383 170.104 31.498 170.123 34.0176V41H168.316V34.0078C168.31 33.2461 168.134 32.6829 167.789 32.3184C167.451 31.9538 166.92 31.7715 166.197 31.7715C165.611 31.7715 165.097 31.9277 164.654 32.2402C164.212 32.5527 163.867 32.9629 163.619 33.4707V41H161.812V30.4336H163.521ZM179.371 41C179.267 40.7917 179.182 40.4206 179.117 39.8867C178.277 40.7591 177.275 41.1953 176.109 41.1953C175.068 41.1953 174.212 40.9023 173.541 40.3164C172.877 39.724 172.545 38.9753 172.545 38.0703C172.545 36.9701 172.962 36.1172 173.795 35.5117C174.635 34.8997 175.813 34.5938 177.33 34.5938H179.088V33.7637C179.088 33.1322 178.899 32.6309 178.521 32.2598C178.144 31.8822 177.587 31.6934 176.852 31.6934C176.207 31.6934 175.667 31.8561 175.23 32.1816C174.794 32.5072 174.576 32.901 174.576 33.3633H172.76C172.76 32.8359 172.945 32.3281 173.316 31.8398C173.694 31.3451 174.202 30.9544 174.84 30.668C175.484 30.3815 176.191 30.2383 176.959 30.2383C178.176 30.2383 179.13 30.5443 179.82 31.1562C180.51 31.7617 180.868 32.5983 180.895 33.666V38.5293C180.895 39.4993 181.018 40.2708 181.266 40.8438V41H179.371ZM176.373 39.623C176.939 39.623 177.477 39.4766 177.984 39.1836C178.492 38.8906 178.86 38.5098 179.088 38.041V35.873H177.672C175.458 35.873 174.352 36.5208 174.352 37.8164C174.352 38.3828 174.54 38.8255 174.918 39.1445C175.296 39.4635 175.781 39.623 176.373 39.623Z" fill="black"/>
<path d="M0 0V-1H-1V0H0ZM485 0H486V-1H485V0ZM485 83V84H486V83H485ZM0 83H-1V84H0V83ZM0 1H485V-1H0V1ZM484 0V83H486V0H484ZM485 82H0V84H485V82ZM1 83V0H-1V83H1Z" fill="white"/>
<rect x="0.5" y="0.5" width="484" height="727" stroke="#E5E5E5"/>
</svg>
