<svg width="968" height="728" viewBox="0 0 968 728" fill="none" xmlns="http://www.w3.org/2000/svg">
<rect x="0.5" y="0.5" width="967" height="727" fill="white"/>
<path d="M0 656H485V728H0V656Z" fill="white"/>
<path d="M22.4062 709.053C22.4062 708.74 22.4974 708.48 22.6797 708.271C22.8685 708.063 23.1484 707.959 23.5195 707.959C23.8906 707.959 24.1706 708.063 24.3594 708.271C24.5547 708.48 24.6523 708.74 24.6523 709.053C24.6523 709.352 24.5547 709.603 24.3594 709.805C24.1706 710.007 23.8906 710.107 23.5195 710.107C23.1484 710.107 22.8685 710.007 22.6797 709.805C22.4974 709.603 22.4062 709.352 22.4062 709.053Z" fill="black"/>
<rect y="152" width="485" height="504" fill="white"/>
<rect x="30.5" y="215.5" width="160" height="50" rx="13.5" fill="#10B6AC" stroke="black"/>
<path d="M70.502 243.289H64.5449L63.207 247H61.2734L66.7031 232.781H68.3438L73.7832 247H71.8594L70.502 243.289ZM65.1113 241.746H69.9453L67.5234 235.096L65.1113 241.746ZM79.6523 245.721C80.2969 245.721 80.86 245.525 81.3418 245.135C81.8236 244.744 82.0905 244.256 82.1426 243.67H83.8516C83.819 244.275 83.6107 244.852 83.2266 245.398C82.8424 245.945 82.3281 246.382 81.6836 246.707C81.0456 247.033 80.3685 247.195 79.6523 247.195C78.2135 247.195 77.0677 246.717 76.2148 245.76C75.3685 244.796 74.9453 243.481 74.9453 241.814V241.512C74.9453 240.483 75.1341 239.568 75.5117 238.768C75.8893 237.967 76.4297 237.345 77.1328 236.902C77.8424 236.46 78.679 236.238 79.6426 236.238C80.8275 236.238 81.8105 236.593 82.5918 237.303C83.3796 238.012 83.7995 238.934 83.8516 240.066H82.1426C82.0905 239.383 81.8301 238.823 81.3613 238.387C80.8991 237.944 80.3262 237.723 79.6426 237.723C78.7246 237.723 78.0117 238.055 77.5039 238.719C77.0026 239.376 76.752 240.33 76.752 241.58V241.922C76.752 243.139 77.0026 244.077 77.5039 244.734C78.0052 245.392 78.7214 245.721 79.6523 245.721ZM90.2676 247.195C88.8353 247.195 87.6699 246.727 86.7715 245.789C85.873 244.845 85.4238 243.585 85.4238 242.01V241.678C85.4238 240.63 85.6224 239.695 86.0195 238.875C86.4232 238.048 86.9831 237.404 87.6992 236.941C88.4219 236.473 89.2031 236.238 90.043 236.238C91.4167 236.238 92.4844 236.691 93.2461 237.596C94.0078 238.501 94.3887 239.796 94.3887 241.482V242.234H87.2305C87.2565 243.276 87.5592 244.119 88.1387 244.764C88.7246 245.402 89.4668 245.721 90.3652 245.721C91.0033 245.721 91.5436 245.59 91.9863 245.33C92.429 245.07 92.8164 244.725 93.1484 244.295L94.252 245.154C93.3665 246.515 92.0384 247.195 90.2676 247.195ZM90.043 237.723C89.3138 237.723 88.7018 237.99 88.207 238.523C87.7122 239.051 87.4062 239.793 87.2891 240.75H92.582V240.613C92.5299 239.695 92.2826 238.986 91.8398 238.484C91.3971 237.977 90.7982 237.723 90.043 237.723ZM105.414 241.834C105.414 243.442 105.046 244.738 104.311 245.721C103.575 246.704 102.579 247.195 101.322 247.195C100.04 247.195 99.0306 246.788 98.2949 245.975V251.062H96.4883V236.434H98.1387L98.2266 237.605C98.9622 236.694 99.9844 236.238 101.293 236.238C102.562 236.238 103.565 236.717 104.301 237.674C105.043 238.631 105.414 239.962 105.414 241.668V241.834ZM103.607 241.629C103.607 240.438 103.354 239.497 102.846 238.807C102.338 238.117 101.641 237.771 100.756 237.771C99.6621 237.771 98.8418 238.257 98.2949 239.227V244.275C98.8353 245.239 99.6621 245.721 100.775 245.721C101.641 245.721 102.328 245.379 102.836 244.695C103.35 244.005 103.607 242.983 103.607 241.629ZM110.17 233.875V236.434H112.143V237.83H110.17V244.383C110.17 244.806 110.258 245.125 110.434 245.34C110.609 245.548 110.909 245.652 111.332 245.652C111.54 245.652 111.827 245.613 112.191 245.535V247C111.716 247.13 111.254 247.195 110.805 247.195C109.997 247.195 109.389 246.951 108.979 246.463C108.568 245.975 108.363 245.281 108.363 244.383V237.83H106.439V236.434H108.363V233.875H110.17ZM120.785 247C120.681 246.792 120.596 246.421 120.531 245.887C119.691 246.759 118.689 247.195 117.523 247.195C116.482 247.195 115.626 246.902 114.955 246.316C114.291 245.724 113.959 244.975 113.959 244.07C113.959 242.97 114.376 242.117 115.209 241.512C116.049 240.9 117.227 240.594 118.744 240.594H120.502V239.764C120.502 239.132 120.313 238.631 119.936 238.26C119.558 237.882 119.001 237.693 118.266 237.693C117.621 237.693 117.081 237.856 116.645 238.182C116.208 238.507 115.99 238.901 115.99 239.363H114.174C114.174 238.836 114.359 238.328 114.73 237.84C115.108 237.345 115.616 236.954 116.254 236.668C116.898 236.382 117.605 236.238 118.373 236.238C119.59 236.238 120.544 236.544 121.234 237.156C121.924 237.762 122.283 238.598 122.309 239.666V244.529C122.309 245.499 122.432 246.271 122.68 246.844V247H120.785ZM117.787 245.623C118.354 245.623 118.891 245.477 119.398 245.184C119.906 244.891 120.274 244.51 120.502 244.041V241.873H119.086C116.872 241.873 115.766 242.521 115.766 243.816C115.766 244.383 115.954 244.826 116.332 245.145C116.71 245.464 117.195 245.623 117.787 245.623ZM130.248 238.055C129.975 238.009 129.678 237.986 129.359 237.986C128.174 237.986 127.37 238.491 126.947 239.5V247H125.141V236.434H126.898L126.928 237.654C127.52 236.71 128.36 236.238 129.447 236.238C129.799 236.238 130.066 236.284 130.248 236.375V238.055Z" fill="black"/>
<rect x="251.5" y="215.5" width="160" height="50" rx="13.5" fill="white" stroke="black"/>
<rect x="30.5" y="215.5" width="160" height="50" rx="13.5" fill="#10B6AC" stroke="black"/>
<rect x="251.5" y="215.5" width="160" height="50" rx="13.5" fill="white" stroke="black"/>
<path d="M0 82H968V152H0V82Z" fill="#EBFFFE"/>
<path d="M33.8633 120H30.9102V102.938H33.8633V120ZM39.875 107.32L39.957 108.785C40.8945 107.652 42.125 107.086 43.6484 107.086C46.2891 107.086 47.6328 108.598 47.6797 111.621V120H44.832V111.785C44.832 110.98 44.6562 110.387 44.3047 110.004C43.9609 109.613 43.3945 109.418 42.6055 109.418C41.457 109.418 40.6016 109.938 40.0391 110.977V120H37.1914V107.32H39.875ZM53.6211 120H50.7734V107.32H53.6211V120ZM50.5977 104.027C50.5977 103.59 50.7344 103.227 51.0078 102.938C51.2891 102.648 51.6875 102.504 52.2031 102.504C52.7188 102.504 53.1172 102.648 53.3984 102.938C53.6797 103.227 53.8203 103.59 53.8203 104.027C53.8203 104.457 53.6797 104.816 53.3984 105.105C53.1172 105.387 52.7188 105.527 52.2031 105.527C51.6875 105.527 51.2891 105.387 51.0078 105.105C50.7344 104.816 50.5977 104.457 50.5977 104.027ZM61.9414 117.961C62.6523 117.961 63.2422 117.754 63.7109 117.34C64.1797 116.926 64.4297 116.414 64.4609 115.805H67.1445C67.1133 116.594 66.8672 117.332 66.4062 118.02C65.9453 118.699 65.3203 119.238 64.5312 119.637C63.7422 120.035 62.8906 120.234 61.9766 120.234C60.2031 120.234 58.7969 119.66 57.7578 118.512C56.7188 117.363 56.1992 115.777 56.1992 113.754V113.461C56.1992 111.531 56.7148 109.988 57.7461 108.832C58.7773 107.668 60.1836 107.086 61.9648 107.086C63.4727 107.086 64.6992 107.527 65.6445 108.41C66.5977 109.285 67.0977 110.438 67.1445 111.867H64.4609C64.4297 111.141 64.1797 110.543 63.7109 110.074C63.25 109.605 62.6602 109.371 61.9414 109.371C61.0195 109.371 60.3086 109.707 59.8086 110.379C59.3086 111.043 59.0547 112.055 59.0469 113.414V113.871C59.0469 115.246 59.293 116.273 59.7852 116.953C60.2852 117.625 61.0039 117.961 61.9414 117.961ZM72.3242 120H69.4766V107.32H72.3242V120ZM69.3008 104.027C69.3008 103.59 69.4375 103.227 69.7109 102.938C69.9922 102.648 70.3906 102.504 70.9062 102.504C71.4219 102.504 71.8203 102.648 72.1016 102.938C72.3828 103.227 72.5234 103.59 72.5234 104.027C72.5234 104.457 72.3828 104.816 72.1016 105.105C71.8203 105.387 71.4219 105.527 70.9062 105.527C70.3906 105.527 69.9922 105.387 69.7109 105.105C69.4375 104.816 69.3008 104.457 69.3008 104.027ZM74.9023 113.543C74.9023 112.301 75.1484 111.184 75.6406 110.191C76.1328 109.191 76.8242 108.426 77.7148 107.895C78.6055 107.355 79.6289 107.086 80.7852 107.086C82.4961 107.086 83.8828 107.637 84.9453 108.738C86.0156 109.84 86.5938 111.301 86.6797 113.121L86.6914 113.789C86.6914 115.039 86.4492 116.156 85.9648 117.141C85.4883 118.125 84.8008 118.887 83.9023 119.426C83.0117 119.965 81.9805 120.234 80.8086 120.234C79.0195 120.234 77.5859 119.641 76.5078 118.453C75.4375 117.258 74.9023 115.668 74.9023 113.684V113.543ZM77.75 113.789C77.75 115.094 78.0195 116.117 78.5586 116.859C79.0977 117.594 79.8477 117.961 80.8086 117.961C81.7695 117.961 82.5156 117.586 83.0469 116.836C83.5859 116.086 83.8555 114.988 83.8555 113.543C83.8555 112.262 83.5781 111.246 83.0234 110.496C82.4766 109.746 81.7305 109.371 80.7852 109.371C79.8555 109.371 79.1172 109.742 78.5703 110.484C78.0234 111.219 77.75 112.32 77.75 113.789Z" fill="black"/>
<path d="M151.863 120H148.91V102.938H151.863V120ZM157.875 107.32L157.957 108.785C158.895 107.652 160.125 107.086 161.648 107.086C164.289 107.086 165.633 108.598 165.68 111.621V120H162.832V111.785C162.832 110.98 162.656 110.387 162.305 110.004C161.961 109.613 161.395 109.418 160.605 109.418C159.457 109.418 158.602 109.938 158.039 110.977V120H155.191V107.32H157.875ZM175.699 116.555C175.699 116.047 175.488 115.66 175.066 115.395C174.652 115.129 173.961 114.895 172.992 114.691C172.023 114.488 171.215 114.23 170.566 113.918C169.145 113.23 168.434 112.234 168.434 110.93C168.434 109.836 168.895 108.922 169.816 108.188C170.738 107.453 171.91 107.086 173.332 107.086C174.848 107.086 176.07 107.461 177 108.211C177.938 108.961 178.406 109.934 178.406 111.129H175.559C175.559 110.582 175.355 110.129 174.949 109.77C174.543 109.402 174.004 109.219 173.332 109.219C172.707 109.219 172.195 109.363 171.797 109.652C171.406 109.941 171.211 110.328 171.211 110.812C171.211 111.25 171.395 111.59 171.762 111.832C172.129 112.074 172.871 112.32 173.988 112.57C175.105 112.812 175.98 113.105 176.613 113.449C177.254 113.785 177.727 114.191 178.031 114.668C178.344 115.145 178.5 115.723 178.5 116.402C178.5 117.543 178.027 118.469 177.082 119.18C176.137 119.883 174.898 120.234 173.367 120.234C172.328 120.234 171.402 120.047 170.59 119.672C169.777 119.297 169.145 118.781 168.691 118.125C168.238 117.469 168.012 116.762 168.012 116.004H170.777C170.816 116.676 171.07 117.195 171.539 117.562C172.008 117.922 172.629 118.102 173.402 118.102C174.152 118.102 174.723 117.961 175.113 117.68C175.504 117.391 175.699 117.016 175.699 116.555ZM184.559 104.238V107.32H186.797V109.43H184.559V116.508C184.559 116.992 184.652 117.344 184.84 117.562C185.035 117.773 185.379 117.879 185.871 117.879C186.199 117.879 186.531 117.84 186.867 117.762V119.965C186.219 120.145 185.594 120.234 184.992 120.234C182.805 120.234 181.711 119.027 181.711 116.613V109.43H179.625V107.32H181.711V104.238H184.559ZM195.621 109.922C195.246 109.859 194.859 109.828 194.461 109.828C193.156 109.828 192.277 110.328 191.824 111.328V120H188.977V107.32H191.695L191.766 108.738C192.453 107.637 193.406 107.086 194.625 107.086C195.031 107.086 195.367 107.141 195.633 107.25L195.621 109.922ZM205.102 118.758C204.266 119.742 203.078 120.234 201.539 120.234C200.164 120.234 199.121 119.832 198.41 119.027C197.707 118.223 197.355 117.059 197.355 115.535V107.32H200.203V115.5C200.203 117.109 200.871 117.914 202.207 117.914C203.59 117.914 204.523 117.418 205.008 116.426V107.32H207.855V120H205.172L205.102 118.758ZM215.965 117.961C216.676 117.961 217.266 117.754 217.734 117.34C218.203 116.926 218.453 116.414 218.484 115.805H221.168C221.137 116.594 220.891 117.332 220.43 118.02C219.969 118.699 219.344 119.238 218.555 119.637C217.766 120.035 216.914 120.234 216 120.234C214.227 120.234 212.82 119.66 211.781 118.512C210.742 117.363 210.223 115.777 210.223 113.754V113.461C210.223 111.531 210.738 109.988 211.77 108.832C212.801 107.668 214.207 107.086 215.988 107.086C217.496 107.086 218.723 107.527 219.668 108.41C220.621 109.285 221.121 110.438 221.168 111.867H218.484C218.453 111.141 218.203 110.543 217.734 110.074C217.273 109.605 216.684 109.371 215.965 109.371C215.043 109.371 214.332 109.707 213.832 110.379C213.332 111.043 213.078 112.055 213.07 113.414V113.871C213.07 115.246 213.316 116.273 213.809 116.953C214.309 117.625 215.027 117.961 215.965 117.961ZM228.527 117.961C229.238 117.961 229.828 117.754 230.297 117.34C230.766 116.926 231.016 116.414 231.047 115.805H233.73C233.699 116.594 233.453 117.332 232.992 118.02C232.531 118.699 231.906 119.238 231.117 119.637C230.328 120.035 229.477 120.234 228.562 120.234C226.789 120.234 225.383 119.66 224.344 118.512C223.305 117.363 222.785 115.777 222.785 113.754V113.461C222.785 111.531 223.301 109.988 224.332 108.832C225.363 107.668 226.77 107.086 228.551 107.086C230.059 107.086 231.285 107.527 232.23 108.41C233.184 109.285 233.684 110.438 233.73 111.867H231.047C231.016 111.141 230.766 110.543 230.297 110.074C229.836 109.605 229.246 109.371 228.527 109.371C227.605 109.371 226.895 109.707 226.395 110.379C225.895 111.043 225.641 112.055 225.633 113.414V113.871C225.633 115.246 225.879 116.273 226.371 116.953C226.871 117.625 227.59 117.961 228.527 117.961ZM238.91 120H236.062V107.32H238.91V120ZM235.887 104.027C235.887 103.59 236.023 103.227 236.297 102.938C236.578 102.648 236.977 102.504 237.492 102.504C238.008 102.504 238.406 102.648 238.688 102.938C238.969 103.227 239.109 103.59 239.109 104.027C239.109 104.457 238.969 104.816 238.688 105.105C238.406 105.387 238.008 105.527 237.492 105.527C236.977 105.527 236.578 105.387 236.297 105.105C236.023 104.816 235.887 104.457 235.887 104.027ZM241.488 113.543C241.488 112.301 241.734 111.184 242.227 110.191C242.719 109.191 243.41 108.426 244.301 107.895C245.191 107.355 246.215 107.086 247.371 107.086C249.082 107.086 250.469 107.637 251.531 108.738C252.602 109.84 253.18 111.301 253.266 113.121L253.277 113.789C253.277 115.039 253.035 116.156 252.551 117.141C252.074 118.125 251.387 118.887 250.488 119.426C249.598 119.965 248.566 120.234 247.395 120.234C245.605 120.234 244.172 119.641 243.094 118.453C242.023 117.258 241.488 115.668 241.488 113.684V113.543ZM244.336 113.789C244.336 115.094 244.605 116.117 245.145 116.859C245.684 117.594 246.434 117.961 247.395 117.961C248.355 117.961 249.102 117.586 249.633 116.836C250.172 116.086 250.441 114.988 250.441 113.543C250.441 112.262 250.164 111.246 249.609 110.496C249.062 109.746 248.316 109.371 247.371 109.371C246.441 109.371 245.703 109.742 245.156 110.484C244.609 111.219 244.336 112.32 244.336 113.789ZM258.328 107.32L258.41 108.785C259.348 107.652 260.578 107.086 262.102 107.086C264.742 107.086 266.086 108.598 266.133 111.621V120H263.285V111.785C263.285 110.98 263.109 110.387 262.758 110.004C262.414 109.613 261.848 109.418 261.059 109.418C259.91 109.418 259.055 109.938 258.492 110.977V120H255.645V107.32H258.328ZM274.629 120.234C272.824 120.234 271.359 119.668 270.234 118.535C269.117 117.395 268.559 115.879 268.559 113.988V113.637C268.559 112.371 268.801 111.242 269.285 110.25C269.777 109.25 270.465 108.473 271.348 107.918C272.23 107.363 273.215 107.086 274.301 107.086C276.027 107.086 277.359 107.637 278.297 108.738C279.242 109.84 279.715 111.398 279.715 113.414V114.562H271.43C271.516 115.609 271.863 116.438 272.473 117.047C273.09 117.656 273.863 117.961 274.793 117.961C276.098 117.961 277.16 117.434 277.98 116.379L279.516 117.844C279.008 118.602 278.328 119.191 277.477 119.613C276.633 120.027 275.684 120.234 274.629 120.234ZM274.289 109.371C273.508 109.371 272.875 109.645 272.391 110.191C271.914 110.738 271.609 111.5 271.477 112.477H276.902V112.266C276.84 111.312 276.586 110.594 276.141 110.109C275.695 109.617 275.078 109.371 274.289 109.371ZM289.043 116.555C289.043 116.047 288.832 115.66 288.41 115.395C287.996 115.129 287.305 114.895 286.336 114.691C285.367 114.488 284.559 114.23 283.91 113.918C282.488 113.23 281.777 112.234 281.777 110.93C281.777 109.836 282.238 108.922 283.16 108.188C284.082 107.453 285.254 107.086 286.676 107.086C288.191 107.086 289.414 107.461 290.344 108.211C291.281 108.961 291.75 109.934 291.75 111.129H288.902C288.902 110.582 288.699 110.129 288.293 109.77C287.887 109.402 287.348 109.219 286.676 109.219C286.051 109.219 285.539 109.363 285.141 109.652C284.75 109.941 284.555 110.328 284.555 110.812C284.555 111.25 284.738 111.59 285.105 111.832C285.473 112.074 286.215 112.32 287.332 112.57C288.449 112.812 289.324 113.105 289.957 113.449C290.598 113.785 291.07 114.191 291.375 114.668C291.688 115.145 291.844 115.723 291.844 116.402C291.844 117.543 291.371 118.469 290.426 119.18C289.48 119.883 288.242 120.234 286.711 120.234C285.672 120.234 284.746 120.047 283.934 119.672C283.121 119.297 282.488 118.781 282.035 118.125C281.582 117.469 281.355 116.762 281.355 116.004H284.121C284.16 116.676 284.414 117.195 284.883 117.562C285.352 117.922 285.973 118.102 286.746 118.102C287.496 118.102 288.066 117.961 288.457 117.68C288.848 117.391 289.043 117.016 289.043 116.555Z" fill="black"/>
<path d="M0 82V81H-1V82H0ZM968 82H969V81H968V82ZM968 152V153H969V152H968ZM0 152H-1V153H0V152ZM0 83H968V81H0V83ZM967 82V152H969V82H967ZM968 151H0V153H968V151ZM1 152V82H-1V152H1Z" fill="white"/>
<path d="M0 0H968V83H0V0Z" fill="#11D0C5"/>
<path d="M0 0V-1H-1V0H0ZM968 0H969V-1H968V0ZM968 83V84H969V83H968ZM0 83H-1V84H0V83ZM0 1H968V-1H0V1ZM967 0V83H969V0H967ZM968 82H0V84H968V82ZM1 83V0H-1V83H1Z" fill="white"/>
<rect x="0.5" y="0.5" width="967" height="727" stroke="#E5E5E5"/>
</svg>
