<svg width="546" height="822" viewBox="0 0 546 822" fill="none" xmlns="http://www.w3.org/2000/svg">
<g filter="url(#filter0_d)">
<g clip-path="url(#clip0)">
<rect x="4" width="538" height="814" fill="white"/>
<rect x="4" y="102" width="485" height="712" fill="white"/>
<path d="M45.6875 181.428H39.5254V186.467H46.6836V188H37.6504V173.781H46.5859V175.324H39.5254V179.895H45.6875V181.428ZM52.2793 181.291L54.623 177.434H56.7324L53.2754 182.658L56.8398 188H54.75L52.3086 184.045L49.8672 188H47.7676L51.332 182.658L47.875 177.434H49.9648L52.2793 181.291ZM67.582 182.834C67.582 184.442 67.2142 185.738 66.4785 186.721C65.7428 187.704 64.7467 188.195 63.4902 188.195C62.2077 188.195 61.1986 187.788 60.4629 186.975V192.062H58.6562V177.434H60.3066L60.3945 178.605C61.1302 177.694 62.1523 177.238 63.4609 177.238C64.7305 177.238 65.7331 177.717 66.4688 178.674C67.2109 179.631 67.582 180.962 67.582 182.668V182.834ZM65.7754 182.629C65.7754 181.438 65.5215 180.497 65.0137 179.807C64.5059 179.117 63.8092 178.771 62.9238 178.771C61.8301 178.771 61.0098 179.257 60.4629 180.227V185.275C61.0033 186.239 61.8301 186.721 62.9434 186.721C63.8092 186.721 64.4961 186.379 65.0039 185.695C65.5182 185.005 65.7754 183.983 65.7754 182.629ZM71.8496 188H70.043V173H71.8496V188ZM76.7129 188H74.9062V177.434H76.7129V188ZM74.7598 174.631C74.7598 174.338 74.8477 174.09 75.0234 173.889C75.2057 173.687 75.4727 173.586 75.8242 173.586C76.1758 173.586 76.4427 173.687 76.625 173.889C76.8073 174.09 76.8984 174.338 76.8984 174.631C76.8984 174.924 76.8073 175.168 76.625 175.363C76.4427 175.559 76.1758 175.656 75.8242 175.656C75.4727 175.656 75.2057 175.559 75.0234 175.363C74.8477 175.168 74.7598 174.924 74.7598 174.631ZM83.8516 186.721C84.4961 186.721 85.0592 186.525 85.541 186.135C86.0228 185.744 86.2897 185.256 86.3418 184.67H88.0508C88.0182 185.275 87.8099 185.852 87.4258 186.398C87.0417 186.945 86.5273 187.382 85.8828 187.707C85.2448 188.033 84.5677 188.195 83.8516 188.195C82.4128 188.195 81.2669 187.717 80.4141 186.76C79.5677 185.796 79.1445 184.481 79.1445 182.814V182.512C79.1445 181.483 79.3333 180.568 79.7109 179.768C80.0885 178.967 80.6289 178.345 81.332 177.902C82.0417 177.46 82.8783 177.238 83.8418 177.238C85.0267 177.238 86.0098 177.593 86.791 178.303C87.5788 179.012 87.9987 179.934 88.0508 181.066H86.3418C86.2897 180.383 86.0293 179.823 85.5605 179.387C85.0983 178.944 84.5254 178.723 83.8418 178.723C82.9238 178.723 82.2109 179.055 81.7031 179.719C81.2018 180.376 80.9512 181.33 80.9512 182.58V182.922C80.9512 184.139 81.2018 185.077 81.7031 185.734C82.2044 186.392 82.9206 186.721 83.8516 186.721ZM96.6055 188C96.5013 187.792 96.4167 187.421 96.3516 186.887C95.5117 187.759 94.5091 188.195 93.3438 188.195C92.3021 188.195 91.446 187.902 90.7754 187.316C90.1113 186.724 89.7793 185.975 89.7793 185.07C89.7793 183.97 90.196 183.117 91.0293 182.512C91.8691 181.9 93.0475 181.594 94.5645 181.594H96.3223V180.764C96.3223 180.132 96.1335 179.631 95.7559 179.26C95.3783 178.882 94.8216 178.693 94.0859 178.693C93.4414 178.693 92.901 178.856 92.4648 179.182C92.0286 179.507 91.8105 179.901 91.8105 180.363H89.9941C89.9941 179.836 90.1797 179.328 90.5508 178.84C90.9284 178.345 91.4362 177.954 92.0742 177.668C92.7188 177.382 93.4251 177.238 94.1934 177.238C95.4108 177.238 96.3646 177.544 97.0547 178.156C97.7448 178.762 98.1029 179.598 98.1289 180.666V185.529C98.1289 186.499 98.2526 187.271 98.5 187.844V188H96.6055ZM93.6074 186.623C94.1738 186.623 94.7109 186.477 95.2188 186.184C95.7266 185.891 96.0944 185.51 96.3223 185.041V182.873H94.9062C92.6927 182.873 91.5859 183.521 91.5859 184.816C91.5859 185.383 91.7747 185.826 92.1523 186.145C92.5299 186.464 93.015 186.623 93.6074 186.623ZM105.199 186.721C105.844 186.721 106.407 186.525 106.889 186.135C107.37 185.744 107.637 185.256 107.689 184.67H109.398C109.366 185.275 109.158 185.852 108.773 186.398C108.389 186.945 107.875 187.382 107.23 187.707C106.592 188.033 105.915 188.195 105.199 188.195C103.76 188.195 102.615 187.717 101.762 186.76C100.915 185.796 100.492 184.481 100.492 182.814V182.512C100.492 181.483 100.681 180.568 101.059 179.768C101.436 178.967 101.977 178.345 102.68 177.902C103.389 177.46 104.226 177.238 105.189 177.238C106.374 177.238 107.357 177.593 108.139 178.303C108.926 179.012 109.346 179.934 109.398 181.066H107.689C107.637 180.383 107.377 179.823 106.908 179.387C106.446 178.944 105.873 178.723 105.189 178.723C104.271 178.723 103.559 179.055 103.051 179.719C102.549 180.376 102.299 181.33 102.299 182.58V182.922C102.299 184.139 102.549 185.077 103.051 185.734C103.552 186.392 104.268 186.721 105.199 186.721ZM113.393 188H111.586V177.434H113.393V188ZM111.439 174.631C111.439 174.338 111.527 174.09 111.703 173.889C111.885 173.687 112.152 173.586 112.504 173.586C112.855 173.586 113.122 173.687 113.305 173.889C113.487 174.09 113.578 174.338 113.578 174.631C113.578 174.924 113.487 175.168 113.305 175.363C113.122 175.559 112.855 175.656 112.504 175.656C112.152 175.656 111.885 175.559 111.703 175.363C111.527 175.168 111.439 174.924 111.439 174.631ZM115.814 182.619C115.814 181.584 116.016 180.653 116.42 179.826C116.83 178.999 117.396 178.361 118.119 177.912C118.848 177.463 119.678 177.238 120.609 177.238C122.048 177.238 123.21 177.736 124.096 178.732C124.988 179.729 125.434 181.053 125.434 182.707V182.834C125.434 183.863 125.235 184.787 124.838 185.607C124.447 186.421 123.884 187.056 123.148 187.512C122.419 187.967 121.579 188.195 120.629 188.195C119.197 188.195 118.035 187.697 117.143 186.701C116.257 185.705 115.814 184.387 115.814 182.746V182.619ZM117.631 182.834C117.631 184.006 117.901 184.947 118.441 185.656C118.988 186.366 119.717 186.721 120.629 186.721C121.547 186.721 122.276 186.363 122.816 185.646C123.357 184.924 123.627 183.915 123.627 182.619C123.627 181.46 123.35 180.523 122.797 179.807C122.25 179.084 121.521 178.723 120.609 178.723C119.717 178.723 118.998 179.077 118.451 179.787C117.904 180.497 117.631 181.512 117.631 182.834ZM121.43 173H123.617L121 175.871H119.545L121.43 173ZM129.408 177.434L129.467 178.762C130.274 177.746 131.329 177.238 132.631 177.238C134.864 177.238 135.99 178.498 136.01 181.018V188H134.203V181.008C134.197 180.246 134.021 179.683 133.676 179.318C133.337 178.954 132.807 178.771 132.084 178.771C131.498 178.771 130.984 178.928 130.541 179.24C130.098 179.553 129.753 179.963 129.506 180.471V188H127.699V177.434H129.408ZM143.256 182.629C143.256 181.008 143.64 179.706 144.408 178.723C145.176 177.733 146.182 177.238 147.426 177.238C148.663 177.238 149.643 177.661 150.365 178.508V173H152.172V188H150.512L150.424 186.867C149.701 187.753 148.695 188.195 147.406 188.195C146.182 188.195 145.183 187.694 144.408 186.691C143.64 185.689 143.256 184.38 143.256 182.766V182.629ZM145.062 182.834C145.062 184.032 145.31 184.969 145.805 185.646C146.299 186.324 146.983 186.662 147.855 186.662C149.001 186.662 149.838 186.148 150.365 185.119V180.266C149.825 179.27 148.995 178.771 147.875 178.771C146.99 178.771 146.299 179.113 145.805 179.797C145.31 180.48 145.062 181.493 145.062 182.834ZM159.369 188.195C157.937 188.195 156.771 187.727 155.873 186.789C154.975 185.845 154.525 184.585 154.525 183.01V182.678C154.525 181.63 154.724 180.695 155.121 179.875C155.525 179.048 156.085 178.404 156.801 177.941C157.523 177.473 158.305 177.238 159.145 177.238C160.518 177.238 161.586 177.691 162.348 178.596C163.109 179.501 163.49 180.796 163.49 182.482V183.234H156.332C156.358 184.276 156.661 185.119 157.24 185.764C157.826 186.402 158.568 186.721 159.467 186.721C160.105 186.721 160.645 186.59 161.088 186.33C161.531 186.07 161.918 185.725 162.25 185.295L163.354 186.154C162.468 187.515 161.14 188.195 159.369 188.195ZM159.145 178.723C158.415 178.723 157.803 178.99 157.309 179.523C156.814 180.051 156.508 180.793 156.391 181.75H161.684V181.613C161.632 180.695 161.384 179.986 160.941 179.484C160.499 178.977 159.9 178.723 159.145 178.723ZM172.514 188H170.707V173H172.514V188ZM181.938 188C181.833 187.792 181.749 187.421 181.684 186.887C180.844 187.759 179.841 188.195 178.676 188.195C177.634 188.195 176.778 187.902 176.107 187.316C175.443 186.724 175.111 185.975 175.111 185.07C175.111 183.97 175.528 183.117 176.361 182.512C177.201 181.9 178.38 181.594 179.896 181.594H181.654V180.764C181.654 180.132 181.465 179.631 181.088 179.26C180.71 178.882 180.154 178.693 179.418 178.693C178.773 178.693 178.233 178.856 177.797 179.182C177.361 179.507 177.143 179.901 177.143 180.363H175.326C175.326 179.836 175.512 179.328 175.883 178.84C176.26 178.345 176.768 177.954 177.406 177.668C178.051 177.382 178.757 177.238 179.525 177.238C180.743 177.238 181.697 177.544 182.387 178.156C183.077 178.762 183.435 179.598 183.461 180.666V185.529C183.461 186.499 183.585 187.271 183.832 187.844V188H181.938ZM178.939 186.623C179.506 186.623 180.043 186.477 180.551 186.184C181.059 185.891 181.426 185.51 181.654 185.041V182.873H180.238C178.025 182.873 176.918 183.521 176.918 184.816C176.918 185.383 177.107 185.826 177.484 186.145C177.862 186.464 178.347 186.623 178.939 186.623ZM200.18 182.834C200.18 184.442 199.812 185.738 199.076 186.721C198.34 187.704 197.344 188.195 196.088 188.195C194.805 188.195 193.796 187.788 193.061 186.975V192.062H191.254V177.434H192.904L192.992 178.605C193.728 177.694 194.75 177.238 196.059 177.238C197.328 177.238 198.331 177.717 199.066 178.674C199.809 179.631 200.18 180.962 200.18 182.668V182.834ZM198.373 182.629C198.373 181.438 198.119 180.497 197.611 179.807C197.104 179.117 196.407 178.771 195.521 178.771C194.428 178.771 193.607 179.257 193.061 180.227V185.275C193.601 186.239 194.428 186.721 195.541 186.721C196.407 186.721 197.094 186.379 197.602 185.695C198.116 185.005 198.373 183.983 198.373 182.629ZM209.008 188C208.904 187.792 208.819 187.421 208.754 186.887C207.914 187.759 206.911 188.195 205.746 188.195C204.704 188.195 203.848 187.902 203.178 187.316C202.514 186.724 202.182 185.975 202.182 185.07C202.182 183.97 202.598 183.117 203.432 182.512C204.271 181.9 205.45 181.594 206.967 181.594H208.725V180.764C208.725 180.132 208.536 179.631 208.158 179.26C207.781 178.882 207.224 178.693 206.488 178.693C205.844 178.693 205.303 178.856 204.867 179.182C204.431 179.507 204.213 179.901 204.213 180.363H202.396C202.396 179.836 202.582 179.328 202.953 178.84C203.331 178.345 203.839 177.954 204.477 177.668C205.121 177.382 205.827 177.238 206.596 177.238C207.813 177.238 208.767 177.544 209.457 178.156C210.147 178.762 210.505 179.598 210.531 180.666V185.529C210.531 186.499 210.655 187.271 210.902 187.844V188H209.008ZM206.01 186.623C206.576 186.623 207.113 186.477 207.621 186.184C208.129 185.891 208.497 185.51 208.725 185.041V182.873H207.309C205.095 182.873 203.988 183.521 203.988 184.816C203.988 185.383 204.177 185.826 204.555 186.145C204.932 186.464 205.417 186.623 206.01 186.623ZM215.072 177.434L215.131 178.762C215.938 177.746 216.993 177.238 218.295 177.238C220.528 177.238 221.654 178.498 221.674 181.018V188H219.867V181.008C219.861 180.246 219.685 179.683 219.34 179.318C219.001 178.954 218.471 178.771 217.748 178.771C217.162 178.771 216.648 178.928 216.205 179.24C215.762 179.553 215.417 179.963 215.17 180.471V188H213.363V177.434H215.072ZM226.85 174.875V177.434H228.822V178.83H226.85V185.383C226.85 185.806 226.938 186.125 227.113 186.34C227.289 186.548 227.589 186.652 228.012 186.652C228.22 186.652 228.507 186.613 228.871 186.535V188C228.396 188.13 227.934 188.195 227.484 188.195C226.677 188.195 226.068 187.951 225.658 187.463C225.248 186.975 225.043 186.281 225.043 185.383V178.83H223.119V177.434H225.043V174.875H226.85ZM237.465 188C237.361 187.792 237.276 187.421 237.211 186.887C236.371 187.759 235.368 188.195 234.203 188.195C233.161 188.195 232.305 187.902 231.635 187.316C230.971 186.724 230.639 185.975 230.639 185.07C230.639 183.97 231.055 183.117 231.889 182.512C232.729 181.9 233.907 181.594 235.424 181.594H237.182V180.764C237.182 180.132 236.993 179.631 236.615 179.26C236.238 178.882 235.681 178.693 234.945 178.693C234.301 178.693 233.76 178.856 233.324 179.182C232.888 179.507 232.67 179.901 232.67 180.363H230.854C230.854 179.836 231.039 179.328 231.41 178.84C231.788 178.345 232.296 177.954 232.934 177.668C233.578 177.382 234.285 177.238 235.053 177.238C236.27 177.238 237.224 177.544 237.914 178.156C238.604 178.762 238.962 179.598 238.988 180.666V185.529C238.988 186.499 239.112 187.271 239.359 187.844V188H237.465ZM234.467 186.623C235.033 186.623 235.57 186.477 236.078 186.184C236.586 185.891 236.954 185.51 237.182 185.041V182.873H235.766C233.552 182.873 232.445 183.521 232.445 184.816C232.445 185.383 232.634 185.826 233.012 186.145C233.389 186.464 233.874 186.623 234.467 186.623ZM243.783 188H241.977V173H243.783V188ZM248.646 188H246.84V173H248.646V188ZM258.07 188C257.966 187.792 257.882 187.421 257.816 186.887C256.977 187.759 255.974 188.195 254.809 188.195C253.767 188.195 252.911 187.902 252.24 187.316C251.576 186.724 251.244 185.975 251.244 185.07C251.244 183.97 251.661 183.117 252.494 182.512C253.334 181.9 254.512 181.594 256.029 181.594H257.787V180.764C257.787 180.132 257.598 179.631 257.221 179.26C256.843 178.882 256.286 178.693 255.551 178.693C254.906 178.693 254.366 178.856 253.93 179.182C253.493 179.507 253.275 179.901 253.275 180.363H251.459C251.459 179.836 251.645 179.328 252.016 178.84C252.393 178.345 252.901 177.954 253.539 177.668C254.184 177.382 254.89 177.238 255.658 177.238C256.876 177.238 257.829 177.544 258.52 178.156C259.21 178.762 259.568 179.598 259.594 180.666V185.529C259.594 186.499 259.717 187.271 259.965 187.844V188H258.07ZM255.072 186.623C255.639 186.623 256.176 186.477 256.684 186.184C257.191 185.891 257.559 185.51 257.787 185.041V182.873H256.371C254.158 182.873 253.051 183.521 253.051 184.816C253.051 185.383 253.24 185.826 253.617 186.145C253.995 186.464 254.48 186.623 255.072 186.623Z" fill="black"/>
<rect x="49.5" y="230.5" width="225" height="96" fill="white" stroke="black"/>
<path d="M153 246.453L162.409 272.12L162.529 272.448H162.879H193.147L168.713 288.183L168.377 288.4L168.514 288.775L177.88 314.324L153.271 298.476L153 298.302L152.729 298.476L128.12 314.324L137.486 288.775L137.623 288.4L137.287 288.183L112.853 272.448H143.121H143.471L143.591 272.12L153 246.453Z" fill="white" stroke="black"/>
<line x1="36" y1="149" x2="449" y2="149" stroke="#11D0C5" stroke-width="2"/>
<rect x="53.5" y="468.5" width="225" height="96" fill="white" stroke="black"/>
<path d="M157 484.453L166.409 510.12L166.529 510.448H166.879H197.147L172.713 526.183L172.377 526.4L172.514 526.775L181.88 552.324L157.271 536.476L157 536.302L156.729 536.476L132.12 552.324L141.486 526.775L141.623 526.4L141.287 526.183L116.853 510.448H147.121H147.471L147.591 510.12L157 484.453Z" fill="white" stroke="black"/>
<path d="M56.6875 403.428H50.5254V408.467H57.6836V410H48.6504V395.781H57.5859V397.324H50.5254V401.895H56.6875V403.428ZM63.2793 403.291L65.623 399.434H67.7324L64.2754 404.658L67.8398 410H65.75L63.3086 406.045L60.8672 410H58.7676L62.332 404.658L58.875 399.434H60.9648L63.2793 403.291ZM78.582 404.834C78.582 406.442 78.2142 407.738 77.4785 408.721C76.7428 409.704 75.7467 410.195 74.4902 410.195C73.2077 410.195 72.1986 409.788 71.4629 408.975V414.062H69.6562V399.434H71.3066L71.3945 400.605C72.1302 399.694 73.1523 399.238 74.4609 399.238C75.7305 399.238 76.7331 399.717 77.4688 400.674C78.2109 401.631 78.582 402.962 78.582 404.668V404.834ZM76.7754 404.629C76.7754 403.438 76.5215 402.497 76.0137 401.807C75.5059 401.117 74.8092 400.771 73.9238 400.771C72.8301 400.771 72.0098 401.257 71.4629 402.227V407.275C72.0033 408.239 72.8301 408.721 73.9434 408.721C74.8092 408.721 75.4961 408.379 76.0039 407.695C76.5182 407.005 76.7754 405.983 76.7754 404.629ZM82.8496 410H81.043V395H82.8496V410ZM87.7129 410H85.9062V399.434H87.7129V410ZM85.7598 396.631C85.7598 396.338 85.8477 396.09 86.0234 395.889C86.2057 395.687 86.4727 395.586 86.8242 395.586C87.1758 395.586 87.4427 395.687 87.625 395.889C87.8073 396.09 87.8984 396.338 87.8984 396.631C87.8984 396.924 87.8073 397.168 87.625 397.363C87.4427 397.559 87.1758 397.656 86.8242 397.656C86.4727 397.656 86.2057 397.559 86.0234 397.363C85.8477 397.168 85.7598 396.924 85.7598 396.631ZM94.8516 408.721C95.4961 408.721 96.0592 408.525 96.541 408.135C97.0228 407.744 97.2897 407.256 97.3418 406.67H99.0508C99.0182 407.275 98.8099 407.852 98.4258 408.398C98.0417 408.945 97.5273 409.382 96.8828 409.707C96.2448 410.033 95.5677 410.195 94.8516 410.195C93.4128 410.195 92.2669 409.717 91.4141 408.76C90.5677 407.796 90.1445 406.481 90.1445 404.814V404.512C90.1445 403.483 90.3333 402.568 90.7109 401.768C91.0885 400.967 91.6289 400.345 92.332 399.902C93.0417 399.46 93.8783 399.238 94.8418 399.238C96.0267 399.238 97.0098 399.593 97.791 400.303C98.5788 401.012 98.9987 401.934 99.0508 403.066H97.3418C97.2897 402.383 97.0293 401.823 96.5605 401.387C96.0983 400.944 95.5254 400.723 94.8418 400.723C93.9238 400.723 93.2109 401.055 92.7031 401.719C92.2018 402.376 91.9512 403.33 91.9512 404.58V404.922C91.9512 406.139 92.2018 407.077 92.7031 407.734C93.2044 408.392 93.9206 408.721 94.8516 408.721ZM107.605 410C107.501 409.792 107.417 409.421 107.352 408.887C106.512 409.759 105.509 410.195 104.344 410.195C103.302 410.195 102.446 409.902 101.775 409.316C101.111 408.724 100.779 407.975 100.779 407.07C100.779 405.97 101.196 405.117 102.029 404.512C102.869 403.9 104.048 403.594 105.564 403.594H107.322V402.764C107.322 402.132 107.133 401.631 106.756 401.26C106.378 400.882 105.822 400.693 105.086 400.693C104.441 400.693 103.901 400.856 103.465 401.182C103.029 401.507 102.811 401.901 102.811 402.363H100.994C100.994 401.836 101.18 401.328 101.551 400.84C101.928 400.345 102.436 399.954 103.074 399.668C103.719 399.382 104.425 399.238 105.193 399.238C106.411 399.238 107.365 399.544 108.055 400.156C108.745 400.762 109.103 401.598 109.129 402.666V407.529C109.129 408.499 109.253 409.271 109.5 409.844V410H107.605ZM104.607 408.623C105.174 408.623 105.711 408.477 106.219 408.184C106.727 407.891 107.094 407.51 107.322 407.041V404.873H105.906C103.693 404.873 102.586 405.521 102.586 406.816C102.586 407.383 102.775 407.826 103.152 408.145C103.53 408.464 104.015 408.623 104.607 408.623ZM116.199 408.721C116.844 408.721 117.407 408.525 117.889 408.135C118.37 407.744 118.637 407.256 118.689 406.67H120.398C120.366 407.275 120.158 407.852 119.773 408.398C119.389 408.945 118.875 409.382 118.23 409.707C117.592 410.033 116.915 410.195 116.199 410.195C114.76 410.195 113.615 409.717 112.762 408.76C111.915 407.796 111.492 406.481 111.492 404.814V404.512C111.492 403.483 111.681 402.568 112.059 401.768C112.436 400.967 112.977 400.345 113.68 399.902C114.389 399.46 115.226 399.238 116.189 399.238C117.374 399.238 118.357 399.593 119.139 400.303C119.926 401.012 120.346 401.934 120.398 403.066H118.689C118.637 402.383 118.377 401.823 117.908 401.387C117.446 400.944 116.873 400.723 116.189 400.723C115.271 400.723 114.559 401.055 114.051 401.719C113.549 402.376 113.299 403.33 113.299 404.58V404.922C113.299 406.139 113.549 407.077 114.051 407.734C114.552 408.392 115.268 408.721 116.199 408.721ZM124.393 410H122.586V399.434H124.393V410ZM122.439 396.631C122.439 396.338 122.527 396.09 122.703 395.889C122.885 395.687 123.152 395.586 123.504 395.586C123.855 395.586 124.122 395.687 124.305 395.889C124.487 396.09 124.578 396.338 124.578 396.631C124.578 396.924 124.487 397.168 124.305 397.363C124.122 397.559 123.855 397.656 123.504 397.656C123.152 397.656 122.885 397.559 122.703 397.363C122.527 397.168 122.439 396.924 122.439 396.631ZM126.814 404.619C126.814 403.584 127.016 402.653 127.42 401.826C127.83 400.999 128.396 400.361 129.119 399.912C129.848 399.463 130.678 399.238 131.609 399.238C133.048 399.238 134.21 399.736 135.096 400.732C135.988 401.729 136.434 403.053 136.434 404.707V404.834C136.434 405.863 136.235 406.787 135.838 407.607C135.447 408.421 134.884 409.056 134.148 409.512C133.419 409.967 132.579 410.195 131.629 410.195C130.197 410.195 129.035 409.697 128.143 408.701C127.257 407.705 126.814 406.387 126.814 404.746V404.619ZM128.631 404.834C128.631 406.006 128.901 406.947 129.441 407.656C129.988 408.366 130.717 408.721 131.629 408.721C132.547 408.721 133.276 408.363 133.816 407.646C134.357 406.924 134.627 405.915 134.627 404.619C134.627 403.46 134.35 402.523 133.797 401.807C133.25 401.084 132.521 400.723 131.609 400.723C130.717 400.723 129.998 401.077 129.451 401.787C128.904 402.497 128.631 403.512 128.631 404.834ZM132.43 395H134.617L132 397.871H130.545L132.43 395ZM140.408 399.434L140.467 400.762C141.274 399.746 142.329 399.238 143.631 399.238C145.864 399.238 146.99 400.498 147.01 403.018V410H145.203V403.008C145.197 402.246 145.021 401.683 144.676 401.318C144.337 400.954 143.807 400.771 143.084 400.771C142.498 400.771 141.984 400.928 141.541 401.24C141.098 401.553 140.753 401.963 140.506 402.471V410H138.699V399.434H140.408ZM154.256 404.629C154.256 403.008 154.64 401.706 155.408 400.723C156.176 399.733 157.182 399.238 158.426 399.238C159.663 399.238 160.643 399.661 161.365 400.508V395H163.172V410H161.512L161.424 408.867C160.701 409.753 159.695 410.195 158.406 410.195C157.182 410.195 156.183 409.694 155.408 408.691C154.64 407.689 154.256 406.38 154.256 404.766V404.629ZM156.062 404.834C156.062 406.032 156.31 406.969 156.805 407.646C157.299 408.324 157.983 408.662 158.855 408.662C160.001 408.662 160.838 408.148 161.365 407.119V402.266C160.825 401.27 159.995 400.771 158.875 400.771C157.99 400.771 157.299 401.113 156.805 401.797C156.31 402.48 156.062 403.493 156.062 404.834ZM170.369 410.195C168.937 410.195 167.771 409.727 166.873 408.789C165.975 407.845 165.525 406.585 165.525 405.01V404.678C165.525 403.63 165.724 402.695 166.121 401.875C166.525 401.048 167.085 400.404 167.801 399.941C168.523 399.473 169.305 399.238 170.145 399.238C171.518 399.238 172.586 399.691 173.348 400.596C174.109 401.501 174.49 402.796 174.49 404.482V405.234H167.332C167.358 406.276 167.661 407.119 168.24 407.764C168.826 408.402 169.568 408.721 170.467 408.721C171.105 408.721 171.645 408.59 172.088 408.33C172.531 408.07 172.918 407.725 173.25 407.295L174.354 408.154C173.468 409.515 172.14 410.195 170.369 410.195ZM170.145 400.723C169.415 400.723 168.803 400.99 168.309 401.523C167.814 402.051 167.508 402.793 167.391 403.75H172.684V403.613C172.632 402.695 172.384 401.986 171.941 401.484C171.499 400.977 170.9 400.723 170.145 400.723ZM178.553 410H176.746V395H178.553V410ZM188.113 399.434L188.162 400.605C188.937 399.694 189.982 399.238 191.297 399.238C192.775 399.238 193.781 399.805 194.314 400.938C194.666 400.43 195.122 400.02 195.682 399.707C196.248 399.395 196.915 399.238 197.684 399.238C200.001 399.238 201.18 400.465 201.219 402.92V410H199.412V403.027C199.412 402.272 199.24 401.709 198.895 401.338C198.549 400.96 197.97 400.771 197.156 400.771C196.486 400.771 195.929 400.973 195.486 401.377C195.044 401.774 194.786 402.311 194.715 402.988V410H192.898V403.076C192.898 401.54 192.146 400.771 190.643 400.771C189.458 400.771 188.647 401.276 188.211 402.285V410H186.404V399.434H188.113ZM210.477 410C210.372 409.792 210.288 409.421 210.223 408.887C209.383 409.759 208.38 410.195 207.215 410.195C206.173 410.195 205.317 409.902 204.646 409.316C203.982 408.724 203.65 407.975 203.65 407.07C203.65 405.97 204.067 405.117 204.9 404.512C205.74 403.9 206.919 403.594 208.436 403.594H210.193V402.764C210.193 402.132 210.005 401.631 209.627 401.26C209.249 400.882 208.693 400.693 207.957 400.693C207.312 400.693 206.772 400.856 206.336 401.182C205.9 401.507 205.682 401.901 205.682 402.363H203.865C203.865 401.836 204.051 401.328 204.422 400.84C204.799 400.345 205.307 399.954 205.945 399.668C206.59 399.382 207.296 399.238 208.064 399.238C209.282 399.238 210.236 399.544 210.926 400.156C211.616 400.762 211.974 401.598 212 402.666V407.529C212 408.499 212.124 409.271 212.371 409.844V410H210.477ZM207.479 408.623C208.045 408.623 208.582 408.477 209.09 408.184C209.598 407.891 209.965 407.51 210.193 407.041V404.873H208.777C206.564 404.873 205.457 405.521 205.457 406.816C205.457 407.383 205.646 407.826 206.023 408.145C206.401 408.464 206.886 408.623 207.479 408.623ZM223.758 404.834C223.758 406.442 223.39 407.738 222.654 408.721C221.919 409.704 220.923 410.195 219.666 410.195C218.383 410.195 217.374 409.788 216.639 408.975V414.062H214.832V399.434H216.482L216.57 400.605C217.306 399.694 218.328 399.238 219.637 399.238C220.906 399.238 221.909 399.717 222.645 400.674C223.387 401.631 223.758 402.962 223.758 404.668V404.834ZM221.951 404.629C221.951 403.438 221.697 402.497 221.189 401.807C220.682 401.117 219.985 400.771 219.1 400.771C218.006 400.771 217.186 401.257 216.639 402.227V407.275C217.179 408.239 218.006 408.721 219.119 408.721C219.985 408.721 220.672 408.379 221.18 407.695C221.694 407.005 221.951 405.983 221.951 404.629ZM230.447 410.195C229.015 410.195 227.85 409.727 226.951 408.789C226.053 407.845 225.604 406.585 225.604 405.01V404.678C225.604 403.63 225.802 402.695 226.199 401.875C226.603 401.048 227.163 400.404 227.879 399.941C228.602 399.473 229.383 399.238 230.223 399.238C231.596 399.238 232.664 399.691 233.426 400.596C234.188 401.501 234.568 402.796 234.568 404.482V405.234H227.41C227.436 406.276 227.739 407.119 228.318 407.764C228.904 408.402 229.646 408.721 230.545 408.721C231.183 408.721 231.723 408.59 232.166 408.33C232.609 408.07 232.996 407.725 233.328 407.295L234.432 408.154C233.546 409.515 232.218 410.195 230.447 410.195ZM230.223 400.723C229.493 400.723 228.882 400.99 228.387 401.523C227.892 402.051 227.586 402.793 227.469 403.75H232.762V403.613C232.71 402.695 232.462 401.986 232.02 401.484C231.577 400.977 230.978 400.723 230.223 400.723ZM236.189 404.619C236.189 403.584 236.391 402.653 236.795 401.826C237.205 400.999 237.771 400.361 238.494 399.912C239.223 399.463 240.053 399.238 240.984 399.238C242.423 399.238 243.585 399.736 244.471 400.732C245.363 401.729 245.809 403.053 245.809 404.707V404.834C245.809 405.863 245.61 406.787 245.213 407.607C244.822 408.421 244.259 409.056 243.523 409.512C242.794 409.967 241.954 410.195 241.004 410.195C239.572 410.195 238.41 409.697 237.518 408.701C236.632 407.705 236.189 406.387 236.189 404.746V404.619ZM238.006 404.834C238.006 406.006 238.276 406.947 238.816 407.656C239.363 408.366 240.092 408.721 241.004 408.721C241.922 408.721 242.651 408.363 243.191 407.646C243.732 406.924 244.002 405.915 244.002 404.619C244.002 403.46 243.725 402.523 243.172 401.807C242.625 401.084 241.896 400.723 240.984 400.723C240.092 400.723 239.373 401.077 238.826 401.787C238.279 402.497 238.006 403.512 238.006 404.834Z" fill="black"/>
<path d="M52.1074 657.234H50.2422V673.562H52.1074V675.047H48.4258V655.75H52.1074V657.234ZM58.6699 669.51L62.7324 657.781H64.7832L59.5098 672H57.8496L52.5859 657.781H54.627L58.6699 669.51ZM68.377 672H66.5703V661.434H68.377V672ZM66.4238 658.631C66.4238 658.338 66.5117 658.09 66.6875 657.889C66.8698 657.687 67.1367 657.586 67.4883 657.586C67.8398 657.586 68.1068 657.687 68.2891 657.889C68.4714 658.09 68.5625 658.338 68.5625 658.631C68.5625 658.924 68.4714 659.168 68.2891 659.363C68.1068 659.559 67.8398 659.656 67.4883 659.656C67.1367 659.656 66.8698 659.559 66.6875 659.363C66.5117 659.168 66.4238 658.924 66.4238 658.631ZM70.8379 666.629C70.8379 665.008 71.222 663.706 71.9902 662.723C72.7585 661.733 73.7643 661.238 75.0078 661.238C76.2448 661.238 77.2246 661.661 77.9473 662.508V657H79.7539V672H78.0938L78.0059 670.867C77.2832 671.753 76.2773 672.195 74.9883 672.195C73.7643 672.195 72.765 671.694 71.9902 670.691C71.222 669.689 70.8379 668.38 70.8379 666.766V666.629ZM72.6445 666.834C72.6445 668.032 72.8919 668.969 73.3867 669.646C73.8815 670.324 74.5651 670.662 75.4375 670.662C76.5833 670.662 77.4199 670.148 77.9473 669.119V664.266C77.4069 663.27 76.5768 662.771 75.457 662.771C74.5716 662.771 73.8815 663.113 73.3867 663.797C72.8919 664.48 72.6445 665.493 72.6445 666.834ZM86.9512 672.195C85.5189 672.195 84.3535 671.727 83.4551 670.789C82.5566 669.845 82.1074 668.585 82.1074 667.01V666.678C82.1074 665.63 82.306 664.695 82.7031 663.875C83.1068 663.048 83.6667 662.404 84.3828 661.941C85.1055 661.473 85.8867 661.238 86.7266 661.238C88.1003 661.238 89.168 661.691 89.9297 662.596C90.6914 663.501 91.0723 664.796 91.0723 666.482V667.234H83.9141C83.9401 668.276 84.2428 669.119 84.8223 669.764C85.4082 670.402 86.1504 670.721 87.0488 670.721C87.6868 670.721 88.2272 670.59 88.6699 670.33C89.1126 670.07 89.5 669.725 89.832 669.295L90.9355 670.154C90.0501 671.515 88.722 672.195 86.9512 672.195ZM86.7266 662.723C85.9974 662.723 85.3854 662.99 84.8906 663.523C84.3958 664.051 84.0898 664.793 83.9727 665.75H89.2656V665.613C89.2135 664.695 88.9661 663.986 88.5234 663.484C88.0807 662.977 87.4818 662.723 86.7266 662.723ZM92.6934 666.619C92.6934 665.584 92.8952 664.653 93.2988 663.826C93.709 662.999 94.2754 662.361 94.998 661.912C95.7272 661.463 96.5573 661.238 97.4883 661.238C98.9271 661.238 100.089 661.736 100.975 662.732C101.867 663.729 102.312 665.053 102.312 666.707V666.834C102.312 667.863 102.114 668.787 101.717 669.607C101.326 670.421 100.763 671.056 100.027 671.512C99.2982 671.967 98.4583 672.195 97.5078 672.195C96.0755 672.195 94.9134 671.697 94.0215 670.701C93.1361 669.705 92.6934 668.387 92.6934 666.746V666.619ZM94.5098 666.834C94.5098 668.006 94.7799 668.947 95.3203 669.656C95.8672 670.366 96.5964 670.721 97.5078 670.721C98.4258 670.721 99.1549 670.363 99.6953 669.646C100.236 668.924 100.506 667.915 100.506 666.619C100.506 665.46 100.229 664.523 99.6758 663.807C99.1289 663.084 98.3997 662.723 97.4883 662.723C96.5964 662.723 95.877 663.077 95.3301 663.787C94.7832 664.497 94.5098 665.512 94.5098 666.834ZM109.1 666.629C109.1 665.008 109.484 663.706 110.252 662.723C111.02 661.733 112.026 661.238 113.27 661.238C114.507 661.238 115.486 661.661 116.209 662.508V657H118.016V672H116.355L116.268 670.867C115.545 671.753 114.539 672.195 113.25 672.195C112.026 672.195 111.027 671.694 110.252 670.691C109.484 669.689 109.1 668.38 109.1 666.766V666.629ZM110.906 666.834C110.906 668.032 111.154 668.969 111.648 669.646C112.143 670.324 112.827 670.662 113.699 670.662C114.845 670.662 115.682 670.148 116.209 669.119V664.266C115.669 663.27 114.839 662.771 113.719 662.771C112.833 662.771 112.143 663.113 111.648 663.797C111.154 664.48 110.906 665.493 110.906 666.834ZM125.213 672.195C123.781 672.195 122.615 671.727 121.717 670.789C120.818 669.845 120.369 668.585 120.369 667.01V666.678C120.369 665.63 120.568 664.695 120.965 663.875C121.368 663.048 121.928 662.404 122.645 661.941C123.367 661.473 124.148 661.238 124.988 661.238C126.362 661.238 127.43 661.691 128.191 662.596C128.953 663.501 129.334 664.796 129.334 666.482V667.234H122.176C122.202 668.276 122.505 669.119 123.084 669.764C123.67 670.402 124.412 670.721 125.311 670.721C125.949 670.721 126.489 670.59 126.932 670.33C127.374 670.07 127.762 669.725 128.094 669.295L129.197 670.154C128.312 671.515 126.984 672.195 125.213 672.195ZM124.988 662.723C124.259 662.723 123.647 662.99 123.152 663.523C122.658 664.051 122.352 664.793 122.234 665.75H127.527V665.613C127.475 664.695 127.228 663.986 126.785 663.484C126.342 662.977 125.743 662.723 124.988 662.723ZM142.918 670.955C142.215 671.782 141.183 672.195 139.822 672.195C138.696 672.195 137.837 671.87 137.244 671.219C136.658 670.561 136.362 669.591 136.355 668.309V661.434H138.162V668.26C138.162 669.861 138.813 670.662 140.115 670.662C141.495 670.662 142.413 670.148 142.869 669.119V661.434H144.676V672H142.957L142.918 670.955ZM149.139 661.434L149.197 662.762C150.005 661.746 151.059 661.238 152.361 661.238C154.594 661.238 155.721 662.498 155.74 665.018V672H153.934V665.008C153.927 664.246 153.751 663.683 153.406 663.318C153.068 662.954 152.537 662.771 151.814 662.771C151.229 662.771 150.714 662.928 150.271 663.24C149.829 663.553 149.484 663.963 149.236 664.471V672H147.43V661.434H149.139ZM164.988 672C164.884 671.792 164.799 671.421 164.734 670.887C163.895 671.759 162.892 672.195 161.727 672.195C160.685 672.195 159.829 671.902 159.158 671.316C158.494 670.724 158.162 669.975 158.162 669.07C158.162 667.97 158.579 667.117 159.412 666.512C160.252 665.9 161.43 665.594 162.947 665.594H164.705V664.764C164.705 664.132 164.516 663.631 164.139 663.26C163.761 662.882 163.204 662.693 162.469 662.693C161.824 662.693 161.284 662.856 160.848 663.182C160.411 663.507 160.193 663.901 160.193 664.363H158.377C158.377 663.836 158.562 663.328 158.934 662.84C159.311 662.345 159.819 661.954 160.457 661.668C161.102 661.382 161.808 661.238 162.576 661.238C163.794 661.238 164.747 661.544 165.438 662.156C166.128 662.762 166.486 663.598 166.512 664.666V669.529C166.512 670.499 166.635 671.271 166.883 671.844V672H164.988ZM161.99 670.623C162.557 670.623 163.094 670.477 163.602 670.184C164.109 669.891 164.477 669.51 164.705 669.041V666.873H163.289C161.076 666.873 159.969 667.521 159.969 668.816C159.969 669.383 160.158 669.826 160.535 670.145C160.913 670.464 161.398 670.623 161.99 670.623ZM183.23 666.834C183.23 668.442 182.863 669.738 182.127 670.721C181.391 671.704 180.395 672.195 179.139 672.195C177.856 672.195 176.847 671.788 176.111 670.975V676.062H174.305V661.434H175.955L176.043 662.605C176.779 661.694 177.801 661.238 179.109 661.238C180.379 661.238 181.382 661.717 182.117 662.674C182.859 663.631 183.23 664.962 183.23 666.668V666.834ZM181.424 666.629C181.424 665.438 181.17 664.497 180.662 663.807C180.154 663.117 179.458 662.771 178.572 662.771C177.479 662.771 176.658 663.257 176.111 664.227V669.275C176.652 670.239 177.479 670.721 178.592 670.721C179.458 670.721 180.145 670.379 180.652 669.695C181.167 669.005 181.424 667.983 181.424 666.629ZM192.059 672C191.954 671.792 191.87 671.421 191.805 670.887C190.965 671.759 189.962 672.195 188.797 672.195C187.755 672.195 186.899 671.902 186.229 671.316C185.564 670.724 185.232 669.975 185.232 669.07C185.232 667.97 185.649 667.117 186.482 666.512C187.322 665.9 188.501 665.594 190.018 665.594H191.775V664.764C191.775 664.132 191.587 663.631 191.209 663.26C190.831 662.882 190.275 662.693 189.539 662.693C188.895 662.693 188.354 662.856 187.918 663.182C187.482 663.507 187.264 663.901 187.264 664.363H185.447C185.447 663.836 185.633 663.328 186.004 662.84C186.382 662.345 186.889 661.954 187.527 661.668C188.172 661.382 188.878 661.238 189.646 661.238C190.864 661.238 191.818 661.544 192.508 662.156C193.198 662.762 193.556 663.598 193.582 664.666V669.529C193.582 670.499 193.706 671.271 193.953 671.844V672H192.059ZM189.061 670.623C189.627 670.623 190.164 670.477 190.672 670.184C191.18 669.891 191.548 669.51 191.775 669.041V666.873H190.359C188.146 666.873 187.039 667.521 187.039 668.816C187.039 669.383 187.228 669.826 187.605 670.145C187.983 670.464 188.468 670.623 189.061 670.623ZM201.521 663.055C201.248 663.009 200.952 662.986 200.633 662.986C199.448 662.986 198.644 663.491 198.221 664.5V672H196.414V661.434H198.172L198.201 662.654C198.794 661.71 199.633 661.238 200.721 661.238C201.072 661.238 201.339 661.284 201.521 661.375V663.055ZM206.131 658.875V661.434H208.104V662.83H206.131V669.383C206.131 669.806 206.219 670.125 206.395 670.34C206.57 670.548 206.87 670.652 207.293 670.652C207.501 670.652 207.788 670.613 208.152 670.535V672C207.677 672.13 207.215 672.195 206.766 672.195C205.958 672.195 205.35 671.951 204.939 671.463C204.529 670.975 204.324 670.281 204.324 669.383V662.83H202.4V661.434H204.324V658.875H206.131ZM212.186 672H210.379V661.434H212.186V672ZM210.232 658.631C210.232 658.338 210.32 658.09 210.496 657.889C210.678 657.687 210.945 657.586 211.297 657.586C211.648 657.586 211.915 657.687 212.098 657.889C212.28 658.09 212.371 658.338 212.371 658.631C212.371 658.924 212.28 659.168 212.098 659.363C211.915 659.559 211.648 659.656 211.297 659.656C210.945 659.656 210.678 659.559 210.496 659.363C210.32 659.168 210.232 658.924 210.232 658.631ZM214.646 666.629C214.646 665.008 215.031 663.706 215.799 662.723C216.567 661.733 217.573 661.238 218.816 661.238C220.053 661.238 221.033 661.661 221.756 662.508V657H223.562V672H221.902L221.814 670.867C221.092 671.753 220.086 672.195 218.797 672.195C217.573 672.195 216.574 671.694 215.799 670.691C215.031 669.689 214.646 668.38 214.646 666.766V666.629ZM216.453 666.834C216.453 668.032 216.701 668.969 217.195 669.646C217.69 670.324 218.374 670.662 219.246 670.662C220.392 670.662 221.229 670.148 221.756 669.119V664.266C221.215 663.27 220.385 662.771 219.266 662.771C218.38 662.771 217.69 663.113 217.195 663.797C216.701 664.48 216.453 665.493 216.453 666.834ZM232.898 672C232.794 671.792 232.71 671.421 232.645 670.887C231.805 671.759 230.802 672.195 229.637 672.195C228.595 672.195 227.739 671.902 227.068 671.316C226.404 670.724 226.072 669.975 226.072 669.07C226.072 667.97 226.489 667.117 227.322 666.512C228.162 665.9 229.34 665.594 230.857 665.594H232.615V664.764C232.615 664.132 232.426 663.631 232.049 663.26C231.671 662.882 231.115 662.693 230.379 662.693C229.734 662.693 229.194 662.856 228.758 663.182C228.322 663.507 228.104 663.901 228.104 664.363H226.287C226.287 663.836 226.473 663.328 226.844 662.84C227.221 662.345 227.729 661.954 228.367 661.668C229.012 661.382 229.718 661.238 230.486 661.238C231.704 661.238 232.658 661.544 233.348 662.156C234.038 662.762 234.396 663.598 234.422 664.666V669.529C234.422 670.499 234.546 671.271 234.793 671.844V672H232.898ZM229.9 670.623C230.467 670.623 231.004 670.477 231.512 670.184C232.02 669.891 232.387 669.51 232.615 669.041V666.873H231.199C228.986 666.873 227.879 667.521 227.879 668.816C227.879 669.383 228.068 669.826 228.445 670.145C228.823 670.464 229.308 670.623 229.9 670.623ZM235.975 655.75H239.666V675.047H235.975V673.562H237.859V657.234H235.975V655.75Z" fill="black"/>
<rect x="166.5" y="739.5" width="160" height="50" rx="13.5" fill="#10B6AC" stroke="black"/>
<path d="M4 0H972V83H4V0Z" fill="#11D0C5"/>
<path d="M4 0V-1H3V0H4ZM972 0H973V-1H972V0ZM972 83V84H973V83H972ZM4 83H3V84H4V83ZM4 1H972V-1H4V1ZM971 0V83H973V0H971ZM972 82H4V84H972V82ZM5 83V0H3V83H5Z" fill="white"/>
<path d="M215.502 770.289H209.545L208.207 774H206.273L211.703 759.781H213.344L218.783 774H216.859L215.502 770.289ZM210.111 768.746H214.945L212.523 762.096L210.111 768.746ZM224.652 772.721C225.297 772.721 225.86 772.525 226.342 772.135C226.824 771.744 227.09 771.256 227.143 770.67H228.852C228.819 771.275 228.611 771.852 228.227 772.398C227.842 772.945 227.328 773.382 226.684 773.707C226.046 774.033 225.368 774.195 224.652 774.195C223.214 774.195 222.068 773.717 221.215 772.76C220.368 771.796 219.945 770.481 219.945 768.814V768.512C219.945 767.483 220.134 766.568 220.512 765.768C220.889 764.967 221.43 764.345 222.133 763.902C222.842 763.46 223.679 763.238 224.643 763.238C225.827 763.238 226.811 763.593 227.592 764.303C228.38 765.012 228.799 765.934 228.852 767.066H227.143C227.09 766.383 226.83 765.823 226.361 765.387C225.899 764.944 225.326 764.723 224.643 764.723C223.725 764.723 223.012 765.055 222.504 765.719C222.003 766.376 221.752 767.33 221.752 768.58V768.922C221.752 770.139 222.003 771.077 222.504 771.734C223.005 772.392 223.721 772.721 224.652 772.721ZM235.268 774.195C233.835 774.195 232.67 773.727 231.771 772.789C230.873 771.845 230.424 770.585 230.424 769.01V768.678C230.424 767.63 230.622 766.695 231.02 765.875C231.423 765.048 231.983 764.404 232.699 763.941C233.422 763.473 234.203 763.238 235.043 763.238C236.417 763.238 237.484 763.691 238.246 764.596C239.008 765.501 239.389 766.796 239.389 768.482V769.234H232.23C232.257 770.276 232.559 771.119 233.139 771.764C233.725 772.402 234.467 772.721 235.365 772.721C236.003 772.721 236.544 772.59 236.986 772.33C237.429 772.07 237.816 771.725 238.148 771.295L239.252 772.154C238.367 773.515 237.038 774.195 235.268 774.195ZM235.043 764.723C234.314 764.723 233.702 764.99 233.207 765.523C232.712 766.051 232.406 766.793 232.289 767.75H237.582V767.613C237.53 766.695 237.283 765.986 236.84 765.484C236.397 764.977 235.798 764.723 235.043 764.723ZM250.414 768.834C250.414 770.442 250.046 771.738 249.311 772.721C248.575 773.704 247.579 774.195 246.322 774.195C245.04 774.195 244.031 773.788 243.295 772.975V778.062H241.488V763.434H243.139L243.227 764.605C243.962 763.694 244.984 763.238 246.293 763.238C247.562 763.238 248.565 763.717 249.301 764.674C250.043 765.631 250.414 766.962 250.414 768.668V768.834ZM248.607 768.629C248.607 767.438 248.354 766.497 247.846 765.807C247.338 765.117 246.641 764.771 245.756 764.771C244.662 764.771 243.842 765.257 243.295 766.227V771.275C243.835 772.239 244.662 772.721 245.775 772.721C246.641 772.721 247.328 772.379 247.836 771.695C248.35 771.005 248.607 769.983 248.607 768.629ZM255.17 760.875V763.434H257.143V764.83H255.17V771.383C255.17 771.806 255.258 772.125 255.434 772.34C255.609 772.548 255.909 772.652 256.332 772.652C256.54 772.652 256.827 772.613 257.191 772.535V774C256.716 774.13 256.254 774.195 255.805 774.195C254.997 774.195 254.389 773.951 253.979 773.463C253.568 772.975 253.363 772.281 253.363 771.383V764.83H251.439V763.434H253.363V760.875H255.17ZM265.785 774C265.681 773.792 265.596 773.421 265.531 772.887C264.691 773.759 263.689 774.195 262.523 774.195C261.482 774.195 260.626 773.902 259.955 773.316C259.291 772.724 258.959 771.975 258.959 771.07C258.959 769.97 259.376 769.117 260.209 768.512C261.049 767.9 262.227 767.594 263.744 767.594H265.502V766.764C265.502 766.132 265.313 765.631 264.936 765.26C264.558 764.882 264.001 764.693 263.266 764.693C262.621 764.693 262.081 764.856 261.645 765.182C261.208 765.507 260.99 765.901 260.99 766.363H259.174C259.174 765.836 259.359 765.328 259.73 764.84C260.108 764.345 260.616 763.954 261.254 763.668C261.898 763.382 262.605 763.238 263.373 763.238C264.59 763.238 265.544 763.544 266.234 764.156C266.924 764.762 267.283 765.598 267.309 766.666V771.529C267.309 772.499 267.432 773.271 267.68 773.844V774H265.785ZM262.787 772.623C263.354 772.623 263.891 772.477 264.398 772.184C264.906 771.891 265.274 771.51 265.502 771.041V768.873H264.086C261.872 768.873 260.766 769.521 260.766 770.816C260.766 771.383 260.954 771.826 261.332 772.145C261.71 772.464 262.195 772.623 262.787 772.623ZM275.248 765.055C274.975 765.009 274.678 764.986 274.359 764.986C273.174 764.986 272.37 765.491 271.947 766.5V774H270.141V763.434H271.898L271.928 764.654C272.52 763.71 273.36 763.238 274.447 763.238C274.799 763.238 275.066 763.284 275.248 763.375V765.055Z" fill="black"/>
<path d="M41.2617 124H37.7461V106.938H41.2617V124ZM47.4258 111.32L47.5312 112.785C48.4375 111.652 49.6523 111.086 51.1758 111.086C52.5195 111.086 53.5195 111.48 54.1758 112.27C54.832 113.059 55.168 114.238 55.1836 115.809V124H51.7969V115.891C51.7969 115.172 51.6406 114.652 51.3281 114.332C51.0156 114.004 50.4961 113.84 49.7695 113.84C48.8164 113.84 48.1016 114.246 47.625 115.059V124H44.2383V111.32H47.4258ZM64.6289 120.496C64.6289 120.082 64.4219 119.758 64.0078 119.523C63.6016 119.281 62.9453 119.066 62.0391 118.879C59.0234 118.246 57.5156 116.965 57.5156 115.035C57.5156 113.91 57.9805 112.973 58.9102 112.223C59.8477 111.465 61.0703 111.086 62.5781 111.086C64.1875 111.086 65.4727 111.465 66.4336 112.223C67.4023 112.98 67.8867 113.965 67.8867 115.176H64.5C64.5 114.691 64.3438 114.293 64.0312 113.98C63.7188 113.66 63.2305 113.5 62.5664 113.5C61.9961 113.5 61.5547 113.629 61.2422 113.887C60.9297 114.145 60.7734 114.473 60.7734 114.871C60.7734 115.246 60.9492 115.551 61.3008 115.785C61.6602 116.012 62.2617 116.211 63.1055 116.383C63.9492 116.547 64.6602 116.734 65.2383 116.945C67.0273 117.602 67.9219 118.738 67.9219 120.355C67.9219 121.512 67.4258 122.449 66.4336 123.168C65.4414 123.879 64.1602 124.234 62.5898 124.234C61.5273 124.234 60.582 124.047 59.7539 123.672C58.9336 123.289 58.2891 122.77 57.8203 122.113C57.3516 121.449 57.1172 120.734 57.1172 119.969H60.3281C60.3594 120.57 60.582 121.031 60.9961 121.352C61.4102 121.672 61.9648 121.832 62.6602 121.832C63.3086 121.832 63.7969 121.711 64.125 121.469C64.4609 121.219 64.6289 120.895 64.6289 120.496ZM74.168 108.203V111.32H76.3359V113.805H74.168V120.133C74.168 120.602 74.2578 120.938 74.4375 121.141C74.6172 121.344 74.9609 121.445 75.4688 121.445C75.8438 121.445 76.1758 121.418 76.4648 121.363V123.93C75.8008 124.133 75.1172 124.234 74.4141 124.234C72.0391 124.234 70.8281 123.035 70.7812 120.637V113.805H68.9297V111.32H70.7812V108.203H74.168ZM85.3477 114.496C84.8867 114.434 84.4805 114.402 84.1289 114.402C82.8477 114.402 82.0078 114.836 81.6094 115.703V124H78.2227V111.32H81.4219L81.5156 112.832C82.1953 111.668 83.1367 111.086 84.3398 111.086C84.7148 111.086 85.0664 111.137 85.3945 111.238L85.3477 114.496ZM94.582 122.711C93.7461 123.727 92.5898 124.234 91.1133 124.234C89.7539 124.234 88.7148 123.844 87.9961 123.062C87.2852 122.281 86.9219 121.137 86.9062 119.629V111.32H90.293V119.512C90.293 120.832 90.8945 121.492 92.0977 121.492C93.2461 121.492 94.0352 121.094 94.4648 120.297V111.32H97.8633V124H94.6758L94.582 122.711ZM105.691 121.504C106.316 121.504 106.824 121.332 107.215 120.988C107.605 120.645 107.809 120.188 107.824 119.617H111C110.992 120.477 110.758 121.266 110.297 121.984C109.836 122.695 109.203 123.25 108.398 123.648C107.602 124.039 106.719 124.234 105.75 124.234C103.938 124.234 102.508 123.66 101.461 122.512C100.414 121.355 99.8906 119.762 99.8906 117.73V117.508C99.8906 115.555 100.41 113.996 101.449 112.832C102.488 111.668 103.914 111.086 105.727 111.086C107.312 111.086 108.582 111.539 109.535 112.445C110.496 113.344 110.984 114.543 111 116.043H107.824C107.809 115.387 107.605 114.855 107.215 114.449C106.824 114.035 106.309 113.828 105.668 113.828C104.879 113.828 104.281 114.117 103.875 114.695C103.477 115.266 103.277 116.195 103.277 117.484V117.836C103.277 119.141 103.477 120.078 103.875 120.648C104.273 121.219 104.879 121.504 105.691 121.504ZM118.207 121.504C118.832 121.504 119.34 121.332 119.73 120.988C120.121 120.645 120.324 120.188 120.34 119.617H123.516C123.508 120.477 123.273 121.266 122.812 121.984C122.352 122.695 121.719 123.25 120.914 123.648C120.117 124.039 119.234 124.234 118.266 124.234C116.453 124.234 115.023 123.66 113.977 122.512C112.93 121.355 112.406 119.762 112.406 117.73V117.508C112.406 115.555 112.926 113.996 113.965 112.832C115.004 111.668 116.43 111.086 118.242 111.086C119.828 111.086 121.098 111.539 122.051 112.445C123.012 113.344 123.5 114.543 123.516 116.043H120.34C120.324 115.387 120.121 114.855 119.73 114.449C119.34 114.035 118.824 113.828 118.184 113.828C117.395 113.828 116.797 114.117 116.391 114.695C115.992 115.266 115.793 116.195 115.793 117.484V117.836C115.793 119.141 115.992 120.078 116.391 120.648C116.789 121.219 117.395 121.504 118.207 121.504ZM129.023 124H125.625V111.32H129.023V124ZM125.426 108.039C125.426 107.531 125.594 107.113 125.93 106.785C126.273 106.457 126.738 106.293 127.324 106.293C127.902 106.293 128.363 106.457 128.707 106.785C129.051 107.113 129.223 107.531 129.223 108.039C129.223 108.555 129.047 108.977 128.695 109.305C128.352 109.633 127.895 109.797 127.324 109.797C126.754 109.797 126.293 109.633 125.941 109.305C125.598 108.977 125.426 108.555 125.426 108.039ZM131.297 117.543C131.297 116.285 131.539 115.164 132.023 114.18C132.508 113.195 133.203 112.434 134.109 111.895C135.023 111.355 136.082 111.086 137.285 111.086C138.996 111.086 140.391 111.609 141.469 112.656C142.555 113.703 143.16 115.125 143.285 116.922L143.309 117.789C143.309 119.734 142.766 121.297 141.68 122.477C140.594 123.648 139.137 124.234 137.309 124.234C135.48 124.234 134.02 123.648 132.926 122.477C131.84 121.305 131.297 119.711 131.297 117.695V117.543ZM134.684 117.789C134.684 118.992 134.91 119.914 135.363 120.555C135.816 121.188 136.465 121.504 137.309 121.504C138.129 121.504 138.77 121.191 139.23 120.566C139.691 119.934 139.922 118.926 139.922 117.543C139.922 116.363 139.691 115.449 139.23 114.801C138.77 114.152 138.121 113.828 137.285 113.828C136.457 113.828 135.816 114.152 135.363 114.801C134.91 115.441 134.684 116.438 134.684 117.789ZM148.512 111.32L148.617 112.785C149.523 111.652 150.738 111.086 152.262 111.086C153.605 111.086 154.605 111.48 155.262 112.27C155.918 113.059 156.254 114.238 156.27 115.809V124H152.883V115.891C152.883 115.172 152.727 114.652 152.414 114.332C152.102 114.004 151.582 113.84 150.855 113.84C149.902 113.84 149.188 114.246 148.711 115.059V124H145.324V111.32H148.512ZM164.684 124.234C162.824 124.234 161.309 123.664 160.137 122.523C158.973 121.383 158.391 119.863 158.391 117.965V117.637C158.391 116.363 158.637 115.227 159.129 114.227C159.621 113.219 160.316 112.445 161.215 111.906C162.121 111.359 163.152 111.086 164.309 111.086C166.043 111.086 167.406 111.633 168.398 112.727C169.398 113.82 169.898 115.371 169.898 117.379V118.762H161.824C161.934 119.59 162.262 120.254 162.809 120.754C163.363 121.254 164.062 121.504 164.906 121.504C166.211 121.504 167.23 121.031 167.965 120.086L169.629 121.949C169.121 122.668 168.434 123.23 167.566 123.637C166.699 124.035 165.738 124.234 164.684 124.234ZM164.297 113.828C163.625 113.828 163.078 114.055 162.656 114.508C162.242 114.961 161.977 115.609 161.859 116.453H166.57V116.184C166.555 115.434 166.352 114.855 165.961 114.449C165.57 114.035 165.016 113.828 164.297 113.828ZM178.699 120.496C178.699 120.082 178.492 119.758 178.078 119.523C177.672 119.281 177.016 119.066 176.109 118.879C173.094 118.246 171.586 116.965 171.586 115.035C171.586 113.91 172.051 112.973 172.98 112.223C173.918 111.465 175.141 111.086 176.648 111.086C178.258 111.086 179.543 111.465 180.504 112.223C181.473 112.98 181.957 113.965 181.957 115.176H178.57C178.57 114.691 178.414 114.293 178.102 113.98C177.789 113.66 177.301 113.5 176.637 113.5C176.066 113.5 175.625 113.629 175.312 113.887C175 114.145 174.844 114.473 174.844 114.871C174.844 115.246 175.02 115.551 175.371 115.785C175.73 116.012 176.332 116.211 177.176 116.383C178.02 116.547 178.73 116.734 179.309 116.945C181.098 117.602 181.992 118.738 181.992 120.355C181.992 121.512 181.496 122.449 180.504 123.168C179.512 123.879 178.23 124.234 176.66 124.234C175.598 124.234 174.652 124.047 173.824 123.672C173.004 123.289 172.359 122.77 171.891 122.113C171.422 121.449 171.188 120.734 171.188 119.969H174.398C174.43 120.57 174.652 121.031 175.066 121.352C175.48 121.672 176.035 121.832 176.73 121.832C177.379 121.832 177.867 121.711 178.195 121.469C178.531 121.219 178.699 120.895 178.699 120.496Z" fill="black"/>
</g>
<rect x="5" y="1" width="536" height="812" stroke="#171212" stroke-width="2"/>
</g>
<defs>
<filter id="filter0_d" x="0" y="0" width="546" height="822" filterUnits="userSpaceOnUse" color-interpolation-filters="sRGB">
<feFlood flood-opacity="0" result="BackgroundImageFix"/>
<feColorMatrix in="SourceAlpha" type="matrix" values="0 0 0 0 0 0 0 0 0 0 0 0 0 0 0 0 0 0 127 0"/>
<feOffset dy="4"/>
<feGaussianBlur stdDeviation="2"/>
<feColorMatrix type="matrix" values="0 0 0 0 0 0 0 0 0 0 0 0 0 0 0 0 0 0 0.25 0"/>
<feBlend mode="normal" in2="BackgroundImageFix" result="effect1_dropShadow"/>
<feBlend mode="normal" in="SourceGraphic" in2="effect1_dropShadow" result="shape"/>
</filter>
<clipPath id="clip0">
<rect x="4" width="538" height="814" fill="white"/>
</clipPath>
</defs>
</svg>
