<svg width="968" height="728" viewBox="0 0 968 728" fill="none" xmlns="http://www.w3.org/2000/svg">
<g clip-path="url(#clip0)">
<rect x="1" y="1" width="966" height="726" fill="white"/>
<path d="M0 656H485V728H0V656Z" fill="white"/>
<path d="M22.4062 709.053C22.4062 708.74 22.4974 708.48 22.6797 708.271C22.8685 708.063 23.1484 707.959 23.5195 707.959C23.8906 707.959 24.1706 708.063 24.3594 708.271C24.5547 708.48 24.6523 708.74 24.6523 709.053C24.6523 709.352 24.5547 709.603 24.3594 709.805C24.1706 710.007 23.8906 710.107 23.5195 710.107C23.1484 710.107 22.8685 710.007 22.6797 709.805C22.4974 709.603 22.4062 709.352 22.4062 709.053Z" fill="black"/>
<rect y="152" width="968" height="504" fill="white"/>
<rect x="20.5" y="257.5" width="423" height="235" fill="#FFFDFD" stroke="black"/>
<path d="M43.2148 270.938V282.34C43.2148 284.152 42.6328 285.59 41.4688 286.652C40.3125 287.707 38.7695 288.234 36.8398 288.234C34.8867 288.234 33.3359 287.715 32.1875 286.676C31.0391 285.629 30.4648 284.18 30.4648 282.328V270.938H33.418V282.352C33.418 283.492 33.707 284.363 34.2852 284.965C34.8633 285.566 35.7148 285.867 36.8398 285.867C39.1211 285.867 40.2617 284.664 40.2617 282.258V270.938H43.2148ZM37.6602 266.367H40.9062L37.6602 269.918H35.375L37.6602 266.367ZM49.1445 288H46.2969V270H49.1445V288ZM55.8242 272.238V275.32H58.0625V277.43H55.8242V284.508C55.8242 284.992 55.918 285.344 56.1055 285.562C56.3008 285.773 56.6445 285.879 57.1367 285.879C57.4648 285.879 57.7969 285.84 58.1328 285.762V287.965C57.4844 288.145 56.8594 288.234 56.2578 288.234C54.0703 288.234 52.9766 287.027 52.9766 284.613V277.43H50.8906V275.32H52.9766V272.238H55.8242ZM63.2773 288H60.4297V275.32H63.2773V288ZM60.2539 272.027C60.2539 271.59 60.3906 271.227 60.6641 270.938C60.9453 270.648 61.3438 270.504 61.8594 270.504C62.375 270.504 62.7734 270.648 63.0547 270.938C63.3359 271.227 63.4766 271.59 63.4766 272.027C63.4766 272.457 63.3359 272.816 63.0547 273.105C62.7734 273.387 62.375 273.527 61.8594 273.527C61.3438 273.527 60.9453 273.387 60.6641 273.105C60.3906 272.816 60.2539 272.457 60.2539 272.027ZM69.0664 275.32L69.1484 276.645C70.0391 275.605 71.2578 275.086 72.8047 275.086C74.5 275.086 75.6602 275.734 76.2852 277.031C77.207 275.734 78.5039 275.086 80.1758 275.086C81.5742 275.086 82.6133 275.473 83.293 276.246C83.9805 277.02 84.332 278.16 84.3477 279.668V288H81.5V279.75C81.5 278.945 81.3242 278.355 80.9727 277.98C80.6211 277.605 80.0391 277.418 79.2266 277.418C78.5781 277.418 78.0469 277.594 77.6328 277.945C77.2266 278.289 76.9414 278.742 76.7773 279.305L76.7891 288H73.9414V279.656C73.9023 278.164 73.1406 277.418 71.6562 277.418C70.5156 277.418 69.707 277.883 69.2305 278.812V288H66.3828V275.32H69.0664ZM86.7383 281.543C86.7383 280.301 86.9844 279.184 87.4766 278.191C87.9688 277.191 88.6602 276.426 89.5508 275.895C90.4414 275.355 91.4648 275.086 92.6211 275.086C94.332 275.086 95.7188 275.637 96.7812 276.738C97.8516 277.84 98.4297 279.301 98.5156 281.121L98.5273 281.789C98.5273 283.039 98.2852 284.156 97.8008 285.141C97.3242 286.125 96.6367 286.887 95.7383 287.426C94.8477 287.965 93.8164 288.234 92.6445 288.234C90.8555 288.234 89.4219 287.641 88.3438 286.453C87.2734 285.258 86.7383 283.668 86.7383 281.684V281.543ZM89.5859 281.789C89.5859 283.094 89.8555 284.117 90.3945 284.859C90.9336 285.594 91.6836 285.961 92.6445 285.961C93.6055 285.961 94.3516 285.586 94.8828 284.836C95.4219 284.086 95.6914 282.988 95.6914 281.543C95.6914 280.262 95.4141 279.246 94.8594 278.496C94.3125 277.746 93.5664 277.371 92.6211 277.371C91.6914 277.371 90.9531 277.742 90.4062 278.484C89.8594 279.219 89.5859 280.32 89.5859 281.789ZM108.043 284.555C108.043 284.047 107.832 283.66 107.41 283.395C106.996 283.129 106.305 282.895 105.336 282.691C104.367 282.488 103.559 282.23 102.91 281.918C101.488 281.23 100.777 280.234 100.777 278.93C100.777 277.836 101.238 276.922 102.16 276.188C103.082 275.453 104.254 275.086 105.676 275.086C107.191 275.086 108.414 275.461 109.344 276.211C110.281 276.961 110.75 277.934 110.75 279.129H107.902C107.902 278.582 107.699 278.129 107.293 277.77C106.887 277.402 106.348 277.219 105.676 277.219C105.051 277.219 104.539 277.363 104.141 277.652C103.75 277.941 103.555 278.328 103.555 278.812C103.555 279.25 103.738 279.59 104.105 279.832C104.473 280.074 105.215 280.32 106.332 280.57C107.449 280.812 108.324 281.105 108.957 281.449C109.598 281.785 110.07 282.191 110.375 282.668C110.688 283.145 110.844 283.723 110.844 284.402C110.844 285.543 110.371 286.469 109.426 287.18C108.48 287.883 107.242 288.234 105.711 288.234C104.672 288.234 103.746 288.047 102.934 287.672C102.121 287.297 101.488 286.781 101.035 286.125C100.582 285.469 100.355 284.762 100.355 284.004H103.121C103.16 284.676 103.414 285.195 103.883 285.562C104.352 285.922 104.973 286.102 105.746 286.102C106.496 286.102 107.066 285.961 107.457 285.68C107.848 285.391 108.043 285.016 108.043 284.555ZM122.281 275.32V289.125C122.281 290.422 121.957 291.41 121.309 292.09C120.668 292.777 119.727 293.121 118.484 293.121C117.961 293.121 117.457 293.055 116.973 292.922V290.672C117.27 290.742 117.605 290.777 117.98 290.777C118.926 290.777 119.41 290.262 119.434 289.23V275.32H122.281ZM119.188 272.027C119.188 271.59 119.324 271.227 119.598 270.938C119.879 270.648 120.277 270.504 120.793 270.504C121.309 270.504 121.707 270.648 121.988 270.938C122.27 271.227 122.41 271.59 122.41 272.027C122.41 272.457 122.27 272.816 121.988 273.105C121.707 273.387 121.309 273.527 120.793 273.527C120.277 273.527 119.879 273.387 119.598 273.105C119.324 272.816 119.188 272.457 119.188 272.027ZM133.016 286.758C132.18 287.742 130.992 288.234 129.453 288.234C128.078 288.234 127.035 287.832 126.324 287.027C125.621 286.223 125.27 285.059 125.27 283.535V275.32H128.117V283.5C128.117 285.109 128.785 285.914 130.121 285.914C131.504 285.914 132.438 285.418 132.922 284.426V275.32H135.77V288H133.086L133.016 286.758ZM138.172 281.566C138.172 279.598 138.633 278.027 139.555 276.855C140.484 275.676 141.715 275.086 143.246 275.086C144.691 275.086 145.828 275.59 146.656 276.598L146.785 275.32H149.352V287.613C149.352 289.277 148.832 290.59 147.793 291.551C146.762 292.512 145.367 292.992 143.609 292.992C142.68 292.992 141.77 292.797 140.879 292.406C139.996 292.023 139.324 291.52 138.863 290.895L140.211 289.184C141.086 290.223 142.164 290.742 143.445 290.742C144.391 290.742 145.137 290.484 145.684 289.969C146.23 289.461 146.504 288.711 146.504 287.719V286.863C145.684 287.777 144.59 288.234 143.223 288.234C141.738 288.234 140.523 287.645 139.578 286.465C138.641 285.285 138.172 283.652 138.172 281.566ZM141.008 281.812C141.008 283.086 141.266 284.09 141.781 284.824C142.305 285.551 143.027 285.914 143.949 285.914C145.098 285.914 145.949 285.422 146.504 284.438V278.859C145.965 277.898 145.121 277.418 143.973 277.418C143.035 277.418 142.305 277.789 141.781 278.531C141.266 279.273 141.008 280.367 141.008 281.812ZM159.863 288C159.738 287.758 159.629 287.363 159.535 286.816C158.629 287.762 157.52 288.234 156.207 288.234C154.934 288.234 153.895 287.871 153.09 287.145C152.285 286.418 151.883 285.52 151.883 284.449C151.883 283.098 152.383 282.062 153.383 281.344C154.391 280.617 155.828 280.254 157.695 280.254H159.441V279.422C159.441 278.766 159.258 278.242 158.891 277.852C158.523 277.453 157.965 277.254 157.215 277.254C156.566 277.254 156.035 277.418 155.621 277.746C155.207 278.066 155 278.477 155 278.977H152.152C152.152 278.281 152.383 277.633 152.844 277.031C153.305 276.422 153.93 275.945 154.719 275.602C155.516 275.258 156.402 275.086 157.379 275.086C158.863 275.086 160.047 275.461 160.93 276.211C161.812 276.953 162.266 278 162.289 279.352V285.07C162.289 286.211 162.449 287.121 162.77 287.801V288H159.863ZM156.734 285.949C157.297 285.949 157.824 285.812 158.316 285.539C158.816 285.266 159.191 284.898 159.441 284.438V282.047H157.906C156.852 282.047 156.059 282.23 155.527 282.598C154.996 282.965 154.73 283.484 154.73 284.156C154.73 284.703 154.91 285.141 155.27 285.469C155.637 285.789 156.125 285.949 156.734 285.949ZM164.738 281.566C164.738 279.613 165.191 278.047 166.098 276.867C167.004 275.68 168.219 275.086 169.742 275.086C171.086 275.086 172.172 275.555 173 276.492V270H175.848V288H173.27L173.129 286.688C172.277 287.719 171.141 288.234 169.719 288.234C168.234 288.234 167.031 287.637 166.109 286.441C165.195 285.246 164.738 283.621 164.738 281.566ZM167.586 281.812C167.586 283.102 167.832 284.109 168.324 284.836C168.824 285.555 169.531 285.914 170.445 285.914C171.609 285.914 172.461 285.395 173 284.355V278.941C172.477 277.926 171.633 277.418 170.469 277.418C169.547 277.418 168.836 277.785 168.336 278.52C167.836 279.246 167.586 280.344 167.586 281.812ZM178.285 281.543C178.285 280.301 178.531 279.184 179.023 278.191C179.516 277.191 180.207 276.426 181.098 275.895C181.988 275.355 183.012 275.086 184.168 275.086C185.879 275.086 187.266 275.637 188.328 276.738C189.398 277.84 189.977 279.301 190.062 281.121L190.074 281.789C190.074 283.039 189.832 284.156 189.348 285.141C188.871 286.125 188.184 286.887 187.285 287.426C186.395 287.965 185.363 288.234 184.191 288.234C182.402 288.234 180.969 287.641 179.891 286.453C178.82 285.258 178.285 283.668 178.285 281.684V281.543ZM181.133 281.789C181.133 283.094 181.402 284.117 181.941 284.859C182.48 285.594 183.23 285.961 184.191 285.961C185.152 285.961 185.898 285.586 186.43 284.836C186.969 284.086 187.238 282.988 187.238 281.543C187.238 280.262 186.961 279.246 186.406 278.496C185.859 277.746 185.113 277.371 184.168 277.371C183.238 277.371 182.5 277.742 181.953 278.484C181.406 279.219 181.133 280.32 181.133 281.789ZM199.121 277.922C198.746 277.859 198.359 277.828 197.961 277.828C196.656 277.828 195.777 278.328 195.324 279.328V288H192.477V275.32H195.195L195.266 276.738C195.953 275.637 196.906 275.086 198.125 275.086C198.531 275.086 198.867 275.141 199.133 275.25L199.121 277.922ZM206.27 288.234C204.465 288.234 203 287.668 201.875 286.535C200.758 285.395 200.199 283.879 200.199 281.988V281.637C200.199 280.371 200.441 279.242 200.926 278.25C201.418 277.25 202.105 276.473 202.988 275.918C203.871 275.363 204.855 275.086 205.941 275.086C207.668 275.086 209 275.637 209.938 276.738C210.883 277.84 211.355 279.398 211.355 281.414V282.562H203.07C203.156 283.609 203.504 284.438 204.113 285.047C204.73 285.656 205.504 285.961 206.434 285.961C207.738 285.961 208.801 285.434 209.621 284.379L211.156 285.844C210.648 286.602 209.969 287.191 209.117 287.613C208.273 288.027 207.324 288.234 206.27 288.234ZM205.93 277.371C205.148 277.371 204.516 277.645 204.031 278.191C203.555 278.738 203.25 279.5 203.117 280.477H208.543V280.266C208.48 279.312 208.227 278.594 207.781 278.109C207.336 277.617 206.719 277.371 205.93 277.371ZM220.684 284.555C220.684 284.047 220.473 283.66 220.051 283.395C219.637 283.129 218.945 282.895 217.977 282.691C217.008 282.488 216.199 282.23 215.551 281.918C214.129 281.23 213.418 280.234 213.418 278.93C213.418 277.836 213.879 276.922 214.801 276.188C215.723 275.453 216.895 275.086 218.316 275.086C219.832 275.086 221.055 275.461 221.984 276.211C222.922 276.961 223.391 277.934 223.391 279.129H220.543C220.543 278.582 220.34 278.129 219.934 277.77C219.527 277.402 218.988 277.219 218.316 277.219C217.691 277.219 217.18 277.363 216.781 277.652C216.391 277.941 216.195 278.328 216.195 278.812C216.195 279.25 216.379 279.59 216.746 279.832C217.113 280.074 217.855 280.32 218.973 280.57C220.09 280.812 220.965 281.105 221.598 281.449C222.238 281.785 222.711 282.191 223.016 282.668C223.328 283.145 223.484 283.723 223.484 284.402C223.484 285.543 223.012 286.469 222.066 287.18C221.121 287.883 219.883 288.234 218.352 288.234C217.312 288.234 216.387 288.047 215.574 287.672C214.762 287.297 214.129 286.781 213.676 286.125C213.223 285.469 212.996 284.762 212.996 284.004H215.762C215.801 284.676 216.055 285.195 216.523 285.562C216.992 285.922 217.613 286.102 218.387 286.102C219.137 286.102 219.707 285.961 220.098 285.68C220.488 285.391 220.684 285.016 220.684 284.555ZM236.422 284.391L239.105 275.32H242.047L237.652 288H235.18L230.75 275.32H233.703L236.422 284.391ZM246.863 288H244.016V275.32H246.863V288ZM243.84 272.027C243.84 271.59 243.977 271.227 244.25 270.938C244.531 270.648 244.93 270.504 245.445 270.504C245.961 270.504 246.359 270.648 246.641 270.938C246.922 271.227 247.062 271.59 247.062 272.027C247.062 272.457 246.922 272.816 246.641 273.105C246.359 273.387 245.961 273.527 245.445 273.527C244.93 273.527 244.531 273.387 244.25 273.105C243.977 272.816 243.84 272.457 243.84 272.027ZM255.184 285.961C255.895 285.961 256.484 285.754 256.953 285.34C257.422 284.926 257.672 284.414 257.703 283.805H260.387C260.355 284.594 260.109 285.332 259.648 286.02C259.188 286.699 258.562 287.238 257.773 287.637C256.984 288.035 256.133 288.234 255.219 288.234C253.445 288.234 252.039 287.66 251 286.512C249.961 285.363 249.441 283.777 249.441 281.754V281.461C249.441 279.531 249.957 277.988 250.988 276.832C252.02 275.668 253.426 275.086 255.207 275.086C256.715 275.086 257.941 275.527 258.887 276.41C259.84 277.285 260.34 278.438 260.387 279.867H257.703C257.672 279.141 257.422 278.543 256.953 278.074C256.492 277.605 255.902 277.371 255.184 277.371C254.262 277.371 253.551 277.707 253.051 278.379C252.551 279.043 252.297 280.055 252.289 281.414V281.871C252.289 283.246 252.535 284.273 253.027 284.953C253.527 285.625 254.246 285.961 255.184 285.961ZM266.105 272.238V275.32H268.344V277.43H266.105V284.508C266.105 284.992 266.199 285.344 266.387 285.562C266.582 285.773 266.926 285.879 267.418 285.879C267.746 285.879 268.078 285.84 268.414 285.762V287.965C267.766 288.145 267.141 288.234 266.539 288.234C264.352 288.234 263.258 287.027 263.258 284.613V277.43H261.172V275.32H263.258V272.238H266.105ZM269.645 281.543C269.645 280.301 269.891 279.184 270.383 278.191C270.875 277.191 271.566 276.426 272.457 275.895C273.348 275.355 274.371 275.086 275.527 275.086C277.238 275.086 278.625 275.637 279.688 276.738C280.758 277.84 281.336 279.301 281.422 281.121L281.434 281.789C281.434 283.039 281.191 284.156 280.707 285.141C280.23 286.125 279.543 286.887 278.645 287.426C277.754 287.965 276.723 288.234 275.551 288.234C273.762 288.234 272.328 287.641 271.25 286.453C270.18 285.258 269.645 283.668 269.645 281.684V281.543ZM272.492 281.789C272.492 283.094 272.762 284.117 273.301 284.859C273.84 285.594 274.59 285.961 275.551 285.961C276.512 285.961 277.258 285.586 277.789 284.836C278.328 284.086 278.598 282.988 278.598 281.543C278.598 280.262 278.32 279.246 277.766 278.496C277.219 277.746 276.473 277.371 275.527 277.371C274.598 277.371 273.859 277.742 273.312 278.484C272.766 279.219 272.492 280.32 272.492 281.789ZM290.48 277.922C290.105 277.859 289.719 277.828 289.32 277.828C288.016 277.828 287.137 278.328 286.684 279.328V288H283.836V275.32H286.555L286.625 276.738C287.312 275.637 288.266 275.086 289.484 275.086C289.891 275.086 290.227 275.141 290.492 275.25L290.48 277.922ZM295.309 288H292.461V275.32H295.309V288ZM292.285 272.027C292.285 271.59 292.422 271.227 292.695 270.938C292.977 270.648 293.375 270.504 293.891 270.504C294.406 270.504 294.805 270.648 295.086 270.938C295.367 271.227 295.508 271.59 295.508 272.027C295.508 272.457 295.367 272.816 295.086 273.105C294.805 273.387 294.406 273.527 293.891 273.527C293.375 273.527 292.977 273.387 292.695 273.105C292.422 272.816 292.285 272.457 292.285 272.027ZM297.887 281.543C297.887 280.301 298.133 279.184 298.625 278.191C299.117 277.191 299.809 276.426 300.699 275.895C301.59 275.355 302.613 275.086 303.77 275.086C305.48 275.086 306.867 275.637 307.93 276.738C309 277.84 309.578 279.301 309.664 281.121L309.676 281.789C309.676 283.039 309.434 284.156 308.949 285.141C308.473 286.125 307.785 286.887 306.887 287.426C305.996 287.965 304.965 288.234 303.793 288.234C302.004 288.234 300.57 287.641 299.492 286.453C298.422 285.258 297.887 283.668 297.887 281.684V281.543ZM300.734 281.789C300.734 283.094 301.004 284.117 301.543 284.859C302.082 285.594 302.832 285.961 303.793 285.961C304.754 285.961 305.5 285.586 306.031 284.836C306.57 284.086 306.84 282.988 306.84 281.543C306.84 280.262 306.562 279.246 306.008 278.496C305.461 277.746 304.715 277.371 303.77 277.371C302.84 277.371 302.102 277.742 301.555 278.484C301.008 279.219 300.734 280.32 300.734 281.789ZM319.191 284.555C319.191 284.047 318.98 283.66 318.559 283.395C318.145 283.129 317.453 282.895 316.484 282.691C315.516 282.488 314.707 282.23 314.059 281.918C312.637 281.23 311.926 280.234 311.926 278.93C311.926 277.836 312.387 276.922 313.309 276.188C314.23 275.453 315.402 275.086 316.824 275.086C318.34 275.086 319.562 275.461 320.492 276.211C321.43 276.961 321.898 277.934 321.898 279.129H319.051C319.051 278.582 318.848 278.129 318.441 277.77C318.035 277.402 317.496 277.219 316.824 277.219C316.199 277.219 315.688 277.363 315.289 277.652C314.898 277.941 314.703 278.328 314.703 278.812C314.703 279.25 314.887 279.59 315.254 279.832C315.621 280.074 316.363 280.32 317.48 280.57C318.598 280.812 319.473 281.105 320.105 281.449C320.746 281.785 321.219 282.191 321.523 282.668C321.836 283.145 321.992 283.723 321.992 284.402C321.992 285.543 321.52 286.469 320.574 287.18C319.629 287.883 318.391 288.234 316.859 288.234C315.82 288.234 314.895 288.047 314.082 287.672C313.27 287.297 312.637 286.781 312.184 286.125C311.73 285.469 311.504 284.762 311.504 284.004H314.27C314.309 284.676 314.562 285.195 315.031 285.562C315.5 285.922 316.121 286.102 316.895 286.102C317.645 286.102 318.215 285.961 318.605 285.68C318.996 285.391 319.191 285.016 319.191 284.555ZM323.949 281.543C323.949 280.301 324.195 279.184 324.688 278.191C325.18 277.191 325.871 276.426 326.762 275.895C327.652 275.355 328.676 275.086 329.832 275.086C331.543 275.086 332.93 275.637 333.992 276.738C335.062 277.84 335.641 279.301 335.727 281.121L335.738 281.789C335.738 283.039 335.496 284.156 335.012 285.141C334.535 286.125 333.848 286.887 332.949 287.426C332.059 287.965 331.027 288.234 329.855 288.234C328.066 288.234 326.633 287.641 325.555 286.453C324.484 285.258 323.949 283.668 323.949 281.684V281.543ZM326.797 281.789C326.797 283.094 327.066 284.117 327.605 284.859C328.145 285.594 328.895 285.961 329.855 285.961C330.816 285.961 331.562 285.586 332.094 284.836C332.633 284.086 332.902 282.988 332.902 281.543C332.902 280.262 332.625 279.246 332.07 278.496C331.523 277.746 330.777 277.371 329.832 277.371C328.902 277.371 328.164 277.742 327.617 278.484C327.07 279.219 326.797 280.32 326.797 281.789ZM345.254 284.555C345.254 284.047 345.043 283.66 344.621 283.395C344.207 283.129 343.516 282.895 342.547 282.691C341.578 282.488 340.77 282.23 340.121 281.918C338.699 281.23 337.988 280.234 337.988 278.93C337.988 277.836 338.449 276.922 339.371 276.188C340.293 275.453 341.465 275.086 342.887 275.086C344.402 275.086 345.625 275.461 346.555 276.211C347.492 276.961 347.961 277.934 347.961 279.129H345.113C345.113 278.582 344.91 278.129 344.504 277.77C344.098 277.402 343.559 277.219 342.887 277.219C342.262 277.219 341.75 277.363 341.352 277.652C340.961 277.941 340.766 278.328 340.766 278.812C340.766 279.25 340.949 279.59 341.316 279.832C341.684 280.074 342.426 280.32 343.543 280.57C344.66 280.812 345.535 281.105 346.168 281.449C346.809 281.785 347.281 282.191 347.586 282.668C347.898 283.145 348.055 283.723 348.055 284.402C348.055 285.543 347.582 286.469 346.637 287.18C345.691 287.883 344.453 288.234 342.922 288.234C341.883 288.234 340.957 288.047 340.145 287.672C339.332 287.297 338.699 286.781 338.246 286.125C337.793 285.469 337.566 284.762 337.566 284.004H340.332C340.371 284.676 340.625 285.195 341.094 285.562C341.562 285.922 342.184 286.102 342.957 286.102C343.707 286.102 344.277 285.961 344.668 285.68C345.059 285.391 345.254 285.016 345.254 284.555Z" fill="black"/>
<path d="M52.9883 331H50.1523V317.301L45.9688 318.73V316.328L52.625 313.879H52.9883V331ZM60.875 328C61.4062 328 61.8164 328.152 62.1055 328.457C62.3945 328.754 62.5391 329.129 62.5391 329.582C62.5391 330.027 62.3945 330.398 62.1055 330.695C61.8164 330.984 61.4062 331.129 60.875 331.129C60.3672 331.129 59.9648 330.984 59.668 330.695C59.3711 330.406 59.2227 330.035 59.2227 329.582C59.2227 329.129 59.3672 328.754 59.6562 328.457C59.9453 328.152 60.3516 328 60.875 328ZM85.6133 322.914C85.6133 324.531 85.3555 325.934 84.8398 327.121C84.332 328.301 83.6172 329.238 82.6953 329.934L85.625 332.219L83.7031 333.953L80.0703 331.082C79.5938 331.184 79.082 331.234 78.5352 331.234C77.1602 331.234 75.9297 330.898 74.8438 330.227C73.7656 329.547 72.9297 328.582 72.3359 327.332C71.75 326.082 71.4531 324.641 71.4453 323.008V322.047C71.4453 320.383 71.7383 318.914 72.3242 317.641C72.918 316.367 73.75 315.395 74.8203 314.723C75.8984 314.043 77.1289 313.703 78.5117 313.703C79.918 313.703 81.1562 314.039 82.2266 314.711C83.3047 315.375 84.1367 316.336 84.7227 317.594C85.3086 318.844 85.6055 320.301 85.6133 321.965V322.914ZM82.6367 322.023C82.6367 320.102 82.2773 318.645 81.5586 317.652C80.8398 316.66 79.8242 316.164 78.5117 316.164C77.2383 316.164 76.2383 316.668 75.5117 317.676C74.793 318.676 74.4258 320.09 74.4102 321.918V322.914C74.4102 324.758 74.7695 326.199 75.4883 327.238C76.2148 328.277 77.2305 328.797 78.5352 328.797C79.8555 328.797 80.8672 328.297 81.5703 327.297C82.2812 326.297 82.6367 324.836 82.6367 322.914V322.023ZM99.4883 327.074L101.504 318.32H104.281L100.824 331H98.4805L95.7617 322.293L93.0898 331H90.7461L87.2773 318.32H90.0547L92.1055 326.98L94.707 318.32H96.8516L99.4883 327.074ZM111.77 331.234C109.965 331.234 108.5 330.668 107.375 329.535C106.258 328.395 105.699 326.879 105.699 324.988V324.637C105.699 323.371 105.941 322.242 106.426 321.25C106.918 320.25 107.605 319.473 108.488 318.918C109.371 318.363 110.355 318.086 111.441 318.086C113.168 318.086 114.5 318.637 115.438 319.738C116.383 320.84 116.855 322.398 116.855 324.414V325.562H108.57C108.656 326.609 109.004 327.438 109.613 328.047C110.23 328.656 111.004 328.961 111.934 328.961C113.238 328.961 114.301 328.434 115.121 327.379L116.656 328.844C116.148 329.602 115.469 330.191 114.617 330.613C113.773 331.027 112.824 331.234 111.77 331.234ZM111.43 320.371C110.648 320.371 110.016 320.645 109.531 321.191C109.055 321.738 108.75 322.5 108.617 323.477H114.043V323.266C113.98 322.312 113.727 321.594 113.281 321.109C112.836 320.617 112.219 320.371 111.43 320.371ZM125.715 320.922C125.34 320.859 124.953 320.828 124.555 320.828C123.25 320.828 122.371 321.328 121.918 322.328V331H119.07V318.32H121.789L121.859 319.738C122.547 318.637 123.5 318.086 124.719 318.086C125.125 318.086 125.461 318.141 125.727 318.25L125.715 320.922ZM131.668 315.238V318.32H133.906V320.43H131.668V327.508C131.668 327.992 131.762 328.344 131.949 328.562C132.145 328.773 132.488 328.879 132.98 328.879C133.309 328.879 133.641 328.84 133.977 328.762V330.965C133.328 331.145 132.703 331.234 132.102 331.234C129.914 331.234 128.82 330.027 128.82 327.613V320.43H126.734V318.32H128.82V315.238H131.668ZM140.527 326.922L143.105 318.32H146.141L141.102 332.922C140.328 335.055 139.016 336.121 137.164 336.121C136.75 336.121 136.293 336.051 135.793 335.91V333.707L136.332 333.742C137.051 333.742 137.59 333.609 137.949 333.344C138.316 333.086 138.605 332.648 138.816 332.031L139.227 330.941L134.773 318.32H137.844L140.527 326.922Z" fill="black"/>
<path d="M56.75 376H45.2773V374.043L50.9609 367.844C51.7812 366.93 52.3633 366.168 52.707 365.559C53.0586 364.941 53.2344 364.324 53.2344 363.707C53.2344 362.895 53.0039 362.238 52.543 361.738C52.0898 361.238 51.4766 360.988 50.7031 360.988C49.7812 360.988 49.0664 361.27 48.5586 361.832C48.0508 362.395 47.7969 363.164 47.7969 364.141H44.9492C44.9492 363.102 45.1836 362.168 45.6523 361.34C46.1289 360.504 46.8047 359.855 47.6797 359.395C48.5625 358.934 49.5781 358.703 50.7266 358.703C52.3828 358.703 53.6875 359.121 54.6406 359.957C55.6016 360.785 56.082 361.934 56.082 363.402C56.082 364.254 55.8398 365.148 55.3555 366.086C54.8789 367.016 54.0938 368.074 53 369.262L48.8281 373.727H56.75V376ZM60.875 373C61.4062 373 61.8164 373.152 62.1055 373.457C62.3945 373.754 62.5391 374.129 62.5391 374.582C62.5391 375.027 62.3945 375.398 62.1055 375.695C61.8164 375.984 61.4062 376.129 60.875 376.129C60.3672 376.129 59.9648 375.984 59.668 375.695C59.3711 375.406 59.2227 375.035 59.2227 374.582C59.2227 374.129 59.3672 373.754 59.6562 373.457C59.9453 373.152 60.3516 373 60.875 373ZM79.0391 358.938H81.9922V370.902C81.9922 372.535 81.4805 373.832 80.457 374.793C79.4414 375.754 78.0977 376.234 76.4258 376.234C74.6445 376.234 73.2695 375.785 72.3008 374.887C71.332 373.988 70.8477 372.738 70.8477 371.137H73.8008C73.8008 372.043 74.0234 372.727 74.4688 373.188C74.9219 373.641 75.5742 373.867 76.4258 373.867C77.2227 373.867 77.8555 373.605 78.3242 373.082C78.8008 372.551 79.0391 371.82 79.0391 370.891V358.938ZM92.7969 374.758C91.9609 375.742 90.7734 376.234 89.2344 376.234C87.8594 376.234 86.8164 375.832 86.1055 375.027C85.4023 374.223 85.0508 373.059 85.0508 371.535V363.32H87.8984V371.5C87.8984 373.109 88.5664 373.914 89.9023 373.914C91.2852 373.914 92.2188 373.418 92.7031 372.426V363.32H95.5508V376H92.8672L92.7969 374.758ZM106.027 376C105.902 375.758 105.793 375.363 105.699 374.816C104.793 375.762 103.684 376.234 102.371 376.234C101.098 376.234 100.059 375.871 99.2539 375.145C98.4492 374.418 98.0469 373.52 98.0469 372.449C98.0469 371.098 98.5469 370.062 99.5469 369.344C100.555 368.617 101.992 368.254 103.859 368.254H105.605V367.422C105.605 366.766 105.422 366.242 105.055 365.852C104.688 365.453 104.129 365.254 103.379 365.254C102.73 365.254 102.199 365.418 101.785 365.746C101.371 366.066 101.164 366.477 101.164 366.977H98.3164C98.3164 366.281 98.5469 365.633 99.0078 365.031C99.4688 364.422 100.094 363.945 100.883 363.602C101.68 363.258 102.566 363.086 103.543 363.086C105.027 363.086 106.211 363.461 107.094 364.211C107.977 364.953 108.43 366 108.453 367.352V373.07C108.453 374.211 108.613 375.121 108.934 375.801V376H106.027ZM102.898 373.949C103.461 373.949 103.988 373.812 104.48 373.539C104.98 373.266 105.355 372.898 105.605 372.438V370.047H104.07C103.016 370.047 102.223 370.23 101.691 370.598C101.16 370.965 100.895 371.484 100.895 372.156C100.895 372.703 101.074 373.141 101.434 373.469C101.801 373.789 102.289 373.949 102.898 373.949ZM114.078 363.32L114.16 364.785C115.098 363.652 116.328 363.086 117.852 363.086C120.492 363.086 121.836 364.598 121.883 367.621V376H119.035V367.785C119.035 366.98 118.859 366.387 118.508 366.004C118.164 365.613 117.598 365.418 116.809 365.418C115.66 365.418 114.805 365.938 114.242 366.977V376H111.395V363.32H114.078Z" fill="black"/>
<path d="M48.5703 403.168H50.3047C51.1797 403.16 51.8711 402.934 52.3789 402.488C52.8945 402.043 53.1523 401.398 53.1523 400.555C53.1523 399.742 52.9375 399.113 52.5078 398.668C52.0859 398.215 51.4375 397.988 50.5625 397.988C49.7969 397.988 49.168 398.211 48.6758 398.656C48.1836 399.094 47.9375 399.668 47.9375 400.379H45.0898C45.0898 399.504 45.3203 398.707 45.7812 397.988C46.25 397.27 46.8984 396.711 47.7266 396.312C48.5625 395.906 49.4961 395.703 50.5273 395.703C52.2305 395.703 53.5664 396.133 54.5352 396.992C55.5117 397.844 56 399.031 56 400.555C56 401.32 55.7539 402.043 55.2617 402.723C54.7773 403.395 54.1484 403.902 53.375 404.246C54.3125 404.566 55.0234 405.07 55.5078 405.758C56 406.445 56.2461 407.266 56.2461 408.219C56.2461 409.75 55.7188 410.969 54.6641 411.875C53.6172 412.781 52.2383 413.234 50.5273 413.234C48.8867 413.234 47.543 412.797 46.4961 411.922C45.4492 411.047 44.9258 409.883 44.9258 408.43H47.7734C47.7734 409.18 48.0234 409.789 48.5234 410.258C49.0312 410.727 49.7109 410.961 50.5625 410.961C51.4453 410.961 52.1406 410.727 52.6484 410.258C53.1562 409.789 53.4102 409.109 53.4102 408.219C53.4102 407.32 53.1445 406.629 52.6133 406.145C52.082 405.66 51.293 405.418 50.2461 405.418H48.5703V403.168ZM60.875 410C61.4062 410 61.8164 410.152 62.1055 410.457C62.3945 410.754 62.5391 411.129 62.5391 411.582C62.5391 412.027 62.3945 412.398 62.1055 412.695C61.8164 412.984 61.4062 413.129 60.875 413.129C60.3672 413.129 59.9648 412.984 59.668 412.695C59.3711 412.406 59.2227 412.035 59.2227 411.582C59.2227 411.129 59.3672 410.754 59.6562 410.457C59.9453 410.152 60.3516 410 60.875 410ZM72.0547 413V395.938H77.9023C79.832 395.938 81.3008 396.324 82.3086 397.098C83.3164 397.871 83.8203 399.023 83.8203 400.555C83.8203 401.336 83.6094 402.039 83.1875 402.664C82.7656 403.289 82.1484 403.773 81.3359 404.117C82.2578 404.367 82.9688 404.84 83.4688 405.535C83.9766 406.223 84.2305 407.051 84.2305 408.02C84.2305 409.621 83.7148 410.852 82.6836 411.711C81.6602 412.57 80.1914 413 78.2773 413H72.0547ZM75.0195 405.301V410.633H78.3125C79.2422 410.633 79.9688 410.402 80.4922 409.941C81.0156 409.48 81.2773 408.84 81.2773 408.02C81.2773 406.246 80.3711 405.34 78.5586 405.301H75.0195ZM75.0195 403.121H77.9258C78.8477 403.121 79.5664 402.914 80.082 402.5C80.6055 402.078 80.8672 401.484 80.8672 400.719C80.8672 399.875 80.625 399.266 80.1406 398.891C79.6641 398.516 78.918 398.328 77.9023 398.328H75.0195V403.121ZM93.5586 402.922C93.1836 402.859 92.7969 402.828 92.3984 402.828C91.0938 402.828 90.2148 403.328 89.7617 404.328V413H86.9141V400.32H89.6328L89.7031 401.738C90.3906 400.637 91.3438 400.086 92.5625 400.086C92.9688 400.086 93.3047 400.141 93.5703 400.25L93.5586 402.922ZM102.582 413C102.457 412.758 102.348 412.363 102.254 411.816C101.348 412.762 100.238 413.234 98.9258 413.234C97.6523 413.234 96.6133 412.871 95.8086 412.145C95.0039 411.418 94.6016 410.52 94.6016 409.449C94.6016 408.098 95.1016 407.062 96.1016 406.344C97.1094 405.617 98.5469 405.254 100.414 405.254H102.16V404.422C102.16 403.766 101.977 403.242 101.609 402.852C101.242 402.453 100.684 402.254 99.9336 402.254C99.2852 402.254 98.7539 402.418 98.3398 402.746C97.9258 403.066 97.7188 403.477 97.7188 403.977H94.8711C94.8711 403.281 95.1016 402.633 95.5625 402.031C96.0234 401.422 96.6484 400.945 97.4375 400.602C98.2344 400.258 99.1211 400.086 100.098 400.086C101.582 400.086 102.766 400.461 103.648 401.211C104.531 401.953 104.984 403 105.008 404.352V410.07C105.008 411.211 105.168 412.121 105.488 412.801V413H102.582ZM99.4531 410.949C100.016 410.949 100.543 410.812 101.035 410.539C101.535 410.266 101.91 409.898 102.16 409.438V407.047H100.625C99.5703 407.047 98.7773 407.23 98.2461 407.598C97.7148 407.965 97.4492 408.484 97.4492 409.156C97.4492 409.703 97.6289 410.141 97.9883 410.469C98.3555 410.789 98.8438 410.949 99.4531 410.949ZM110.633 400.32L110.715 401.785C111.652 400.652 112.883 400.086 114.406 400.086C117.047 400.086 118.391 401.598 118.438 404.621V413H115.59V404.785C115.59 403.98 115.414 403.387 115.062 403.004C114.719 402.613 114.152 402.418 113.363 402.418C112.215 402.418 111.359 402.938 110.797 403.977V413H107.949V400.32H110.633ZM120.816 406.566C120.816 404.613 121.27 403.047 122.176 401.867C123.082 400.68 124.297 400.086 125.82 400.086C127.164 400.086 128.25 400.555 129.078 401.492V395H131.926V413H129.348L129.207 411.688C128.355 412.719 127.219 413.234 125.797 413.234C124.312 413.234 123.109 412.637 122.188 411.441C121.273 410.246 120.816 408.621 120.816 406.566ZM123.664 406.812C123.664 408.102 123.91 409.109 124.402 409.836C124.902 410.555 125.609 410.914 126.523 410.914C127.688 410.914 128.539 410.395 129.078 409.355V403.941C128.555 402.926 127.711 402.418 126.547 402.418C125.625 402.418 124.914 402.785 124.414 403.52C123.914 404.246 123.664 405.344 123.664 406.812ZM134.363 406.543C134.363 405.301 134.609 404.184 135.102 403.191C135.594 402.191 136.285 401.426 137.176 400.895C138.066 400.355 139.09 400.086 140.246 400.086C141.957 400.086 143.344 400.637 144.406 401.738C145.477 402.84 146.055 404.301 146.141 406.121L146.152 406.789C146.152 408.039 145.91 409.156 145.426 410.141C144.949 411.125 144.262 411.887 143.363 412.426C142.473 412.965 141.441 413.234 140.27 413.234C138.48 413.234 137.047 412.641 135.969 411.453C134.898 410.258 134.363 408.668 134.363 406.684V406.543ZM137.211 406.789C137.211 408.094 137.48 409.117 138.02 409.859C138.559 410.594 139.309 410.961 140.27 410.961C141.23 410.961 141.977 410.586 142.508 409.836C143.047 409.086 143.316 407.988 143.316 406.543C143.316 405.262 143.039 404.246 142.484 403.496C141.938 402.746 141.191 402.371 140.246 402.371C139.316 402.371 138.578 402.742 138.031 403.484C137.484 404.219 137.211 405.32 137.211 406.789ZM151.203 400.32L151.285 401.785C152.223 400.652 153.453 400.086 154.977 400.086C157.617 400.086 158.961 401.598 159.008 404.621V413H156.16V404.785C156.16 403.98 155.984 403.387 155.633 403.004C155.289 402.613 154.723 402.418 153.934 402.418C152.785 402.418 151.93 402.938 151.367 403.977V413H148.52V400.32H151.203ZM179.797 398.328H174.477V413H171.535V398.328H166.262V395.938H179.797V398.328ZM178.801 406.543C178.801 405.301 179.047 404.184 179.539 403.191C180.031 402.191 180.723 401.426 181.613 400.895C182.504 400.355 183.527 400.086 184.684 400.086C186.395 400.086 187.781 400.637 188.844 401.738C189.914 402.84 190.492 404.301 190.578 406.121L190.59 406.789C190.59 408.039 190.348 409.156 189.863 410.141C189.387 411.125 188.699 411.887 187.801 412.426C186.91 412.965 185.879 413.234 184.707 413.234C182.918 413.234 181.484 412.641 180.406 411.453C179.336 410.258 178.801 408.668 178.801 406.684V406.543ZM181.648 406.789C181.648 408.094 181.918 409.117 182.457 409.859C182.996 410.594 183.746 410.961 184.707 410.961C185.668 410.961 186.414 410.586 186.945 409.836C187.484 409.086 187.754 407.988 187.754 406.543C187.754 405.262 187.477 404.246 186.922 403.496C186.375 402.746 185.629 402.371 184.684 402.371C183.754 402.371 183.016 402.742 182.469 403.484C181.922 404.219 181.648 405.32 181.648 406.789ZM199.637 402.922C199.262 402.859 198.875 402.828 198.477 402.828C197.172 402.828 196.293 403.328 195.84 404.328V413H192.992V400.32H195.711L195.781 401.738C196.469 400.637 197.422 400.086 198.641 400.086C199.047 400.086 199.383 400.141 199.648 400.25L199.637 402.922ZM209.117 411.758C208.281 412.742 207.094 413.234 205.555 413.234C204.18 413.234 203.137 412.832 202.426 412.027C201.723 411.223 201.371 410.059 201.371 408.535V400.32H204.219V408.5C204.219 410.109 204.887 410.914 206.223 410.914C207.605 410.914 208.539 410.418 209.023 409.426V400.32H211.871V413H209.188L209.117 411.758ZM217.414 400.32L217.496 401.785C218.434 400.652 219.664 400.086 221.188 400.086C223.828 400.086 225.172 401.598 225.219 404.621V413H222.371V404.785C222.371 403.98 222.195 403.387 221.844 403.004C221.5 402.613 220.934 402.418 220.145 402.418C218.996 402.418 218.141 402.938 217.578 403.977V413H214.73V400.32H217.414ZM224.328 395.258C224.328 396.117 224.078 396.832 223.578 397.402C223.086 397.973 222.465 398.258 221.715 398.258C221.41 398.258 221.145 398.227 220.918 398.164C220.699 398.094 220.383 397.941 219.969 397.707C219.562 397.473 219.273 397.332 219.102 397.285C218.938 397.238 218.754 397.215 218.551 397.215C218.254 397.215 218 397.328 217.789 397.555C217.586 397.773 217.484 398.062 217.484 398.422L215.738 398.328C215.738 397.469 215.984 396.746 216.477 396.16C216.977 395.574 217.598 395.281 218.34 395.281C218.785 395.281 219.32 395.457 219.945 395.809C220.578 396.16 221.098 396.336 221.504 396.336C221.801 396.336 222.055 396.227 222.266 396.008C222.477 395.781 222.582 395.484 222.582 395.117L224.328 395.258ZM227.598 406.543C227.598 405.301 227.844 404.184 228.336 403.191C228.828 402.191 229.52 401.426 230.41 400.895C231.301 400.355 232.324 400.086 233.48 400.086C235.191 400.086 236.578 400.637 237.641 401.738C238.711 402.84 239.289 404.301 239.375 406.121L239.387 406.789C239.387 408.039 239.145 409.156 238.66 410.141C238.184 411.125 237.496 411.887 236.598 412.426C235.707 412.965 234.676 413.234 233.504 413.234C231.715 413.234 230.281 412.641 229.203 411.453C228.133 410.258 227.598 408.668 227.598 406.684V406.543ZM230.445 406.789C230.445 408.094 230.715 409.117 231.254 409.859C231.793 410.594 232.543 410.961 233.504 410.961C234.465 410.961 235.211 410.586 235.742 409.836C236.281 409.086 236.551 407.988 236.551 406.543C236.551 405.262 236.273 404.246 235.719 403.496C235.172 402.746 234.426 402.371 233.48 402.371C232.551 402.371 231.812 402.742 231.266 403.484C230.719 404.219 230.445 405.32 230.445 406.789Z" fill="black"/>
<rect x="36.5" y="605.5" width="160" height="50" rx="13.5" fill="#10B6AC" stroke="black"/>
<path d="M74.1094 632.488C73.9336 633.992 73.377 635.154 72.4395 635.975C71.5085 636.788 70.2682 637.195 68.7188 637.195C67.0391 637.195 65.6914 636.593 64.6758 635.389C63.6667 634.184 63.1621 632.573 63.1621 630.555V629.188C63.1621 627.866 63.3965 626.704 63.8652 625.701C64.3405 624.699 65.0111 623.93 65.877 623.396C66.7428 622.856 67.7454 622.586 68.8848 622.586C70.3952 622.586 71.6061 623.009 72.5176 623.855C73.429 624.695 73.9596 625.861 74.1094 627.352H72.2246C72.0618 626.219 71.707 625.398 71.1602 624.891C70.6198 624.383 69.8613 624.129 68.8848 624.129C67.6868 624.129 66.7461 624.572 66.0625 625.457C65.3854 626.342 65.0469 627.602 65.0469 629.236V630.613C65.0469 632.156 65.3691 633.383 66.0137 634.295C66.6582 635.206 67.5599 635.662 68.7188 635.662C69.7604 635.662 70.5579 635.428 71.1113 634.959C71.6712 634.484 72.0423 633.66 72.2246 632.488H74.1094ZM81.502 628.055C81.2285 628.009 80.9323 627.986 80.6133 627.986C79.4284 627.986 78.6243 628.491 78.2012 629.5V637H76.3945V626.434H78.1523L78.1816 627.654C78.7741 626.71 79.6139 626.238 80.7012 626.238C81.0527 626.238 81.3197 626.284 81.502 626.375V628.055ZM87.3613 637.195C85.929 637.195 84.7637 636.727 83.8652 635.789C82.9668 634.845 82.5176 633.585 82.5176 632.01V631.678C82.5176 630.63 82.7161 629.695 83.1133 628.875C83.5169 628.048 84.0768 627.404 84.793 626.941C85.5156 626.473 86.2969 626.238 87.1367 626.238C88.5104 626.238 89.5781 626.691 90.3398 627.596C91.1016 628.501 91.4824 629.796 91.4824 631.482V632.234H84.3242C84.3503 633.276 84.653 634.119 85.2324 634.764C85.8184 635.402 86.5605 635.721 87.459 635.721C88.097 635.721 88.6374 635.59 89.0801 635.33C89.5228 635.07 89.9102 634.725 90.2422 634.295L91.3457 635.154C90.4603 636.515 89.1322 637.195 87.3613 637.195ZM87.1367 627.723C86.4076 627.723 85.7956 627.99 85.3008 628.523C84.806 629.051 84.5 629.793 84.3828 630.75H89.6758V630.613C89.6237 629.695 89.3763 628.986 88.9336 628.484C88.4909 627.977 87.8919 627.723 87.1367 627.723ZM100.105 637C100.001 636.792 99.9167 636.421 99.8516 635.887C99.0117 636.759 98.0091 637.195 96.8438 637.195C95.8021 637.195 94.946 636.902 94.2754 636.316C93.6113 635.724 93.2793 634.975 93.2793 634.07C93.2793 632.97 93.696 632.117 94.5293 631.512C95.3691 630.9 96.5475 630.594 98.0645 630.594H99.8223V629.764C99.8223 629.132 99.6335 628.631 99.2559 628.26C98.8783 627.882 98.3216 627.693 97.5859 627.693C96.9414 627.693 96.401 627.856 95.9648 628.182C95.5286 628.507 95.3105 628.901 95.3105 629.363H93.4941C93.4941 628.836 93.6797 628.328 94.0508 627.84C94.4284 627.345 94.9362 626.954 95.5742 626.668C96.2188 626.382 96.9251 626.238 97.6934 626.238C98.9108 626.238 99.8646 626.544 100.555 627.156C101.245 627.762 101.603 628.598 101.629 629.666V634.529C101.629 635.499 101.753 636.271 102 636.844V637H100.105ZM97.1074 635.623C97.6738 635.623 98.2109 635.477 98.7188 635.184C99.2266 634.891 99.5944 634.51 99.8223 634.041V631.873H98.4062C96.1927 631.873 95.0859 632.521 95.0859 633.816C95.0859 634.383 95.2747 634.826 95.6523 635.145C96.0299 635.464 96.515 635.623 97.1074 635.623ZM109.568 628.055C109.295 628.009 108.999 627.986 108.68 627.986C107.495 627.986 106.691 628.491 106.268 629.5V637H104.461V626.434H106.219L106.248 627.654C106.84 626.71 107.68 626.238 108.768 626.238C109.119 626.238 109.386 626.284 109.568 626.375V628.055ZM122.439 622.781H124.324V632.85C124.324 634.21 123.914 635.275 123.094 636.043C122.28 636.811 121.193 637.195 119.832 637.195C118.419 637.195 117.319 636.834 116.531 636.111C115.743 635.389 115.35 634.376 115.35 633.074H117.225C117.225 633.888 117.446 634.523 117.889 634.979C118.338 635.434 118.986 635.662 119.832 635.662C120.607 635.662 121.232 635.418 121.707 634.93C122.189 634.441 122.433 633.758 122.439 632.879V622.781ZM133.758 635.955C133.055 636.782 132.023 637.195 130.662 637.195C129.536 637.195 128.676 636.87 128.084 636.219C127.498 635.561 127.202 634.591 127.195 633.309V626.434H129.002V633.26C129.002 634.861 129.653 635.662 130.955 635.662C132.335 635.662 133.253 635.148 133.709 634.119V626.434H135.516V637H133.797L133.758 635.955ZM142.654 637.195C141.222 637.195 140.057 636.727 139.158 635.789C138.26 634.845 137.811 633.585 137.811 632.01V631.678C137.811 630.63 138.009 629.695 138.406 628.875C138.81 628.048 139.37 627.404 140.086 626.941C140.809 626.473 141.59 626.238 142.43 626.238C143.803 626.238 144.871 626.691 145.633 627.596C146.395 628.501 146.775 629.796 146.775 631.482V632.234H139.617C139.643 633.276 139.946 634.119 140.525 634.764C141.111 635.402 141.854 635.721 142.752 635.721C143.39 635.721 143.93 635.59 144.373 635.33C144.816 635.07 145.203 634.725 145.535 634.295L146.639 635.154C145.753 636.515 144.425 637.195 142.654 637.195ZM142.43 627.723C141.701 627.723 141.089 627.99 140.594 628.523C140.099 629.051 139.793 629.793 139.676 630.75H144.969V630.613C144.917 629.695 144.669 628.986 144.227 628.484C143.784 627.977 143.185 627.723 142.43 627.723ZM148.445 631.629C148.445 629.982 148.826 628.673 149.588 627.703C150.35 626.727 151.359 626.238 152.615 626.238C153.904 626.238 154.91 626.694 155.633 627.605L155.721 626.434H157.371V636.746C157.371 638.113 156.964 639.191 156.15 639.979C155.343 640.766 154.256 641.16 152.889 641.16C152.127 641.16 151.382 640.997 150.652 640.672C149.923 640.346 149.367 639.9 148.982 639.334L149.92 638.25C150.695 639.207 151.642 639.686 152.762 639.686C153.641 639.686 154.324 639.438 154.812 638.943C155.307 638.449 155.555 637.752 155.555 636.854V635.945C154.832 636.779 153.846 637.195 152.596 637.195C151.359 637.195 150.356 636.697 149.588 635.701C148.826 634.705 148.445 633.348 148.445 631.629ZM150.262 631.834C150.262 633.025 150.506 633.963 150.994 634.646C151.482 635.324 152.166 635.662 153.045 635.662C154.184 635.662 155.021 635.145 155.555 634.109V629.285C155.001 628.276 154.171 627.771 153.064 627.771C152.186 627.771 151.499 628.113 151.004 628.797C150.509 629.48 150.262 630.493 150.262 631.834ZM159.627 631.619C159.627 630.584 159.829 629.653 160.232 628.826C160.643 627.999 161.209 627.361 161.932 626.912C162.661 626.463 163.491 626.238 164.422 626.238C165.861 626.238 167.023 626.736 167.908 627.732C168.8 628.729 169.246 630.053 169.246 631.707V631.834C169.246 632.863 169.048 633.787 168.65 634.607C168.26 635.421 167.697 636.056 166.961 636.512C166.232 636.967 165.392 637.195 164.441 637.195C163.009 637.195 161.847 636.697 160.955 635.701C160.07 634.705 159.627 633.387 159.627 631.746V631.619ZM161.443 631.834C161.443 633.006 161.714 633.947 162.254 634.656C162.801 635.366 163.53 635.721 164.441 635.721C165.359 635.721 166.089 635.363 166.629 634.646C167.169 633.924 167.439 632.915 167.439 631.619C167.439 630.46 167.163 629.523 166.609 628.807C166.062 628.084 165.333 627.723 164.422 627.723C163.53 627.723 162.811 628.077 162.264 628.787C161.717 629.497 161.443 630.512 161.443 631.834Z" fill="black"/>
<rect x="251.5" y="605.5" width="160" height="50" rx="13.5" fill="white" stroke="black"/>
<path d="M265.65 636V621.781H270.299C271.842 621.781 273.001 622.1 273.775 622.738C274.557 623.376 274.947 624.32 274.947 625.57C274.947 626.234 274.758 626.824 274.381 627.338C274.003 627.846 273.489 628.24 272.838 628.52C273.606 628.734 274.212 629.145 274.654 629.75C275.104 630.349 275.328 631.065 275.328 631.898C275.328 633.174 274.915 634.177 274.088 634.906C273.261 635.635 272.092 636 270.582 636H265.65ZM267.525 629.35V634.467H270.621C271.493 634.467 272.18 634.242 272.682 633.793C273.189 633.337 273.443 632.712 273.443 631.918C273.443 630.206 272.512 629.35 270.65 629.35H267.525ZM267.525 627.846H270.357C271.178 627.846 271.832 627.641 272.32 627.23C272.815 626.82 273.062 626.264 273.062 625.561C273.062 624.779 272.835 624.213 272.379 623.861C271.923 623.503 271.23 623.324 270.299 623.324H267.525V627.846ZM284.352 634.955C283.648 635.782 282.617 636.195 281.256 636.195C280.13 636.195 279.27 635.87 278.678 635.219C278.092 634.561 277.796 633.591 277.789 632.309V625.434H279.596V632.26C279.596 633.861 280.247 634.662 281.549 634.662C282.929 634.662 283.847 634.148 284.303 633.119V625.434H286.109V636H284.391L284.352 634.955ZM295.016 633.197C295.016 632.709 294.83 632.331 294.459 632.064C294.094 631.791 293.453 631.557 292.535 631.361C291.624 631.166 290.898 630.932 290.357 630.658C289.824 630.385 289.426 630.059 289.166 629.682C288.912 629.304 288.785 628.855 288.785 628.334C288.785 627.468 289.15 626.736 289.879 626.137C290.615 625.538 291.552 625.238 292.691 625.238C293.889 625.238 294.859 625.548 295.602 626.166C296.35 626.785 296.725 627.576 296.725 628.539H294.908C294.908 628.044 294.697 627.618 294.273 627.26C293.857 626.902 293.329 626.723 292.691 626.723C292.034 626.723 291.52 626.866 291.148 627.152C290.777 627.439 290.592 627.813 290.592 628.275C290.592 628.712 290.764 629.04 291.109 629.262C291.454 629.483 292.076 629.695 292.975 629.896C293.88 630.098 294.612 630.339 295.172 630.619C295.732 630.899 296.145 631.238 296.412 631.635C296.686 632.025 296.822 632.504 296.822 633.07C296.822 634.014 296.445 634.773 295.689 635.346C294.934 635.912 293.954 636.195 292.75 636.195C291.904 636.195 291.155 636.046 290.504 635.746C289.853 635.447 289.342 635.03 288.971 634.496C288.606 633.956 288.424 633.373 288.424 632.748H290.23C290.263 633.354 290.504 633.835 290.953 634.193C291.409 634.545 292.008 634.721 292.75 634.721C293.434 634.721 293.98 634.584 294.391 634.311C294.807 634.031 295.016 633.66 295.016 633.197ZM303.414 634.721C304.059 634.721 304.622 634.525 305.104 634.135C305.585 633.744 305.852 633.256 305.904 632.67H307.613C307.581 633.275 307.372 633.852 306.988 634.398C306.604 634.945 306.09 635.382 305.445 635.707C304.807 636.033 304.13 636.195 303.414 636.195C301.975 636.195 300.829 635.717 299.977 634.76C299.13 633.796 298.707 632.481 298.707 630.814V630.512C298.707 629.483 298.896 628.568 299.273 627.768C299.651 626.967 300.191 626.345 300.895 625.902C301.604 625.46 302.441 625.238 303.404 625.238C304.589 625.238 305.572 625.593 306.354 626.303C307.141 627.012 307.561 627.934 307.613 629.066H305.904C305.852 628.383 305.592 627.823 305.123 627.387C304.661 626.944 304.088 626.723 303.404 626.723C302.486 626.723 301.773 627.055 301.266 627.719C300.764 628.376 300.514 629.33 300.514 630.58V630.922C300.514 632.139 300.764 633.077 301.266 633.734C301.767 634.392 302.483 634.721 303.414 634.721ZM316.168 636C316.064 635.792 315.979 635.421 315.914 634.887C315.074 635.759 314.072 636.195 312.906 636.195C311.865 636.195 311.008 635.902 310.338 635.316C309.674 634.724 309.342 633.975 309.342 633.07C309.342 631.97 309.758 631.117 310.592 630.512C311.432 629.9 312.61 629.594 314.127 629.594H315.885V628.764C315.885 628.132 315.696 627.631 315.318 627.26C314.941 626.882 314.384 626.693 313.648 626.693C313.004 626.693 312.464 626.856 312.027 627.182C311.591 627.507 311.373 627.901 311.373 628.363H309.557C309.557 627.836 309.742 627.328 310.113 626.84C310.491 626.345 310.999 625.954 311.637 625.668C312.281 625.382 312.988 625.238 313.756 625.238C314.973 625.238 315.927 625.544 316.617 626.156C317.307 626.762 317.665 627.598 317.691 628.666V633.529C317.691 634.499 317.815 635.271 318.062 635.844V636H316.168ZM313.17 634.623C313.736 634.623 314.273 634.477 314.781 634.184C315.289 633.891 315.657 633.51 315.885 633.041V630.873H314.469C312.255 630.873 311.148 631.521 311.148 632.816C311.148 633.383 311.337 633.826 311.715 634.145C312.092 634.464 312.577 634.623 313.17 634.623ZM325.631 627.055C325.357 627.009 325.061 626.986 324.742 626.986C323.557 626.986 322.753 627.491 322.33 628.5V636H320.523V625.434H322.281L322.311 626.654C322.903 625.71 323.743 625.238 324.83 625.238C325.182 625.238 325.449 625.284 325.631 625.375V627.055ZM338.502 621.781H340.387V631.85C340.387 633.21 339.977 634.275 339.156 635.043C338.342 635.811 337.255 636.195 335.895 636.195C334.482 636.195 333.382 635.834 332.594 635.111C331.806 634.389 331.412 633.376 331.412 632.074H333.287C333.287 632.888 333.508 633.523 333.951 633.979C334.4 634.434 335.048 634.662 335.895 634.662C336.669 634.662 337.294 634.418 337.77 633.93C338.251 633.441 338.495 632.758 338.502 631.879V621.781ZM349.82 634.955C349.117 635.782 348.085 636.195 346.725 636.195C345.598 636.195 344.739 635.87 344.146 635.219C343.561 634.561 343.264 633.591 343.258 632.309V625.434H345.064V632.26C345.064 633.861 345.715 634.662 347.018 634.662C348.398 634.662 349.316 634.148 349.771 633.119V625.434H351.578V636H349.859L349.82 634.955ZM358.717 636.195C357.285 636.195 356.119 635.727 355.221 634.789C354.322 633.845 353.873 632.585 353.873 631.01V630.678C353.873 629.63 354.072 628.695 354.469 627.875C354.872 627.048 355.432 626.404 356.148 625.941C356.871 625.473 357.652 625.238 358.492 625.238C359.866 625.238 360.934 625.691 361.695 626.596C362.457 627.501 362.838 628.796 362.838 630.482V631.234H355.68C355.706 632.276 356.008 633.119 356.588 633.764C357.174 634.402 357.916 634.721 358.814 634.721C359.452 634.721 359.993 634.59 360.436 634.33C360.878 634.07 361.266 633.725 361.598 633.295L362.701 634.154C361.816 635.515 360.488 636.195 358.717 636.195ZM358.492 626.723C357.763 626.723 357.151 626.99 356.656 627.523C356.161 628.051 355.855 628.793 355.738 629.75H361.031V629.613C360.979 628.695 360.732 627.986 360.289 627.484C359.846 626.977 359.247 626.723 358.492 626.723ZM364.508 630.629C364.508 628.982 364.889 627.673 365.65 626.703C366.412 625.727 367.421 625.238 368.678 625.238C369.967 625.238 370.973 625.694 371.695 626.605L371.783 625.434H373.434V635.746C373.434 637.113 373.027 638.191 372.213 638.979C371.406 639.766 370.318 640.16 368.951 640.16C368.189 640.16 367.444 639.997 366.715 639.672C365.986 639.346 365.429 638.9 365.045 638.334L365.982 637.25C366.757 638.207 367.704 638.686 368.824 638.686C369.703 638.686 370.387 638.438 370.875 637.943C371.37 637.449 371.617 636.752 371.617 635.854V634.945C370.895 635.779 369.908 636.195 368.658 636.195C367.421 636.195 366.419 635.697 365.65 634.701C364.889 633.705 364.508 632.348 364.508 630.629ZM366.324 630.834C366.324 632.025 366.568 632.963 367.057 633.646C367.545 634.324 368.229 634.662 369.107 634.662C370.247 634.662 371.083 634.145 371.617 633.109V628.285C371.064 627.276 370.234 626.771 369.127 626.771C368.248 626.771 367.561 627.113 367.066 627.797C366.572 628.48 366.324 629.493 366.324 630.834ZM375.689 630.619C375.689 629.584 375.891 628.653 376.295 627.826C376.705 626.999 377.271 626.361 377.994 625.912C378.723 625.463 379.553 625.238 380.484 625.238C381.923 625.238 383.085 625.736 383.971 626.732C384.863 627.729 385.309 629.053 385.309 630.707V630.834C385.309 631.863 385.11 632.787 384.713 633.607C384.322 634.421 383.759 635.056 383.023 635.512C382.294 635.967 381.454 636.195 380.504 636.195C379.072 636.195 377.91 635.697 377.018 634.701C376.132 633.705 375.689 632.387 375.689 630.746V630.619ZM377.506 630.834C377.506 632.006 377.776 632.947 378.316 633.656C378.863 634.366 379.592 634.721 380.504 634.721C381.422 634.721 382.151 634.363 382.691 633.646C383.232 632.924 383.502 631.915 383.502 630.619C383.502 629.46 383.225 628.523 382.672 627.807C382.125 627.084 381.396 626.723 380.484 626.723C379.592 626.723 378.873 627.077 378.326 627.787C377.779 628.497 377.506 629.512 377.506 630.834Z" fill="black"/>
<line x1="29" y1="219" x2="929" y2="219" stroke="#11D0C5" stroke-width="2"/>
<path d="M34.0391 187.988V194H30.5234V176.938H37.1797C38.4609 176.938 39.5859 177.172 40.5547 177.641C41.5312 178.109 42.2812 178.777 42.8047 179.645C43.3281 180.504 43.5898 181.484 43.5898 182.586C43.5898 184.258 43.0156 185.578 41.8672 186.547C40.7266 187.508 39.1445 187.988 37.1211 187.988H34.0391ZM34.0391 185.141H37.1797C38.1094 185.141 38.8164 184.922 39.3008 184.484C39.793 184.047 40.0391 183.422 40.0391 182.609C40.0391 181.773 39.793 181.098 39.3008 180.582C38.8086 180.066 38.1289 179.801 37.2617 179.785H34.0391V185.141ZM53 194C52.8438 193.695 52.7305 193.316 52.6602 192.863C51.8398 193.777 50.7734 194.234 49.4609 194.234C48.2188 194.234 47.1875 193.875 46.3672 193.156C45.5547 192.438 45.1484 191.531 45.1484 190.438C45.1484 189.094 45.6445 188.062 46.6367 187.344C47.6367 186.625 49.0781 186.262 50.9609 186.254H52.5195V185.527C52.5195 184.941 52.3672 184.473 52.0625 184.121C51.7656 183.77 51.293 183.594 50.6445 183.594C50.0742 183.594 49.625 183.73 49.2969 184.004C48.9766 184.277 48.8164 184.652 48.8164 185.129H45.4297C45.4297 184.395 45.6562 183.715 46.1094 183.09C46.5625 182.465 47.2031 181.977 48.0312 181.625C48.8594 181.266 49.7891 181.086 50.8203 181.086C52.3828 181.086 53.6211 181.48 54.5352 182.27C55.457 183.051 55.918 184.152 55.918 185.574V191.07C55.9258 192.273 56.0938 193.184 56.4219 193.801V194H53ZM50.1992 191.645C50.6992 191.645 51.1602 191.535 51.582 191.316C52.0039 191.09 52.3164 190.789 52.5195 190.414V188.234H51.2539C49.5586 188.234 48.6562 188.82 48.5469 189.992L48.5352 190.191C48.5352 190.613 48.6836 190.961 48.9805 191.234C49.2773 191.508 49.6836 191.645 50.1992 191.645ZM51.4883 176H55.1797L51.9336 179.633H49.1797L51.4883 176ZM58.0273 187.566C58.0273 185.621 58.4883 184.055 59.4102 182.867C60.3398 181.68 61.5898 181.086 63.1602 181.086C64.5508 181.086 65.6328 181.562 66.4062 182.516L66.5469 181.32H69.6172V193.578C69.6172 194.688 69.3633 195.652 68.8555 196.473C68.3555 197.293 67.6484 197.918 66.7344 198.348C65.8203 198.777 64.75 198.992 63.5234 198.992C62.5938 198.992 61.6875 198.805 60.8047 198.43C59.9219 198.062 59.2539 197.586 58.8008 197L60.3008 194.938C61.1445 195.883 62.168 196.355 63.3711 196.355C64.2695 196.355 64.9688 196.113 65.4688 195.629C65.9688 195.152 66.2188 194.473 66.2188 193.59V192.91C65.4375 193.793 64.4102 194.234 63.1367 194.234C61.6133 194.234 60.3789 193.641 59.4336 192.453C58.4961 191.258 58.0273 189.676 58.0273 187.707V187.566ZM61.4141 187.812C61.4141 188.961 61.6445 189.863 62.1055 190.52C62.5664 191.168 63.1992 191.492 64.0039 191.492C65.0352 191.492 65.7734 191.105 66.2188 190.332V185C65.7656 184.227 65.0352 183.84 64.0273 183.84C63.2148 183.84 62.5742 184.172 62.1055 184.836C61.6445 185.5 61.4141 186.492 61.4141 187.812ZM75.8047 194H72.4062V181.32H75.8047V194ZM72.207 178.039C72.207 177.531 72.375 177.113 72.7109 176.785C73.0547 176.457 73.5195 176.293 74.1055 176.293C74.6836 176.293 75.1445 176.457 75.4883 176.785C75.832 177.113 76.0039 177.531 76.0039 178.039C76.0039 178.555 75.8281 178.977 75.4766 179.305C75.1328 179.633 74.6758 179.797 74.1055 179.797C73.5352 179.797 73.0742 179.633 72.7227 179.305C72.3789 178.977 72.207 178.555 72.207 178.039ZM81.7227 181.32L81.8281 182.785C82.7344 181.652 83.9492 181.086 85.4727 181.086C86.8164 181.086 87.8164 181.48 88.4727 182.27C89.1289 183.059 89.4648 184.238 89.4805 185.809V194H86.0938V185.891C86.0938 185.172 85.9375 184.652 85.625 184.332C85.3125 184.004 84.793 183.84 84.0664 183.84C83.1133 183.84 82.3984 184.246 81.9219 185.059V194H78.5352V181.32H81.7227ZM99.4062 194C99.25 193.695 99.1367 193.316 99.0664 192.863C98.2461 193.777 97.1797 194.234 95.8672 194.234C94.625 194.234 93.5938 193.875 92.7734 193.156C91.9609 192.438 91.5547 191.531 91.5547 190.438C91.5547 189.094 92.0508 188.062 93.043 187.344C94.043 186.625 95.4844 186.262 97.3672 186.254H98.9258V185.527C98.9258 184.941 98.7734 184.473 98.4688 184.121C98.1719 183.77 97.6992 183.594 97.0508 183.594C96.4805 183.594 96.0312 183.73 95.7031 184.004C95.3828 184.277 95.2227 184.652 95.2227 185.129H91.8359C91.8359 184.395 92.0625 183.715 92.5156 183.09C92.9688 182.465 93.6094 181.977 94.4375 181.625C95.2656 181.266 96.1953 181.086 97.2266 181.086C98.7891 181.086 100.027 181.48 100.941 182.27C101.863 183.051 102.324 184.152 102.324 185.574V191.07C102.332 192.273 102.5 193.184 102.828 193.801V194H99.4062ZM96.6055 191.645C97.1055 191.645 97.5664 191.535 97.9883 191.316C98.4102 191.09 98.7227 190.789 98.9258 190.414V188.234H97.6602C95.9648 188.234 95.0625 188.82 94.9531 189.992L94.9414 190.191C94.9414 190.613 95.0898 190.961 95.3867 191.234C95.6836 191.508 96.0898 191.645 96.6055 191.645ZM114.641 187.988V194H111.125V176.938H117.781C119.062 176.938 120.188 177.172 121.156 177.641C122.133 178.109 122.883 178.777 123.406 179.645C123.93 180.504 124.191 181.484 124.191 182.586C124.191 184.258 123.617 185.578 122.469 186.547C121.328 187.508 119.746 187.988 117.723 187.988H114.641ZM114.641 185.141H117.781C118.711 185.141 119.418 184.922 119.902 184.484C120.395 184.047 120.641 183.422 120.641 182.609C120.641 181.773 120.395 181.098 119.902 180.582C119.41 180.066 118.73 179.801 117.863 179.785H114.641V185.141ZM133.52 184.496C133.059 184.434 132.652 184.402 132.301 184.402C131.02 184.402 130.18 184.836 129.781 185.703V194H126.395V181.32H129.594L129.688 182.832C130.367 181.668 131.309 181.086 132.512 181.086C132.887 181.086 133.238 181.137 133.566 181.238L133.52 184.496ZM138.734 194H135.336V181.32H138.734V194ZM135.137 178.039C135.137 177.531 135.305 177.113 135.641 176.785C135.984 176.457 136.449 176.293 137.035 176.293C137.613 176.293 138.074 176.457 138.418 176.785C138.762 177.113 138.934 177.531 138.934 178.039C138.934 178.555 138.758 178.977 138.406 179.305C138.062 179.633 137.605 179.797 137.035 179.797C136.465 179.797 136.004 179.633 135.652 179.305C135.309 178.977 135.137 178.555 135.137 178.039ZM144.652 181.32L144.758 182.785C145.664 181.652 146.879 181.086 148.402 181.086C149.746 181.086 150.746 181.48 151.402 182.27C152.059 183.059 152.395 184.238 152.41 185.809V194H149.023V185.891C149.023 185.172 148.867 184.652 148.555 184.332C148.242 184.004 147.723 183.84 146.996 183.84C146.043 183.84 145.328 184.246 144.852 185.059V194H141.465V181.32H144.652ZM160.262 191.504C160.887 191.504 161.395 191.332 161.785 190.988C162.176 190.645 162.379 190.188 162.395 189.617H165.57C165.562 190.477 165.328 191.266 164.867 191.984C164.406 192.695 163.773 193.25 162.969 193.648C162.172 194.039 161.289 194.234 160.32 194.234C158.508 194.234 157.078 193.66 156.031 192.512C154.984 191.355 154.461 189.762 154.461 187.73V187.508C154.461 185.555 154.98 183.996 156.02 182.832C157.059 181.668 158.484 181.086 160.297 181.086C161.883 181.086 163.152 181.539 164.105 182.445C165.066 183.344 165.555 184.543 165.57 186.043H162.395C162.379 185.387 162.176 184.855 161.785 184.449C161.395 184.035 160.879 183.828 160.238 183.828C159.449 183.828 158.852 184.117 158.445 184.695C158.047 185.266 157.848 186.195 157.848 187.484V187.836C157.848 189.141 158.047 190.078 158.445 190.648C158.844 191.219 159.449 191.504 160.262 191.504ZM171.078 194H167.68V181.32H171.078V194ZM167.48 178.039C167.48 177.531 167.648 177.113 167.984 176.785C168.328 176.457 168.793 176.293 169.379 176.293C169.957 176.293 170.418 176.457 170.762 176.785C171.105 177.113 171.277 177.531 171.277 178.039C171.277 178.555 171.102 178.977 170.75 179.305C170.406 179.633 169.949 179.797 169.379 179.797C168.809 179.797 168.348 179.633 167.996 179.305C167.652 178.977 167.48 178.555 167.48 178.039ZM185.293 187.777C185.293 189.73 184.848 191.297 183.957 192.477C183.074 193.648 181.879 194.234 180.371 194.234C179.09 194.234 178.055 193.789 177.266 192.898V198.875H173.879V181.32H177.02L177.137 182.562C177.957 181.578 179.027 181.086 180.348 181.086C181.91 181.086 183.125 181.664 183.992 182.82C184.859 183.977 185.293 185.57 185.293 187.602V187.777ZM181.906 187.531C181.906 186.352 181.695 185.441 181.273 184.801C180.859 184.16 180.254 183.84 179.457 183.84C178.395 183.84 177.664 184.246 177.266 185.059V190.25C177.68 191.086 178.418 191.504 179.48 191.504C181.098 191.504 181.906 190.18 181.906 187.531ZM194.75 194C194.594 193.695 194.48 193.316 194.41 192.863C193.59 193.777 192.523 194.234 191.211 194.234C189.969 194.234 188.938 193.875 188.117 193.156C187.305 192.438 186.898 191.531 186.898 190.438C186.898 189.094 187.395 188.062 188.387 187.344C189.387 186.625 190.828 186.262 192.711 186.254H194.27V185.527C194.27 184.941 194.117 184.473 193.812 184.121C193.516 183.77 193.043 183.594 192.395 183.594C191.824 183.594 191.375 183.73 191.047 184.004C190.727 184.277 190.566 184.652 190.566 185.129H187.18C187.18 184.395 187.406 183.715 187.859 183.09C188.312 182.465 188.953 181.977 189.781 181.625C190.609 181.266 191.539 181.086 192.57 181.086C194.133 181.086 195.371 181.48 196.285 182.27C197.207 183.051 197.668 184.152 197.668 185.574V191.07C197.676 192.273 197.844 193.184 198.172 193.801V194H194.75ZM191.949 191.645C192.449 191.645 192.91 191.535 193.332 191.316C193.754 191.09 194.066 190.789 194.27 190.414V188.234H193.004C191.309 188.234 190.406 188.82 190.297 189.992L190.285 190.191C190.285 190.613 190.434 190.961 190.73 191.234C191.027 191.508 191.434 191.645 191.949 191.645ZM203.844 194H200.445V176H203.844V194Z" fill="black"/>
<path d="M0 82H968V152H0V82Z" fill="#EBFFFE"/>
<path d="M33.8633 120H30.9102V102.938H33.8633V120ZM39.875 107.32L39.957 108.785C40.8945 107.652 42.125 107.086 43.6484 107.086C46.2891 107.086 47.6328 108.598 47.6797 111.621V120H44.832V111.785C44.832 110.98 44.6562 110.387 44.3047 110.004C43.9609 109.613 43.3945 109.418 42.6055 109.418C41.457 109.418 40.6016 109.938 40.0391 110.977V120H37.1914V107.32H39.875ZM53.6211 120H50.7734V107.32H53.6211V120ZM50.5977 104.027C50.5977 103.59 50.7344 103.227 51.0078 102.938C51.2891 102.648 51.6875 102.504 52.2031 102.504C52.7188 102.504 53.1172 102.648 53.3984 102.938C53.6797 103.227 53.8203 103.59 53.8203 104.027C53.8203 104.457 53.6797 104.816 53.3984 105.105C53.1172 105.387 52.7188 105.527 52.2031 105.527C51.6875 105.527 51.2891 105.387 51.0078 105.105C50.7344 104.816 50.5977 104.457 50.5977 104.027ZM61.9414 117.961C62.6523 117.961 63.2422 117.754 63.7109 117.34C64.1797 116.926 64.4297 116.414 64.4609 115.805H67.1445C67.1133 116.594 66.8672 117.332 66.4062 118.02C65.9453 118.699 65.3203 119.238 64.5312 119.637C63.7422 120.035 62.8906 120.234 61.9766 120.234C60.2031 120.234 58.7969 119.66 57.7578 118.512C56.7188 117.363 56.1992 115.777 56.1992 113.754V113.461C56.1992 111.531 56.7148 109.988 57.7461 108.832C58.7773 107.668 60.1836 107.086 61.9648 107.086C63.4727 107.086 64.6992 107.527 65.6445 108.41C66.5977 109.285 67.0977 110.438 67.1445 111.867H64.4609C64.4297 111.141 64.1797 110.543 63.7109 110.074C63.25 109.605 62.6602 109.371 61.9414 109.371C61.0195 109.371 60.3086 109.707 59.8086 110.379C59.3086 111.043 59.0547 112.055 59.0469 113.414V113.871C59.0469 115.246 59.293 116.273 59.7852 116.953C60.2852 117.625 61.0039 117.961 61.9414 117.961ZM72.3242 120H69.4766V107.32H72.3242V120ZM69.3008 104.027C69.3008 103.59 69.4375 103.227 69.7109 102.938C69.9922 102.648 70.3906 102.504 70.9062 102.504C71.4219 102.504 71.8203 102.648 72.1016 102.938C72.3828 103.227 72.5234 103.59 72.5234 104.027C72.5234 104.457 72.3828 104.816 72.1016 105.105C71.8203 105.387 71.4219 105.527 70.9062 105.527C70.3906 105.527 69.9922 105.387 69.7109 105.105C69.4375 104.816 69.3008 104.457 69.3008 104.027ZM74.9023 113.543C74.9023 112.301 75.1484 111.184 75.6406 110.191C76.1328 109.191 76.8242 108.426 77.7148 107.895C78.6055 107.355 79.6289 107.086 80.7852 107.086C82.4961 107.086 83.8828 107.637 84.9453 108.738C86.0156 109.84 86.5938 111.301 86.6797 113.121L86.6914 113.789C86.6914 115.039 86.4492 116.156 85.9648 117.141C85.4883 118.125 84.8008 118.887 83.9023 119.426C83.0117 119.965 81.9805 120.234 80.8086 120.234C79.0195 120.234 77.5859 119.641 76.5078 118.453C75.4375 117.258 74.9023 115.668 74.9023 113.684V113.543ZM77.75 113.789C77.75 115.094 78.0195 116.117 78.5586 116.859C79.0977 117.594 79.8477 117.961 80.8086 117.961C81.7695 117.961 82.5156 117.586 83.0469 116.836C83.5859 116.086 83.8555 114.988 83.8555 113.543C83.8555 112.262 83.5781 111.246 83.0234 110.496C82.4766 109.746 81.7305 109.371 80.7852 109.371C79.8555 109.371 79.1172 109.742 78.5703 110.484C78.0234 111.219 77.75 112.32 77.75 113.789Z" fill="black"/>
<path d="M151.863 120H148.91V102.938H151.863V120ZM157.875 107.32L157.957 108.785C158.895 107.652 160.125 107.086 161.648 107.086C164.289 107.086 165.633 108.598 165.68 111.621V120H162.832V111.785C162.832 110.98 162.656 110.387 162.305 110.004C161.961 109.613 161.395 109.418 160.605 109.418C159.457 109.418 158.602 109.938 158.039 110.977V120H155.191V107.32H157.875ZM175.699 116.555C175.699 116.047 175.488 115.66 175.066 115.395C174.652 115.129 173.961 114.895 172.992 114.691C172.023 114.488 171.215 114.23 170.566 113.918C169.145 113.23 168.434 112.234 168.434 110.93C168.434 109.836 168.895 108.922 169.816 108.188C170.738 107.453 171.91 107.086 173.332 107.086C174.848 107.086 176.07 107.461 177 108.211C177.938 108.961 178.406 109.934 178.406 111.129H175.559C175.559 110.582 175.355 110.129 174.949 109.77C174.543 109.402 174.004 109.219 173.332 109.219C172.707 109.219 172.195 109.363 171.797 109.652C171.406 109.941 171.211 110.328 171.211 110.812C171.211 111.25 171.395 111.59 171.762 111.832C172.129 112.074 172.871 112.32 173.988 112.57C175.105 112.812 175.98 113.105 176.613 113.449C177.254 113.785 177.727 114.191 178.031 114.668C178.344 115.145 178.5 115.723 178.5 116.402C178.5 117.543 178.027 118.469 177.082 119.18C176.137 119.883 174.898 120.234 173.367 120.234C172.328 120.234 171.402 120.047 170.59 119.672C169.777 119.297 169.145 118.781 168.691 118.125C168.238 117.469 168.012 116.762 168.012 116.004H170.777C170.816 116.676 171.07 117.195 171.539 117.562C172.008 117.922 172.629 118.102 173.402 118.102C174.152 118.102 174.723 117.961 175.113 117.68C175.504 117.391 175.699 117.016 175.699 116.555ZM184.559 104.238V107.32H186.797V109.43H184.559V116.508C184.559 116.992 184.652 117.344 184.84 117.562C185.035 117.773 185.379 117.879 185.871 117.879C186.199 117.879 186.531 117.84 186.867 117.762V119.965C186.219 120.145 185.594 120.234 184.992 120.234C182.805 120.234 181.711 119.027 181.711 116.613V109.43H179.625V107.32H181.711V104.238H184.559ZM195.621 109.922C195.246 109.859 194.859 109.828 194.461 109.828C193.156 109.828 192.277 110.328 191.824 111.328V120H188.977V107.32H191.695L191.766 108.738C192.453 107.637 193.406 107.086 194.625 107.086C195.031 107.086 195.367 107.141 195.633 107.25L195.621 109.922ZM205.102 118.758C204.266 119.742 203.078 120.234 201.539 120.234C200.164 120.234 199.121 119.832 198.41 119.027C197.707 118.223 197.355 117.059 197.355 115.535V107.32H200.203V115.5C200.203 117.109 200.871 117.914 202.207 117.914C203.59 117.914 204.523 117.418 205.008 116.426V107.32H207.855V120H205.172L205.102 118.758ZM215.965 117.961C216.676 117.961 217.266 117.754 217.734 117.34C218.203 116.926 218.453 116.414 218.484 115.805H221.168C221.137 116.594 220.891 117.332 220.43 118.02C219.969 118.699 219.344 119.238 218.555 119.637C217.766 120.035 216.914 120.234 216 120.234C214.227 120.234 212.82 119.66 211.781 118.512C210.742 117.363 210.223 115.777 210.223 113.754V113.461C210.223 111.531 210.738 109.988 211.77 108.832C212.801 107.668 214.207 107.086 215.988 107.086C217.496 107.086 218.723 107.527 219.668 108.41C220.621 109.285 221.121 110.438 221.168 111.867H218.484C218.453 111.141 218.203 110.543 217.734 110.074C217.273 109.605 216.684 109.371 215.965 109.371C215.043 109.371 214.332 109.707 213.832 110.379C213.332 111.043 213.078 112.055 213.07 113.414V113.871C213.07 115.246 213.316 116.273 213.809 116.953C214.309 117.625 215.027 117.961 215.965 117.961ZM228.527 117.961C229.238 117.961 229.828 117.754 230.297 117.34C230.766 116.926 231.016 116.414 231.047 115.805H233.73C233.699 116.594 233.453 117.332 232.992 118.02C232.531 118.699 231.906 119.238 231.117 119.637C230.328 120.035 229.477 120.234 228.562 120.234C226.789 120.234 225.383 119.66 224.344 118.512C223.305 117.363 222.785 115.777 222.785 113.754V113.461C222.785 111.531 223.301 109.988 224.332 108.832C225.363 107.668 226.77 107.086 228.551 107.086C230.059 107.086 231.285 107.527 232.23 108.41C233.184 109.285 233.684 110.438 233.73 111.867H231.047C231.016 111.141 230.766 110.543 230.297 110.074C229.836 109.605 229.246 109.371 228.527 109.371C227.605 109.371 226.895 109.707 226.395 110.379C225.895 111.043 225.641 112.055 225.633 113.414V113.871C225.633 115.246 225.879 116.273 226.371 116.953C226.871 117.625 227.59 117.961 228.527 117.961ZM238.91 120H236.062V107.32H238.91V120ZM235.887 104.027C235.887 103.59 236.023 103.227 236.297 102.938C236.578 102.648 236.977 102.504 237.492 102.504C238.008 102.504 238.406 102.648 238.688 102.938C238.969 103.227 239.109 103.59 239.109 104.027C239.109 104.457 238.969 104.816 238.688 105.105C238.406 105.387 238.008 105.527 237.492 105.527C236.977 105.527 236.578 105.387 236.297 105.105C236.023 104.816 235.887 104.457 235.887 104.027ZM241.488 113.543C241.488 112.301 241.734 111.184 242.227 110.191C242.719 109.191 243.41 108.426 244.301 107.895C245.191 107.355 246.215 107.086 247.371 107.086C249.082 107.086 250.469 107.637 251.531 108.738C252.602 109.84 253.18 111.301 253.266 113.121L253.277 113.789C253.277 115.039 253.035 116.156 252.551 117.141C252.074 118.125 251.387 118.887 250.488 119.426C249.598 119.965 248.566 120.234 247.395 120.234C245.605 120.234 244.172 119.641 243.094 118.453C242.023 117.258 241.488 115.668 241.488 113.684V113.543ZM244.336 113.789C244.336 115.094 244.605 116.117 245.145 116.859C245.684 117.594 246.434 117.961 247.395 117.961C248.355 117.961 249.102 117.586 249.633 116.836C250.172 116.086 250.441 114.988 250.441 113.543C250.441 112.262 250.164 111.246 249.609 110.496C249.062 109.746 248.316 109.371 247.371 109.371C246.441 109.371 245.703 109.742 245.156 110.484C244.609 111.219 244.336 112.32 244.336 113.789ZM258.328 107.32L258.41 108.785C259.348 107.652 260.578 107.086 262.102 107.086C264.742 107.086 266.086 108.598 266.133 111.621V120H263.285V111.785C263.285 110.98 263.109 110.387 262.758 110.004C262.414 109.613 261.848 109.418 261.059 109.418C259.91 109.418 259.055 109.938 258.492 110.977V120H255.645V107.32H258.328ZM274.629 120.234C272.824 120.234 271.359 119.668 270.234 118.535C269.117 117.395 268.559 115.879 268.559 113.988V113.637C268.559 112.371 268.801 111.242 269.285 110.25C269.777 109.25 270.465 108.473 271.348 107.918C272.23 107.363 273.215 107.086 274.301 107.086C276.027 107.086 277.359 107.637 278.297 108.738C279.242 109.84 279.715 111.398 279.715 113.414V114.562H271.43C271.516 115.609 271.863 116.438 272.473 117.047C273.09 117.656 273.863 117.961 274.793 117.961C276.098 117.961 277.16 117.434 277.98 116.379L279.516 117.844C279.008 118.602 278.328 119.191 277.477 119.613C276.633 120.027 275.684 120.234 274.629 120.234ZM274.289 109.371C273.508 109.371 272.875 109.645 272.391 110.191C271.914 110.738 271.609 111.5 271.477 112.477H276.902V112.266C276.84 111.312 276.586 110.594 276.141 110.109C275.695 109.617 275.078 109.371 274.289 109.371ZM289.043 116.555C289.043 116.047 288.832 115.66 288.41 115.395C287.996 115.129 287.305 114.895 286.336 114.691C285.367 114.488 284.559 114.23 283.91 113.918C282.488 113.23 281.777 112.234 281.777 110.93C281.777 109.836 282.238 108.922 283.16 108.188C284.082 107.453 285.254 107.086 286.676 107.086C288.191 107.086 289.414 107.461 290.344 108.211C291.281 108.961 291.75 109.934 291.75 111.129H288.902C288.902 110.582 288.699 110.129 288.293 109.77C287.887 109.402 287.348 109.219 286.676 109.219C286.051 109.219 285.539 109.363 285.141 109.652C284.75 109.941 284.555 110.328 284.555 110.812C284.555 111.25 284.738 111.59 285.105 111.832C285.473 112.074 286.215 112.32 287.332 112.57C288.449 112.812 289.324 113.105 289.957 113.449C290.598 113.785 291.07 114.191 291.375 114.668C291.688 115.145 291.844 115.723 291.844 116.402C291.844 117.543 291.371 118.469 290.426 119.18C289.48 119.883 288.242 120.234 286.711 120.234C285.672 120.234 284.746 120.047 283.934 119.672C283.121 119.297 282.488 118.781 282.035 118.125C281.582 117.469 281.355 116.762 281.355 116.004H284.121C284.16 116.676 284.414 117.195 284.883 117.562C285.352 117.922 285.973 118.102 286.746 118.102C287.496 118.102 288.066 117.961 288.457 117.68C288.848 117.391 289.043 117.016 289.043 116.555Z" fill="black"/>
<path d="M0 82V81H-1V82H0ZM968 82H969V81H968V82ZM968 152V153H969V152H968ZM0 152H-1V153H0V152ZM0 83H968V81H0V83ZM967 82V152H969V82H967ZM968 151H0V153H968V151ZM1 152V82H-1V152H1Z" fill="white"/>
<path d="M0 0H968V83H0V0Z" fill="#11D0C5"/>
<path d="M0 0V-1H-1V0H0ZM968 0H969V-1H968V0ZM968 83V84H969V83H968ZM0 83H-1V84H0V83ZM0 1H968V-1H0V1ZM967 0V83H969V0H967ZM968 82H0V84H968V82ZM1 83V0H-1V83H1Z" fill="white"/>
</g>
<rect x="1" y="1" width="966" height="726" stroke="#171212" stroke-width="2"/>
<defs>
<clipPath id="clip0">
</clipPath>
</defs>
</svg>
