<svg width="485" height="728" viewBox="0 0 485 728" fill="none" xmlns="http://www.w3.org/2000/svg">
<rect x="1" y="1" width="483" height="726" fill="white"/>
<path d="M24.5254 704.434V710H22.6504V695.781H27.8945C29.4505 695.781 30.668 696.178 31.5469 696.973C32.4323 697.767 32.875 698.818 32.875 700.127C32.875 701.507 32.4421 702.572 31.5762 703.32C30.7168 704.062 29.4831 704.434 27.875 704.434H24.5254ZM24.5254 702.9H27.8945C28.8971 702.9 29.6654 702.666 30.1992 702.197C30.7331 701.722 31 701.038 31 700.146C31 699.3 30.7331 698.623 30.1992 698.115C29.6654 697.607 28.9329 697.344 28.002 697.324H24.5254V702.9ZM36.9473 710H35.1406V699.434H36.9473V710ZM34.9941 696.631C34.9941 696.338 35.082 696.09 35.2578 695.889C35.4401 695.687 35.707 695.586 36.0586 695.586C36.4102 695.586 36.6771 695.687 36.8594 695.889C37.0417 696.09 37.1328 696.338 37.1328 696.631C37.1328 696.924 37.0417 697.168 36.8594 697.363C36.6771 697.559 36.4102 697.656 36.0586 697.656C35.707 697.656 35.4401 697.559 35.2578 697.363C35.082 697.168 34.9941 696.924 34.9941 696.631ZM44.2324 710.195C42.8001 710.195 41.6348 709.727 40.7363 708.789C39.8379 707.845 39.3887 706.585 39.3887 705.01V704.678C39.3887 703.63 39.5872 702.695 39.9844 701.875C40.388 701.048 40.9479 700.404 41.6641 699.941C42.3867 699.473 43.168 699.238 44.0078 699.238C45.3815 699.238 46.4492 699.691 47.2109 700.596C47.9727 701.501 48.3535 702.796 48.3535 704.482V705.234H41.1953C41.2214 706.276 41.5241 707.119 42.1035 707.764C42.6895 708.402 43.4316 708.721 44.3301 708.721C44.9681 708.721 45.5085 708.59 45.9512 708.33C46.3939 708.07 46.7812 707.725 47.1133 707.295L48.2168 708.154C47.3314 709.515 46.0033 710.195 44.2324 710.195ZM44.0078 700.723C43.2786 700.723 42.6667 700.99 42.1719 701.523C41.6771 702.051 41.3711 702.793 41.2539 703.75H46.5469V703.613C46.4948 702.695 46.2474 701.986 45.8047 701.484C45.362 700.977 44.763 700.723 44.0078 700.723ZM54.9746 704.629C54.9746 703.008 55.3587 701.706 56.127 700.723C56.8952 699.733 57.901 699.238 59.1445 699.238C60.3815 699.238 61.3613 699.661 62.084 700.508V695H63.8906V710H62.2305L62.1426 708.867C61.4199 709.753 60.4141 710.195 59.125 710.195C57.901 710.195 56.9017 709.694 56.127 708.691C55.3587 707.689 54.9746 706.38 54.9746 704.766V704.629ZM56.7812 704.834C56.7812 706.032 57.0286 706.969 57.5234 707.646C58.0182 708.324 58.7018 708.662 59.5742 708.662C60.7201 708.662 61.5566 708.148 62.084 707.119V702.266C61.5436 701.27 60.7135 700.771 59.5938 700.771C58.7083 700.771 58.0182 701.113 57.5234 701.797C57.0286 702.48 56.7812 703.493 56.7812 704.834ZM71.0879 710.195C69.6556 710.195 68.4902 709.727 67.5918 708.789C66.6934 707.845 66.2441 706.585 66.2441 705.01V704.678C66.2441 703.63 66.4427 702.695 66.8398 701.875C67.2435 701.048 67.8034 700.404 68.5195 699.941C69.2422 699.473 70.0234 699.238 70.8633 699.238C72.237 699.238 73.3047 699.691 74.0664 700.596C74.8281 701.501 75.209 702.796 75.209 704.482V705.234H68.0508C68.0768 706.276 68.3796 707.119 68.959 707.764C69.5449 708.402 70.2871 708.721 71.1855 708.721C71.8236 708.721 72.3639 708.59 72.8066 708.33C73.2493 708.07 73.6367 707.725 73.9688 707.295L75.0723 708.154C74.1868 709.515 72.8587 710.195 71.0879 710.195ZM70.8633 700.723C70.1341 700.723 69.5221 700.99 69.0273 701.523C68.5326 702.051 68.2266 702.793 68.1094 703.75H73.4023V703.613C73.3503 702.695 73.1029 701.986 72.6602 701.484C72.2174 700.977 71.6185 700.723 70.8633 700.723ZM91.1953 704.834C91.1953 706.442 90.8275 707.738 90.0918 708.721C89.3561 709.704 88.36 710.195 87.1035 710.195C85.821 710.195 84.8118 709.788 84.0762 708.975V714.062H82.2695V699.434H83.9199L84.0078 700.605C84.7435 699.694 85.7656 699.238 87.0742 699.238C88.3438 699.238 89.3464 699.717 90.082 700.674C90.8242 701.631 91.1953 702.962 91.1953 704.668V704.834ZM89.3887 704.629C89.3887 703.438 89.1348 702.497 88.627 701.807C88.1191 701.117 87.4225 700.771 86.5371 700.771C85.4434 700.771 84.623 701.257 84.0762 702.227V707.275C84.6165 708.239 85.4434 708.721 86.5566 708.721C87.4225 708.721 88.1094 708.379 88.6172 707.695C89.1315 707.005 89.3887 705.983 89.3887 704.629ZM100.023 710C99.9193 709.792 99.8346 709.421 99.7695 708.887C98.9297 709.759 97.9271 710.195 96.7617 710.195C95.7201 710.195 94.8639 709.902 94.1934 709.316C93.5293 708.724 93.1973 707.975 93.1973 707.07C93.1973 705.97 93.6139 705.117 94.4473 704.512C95.2871 703.9 96.4655 703.594 97.9824 703.594H99.7402V702.764C99.7402 702.132 99.5514 701.631 99.1738 701.26C98.7962 700.882 98.2396 700.693 97.5039 700.693C96.8594 700.693 96.319 700.856 95.8828 701.182C95.4466 701.507 95.2285 701.901 95.2285 702.363H93.4121C93.4121 701.836 93.5977 701.328 93.9688 700.84C94.3464 700.345 94.8542 699.954 95.4922 699.668C96.1367 699.382 96.8431 699.238 97.6113 699.238C98.8288 699.238 99.7826 699.544 100.473 700.156C101.163 700.762 101.521 701.598 101.547 702.666V707.529C101.547 708.499 101.671 709.271 101.918 709.844V710H100.023ZM97.0254 708.623C97.5918 708.623 98.1289 708.477 98.6367 708.184C99.1445 707.891 99.5124 707.51 99.7402 707.041V704.873H98.3242C96.1107 704.873 95.0039 705.521 95.0039 706.816C95.0039 707.383 95.1927 707.826 95.5703 708.145C95.9479 708.464 96.4329 708.623 97.0254 708.623ZM98.6953 695H100.883L98.2656 697.871H96.8105L98.6953 695ZM103.949 704.629C103.949 702.982 104.33 701.673 105.092 700.703C105.854 699.727 106.863 699.238 108.119 699.238C109.408 699.238 110.414 699.694 111.137 700.605L111.225 699.434H112.875V709.746C112.875 711.113 112.468 712.191 111.654 712.979C110.847 713.766 109.76 714.16 108.393 714.16C107.631 714.16 106.885 713.997 106.156 713.672C105.427 713.346 104.87 712.9 104.486 712.334L105.424 711.25C106.199 712.207 107.146 712.686 108.266 712.686C109.145 712.686 109.828 712.438 110.316 711.943C110.811 711.449 111.059 710.752 111.059 709.854V708.945C110.336 709.779 109.35 710.195 108.1 710.195C106.863 710.195 105.86 709.697 105.092 708.701C104.33 707.705 103.949 706.348 103.949 704.629ZM105.766 704.834C105.766 706.025 106.01 706.963 106.498 707.646C106.986 708.324 107.67 708.662 108.549 708.662C109.688 708.662 110.525 708.145 111.059 707.109V702.285C110.505 701.276 109.675 700.771 108.568 700.771C107.689 700.771 107.003 701.113 106.508 701.797C106.013 702.48 105.766 703.493 105.766 704.834ZM117.572 710H115.766V699.434H117.572V710ZM115.619 696.631C115.619 696.338 115.707 696.09 115.883 695.889C116.065 695.687 116.332 695.586 116.684 695.586C117.035 695.586 117.302 695.687 117.484 695.889C117.667 696.09 117.758 696.338 117.758 696.631C117.758 696.924 117.667 697.168 117.484 697.363C117.302 697.559 117.035 697.656 116.684 697.656C116.332 697.656 116.065 697.559 115.883 697.363C115.707 697.168 115.619 696.924 115.619 696.631ZM122.182 699.434L122.24 700.762C123.048 699.746 124.102 699.238 125.404 699.238C127.637 699.238 128.764 700.498 128.783 703.018V710H126.977V703.008C126.97 702.246 126.794 701.683 126.449 701.318C126.111 700.954 125.58 700.771 124.857 700.771C124.271 700.771 123.757 700.928 123.314 701.24C122.872 701.553 122.527 701.963 122.279 702.471V710H120.473V699.434H122.182ZM138.031 710C137.927 709.792 137.842 709.421 137.777 708.887C136.938 709.759 135.935 710.195 134.77 710.195C133.728 710.195 132.872 709.902 132.201 709.316C131.537 708.724 131.205 707.975 131.205 707.07C131.205 705.97 131.622 705.117 132.455 704.512C133.295 703.9 134.473 703.594 135.99 703.594H137.748V702.764C137.748 702.132 137.559 701.631 137.182 701.26C136.804 700.882 136.247 700.693 135.512 700.693C134.867 700.693 134.327 700.856 133.891 701.182C133.454 701.507 133.236 701.901 133.236 702.363H131.42C131.42 701.836 131.605 701.328 131.977 700.84C132.354 700.345 132.862 699.954 133.5 699.668C134.145 699.382 134.851 699.238 135.619 699.238C136.837 699.238 137.79 699.544 138.48 700.156C139.171 700.762 139.529 701.598 139.555 702.666V707.529C139.555 708.499 139.678 709.271 139.926 709.844V710H138.031ZM135.033 708.623C135.6 708.623 136.137 708.477 136.645 708.184C137.152 707.891 137.52 707.51 137.748 707.041V704.873H136.332C134.118 704.873 133.012 705.521 133.012 706.816C133.012 707.383 133.201 707.826 133.578 708.145C133.956 708.464 134.441 708.623 135.033 708.623Z" fill="black"/>
<rect y="152" width="485" height="504" fill="white"/>
<rect x="19.5" y="166.5" width="444" height="311" fill="#FFFDFD" stroke="black"/>
<path d="M42.2148 179.938V191.34C42.2148 193.152 41.6328 194.59 40.4688 195.652C39.3125 196.707 37.7695 197.234 35.8398 197.234C33.8867 197.234 32.3359 196.715 31.1875 195.676C30.0391 194.629 29.4648 193.18 29.4648 191.328V179.938H32.418V191.352C32.418 192.492 32.707 193.363 33.2852 193.965C33.8633 194.566 34.7148 194.867 35.8398 194.867C38.1211 194.867 39.2617 193.664 39.2617 191.258V179.938H42.2148ZM36.6602 175.367H39.9062L36.6602 178.918H34.375L36.6602 175.367ZM48.1445 197H45.2969V179H48.1445V197ZM54.8242 181.238V184.32H57.0625V186.43H54.8242V193.508C54.8242 193.992 54.918 194.344 55.1055 194.562C55.3008 194.773 55.6445 194.879 56.1367 194.879C56.4648 194.879 56.7969 194.84 57.1328 194.762V196.965C56.4844 197.145 55.8594 197.234 55.2578 197.234C53.0703 197.234 51.9766 196.027 51.9766 193.613V186.43H49.8906V184.32H51.9766V181.238H54.8242ZM62.2773 197H59.4297V184.32H62.2773V197ZM59.2539 181.027C59.2539 180.59 59.3906 180.227 59.6641 179.938C59.9453 179.648 60.3438 179.504 60.8594 179.504C61.375 179.504 61.7734 179.648 62.0547 179.938C62.3359 180.227 62.4766 180.59 62.4766 181.027C62.4766 181.457 62.3359 181.816 62.0547 182.105C61.7734 182.387 61.375 182.527 60.8594 182.527C60.3438 182.527 59.9453 182.387 59.6641 182.105C59.3906 181.816 59.2539 181.457 59.2539 181.027ZM68.0664 184.32L68.1484 185.645C69.0391 184.605 70.2578 184.086 71.8047 184.086C73.5 184.086 74.6602 184.734 75.2852 186.031C76.207 184.734 77.5039 184.086 79.1758 184.086C80.5742 184.086 81.6133 184.473 82.293 185.246C82.9805 186.02 83.332 187.16 83.3477 188.668V197H80.5V188.75C80.5 187.945 80.3242 187.355 79.9727 186.98C79.6211 186.605 79.0391 186.418 78.2266 186.418C77.5781 186.418 77.0469 186.594 76.6328 186.945C76.2266 187.289 75.9414 187.742 75.7773 188.305L75.7891 197H72.9414V188.656C72.9023 187.164 72.1406 186.418 70.6562 186.418C69.5156 186.418 68.707 186.883 68.2305 187.812V197H65.3828V184.32H68.0664ZM85.7383 190.543C85.7383 189.301 85.9844 188.184 86.4766 187.191C86.9688 186.191 87.6602 185.426 88.5508 184.895C89.4414 184.355 90.4648 184.086 91.6211 184.086C93.332 184.086 94.7188 184.637 95.7812 185.738C96.8516 186.84 97.4297 188.301 97.5156 190.121L97.5273 190.789C97.5273 192.039 97.2852 193.156 96.8008 194.141C96.3242 195.125 95.6367 195.887 94.7383 196.426C93.8477 196.965 92.8164 197.234 91.6445 197.234C89.8555 197.234 88.4219 196.641 87.3438 195.453C86.2734 194.258 85.7383 192.668 85.7383 190.684V190.543ZM88.5859 190.789C88.5859 192.094 88.8555 193.117 89.3945 193.859C89.9336 194.594 90.6836 194.961 91.6445 194.961C92.6055 194.961 93.3516 194.586 93.8828 193.836C94.4219 193.086 94.6914 191.988 94.6914 190.543C94.6914 189.262 94.4141 188.246 93.8594 187.496C93.3125 186.746 92.5664 186.371 91.6211 186.371C90.6914 186.371 89.9531 186.742 89.4062 187.484C88.8594 188.219 88.5859 189.32 88.5859 190.789ZM107.043 193.555C107.043 193.047 106.832 192.66 106.41 192.395C105.996 192.129 105.305 191.895 104.336 191.691C103.367 191.488 102.559 191.23 101.91 190.918C100.488 190.23 99.7773 189.234 99.7773 187.93C99.7773 186.836 100.238 185.922 101.16 185.188C102.082 184.453 103.254 184.086 104.676 184.086C106.191 184.086 107.414 184.461 108.344 185.211C109.281 185.961 109.75 186.934 109.75 188.129H106.902C106.902 187.582 106.699 187.129 106.293 186.77C105.887 186.402 105.348 186.219 104.676 186.219C104.051 186.219 103.539 186.363 103.141 186.652C102.75 186.941 102.555 187.328 102.555 187.812C102.555 188.25 102.738 188.59 103.105 188.832C103.473 189.074 104.215 189.32 105.332 189.57C106.449 189.812 107.324 190.105 107.957 190.449C108.598 190.785 109.07 191.191 109.375 191.668C109.688 192.145 109.844 192.723 109.844 193.402C109.844 194.543 109.371 195.469 108.426 196.18C107.48 196.883 106.242 197.234 104.711 197.234C103.672 197.234 102.746 197.047 101.934 196.672C101.121 196.297 100.488 195.781 100.035 195.125C99.582 194.469 99.3555 193.762 99.3555 193.004H102.121C102.16 193.676 102.414 194.195 102.883 194.562C103.352 194.922 103.973 195.102 104.746 195.102C105.496 195.102 106.066 194.961 106.457 194.68C106.848 194.391 107.043 194.016 107.043 193.555ZM121.281 184.32V198.125C121.281 199.422 120.957 200.41 120.309 201.09C119.668 201.777 118.727 202.121 117.484 202.121C116.961 202.121 116.457 202.055 115.973 201.922V199.672C116.27 199.742 116.605 199.777 116.98 199.777C117.926 199.777 118.41 199.262 118.434 198.23V184.32H121.281ZM118.188 181.027C118.188 180.59 118.324 180.227 118.598 179.938C118.879 179.648 119.277 179.504 119.793 179.504C120.309 179.504 120.707 179.648 120.988 179.938C121.27 180.227 121.41 180.59 121.41 181.027C121.41 181.457 121.27 181.816 120.988 182.105C120.707 182.387 120.309 182.527 119.793 182.527C119.277 182.527 118.879 182.387 118.598 182.105C118.324 181.816 118.188 181.457 118.188 181.027ZM132.016 195.758C131.18 196.742 129.992 197.234 128.453 197.234C127.078 197.234 126.035 196.832 125.324 196.027C124.621 195.223 124.27 194.059 124.27 192.535V184.32H127.117V192.5C127.117 194.109 127.785 194.914 129.121 194.914C130.504 194.914 131.438 194.418 131.922 193.426V184.32H134.77V197H132.086L132.016 195.758ZM137.172 190.566C137.172 188.598 137.633 187.027 138.555 185.855C139.484 184.676 140.715 184.086 142.246 184.086C143.691 184.086 144.828 184.59 145.656 185.598L145.785 184.32H148.352V196.613C148.352 198.277 147.832 199.59 146.793 200.551C145.762 201.512 144.367 201.992 142.609 201.992C141.68 201.992 140.77 201.797 139.879 201.406C138.996 201.023 138.324 200.52 137.863 199.895L139.211 198.184C140.086 199.223 141.164 199.742 142.445 199.742C143.391 199.742 144.137 199.484 144.684 198.969C145.23 198.461 145.504 197.711 145.504 196.719V195.863C144.684 196.777 143.59 197.234 142.223 197.234C140.738 197.234 139.523 196.645 138.578 195.465C137.641 194.285 137.172 192.652 137.172 190.566ZM140.008 190.812C140.008 192.086 140.266 193.09 140.781 193.824C141.305 194.551 142.027 194.914 142.949 194.914C144.098 194.914 144.949 194.422 145.504 193.438V187.859C144.965 186.898 144.121 186.418 142.973 186.418C142.035 186.418 141.305 186.789 140.781 187.531C140.266 188.273 140.008 189.367 140.008 190.812ZM158.863 197C158.738 196.758 158.629 196.363 158.535 195.816C157.629 196.762 156.52 197.234 155.207 197.234C153.934 197.234 152.895 196.871 152.09 196.145C151.285 195.418 150.883 194.52 150.883 193.449C150.883 192.098 151.383 191.062 152.383 190.344C153.391 189.617 154.828 189.254 156.695 189.254H158.441V188.422C158.441 187.766 158.258 187.242 157.891 186.852C157.523 186.453 156.965 186.254 156.215 186.254C155.566 186.254 155.035 186.418 154.621 186.746C154.207 187.066 154 187.477 154 187.977H151.152C151.152 187.281 151.383 186.633 151.844 186.031C152.305 185.422 152.93 184.945 153.719 184.602C154.516 184.258 155.402 184.086 156.379 184.086C157.863 184.086 159.047 184.461 159.93 185.211C160.812 185.953 161.266 187 161.289 188.352V194.07C161.289 195.211 161.449 196.121 161.77 196.801V197H158.863ZM155.734 194.949C156.297 194.949 156.824 194.812 157.316 194.539C157.816 194.266 158.191 193.898 158.441 193.438V191.047H156.906C155.852 191.047 155.059 191.23 154.527 191.598C153.996 191.965 153.73 192.484 153.73 193.156C153.73 193.703 153.91 194.141 154.27 194.469C154.637 194.789 155.125 194.949 155.734 194.949ZM163.738 190.566C163.738 188.613 164.191 187.047 165.098 185.867C166.004 184.68 167.219 184.086 168.742 184.086C170.086 184.086 171.172 184.555 172 185.492V179H174.848V197H172.27L172.129 195.688C171.277 196.719 170.141 197.234 168.719 197.234C167.234 197.234 166.031 196.637 165.109 195.441C164.195 194.246 163.738 192.621 163.738 190.566ZM166.586 190.812C166.586 192.102 166.832 193.109 167.324 193.836C167.824 194.555 168.531 194.914 169.445 194.914C170.609 194.914 171.461 194.395 172 193.355V187.941C171.477 186.926 170.633 186.418 169.469 186.418C168.547 186.418 167.836 186.785 167.336 187.52C166.836 188.246 166.586 189.344 166.586 190.812ZM177.285 190.543C177.285 189.301 177.531 188.184 178.023 187.191C178.516 186.191 179.207 185.426 180.098 184.895C180.988 184.355 182.012 184.086 183.168 184.086C184.879 184.086 186.266 184.637 187.328 185.738C188.398 186.84 188.977 188.301 189.062 190.121L189.074 190.789C189.074 192.039 188.832 193.156 188.348 194.141C187.871 195.125 187.184 195.887 186.285 196.426C185.395 196.965 184.363 197.234 183.191 197.234C181.402 197.234 179.969 196.641 178.891 195.453C177.82 194.258 177.285 192.668 177.285 190.684V190.543ZM180.133 190.789C180.133 192.094 180.402 193.117 180.941 193.859C181.48 194.594 182.23 194.961 183.191 194.961C184.152 194.961 184.898 194.586 185.43 193.836C185.969 193.086 186.238 191.988 186.238 190.543C186.238 189.262 185.961 188.246 185.406 187.496C184.859 186.746 184.113 186.371 183.168 186.371C182.238 186.371 181.5 186.742 180.953 187.484C180.406 188.219 180.133 189.32 180.133 190.789ZM198.121 186.922C197.746 186.859 197.359 186.828 196.961 186.828C195.656 186.828 194.777 187.328 194.324 188.328V197H191.477V184.32H194.195L194.266 185.738C194.953 184.637 195.906 184.086 197.125 184.086C197.531 184.086 197.867 184.141 198.133 184.25L198.121 186.922ZM205.27 197.234C203.465 197.234 202 196.668 200.875 195.535C199.758 194.395 199.199 192.879 199.199 190.988V190.637C199.199 189.371 199.441 188.242 199.926 187.25C200.418 186.25 201.105 185.473 201.988 184.918C202.871 184.363 203.855 184.086 204.941 184.086C206.668 184.086 208 184.637 208.938 185.738C209.883 186.84 210.355 188.398 210.355 190.414V191.562H202.07C202.156 192.609 202.504 193.438 203.113 194.047C203.73 194.656 204.504 194.961 205.434 194.961C206.738 194.961 207.801 194.434 208.621 193.379L210.156 194.844C209.648 195.602 208.969 196.191 208.117 196.613C207.273 197.027 206.324 197.234 205.27 197.234ZM204.93 186.371C204.148 186.371 203.516 186.645 203.031 187.191C202.555 187.738 202.25 188.5 202.117 189.477H207.543V189.266C207.48 188.312 207.227 187.594 206.781 187.109C206.336 186.617 205.719 186.371 204.93 186.371ZM219.684 193.555C219.684 193.047 219.473 192.66 219.051 192.395C218.637 192.129 217.945 191.895 216.977 191.691C216.008 191.488 215.199 191.23 214.551 190.918C213.129 190.23 212.418 189.234 212.418 187.93C212.418 186.836 212.879 185.922 213.801 185.188C214.723 184.453 215.895 184.086 217.316 184.086C218.832 184.086 220.055 184.461 220.984 185.211C221.922 185.961 222.391 186.934 222.391 188.129H219.543C219.543 187.582 219.34 187.129 218.934 186.77C218.527 186.402 217.988 186.219 217.316 186.219C216.691 186.219 216.18 186.363 215.781 186.652C215.391 186.941 215.195 187.328 215.195 187.812C215.195 188.25 215.379 188.59 215.746 188.832C216.113 189.074 216.855 189.32 217.973 189.57C219.09 189.812 219.965 190.105 220.598 190.449C221.238 190.785 221.711 191.191 222.016 191.668C222.328 192.145 222.484 192.723 222.484 193.402C222.484 194.543 222.012 195.469 221.066 196.18C220.121 196.883 218.883 197.234 217.352 197.234C216.312 197.234 215.387 197.047 214.574 196.672C213.762 196.297 213.129 195.781 212.676 195.125C212.223 194.469 211.996 193.762 211.996 193.004H214.762C214.801 193.676 215.055 194.195 215.523 194.562C215.992 194.922 216.613 195.102 217.387 195.102C218.137 195.102 218.707 194.961 219.098 194.68C219.488 194.391 219.684 194.016 219.684 193.555ZM235.422 193.391L238.105 184.32H241.047L236.652 197H234.18L229.75 184.32H232.703L235.422 193.391ZM245.863 197H243.016V184.32H245.863V197ZM242.84 181.027C242.84 180.59 242.977 180.227 243.25 179.938C243.531 179.648 243.93 179.504 244.445 179.504C244.961 179.504 245.359 179.648 245.641 179.938C245.922 180.227 246.062 180.59 246.062 181.027C246.062 181.457 245.922 181.816 245.641 182.105C245.359 182.387 244.961 182.527 244.445 182.527C243.93 182.527 243.531 182.387 243.25 182.105C242.977 181.816 242.84 181.457 242.84 181.027ZM254.184 194.961C254.895 194.961 255.484 194.754 255.953 194.34C256.422 193.926 256.672 193.414 256.703 192.805H259.387C259.355 193.594 259.109 194.332 258.648 195.02C258.188 195.699 257.562 196.238 256.773 196.637C255.984 197.035 255.133 197.234 254.219 197.234C252.445 197.234 251.039 196.66 250 195.512C248.961 194.363 248.441 192.777 248.441 190.754V190.461C248.441 188.531 248.957 186.988 249.988 185.832C251.02 184.668 252.426 184.086 254.207 184.086C255.715 184.086 256.941 184.527 257.887 185.41C258.84 186.285 259.34 187.438 259.387 188.867H256.703C256.672 188.141 256.422 187.543 255.953 187.074C255.492 186.605 254.902 186.371 254.184 186.371C253.262 186.371 252.551 186.707 252.051 187.379C251.551 188.043 251.297 189.055 251.289 190.414V190.871C251.289 192.246 251.535 193.273 252.027 193.953C252.527 194.625 253.246 194.961 254.184 194.961ZM265.105 181.238V184.32H267.344V186.43H265.105V193.508C265.105 193.992 265.199 194.344 265.387 194.562C265.582 194.773 265.926 194.879 266.418 194.879C266.746 194.879 267.078 194.84 267.414 194.762V196.965C266.766 197.145 266.141 197.234 265.539 197.234C263.352 197.234 262.258 196.027 262.258 193.613V186.43H260.172V184.32H262.258V181.238H265.105ZM268.645 190.543C268.645 189.301 268.891 188.184 269.383 187.191C269.875 186.191 270.566 185.426 271.457 184.895C272.348 184.355 273.371 184.086 274.527 184.086C276.238 184.086 277.625 184.637 278.688 185.738C279.758 186.84 280.336 188.301 280.422 190.121L280.434 190.789C280.434 192.039 280.191 193.156 279.707 194.141C279.23 195.125 278.543 195.887 277.645 196.426C276.754 196.965 275.723 197.234 274.551 197.234C272.762 197.234 271.328 196.641 270.25 195.453C269.18 194.258 268.645 192.668 268.645 190.684V190.543ZM271.492 190.789C271.492 192.094 271.762 193.117 272.301 193.859C272.84 194.594 273.59 194.961 274.551 194.961C275.512 194.961 276.258 194.586 276.789 193.836C277.328 193.086 277.598 191.988 277.598 190.543C277.598 189.262 277.32 188.246 276.766 187.496C276.219 186.746 275.473 186.371 274.527 186.371C273.598 186.371 272.859 186.742 272.312 187.484C271.766 188.219 271.492 189.32 271.492 190.789ZM289.48 186.922C289.105 186.859 288.719 186.828 288.32 186.828C287.016 186.828 286.137 187.328 285.684 188.328V197H282.836V184.32H285.555L285.625 185.738C286.312 184.637 287.266 184.086 288.484 184.086C288.891 184.086 289.227 184.141 289.492 184.25L289.48 186.922ZM294.309 197H291.461V184.32H294.309V197ZM291.285 181.027C291.285 180.59 291.422 180.227 291.695 179.938C291.977 179.648 292.375 179.504 292.891 179.504C293.406 179.504 293.805 179.648 294.086 179.938C294.367 180.227 294.508 180.59 294.508 181.027C294.508 181.457 294.367 181.816 294.086 182.105C293.805 182.387 293.406 182.527 292.891 182.527C292.375 182.527 291.977 182.387 291.695 182.105C291.422 181.816 291.285 181.457 291.285 181.027ZM296.887 190.543C296.887 189.301 297.133 188.184 297.625 187.191C298.117 186.191 298.809 185.426 299.699 184.895C300.59 184.355 301.613 184.086 302.77 184.086C304.48 184.086 305.867 184.637 306.93 185.738C308 186.84 308.578 188.301 308.664 190.121L308.676 190.789C308.676 192.039 308.434 193.156 307.949 194.141C307.473 195.125 306.785 195.887 305.887 196.426C304.996 196.965 303.965 197.234 302.793 197.234C301.004 197.234 299.57 196.641 298.492 195.453C297.422 194.258 296.887 192.668 296.887 190.684V190.543ZM299.734 190.789C299.734 192.094 300.004 193.117 300.543 193.859C301.082 194.594 301.832 194.961 302.793 194.961C303.754 194.961 304.5 194.586 305.031 193.836C305.57 193.086 305.84 191.988 305.84 190.543C305.84 189.262 305.562 188.246 305.008 187.496C304.461 186.746 303.715 186.371 302.77 186.371C301.84 186.371 301.102 186.742 300.555 187.484C300.008 188.219 299.734 189.32 299.734 190.789ZM318.191 193.555C318.191 193.047 317.98 192.66 317.559 192.395C317.145 192.129 316.453 191.895 315.484 191.691C314.516 191.488 313.707 191.23 313.059 190.918C311.637 190.23 310.926 189.234 310.926 187.93C310.926 186.836 311.387 185.922 312.309 185.188C313.23 184.453 314.402 184.086 315.824 184.086C317.34 184.086 318.562 184.461 319.492 185.211C320.43 185.961 320.898 186.934 320.898 188.129H318.051C318.051 187.582 317.848 187.129 317.441 186.77C317.035 186.402 316.496 186.219 315.824 186.219C315.199 186.219 314.688 186.363 314.289 186.652C313.898 186.941 313.703 187.328 313.703 187.812C313.703 188.25 313.887 188.59 314.254 188.832C314.621 189.074 315.363 189.32 316.48 189.57C317.598 189.812 318.473 190.105 319.105 190.449C319.746 190.785 320.219 191.191 320.523 191.668C320.836 192.145 320.992 192.723 320.992 193.402C320.992 194.543 320.52 195.469 319.574 196.18C318.629 196.883 317.391 197.234 315.859 197.234C314.82 197.234 313.895 197.047 313.082 196.672C312.27 196.297 311.637 195.781 311.184 195.125C310.73 194.469 310.504 193.762 310.504 193.004H313.27C313.309 193.676 313.562 194.195 314.031 194.562C314.5 194.922 315.121 195.102 315.895 195.102C316.645 195.102 317.215 194.961 317.605 194.68C317.996 194.391 318.191 194.016 318.191 193.555ZM322.949 190.543C322.949 189.301 323.195 188.184 323.688 187.191C324.18 186.191 324.871 185.426 325.762 184.895C326.652 184.355 327.676 184.086 328.832 184.086C330.543 184.086 331.93 184.637 332.992 185.738C334.062 186.84 334.641 188.301 334.727 190.121L334.738 190.789C334.738 192.039 334.496 193.156 334.012 194.141C333.535 195.125 332.848 195.887 331.949 196.426C331.059 196.965 330.027 197.234 328.855 197.234C327.066 197.234 325.633 196.641 324.555 195.453C323.484 194.258 322.949 192.668 322.949 190.684V190.543ZM325.797 190.789C325.797 192.094 326.066 193.117 326.605 193.859C327.145 194.594 327.895 194.961 328.855 194.961C329.816 194.961 330.562 194.586 331.094 193.836C331.633 193.086 331.902 191.988 331.902 190.543C331.902 189.262 331.625 188.246 331.07 187.496C330.523 186.746 329.777 186.371 328.832 186.371C327.902 186.371 327.164 186.742 326.617 187.484C326.07 188.219 325.797 189.32 325.797 190.789ZM344.254 193.555C344.254 193.047 344.043 192.66 343.621 192.395C343.207 192.129 342.516 191.895 341.547 191.691C340.578 191.488 339.77 191.23 339.121 190.918C337.699 190.23 336.988 189.234 336.988 187.93C336.988 186.836 337.449 185.922 338.371 185.188C339.293 184.453 340.465 184.086 341.887 184.086C343.402 184.086 344.625 184.461 345.555 185.211C346.492 185.961 346.961 186.934 346.961 188.129H344.113C344.113 187.582 343.91 187.129 343.504 186.77C343.098 186.402 342.559 186.219 341.887 186.219C341.262 186.219 340.75 186.363 340.352 186.652C339.961 186.941 339.766 187.328 339.766 187.812C339.766 188.25 339.949 188.59 340.316 188.832C340.684 189.074 341.426 189.32 342.543 189.57C343.66 189.812 344.535 190.105 345.168 190.449C345.809 190.785 346.281 191.191 346.586 191.668C346.898 192.145 347.055 192.723 347.055 193.402C347.055 194.543 346.582 195.469 345.637 196.18C344.691 196.883 343.453 197.234 341.922 197.234C340.883 197.234 339.957 197.047 339.145 196.672C338.332 196.297 337.699 195.781 337.246 195.125C336.793 194.469 336.566 193.762 336.566 193.004H339.332C339.371 193.676 339.625 194.195 340.094 194.562C340.562 194.922 341.184 195.102 341.957 195.102C342.707 195.102 343.277 194.961 343.668 194.68C344.059 194.391 344.254 194.016 344.254 193.555Z" fill="black"/>
<path d="M51.9883 240H49.1523V226.301L44.9688 227.73V225.328L51.625 222.879H51.9883V240ZM59.875 237C60.4062 237 60.8164 237.152 61.1055 237.457C61.3945 237.754 61.5391 238.129 61.5391 238.582C61.5391 239.027 61.3945 239.398 61.1055 239.695C60.8164 239.984 60.4062 240.129 59.875 240.129C59.3672 240.129 58.9648 239.984 58.668 239.695C58.3711 239.406 58.2227 239.035 58.2227 238.582C58.2227 238.129 58.3672 237.754 58.6562 237.457C58.9453 237.152 59.3516 237 59.875 237ZM84.6133 231.914C84.6133 233.531 84.3555 234.934 83.8398 236.121C83.332 237.301 82.6172 238.238 81.6953 238.934L84.625 241.219L82.7031 242.953L79.0703 240.082C78.5938 240.184 78.082 240.234 77.5352 240.234C76.1602 240.234 74.9297 239.898 73.8438 239.227C72.7656 238.547 71.9297 237.582 71.3359 236.332C70.75 235.082 70.4531 233.641 70.4453 232.008V231.047C70.4453 229.383 70.7383 227.914 71.3242 226.641C71.918 225.367 72.75 224.395 73.8203 223.723C74.8984 223.043 76.1289 222.703 77.5117 222.703C78.918 222.703 80.1562 223.039 81.2266 223.711C82.3047 224.375 83.1367 225.336 83.7227 226.594C84.3086 227.844 84.6055 229.301 84.6133 230.965V231.914ZM81.6367 231.023C81.6367 229.102 81.2773 227.645 80.5586 226.652C79.8398 225.66 78.8242 225.164 77.5117 225.164C76.2383 225.164 75.2383 225.668 74.5117 226.676C73.793 227.676 73.4258 229.09 73.4102 230.918V231.914C73.4102 233.758 73.7695 235.199 74.4883 236.238C75.2148 237.277 76.2305 237.797 77.5352 237.797C78.8555 237.797 79.8672 237.297 80.5703 236.297C81.2812 235.297 81.6367 233.836 81.6367 231.914V231.023ZM98.4883 236.074L100.504 227.32H103.281L99.8242 240H97.4805L94.7617 231.293L92.0898 240H89.7461L86.2773 227.32H89.0547L91.1055 235.98L93.707 227.32H95.8516L98.4883 236.074ZM110.77 240.234C108.965 240.234 107.5 239.668 106.375 238.535C105.258 237.395 104.699 235.879 104.699 233.988V233.637C104.699 232.371 104.941 231.242 105.426 230.25C105.918 229.25 106.605 228.473 107.488 227.918C108.371 227.363 109.355 227.086 110.441 227.086C112.168 227.086 113.5 227.637 114.438 228.738C115.383 229.84 115.855 231.398 115.855 233.414V234.562H107.57C107.656 235.609 108.004 236.438 108.613 237.047C109.23 237.656 110.004 237.961 110.934 237.961C112.238 237.961 113.301 237.434 114.121 236.379L115.656 237.844C115.148 238.602 114.469 239.191 113.617 239.613C112.773 240.027 111.824 240.234 110.77 240.234ZM110.43 229.371C109.648 229.371 109.016 229.645 108.531 230.191C108.055 230.738 107.75 231.5 107.617 232.477H113.043V232.266C112.98 231.312 112.727 230.594 112.281 230.109C111.836 229.617 111.219 229.371 110.43 229.371ZM124.715 229.922C124.34 229.859 123.953 229.828 123.555 229.828C122.25 229.828 121.371 230.328 120.918 231.328V240H118.07V227.32H120.789L120.859 228.738C121.547 227.637 122.5 227.086 123.719 227.086C124.125 227.086 124.461 227.141 124.727 227.25L124.715 229.922ZM130.668 224.238V227.32H132.906V229.43H130.668V236.508C130.668 236.992 130.762 237.344 130.949 237.562C131.145 237.773 131.488 237.879 131.98 237.879C132.309 237.879 132.641 237.84 132.977 237.762V239.965C132.328 240.145 131.703 240.234 131.102 240.234C128.914 240.234 127.82 239.027 127.82 236.613V229.43H125.734V227.32H127.82V224.238H130.668ZM139.527 235.922L142.105 227.32H145.141L140.102 241.922C139.328 244.055 138.016 245.121 136.164 245.121C135.75 245.121 135.293 245.051 134.793 244.91V242.707L135.332 242.742C136.051 242.742 136.59 242.609 136.949 242.344C137.316 242.086 137.605 241.648 137.816 241.031L138.227 239.941L133.773 227.32H136.844L139.527 235.922Z" fill="black"/>
<path d="M55.75 285H44.2773V283.043L49.9609 276.844C50.7812 275.93 51.3633 275.168 51.707 274.559C52.0586 273.941 52.2344 273.324 52.2344 272.707C52.2344 271.895 52.0039 271.238 51.543 270.738C51.0898 270.238 50.4766 269.988 49.7031 269.988C48.7812 269.988 48.0664 270.27 47.5586 270.832C47.0508 271.395 46.7969 272.164 46.7969 273.141H43.9492C43.9492 272.102 44.1836 271.168 44.6523 270.34C45.1289 269.504 45.8047 268.855 46.6797 268.395C47.5625 267.934 48.5781 267.703 49.7266 267.703C51.3828 267.703 52.6875 268.121 53.6406 268.957C54.6016 269.785 55.082 270.934 55.082 272.402C55.082 273.254 54.8398 274.148 54.3555 275.086C53.8789 276.016 53.0938 277.074 52 278.262L47.8281 282.727H55.75V285ZM59.875 282C60.4062 282 60.8164 282.152 61.1055 282.457C61.3945 282.754 61.5391 283.129 61.5391 283.582C61.5391 284.027 61.3945 284.398 61.1055 284.695C60.8164 284.984 60.4062 285.129 59.875 285.129C59.3672 285.129 58.9648 284.984 58.668 284.695C58.3711 284.406 58.2227 284.035 58.2227 283.582C58.2227 283.129 58.3672 282.754 58.6562 282.457C58.9453 282.152 59.3516 282 59.875 282ZM78.0391 267.938H80.9922V279.902C80.9922 281.535 80.4805 282.832 79.457 283.793C78.4414 284.754 77.0977 285.234 75.4258 285.234C73.6445 285.234 72.2695 284.785 71.3008 283.887C70.332 282.988 69.8477 281.738 69.8477 280.137H72.8008C72.8008 281.043 73.0234 281.727 73.4688 282.188C73.9219 282.641 74.5742 282.867 75.4258 282.867C76.2227 282.867 76.8555 282.605 77.3242 282.082C77.8008 281.551 78.0391 280.82 78.0391 279.891V267.938ZM91.7969 283.758C90.9609 284.742 89.7734 285.234 88.2344 285.234C86.8594 285.234 85.8164 284.832 85.1055 284.027C84.4023 283.223 84.0508 282.059 84.0508 280.535V272.32H86.8984V280.5C86.8984 282.109 87.5664 282.914 88.9023 282.914C90.2852 282.914 91.2188 282.418 91.7031 281.426V272.32H94.5508V285H91.8672L91.7969 283.758ZM105.027 285C104.902 284.758 104.793 284.363 104.699 283.816C103.793 284.762 102.684 285.234 101.371 285.234C100.098 285.234 99.0586 284.871 98.2539 284.145C97.4492 283.418 97.0469 282.52 97.0469 281.449C97.0469 280.098 97.5469 279.062 98.5469 278.344C99.5547 277.617 100.992 277.254 102.859 277.254H104.605V276.422C104.605 275.766 104.422 275.242 104.055 274.852C103.688 274.453 103.129 274.254 102.379 274.254C101.73 274.254 101.199 274.418 100.785 274.746C100.371 275.066 100.164 275.477 100.164 275.977H97.3164C97.3164 275.281 97.5469 274.633 98.0078 274.031C98.4688 273.422 99.0938 272.945 99.8828 272.602C100.68 272.258 101.566 272.086 102.543 272.086C104.027 272.086 105.211 272.461 106.094 273.211C106.977 273.953 107.43 275 107.453 276.352V282.07C107.453 283.211 107.613 284.121 107.934 284.801V285H105.027ZM101.898 282.949C102.461 282.949 102.988 282.812 103.48 282.539C103.98 282.266 104.355 281.898 104.605 281.438V279.047H103.07C102.016 279.047 101.223 279.23 100.691 279.598C100.16 279.965 99.8945 280.484 99.8945 281.156C99.8945 281.703 100.074 282.141 100.434 282.469C100.801 282.789 101.289 282.949 101.898 282.949ZM113.078 272.32L113.16 273.785C114.098 272.652 115.328 272.086 116.852 272.086C119.492 272.086 120.836 273.598 120.883 276.621V285H118.035V276.785C118.035 275.98 117.859 275.387 117.508 275.004C117.164 274.613 116.598 274.418 115.809 274.418C114.66 274.418 113.805 274.938 113.242 275.977V285H110.395V272.32H113.078Z" fill="black"/>
<path d="M47.5703 312.168H49.3047C50.1797 312.16 50.8711 311.934 51.3789 311.488C51.8945 311.043 52.1523 310.398 52.1523 309.555C52.1523 308.742 51.9375 308.113 51.5078 307.668C51.0859 307.215 50.4375 306.988 49.5625 306.988C48.7969 306.988 48.168 307.211 47.6758 307.656C47.1836 308.094 46.9375 308.668 46.9375 309.379H44.0898C44.0898 308.504 44.3203 307.707 44.7812 306.988C45.25 306.27 45.8984 305.711 46.7266 305.312C47.5625 304.906 48.4961 304.703 49.5273 304.703C51.2305 304.703 52.5664 305.133 53.5352 305.992C54.5117 306.844 55 308.031 55 309.555C55 310.32 54.7539 311.043 54.2617 311.723C53.7773 312.395 53.1484 312.902 52.375 313.246C53.3125 313.566 54.0234 314.07 54.5078 314.758C55 315.445 55.2461 316.266 55.2461 317.219C55.2461 318.75 54.7188 319.969 53.6641 320.875C52.6172 321.781 51.2383 322.234 49.5273 322.234C47.8867 322.234 46.543 321.797 45.4961 320.922C44.4492 320.047 43.9258 318.883 43.9258 317.43H46.7734C46.7734 318.18 47.0234 318.789 47.5234 319.258C48.0312 319.727 48.7109 319.961 49.5625 319.961C50.4453 319.961 51.1406 319.727 51.6484 319.258C52.1562 318.789 52.4102 318.109 52.4102 317.219C52.4102 316.32 52.1445 315.629 51.6133 315.145C51.082 314.66 50.293 314.418 49.2461 314.418H47.5703V312.168ZM59.875 319C60.4062 319 60.8164 319.152 61.1055 319.457C61.3945 319.754 61.5391 320.129 61.5391 320.582C61.5391 321.027 61.3945 321.398 61.1055 321.695C60.8164 321.984 60.4062 322.129 59.875 322.129C59.3672 322.129 58.9648 321.984 58.668 321.695C58.3711 321.406 58.2227 321.035 58.2227 320.582C58.2227 320.129 58.3672 319.754 58.6562 319.457C58.9453 319.152 59.3516 319 59.875 319ZM71.0547 322V304.938H76.9023C78.832 304.938 80.3008 305.324 81.3086 306.098C82.3164 306.871 82.8203 308.023 82.8203 309.555C82.8203 310.336 82.6094 311.039 82.1875 311.664C81.7656 312.289 81.1484 312.773 80.3359 313.117C81.2578 313.367 81.9688 313.84 82.4688 314.535C82.9766 315.223 83.2305 316.051 83.2305 317.02C83.2305 318.621 82.7148 319.852 81.6836 320.711C80.6602 321.57 79.1914 322 77.2773 322H71.0547ZM74.0195 314.301V319.633H77.3125C78.2422 319.633 78.9688 319.402 79.4922 318.941C80.0156 318.48 80.2773 317.84 80.2773 317.02C80.2773 315.246 79.3711 314.34 77.5586 314.301H74.0195ZM74.0195 312.121H76.9258C77.8477 312.121 78.5664 311.914 79.082 311.5C79.6055 311.078 79.8672 310.484 79.8672 309.719C79.8672 308.875 79.625 308.266 79.1406 307.891C78.6641 307.516 77.918 307.328 76.9023 307.328H74.0195V312.121ZM92.5586 311.922C92.1836 311.859 91.7969 311.828 91.3984 311.828C90.0938 311.828 89.2148 312.328 88.7617 313.328V322H85.9141V309.32H88.6328L88.7031 310.738C89.3906 309.637 90.3438 309.086 91.5625 309.086C91.9688 309.086 92.3047 309.141 92.5703 309.25L92.5586 311.922ZM101.582 322C101.457 321.758 101.348 321.363 101.254 320.816C100.348 321.762 99.2383 322.234 97.9258 322.234C96.6523 322.234 95.6133 321.871 94.8086 321.145C94.0039 320.418 93.6016 319.52 93.6016 318.449C93.6016 317.098 94.1016 316.062 95.1016 315.344C96.1094 314.617 97.5469 314.254 99.4141 314.254H101.16V313.422C101.16 312.766 100.977 312.242 100.609 311.852C100.242 311.453 99.6836 311.254 98.9336 311.254C98.2852 311.254 97.7539 311.418 97.3398 311.746C96.9258 312.066 96.7188 312.477 96.7188 312.977H93.8711C93.8711 312.281 94.1016 311.633 94.5625 311.031C95.0234 310.422 95.6484 309.945 96.4375 309.602C97.2344 309.258 98.1211 309.086 99.0977 309.086C100.582 309.086 101.766 309.461 102.648 310.211C103.531 310.953 103.984 312 104.008 313.352V319.07C104.008 320.211 104.168 321.121 104.488 321.801V322H101.582ZM98.4531 319.949C99.0156 319.949 99.543 319.812 100.035 319.539C100.535 319.266 100.91 318.898 101.16 318.438V316.047H99.625C98.5703 316.047 97.7773 316.23 97.2461 316.598C96.7148 316.965 96.4492 317.484 96.4492 318.156C96.4492 318.703 96.6289 319.141 96.9883 319.469C97.3555 319.789 97.8438 319.949 98.4531 319.949ZM109.633 309.32L109.715 310.785C110.652 309.652 111.883 309.086 113.406 309.086C116.047 309.086 117.391 310.598 117.438 313.621V322H114.59V313.785C114.59 312.98 114.414 312.387 114.062 312.004C113.719 311.613 113.152 311.418 112.363 311.418C111.215 311.418 110.359 311.938 109.797 312.977V322H106.949V309.32H109.633ZM119.816 315.566C119.816 313.613 120.27 312.047 121.176 310.867C122.082 309.68 123.297 309.086 124.82 309.086C126.164 309.086 127.25 309.555 128.078 310.492V304H130.926V322H128.348L128.207 320.688C127.355 321.719 126.219 322.234 124.797 322.234C123.312 322.234 122.109 321.637 121.188 320.441C120.273 319.246 119.816 317.621 119.816 315.566ZM122.664 315.812C122.664 317.102 122.91 318.109 123.402 318.836C123.902 319.555 124.609 319.914 125.523 319.914C126.688 319.914 127.539 319.395 128.078 318.355V312.941C127.555 311.926 126.711 311.418 125.547 311.418C124.625 311.418 123.914 311.785 123.414 312.52C122.914 313.246 122.664 314.344 122.664 315.812ZM133.363 315.543C133.363 314.301 133.609 313.184 134.102 312.191C134.594 311.191 135.285 310.426 136.176 309.895C137.066 309.355 138.09 309.086 139.246 309.086C140.957 309.086 142.344 309.637 143.406 310.738C144.477 311.84 145.055 313.301 145.141 315.121L145.152 315.789C145.152 317.039 144.91 318.156 144.426 319.141C143.949 320.125 143.262 320.887 142.363 321.426C141.473 321.965 140.441 322.234 139.27 322.234C137.48 322.234 136.047 321.641 134.969 320.453C133.898 319.258 133.363 317.668 133.363 315.684V315.543ZM136.211 315.789C136.211 317.094 136.48 318.117 137.02 318.859C137.559 319.594 138.309 319.961 139.27 319.961C140.23 319.961 140.977 319.586 141.508 318.836C142.047 318.086 142.316 316.988 142.316 315.543C142.316 314.262 142.039 313.246 141.484 312.496C140.938 311.746 140.191 311.371 139.246 311.371C138.316 311.371 137.578 311.742 137.031 312.484C136.484 313.219 136.211 314.32 136.211 315.789ZM150.203 309.32L150.285 310.785C151.223 309.652 152.453 309.086 153.977 309.086C156.617 309.086 157.961 310.598 158.008 313.621V322H155.16V313.785C155.16 312.98 154.984 312.387 154.633 312.004C154.289 311.613 153.723 311.418 152.934 311.418C151.785 311.418 150.93 311.938 150.367 312.977V322H147.52V309.32H150.203ZM178.797 307.328H173.477V322H170.535V307.328H165.262V304.938H178.797V307.328ZM177.801 315.543C177.801 314.301 178.047 313.184 178.539 312.191C179.031 311.191 179.723 310.426 180.613 309.895C181.504 309.355 182.527 309.086 183.684 309.086C185.395 309.086 186.781 309.637 187.844 310.738C188.914 311.84 189.492 313.301 189.578 315.121L189.59 315.789C189.59 317.039 189.348 318.156 188.863 319.141C188.387 320.125 187.699 320.887 186.801 321.426C185.91 321.965 184.879 322.234 183.707 322.234C181.918 322.234 180.484 321.641 179.406 320.453C178.336 319.258 177.801 317.668 177.801 315.684V315.543ZM180.648 315.789C180.648 317.094 180.918 318.117 181.457 318.859C181.996 319.594 182.746 319.961 183.707 319.961C184.668 319.961 185.414 319.586 185.945 318.836C186.484 318.086 186.754 316.988 186.754 315.543C186.754 314.262 186.477 313.246 185.922 312.496C185.375 311.746 184.629 311.371 183.684 311.371C182.754 311.371 182.016 311.742 181.469 312.484C180.922 313.219 180.648 314.32 180.648 315.789ZM198.637 311.922C198.262 311.859 197.875 311.828 197.477 311.828C196.172 311.828 195.293 312.328 194.84 313.328V322H191.992V309.32H194.711L194.781 310.738C195.469 309.637 196.422 309.086 197.641 309.086C198.047 309.086 198.383 309.141 198.648 309.25L198.637 311.922ZM208.117 320.758C207.281 321.742 206.094 322.234 204.555 322.234C203.18 322.234 202.137 321.832 201.426 321.027C200.723 320.223 200.371 319.059 200.371 317.535V309.32H203.219V317.5C203.219 319.109 203.887 319.914 205.223 319.914C206.605 319.914 207.539 319.418 208.023 318.426V309.32H210.871V322H208.188L208.117 320.758ZM216.414 309.32L216.496 310.785C217.434 309.652 218.664 309.086 220.188 309.086C222.828 309.086 224.172 310.598 224.219 313.621V322H221.371V313.785C221.371 312.98 221.195 312.387 220.844 312.004C220.5 311.613 219.934 311.418 219.145 311.418C217.996 311.418 217.141 311.938 216.578 312.977V322H213.73V309.32H216.414ZM223.328 304.258C223.328 305.117 223.078 305.832 222.578 306.402C222.086 306.973 221.465 307.258 220.715 307.258C220.41 307.258 220.145 307.227 219.918 307.164C219.699 307.094 219.383 306.941 218.969 306.707C218.562 306.473 218.273 306.332 218.102 306.285C217.938 306.238 217.754 306.215 217.551 306.215C217.254 306.215 217 306.328 216.789 306.555C216.586 306.773 216.484 307.062 216.484 307.422L214.738 307.328C214.738 306.469 214.984 305.746 215.477 305.16C215.977 304.574 216.598 304.281 217.34 304.281C217.785 304.281 218.32 304.457 218.945 304.809C219.578 305.16 220.098 305.336 220.504 305.336C220.801 305.336 221.055 305.227 221.266 305.008C221.477 304.781 221.582 304.484 221.582 304.117L223.328 304.258ZM226.598 315.543C226.598 314.301 226.844 313.184 227.336 312.191C227.828 311.191 228.52 310.426 229.41 309.895C230.301 309.355 231.324 309.086 232.48 309.086C234.191 309.086 235.578 309.637 236.641 310.738C237.711 311.84 238.289 313.301 238.375 315.121L238.387 315.789C238.387 317.039 238.145 318.156 237.66 319.141C237.184 320.125 236.496 320.887 235.598 321.426C234.707 321.965 233.676 322.234 232.504 322.234C230.715 322.234 229.281 321.641 228.203 320.453C227.133 319.258 226.598 317.668 226.598 315.684V315.543ZM229.445 315.789C229.445 317.094 229.715 318.117 230.254 318.859C230.793 319.594 231.543 319.961 232.504 319.961C233.465 319.961 234.211 319.586 234.742 318.836C235.281 318.086 235.551 316.988 235.551 315.543C235.551 314.262 235.273 313.246 234.719 312.496C234.172 311.746 233.426 311.371 232.48 311.371C231.551 311.371 230.812 311.742 230.266 312.484C229.719 313.219 229.445 314.32 229.445 315.789Z" fill="black"/>
<rect x="35.5" y="514.5" width="160" height="50" rx="13.5" fill="#10B6AC" stroke="black"/>
<path d="M73.1094 541.488C72.9336 542.992 72.377 544.154 71.4395 544.975C70.5085 545.788 69.2682 546.195 67.7188 546.195C66.0391 546.195 64.6914 545.593 63.6758 544.389C62.6667 543.184 62.1621 541.573 62.1621 539.555V538.188C62.1621 536.866 62.3965 535.704 62.8652 534.701C63.3405 533.699 64.0111 532.93 64.877 532.396C65.7428 531.856 66.7454 531.586 67.8848 531.586C69.3952 531.586 70.6061 532.009 71.5176 532.855C72.429 533.695 72.9596 534.861 73.1094 536.352H71.2246C71.0618 535.219 70.707 534.398 70.1602 533.891C69.6198 533.383 68.8613 533.129 67.8848 533.129C66.6868 533.129 65.7461 533.572 65.0625 534.457C64.3854 535.342 64.0469 536.602 64.0469 538.236V539.613C64.0469 541.156 64.3691 542.383 65.0137 543.295C65.6582 544.206 66.5599 544.662 67.7188 544.662C68.7604 544.662 69.5579 544.428 70.1113 543.959C70.6712 543.484 71.0423 542.66 71.2246 541.488H73.1094ZM80.502 537.055C80.2285 537.009 79.9323 536.986 79.6133 536.986C78.4284 536.986 77.6243 537.491 77.2012 538.5V546H75.3945V535.434H77.1523L77.1816 536.654C77.7741 535.71 78.6139 535.238 79.7012 535.238C80.0527 535.238 80.3197 535.284 80.502 535.375V537.055ZM86.3613 546.195C84.929 546.195 83.7637 545.727 82.8652 544.789C81.9668 543.845 81.5176 542.585 81.5176 541.01V540.678C81.5176 539.63 81.7161 538.695 82.1133 537.875C82.5169 537.048 83.0768 536.404 83.793 535.941C84.5156 535.473 85.2969 535.238 86.1367 535.238C87.5104 535.238 88.5781 535.691 89.3398 536.596C90.1016 537.501 90.4824 538.796 90.4824 540.482V541.234H83.3242C83.3503 542.276 83.653 543.119 84.2324 543.764C84.8184 544.402 85.5605 544.721 86.459 544.721C87.097 544.721 87.6374 544.59 88.0801 544.33C88.5228 544.07 88.9102 543.725 89.2422 543.295L90.3457 544.154C89.4603 545.515 88.1322 546.195 86.3613 546.195ZM86.1367 536.723C85.4076 536.723 84.7956 536.99 84.3008 537.523C83.806 538.051 83.5 538.793 83.3828 539.75H88.6758V539.613C88.6237 538.695 88.3763 537.986 87.9336 537.484C87.4909 536.977 86.8919 536.723 86.1367 536.723ZM99.1055 546C99.0013 545.792 98.9167 545.421 98.8516 544.887C98.0117 545.759 97.0091 546.195 95.8438 546.195C94.8021 546.195 93.946 545.902 93.2754 545.316C92.6113 544.724 92.2793 543.975 92.2793 543.07C92.2793 541.97 92.696 541.117 93.5293 540.512C94.3691 539.9 95.5475 539.594 97.0645 539.594H98.8223V538.764C98.8223 538.132 98.6335 537.631 98.2559 537.26C97.8783 536.882 97.3216 536.693 96.5859 536.693C95.9414 536.693 95.401 536.856 94.9648 537.182C94.5286 537.507 94.3105 537.901 94.3105 538.363H92.4941C92.4941 537.836 92.6797 537.328 93.0508 536.84C93.4284 536.345 93.9362 535.954 94.5742 535.668C95.2188 535.382 95.9251 535.238 96.6934 535.238C97.9108 535.238 98.8646 535.544 99.5547 536.156C100.245 536.762 100.603 537.598 100.629 538.666V543.529C100.629 544.499 100.753 545.271 101 545.844V546H99.1055ZM96.1074 544.623C96.6738 544.623 97.2109 544.477 97.7188 544.184C98.2266 543.891 98.5944 543.51 98.8223 543.041V540.873H97.4062C95.1927 540.873 94.0859 541.521 94.0859 542.816C94.0859 543.383 94.2747 543.826 94.6523 544.145C95.0299 544.464 95.515 544.623 96.1074 544.623ZM108.568 537.055C108.295 537.009 107.999 536.986 107.68 536.986C106.495 536.986 105.691 537.491 105.268 538.5V546H103.461V535.434H105.219L105.248 536.654C105.84 535.71 106.68 535.238 107.768 535.238C108.119 535.238 108.386 535.284 108.568 535.375V537.055ZM121.439 531.781H123.324V541.85C123.324 543.21 122.914 544.275 122.094 545.043C121.28 545.811 120.193 546.195 118.832 546.195C117.419 546.195 116.319 545.834 115.531 545.111C114.743 544.389 114.35 543.376 114.35 542.074H116.225C116.225 542.888 116.446 543.523 116.889 543.979C117.338 544.434 117.986 544.662 118.832 544.662C119.607 544.662 120.232 544.418 120.707 543.93C121.189 543.441 121.433 542.758 121.439 541.879V531.781ZM132.758 544.955C132.055 545.782 131.023 546.195 129.662 546.195C128.536 546.195 127.676 545.87 127.084 545.219C126.498 544.561 126.202 543.591 126.195 542.309V535.434H128.002V542.26C128.002 543.861 128.653 544.662 129.955 544.662C131.335 544.662 132.253 544.148 132.709 543.119V535.434H134.516V546H132.797L132.758 544.955ZM141.654 546.195C140.222 546.195 139.057 545.727 138.158 544.789C137.26 543.845 136.811 542.585 136.811 541.01V540.678C136.811 539.63 137.009 538.695 137.406 537.875C137.81 537.048 138.37 536.404 139.086 535.941C139.809 535.473 140.59 535.238 141.43 535.238C142.803 535.238 143.871 535.691 144.633 536.596C145.395 537.501 145.775 538.796 145.775 540.482V541.234H138.617C138.643 542.276 138.946 543.119 139.525 543.764C140.111 544.402 140.854 544.721 141.752 544.721C142.39 544.721 142.93 544.59 143.373 544.33C143.816 544.07 144.203 543.725 144.535 543.295L145.639 544.154C144.753 545.515 143.425 546.195 141.654 546.195ZM141.43 536.723C140.701 536.723 140.089 536.99 139.594 537.523C139.099 538.051 138.793 538.793 138.676 539.75H143.969V539.613C143.917 538.695 143.669 537.986 143.227 537.484C142.784 536.977 142.185 536.723 141.43 536.723ZM147.445 540.629C147.445 538.982 147.826 537.673 148.588 536.703C149.35 535.727 150.359 535.238 151.615 535.238C152.904 535.238 153.91 535.694 154.633 536.605L154.721 535.434H156.371V545.746C156.371 547.113 155.964 548.191 155.15 548.979C154.343 549.766 153.256 550.16 151.889 550.16C151.127 550.16 150.382 549.997 149.652 549.672C148.923 549.346 148.367 548.9 147.982 548.334L148.92 547.25C149.695 548.207 150.642 548.686 151.762 548.686C152.641 548.686 153.324 548.438 153.812 547.943C154.307 547.449 154.555 546.752 154.555 545.854V544.945C153.832 545.779 152.846 546.195 151.596 546.195C150.359 546.195 149.356 545.697 148.588 544.701C147.826 543.705 147.445 542.348 147.445 540.629ZM149.262 540.834C149.262 542.025 149.506 542.963 149.994 543.646C150.482 544.324 151.166 544.662 152.045 544.662C153.184 544.662 154.021 544.145 154.555 543.109V538.285C154.001 537.276 153.171 536.771 152.064 536.771C151.186 536.771 150.499 537.113 150.004 537.797C149.509 538.48 149.262 539.493 149.262 540.834ZM158.627 540.619C158.627 539.584 158.829 538.653 159.232 537.826C159.643 536.999 160.209 536.361 160.932 535.912C161.661 535.463 162.491 535.238 163.422 535.238C164.861 535.238 166.023 535.736 166.908 536.732C167.8 537.729 168.246 539.053 168.246 540.707V540.834C168.246 541.863 168.048 542.787 167.65 543.607C167.26 544.421 166.697 545.056 165.961 545.512C165.232 545.967 164.392 546.195 163.441 546.195C162.009 546.195 160.847 545.697 159.955 544.701C159.07 543.705 158.627 542.387 158.627 540.746V540.619ZM160.443 540.834C160.443 542.006 160.714 542.947 161.254 543.656C161.801 544.366 162.53 544.721 163.441 544.721C164.359 544.721 165.089 544.363 165.629 543.646C166.169 542.924 166.439 541.915 166.439 540.619C166.439 539.46 166.163 538.523 165.609 537.807C165.062 537.084 164.333 536.723 163.422 536.723C162.53 536.723 161.811 537.077 161.264 537.787C160.717 538.497 160.443 539.512 160.443 540.834Z" fill="black"/>
<rect x="250.5" y="514.5" width="160" height="50" rx="13.5" fill="white" stroke="black"/>
<path d="M264.65 545V530.781H269.299C270.842 530.781 272.001 531.1 272.775 531.738C273.557 532.376 273.947 533.32 273.947 534.57C273.947 535.234 273.758 535.824 273.381 536.338C273.003 536.846 272.489 537.24 271.838 537.52C272.606 537.734 273.212 538.145 273.654 538.75C274.104 539.349 274.328 540.065 274.328 540.898C274.328 542.174 273.915 543.177 273.088 543.906C272.261 544.635 271.092 545 269.582 545H264.65ZM266.525 538.35V543.467H269.621C270.493 543.467 271.18 543.242 271.682 542.793C272.189 542.337 272.443 541.712 272.443 540.918C272.443 539.206 271.512 538.35 269.65 538.35H266.525ZM266.525 536.846H269.357C270.178 536.846 270.832 536.641 271.32 536.23C271.815 535.82 272.062 535.264 272.062 534.561C272.062 533.779 271.835 533.213 271.379 532.861C270.923 532.503 270.23 532.324 269.299 532.324H266.525V536.846ZM283.352 543.955C282.648 544.782 281.617 545.195 280.256 545.195C279.13 545.195 278.27 544.87 277.678 544.219C277.092 543.561 276.796 542.591 276.789 541.309V534.434H278.596V541.26C278.596 542.861 279.247 543.662 280.549 543.662C281.929 543.662 282.847 543.148 283.303 542.119V534.434H285.109V545H283.391L283.352 543.955ZM294.016 542.197C294.016 541.709 293.83 541.331 293.459 541.064C293.094 540.791 292.453 540.557 291.535 540.361C290.624 540.166 289.898 539.932 289.357 539.658C288.824 539.385 288.426 539.059 288.166 538.682C287.912 538.304 287.785 537.855 287.785 537.334C287.785 536.468 288.15 535.736 288.879 535.137C289.615 534.538 290.552 534.238 291.691 534.238C292.889 534.238 293.859 534.548 294.602 535.166C295.35 535.785 295.725 536.576 295.725 537.539H293.908C293.908 537.044 293.697 536.618 293.273 536.26C292.857 535.902 292.329 535.723 291.691 535.723C291.034 535.723 290.52 535.866 290.148 536.152C289.777 536.439 289.592 536.813 289.592 537.275C289.592 537.712 289.764 538.04 290.109 538.262C290.454 538.483 291.076 538.695 291.975 538.896C292.88 539.098 293.612 539.339 294.172 539.619C294.732 539.899 295.145 540.238 295.412 540.635C295.686 541.025 295.822 541.504 295.822 542.07C295.822 543.014 295.445 543.773 294.689 544.346C293.934 544.912 292.954 545.195 291.75 545.195C290.904 545.195 290.155 545.046 289.504 544.746C288.853 544.447 288.342 544.03 287.971 543.496C287.606 542.956 287.424 542.373 287.424 541.748H289.23C289.263 542.354 289.504 542.835 289.953 543.193C290.409 543.545 291.008 543.721 291.75 543.721C292.434 543.721 292.98 543.584 293.391 543.311C293.807 543.031 294.016 542.66 294.016 542.197ZM302.414 543.721C303.059 543.721 303.622 543.525 304.104 543.135C304.585 542.744 304.852 542.256 304.904 541.67H306.613C306.581 542.275 306.372 542.852 305.988 543.398C305.604 543.945 305.09 544.382 304.445 544.707C303.807 545.033 303.13 545.195 302.414 545.195C300.975 545.195 299.829 544.717 298.977 543.76C298.13 542.796 297.707 541.481 297.707 539.814V539.512C297.707 538.483 297.896 537.568 298.273 536.768C298.651 535.967 299.191 535.345 299.895 534.902C300.604 534.46 301.441 534.238 302.404 534.238C303.589 534.238 304.572 534.593 305.354 535.303C306.141 536.012 306.561 536.934 306.613 538.066H304.904C304.852 537.383 304.592 536.823 304.123 536.387C303.661 535.944 303.088 535.723 302.404 535.723C301.486 535.723 300.773 536.055 300.266 536.719C299.764 537.376 299.514 538.33 299.514 539.58V539.922C299.514 541.139 299.764 542.077 300.266 542.734C300.767 543.392 301.483 543.721 302.414 543.721ZM315.168 545C315.064 544.792 314.979 544.421 314.914 543.887C314.074 544.759 313.072 545.195 311.906 545.195C310.865 545.195 310.008 544.902 309.338 544.316C308.674 543.724 308.342 542.975 308.342 542.07C308.342 540.97 308.758 540.117 309.592 539.512C310.432 538.9 311.61 538.594 313.127 538.594H314.885V537.764C314.885 537.132 314.696 536.631 314.318 536.26C313.941 535.882 313.384 535.693 312.648 535.693C312.004 535.693 311.464 535.856 311.027 536.182C310.591 536.507 310.373 536.901 310.373 537.363H308.557C308.557 536.836 308.742 536.328 309.113 535.84C309.491 535.345 309.999 534.954 310.637 534.668C311.281 534.382 311.988 534.238 312.756 534.238C313.973 534.238 314.927 534.544 315.617 535.156C316.307 535.762 316.665 536.598 316.691 537.666V542.529C316.691 543.499 316.815 544.271 317.062 544.844V545H315.168ZM312.17 543.623C312.736 543.623 313.273 543.477 313.781 543.184C314.289 542.891 314.657 542.51 314.885 542.041V539.873H313.469C311.255 539.873 310.148 540.521 310.148 541.816C310.148 542.383 310.337 542.826 310.715 543.145C311.092 543.464 311.577 543.623 312.17 543.623ZM324.631 536.055C324.357 536.009 324.061 535.986 323.742 535.986C322.557 535.986 321.753 536.491 321.33 537.5V545H319.523V534.434H321.281L321.311 535.654C321.903 534.71 322.743 534.238 323.83 534.238C324.182 534.238 324.449 534.284 324.631 534.375V536.055ZM337.502 530.781H339.387V540.85C339.387 542.21 338.977 543.275 338.156 544.043C337.342 544.811 336.255 545.195 334.895 545.195C333.482 545.195 332.382 544.834 331.594 544.111C330.806 543.389 330.412 542.376 330.412 541.074H332.287C332.287 541.888 332.508 542.523 332.951 542.979C333.4 543.434 334.048 543.662 334.895 543.662C335.669 543.662 336.294 543.418 336.77 542.93C337.251 542.441 337.495 541.758 337.502 540.879V530.781ZM348.82 543.955C348.117 544.782 347.085 545.195 345.725 545.195C344.598 545.195 343.739 544.87 343.146 544.219C342.561 543.561 342.264 542.591 342.258 541.309V534.434H344.064V541.26C344.064 542.861 344.715 543.662 346.018 543.662C347.398 543.662 348.316 543.148 348.771 542.119V534.434H350.578V545H348.859L348.82 543.955ZM357.717 545.195C356.285 545.195 355.119 544.727 354.221 543.789C353.322 542.845 352.873 541.585 352.873 540.01V539.678C352.873 538.63 353.072 537.695 353.469 536.875C353.872 536.048 354.432 535.404 355.148 534.941C355.871 534.473 356.652 534.238 357.492 534.238C358.866 534.238 359.934 534.691 360.695 535.596C361.457 536.501 361.838 537.796 361.838 539.482V540.234H354.68C354.706 541.276 355.008 542.119 355.588 542.764C356.174 543.402 356.916 543.721 357.814 543.721C358.452 543.721 358.993 543.59 359.436 543.33C359.878 543.07 360.266 542.725 360.598 542.295L361.701 543.154C360.816 544.515 359.488 545.195 357.717 545.195ZM357.492 535.723C356.763 535.723 356.151 535.99 355.656 536.523C355.161 537.051 354.855 537.793 354.738 538.75H360.031V538.613C359.979 537.695 359.732 536.986 359.289 536.484C358.846 535.977 358.247 535.723 357.492 535.723ZM363.508 539.629C363.508 537.982 363.889 536.673 364.65 535.703C365.412 534.727 366.421 534.238 367.678 534.238C368.967 534.238 369.973 534.694 370.695 535.605L370.783 534.434H372.434V544.746C372.434 546.113 372.027 547.191 371.213 547.979C370.406 548.766 369.318 549.16 367.951 549.16C367.189 549.16 366.444 548.997 365.715 548.672C364.986 548.346 364.429 547.9 364.045 547.334L364.982 546.25C365.757 547.207 366.704 547.686 367.824 547.686C368.703 547.686 369.387 547.438 369.875 546.943C370.37 546.449 370.617 545.752 370.617 544.854V543.945C369.895 544.779 368.908 545.195 367.658 545.195C366.421 545.195 365.419 544.697 364.65 543.701C363.889 542.705 363.508 541.348 363.508 539.629ZM365.324 539.834C365.324 541.025 365.568 541.963 366.057 542.646C366.545 543.324 367.229 543.662 368.107 543.662C369.247 543.662 370.083 543.145 370.617 542.109V537.285C370.064 536.276 369.234 535.771 368.127 535.771C367.248 535.771 366.561 536.113 366.066 536.797C365.572 537.48 365.324 538.493 365.324 539.834ZM374.689 539.619C374.689 538.584 374.891 537.653 375.295 536.826C375.705 535.999 376.271 535.361 376.994 534.912C377.723 534.463 378.553 534.238 379.484 534.238C380.923 534.238 382.085 534.736 382.971 535.732C383.863 536.729 384.309 538.053 384.309 539.707V539.834C384.309 540.863 384.11 541.787 383.713 542.607C383.322 543.421 382.759 544.056 382.023 544.512C381.294 544.967 380.454 545.195 379.504 545.195C378.072 545.195 376.91 544.697 376.018 543.701C375.132 542.705 374.689 541.387 374.689 539.746V539.619ZM376.506 539.834C376.506 541.006 376.776 541.947 377.316 542.656C377.863 543.366 378.592 543.721 379.504 543.721C380.422 543.721 381.151 543.363 381.691 542.646C382.232 541.924 382.502 540.915 382.502 539.619C382.502 538.46 382.225 537.523 381.672 536.807C381.125 536.084 380.396 535.723 379.484 535.723C378.592 535.723 377.873 536.077 377.326 536.787C376.779 537.497 376.506 538.512 376.506 539.834Z" fill="black"/>
<path d="M0 82H485V152H0V82Z" fill="#EBFFFE"/>
<path d="M33.8633 120H30.9102V102.938H33.8633V120ZM39.875 107.32L39.957 108.785C40.8945 107.652 42.125 107.086 43.6484 107.086C46.2891 107.086 47.6328 108.598 47.6797 111.621V120H44.832V111.785C44.832 110.98 44.6562 110.387 44.3047 110.004C43.9609 109.613 43.3945 109.418 42.6055 109.418C41.457 109.418 40.6016 109.938 40.0391 110.977V120H37.1914V107.32H39.875ZM53.6211 120H50.7734V107.32H53.6211V120ZM50.5977 104.027C50.5977 103.59 50.7344 103.227 51.0078 102.938C51.2891 102.648 51.6875 102.504 52.2031 102.504C52.7188 102.504 53.1172 102.648 53.3984 102.938C53.6797 103.227 53.8203 103.59 53.8203 104.027C53.8203 104.457 53.6797 104.816 53.3984 105.105C53.1172 105.387 52.7188 105.527 52.2031 105.527C51.6875 105.527 51.2891 105.387 51.0078 105.105C50.7344 104.816 50.5977 104.457 50.5977 104.027ZM61.9414 117.961C62.6523 117.961 63.2422 117.754 63.7109 117.34C64.1797 116.926 64.4297 116.414 64.4609 115.805H67.1445C67.1133 116.594 66.8672 117.332 66.4062 118.02C65.9453 118.699 65.3203 119.238 64.5312 119.637C63.7422 120.035 62.8906 120.234 61.9766 120.234C60.2031 120.234 58.7969 119.66 57.7578 118.512C56.7188 117.363 56.1992 115.777 56.1992 113.754V113.461C56.1992 111.531 56.7148 109.988 57.7461 108.832C58.7773 107.668 60.1836 107.086 61.9648 107.086C63.4727 107.086 64.6992 107.527 65.6445 108.41C66.5977 109.285 67.0977 110.438 67.1445 111.867H64.4609C64.4297 111.141 64.1797 110.543 63.7109 110.074C63.25 109.605 62.6602 109.371 61.9414 109.371C61.0195 109.371 60.3086 109.707 59.8086 110.379C59.3086 111.043 59.0547 112.055 59.0469 113.414V113.871C59.0469 115.246 59.293 116.273 59.7852 116.953C60.2852 117.625 61.0039 117.961 61.9414 117.961ZM72.3242 120H69.4766V107.32H72.3242V120ZM69.3008 104.027C69.3008 103.59 69.4375 103.227 69.7109 102.938C69.9922 102.648 70.3906 102.504 70.9062 102.504C71.4219 102.504 71.8203 102.648 72.1016 102.938C72.3828 103.227 72.5234 103.59 72.5234 104.027C72.5234 104.457 72.3828 104.816 72.1016 105.105C71.8203 105.387 71.4219 105.527 70.9062 105.527C70.3906 105.527 69.9922 105.387 69.7109 105.105C69.4375 104.816 69.3008 104.457 69.3008 104.027ZM74.9023 113.543C74.9023 112.301 75.1484 111.184 75.6406 110.191C76.1328 109.191 76.8242 108.426 77.7148 107.895C78.6055 107.355 79.6289 107.086 80.7852 107.086C82.4961 107.086 83.8828 107.637 84.9453 108.738C86.0156 109.84 86.5938 111.301 86.6797 113.121L86.6914 113.789C86.6914 115.039 86.4492 116.156 85.9648 117.141C85.4883 118.125 84.8008 118.887 83.9023 119.426C83.0117 119.965 81.9805 120.234 80.8086 120.234C79.0195 120.234 77.5859 119.641 76.5078 118.453C75.4375 117.258 74.9023 115.668 74.9023 113.684V113.543ZM77.75 113.789C77.75 115.094 78.0195 116.117 78.5586 116.859C79.0977 117.594 79.8477 117.961 80.8086 117.961C81.7695 117.961 82.5156 117.586 83.0469 116.836C83.5859 116.086 83.8555 114.988 83.8555 113.543C83.8555 112.262 83.5781 111.246 83.0234 110.496C82.4766 109.746 81.7305 109.371 80.7852 109.371C79.8555 109.371 79.1172 109.742 78.5703 110.484C78.0234 111.219 77.75 112.32 77.75 113.789Z" fill="black"/>
<path d="M151.863 120H148.91V102.938H151.863V120ZM157.875 107.32L157.957 108.785C158.895 107.652 160.125 107.086 161.648 107.086C164.289 107.086 165.633 108.598 165.68 111.621V120H162.832V111.785C162.832 110.98 162.656 110.387 162.305 110.004C161.961 109.613 161.395 109.418 160.605 109.418C159.457 109.418 158.602 109.938 158.039 110.977V120H155.191V107.32H157.875ZM175.699 116.555C175.699 116.047 175.488 115.66 175.066 115.395C174.652 115.129 173.961 114.895 172.992 114.691C172.023 114.488 171.215 114.23 170.566 113.918C169.145 113.23 168.434 112.234 168.434 110.93C168.434 109.836 168.895 108.922 169.816 108.188C170.738 107.453 171.91 107.086 173.332 107.086C174.848 107.086 176.07 107.461 177 108.211C177.938 108.961 178.406 109.934 178.406 111.129H175.559C175.559 110.582 175.355 110.129 174.949 109.77C174.543 109.402 174.004 109.219 173.332 109.219C172.707 109.219 172.195 109.363 171.797 109.652C171.406 109.941 171.211 110.328 171.211 110.812C171.211 111.25 171.395 111.59 171.762 111.832C172.129 112.074 172.871 112.32 173.988 112.57C175.105 112.812 175.98 113.105 176.613 113.449C177.254 113.785 177.727 114.191 178.031 114.668C178.344 115.145 178.5 115.723 178.5 116.402C178.5 117.543 178.027 118.469 177.082 119.18C176.137 119.883 174.898 120.234 173.367 120.234C172.328 120.234 171.402 120.047 170.59 119.672C169.777 119.297 169.145 118.781 168.691 118.125C168.238 117.469 168.012 116.762 168.012 116.004H170.777C170.816 116.676 171.07 117.195 171.539 117.562C172.008 117.922 172.629 118.102 173.402 118.102C174.152 118.102 174.723 117.961 175.113 117.68C175.504 117.391 175.699 117.016 175.699 116.555ZM184.559 104.238V107.32H186.797V109.43H184.559V116.508C184.559 116.992 184.652 117.344 184.84 117.562C185.035 117.773 185.379 117.879 185.871 117.879C186.199 117.879 186.531 117.84 186.867 117.762V119.965C186.219 120.145 185.594 120.234 184.992 120.234C182.805 120.234 181.711 119.027 181.711 116.613V109.43H179.625V107.32H181.711V104.238H184.559ZM195.621 109.922C195.246 109.859 194.859 109.828 194.461 109.828C193.156 109.828 192.277 110.328 191.824 111.328V120H188.977V107.32H191.695L191.766 108.738C192.453 107.637 193.406 107.086 194.625 107.086C195.031 107.086 195.367 107.141 195.633 107.25L195.621 109.922ZM205.102 118.758C204.266 119.742 203.078 120.234 201.539 120.234C200.164 120.234 199.121 119.832 198.41 119.027C197.707 118.223 197.355 117.059 197.355 115.535V107.32H200.203V115.5C200.203 117.109 200.871 117.914 202.207 117.914C203.59 117.914 204.523 117.418 205.008 116.426V107.32H207.855V120H205.172L205.102 118.758ZM215.965 117.961C216.676 117.961 217.266 117.754 217.734 117.34C218.203 116.926 218.453 116.414 218.484 115.805H221.168C221.137 116.594 220.891 117.332 220.43 118.02C219.969 118.699 219.344 119.238 218.555 119.637C217.766 120.035 216.914 120.234 216 120.234C214.227 120.234 212.82 119.66 211.781 118.512C210.742 117.363 210.223 115.777 210.223 113.754V113.461C210.223 111.531 210.738 109.988 211.77 108.832C212.801 107.668 214.207 107.086 215.988 107.086C217.496 107.086 218.723 107.527 219.668 108.41C220.621 109.285 221.121 110.438 221.168 111.867H218.484C218.453 111.141 218.203 110.543 217.734 110.074C217.273 109.605 216.684 109.371 215.965 109.371C215.043 109.371 214.332 109.707 213.832 110.379C213.332 111.043 213.078 112.055 213.07 113.414V113.871C213.07 115.246 213.316 116.273 213.809 116.953C214.309 117.625 215.027 117.961 215.965 117.961ZM228.527 117.961C229.238 117.961 229.828 117.754 230.297 117.34C230.766 116.926 231.016 116.414 231.047 115.805H233.73C233.699 116.594 233.453 117.332 232.992 118.02C232.531 118.699 231.906 119.238 231.117 119.637C230.328 120.035 229.477 120.234 228.562 120.234C226.789 120.234 225.383 119.66 224.344 118.512C223.305 117.363 222.785 115.777 222.785 113.754V113.461C222.785 111.531 223.301 109.988 224.332 108.832C225.363 107.668 226.77 107.086 228.551 107.086C230.059 107.086 231.285 107.527 232.23 108.41C233.184 109.285 233.684 110.438 233.73 111.867H231.047C231.016 111.141 230.766 110.543 230.297 110.074C229.836 109.605 229.246 109.371 228.527 109.371C227.605 109.371 226.895 109.707 226.395 110.379C225.895 111.043 225.641 112.055 225.633 113.414V113.871C225.633 115.246 225.879 116.273 226.371 116.953C226.871 117.625 227.59 117.961 228.527 117.961ZM238.91 120H236.062V107.32H238.91V120ZM235.887 104.027C235.887 103.59 236.023 103.227 236.297 102.938C236.578 102.648 236.977 102.504 237.492 102.504C238.008 102.504 238.406 102.648 238.688 102.938C238.969 103.227 239.109 103.59 239.109 104.027C239.109 104.457 238.969 104.816 238.688 105.105C238.406 105.387 238.008 105.527 237.492 105.527C236.977 105.527 236.578 105.387 236.297 105.105C236.023 104.816 235.887 104.457 235.887 104.027ZM241.488 113.543C241.488 112.301 241.734 111.184 242.227 110.191C242.719 109.191 243.41 108.426 244.301 107.895C245.191 107.355 246.215 107.086 247.371 107.086C249.082 107.086 250.469 107.637 251.531 108.738C252.602 109.84 253.18 111.301 253.266 113.121L253.277 113.789C253.277 115.039 253.035 116.156 252.551 117.141C252.074 118.125 251.387 118.887 250.488 119.426C249.598 119.965 248.566 120.234 247.395 120.234C245.605 120.234 244.172 119.641 243.094 118.453C242.023 117.258 241.488 115.668 241.488 113.684V113.543ZM244.336 113.789C244.336 115.094 244.605 116.117 245.145 116.859C245.684 117.594 246.434 117.961 247.395 117.961C248.355 117.961 249.102 117.586 249.633 116.836C250.172 116.086 250.441 114.988 250.441 113.543C250.441 112.262 250.164 111.246 249.609 110.496C249.062 109.746 248.316 109.371 247.371 109.371C246.441 109.371 245.703 109.742 245.156 110.484C244.609 111.219 244.336 112.32 244.336 113.789ZM258.328 107.32L258.41 108.785C259.348 107.652 260.578 107.086 262.102 107.086C264.742 107.086 266.086 108.598 266.133 111.621V120H263.285V111.785C263.285 110.98 263.109 110.387 262.758 110.004C262.414 109.613 261.848 109.418 261.059 109.418C259.91 109.418 259.055 109.938 258.492 110.977V120H255.645V107.32H258.328ZM274.629 120.234C272.824 120.234 271.359 119.668 270.234 118.535C269.117 117.395 268.559 115.879 268.559 113.988V113.637C268.559 112.371 268.801 111.242 269.285 110.25C269.777 109.25 270.465 108.473 271.348 107.918C272.23 107.363 273.215 107.086 274.301 107.086C276.027 107.086 277.359 107.637 278.297 108.738C279.242 109.84 279.715 111.398 279.715 113.414V114.562H271.43C271.516 115.609 271.863 116.438 272.473 117.047C273.09 117.656 273.863 117.961 274.793 117.961C276.098 117.961 277.16 117.434 277.98 116.379L279.516 117.844C279.008 118.602 278.328 119.191 277.477 119.613C276.633 120.027 275.684 120.234 274.629 120.234ZM274.289 109.371C273.508 109.371 272.875 109.645 272.391 110.191C271.914 110.738 271.609 111.5 271.477 112.477H276.902V112.266C276.84 111.312 276.586 110.594 276.141 110.109C275.695 109.617 275.078 109.371 274.289 109.371ZM289.043 116.555C289.043 116.047 288.832 115.66 288.41 115.395C287.996 115.129 287.305 114.895 286.336 114.691C285.367 114.488 284.559 114.23 283.91 113.918C282.488 113.23 281.777 112.234 281.777 110.93C281.777 109.836 282.238 108.922 283.16 108.188C284.082 107.453 285.254 107.086 286.676 107.086C288.191 107.086 289.414 107.461 290.344 108.211C291.281 108.961 291.75 109.934 291.75 111.129H288.902C288.902 110.582 288.699 110.129 288.293 109.77C287.887 109.402 287.348 109.219 286.676 109.219C286.051 109.219 285.539 109.363 285.141 109.652C284.75 109.941 284.555 110.328 284.555 110.812C284.555 111.25 284.738 111.59 285.105 111.832C285.473 112.074 286.215 112.32 287.332 112.57C288.449 112.812 289.324 113.105 289.957 113.449C290.598 113.785 291.07 114.191 291.375 114.668C291.688 115.145 291.844 115.723 291.844 116.402C291.844 117.543 291.371 118.469 290.426 119.18C289.48 119.883 288.242 120.234 286.711 120.234C285.672 120.234 284.746 120.047 283.934 119.672C283.121 119.297 282.488 118.781 282.035 118.125C281.582 117.469 281.355 116.762 281.355 116.004H284.121C284.16 116.676 284.414 117.195 284.883 117.562C285.352 117.922 285.973 118.102 286.746 118.102C287.496 118.102 288.066 117.961 288.457 117.68C288.848 117.391 289.043 117.016 289.043 116.555Z" fill="black"/>
<path d="M0 82V81H-1V82H0ZM485 82H486V81H485V82ZM485 152V153H486V152H485ZM0 152H-1V153H0V152ZM0 83H485V81H0V83ZM484 82V152H486V82H484ZM485 151H0V153H485V151ZM1 152V82H-1V152H1Z" fill="white"/>
<path d="M0 0H485V83H0V0Z" fill="#11D0C5"/>
<path d="M28.6875 34.4277H22.5254V39.4668H29.6836V41H20.6504V26.7812H29.5859V28.3242H22.5254V32.8945H28.6875V34.4277ZM33.4434 30.4336L33.502 31.7617C34.3092 30.7461 35.3639 30.2383 36.666 30.2383C38.8991 30.2383 40.0254 31.498 40.0449 34.0176V41H38.2383V34.0078C38.2318 33.2461 38.056 32.6829 37.7109 32.3184C37.3724 31.9538 36.8418 31.7715 36.1191 31.7715C35.5332 31.7715 35.0189 31.9277 34.5762 32.2402C34.1335 32.5527 33.7884 32.9629 33.541 33.4707V41H31.7344V30.4336H33.4434ZM47.0078 39.7207C47.6523 39.7207 48.2155 39.5254 48.6973 39.1348C49.179 38.7441 49.446 38.2559 49.498 37.6699H51.207C51.1745 38.2754 50.9661 38.8516 50.582 39.3984C50.1979 39.9453 49.6836 40.3815 49.0391 40.707C48.401 41.0326 47.724 41.1953 47.0078 41.1953C45.569 41.1953 44.4232 40.7168 43.5703 39.7598C42.724 38.7962 42.3008 37.4811 42.3008 35.8145V35.5117C42.3008 34.4831 42.4896 33.5684 42.8672 32.7676C43.2448 31.9668 43.7852 31.3451 44.4883 30.9023C45.1979 30.4596 46.0345 30.2383 46.998 30.2383C48.1829 30.2383 49.166 30.5931 49.9473 31.3027C50.735 32.0124 51.1549 32.9336 51.207 34.0664H49.498C49.446 33.3828 49.1855 32.8229 48.7168 32.3867C48.2546 31.944 47.6816 31.7227 46.998 31.7227C46.0801 31.7227 45.3672 32.0547 44.8594 32.7188C44.3581 33.3763 44.1074 34.3301 44.1074 35.5801V35.9219C44.1074 37.1393 44.3581 38.0768 44.8594 38.7344C45.3607 39.3919 46.0768 39.7207 47.0078 39.7207ZM59.7617 41C59.6576 40.7917 59.5729 40.4206 59.5078 39.8867C58.668 40.7591 57.6654 41.1953 56.5 41.1953C55.4583 41.1953 54.6022 40.9023 53.9316 40.3164C53.2676 39.724 52.9355 38.9753 52.9355 38.0703C52.9355 36.9701 53.3522 36.1172 54.1855 35.5117C55.0254 34.8997 56.2038 34.5938 57.7207 34.5938H59.4785V33.7637C59.4785 33.1322 59.2897 32.6309 58.9121 32.2598C58.5345 31.8822 57.9779 31.6934 57.2422 31.6934C56.5977 31.6934 56.0573 31.8561 55.6211 32.1816C55.1849 32.5072 54.9668 32.901 54.9668 33.3633H53.1504C53.1504 32.8359 53.3359 32.3281 53.707 31.8398C54.0846 31.3451 54.5924 30.9544 55.2305 30.668C55.875 30.3815 56.5814 30.2383 57.3496 30.2383C58.5671 30.2383 59.5208 30.5443 60.2109 31.1562C60.901 31.7617 61.2591 32.5983 61.2852 33.666V38.5293C61.2852 39.4993 61.4089 40.2708 61.6562 40.8438V41H59.7617ZM56.7637 39.623C57.3301 39.623 57.8672 39.4766 58.375 39.1836C58.8828 38.8906 59.2507 38.5098 59.4785 38.041V35.873H58.0625C55.849 35.873 54.7422 36.5208 54.7422 37.8164C54.7422 38.3828 54.931 38.8255 55.3086 39.1445C55.6862 39.4635 56.1712 39.623 56.7637 39.623ZM73.0625 35.834C73.0625 37.4486 72.6914 38.7474 71.9492 39.7305C71.207 40.707 70.2109 41.1953 68.9609 41.1953C67.6263 41.1953 66.5944 40.7233 65.8652 39.7793L65.7773 41H64.1172V26H65.9238V31.5957C66.653 30.6908 67.6589 30.2383 68.9414 30.2383C70.224 30.2383 71.2298 30.7233 71.959 31.6934C72.6947 32.6634 73.0625 33.9915 73.0625 35.6777V35.834ZM71.2559 35.6289C71.2559 34.3984 71.0182 33.4479 70.543 32.7773C70.0677 32.1068 69.3841 31.7715 68.4922 31.7715C67.3008 31.7715 66.4447 32.3249 65.9238 33.4316V38.002C66.4772 39.1087 67.3398 39.6621 68.5117 39.6621C69.3776 39.6621 70.0514 39.3268 70.5332 38.6562C71.015 37.9857 71.2559 36.9766 71.2559 35.6289ZM79.7324 41.1953C78.3001 41.1953 77.1348 40.7266 76.2363 39.7891C75.3379 38.8451 74.8887 37.5853 74.8887 36.0098V35.6777C74.8887 34.6296 75.0872 33.6953 75.4844 32.875C75.888 32.0482 76.4479 31.4036 77.1641 30.9414C77.8867 30.4727 78.668 30.2383 79.5078 30.2383C80.8815 30.2383 81.9492 30.6908 82.7109 31.5957C83.4727 32.5007 83.8535 33.7962 83.8535 35.4824V36.2344H76.6953C76.7214 37.276 77.0241 38.1191 77.6035 38.7637C78.1895 39.4017 78.9316 39.7207 79.8301 39.7207C80.4681 39.7207 81.0085 39.5905 81.4512 39.3301C81.8939 39.0697 82.2812 38.7246 82.6133 38.2949L83.7168 39.1543C82.8314 40.515 81.5033 41.1953 79.7324 41.1953ZM79.5078 31.7227C78.7786 31.7227 78.1667 31.9896 77.6719 32.5234C77.1771 33.0508 76.8711 33.793 76.7539 34.75H82.0469V34.6133C81.9948 33.6953 81.7474 32.9857 81.3047 32.4844C80.862 31.9766 80.263 31.7227 79.5078 31.7227ZM87.6523 39.5254H93.834V41H85.4453V39.6719L91.2754 31.9277H85.5332V30.4336H93.541V31.7129L87.6523 39.5254ZM102.398 41C102.294 40.7917 102.21 40.4206 102.145 39.8867C101.305 40.7591 100.302 41.1953 99.1367 41.1953C98.0951 41.1953 97.2389 40.9023 96.5684 40.3164C95.9043 39.724 95.5723 38.9753 95.5723 38.0703C95.5723 36.9701 95.9889 36.1172 96.8223 35.5117C97.6621 34.8997 98.8405 34.5938 100.357 34.5938H102.115V33.7637C102.115 33.1322 101.926 32.6309 101.549 32.2598C101.171 31.8822 100.615 31.6934 99.8789 31.6934C99.2344 31.6934 98.694 31.8561 98.2578 32.1816C97.8216 32.5072 97.6035 32.901 97.6035 33.3633H95.7871C95.7871 32.8359 95.9727 32.3281 96.3438 31.8398C96.7214 31.3451 97.2292 30.9544 97.8672 30.668C98.5117 30.3815 99.2181 30.2383 99.9863 30.2383C101.204 30.2383 102.158 30.5443 102.848 31.1562C103.538 31.7617 103.896 32.5983 103.922 33.666V38.5293C103.922 39.4993 104.046 40.2708 104.293 40.8438V41H102.398ZM99.4004 39.623C99.9668 39.623 100.504 39.4766 101.012 39.1836C101.52 38.8906 101.887 38.5098 102.115 38.041V35.873H100.699C98.4857 35.873 97.3789 36.5208 97.3789 37.8164C97.3789 38.3828 97.5677 38.8255 97.9453 39.1445C98.3229 39.4635 98.8079 39.623 99.4004 39.623ZM106.314 35.6289C106.314 34.0078 106.699 32.7057 107.467 31.7227C108.235 30.7331 109.241 30.2383 110.484 30.2383C111.721 30.2383 112.701 30.6615 113.424 31.5078V26H115.23V41H113.57L113.482 39.8672C112.76 40.7526 111.754 41.1953 110.465 41.1953C109.241 41.1953 108.242 40.694 107.467 39.6914C106.699 38.6888 106.314 37.3802 106.314 35.7656V35.6289ZM108.121 35.834C108.121 37.0319 108.368 37.9694 108.863 38.6465C109.358 39.3236 110.042 39.6621 110.914 39.6621C112.06 39.6621 112.896 39.1478 113.424 38.1191V33.2656C112.883 32.2695 112.053 31.7715 110.934 31.7715C110.048 31.7715 109.358 32.1133 108.863 32.7969C108.368 33.4805 108.121 34.4928 108.121 35.834ZM117.564 35.6191C117.564 34.584 117.766 33.653 118.17 32.8262C118.58 31.9993 119.146 31.3613 119.869 30.9121C120.598 30.4629 121.428 30.2383 122.359 30.2383C123.798 30.2383 124.96 30.7363 125.846 31.7324C126.738 32.7285 127.184 34.0534 127.184 35.707V35.834C127.184 36.8626 126.985 37.7871 126.588 38.6074C126.197 39.4212 125.634 40.056 124.898 40.5117C124.169 40.9674 123.329 41.1953 122.379 41.1953C120.947 41.1953 119.785 40.6973 118.893 39.7012C118.007 38.7051 117.564 37.3867 117.564 35.7461V35.6191ZM119.381 35.834C119.381 37.0059 119.651 37.9466 120.191 38.6562C120.738 39.3659 121.467 39.7207 122.379 39.7207C123.297 39.7207 124.026 39.3626 124.566 38.6465C125.107 37.9238 125.377 36.9147 125.377 35.6191C125.377 34.4603 125.1 33.5228 124.547 32.8066C124 32.084 123.271 31.7227 122.359 31.7227C121.467 31.7227 120.748 32.0775 120.201 32.7871C119.654 33.4967 119.381 34.5124 119.381 35.834Z" fill="black"/>
<path d="M0 0V-1H-1V0H0ZM485 0H486V-1H485V0ZM485 83V84H486V83H485ZM0 83H-1V84H0V83ZM0 1H485V-1H0V1ZM484 0V83H486V0H484ZM485 82H0V84H485V82ZM1 83V0H-1V83H1Z" fill="white"/>
<rect x="1" y="1" width="483" height="726" stroke="#171212" stroke-width="2"/>
</svg>
