<svg width="968" height="728" viewBox="0 0 968 728" fill="none" xmlns="http://www.w3.org/2000/svg">
<rect x="1" y="1" width="966" height="726" fill="white"/>
<path d="M0 656H485V728H0V656Z" fill="white"/>
<path d="M22.4062 709.053C22.4062 708.74 22.4974 708.48 22.6797 708.271C22.8685 708.063 23.1484 707.959 23.5195 707.959C23.8906 707.959 24.1706 708.063 24.3594 708.271C24.5547 708.48 24.6523 708.74 24.6523 709.053C24.6523 709.352 24.5547 709.603 24.3594 709.805C24.1706 710.007 23.8906 710.107 23.5195 710.107C23.1484 710.107 22.8685 710.007 22.6797 709.805C22.4974 709.603 22.4062 709.352 22.4062 709.053Z" fill="black"/>
<rect y="152" width="485" height="504" fill="white"/>
<rect x="185.5" y="217.5" width="271" height="34" fill="white" stroke="black"/>
<path d="M34.5781 239H32.6934L25.5352 228.043V239H23.6504V224.781H25.5352L32.7129 235.787V224.781H34.5781V239ZM37.1465 233.619C37.1465 232.584 37.3483 231.653 37.752 230.826C38.1621 229.999 38.7285 229.361 39.4512 228.912C40.1803 228.463 41.0104 228.238 41.9414 228.238C43.3802 228.238 44.5423 228.736 45.4277 229.732C46.3197 230.729 46.7656 232.053 46.7656 233.707V233.834C46.7656 234.863 46.5671 235.787 46.1699 236.607C45.7793 237.421 45.2161 238.056 44.4805 238.512C43.7513 238.967 42.9115 239.195 41.9609 239.195C40.5286 239.195 39.3665 238.697 38.4746 237.701C37.5892 236.705 37.1465 235.387 37.1465 233.746V233.619ZM38.9629 233.834C38.9629 235.006 39.2331 235.947 39.7734 236.656C40.3203 237.366 41.0495 237.721 41.9609 237.721C42.8789 237.721 43.6081 237.363 44.1484 236.646C44.6888 235.924 44.959 234.915 44.959 233.619C44.959 232.46 44.6823 231.523 44.1289 230.807C43.582 230.084 42.8529 229.723 41.9414 229.723C41.0495 229.723 40.3301 230.077 39.7832 230.787C39.2363 231.497 38.9629 232.512 38.9629 233.834ZM50.7305 228.434L50.7793 229.605C51.554 228.694 52.599 228.238 53.9141 228.238C55.3919 228.238 56.3978 228.805 56.9316 229.938C57.2832 229.43 57.7389 229.02 58.2988 228.707C58.8652 228.395 59.5326 228.238 60.3008 228.238C62.6185 228.238 63.7969 229.465 63.8359 231.92V239H62.0293V232.027C62.0293 231.272 61.8568 230.709 61.5117 230.338C61.1667 229.96 60.5872 229.771 59.7734 229.771C59.1029 229.771 58.5462 229.973 58.1035 230.377C57.6608 230.774 57.4036 231.311 57.332 231.988V239H55.5156V232.076C55.5156 230.54 54.7637 229.771 53.2598 229.771C52.0749 229.771 51.2643 230.276 50.8281 231.285V239H49.0215V228.434H50.7305ZM75.5156 233.834C75.5156 235.449 75.1445 236.747 74.4023 237.73C73.6602 238.707 72.6641 239.195 71.4141 239.195C70.0794 239.195 69.0475 238.723 68.3184 237.779L68.2305 239H66.5703V224H68.377V229.596C69.1061 228.691 70.112 228.238 71.3945 228.238C72.6771 228.238 73.6829 228.723 74.4121 229.693C75.1478 230.663 75.5156 231.992 75.5156 233.678V233.834ZM73.709 233.629C73.709 232.398 73.4714 231.448 72.9961 230.777C72.5208 230.107 71.8372 229.771 70.9453 229.771C69.7539 229.771 68.8978 230.325 68.377 231.432V236.002C68.9303 237.109 69.793 237.662 70.9648 237.662C71.8307 237.662 72.5046 237.327 72.9863 236.656C73.4681 235.986 73.709 234.977 73.709 233.629ZM82.9082 230.055C82.6348 230.009 82.3385 229.986 82.0195 229.986C80.8346 229.986 80.0306 230.491 79.6074 231.5V239H77.8008V228.434H79.5586L79.5879 229.654C80.1803 228.71 81.0202 228.238 82.1074 228.238C82.459 228.238 82.7259 228.284 82.9082 228.375V230.055ZM88.7676 239.195C87.3353 239.195 86.1699 238.727 85.2715 237.789C84.373 236.845 83.9238 235.585 83.9238 234.01V233.678C83.9238 232.63 84.1224 231.695 84.5195 230.875C84.9232 230.048 85.4831 229.404 86.1992 228.941C86.9219 228.473 87.7031 228.238 88.543 228.238C89.9167 228.238 90.9844 228.691 91.7461 229.596C92.5078 230.501 92.8887 231.796 92.8887 233.482V234.234H85.7305C85.7565 235.276 86.0592 236.119 86.6387 236.764C87.2246 237.402 87.9668 237.721 88.8652 237.721C89.5033 237.721 90.0436 237.59 90.4863 237.33C90.929 237.07 91.3164 236.725 91.6484 236.295L92.752 237.154C91.8665 238.515 90.5384 239.195 88.7676 239.195ZM88.543 229.723C87.8138 229.723 87.2018 229.99 86.707 230.523C86.2122 231.051 85.9062 231.793 85.7891 232.75H91.082V232.613C91.0299 231.695 90.7826 230.986 90.3398 230.484C89.8971 229.977 89.2982 229.723 88.543 229.723ZM94.9297 238.053C94.9297 237.74 95.0208 237.48 95.2031 237.271C95.3919 237.063 95.6719 236.959 96.043 236.959C96.4141 236.959 96.694 237.063 96.8828 237.271C97.0781 237.48 97.1758 237.74 97.1758 238.053C97.1758 238.352 97.0781 238.603 96.8828 238.805C96.694 239.007 96.4141 239.107 96.043 239.107C95.6719 239.107 95.3919 239.007 95.2031 238.805C95.0208 238.603 94.9297 238.352 94.9297 238.053ZM94.9395 229.43C94.9395 229.117 95.0306 228.857 95.2129 228.648C95.4017 228.44 95.6816 228.336 96.0527 228.336C96.4238 228.336 96.7038 228.44 96.8926 228.648C97.0879 228.857 97.1855 229.117 97.1855 229.43C97.1855 229.729 97.0879 229.98 96.8926 230.182C96.7038 230.383 96.4238 230.484 96.0527 230.484C95.6816 230.484 95.4017 230.383 95.2129 230.182C95.0306 229.98 94.9395 229.729 94.9395 229.43Z" fill="black"/>
<rect x="22.5" y="321.5" width="160" height="50" rx="13.5" fill="#10B6AC" stroke="black"/>
<rect x="243.5" y="321.5" width="160" height="50" rx="13.5" fill="white" stroke="black"/>
<path d="M72.502 350.289H66.5449L65.207 354H63.2734L68.7031 339.781H70.3438L75.7832 354H73.8594L72.502 350.289ZM67.1113 348.746H71.9453L69.5234 342.096L67.1113 348.746ZM81.6523 352.721C82.2969 352.721 82.86 352.525 83.3418 352.135C83.8236 351.744 84.0905 351.256 84.1426 350.67H85.8516C85.819 351.275 85.6107 351.852 85.2266 352.398C84.8424 352.945 84.3281 353.382 83.6836 353.707C83.0456 354.033 82.3685 354.195 81.6523 354.195C80.2135 354.195 79.0677 353.717 78.2148 352.76C77.3685 351.796 76.9453 350.481 76.9453 348.814V348.512C76.9453 347.483 77.1341 346.568 77.5117 345.768C77.8893 344.967 78.4297 344.345 79.1328 343.902C79.8424 343.46 80.679 343.238 81.6426 343.238C82.8275 343.238 83.8105 343.593 84.5918 344.303C85.3796 345.012 85.7995 345.934 85.8516 347.066H84.1426C84.0905 346.383 83.8301 345.823 83.3613 345.387C82.8991 344.944 82.3262 344.723 81.6426 344.723C80.7246 344.723 80.0117 345.055 79.5039 345.719C79.0026 346.376 78.752 347.33 78.752 348.58V348.922C78.752 350.139 79.0026 351.077 79.5039 351.734C80.0052 352.392 80.7214 352.721 81.6523 352.721ZM92.2676 354.195C90.8353 354.195 89.6699 353.727 88.7715 352.789C87.873 351.845 87.4238 350.585 87.4238 349.01V348.678C87.4238 347.63 87.6224 346.695 88.0195 345.875C88.4232 345.048 88.9831 344.404 89.6992 343.941C90.4219 343.473 91.2031 343.238 92.043 343.238C93.4167 343.238 94.4844 343.691 95.2461 344.596C96.0078 345.501 96.3887 346.796 96.3887 348.482V349.234H89.2305C89.2565 350.276 89.5592 351.119 90.1387 351.764C90.7246 352.402 91.4668 352.721 92.3652 352.721C93.0033 352.721 93.5436 352.59 93.9863 352.33C94.429 352.07 94.8164 351.725 95.1484 351.295L96.252 352.154C95.3665 353.515 94.0384 354.195 92.2676 354.195ZM92.043 344.723C91.3138 344.723 90.7018 344.99 90.207 345.523C89.7122 346.051 89.4062 346.793 89.2891 347.75H94.582V347.613C94.5299 346.695 94.2826 345.986 93.8398 345.484C93.3971 344.977 92.7982 344.723 92.043 344.723ZM107.414 348.834C107.414 350.442 107.046 351.738 106.311 352.721C105.575 353.704 104.579 354.195 103.322 354.195C102.04 354.195 101.031 353.788 100.295 352.975V358.062H98.4883V343.434H100.139L100.227 344.605C100.962 343.694 101.984 343.238 103.293 343.238C104.562 343.238 105.565 343.717 106.301 344.674C107.043 345.631 107.414 346.962 107.414 348.668V348.834ZM105.607 348.629C105.607 347.438 105.354 346.497 104.846 345.807C104.338 345.117 103.641 344.771 102.756 344.771C101.662 344.771 100.842 345.257 100.295 346.227V351.275C100.835 352.239 101.662 352.721 102.775 352.721C103.641 352.721 104.328 352.379 104.836 351.695C105.35 351.005 105.607 349.983 105.607 348.629ZM112.17 340.875V343.434H114.143V344.83H112.17V351.383C112.17 351.806 112.258 352.125 112.434 352.34C112.609 352.548 112.909 352.652 113.332 352.652C113.54 352.652 113.827 352.613 114.191 352.535V354C113.716 354.13 113.254 354.195 112.805 354.195C111.997 354.195 111.389 353.951 110.979 353.463C110.568 352.975 110.363 352.281 110.363 351.383V344.83H108.439V343.434H110.363V340.875H112.17ZM122.785 354C122.681 353.792 122.596 353.421 122.531 352.887C121.691 353.759 120.689 354.195 119.523 354.195C118.482 354.195 117.626 353.902 116.955 353.316C116.291 352.724 115.959 351.975 115.959 351.07C115.959 349.97 116.376 349.117 117.209 348.512C118.049 347.9 119.227 347.594 120.744 347.594H122.502V346.764C122.502 346.132 122.313 345.631 121.936 345.26C121.558 344.882 121.001 344.693 120.266 344.693C119.621 344.693 119.081 344.856 118.645 345.182C118.208 345.507 117.99 345.901 117.99 346.363H116.174C116.174 345.836 116.359 345.328 116.73 344.84C117.108 344.345 117.616 343.954 118.254 343.668C118.898 343.382 119.605 343.238 120.373 343.238C121.59 343.238 122.544 343.544 123.234 344.156C123.924 344.762 124.283 345.598 124.309 346.666V351.529C124.309 352.499 124.432 353.271 124.68 353.844V354H122.785ZM119.787 352.623C120.354 352.623 120.891 352.477 121.398 352.184C121.906 351.891 122.274 351.51 122.502 351.041V348.873H121.086C118.872 348.873 117.766 349.521 117.766 350.816C117.766 351.383 117.954 351.826 118.332 352.145C118.71 352.464 119.195 352.623 119.787 352.623ZM132.248 345.055C131.975 345.009 131.678 344.986 131.359 344.986C130.174 344.986 129.37 345.491 128.947 346.5V354H127.141V343.434H128.898L128.928 344.654C129.52 343.71 130.36 343.238 131.447 343.238C131.799 343.238 132.066 343.284 132.248 343.375V345.055Z" fill="black"/>
<path d="M293.109 349.488C292.934 350.992 292.377 352.154 291.439 352.975C290.508 353.788 289.268 354.195 287.719 354.195C286.039 354.195 284.691 353.593 283.676 352.389C282.667 351.184 282.162 349.573 282.162 347.555V346.188C282.162 344.866 282.396 343.704 282.865 342.701C283.34 341.699 284.011 340.93 284.877 340.396C285.743 339.856 286.745 339.586 287.885 339.586C289.395 339.586 290.606 340.009 291.518 340.855C292.429 341.695 292.96 342.861 293.109 344.352H291.225C291.062 343.219 290.707 342.398 290.16 341.891C289.62 341.383 288.861 341.129 287.885 341.129C286.687 341.129 285.746 341.572 285.062 342.457C284.385 343.342 284.047 344.602 284.047 346.236V347.613C284.047 349.156 284.369 350.383 285.014 351.295C285.658 352.206 286.56 352.662 287.719 352.662C288.76 352.662 289.558 352.428 290.111 351.959C290.671 351.484 291.042 350.66 291.225 349.488H293.109ZM301.918 354C301.814 353.792 301.729 353.421 301.664 352.887C300.824 353.759 299.822 354.195 298.656 354.195C297.615 354.195 296.758 353.902 296.088 353.316C295.424 352.724 295.092 351.975 295.092 351.07C295.092 349.97 295.508 349.117 296.342 348.512C297.182 347.9 298.36 347.594 299.877 347.594H301.635V346.764C301.635 346.132 301.446 345.631 301.068 345.26C300.691 344.882 300.134 344.693 299.398 344.693C298.754 344.693 298.214 344.856 297.777 345.182C297.341 345.507 297.123 345.901 297.123 346.363H295.307C295.307 345.836 295.492 345.328 295.863 344.84C296.241 344.345 296.749 343.954 297.387 343.668C298.031 343.382 298.738 343.238 299.506 343.238C300.723 343.238 301.677 343.544 302.367 344.156C303.057 344.762 303.415 345.598 303.441 346.666V351.529C303.441 352.499 303.565 353.271 303.812 353.844V354H301.918ZM298.92 352.623C299.486 352.623 300.023 352.477 300.531 352.184C301.039 351.891 301.407 351.51 301.635 351.041V348.873H300.219C298.005 348.873 296.898 349.521 296.898 350.816C296.898 351.383 297.087 351.826 297.465 352.145C297.842 352.464 298.327 352.623 298.92 352.623ZM307.982 343.434L308.041 344.762C308.848 343.746 309.903 343.238 311.205 343.238C313.438 343.238 314.564 344.498 314.584 347.018V354H312.777V347.008C312.771 346.246 312.595 345.683 312.25 345.318C311.911 344.954 311.381 344.771 310.658 344.771C310.072 344.771 309.558 344.928 309.115 345.24C308.673 345.553 308.327 345.963 308.08 346.471V354H306.273V343.434H307.982ZM321.547 352.721C322.191 352.721 322.755 352.525 323.236 352.135C323.718 351.744 323.985 351.256 324.037 350.67H325.746C325.714 351.275 325.505 351.852 325.121 352.398C324.737 352.945 324.223 353.382 323.578 353.707C322.94 354.033 322.263 354.195 321.547 354.195C320.108 354.195 318.962 353.717 318.109 352.76C317.263 351.796 316.84 350.481 316.84 348.814V348.512C316.84 347.483 317.029 346.568 317.406 345.768C317.784 344.967 318.324 344.345 319.027 343.902C319.737 343.46 320.574 343.238 321.537 343.238C322.722 343.238 323.705 343.593 324.486 344.303C325.274 345.012 325.694 345.934 325.746 347.066H324.037C323.985 346.383 323.725 345.823 323.256 345.387C322.794 344.944 322.221 344.723 321.537 344.723C320.619 344.723 319.906 345.055 319.398 345.719C318.897 346.376 318.646 347.33 318.646 348.58V348.922C318.646 350.139 318.897 351.077 319.398 351.734C319.9 352.392 320.616 352.721 321.547 352.721ZM332.162 354.195C330.73 354.195 329.564 353.727 328.666 352.789C327.768 351.845 327.318 350.585 327.318 349.01V348.678C327.318 347.63 327.517 346.695 327.914 345.875C328.318 345.048 328.878 344.404 329.594 343.941C330.316 343.473 331.098 343.238 331.938 343.238C333.311 343.238 334.379 343.691 335.141 344.596C335.902 345.501 336.283 346.796 336.283 348.482V349.234H329.125C329.151 350.276 329.454 351.119 330.033 351.764C330.619 352.402 331.361 352.721 332.26 352.721C332.898 352.721 333.438 352.59 333.881 352.33C334.324 352.07 334.711 351.725 335.043 351.295L336.146 352.154C335.261 353.515 333.933 354.195 332.162 354.195ZM331.938 344.723C331.208 344.723 330.596 344.99 330.102 345.523C329.607 346.051 329.301 346.793 329.184 347.75H334.477V347.613C334.424 346.695 334.177 345.986 333.734 345.484C333.292 344.977 332.693 344.723 331.938 344.723ZM340.346 354H338.539V339H340.346V354ZM349.77 354C349.665 353.792 349.581 353.421 349.516 352.887C348.676 353.759 347.673 354.195 346.508 354.195C345.466 354.195 344.61 353.902 343.939 353.316C343.275 352.724 342.943 351.975 342.943 351.07C342.943 349.97 343.36 349.117 344.193 348.512C345.033 347.9 346.212 347.594 347.729 347.594H349.486V346.764C349.486 346.132 349.298 345.631 348.92 345.26C348.542 344.882 347.986 344.693 347.25 344.693C346.605 344.693 346.065 344.856 345.629 345.182C345.193 345.507 344.975 345.901 344.975 346.363H343.158C343.158 345.836 343.344 345.328 343.715 344.84C344.092 344.345 344.6 343.954 345.238 343.668C345.883 343.382 346.589 343.238 347.357 343.238C348.575 343.238 349.529 343.544 350.219 344.156C350.909 344.762 351.267 345.598 351.293 346.666V351.529C351.293 352.499 351.417 353.271 351.664 353.844V354H349.77ZM346.771 352.623C347.338 352.623 347.875 352.477 348.383 352.184C348.891 351.891 349.258 351.51 349.486 351.041V348.873H348.07C345.857 348.873 344.75 349.521 344.75 350.816C344.75 351.383 344.939 351.826 345.316 352.145C345.694 352.464 346.179 352.623 346.771 352.623ZM359.232 345.055C358.959 345.009 358.663 344.986 358.344 344.986C357.159 344.986 356.355 345.491 355.932 346.5V354H354.125V343.434H355.883L355.912 344.654C356.505 343.71 357.344 343.238 358.432 343.238C358.783 343.238 359.05 343.284 359.232 343.375V345.055Z" fill="black"/>
<rect y="152" width="485" height="504" fill="white"/>
<rect x="185.5" y="217.5" width="271" height="34" fill="white" stroke="black"/>
<path d="M34.5781 239H32.6934L25.5352 228.043V239H23.6504V224.781H25.5352L32.7129 235.787V224.781H34.5781V239ZM37.1465 233.619C37.1465 232.584 37.3483 231.653 37.752 230.826C38.1621 229.999 38.7285 229.361 39.4512 228.912C40.1803 228.463 41.0104 228.238 41.9414 228.238C43.3802 228.238 44.5423 228.736 45.4277 229.732C46.3197 230.729 46.7656 232.053 46.7656 233.707V233.834C46.7656 234.863 46.5671 235.787 46.1699 236.607C45.7793 237.421 45.2161 238.056 44.4805 238.512C43.7513 238.967 42.9115 239.195 41.9609 239.195C40.5286 239.195 39.3665 238.697 38.4746 237.701C37.5892 236.705 37.1465 235.387 37.1465 233.746V233.619ZM38.9629 233.834C38.9629 235.006 39.2331 235.947 39.7734 236.656C40.3203 237.366 41.0495 237.721 41.9609 237.721C42.8789 237.721 43.6081 237.363 44.1484 236.646C44.6888 235.924 44.959 234.915 44.959 233.619C44.959 232.46 44.6823 231.523 44.1289 230.807C43.582 230.084 42.8529 229.723 41.9414 229.723C41.0495 229.723 40.3301 230.077 39.7832 230.787C39.2363 231.497 38.9629 232.512 38.9629 233.834ZM50.7305 228.434L50.7793 229.605C51.554 228.694 52.599 228.238 53.9141 228.238C55.3919 228.238 56.3978 228.805 56.9316 229.938C57.2832 229.43 57.7389 229.02 58.2988 228.707C58.8652 228.395 59.5326 228.238 60.3008 228.238C62.6185 228.238 63.7969 229.465 63.8359 231.92V239H62.0293V232.027C62.0293 231.272 61.8568 230.709 61.5117 230.338C61.1667 229.96 60.5872 229.771 59.7734 229.771C59.1029 229.771 58.5462 229.973 58.1035 230.377C57.6608 230.774 57.4036 231.311 57.332 231.988V239H55.5156V232.076C55.5156 230.54 54.7637 229.771 53.2598 229.771C52.0749 229.771 51.2643 230.276 50.8281 231.285V239H49.0215V228.434H50.7305ZM75.5156 233.834C75.5156 235.449 75.1445 236.747 74.4023 237.73C73.6602 238.707 72.6641 239.195 71.4141 239.195C70.0794 239.195 69.0475 238.723 68.3184 237.779L68.2305 239H66.5703V224H68.377V229.596C69.1061 228.691 70.112 228.238 71.3945 228.238C72.6771 228.238 73.6829 228.723 74.4121 229.693C75.1478 230.663 75.5156 231.992 75.5156 233.678V233.834ZM73.709 233.629C73.709 232.398 73.4714 231.448 72.9961 230.777C72.5208 230.107 71.8372 229.771 70.9453 229.771C69.7539 229.771 68.8978 230.325 68.377 231.432V236.002C68.9303 237.109 69.793 237.662 70.9648 237.662C71.8307 237.662 72.5046 237.327 72.9863 236.656C73.4681 235.986 73.709 234.977 73.709 233.629ZM82.9082 230.055C82.6348 230.009 82.3385 229.986 82.0195 229.986C80.8346 229.986 80.0306 230.491 79.6074 231.5V239H77.8008V228.434H79.5586L79.5879 229.654C80.1803 228.71 81.0202 228.238 82.1074 228.238C82.459 228.238 82.7259 228.284 82.9082 228.375V230.055ZM88.7676 239.195C87.3353 239.195 86.1699 238.727 85.2715 237.789C84.373 236.845 83.9238 235.585 83.9238 234.01V233.678C83.9238 232.63 84.1224 231.695 84.5195 230.875C84.9232 230.048 85.4831 229.404 86.1992 228.941C86.9219 228.473 87.7031 228.238 88.543 228.238C89.9167 228.238 90.9844 228.691 91.7461 229.596C92.5078 230.501 92.8887 231.796 92.8887 233.482V234.234H85.7305C85.7565 235.276 86.0592 236.119 86.6387 236.764C87.2246 237.402 87.9668 237.721 88.8652 237.721C89.5033 237.721 90.0436 237.59 90.4863 237.33C90.929 237.07 91.3164 236.725 91.6484 236.295L92.752 237.154C91.8665 238.515 90.5384 239.195 88.7676 239.195ZM88.543 229.723C87.8138 229.723 87.2018 229.99 86.707 230.523C86.2122 231.051 85.9062 231.793 85.7891 232.75H91.082V232.613C91.0299 231.695 90.7826 230.986 90.3398 230.484C89.8971 229.977 89.2982 229.723 88.543 229.723ZM94.9297 238.053C94.9297 237.74 95.0208 237.48 95.2031 237.271C95.3919 237.063 95.6719 236.959 96.043 236.959C96.4141 236.959 96.694 237.063 96.8828 237.271C97.0781 237.48 97.1758 237.74 97.1758 238.053C97.1758 238.352 97.0781 238.603 96.8828 238.805C96.694 239.007 96.4141 239.107 96.043 239.107C95.6719 239.107 95.3919 239.007 95.2031 238.805C95.0208 238.603 94.9297 238.352 94.9297 238.053ZM94.9395 229.43C94.9395 229.117 95.0306 228.857 95.2129 228.648C95.4017 228.44 95.6816 228.336 96.0527 228.336C96.4238 228.336 96.7038 228.44 96.8926 228.648C97.0879 228.857 97.1855 229.117 97.1855 229.43C97.1855 229.729 97.0879 229.98 96.8926 230.182C96.7038 230.383 96.4238 230.484 96.0527 230.484C95.6816 230.484 95.4017 230.383 95.2129 230.182C95.0306 229.98 94.9395 229.729 94.9395 229.43Z" fill="black"/>
<rect x="22.5" y="321.5" width="160" height="50" rx="13.5" fill="#10B6AC" stroke="black"/>
<rect x="243.5" y="321.5" width="160" height="50" rx="13.5" fill="white" stroke="black"/>
<path d="M72.502 350.289H66.5449L65.207 354H63.2734L68.7031 339.781H70.3438L75.7832 354H73.8594L72.502 350.289ZM67.1113 348.746H71.9453L69.5234 342.096L67.1113 348.746ZM81.6523 352.721C82.2969 352.721 82.86 352.525 83.3418 352.135C83.8236 351.744 84.0905 351.256 84.1426 350.67H85.8516C85.819 351.275 85.6107 351.852 85.2266 352.398C84.8424 352.945 84.3281 353.382 83.6836 353.707C83.0456 354.033 82.3685 354.195 81.6523 354.195C80.2135 354.195 79.0677 353.717 78.2148 352.76C77.3685 351.796 76.9453 350.481 76.9453 348.814V348.512C76.9453 347.483 77.1341 346.568 77.5117 345.768C77.8893 344.967 78.4297 344.345 79.1328 343.902C79.8424 343.46 80.679 343.238 81.6426 343.238C82.8275 343.238 83.8105 343.593 84.5918 344.303C85.3796 345.012 85.7995 345.934 85.8516 347.066H84.1426C84.0905 346.383 83.8301 345.823 83.3613 345.387C82.8991 344.944 82.3262 344.723 81.6426 344.723C80.7246 344.723 80.0117 345.055 79.5039 345.719C79.0026 346.376 78.752 347.33 78.752 348.58V348.922C78.752 350.139 79.0026 351.077 79.5039 351.734C80.0052 352.392 80.7214 352.721 81.6523 352.721ZM92.2676 354.195C90.8353 354.195 89.6699 353.727 88.7715 352.789C87.873 351.845 87.4238 350.585 87.4238 349.01V348.678C87.4238 347.63 87.6224 346.695 88.0195 345.875C88.4232 345.048 88.9831 344.404 89.6992 343.941C90.4219 343.473 91.2031 343.238 92.043 343.238C93.4167 343.238 94.4844 343.691 95.2461 344.596C96.0078 345.501 96.3887 346.796 96.3887 348.482V349.234H89.2305C89.2565 350.276 89.5592 351.119 90.1387 351.764C90.7246 352.402 91.4668 352.721 92.3652 352.721C93.0033 352.721 93.5436 352.59 93.9863 352.33C94.429 352.07 94.8164 351.725 95.1484 351.295L96.252 352.154C95.3665 353.515 94.0384 354.195 92.2676 354.195ZM92.043 344.723C91.3138 344.723 90.7018 344.99 90.207 345.523C89.7122 346.051 89.4062 346.793 89.2891 347.75H94.582V347.613C94.5299 346.695 94.2826 345.986 93.8398 345.484C93.3971 344.977 92.7982 344.723 92.043 344.723ZM107.414 348.834C107.414 350.442 107.046 351.738 106.311 352.721C105.575 353.704 104.579 354.195 103.322 354.195C102.04 354.195 101.031 353.788 100.295 352.975V358.062H98.4883V343.434H100.139L100.227 344.605C100.962 343.694 101.984 343.238 103.293 343.238C104.562 343.238 105.565 343.717 106.301 344.674C107.043 345.631 107.414 346.962 107.414 348.668V348.834ZM105.607 348.629C105.607 347.438 105.354 346.497 104.846 345.807C104.338 345.117 103.641 344.771 102.756 344.771C101.662 344.771 100.842 345.257 100.295 346.227V351.275C100.835 352.239 101.662 352.721 102.775 352.721C103.641 352.721 104.328 352.379 104.836 351.695C105.35 351.005 105.607 349.983 105.607 348.629ZM112.17 340.875V343.434H114.143V344.83H112.17V351.383C112.17 351.806 112.258 352.125 112.434 352.34C112.609 352.548 112.909 352.652 113.332 352.652C113.54 352.652 113.827 352.613 114.191 352.535V354C113.716 354.13 113.254 354.195 112.805 354.195C111.997 354.195 111.389 353.951 110.979 353.463C110.568 352.975 110.363 352.281 110.363 351.383V344.83H108.439V343.434H110.363V340.875H112.17ZM122.785 354C122.681 353.792 122.596 353.421 122.531 352.887C121.691 353.759 120.689 354.195 119.523 354.195C118.482 354.195 117.626 353.902 116.955 353.316C116.291 352.724 115.959 351.975 115.959 351.07C115.959 349.97 116.376 349.117 117.209 348.512C118.049 347.9 119.227 347.594 120.744 347.594H122.502V346.764C122.502 346.132 122.313 345.631 121.936 345.26C121.558 344.882 121.001 344.693 120.266 344.693C119.621 344.693 119.081 344.856 118.645 345.182C118.208 345.507 117.99 345.901 117.99 346.363H116.174C116.174 345.836 116.359 345.328 116.73 344.84C117.108 344.345 117.616 343.954 118.254 343.668C118.898 343.382 119.605 343.238 120.373 343.238C121.59 343.238 122.544 343.544 123.234 344.156C123.924 344.762 124.283 345.598 124.309 346.666V351.529C124.309 352.499 124.432 353.271 124.68 353.844V354H122.785ZM119.787 352.623C120.354 352.623 120.891 352.477 121.398 352.184C121.906 351.891 122.274 351.51 122.502 351.041V348.873H121.086C118.872 348.873 117.766 349.521 117.766 350.816C117.766 351.383 117.954 351.826 118.332 352.145C118.71 352.464 119.195 352.623 119.787 352.623ZM132.248 345.055C131.975 345.009 131.678 344.986 131.359 344.986C130.174 344.986 129.37 345.491 128.947 346.5V354H127.141V343.434H128.898L128.928 344.654C129.52 343.71 130.36 343.238 131.447 343.238C131.799 343.238 132.066 343.284 132.248 343.375V345.055Z" fill="black"/>
<path d="M293.109 349.488C292.934 350.992 292.377 352.154 291.439 352.975C290.508 353.788 289.268 354.195 287.719 354.195C286.039 354.195 284.691 353.593 283.676 352.389C282.667 351.184 282.162 349.573 282.162 347.555V346.188C282.162 344.866 282.396 343.704 282.865 342.701C283.34 341.699 284.011 340.93 284.877 340.396C285.743 339.856 286.745 339.586 287.885 339.586C289.395 339.586 290.606 340.009 291.518 340.855C292.429 341.695 292.96 342.861 293.109 344.352H291.225C291.062 343.219 290.707 342.398 290.16 341.891C289.62 341.383 288.861 341.129 287.885 341.129C286.687 341.129 285.746 341.572 285.062 342.457C284.385 343.342 284.047 344.602 284.047 346.236V347.613C284.047 349.156 284.369 350.383 285.014 351.295C285.658 352.206 286.56 352.662 287.719 352.662C288.76 352.662 289.558 352.428 290.111 351.959C290.671 351.484 291.042 350.66 291.225 349.488H293.109ZM301.918 354C301.814 353.792 301.729 353.421 301.664 352.887C300.824 353.759 299.822 354.195 298.656 354.195C297.615 354.195 296.758 353.902 296.088 353.316C295.424 352.724 295.092 351.975 295.092 351.07C295.092 349.97 295.508 349.117 296.342 348.512C297.182 347.9 298.36 347.594 299.877 347.594H301.635V346.764C301.635 346.132 301.446 345.631 301.068 345.26C300.691 344.882 300.134 344.693 299.398 344.693C298.754 344.693 298.214 344.856 297.777 345.182C297.341 345.507 297.123 345.901 297.123 346.363H295.307C295.307 345.836 295.492 345.328 295.863 344.84C296.241 344.345 296.749 343.954 297.387 343.668C298.031 343.382 298.738 343.238 299.506 343.238C300.723 343.238 301.677 343.544 302.367 344.156C303.057 344.762 303.415 345.598 303.441 346.666V351.529C303.441 352.499 303.565 353.271 303.812 353.844V354H301.918ZM298.92 352.623C299.486 352.623 300.023 352.477 300.531 352.184C301.039 351.891 301.407 351.51 301.635 351.041V348.873H300.219C298.005 348.873 296.898 349.521 296.898 350.816C296.898 351.383 297.087 351.826 297.465 352.145C297.842 352.464 298.327 352.623 298.92 352.623ZM307.982 343.434L308.041 344.762C308.848 343.746 309.903 343.238 311.205 343.238C313.438 343.238 314.564 344.498 314.584 347.018V354H312.777V347.008C312.771 346.246 312.595 345.683 312.25 345.318C311.911 344.954 311.381 344.771 310.658 344.771C310.072 344.771 309.558 344.928 309.115 345.24C308.673 345.553 308.327 345.963 308.08 346.471V354H306.273V343.434H307.982ZM321.547 352.721C322.191 352.721 322.755 352.525 323.236 352.135C323.718 351.744 323.985 351.256 324.037 350.67H325.746C325.714 351.275 325.505 351.852 325.121 352.398C324.737 352.945 324.223 353.382 323.578 353.707C322.94 354.033 322.263 354.195 321.547 354.195C320.108 354.195 318.962 353.717 318.109 352.76C317.263 351.796 316.84 350.481 316.84 348.814V348.512C316.84 347.483 317.029 346.568 317.406 345.768C317.784 344.967 318.324 344.345 319.027 343.902C319.737 343.46 320.574 343.238 321.537 343.238C322.722 343.238 323.705 343.593 324.486 344.303C325.274 345.012 325.694 345.934 325.746 347.066H324.037C323.985 346.383 323.725 345.823 323.256 345.387C322.794 344.944 322.221 344.723 321.537 344.723C320.619 344.723 319.906 345.055 319.398 345.719C318.897 346.376 318.646 347.33 318.646 348.58V348.922C318.646 350.139 318.897 351.077 319.398 351.734C319.9 352.392 320.616 352.721 321.547 352.721ZM332.162 354.195C330.73 354.195 329.564 353.727 328.666 352.789C327.768 351.845 327.318 350.585 327.318 349.01V348.678C327.318 347.63 327.517 346.695 327.914 345.875C328.318 345.048 328.878 344.404 329.594 343.941C330.316 343.473 331.098 343.238 331.938 343.238C333.311 343.238 334.379 343.691 335.141 344.596C335.902 345.501 336.283 346.796 336.283 348.482V349.234H329.125C329.151 350.276 329.454 351.119 330.033 351.764C330.619 352.402 331.361 352.721 332.26 352.721C332.898 352.721 333.438 352.59 333.881 352.33C334.324 352.07 334.711 351.725 335.043 351.295L336.146 352.154C335.261 353.515 333.933 354.195 332.162 354.195ZM331.938 344.723C331.208 344.723 330.596 344.99 330.102 345.523C329.607 346.051 329.301 346.793 329.184 347.75H334.477V347.613C334.424 346.695 334.177 345.986 333.734 345.484C333.292 344.977 332.693 344.723 331.938 344.723ZM340.346 354H338.539V339H340.346V354ZM349.77 354C349.665 353.792 349.581 353.421 349.516 352.887C348.676 353.759 347.673 354.195 346.508 354.195C345.466 354.195 344.61 353.902 343.939 353.316C343.275 352.724 342.943 351.975 342.943 351.07C342.943 349.97 343.36 349.117 344.193 348.512C345.033 347.9 346.212 347.594 347.729 347.594H349.486V346.764C349.486 346.132 349.298 345.631 348.92 345.26C348.542 344.882 347.986 344.693 347.25 344.693C346.605 344.693 346.065 344.856 345.629 345.182C345.193 345.507 344.975 345.901 344.975 346.363H343.158C343.158 345.836 343.344 345.328 343.715 344.84C344.092 344.345 344.6 343.954 345.238 343.668C345.883 343.382 346.589 343.238 347.357 343.238C348.575 343.238 349.529 343.544 350.219 344.156C350.909 344.762 351.267 345.598 351.293 346.666V351.529C351.293 352.499 351.417 353.271 351.664 353.844V354H349.77ZM346.771 352.623C347.338 352.623 347.875 352.477 348.383 352.184C348.891 351.891 349.258 351.51 349.486 351.041V348.873H348.07C345.857 348.873 344.75 349.521 344.75 350.816C344.75 351.383 344.939 351.826 345.316 352.145C345.694 352.464 346.179 352.623 346.771 352.623ZM359.232 345.055C358.959 345.009 358.663 344.986 358.344 344.986C357.159 344.986 356.355 345.491 355.932 346.5V354H354.125V343.434H355.883L355.912 344.654C356.505 343.71 357.344 343.238 358.432 343.238C358.783 343.238 359.05 343.284 359.232 343.375V345.055Z" fill="black"/>
<rect y="152" width="968" height="504" fill="white"/>
<rect x="216.5" y="275.5" width="599" height="34" fill="white" stroke="black"/>
<rect x="216.5" y="360.5" width="599" height="34" fill="white" stroke="black"/>
<path d="M32.5781 297H30.6934L23.5352 286.043V297H21.6504V282.781H23.5352L30.7129 293.787V282.781H32.5781V297ZM35.1465 291.619C35.1465 290.584 35.3483 289.653 35.752 288.826C36.1621 287.999 36.7285 287.361 37.4512 286.912C38.1803 286.463 39.0104 286.238 39.9414 286.238C41.3802 286.238 42.5423 286.736 43.4277 287.732C44.3197 288.729 44.7656 290.053 44.7656 291.707V291.834C44.7656 292.863 44.5671 293.787 44.1699 294.607C43.7793 295.421 43.2161 296.056 42.4805 296.512C41.7513 296.967 40.9115 297.195 39.9609 297.195C38.5286 297.195 37.3665 296.697 36.4746 295.701C35.5892 294.705 35.1465 293.387 35.1465 291.746V291.619ZM36.9629 291.834C36.9629 293.006 37.2331 293.947 37.7734 294.656C38.3203 295.366 39.0495 295.721 39.9609 295.721C40.8789 295.721 41.6081 295.363 42.1484 294.646C42.6888 293.924 42.959 292.915 42.959 291.619C42.959 290.46 42.6823 289.523 42.1289 288.807C41.582 288.084 40.8529 287.723 39.9414 287.723C39.0495 287.723 38.3301 288.077 37.7832 288.787C37.2363 289.497 36.9629 290.512 36.9629 291.834ZM48.7305 286.434L48.7793 287.605C49.554 286.694 50.599 286.238 51.9141 286.238C53.3919 286.238 54.3978 286.805 54.9316 287.938C55.2832 287.43 55.7389 287.02 56.2988 286.707C56.8652 286.395 57.5326 286.238 58.3008 286.238C60.6185 286.238 61.7969 287.465 61.8359 289.92V297H60.0293V290.027C60.0293 289.272 59.8568 288.709 59.5117 288.338C59.1667 287.96 58.5872 287.771 57.7734 287.771C57.1029 287.771 56.5462 287.973 56.1035 288.377C55.6608 288.774 55.4036 289.311 55.332 289.988V297H53.5156V290.076C53.5156 288.54 52.7637 287.771 51.2598 287.771C50.0749 287.771 49.2643 288.276 48.8281 289.285V297H47.0215V286.434H48.7305ZM73.5156 291.834C73.5156 293.449 73.1445 294.747 72.4023 295.73C71.6602 296.707 70.6641 297.195 69.4141 297.195C68.0794 297.195 67.0475 296.723 66.3184 295.779L66.2305 297H64.5703V282H66.377V287.596C67.1061 286.691 68.112 286.238 69.3945 286.238C70.6771 286.238 71.6829 286.723 72.4121 287.693C73.1478 288.663 73.5156 289.992 73.5156 291.678V291.834ZM71.709 291.629C71.709 290.398 71.4714 289.448 70.9961 288.777C70.5208 288.107 69.8372 287.771 68.9453 287.771C67.7539 287.771 66.8978 288.325 66.377 289.432V294.002C66.9303 295.109 67.793 295.662 68.9648 295.662C69.8307 295.662 70.5046 295.327 70.9863 294.656C71.4681 293.986 71.709 292.977 71.709 291.629ZM80.9082 288.055C80.6348 288.009 80.3385 287.986 80.0195 287.986C78.8346 287.986 78.0306 288.491 77.6074 289.5V297H75.8008V286.434H77.5586L77.5879 287.654C78.1803 286.71 79.0202 286.238 80.1074 286.238C80.459 286.238 80.7259 286.284 80.9082 286.375V288.055ZM86.7676 297.195C85.3353 297.195 84.1699 296.727 83.2715 295.789C82.373 294.845 81.9238 293.585 81.9238 292.01V291.678C81.9238 290.63 82.1224 289.695 82.5195 288.875C82.9232 288.048 83.4831 287.404 84.1992 286.941C84.9219 286.473 85.7031 286.238 86.543 286.238C87.9167 286.238 88.9844 286.691 89.7461 287.596C90.5078 288.501 90.8887 289.796 90.8887 291.482V292.234H83.7305C83.7565 293.276 84.0592 294.119 84.6387 294.764C85.2246 295.402 85.9668 295.721 86.8652 295.721C87.5033 295.721 88.0436 295.59 88.4863 295.33C88.929 295.07 89.3164 294.725 89.6484 294.295L90.752 295.154C89.8665 296.515 88.5384 297.195 86.7676 297.195ZM86.543 287.723C85.8138 287.723 85.2018 287.99 84.707 288.523C84.2122 289.051 83.9062 289.793 83.7891 290.75H89.082V290.613C89.0299 289.695 88.7826 288.986 88.3398 288.484C87.8971 287.977 87.2982 287.723 86.543 287.723ZM104.189 282.781H106.074V292.85C106.074 294.21 105.664 295.275 104.844 296.043C104.03 296.811 102.943 297.195 101.582 297.195C100.169 297.195 99.069 296.834 98.2812 296.111C97.4935 295.389 97.0996 294.376 97.0996 293.074H98.9746C98.9746 293.888 99.196 294.523 99.6387 294.979C100.088 295.434 100.736 295.662 101.582 295.662C102.357 295.662 102.982 295.418 103.457 294.93C103.939 294.441 104.183 293.758 104.189 292.879V282.781ZM115.508 295.955C114.805 296.782 113.773 297.195 112.412 297.195C111.286 297.195 110.426 296.87 109.834 296.219C109.248 295.561 108.952 294.591 108.945 293.309V286.434H110.752V293.26C110.752 294.861 111.403 295.662 112.705 295.662C114.085 295.662 115.003 295.148 115.459 294.119V286.434H117.266V297H115.547L115.508 295.955ZM119.59 291.629C119.59 289.982 119.971 288.673 120.732 287.703C121.494 286.727 122.503 286.238 123.76 286.238C125.049 286.238 126.055 286.694 126.777 287.605L126.865 286.434H128.516V296.746C128.516 298.113 128.109 299.191 127.295 299.979C126.488 300.766 125.4 301.16 124.033 301.16C123.271 301.16 122.526 300.997 121.797 300.672C121.068 300.346 120.511 299.9 120.127 299.334L121.064 298.25C121.839 299.207 122.786 299.686 123.906 299.686C124.785 299.686 125.469 299.438 125.957 298.943C126.452 298.449 126.699 297.752 126.699 296.854V295.945C125.977 296.779 124.99 297.195 123.74 297.195C122.503 297.195 121.501 296.697 120.732 295.701C119.971 294.705 119.59 293.348 119.59 291.629ZM121.406 291.834C121.406 293.025 121.65 293.963 122.139 294.646C122.627 295.324 123.311 295.662 124.189 295.662C125.329 295.662 126.165 295.145 126.699 294.109V289.285C126.146 288.276 125.316 287.771 124.209 287.771C123.33 287.771 122.643 288.113 122.148 288.797C121.654 289.48 121.406 290.493 121.406 291.834ZM137.773 297C137.669 296.792 137.585 296.421 137.52 295.887C136.68 296.759 135.677 297.195 134.512 297.195C133.47 297.195 132.614 296.902 131.943 296.316C131.279 295.724 130.947 294.975 130.947 294.07C130.947 292.97 131.364 292.117 132.197 291.512C133.037 290.9 134.215 290.594 135.732 290.594H137.49V289.764C137.49 289.132 137.301 288.631 136.924 288.26C136.546 287.882 135.99 287.693 135.254 287.693C134.609 287.693 134.069 287.856 133.633 288.182C133.197 288.507 132.979 288.901 132.979 289.363H131.162C131.162 288.836 131.348 288.328 131.719 287.84C132.096 287.345 132.604 286.954 133.242 286.668C133.887 286.382 134.593 286.238 135.361 286.238C136.579 286.238 137.533 286.544 138.223 287.156C138.913 287.762 139.271 288.598 139.297 289.666V294.529C139.297 295.499 139.421 296.271 139.668 296.844V297H137.773ZM134.775 295.623C135.342 295.623 135.879 295.477 136.387 295.184C136.895 294.891 137.262 294.51 137.49 294.041V291.873H136.074C133.861 291.873 132.754 292.521 132.754 293.816C132.754 294.383 132.943 294.826 133.32 295.145C133.698 295.464 134.183 295.623 134.775 295.623ZM141.689 291.629C141.689 290.008 142.074 288.706 142.842 287.723C143.61 286.733 144.616 286.238 145.859 286.238C147.096 286.238 148.076 286.661 148.799 287.508V282H150.605V297H148.945L148.857 295.867C148.135 296.753 147.129 297.195 145.84 297.195C144.616 297.195 143.617 296.694 142.842 295.691C142.074 294.689 141.689 293.38 141.689 291.766V291.629ZM143.496 291.834C143.496 293.032 143.743 293.969 144.238 294.646C144.733 295.324 145.417 295.662 146.289 295.662C147.435 295.662 148.271 295.148 148.799 294.119V289.266C148.258 288.27 147.428 287.771 146.309 287.771C145.423 287.771 144.733 288.113 144.238 288.797C143.743 289.48 143.496 290.493 143.496 291.834ZM152.939 291.619C152.939 290.584 153.141 289.653 153.545 288.826C153.955 287.999 154.521 287.361 155.244 286.912C155.973 286.463 156.803 286.238 157.734 286.238C159.173 286.238 160.335 286.736 161.221 287.732C162.113 288.729 162.559 290.053 162.559 291.707V291.834C162.559 292.863 162.36 293.787 161.963 294.607C161.572 295.421 161.009 296.056 160.273 296.512C159.544 296.967 158.704 297.195 157.754 297.195C156.322 297.195 155.16 296.697 154.268 295.701C153.382 294.705 152.939 293.387 152.939 291.746V291.619ZM154.756 291.834C154.756 293.006 155.026 293.947 155.566 294.656C156.113 295.366 156.842 295.721 157.754 295.721C158.672 295.721 159.401 295.363 159.941 294.646C160.482 293.924 160.752 292.915 160.752 291.619C160.752 290.46 160.475 289.523 159.922 288.807C159.375 288.084 158.646 287.723 157.734 287.723C156.842 287.723 156.123 288.077 155.576 288.787C155.029 289.497 154.756 290.512 154.756 291.834ZM169.932 288.055C169.658 288.009 169.362 287.986 169.043 287.986C167.858 287.986 167.054 288.491 166.631 289.5V297H164.824V286.434H166.582L166.611 287.654C167.204 286.71 168.044 286.238 169.131 286.238C169.482 286.238 169.749 286.284 169.932 286.375V288.055ZM171.543 296.053C171.543 295.74 171.634 295.48 171.816 295.271C172.005 295.063 172.285 294.959 172.656 294.959C173.027 294.959 173.307 295.063 173.496 295.271C173.691 295.48 173.789 295.74 173.789 296.053C173.789 296.352 173.691 296.603 173.496 296.805C173.307 297.007 173.027 297.107 172.656 297.107C172.285 297.107 172.005 297.007 171.816 296.805C171.634 296.603 171.543 296.352 171.543 296.053ZM171.553 287.43C171.553 287.117 171.644 286.857 171.826 286.648C172.015 286.44 172.295 286.336 172.666 286.336C173.037 286.336 173.317 286.44 173.506 286.648C173.701 286.857 173.799 287.117 173.799 287.43C173.799 287.729 173.701 287.98 173.506 288.182C173.317 288.383 173.037 288.484 172.666 288.484C172.295 288.484 172.015 288.383 171.826 288.182C171.644 287.98 171.553 287.729 171.553 287.43Z" fill="black"/>
<path d="M21.6504 395V380.781H25.6641C26.901 380.781 27.9948 381.055 28.9453 381.602C29.8958 382.148 30.6283 382.926 31.1426 383.936C31.6634 384.945 31.9271 386.104 31.9336 387.412V388.32C31.9336 389.661 31.6732 390.837 31.1523 391.846C30.638 392.855 29.8991 393.63 28.9355 394.17C27.9785 394.71 26.862 394.987 25.5859 395H21.6504ZM23.5254 382.324V393.467H25.498C26.9434 393.467 28.0664 393.018 28.8672 392.119C29.6745 391.221 30.0781 389.941 30.0781 388.281V387.451C30.0781 385.837 29.6973 384.583 28.9355 383.691C28.1803 382.793 27.1061 382.337 25.7129 382.324H23.5254ZM41.0156 393.955C40.3125 394.782 39.2806 395.195 37.9199 395.195C36.7936 395.195 35.9342 394.87 35.3418 394.219C34.7559 393.561 34.4596 392.591 34.4531 391.309V384.434H36.2598V391.26C36.2598 392.861 36.9108 393.662 38.2129 393.662C39.5931 393.662 40.5111 393.148 40.9668 392.119V384.434H42.7734V395H41.0547L41.0156 393.955ZM50.6348 386.055C50.3613 386.009 50.0651 385.986 49.7461 385.986C48.5612 385.986 47.7572 386.491 47.334 387.5V395H45.5273V384.434H47.2852L47.3145 385.654C47.9069 384.71 48.7467 384.238 49.834 384.238C50.1855 384.238 50.4525 384.284 50.6348 384.375V386.055ZM58.4375 395C58.3333 394.792 58.2487 394.421 58.1836 393.887C57.3438 394.759 56.3411 395.195 55.1758 395.195C54.1341 395.195 53.278 394.902 52.6074 394.316C51.9434 393.724 51.6113 392.975 51.6113 392.07C51.6113 390.97 52.028 390.117 52.8613 389.512C53.7012 388.9 54.8796 388.594 56.3965 388.594H58.1543V387.764C58.1543 387.132 57.9655 386.631 57.5879 386.26C57.2103 385.882 56.6536 385.693 55.918 385.693C55.2734 385.693 54.7331 385.856 54.2969 386.182C53.8607 386.507 53.6426 386.901 53.6426 387.363H51.8262C51.8262 386.836 52.0117 386.328 52.3828 385.84C52.7604 385.345 53.2682 384.954 53.9062 384.668C54.5508 384.382 55.2572 384.238 56.0254 384.238C57.2428 384.238 58.1966 384.544 58.8867 385.156C59.5768 385.762 59.9349 386.598 59.9609 387.666V392.529C59.9609 393.499 60.0846 394.271 60.332 394.844V395H58.4375ZM55.4395 393.623C56.0059 393.623 56.543 393.477 57.0508 393.184C57.5586 392.891 57.9264 392.51 58.1543 392.041V389.873H56.7383C54.5247 389.873 53.418 390.521 53.418 391.816C53.418 392.383 53.6068 392.826 53.9844 393.145C54.362 393.464 54.847 393.623 55.4395 393.623ZM67.0312 393.721C67.6758 393.721 68.2389 393.525 68.7207 393.135C69.2025 392.744 69.4694 392.256 69.5215 391.67H71.2305C71.1979 392.275 70.9896 392.852 70.6055 393.398C70.2214 393.945 69.707 394.382 69.0625 394.707C68.4245 395.033 67.7474 395.195 67.0312 395.195C65.5924 395.195 64.4466 394.717 63.5938 393.76C62.7474 392.796 62.3242 391.481 62.3242 389.814V389.512C62.3242 388.483 62.513 387.568 62.8906 386.768C63.2682 385.967 63.8086 385.345 64.5117 384.902C65.2214 384.46 66.0579 384.238 67.0215 384.238C68.2064 384.238 69.1895 384.593 69.9707 385.303C70.7585 386.012 71.1784 386.934 71.2305 388.066H69.5215C69.4694 387.383 69.209 386.823 68.7402 386.387C68.278 385.944 67.7051 385.723 67.0215 385.723C66.1035 385.723 65.3906 386.055 64.8828 386.719C64.3815 387.376 64.1309 388.33 64.1309 389.58V389.922C64.1309 391.139 64.3815 392.077 64.8828 392.734C65.3841 393.392 66.1003 393.721 67.0312 393.721ZM75.2246 395H73.418V384.434H75.2246V395ZM73.2715 381.631C73.2715 381.338 73.3594 381.09 73.5352 380.889C73.7174 380.687 73.9844 380.586 74.3359 380.586C74.6875 380.586 74.9544 380.687 75.1367 380.889C75.319 381.09 75.4102 381.338 75.4102 381.631C75.4102 381.924 75.319 382.168 75.1367 382.363C74.9544 382.559 74.6875 382.656 74.3359 382.656C73.9844 382.656 73.7174 382.559 73.5352 382.363C73.3594 382.168 73.2715 381.924 73.2715 381.631ZM77.6465 389.619C77.6465 388.584 77.8483 387.653 78.252 386.826C78.6621 385.999 79.2285 385.361 79.9512 384.912C80.6803 384.463 81.5104 384.238 82.4414 384.238C83.8802 384.238 85.0423 384.736 85.9277 385.732C86.8197 386.729 87.2656 388.053 87.2656 389.707V389.834C87.2656 390.863 87.0671 391.787 86.6699 392.607C86.2793 393.421 85.7161 394.056 84.9805 394.512C84.2513 394.967 83.4115 395.195 82.4609 395.195C81.0286 395.195 79.8665 394.697 78.9746 393.701C78.0892 392.705 77.6465 391.387 77.6465 389.746V389.619ZM79.4629 389.834C79.4629 391.006 79.7331 391.947 80.2734 392.656C80.8203 393.366 81.5495 393.721 82.4609 393.721C83.3789 393.721 84.1081 393.363 84.6484 392.646C85.1888 391.924 85.459 390.915 85.459 389.619C85.459 388.46 85.1823 387.523 84.6289 386.807C84.082 386.084 83.3529 385.723 82.4414 385.723C81.5495 385.723 80.8301 386.077 80.2832 386.787C79.7363 387.497 79.4629 388.512 79.4629 389.834ZM83.2617 380H85.4492L82.832 382.871H81.377L83.2617 380ZM91.2402 384.434L91.2988 385.762C92.1061 384.746 93.1608 384.238 94.4629 384.238C96.696 384.238 97.8223 385.498 97.8418 388.018V395H96.0352V388.008C96.0286 387.246 95.8529 386.683 95.5078 386.318C95.1693 385.954 94.6387 385.771 93.916 385.771C93.3301 385.771 92.8158 385.928 92.373 386.24C91.9303 386.553 91.5853 386.963 91.3379 387.471V395H89.5312V384.434H91.2402ZM105.088 389.629C105.088 388.008 105.472 386.706 106.24 385.723C107.008 384.733 108.014 384.238 109.258 384.238C110.495 384.238 111.475 384.661 112.197 385.508V380H114.004V395H112.344L112.256 393.867C111.533 394.753 110.527 395.195 109.238 395.195C108.014 395.195 107.015 394.694 106.24 393.691C105.472 392.689 105.088 391.38 105.088 389.766V389.629ZM106.895 389.834C106.895 391.032 107.142 391.969 107.637 392.646C108.132 393.324 108.815 393.662 109.688 393.662C110.833 393.662 111.67 393.148 112.197 392.119V387.266C111.657 386.27 110.827 385.771 109.707 385.771C108.822 385.771 108.132 386.113 107.637 386.797C107.142 387.48 106.895 388.493 106.895 389.834ZM121.201 395.195C119.769 395.195 118.604 394.727 117.705 393.789C116.807 392.845 116.357 391.585 116.357 390.01V389.678C116.357 388.63 116.556 387.695 116.953 386.875C117.357 386.048 117.917 385.404 118.633 384.941C119.355 384.473 120.137 384.238 120.977 384.238C122.35 384.238 123.418 384.691 124.18 385.596C124.941 386.501 125.322 387.796 125.322 389.482V390.234H118.164C118.19 391.276 118.493 392.119 119.072 392.764C119.658 393.402 120.4 393.721 121.299 393.721C121.937 393.721 122.477 393.59 122.92 393.33C123.363 393.07 123.75 392.725 124.082 392.295L125.186 393.154C124.3 394.515 122.972 395.195 121.201 395.195ZM120.977 385.723C120.247 385.723 119.635 385.99 119.141 386.523C118.646 387.051 118.34 387.793 118.223 388.75H123.516V388.613C123.464 387.695 123.216 386.986 122.773 386.484C122.331 385.977 121.732 385.723 120.977 385.723ZM129.385 395H127.578V380H129.385V395ZM146.963 382.324H142.393V395H140.527V382.324H135.967V380.781H146.963V382.324ZM150.752 395H148.945V384.434H150.752V395ZM148.799 381.631C148.799 381.338 148.887 381.09 149.062 380.889C149.245 380.687 149.512 380.586 149.863 380.586C150.215 380.586 150.482 380.687 150.664 380.889C150.846 381.09 150.938 381.338 150.938 381.631C150.938 381.924 150.846 382.168 150.664 382.363C150.482 382.559 150.215 382.656 149.863 382.656C149.512 382.656 149.245 382.559 149.062 382.363C148.887 382.168 148.799 381.924 148.799 381.631ZM155.352 384.434L155.4 385.605C156.175 384.694 157.22 384.238 158.535 384.238C160.013 384.238 161.019 384.805 161.553 385.938C161.904 385.43 162.36 385.02 162.92 384.707C163.486 384.395 164.154 384.238 164.922 384.238C167.24 384.238 168.418 385.465 168.457 387.92V395H166.65V388.027C166.65 387.272 166.478 386.709 166.133 386.338C165.788 385.96 165.208 385.771 164.395 385.771C163.724 385.771 163.167 385.973 162.725 386.377C162.282 386.774 162.025 387.311 161.953 387.988V395H160.137V388.076C160.137 386.54 159.385 385.771 157.881 385.771C156.696 385.771 155.885 386.276 155.449 387.285V395H153.643V384.434H155.352ZM175.576 395.195C174.144 395.195 172.979 394.727 172.08 393.789C171.182 392.845 170.732 391.585 170.732 390.01V389.678C170.732 388.63 170.931 387.695 171.328 386.875C171.732 386.048 172.292 385.404 173.008 384.941C173.73 384.473 174.512 384.238 175.352 384.238C176.725 384.238 177.793 384.691 178.555 385.596C179.316 386.501 179.697 387.796 179.697 389.482V390.234H172.539C172.565 391.276 172.868 392.119 173.447 392.764C174.033 393.402 174.775 393.721 175.674 393.721C176.312 393.721 176.852 393.59 177.295 393.33C177.738 393.07 178.125 392.725 178.457 392.295L179.561 393.154C178.675 394.515 177.347 395.195 175.576 395.195ZM175.352 385.723C174.622 385.723 174.01 385.99 173.516 386.523C173.021 387.051 172.715 387.793 172.598 388.75H177.891V388.613C177.839 387.695 177.591 386.986 177.148 386.484C176.706 385.977 176.107 385.723 175.352 385.723ZM186.904 386.055C186.631 386.009 186.335 385.986 186.016 385.986C184.831 385.986 184.027 386.491 183.604 387.5V395H181.797V384.434H183.555L183.584 385.654C184.176 384.71 185.016 384.238 186.104 384.238C186.455 384.238 186.722 384.284 186.904 384.375V386.055ZM188.516 394.053C188.516 393.74 188.607 393.48 188.789 393.271C188.978 393.063 189.258 392.959 189.629 392.959C190 392.959 190.28 393.063 190.469 393.271C190.664 393.48 190.762 393.74 190.762 394.053C190.762 394.352 190.664 394.603 190.469 394.805C190.28 395.007 190 395.107 189.629 395.107C189.258 395.107 188.978 395.007 188.789 394.805C188.607 394.603 188.516 394.352 188.516 394.053ZM188.525 385.43C188.525 385.117 188.617 384.857 188.799 384.648C188.988 384.44 189.268 384.336 189.639 384.336C190.01 384.336 190.29 384.44 190.479 384.648C190.674 384.857 190.771 385.117 190.771 385.43C190.771 385.729 190.674 385.98 190.479 386.182C190.29 386.383 190.01 386.484 189.639 386.484C189.268 386.484 188.988 386.383 188.799 386.182C188.617 385.98 188.525 385.729 188.525 385.43Z" fill="black"/>
<rect x="22.5" y="561.5" width="160" height="50" rx="13.5" fill="#5B5B5B" stroke="black"/>
<rect x="243.5" y="561.5" width="160" height="50" rx="13.5" fill="white" stroke="black"/>
<path d="M72.502 590.289H66.5449L65.207 594H63.2734L68.7031 579.781H70.3438L75.7832 594H73.8594L72.502 590.289ZM67.1113 588.746H71.9453L69.5234 582.096L67.1113 588.746ZM81.6523 592.721C82.2969 592.721 82.86 592.525 83.3418 592.135C83.8236 591.744 84.0905 591.256 84.1426 590.67H85.8516C85.819 591.275 85.6107 591.852 85.2266 592.398C84.8424 592.945 84.3281 593.382 83.6836 593.707C83.0456 594.033 82.3685 594.195 81.6523 594.195C80.2135 594.195 79.0677 593.717 78.2148 592.76C77.3685 591.796 76.9453 590.481 76.9453 588.814V588.512C76.9453 587.483 77.1341 586.568 77.5117 585.768C77.8893 584.967 78.4297 584.345 79.1328 583.902C79.8424 583.46 80.679 583.238 81.6426 583.238C82.8275 583.238 83.8105 583.593 84.5918 584.303C85.3796 585.012 85.7995 585.934 85.8516 587.066H84.1426C84.0905 586.383 83.8301 585.823 83.3613 585.387C82.8991 584.944 82.3262 584.723 81.6426 584.723C80.7246 584.723 80.0117 585.055 79.5039 585.719C79.0026 586.376 78.752 587.33 78.752 588.58V588.922C78.752 590.139 79.0026 591.077 79.5039 591.734C80.0052 592.392 80.7214 592.721 81.6523 592.721ZM92.2676 594.195C90.8353 594.195 89.6699 593.727 88.7715 592.789C87.873 591.845 87.4238 590.585 87.4238 589.01V588.678C87.4238 587.63 87.6224 586.695 88.0195 585.875C88.4232 585.048 88.9831 584.404 89.6992 583.941C90.4219 583.473 91.2031 583.238 92.043 583.238C93.4167 583.238 94.4844 583.691 95.2461 584.596C96.0078 585.501 96.3887 586.796 96.3887 588.482V589.234H89.2305C89.2565 590.276 89.5592 591.119 90.1387 591.764C90.7246 592.402 91.4668 592.721 92.3652 592.721C93.0033 592.721 93.5436 592.59 93.9863 592.33C94.429 592.07 94.8164 591.725 95.1484 591.295L96.252 592.154C95.3665 593.515 94.0384 594.195 92.2676 594.195ZM92.043 584.723C91.3138 584.723 90.7018 584.99 90.207 585.523C89.7122 586.051 89.4062 586.793 89.2891 587.75H94.582V587.613C94.5299 586.695 94.2826 585.986 93.8398 585.484C93.3971 584.977 92.7982 584.723 92.043 584.723ZM107.414 588.834C107.414 590.442 107.046 591.738 106.311 592.721C105.575 593.704 104.579 594.195 103.322 594.195C102.04 594.195 101.031 593.788 100.295 592.975V598.062H98.4883V583.434H100.139L100.227 584.605C100.962 583.694 101.984 583.238 103.293 583.238C104.562 583.238 105.565 583.717 106.301 584.674C107.043 585.631 107.414 586.962 107.414 588.668V588.834ZM105.607 588.629C105.607 587.438 105.354 586.497 104.846 585.807C104.338 585.117 103.641 584.771 102.756 584.771C101.662 584.771 100.842 585.257 100.295 586.227V591.275C100.835 592.239 101.662 592.721 102.775 592.721C103.641 592.721 104.328 592.379 104.836 591.695C105.35 591.005 105.607 589.983 105.607 588.629ZM112.17 580.875V583.434H114.143V584.83H112.17V591.383C112.17 591.806 112.258 592.125 112.434 592.34C112.609 592.548 112.909 592.652 113.332 592.652C113.54 592.652 113.827 592.613 114.191 592.535V594C113.716 594.13 113.254 594.195 112.805 594.195C111.997 594.195 111.389 593.951 110.979 593.463C110.568 592.975 110.363 592.281 110.363 591.383V584.83H108.439V583.434H110.363V580.875H112.17ZM122.785 594C122.681 593.792 122.596 593.421 122.531 592.887C121.691 593.759 120.689 594.195 119.523 594.195C118.482 594.195 117.626 593.902 116.955 593.316C116.291 592.724 115.959 591.975 115.959 591.07C115.959 589.97 116.376 589.117 117.209 588.512C118.049 587.9 119.227 587.594 120.744 587.594H122.502V586.764C122.502 586.132 122.313 585.631 121.936 585.26C121.558 584.882 121.001 584.693 120.266 584.693C119.621 584.693 119.081 584.856 118.645 585.182C118.208 585.507 117.99 585.901 117.99 586.363H116.174C116.174 585.836 116.359 585.328 116.73 584.84C117.108 584.345 117.616 583.954 118.254 583.668C118.898 583.382 119.605 583.238 120.373 583.238C121.59 583.238 122.544 583.544 123.234 584.156C123.924 584.762 124.283 585.598 124.309 586.666V591.529C124.309 592.499 124.432 593.271 124.68 593.844V594H122.785ZM119.787 592.623C120.354 592.623 120.891 592.477 121.398 592.184C121.906 591.891 122.274 591.51 122.502 591.041V588.873H121.086C118.872 588.873 117.766 589.521 117.766 590.816C117.766 591.383 117.954 591.826 118.332 592.145C118.71 592.464 119.195 592.623 119.787 592.623ZM132.248 585.055C131.975 585.009 131.678 584.986 131.359 584.986C130.174 584.986 129.37 585.491 128.947 586.5V594H127.141V583.434H128.898L128.928 584.654C129.52 583.71 130.36 583.238 131.447 583.238C131.799 583.238 132.066 583.284 132.248 583.375V585.055Z" fill="black"/>
<path d="M293.109 589.488C292.934 590.992 292.377 592.154 291.439 592.975C290.508 593.788 289.268 594.195 287.719 594.195C286.039 594.195 284.691 593.593 283.676 592.389C282.667 591.184 282.162 589.573 282.162 587.555V586.188C282.162 584.866 282.396 583.704 282.865 582.701C283.34 581.699 284.011 580.93 284.877 580.396C285.743 579.856 286.745 579.586 287.885 579.586C289.395 579.586 290.606 580.009 291.518 580.855C292.429 581.695 292.96 582.861 293.109 584.352H291.225C291.062 583.219 290.707 582.398 290.16 581.891C289.62 581.383 288.861 581.129 287.885 581.129C286.687 581.129 285.746 581.572 285.062 582.457C284.385 583.342 284.047 584.602 284.047 586.236V587.613C284.047 589.156 284.369 590.383 285.014 591.295C285.658 592.206 286.56 592.662 287.719 592.662C288.76 592.662 289.558 592.428 290.111 591.959C290.671 591.484 291.042 590.66 291.225 589.488H293.109ZM301.918 594C301.814 593.792 301.729 593.421 301.664 592.887C300.824 593.759 299.822 594.195 298.656 594.195C297.615 594.195 296.758 593.902 296.088 593.316C295.424 592.724 295.092 591.975 295.092 591.07C295.092 589.97 295.508 589.117 296.342 588.512C297.182 587.9 298.36 587.594 299.877 587.594H301.635V586.764C301.635 586.132 301.446 585.631 301.068 585.26C300.691 584.882 300.134 584.693 299.398 584.693C298.754 584.693 298.214 584.856 297.777 585.182C297.341 585.507 297.123 585.901 297.123 586.363H295.307C295.307 585.836 295.492 585.328 295.863 584.84C296.241 584.345 296.749 583.954 297.387 583.668C298.031 583.382 298.738 583.238 299.506 583.238C300.723 583.238 301.677 583.544 302.367 584.156C303.057 584.762 303.415 585.598 303.441 586.666V591.529C303.441 592.499 303.565 593.271 303.812 593.844V594H301.918ZM298.92 592.623C299.486 592.623 300.023 592.477 300.531 592.184C301.039 591.891 301.407 591.51 301.635 591.041V588.873H300.219C298.005 588.873 296.898 589.521 296.898 590.816C296.898 591.383 297.087 591.826 297.465 592.145C297.842 592.464 298.327 592.623 298.92 592.623ZM307.982 583.434L308.041 584.762C308.848 583.746 309.903 583.238 311.205 583.238C313.438 583.238 314.564 584.498 314.584 587.018V594H312.777V587.008C312.771 586.246 312.595 585.683 312.25 585.318C311.911 584.954 311.381 584.771 310.658 584.771C310.072 584.771 309.558 584.928 309.115 585.24C308.673 585.553 308.327 585.963 308.08 586.471V594H306.273V583.434H307.982ZM321.547 592.721C322.191 592.721 322.755 592.525 323.236 592.135C323.718 591.744 323.985 591.256 324.037 590.67H325.746C325.714 591.275 325.505 591.852 325.121 592.398C324.737 592.945 324.223 593.382 323.578 593.707C322.94 594.033 322.263 594.195 321.547 594.195C320.108 594.195 318.962 593.717 318.109 592.76C317.263 591.796 316.84 590.481 316.84 588.814V588.512C316.84 587.483 317.029 586.568 317.406 585.768C317.784 584.967 318.324 584.345 319.027 583.902C319.737 583.46 320.574 583.238 321.537 583.238C322.722 583.238 323.705 583.593 324.486 584.303C325.274 585.012 325.694 585.934 325.746 587.066H324.037C323.985 586.383 323.725 585.823 323.256 585.387C322.794 584.944 322.221 584.723 321.537 584.723C320.619 584.723 319.906 585.055 319.398 585.719C318.897 586.376 318.646 587.33 318.646 588.58V588.922C318.646 590.139 318.897 591.077 319.398 591.734C319.9 592.392 320.616 592.721 321.547 592.721ZM332.162 594.195C330.73 594.195 329.564 593.727 328.666 592.789C327.768 591.845 327.318 590.585 327.318 589.01V588.678C327.318 587.63 327.517 586.695 327.914 585.875C328.318 585.048 328.878 584.404 329.594 583.941C330.316 583.473 331.098 583.238 331.938 583.238C333.311 583.238 334.379 583.691 335.141 584.596C335.902 585.501 336.283 586.796 336.283 588.482V589.234H329.125C329.151 590.276 329.454 591.119 330.033 591.764C330.619 592.402 331.361 592.721 332.26 592.721C332.898 592.721 333.438 592.59 333.881 592.33C334.324 592.07 334.711 591.725 335.043 591.295L336.146 592.154C335.261 593.515 333.933 594.195 332.162 594.195ZM331.938 584.723C331.208 584.723 330.596 584.99 330.102 585.523C329.607 586.051 329.301 586.793 329.184 587.75H334.477V587.613C334.424 586.695 334.177 585.986 333.734 585.484C333.292 584.977 332.693 584.723 331.938 584.723ZM340.346 594H338.539V579H340.346V594ZM349.77 594C349.665 593.792 349.581 593.421 349.516 592.887C348.676 593.759 347.673 594.195 346.508 594.195C345.466 594.195 344.61 593.902 343.939 593.316C343.275 592.724 342.943 591.975 342.943 591.07C342.943 589.97 343.36 589.117 344.193 588.512C345.033 587.9 346.212 587.594 347.729 587.594H349.486V586.764C349.486 586.132 349.298 585.631 348.92 585.26C348.542 584.882 347.986 584.693 347.25 584.693C346.605 584.693 346.065 584.856 345.629 585.182C345.193 585.507 344.975 585.901 344.975 586.363H343.158C343.158 585.836 343.344 585.328 343.715 584.84C344.092 584.345 344.6 583.954 345.238 583.668C345.883 583.382 346.589 583.238 347.357 583.238C348.575 583.238 349.529 583.544 350.219 584.156C350.909 584.762 351.267 585.598 351.293 586.666V591.529C351.293 592.499 351.417 593.271 351.664 593.844V594H349.77ZM346.771 592.623C347.338 592.623 347.875 592.477 348.383 592.184C348.891 591.891 349.258 591.51 349.486 591.041V588.873H348.07C345.857 588.873 344.75 589.521 344.75 590.816C344.75 591.383 344.939 591.826 345.316 592.145C345.694 592.464 346.179 592.623 346.771 592.623ZM359.232 585.055C358.959 585.009 358.663 584.986 358.344 584.986C357.159 584.986 356.355 585.491 355.932 586.5V594H354.125V583.434H355.883L355.912 584.654C356.505 583.71 357.344 583.238 358.432 583.238C358.783 583.238 359.05 583.284 359.232 583.375V585.055Z" fill="black"/>
<line x1="20.0027" y1="223" x2="919.999" y2="225.413" stroke="#11D0C5" stroke-width="2"/>
<path d="M34.918 192.316C34.7852 194.152 34.1055 195.598 32.8789 196.652C31.6602 197.707 30.0508 198.234 28.0508 198.234C25.8633 198.234 24.1406 197.5 22.8828 196.031C21.6328 194.555 21.0078 192.531 21.0078 189.961V188.918C21.0078 187.277 21.2969 185.832 21.875 184.582C22.4531 183.332 23.2773 182.375 24.3477 181.711C25.4258 181.039 26.6758 180.703 28.0977 180.703C30.0664 180.703 31.6523 181.23 32.8555 182.285C34.0586 183.34 34.7539 184.82 34.9414 186.727H31.4258C31.3398 185.625 31.0312 184.828 30.5 184.336C29.9766 183.836 29.1758 183.586 28.0977 183.586C26.9258 183.586 26.0469 184.008 25.4609 184.852C24.8828 185.688 24.5859 186.988 24.5703 188.754V190.043C24.5703 191.887 24.8477 193.234 25.4023 194.086C25.9648 194.938 26.8477 195.363 28.0508 195.363C29.1367 195.363 29.9453 195.117 30.4766 194.625C31.0156 194.125 31.3242 193.355 31.4023 192.316H34.918ZM44.1289 188.496C43.668 188.434 43.2617 188.402 42.9102 188.402C41.6289 188.402 40.7891 188.836 40.3906 189.703V198H37.0039V185.32H40.2031L40.2969 186.832C40.9766 185.668 41.918 185.086 43.1211 185.086C43.4961 185.086 43.8477 185.137 44.1758 185.238L44.1289 188.496ZM51.3711 198.234C49.5117 198.234 47.9961 197.664 46.8242 196.523C45.6602 195.383 45.0781 193.863 45.0781 191.965V191.637C45.0781 190.363 45.3242 189.227 45.8164 188.227C46.3086 187.219 47.0039 186.445 47.9023 185.906C48.8086 185.359 49.8398 185.086 50.9961 185.086C52.7305 185.086 54.0938 185.633 55.0859 186.727C56.0859 187.82 56.5859 189.371 56.5859 191.379V192.762H48.5117C48.6211 193.59 48.9492 194.254 49.4961 194.754C50.0508 195.254 50.75 195.504 51.5938 195.504C52.8984 195.504 53.918 195.031 54.6523 194.086L56.3164 195.949C55.8086 196.668 55.1211 197.23 54.2539 197.637C53.3867 198.035 52.4258 198.234 51.3711 198.234ZM50.9844 187.828C50.3125 187.828 49.7656 188.055 49.3438 188.508C48.9297 188.961 48.6641 189.609 48.5469 190.453H53.2578V190.184C53.2422 189.434 53.0391 188.855 52.6484 188.449C52.2578 188.035 51.7031 187.828 50.9844 187.828ZM65.8672 198C65.7109 197.695 65.5977 197.316 65.5273 196.863C64.707 197.777 63.6406 198.234 62.3281 198.234C61.0859 198.234 60.0547 197.875 59.2344 197.156C58.4219 196.438 58.0156 195.531 58.0156 194.438C58.0156 193.094 58.5117 192.062 59.5039 191.344C60.5039 190.625 61.9453 190.262 63.8281 190.254H65.3867V189.527C65.3867 188.941 65.2344 188.473 64.9297 188.121C64.6328 187.77 64.1602 187.594 63.5117 187.594C62.9414 187.594 62.4922 187.73 62.1641 188.004C61.8438 188.277 61.6836 188.652 61.6836 189.129H58.2969C58.2969 188.395 58.5234 187.715 58.9766 187.09C59.4297 186.465 60.0703 185.977 60.8984 185.625C61.7266 185.266 62.6562 185.086 63.6875 185.086C65.25 185.086 66.4883 185.48 67.4023 186.27C68.3242 187.051 68.7852 188.152 68.7852 189.574V195.07C68.793 196.273 68.9609 197.184 69.2891 197.801V198H65.8672ZM63.0664 195.645C63.5664 195.645 64.0273 195.535 64.4492 195.316C64.8711 195.09 65.1836 194.789 65.3867 194.414V192.234H64.1211C62.4258 192.234 61.5234 192.82 61.4141 193.992L61.4023 194.191C61.4023 194.613 61.5508 194.961 61.8477 195.234C62.1445 195.508 62.5508 195.645 63.0664 195.645ZM78.5117 188.496C78.0508 188.434 77.6445 188.402 77.293 188.402C76.0117 188.402 75.1719 188.836 74.7734 189.703V198H71.3867V185.32H74.5859L74.6797 186.832C75.3594 185.668 76.3008 185.086 77.5039 185.086C77.8789 185.086 78.2305 185.137 78.5586 185.238L78.5117 188.496ZM93.2305 180.938H96.7461V192.75C96.7461 193.836 96.5039 194.797 96.0195 195.633C95.543 196.461 94.8672 197.102 93.9922 197.555C93.1172 198.008 92.1289 198.234 91.0273 198.234C89.2227 198.234 87.8164 197.777 86.8086 196.863C85.8008 195.941 85.2969 194.641 85.2969 192.961H88.8359C88.8359 193.797 89.0117 194.414 89.3633 194.812C89.7148 195.211 90.2695 195.41 91.0273 195.41C91.6992 195.41 92.2344 195.18 92.6328 194.719C93.0312 194.258 93.2305 193.602 93.2305 192.75V180.938ZM107.129 196.711C106.293 197.727 105.137 198.234 103.66 198.234C102.301 198.234 101.262 197.844 100.543 197.062C99.832 196.281 99.4688 195.137 99.4531 193.629V185.32H102.84V193.512C102.84 194.832 103.441 195.492 104.645 195.492C105.793 195.492 106.582 195.094 107.012 194.297V185.32H110.41V198H107.223L107.129 196.711ZM118.801 198.234C116.941 198.234 115.426 197.664 114.254 196.523C113.09 195.383 112.508 193.863 112.508 191.965V191.637C112.508 190.363 112.754 189.227 113.246 188.227C113.738 187.219 114.434 186.445 115.332 185.906C116.238 185.359 117.27 185.086 118.426 185.086C120.16 185.086 121.523 185.633 122.516 186.727C123.516 187.82 124.016 189.371 124.016 191.379V192.762H115.941C116.051 193.59 116.379 194.254 116.926 194.754C117.48 195.254 118.18 195.504 119.023 195.504C120.328 195.504 121.348 195.031 122.082 194.086L123.746 195.949C123.238 196.668 122.551 197.23 121.684 197.637C120.816 198.035 119.855 198.234 118.801 198.234ZM118.414 187.828C117.742 187.828 117.195 188.055 116.773 188.508C116.359 188.961 116.094 189.609 115.977 190.453H120.688V190.184C120.672 189.434 120.469 188.855 120.078 188.449C119.688 188.035 119.133 187.828 118.414 187.828ZM125.457 191.566C125.457 189.621 125.918 188.055 126.84 186.867C127.77 185.68 129.02 185.086 130.59 185.086C131.98 185.086 133.062 185.562 133.836 186.516L133.977 185.32H137.047V197.578C137.047 198.688 136.793 199.652 136.285 200.473C135.785 201.293 135.078 201.918 134.164 202.348C133.25 202.777 132.18 202.992 130.953 202.992C130.023 202.992 129.117 202.805 128.234 202.43C127.352 202.062 126.684 201.586 126.23 201L127.73 198.938C128.574 199.883 129.598 200.355 130.801 200.355C131.699 200.355 132.398 200.113 132.898 199.629C133.398 199.152 133.648 198.473 133.648 197.59V196.91C132.867 197.793 131.84 198.234 130.566 198.234C129.043 198.234 127.809 197.641 126.863 196.453C125.926 195.258 125.457 193.676 125.457 191.707V191.566ZM128.844 191.812C128.844 192.961 129.074 193.863 129.535 194.52C129.996 195.168 130.629 195.492 131.434 195.492C132.465 195.492 133.203 195.105 133.648 194.332V189C133.195 188.227 132.465 187.84 131.457 187.84C130.645 187.84 130.004 188.172 129.535 188.836C129.074 189.5 128.844 190.492 128.844 191.812ZM139.133 191.543C139.133 190.285 139.375 189.164 139.859 188.18C140.344 187.195 141.039 186.434 141.945 185.895C142.859 185.355 143.918 185.086 145.121 185.086C146.832 185.086 148.227 185.609 149.305 186.656C150.391 187.703 150.996 189.125 151.121 190.922L151.145 191.789C151.145 193.734 150.602 195.297 149.516 196.477C148.43 197.648 146.973 198.234 145.145 198.234C143.316 198.234 141.855 197.648 140.762 196.477C139.676 195.305 139.133 193.711 139.133 191.695V191.543ZM142.52 191.789C142.52 192.992 142.746 193.914 143.199 194.555C143.652 195.188 144.301 195.504 145.145 195.504C145.965 195.504 146.605 195.191 147.066 194.566C147.527 193.934 147.758 192.926 147.758 191.543C147.758 190.363 147.527 189.449 147.066 188.801C146.605 188.152 145.957 187.828 145.121 187.828C144.293 187.828 143.652 188.152 143.199 188.801C142.746 189.441 142.52 190.438 142.52 191.789Z" fill="black"/>
<path d="M0 82H968V152H0V82Z" fill="#EBFFFE"/>
<path d="M33.8633 120H30.9102V102.938H33.8633V120ZM39.875 107.32L39.957 108.785C40.8945 107.652 42.125 107.086 43.6484 107.086C46.2891 107.086 47.6328 108.598 47.6797 111.621V120H44.832V111.785C44.832 110.98 44.6562 110.387 44.3047 110.004C43.9609 109.613 43.3945 109.418 42.6055 109.418C41.457 109.418 40.6016 109.938 40.0391 110.977V120H37.1914V107.32H39.875ZM53.6211 120H50.7734V107.32H53.6211V120ZM50.5977 104.027C50.5977 103.59 50.7344 103.227 51.0078 102.938C51.2891 102.648 51.6875 102.504 52.2031 102.504C52.7188 102.504 53.1172 102.648 53.3984 102.938C53.6797 103.227 53.8203 103.59 53.8203 104.027C53.8203 104.457 53.6797 104.816 53.3984 105.105C53.1172 105.387 52.7188 105.527 52.2031 105.527C51.6875 105.527 51.2891 105.387 51.0078 105.105C50.7344 104.816 50.5977 104.457 50.5977 104.027ZM61.9414 117.961C62.6523 117.961 63.2422 117.754 63.7109 117.34C64.1797 116.926 64.4297 116.414 64.4609 115.805H67.1445C67.1133 116.594 66.8672 117.332 66.4062 118.02C65.9453 118.699 65.3203 119.238 64.5312 119.637C63.7422 120.035 62.8906 120.234 61.9766 120.234C60.2031 120.234 58.7969 119.66 57.7578 118.512C56.7188 117.363 56.1992 115.777 56.1992 113.754V113.461C56.1992 111.531 56.7148 109.988 57.7461 108.832C58.7773 107.668 60.1836 107.086 61.9648 107.086C63.4727 107.086 64.6992 107.527 65.6445 108.41C66.5977 109.285 67.0977 110.438 67.1445 111.867H64.4609C64.4297 111.141 64.1797 110.543 63.7109 110.074C63.25 109.605 62.6602 109.371 61.9414 109.371C61.0195 109.371 60.3086 109.707 59.8086 110.379C59.3086 111.043 59.0547 112.055 59.0469 113.414V113.871C59.0469 115.246 59.293 116.273 59.7852 116.953C60.2852 117.625 61.0039 117.961 61.9414 117.961ZM72.3242 120H69.4766V107.32H72.3242V120ZM69.3008 104.027C69.3008 103.59 69.4375 103.227 69.7109 102.938C69.9922 102.648 70.3906 102.504 70.9062 102.504C71.4219 102.504 71.8203 102.648 72.1016 102.938C72.3828 103.227 72.5234 103.59 72.5234 104.027C72.5234 104.457 72.3828 104.816 72.1016 105.105C71.8203 105.387 71.4219 105.527 70.9062 105.527C70.3906 105.527 69.9922 105.387 69.7109 105.105C69.4375 104.816 69.3008 104.457 69.3008 104.027ZM74.9023 113.543C74.9023 112.301 75.1484 111.184 75.6406 110.191C76.1328 109.191 76.8242 108.426 77.7148 107.895C78.6055 107.355 79.6289 107.086 80.7852 107.086C82.4961 107.086 83.8828 107.637 84.9453 108.738C86.0156 109.84 86.5938 111.301 86.6797 113.121L86.6914 113.789C86.6914 115.039 86.4492 116.156 85.9648 117.141C85.4883 118.125 84.8008 118.887 83.9023 119.426C83.0117 119.965 81.9805 120.234 80.8086 120.234C79.0195 120.234 77.5859 119.641 76.5078 118.453C75.4375 117.258 74.9023 115.668 74.9023 113.684V113.543ZM77.75 113.789C77.75 115.094 78.0195 116.117 78.5586 116.859C79.0977 117.594 79.8477 117.961 80.8086 117.961C81.7695 117.961 82.5156 117.586 83.0469 116.836C83.5859 116.086 83.8555 114.988 83.8555 113.543C83.8555 112.262 83.5781 111.246 83.0234 110.496C82.4766 109.746 81.7305 109.371 80.7852 109.371C79.8555 109.371 79.1172 109.742 78.5703 110.484C78.0234 111.219 77.75 112.32 77.75 113.789Z" fill="black"/>
<path d="M151.863 120H148.91V102.938H151.863V120ZM157.875 107.32L157.957 108.785C158.895 107.652 160.125 107.086 161.648 107.086C164.289 107.086 165.633 108.598 165.68 111.621V120H162.832V111.785C162.832 110.98 162.656 110.387 162.305 110.004C161.961 109.613 161.395 109.418 160.605 109.418C159.457 109.418 158.602 109.938 158.039 110.977V120H155.191V107.32H157.875ZM175.699 116.555C175.699 116.047 175.488 115.66 175.066 115.395C174.652 115.129 173.961 114.895 172.992 114.691C172.023 114.488 171.215 114.23 170.566 113.918C169.145 113.23 168.434 112.234 168.434 110.93C168.434 109.836 168.895 108.922 169.816 108.188C170.738 107.453 171.91 107.086 173.332 107.086C174.848 107.086 176.07 107.461 177 108.211C177.938 108.961 178.406 109.934 178.406 111.129H175.559C175.559 110.582 175.355 110.129 174.949 109.77C174.543 109.402 174.004 109.219 173.332 109.219C172.707 109.219 172.195 109.363 171.797 109.652C171.406 109.941 171.211 110.328 171.211 110.812C171.211 111.25 171.395 111.59 171.762 111.832C172.129 112.074 172.871 112.32 173.988 112.57C175.105 112.812 175.98 113.105 176.613 113.449C177.254 113.785 177.727 114.191 178.031 114.668C178.344 115.145 178.5 115.723 178.5 116.402C178.5 117.543 178.027 118.469 177.082 119.18C176.137 119.883 174.898 120.234 173.367 120.234C172.328 120.234 171.402 120.047 170.59 119.672C169.777 119.297 169.145 118.781 168.691 118.125C168.238 117.469 168.012 116.762 168.012 116.004H170.777C170.816 116.676 171.07 117.195 171.539 117.562C172.008 117.922 172.629 118.102 173.402 118.102C174.152 118.102 174.723 117.961 175.113 117.68C175.504 117.391 175.699 117.016 175.699 116.555ZM184.559 104.238V107.32H186.797V109.43H184.559V116.508C184.559 116.992 184.652 117.344 184.84 117.562C185.035 117.773 185.379 117.879 185.871 117.879C186.199 117.879 186.531 117.84 186.867 117.762V119.965C186.219 120.145 185.594 120.234 184.992 120.234C182.805 120.234 181.711 119.027 181.711 116.613V109.43H179.625V107.32H181.711V104.238H184.559ZM195.621 109.922C195.246 109.859 194.859 109.828 194.461 109.828C193.156 109.828 192.277 110.328 191.824 111.328V120H188.977V107.32H191.695L191.766 108.738C192.453 107.637 193.406 107.086 194.625 107.086C195.031 107.086 195.367 107.141 195.633 107.25L195.621 109.922ZM205.102 118.758C204.266 119.742 203.078 120.234 201.539 120.234C200.164 120.234 199.121 119.832 198.41 119.027C197.707 118.223 197.355 117.059 197.355 115.535V107.32H200.203V115.5C200.203 117.109 200.871 117.914 202.207 117.914C203.59 117.914 204.523 117.418 205.008 116.426V107.32H207.855V120H205.172L205.102 118.758ZM215.965 117.961C216.676 117.961 217.266 117.754 217.734 117.34C218.203 116.926 218.453 116.414 218.484 115.805H221.168C221.137 116.594 220.891 117.332 220.43 118.02C219.969 118.699 219.344 119.238 218.555 119.637C217.766 120.035 216.914 120.234 216 120.234C214.227 120.234 212.82 119.66 211.781 118.512C210.742 117.363 210.223 115.777 210.223 113.754V113.461C210.223 111.531 210.738 109.988 211.77 108.832C212.801 107.668 214.207 107.086 215.988 107.086C217.496 107.086 218.723 107.527 219.668 108.41C220.621 109.285 221.121 110.438 221.168 111.867H218.484C218.453 111.141 218.203 110.543 217.734 110.074C217.273 109.605 216.684 109.371 215.965 109.371C215.043 109.371 214.332 109.707 213.832 110.379C213.332 111.043 213.078 112.055 213.07 113.414V113.871C213.07 115.246 213.316 116.273 213.809 116.953C214.309 117.625 215.027 117.961 215.965 117.961ZM228.527 117.961C229.238 117.961 229.828 117.754 230.297 117.34C230.766 116.926 231.016 116.414 231.047 115.805H233.73C233.699 116.594 233.453 117.332 232.992 118.02C232.531 118.699 231.906 119.238 231.117 119.637C230.328 120.035 229.477 120.234 228.562 120.234C226.789 120.234 225.383 119.66 224.344 118.512C223.305 117.363 222.785 115.777 222.785 113.754V113.461C222.785 111.531 223.301 109.988 224.332 108.832C225.363 107.668 226.77 107.086 228.551 107.086C230.059 107.086 231.285 107.527 232.23 108.41C233.184 109.285 233.684 110.438 233.73 111.867H231.047C231.016 111.141 230.766 110.543 230.297 110.074C229.836 109.605 229.246 109.371 228.527 109.371C227.605 109.371 226.895 109.707 226.395 110.379C225.895 111.043 225.641 112.055 225.633 113.414V113.871C225.633 115.246 225.879 116.273 226.371 116.953C226.871 117.625 227.59 117.961 228.527 117.961ZM238.91 120H236.062V107.32H238.91V120ZM235.887 104.027C235.887 103.59 236.023 103.227 236.297 102.938C236.578 102.648 236.977 102.504 237.492 102.504C238.008 102.504 238.406 102.648 238.688 102.938C238.969 103.227 239.109 103.59 239.109 104.027C239.109 104.457 238.969 104.816 238.688 105.105C238.406 105.387 238.008 105.527 237.492 105.527C236.977 105.527 236.578 105.387 236.297 105.105C236.023 104.816 235.887 104.457 235.887 104.027ZM241.488 113.543C241.488 112.301 241.734 111.184 242.227 110.191C242.719 109.191 243.41 108.426 244.301 107.895C245.191 107.355 246.215 107.086 247.371 107.086C249.082 107.086 250.469 107.637 251.531 108.738C252.602 109.84 253.18 111.301 253.266 113.121L253.277 113.789C253.277 115.039 253.035 116.156 252.551 117.141C252.074 118.125 251.387 118.887 250.488 119.426C249.598 119.965 248.566 120.234 247.395 120.234C245.605 120.234 244.172 119.641 243.094 118.453C242.023 117.258 241.488 115.668 241.488 113.684V113.543ZM244.336 113.789C244.336 115.094 244.605 116.117 245.145 116.859C245.684 117.594 246.434 117.961 247.395 117.961C248.355 117.961 249.102 117.586 249.633 116.836C250.172 116.086 250.441 114.988 250.441 113.543C250.441 112.262 250.164 111.246 249.609 110.496C249.062 109.746 248.316 109.371 247.371 109.371C246.441 109.371 245.703 109.742 245.156 110.484C244.609 111.219 244.336 112.32 244.336 113.789ZM258.328 107.32L258.41 108.785C259.348 107.652 260.578 107.086 262.102 107.086C264.742 107.086 266.086 108.598 266.133 111.621V120H263.285V111.785C263.285 110.98 263.109 110.387 262.758 110.004C262.414 109.613 261.848 109.418 261.059 109.418C259.91 109.418 259.055 109.938 258.492 110.977V120H255.645V107.32H258.328ZM274.629 120.234C272.824 120.234 271.359 119.668 270.234 118.535C269.117 117.395 268.559 115.879 268.559 113.988V113.637C268.559 112.371 268.801 111.242 269.285 110.25C269.777 109.25 270.465 108.473 271.348 107.918C272.23 107.363 273.215 107.086 274.301 107.086C276.027 107.086 277.359 107.637 278.297 108.738C279.242 109.84 279.715 111.398 279.715 113.414V114.562H271.43C271.516 115.609 271.863 116.438 272.473 117.047C273.09 117.656 273.863 117.961 274.793 117.961C276.098 117.961 277.16 117.434 277.98 116.379L279.516 117.844C279.008 118.602 278.328 119.191 277.477 119.613C276.633 120.027 275.684 120.234 274.629 120.234ZM274.289 109.371C273.508 109.371 272.875 109.645 272.391 110.191C271.914 110.738 271.609 111.5 271.477 112.477H276.902V112.266C276.84 111.312 276.586 110.594 276.141 110.109C275.695 109.617 275.078 109.371 274.289 109.371ZM289.043 116.555C289.043 116.047 288.832 115.66 288.41 115.395C287.996 115.129 287.305 114.895 286.336 114.691C285.367 114.488 284.559 114.23 283.91 113.918C282.488 113.23 281.777 112.234 281.777 110.93C281.777 109.836 282.238 108.922 283.16 108.188C284.082 107.453 285.254 107.086 286.676 107.086C288.191 107.086 289.414 107.461 290.344 108.211C291.281 108.961 291.75 109.934 291.75 111.129H288.902C288.902 110.582 288.699 110.129 288.293 109.77C287.887 109.402 287.348 109.219 286.676 109.219C286.051 109.219 285.539 109.363 285.141 109.652C284.75 109.941 284.555 110.328 284.555 110.812C284.555 111.25 284.738 111.59 285.105 111.832C285.473 112.074 286.215 112.32 287.332 112.57C288.449 112.812 289.324 113.105 289.957 113.449C290.598 113.785 291.07 114.191 291.375 114.668C291.688 115.145 291.844 115.723 291.844 116.402C291.844 117.543 291.371 118.469 290.426 119.18C289.48 119.883 288.242 120.234 286.711 120.234C285.672 120.234 284.746 120.047 283.934 119.672C283.121 119.297 282.488 118.781 282.035 118.125C281.582 117.469 281.355 116.762 281.355 116.004H284.121C284.16 116.676 284.414 117.195 284.883 117.562C285.352 117.922 285.973 118.102 286.746 118.102C287.496 118.102 288.066 117.961 288.457 117.68C288.848 117.391 289.043 117.016 289.043 116.555Z" fill="black"/>
<path d="M0 82V81H-1V82H0ZM968 82H969V81H968V82ZM968 152V153H969V152H968ZM0 152H-1V153H0V152ZM0 83H968V81H0V83ZM967 82V152H969V82H967ZM968 151H0V153H968V151ZM1 152V82H-1V152H1Z" fill="white"/>
<path d="M0 0H968V83H0V0Z" fill="#11D0C5"/>
<path d="M0 0V-1H-1V0H0ZM968 0H969V-1H968V0ZM968 83V84H969V83H968ZM0 83H-1V84H0V83ZM0 1H968V-1H0V1ZM967 0V83H969V0H967ZM968 82H0V84H968V82ZM1 83V0H-1V83H1Z" fill="white"/>
<rect x="1" y="1" width="966" height="726" stroke="#171212" stroke-width="2"/>
</svg>
