<svg width="968" height="728" viewBox="0 0 968 728" fill="none" xmlns="http://www.w3.org/2000/svg">
<rect x="1" y="1" width="966" height="726" fill="white"/>
<path d="M0 656H485V728H0V656Z" fill="white"/>
<path d="M22.4062 709.053C22.4062 708.74 22.4974 708.48 22.6797 708.271C22.8685 708.063 23.1484 707.959 23.5195 707.959C23.8906 707.959 24.1706 708.063 24.3594 708.271C24.5547 708.48 24.6523 708.74 24.6523 709.053C24.6523 709.352 24.5547 709.603 24.3594 709.805C24.1706 710.007 23.8906 710.107 23.5195 710.107C23.1484 710.107 22.8685 710.007 22.6797 709.805C22.4974 709.603 22.4062 709.352 22.4062 709.053Z" fill="black"/>
<rect y="152" width="485" height="504" fill="white"/>
<rect x="185.5" y="217.5" width="271" height="34" fill="white" stroke="black"/>
<path d="M34.5781 239H32.6934L25.5352 228.043V239H23.6504V224.781H25.5352L32.7129 235.787V224.781H34.5781V239ZM37.1465 233.619C37.1465 232.584 37.3483 231.653 37.752 230.826C38.1621 229.999 38.7285 229.361 39.4512 228.912C40.1803 228.463 41.0104 228.238 41.9414 228.238C43.3802 228.238 44.5423 228.736 45.4277 229.732C46.3197 230.729 46.7656 232.053 46.7656 233.707V233.834C46.7656 234.863 46.5671 235.787 46.1699 236.607C45.7793 237.421 45.2161 238.056 44.4805 238.512C43.7513 238.967 42.9115 239.195 41.9609 239.195C40.5286 239.195 39.3665 238.697 38.4746 237.701C37.5892 236.705 37.1465 235.387 37.1465 233.746V233.619ZM38.9629 233.834C38.9629 235.006 39.2331 235.947 39.7734 236.656C40.3203 237.366 41.0495 237.721 41.9609 237.721C42.8789 237.721 43.6081 237.363 44.1484 236.646C44.6888 235.924 44.959 234.915 44.959 233.619C44.959 232.46 44.6823 231.523 44.1289 230.807C43.582 230.084 42.8529 229.723 41.9414 229.723C41.0495 229.723 40.3301 230.077 39.7832 230.787C39.2363 231.497 38.9629 232.512 38.9629 233.834ZM50.7305 228.434L50.7793 229.605C51.554 228.694 52.599 228.238 53.9141 228.238C55.3919 228.238 56.3978 228.805 56.9316 229.938C57.2832 229.43 57.7389 229.02 58.2988 228.707C58.8652 228.395 59.5326 228.238 60.3008 228.238C62.6185 228.238 63.7969 229.465 63.8359 231.92V239H62.0293V232.027C62.0293 231.272 61.8568 230.709 61.5117 230.338C61.1667 229.96 60.5872 229.771 59.7734 229.771C59.1029 229.771 58.5462 229.973 58.1035 230.377C57.6608 230.774 57.4036 231.311 57.332 231.988V239H55.5156V232.076C55.5156 230.54 54.7637 229.771 53.2598 229.771C52.0749 229.771 51.2643 230.276 50.8281 231.285V239H49.0215V228.434H50.7305ZM75.5156 233.834C75.5156 235.449 75.1445 236.747 74.4023 237.73C73.6602 238.707 72.6641 239.195 71.4141 239.195C70.0794 239.195 69.0475 238.723 68.3184 237.779L68.2305 239H66.5703V224H68.377V229.596C69.1061 228.691 70.112 228.238 71.3945 228.238C72.6771 228.238 73.6829 228.723 74.4121 229.693C75.1478 230.663 75.5156 231.992 75.5156 233.678V233.834ZM73.709 233.629C73.709 232.398 73.4714 231.448 72.9961 230.777C72.5208 230.107 71.8372 229.771 70.9453 229.771C69.7539 229.771 68.8978 230.325 68.377 231.432V236.002C68.9303 237.109 69.793 237.662 70.9648 237.662C71.8307 237.662 72.5046 237.327 72.9863 236.656C73.4681 235.986 73.709 234.977 73.709 233.629ZM82.9082 230.055C82.6348 230.009 82.3385 229.986 82.0195 229.986C80.8346 229.986 80.0306 230.491 79.6074 231.5V239H77.8008V228.434H79.5586L79.5879 229.654C80.1803 228.71 81.0202 228.238 82.1074 228.238C82.459 228.238 82.7259 228.284 82.9082 228.375V230.055ZM88.7676 239.195C87.3353 239.195 86.1699 238.727 85.2715 237.789C84.373 236.845 83.9238 235.585 83.9238 234.01V233.678C83.9238 232.63 84.1224 231.695 84.5195 230.875C84.9232 230.048 85.4831 229.404 86.1992 228.941C86.9219 228.473 87.7031 228.238 88.543 228.238C89.9167 228.238 90.9844 228.691 91.7461 229.596C92.5078 230.501 92.8887 231.796 92.8887 233.482V234.234H85.7305C85.7565 235.276 86.0592 236.119 86.6387 236.764C87.2246 237.402 87.9668 237.721 88.8652 237.721C89.5033 237.721 90.0436 237.59 90.4863 237.33C90.929 237.07 91.3164 236.725 91.6484 236.295L92.752 237.154C91.8665 238.515 90.5384 239.195 88.7676 239.195ZM88.543 229.723C87.8138 229.723 87.2018 229.99 86.707 230.523C86.2122 231.051 85.9062 231.793 85.7891 232.75H91.082V232.613C91.0299 231.695 90.7826 230.986 90.3398 230.484C89.8971 229.977 89.2982 229.723 88.543 229.723ZM94.9297 238.053C94.9297 237.74 95.0208 237.48 95.2031 237.271C95.3919 237.063 95.6719 236.959 96.043 236.959C96.4141 236.959 96.694 237.063 96.8828 237.271C97.0781 237.48 97.1758 237.74 97.1758 238.053C97.1758 238.352 97.0781 238.603 96.8828 238.805C96.694 239.007 96.4141 239.107 96.043 239.107C95.6719 239.107 95.3919 239.007 95.2031 238.805C95.0208 238.603 94.9297 238.352 94.9297 238.053ZM94.9395 229.43C94.9395 229.117 95.0306 228.857 95.2129 228.648C95.4017 228.44 95.6816 228.336 96.0527 228.336C96.4238 228.336 96.7038 228.44 96.8926 228.648C97.0879 228.857 97.1855 229.117 97.1855 229.43C97.1855 229.729 97.0879 229.98 96.8926 230.182C96.7038 230.383 96.4238 230.484 96.0527 230.484C95.6816 230.484 95.4017 230.383 95.2129 230.182C95.0306 229.98 94.9395 229.729 94.9395 229.43Z" fill="black"/>
<rect x="22.5" y="321.5" width="160" height="50" rx="13.5" fill="#10B6AC" stroke="black"/>
<rect x="243.5" y="321.5" width="160" height="50" rx="13.5" fill="white" stroke="black"/>
<path d="M72.502 350.289H66.5449L65.207 354H63.2734L68.7031 339.781H70.3438L75.7832 354H73.8594L72.502 350.289ZM67.1113 348.746H71.9453L69.5234 342.096L67.1113 348.746ZM81.6523 352.721C82.2969 352.721 82.86 352.525 83.3418 352.135C83.8236 351.744 84.0905 351.256 84.1426 350.67H85.8516C85.819 351.275 85.6107 351.852 85.2266 352.398C84.8424 352.945 84.3281 353.382 83.6836 353.707C83.0456 354.033 82.3685 354.195 81.6523 354.195C80.2135 354.195 79.0677 353.717 78.2148 352.76C77.3685 351.796 76.9453 350.481 76.9453 348.814V348.512C76.9453 347.483 77.1341 346.568 77.5117 345.768C77.8893 344.967 78.4297 344.345 79.1328 343.902C79.8424 343.46 80.679 343.238 81.6426 343.238C82.8275 343.238 83.8105 343.593 84.5918 344.303C85.3796 345.012 85.7995 345.934 85.8516 347.066H84.1426C84.0905 346.383 83.8301 345.823 83.3613 345.387C82.8991 344.944 82.3262 344.723 81.6426 344.723C80.7246 344.723 80.0117 345.055 79.5039 345.719C79.0026 346.376 78.752 347.33 78.752 348.58V348.922C78.752 350.139 79.0026 351.077 79.5039 351.734C80.0052 352.392 80.7214 352.721 81.6523 352.721ZM92.2676 354.195C90.8353 354.195 89.6699 353.727 88.7715 352.789C87.873 351.845 87.4238 350.585 87.4238 349.01V348.678C87.4238 347.63 87.6224 346.695 88.0195 345.875C88.4232 345.048 88.9831 344.404 89.6992 343.941C90.4219 343.473 91.2031 343.238 92.043 343.238C93.4167 343.238 94.4844 343.691 95.2461 344.596C96.0078 345.501 96.3887 346.796 96.3887 348.482V349.234H89.2305C89.2565 350.276 89.5592 351.119 90.1387 351.764C90.7246 352.402 91.4668 352.721 92.3652 352.721C93.0033 352.721 93.5436 352.59 93.9863 352.33C94.429 352.07 94.8164 351.725 95.1484 351.295L96.252 352.154C95.3665 353.515 94.0384 354.195 92.2676 354.195ZM92.043 344.723C91.3138 344.723 90.7018 344.99 90.207 345.523C89.7122 346.051 89.4062 346.793 89.2891 347.75H94.582V347.613C94.5299 346.695 94.2826 345.986 93.8398 345.484C93.3971 344.977 92.7982 344.723 92.043 344.723ZM107.414 348.834C107.414 350.442 107.046 351.738 106.311 352.721C105.575 353.704 104.579 354.195 103.322 354.195C102.04 354.195 101.031 353.788 100.295 352.975V358.062H98.4883V343.434H100.139L100.227 344.605C100.962 343.694 101.984 343.238 103.293 343.238C104.562 343.238 105.565 343.717 106.301 344.674C107.043 345.631 107.414 346.962 107.414 348.668V348.834ZM105.607 348.629C105.607 347.438 105.354 346.497 104.846 345.807C104.338 345.117 103.641 344.771 102.756 344.771C101.662 344.771 100.842 345.257 100.295 346.227V351.275C100.835 352.239 101.662 352.721 102.775 352.721C103.641 352.721 104.328 352.379 104.836 351.695C105.35 351.005 105.607 349.983 105.607 348.629ZM112.17 340.875V343.434H114.143V344.83H112.17V351.383C112.17 351.806 112.258 352.125 112.434 352.34C112.609 352.548 112.909 352.652 113.332 352.652C113.54 352.652 113.827 352.613 114.191 352.535V354C113.716 354.13 113.254 354.195 112.805 354.195C111.997 354.195 111.389 353.951 110.979 353.463C110.568 352.975 110.363 352.281 110.363 351.383V344.83H108.439V343.434H110.363V340.875H112.17ZM122.785 354C122.681 353.792 122.596 353.421 122.531 352.887C121.691 353.759 120.689 354.195 119.523 354.195C118.482 354.195 117.626 353.902 116.955 353.316C116.291 352.724 115.959 351.975 115.959 351.07C115.959 349.97 116.376 349.117 117.209 348.512C118.049 347.9 119.227 347.594 120.744 347.594H122.502V346.764C122.502 346.132 122.313 345.631 121.936 345.26C121.558 344.882 121.001 344.693 120.266 344.693C119.621 344.693 119.081 344.856 118.645 345.182C118.208 345.507 117.99 345.901 117.99 346.363H116.174C116.174 345.836 116.359 345.328 116.73 344.84C117.108 344.345 117.616 343.954 118.254 343.668C118.898 343.382 119.605 343.238 120.373 343.238C121.59 343.238 122.544 343.544 123.234 344.156C123.924 344.762 124.283 345.598 124.309 346.666V351.529C124.309 352.499 124.432 353.271 124.68 353.844V354H122.785ZM119.787 352.623C120.354 352.623 120.891 352.477 121.398 352.184C121.906 351.891 122.274 351.51 122.502 351.041V348.873H121.086C118.872 348.873 117.766 349.521 117.766 350.816C117.766 351.383 117.954 351.826 118.332 352.145C118.71 352.464 119.195 352.623 119.787 352.623ZM132.248 345.055C131.975 345.009 131.678 344.986 131.359 344.986C130.174 344.986 129.37 345.491 128.947 346.5V354H127.141V343.434H128.898L128.928 344.654C129.52 343.71 130.36 343.238 131.447 343.238C131.799 343.238 132.066 343.284 132.248 343.375V345.055Z" fill="black"/>
<path d="M293.109 349.488C292.934 350.992 292.377 352.154 291.439 352.975C290.508 353.788 289.268 354.195 287.719 354.195C286.039 354.195 284.691 353.593 283.676 352.389C282.667 351.184 282.162 349.573 282.162 347.555V346.188C282.162 344.866 282.396 343.704 282.865 342.701C283.34 341.699 284.011 340.93 284.877 340.396C285.743 339.856 286.745 339.586 287.885 339.586C289.395 339.586 290.606 340.009 291.518 340.855C292.429 341.695 292.96 342.861 293.109 344.352H291.225C291.062 343.219 290.707 342.398 290.16 341.891C289.62 341.383 288.861 341.129 287.885 341.129C286.687 341.129 285.746 341.572 285.062 342.457C284.385 343.342 284.047 344.602 284.047 346.236V347.613C284.047 349.156 284.369 350.383 285.014 351.295C285.658 352.206 286.56 352.662 287.719 352.662C288.76 352.662 289.558 352.428 290.111 351.959C290.671 351.484 291.042 350.66 291.225 349.488H293.109ZM301.918 354C301.814 353.792 301.729 353.421 301.664 352.887C300.824 353.759 299.822 354.195 298.656 354.195C297.615 354.195 296.758 353.902 296.088 353.316C295.424 352.724 295.092 351.975 295.092 351.07C295.092 349.97 295.508 349.117 296.342 348.512C297.182 347.9 298.36 347.594 299.877 347.594H301.635V346.764C301.635 346.132 301.446 345.631 301.068 345.26C300.691 344.882 300.134 344.693 299.398 344.693C298.754 344.693 298.214 344.856 297.777 345.182C297.341 345.507 297.123 345.901 297.123 346.363H295.307C295.307 345.836 295.492 345.328 295.863 344.84C296.241 344.345 296.749 343.954 297.387 343.668C298.031 343.382 298.738 343.238 299.506 343.238C300.723 343.238 301.677 343.544 302.367 344.156C303.057 344.762 303.415 345.598 303.441 346.666V351.529C303.441 352.499 303.565 353.271 303.812 353.844V354H301.918ZM298.92 352.623C299.486 352.623 300.023 352.477 300.531 352.184C301.039 351.891 301.407 351.51 301.635 351.041V348.873H300.219C298.005 348.873 296.898 349.521 296.898 350.816C296.898 351.383 297.087 351.826 297.465 352.145C297.842 352.464 298.327 352.623 298.92 352.623ZM307.982 343.434L308.041 344.762C308.848 343.746 309.903 343.238 311.205 343.238C313.438 343.238 314.564 344.498 314.584 347.018V354H312.777V347.008C312.771 346.246 312.595 345.683 312.25 345.318C311.911 344.954 311.381 344.771 310.658 344.771C310.072 344.771 309.558 344.928 309.115 345.24C308.673 345.553 308.327 345.963 308.08 346.471V354H306.273V343.434H307.982ZM321.547 352.721C322.191 352.721 322.755 352.525 323.236 352.135C323.718 351.744 323.985 351.256 324.037 350.67H325.746C325.714 351.275 325.505 351.852 325.121 352.398C324.737 352.945 324.223 353.382 323.578 353.707C322.94 354.033 322.263 354.195 321.547 354.195C320.108 354.195 318.962 353.717 318.109 352.76C317.263 351.796 316.84 350.481 316.84 348.814V348.512C316.84 347.483 317.029 346.568 317.406 345.768C317.784 344.967 318.324 344.345 319.027 343.902C319.737 343.46 320.574 343.238 321.537 343.238C322.722 343.238 323.705 343.593 324.486 344.303C325.274 345.012 325.694 345.934 325.746 347.066H324.037C323.985 346.383 323.725 345.823 323.256 345.387C322.794 344.944 322.221 344.723 321.537 344.723C320.619 344.723 319.906 345.055 319.398 345.719C318.897 346.376 318.646 347.33 318.646 348.58V348.922C318.646 350.139 318.897 351.077 319.398 351.734C319.9 352.392 320.616 352.721 321.547 352.721ZM332.162 354.195C330.73 354.195 329.564 353.727 328.666 352.789C327.768 351.845 327.318 350.585 327.318 349.01V348.678C327.318 347.63 327.517 346.695 327.914 345.875C328.318 345.048 328.878 344.404 329.594 343.941C330.316 343.473 331.098 343.238 331.938 343.238C333.311 343.238 334.379 343.691 335.141 344.596C335.902 345.501 336.283 346.796 336.283 348.482V349.234H329.125C329.151 350.276 329.454 351.119 330.033 351.764C330.619 352.402 331.361 352.721 332.26 352.721C332.898 352.721 333.438 352.59 333.881 352.33C334.324 352.07 334.711 351.725 335.043 351.295L336.146 352.154C335.261 353.515 333.933 354.195 332.162 354.195ZM331.938 344.723C331.208 344.723 330.596 344.99 330.102 345.523C329.607 346.051 329.301 346.793 329.184 347.75H334.477V347.613C334.424 346.695 334.177 345.986 333.734 345.484C333.292 344.977 332.693 344.723 331.938 344.723ZM340.346 354H338.539V339H340.346V354ZM349.77 354C349.665 353.792 349.581 353.421 349.516 352.887C348.676 353.759 347.673 354.195 346.508 354.195C345.466 354.195 344.61 353.902 343.939 353.316C343.275 352.724 342.943 351.975 342.943 351.07C342.943 349.97 343.36 349.117 344.193 348.512C345.033 347.9 346.212 347.594 347.729 347.594H349.486V346.764C349.486 346.132 349.298 345.631 348.92 345.26C348.542 344.882 347.986 344.693 347.25 344.693C346.605 344.693 346.065 344.856 345.629 345.182C345.193 345.507 344.975 345.901 344.975 346.363H343.158C343.158 345.836 343.344 345.328 343.715 344.84C344.092 344.345 344.6 343.954 345.238 343.668C345.883 343.382 346.589 343.238 347.357 343.238C348.575 343.238 349.529 343.544 350.219 344.156C350.909 344.762 351.267 345.598 351.293 346.666V351.529C351.293 352.499 351.417 353.271 351.664 353.844V354H349.77ZM346.771 352.623C347.338 352.623 347.875 352.477 348.383 352.184C348.891 351.891 349.258 351.51 349.486 351.041V348.873H348.07C345.857 348.873 344.75 349.521 344.75 350.816C344.75 351.383 344.939 351.826 345.316 352.145C345.694 352.464 346.179 352.623 346.771 352.623ZM359.232 345.055C358.959 345.009 358.663 344.986 358.344 344.986C357.159 344.986 356.355 345.491 355.932 346.5V354H354.125V343.434H355.883L355.912 344.654C356.505 343.71 357.344 343.238 358.432 343.238C358.783 343.238 359.05 343.284 359.232 343.375V345.055Z" fill="black"/>
<rect y="152" width="485" height="504" fill="white"/>
<rect x="185.5" y="217.5" width="271" height="34" fill="white" stroke="black"/>
<path d="M34.5781 239H32.6934L25.5352 228.043V239H23.6504V224.781H25.5352L32.7129 235.787V224.781H34.5781V239ZM37.1465 233.619C37.1465 232.584 37.3483 231.653 37.752 230.826C38.1621 229.999 38.7285 229.361 39.4512 228.912C40.1803 228.463 41.0104 228.238 41.9414 228.238C43.3802 228.238 44.5423 228.736 45.4277 229.732C46.3197 230.729 46.7656 232.053 46.7656 233.707V233.834C46.7656 234.863 46.5671 235.787 46.1699 236.607C45.7793 237.421 45.2161 238.056 44.4805 238.512C43.7513 238.967 42.9115 239.195 41.9609 239.195C40.5286 239.195 39.3665 238.697 38.4746 237.701C37.5892 236.705 37.1465 235.387 37.1465 233.746V233.619ZM38.9629 233.834C38.9629 235.006 39.2331 235.947 39.7734 236.656C40.3203 237.366 41.0495 237.721 41.9609 237.721C42.8789 237.721 43.6081 237.363 44.1484 236.646C44.6888 235.924 44.959 234.915 44.959 233.619C44.959 232.46 44.6823 231.523 44.1289 230.807C43.582 230.084 42.8529 229.723 41.9414 229.723C41.0495 229.723 40.3301 230.077 39.7832 230.787C39.2363 231.497 38.9629 232.512 38.9629 233.834ZM50.7305 228.434L50.7793 229.605C51.554 228.694 52.599 228.238 53.9141 228.238C55.3919 228.238 56.3978 228.805 56.9316 229.938C57.2832 229.43 57.7389 229.02 58.2988 228.707C58.8652 228.395 59.5326 228.238 60.3008 228.238C62.6185 228.238 63.7969 229.465 63.8359 231.92V239H62.0293V232.027C62.0293 231.272 61.8568 230.709 61.5117 230.338C61.1667 229.96 60.5872 229.771 59.7734 229.771C59.1029 229.771 58.5462 229.973 58.1035 230.377C57.6608 230.774 57.4036 231.311 57.332 231.988V239H55.5156V232.076C55.5156 230.54 54.7637 229.771 53.2598 229.771C52.0749 229.771 51.2643 230.276 50.8281 231.285V239H49.0215V228.434H50.7305ZM75.5156 233.834C75.5156 235.449 75.1445 236.747 74.4023 237.73C73.6602 238.707 72.6641 239.195 71.4141 239.195C70.0794 239.195 69.0475 238.723 68.3184 237.779L68.2305 239H66.5703V224H68.377V229.596C69.1061 228.691 70.112 228.238 71.3945 228.238C72.6771 228.238 73.6829 228.723 74.4121 229.693C75.1478 230.663 75.5156 231.992 75.5156 233.678V233.834ZM73.709 233.629C73.709 232.398 73.4714 231.448 72.9961 230.777C72.5208 230.107 71.8372 229.771 70.9453 229.771C69.7539 229.771 68.8978 230.325 68.377 231.432V236.002C68.9303 237.109 69.793 237.662 70.9648 237.662C71.8307 237.662 72.5046 237.327 72.9863 236.656C73.4681 235.986 73.709 234.977 73.709 233.629ZM82.9082 230.055C82.6348 230.009 82.3385 229.986 82.0195 229.986C80.8346 229.986 80.0306 230.491 79.6074 231.5V239H77.8008V228.434H79.5586L79.5879 229.654C80.1803 228.71 81.0202 228.238 82.1074 228.238C82.459 228.238 82.7259 228.284 82.9082 228.375V230.055ZM88.7676 239.195C87.3353 239.195 86.1699 238.727 85.2715 237.789C84.373 236.845 83.9238 235.585 83.9238 234.01V233.678C83.9238 232.63 84.1224 231.695 84.5195 230.875C84.9232 230.048 85.4831 229.404 86.1992 228.941C86.9219 228.473 87.7031 228.238 88.543 228.238C89.9167 228.238 90.9844 228.691 91.7461 229.596C92.5078 230.501 92.8887 231.796 92.8887 233.482V234.234H85.7305C85.7565 235.276 86.0592 236.119 86.6387 236.764C87.2246 237.402 87.9668 237.721 88.8652 237.721C89.5033 237.721 90.0436 237.59 90.4863 237.33C90.929 237.07 91.3164 236.725 91.6484 236.295L92.752 237.154C91.8665 238.515 90.5384 239.195 88.7676 239.195ZM88.543 229.723C87.8138 229.723 87.2018 229.99 86.707 230.523C86.2122 231.051 85.9062 231.793 85.7891 232.75H91.082V232.613C91.0299 231.695 90.7826 230.986 90.3398 230.484C89.8971 229.977 89.2982 229.723 88.543 229.723ZM94.9297 238.053C94.9297 237.74 95.0208 237.48 95.2031 237.271C95.3919 237.063 95.6719 236.959 96.043 236.959C96.4141 236.959 96.694 237.063 96.8828 237.271C97.0781 237.48 97.1758 237.74 97.1758 238.053C97.1758 238.352 97.0781 238.603 96.8828 238.805C96.694 239.007 96.4141 239.107 96.043 239.107C95.6719 239.107 95.3919 239.007 95.2031 238.805C95.0208 238.603 94.9297 238.352 94.9297 238.053ZM94.9395 229.43C94.9395 229.117 95.0306 228.857 95.2129 228.648C95.4017 228.44 95.6816 228.336 96.0527 228.336C96.4238 228.336 96.7038 228.44 96.8926 228.648C97.0879 228.857 97.1855 229.117 97.1855 229.43C97.1855 229.729 97.0879 229.98 96.8926 230.182C96.7038 230.383 96.4238 230.484 96.0527 230.484C95.6816 230.484 95.4017 230.383 95.2129 230.182C95.0306 229.98 94.9395 229.729 94.9395 229.43Z" fill="black"/>
<rect x="22.5" y="321.5" width="160" height="50" rx="13.5" fill="#10B6AC" stroke="black"/>
<rect x="243.5" y="321.5" width="160" height="50" rx="13.5" fill="white" stroke="black"/>
<path d="M72.502 350.289H66.5449L65.207 354H63.2734L68.7031 339.781H70.3438L75.7832 354H73.8594L72.502 350.289ZM67.1113 348.746H71.9453L69.5234 342.096L67.1113 348.746ZM81.6523 352.721C82.2969 352.721 82.86 352.525 83.3418 352.135C83.8236 351.744 84.0905 351.256 84.1426 350.67H85.8516C85.819 351.275 85.6107 351.852 85.2266 352.398C84.8424 352.945 84.3281 353.382 83.6836 353.707C83.0456 354.033 82.3685 354.195 81.6523 354.195C80.2135 354.195 79.0677 353.717 78.2148 352.76C77.3685 351.796 76.9453 350.481 76.9453 348.814V348.512C76.9453 347.483 77.1341 346.568 77.5117 345.768C77.8893 344.967 78.4297 344.345 79.1328 343.902C79.8424 343.46 80.679 343.238 81.6426 343.238C82.8275 343.238 83.8105 343.593 84.5918 344.303C85.3796 345.012 85.7995 345.934 85.8516 347.066H84.1426C84.0905 346.383 83.8301 345.823 83.3613 345.387C82.8991 344.944 82.3262 344.723 81.6426 344.723C80.7246 344.723 80.0117 345.055 79.5039 345.719C79.0026 346.376 78.752 347.33 78.752 348.58V348.922C78.752 350.139 79.0026 351.077 79.5039 351.734C80.0052 352.392 80.7214 352.721 81.6523 352.721ZM92.2676 354.195C90.8353 354.195 89.6699 353.727 88.7715 352.789C87.873 351.845 87.4238 350.585 87.4238 349.01V348.678C87.4238 347.63 87.6224 346.695 88.0195 345.875C88.4232 345.048 88.9831 344.404 89.6992 343.941C90.4219 343.473 91.2031 343.238 92.043 343.238C93.4167 343.238 94.4844 343.691 95.2461 344.596C96.0078 345.501 96.3887 346.796 96.3887 348.482V349.234H89.2305C89.2565 350.276 89.5592 351.119 90.1387 351.764C90.7246 352.402 91.4668 352.721 92.3652 352.721C93.0033 352.721 93.5436 352.59 93.9863 352.33C94.429 352.07 94.8164 351.725 95.1484 351.295L96.252 352.154C95.3665 353.515 94.0384 354.195 92.2676 354.195ZM92.043 344.723C91.3138 344.723 90.7018 344.99 90.207 345.523C89.7122 346.051 89.4062 346.793 89.2891 347.75H94.582V347.613C94.5299 346.695 94.2826 345.986 93.8398 345.484C93.3971 344.977 92.7982 344.723 92.043 344.723ZM107.414 348.834C107.414 350.442 107.046 351.738 106.311 352.721C105.575 353.704 104.579 354.195 103.322 354.195C102.04 354.195 101.031 353.788 100.295 352.975V358.062H98.4883V343.434H100.139L100.227 344.605C100.962 343.694 101.984 343.238 103.293 343.238C104.562 343.238 105.565 343.717 106.301 344.674C107.043 345.631 107.414 346.962 107.414 348.668V348.834ZM105.607 348.629C105.607 347.438 105.354 346.497 104.846 345.807C104.338 345.117 103.641 344.771 102.756 344.771C101.662 344.771 100.842 345.257 100.295 346.227V351.275C100.835 352.239 101.662 352.721 102.775 352.721C103.641 352.721 104.328 352.379 104.836 351.695C105.35 351.005 105.607 349.983 105.607 348.629ZM112.17 340.875V343.434H114.143V344.83H112.17V351.383C112.17 351.806 112.258 352.125 112.434 352.34C112.609 352.548 112.909 352.652 113.332 352.652C113.54 352.652 113.827 352.613 114.191 352.535V354C113.716 354.13 113.254 354.195 112.805 354.195C111.997 354.195 111.389 353.951 110.979 353.463C110.568 352.975 110.363 352.281 110.363 351.383V344.83H108.439V343.434H110.363V340.875H112.17ZM122.785 354C122.681 353.792 122.596 353.421 122.531 352.887C121.691 353.759 120.689 354.195 119.523 354.195C118.482 354.195 117.626 353.902 116.955 353.316C116.291 352.724 115.959 351.975 115.959 351.07C115.959 349.97 116.376 349.117 117.209 348.512C118.049 347.9 119.227 347.594 120.744 347.594H122.502V346.764C122.502 346.132 122.313 345.631 121.936 345.26C121.558 344.882 121.001 344.693 120.266 344.693C119.621 344.693 119.081 344.856 118.645 345.182C118.208 345.507 117.99 345.901 117.99 346.363H116.174C116.174 345.836 116.359 345.328 116.73 344.84C117.108 344.345 117.616 343.954 118.254 343.668C118.898 343.382 119.605 343.238 120.373 343.238C121.59 343.238 122.544 343.544 123.234 344.156C123.924 344.762 124.283 345.598 124.309 346.666V351.529C124.309 352.499 124.432 353.271 124.68 353.844V354H122.785ZM119.787 352.623C120.354 352.623 120.891 352.477 121.398 352.184C121.906 351.891 122.274 351.51 122.502 351.041V348.873H121.086C118.872 348.873 117.766 349.521 117.766 350.816C117.766 351.383 117.954 351.826 118.332 352.145C118.71 352.464 119.195 352.623 119.787 352.623ZM132.248 345.055C131.975 345.009 131.678 344.986 131.359 344.986C130.174 344.986 129.37 345.491 128.947 346.5V354H127.141V343.434H128.898L128.928 344.654C129.52 343.71 130.36 343.238 131.447 343.238C131.799 343.238 132.066 343.284 132.248 343.375V345.055Z" fill="black"/>
<path d="M293.109 349.488C292.934 350.992 292.377 352.154 291.439 352.975C290.508 353.788 289.268 354.195 287.719 354.195C286.039 354.195 284.691 353.593 283.676 352.389C282.667 351.184 282.162 349.573 282.162 347.555V346.188C282.162 344.866 282.396 343.704 282.865 342.701C283.34 341.699 284.011 340.93 284.877 340.396C285.743 339.856 286.745 339.586 287.885 339.586C289.395 339.586 290.606 340.009 291.518 340.855C292.429 341.695 292.96 342.861 293.109 344.352H291.225C291.062 343.219 290.707 342.398 290.16 341.891C289.62 341.383 288.861 341.129 287.885 341.129C286.687 341.129 285.746 341.572 285.062 342.457C284.385 343.342 284.047 344.602 284.047 346.236V347.613C284.047 349.156 284.369 350.383 285.014 351.295C285.658 352.206 286.56 352.662 287.719 352.662C288.76 352.662 289.558 352.428 290.111 351.959C290.671 351.484 291.042 350.66 291.225 349.488H293.109ZM301.918 354C301.814 353.792 301.729 353.421 301.664 352.887C300.824 353.759 299.822 354.195 298.656 354.195C297.615 354.195 296.758 353.902 296.088 353.316C295.424 352.724 295.092 351.975 295.092 351.07C295.092 349.97 295.508 349.117 296.342 348.512C297.182 347.9 298.36 347.594 299.877 347.594H301.635V346.764C301.635 346.132 301.446 345.631 301.068 345.26C300.691 344.882 300.134 344.693 299.398 344.693C298.754 344.693 298.214 344.856 297.777 345.182C297.341 345.507 297.123 345.901 297.123 346.363H295.307C295.307 345.836 295.492 345.328 295.863 344.84C296.241 344.345 296.749 343.954 297.387 343.668C298.031 343.382 298.738 343.238 299.506 343.238C300.723 343.238 301.677 343.544 302.367 344.156C303.057 344.762 303.415 345.598 303.441 346.666V351.529C303.441 352.499 303.565 353.271 303.812 353.844V354H301.918ZM298.92 352.623C299.486 352.623 300.023 352.477 300.531 352.184C301.039 351.891 301.407 351.51 301.635 351.041V348.873H300.219C298.005 348.873 296.898 349.521 296.898 350.816C296.898 351.383 297.087 351.826 297.465 352.145C297.842 352.464 298.327 352.623 298.92 352.623ZM307.982 343.434L308.041 344.762C308.848 343.746 309.903 343.238 311.205 343.238C313.438 343.238 314.564 344.498 314.584 347.018V354H312.777V347.008C312.771 346.246 312.595 345.683 312.25 345.318C311.911 344.954 311.381 344.771 310.658 344.771C310.072 344.771 309.558 344.928 309.115 345.24C308.673 345.553 308.327 345.963 308.08 346.471V354H306.273V343.434H307.982ZM321.547 352.721C322.191 352.721 322.755 352.525 323.236 352.135C323.718 351.744 323.985 351.256 324.037 350.67H325.746C325.714 351.275 325.505 351.852 325.121 352.398C324.737 352.945 324.223 353.382 323.578 353.707C322.94 354.033 322.263 354.195 321.547 354.195C320.108 354.195 318.962 353.717 318.109 352.76C317.263 351.796 316.84 350.481 316.84 348.814V348.512C316.84 347.483 317.029 346.568 317.406 345.768C317.784 344.967 318.324 344.345 319.027 343.902C319.737 343.46 320.574 343.238 321.537 343.238C322.722 343.238 323.705 343.593 324.486 344.303C325.274 345.012 325.694 345.934 325.746 347.066H324.037C323.985 346.383 323.725 345.823 323.256 345.387C322.794 344.944 322.221 344.723 321.537 344.723C320.619 344.723 319.906 345.055 319.398 345.719C318.897 346.376 318.646 347.33 318.646 348.58V348.922C318.646 350.139 318.897 351.077 319.398 351.734C319.9 352.392 320.616 352.721 321.547 352.721ZM332.162 354.195C330.73 354.195 329.564 353.727 328.666 352.789C327.768 351.845 327.318 350.585 327.318 349.01V348.678C327.318 347.63 327.517 346.695 327.914 345.875C328.318 345.048 328.878 344.404 329.594 343.941C330.316 343.473 331.098 343.238 331.938 343.238C333.311 343.238 334.379 343.691 335.141 344.596C335.902 345.501 336.283 346.796 336.283 348.482V349.234H329.125C329.151 350.276 329.454 351.119 330.033 351.764C330.619 352.402 331.361 352.721 332.26 352.721C332.898 352.721 333.438 352.59 333.881 352.33C334.324 352.07 334.711 351.725 335.043 351.295L336.146 352.154C335.261 353.515 333.933 354.195 332.162 354.195ZM331.938 344.723C331.208 344.723 330.596 344.99 330.102 345.523C329.607 346.051 329.301 346.793 329.184 347.75H334.477V347.613C334.424 346.695 334.177 345.986 333.734 345.484C333.292 344.977 332.693 344.723 331.938 344.723ZM340.346 354H338.539V339H340.346V354ZM349.77 354C349.665 353.792 349.581 353.421 349.516 352.887C348.676 353.759 347.673 354.195 346.508 354.195C345.466 354.195 344.61 353.902 343.939 353.316C343.275 352.724 342.943 351.975 342.943 351.07C342.943 349.97 343.36 349.117 344.193 348.512C345.033 347.9 346.212 347.594 347.729 347.594H349.486V346.764C349.486 346.132 349.298 345.631 348.92 345.26C348.542 344.882 347.986 344.693 347.25 344.693C346.605 344.693 346.065 344.856 345.629 345.182C345.193 345.507 344.975 345.901 344.975 346.363H343.158C343.158 345.836 343.344 345.328 343.715 344.84C344.092 344.345 344.6 343.954 345.238 343.668C345.883 343.382 346.589 343.238 347.357 343.238C348.575 343.238 349.529 343.544 350.219 344.156C350.909 344.762 351.267 345.598 351.293 346.666V351.529C351.293 352.499 351.417 353.271 351.664 353.844V354H349.77ZM346.771 352.623C347.338 352.623 347.875 352.477 348.383 352.184C348.891 351.891 349.258 351.51 349.486 351.041V348.873H348.07C345.857 348.873 344.75 349.521 344.75 350.816C344.75 351.383 344.939 351.826 345.316 352.145C345.694 352.464 346.179 352.623 346.771 352.623ZM359.232 345.055C358.959 345.009 358.663 344.986 358.344 344.986C357.159 344.986 356.355 345.491 355.932 346.5V354H354.125V343.434H355.883L355.912 344.654C356.505 343.71 357.344 343.238 358.432 343.238C358.783 343.238 359.05 343.284 359.232 343.375V345.055Z" fill="black"/>
<rect y="152" width="968" height="576" fill="white"/>
<rect x="216.5" y="275.5" width="599" height="34" fill="white" stroke="black"/>
<rect x="216.5" y="360.5" width="599" height="34" fill="white" stroke="black"/>
<rect x="216.5" y="444.5" width="599" height="34" fill="white" stroke="black"/>
<rect x="216.5" y="514.5" width="599" height="34" fill="white" stroke="black"/>
<path d="M32.5781 297H30.6934L23.5352 286.043V297H21.6504V282.781H23.5352L30.7129 293.787V282.781H32.5781V297ZM35.1465 291.619C35.1465 290.584 35.3483 289.653 35.752 288.826C36.1621 287.999 36.7285 287.361 37.4512 286.912C38.1803 286.463 39.0104 286.238 39.9414 286.238C41.3802 286.238 42.5423 286.736 43.4277 287.732C44.3197 288.729 44.7656 290.053 44.7656 291.707V291.834C44.7656 292.863 44.5671 293.787 44.1699 294.607C43.7793 295.421 43.2161 296.056 42.4805 296.512C41.7513 296.967 40.9115 297.195 39.9609 297.195C38.5286 297.195 37.3665 296.697 36.4746 295.701C35.5892 294.705 35.1465 293.387 35.1465 291.746V291.619ZM36.9629 291.834C36.9629 293.006 37.2331 293.947 37.7734 294.656C38.3203 295.366 39.0495 295.721 39.9609 295.721C40.8789 295.721 41.6081 295.363 42.1484 294.646C42.6888 293.924 42.959 292.915 42.959 291.619C42.959 290.46 42.6823 289.523 42.1289 288.807C41.582 288.084 40.8529 287.723 39.9414 287.723C39.0495 287.723 38.3301 288.077 37.7832 288.787C37.2363 289.497 36.9629 290.512 36.9629 291.834ZM48.7305 286.434L48.7793 287.605C49.554 286.694 50.599 286.238 51.9141 286.238C53.3919 286.238 54.3978 286.805 54.9316 287.938C55.2832 287.43 55.7389 287.02 56.2988 286.707C56.8652 286.395 57.5326 286.238 58.3008 286.238C60.6185 286.238 61.7969 287.465 61.8359 289.92V297H60.0293V290.027C60.0293 289.272 59.8568 288.709 59.5117 288.338C59.1667 287.96 58.5872 287.771 57.7734 287.771C57.1029 287.771 56.5462 287.973 56.1035 288.377C55.6608 288.774 55.4036 289.311 55.332 289.988V297H53.5156V290.076C53.5156 288.54 52.7637 287.771 51.2598 287.771C50.0749 287.771 49.2643 288.276 48.8281 289.285V297H47.0215V286.434H48.7305ZM73.5156 291.834C73.5156 293.449 73.1445 294.747 72.4023 295.73C71.6602 296.707 70.6641 297.195 69.4141 297.195C68.0794 297.195 67.0475 296.723 66.3184 295.779L66.2305 297H64.5703V282H66.377V287.596C67.1061 286.691 68.112 286.238 69.3945 286.238C70.6771 286.238 71.6829 286.723 72.4121 287.693C73.1478 288.663 73.5156 289.992 73.5156 291.678V291.834ZM71.709 291.629C71.709 290.398 71.4714 289.448 70.9961 288.777C70.5208 288.107 69.8372 287.771 68.9453 287.771C67.7539 287.771 66.8978 288.325 66.377 289.432V294.002C66.9303 295.109 67.793 295.662 68.9648 295.662C69.8307 295.662 70.5046 295.327 70.9863 294.656C71.4681 293.986 71.709 292.977 71.709 291.629ZM80.9082 288.055C80.6348 288.009 80.3385 287.986 80.0195 287.986C78.8346 287.986 78.0306 288.491 77.6074 289.5V297H75.8008V286.434H77.5586L77.5879 287.654C78.1803 286.71 79.0202 286.238 80.1074 286.238C80.459 286.238 80.7259 286.284 80.9082 286.375V288.055ZM86.7676 297.195C85.3353 297.195 84.1699 296.727 83.2715 295.789C82.373 294.845 81.9238 293.585 81.9238 292.01V291.678C81.9238 290.63 82.1224 289.695 82.5195 288.875C82.9232 288.048 83.4831 287.404 84.1992 286.941C84.9219 286.473 85.7031 286.238 86.543 286.238C87.9167 286.238 88.9844 286.691 89.7461 287.596C90.5078 288.501 90.8887 289.796 90.8887 291.482V292.234H83.7305C83.7565 293.276 84.0592 294.119 84.6387 294.764C85.2246 295.402 85.9668 295.721 86.8652 295.721C87.5033 295.721 88.0436 295.59 88.4863 295.33C88.929 295.07 89.3164 294.725 89.6484 294.295L90.752 295.154C89.8665 296.515 88.5384 297.195 86.7676 297.195ZM86.543 287.723C85.8138 287.723 85.2018 287.99 84.707 288.523C84.2122 289.051 83.9062 289.793 83.7891 290.75H89.082V290.613C89.0299 289.695 88.7826 288.986 88.3398 288.484C87.8971 287.977 87.2982 287.723 86.543 287.723ZM104.189 282.781H106.074V292.85C106.074 294.21 105.664 295.275 104.844 296.043C104.03 296.811 102.943 297.195 101.582 297.195C100.169 297.195 99.069 296.834 98.2812 296.111C97.4935 295.389 97.0996 294.376 97.0996 293.074H98.9746C98.9746 293.888 99.196 294.523 99.6387 294.979C100.088 295.434 100.736 295.662 101.582 295.662C102.357 295.662 102.982 295.418 103.457 294.93C103.939 294.441 104.183 293.758 104.189 292.879V282.781ZM115.508 295.955C114.805 296.782 113.773 297.195 112.412 297.195C111.286 297.195 110.426 296.87 109.834 296.219C109.248 295.561 108.952 294.591 108.945 293.309V286.434H110.752V293.26C110.752 294.861 111.403 295.662 112.705 295.662C114.085 295.662 115.003 295.148 115.459 294.119V286.434H117.266V297H115.547L115.508 295.955ZM119.59 291.629C119.59 289.982 119.971 288.673 120.732 287.703C121.494 286.727 122.503 286.238 123.76 286.238C125.049 286.238 126.055 286.694 126.777 287.605L126.865 286.434H128.516V296.746C128.516 298.113 128.109 299.191 127.295 299.979C126.488 300.766 125.4 301.16 124.033 301.16C123.271 301.16 122.526 300.997 121.797 300.672C121.068 300.346 120.511 299.9 120.127 299.334L121.064 298.25C121.839 299.207 122.786 299.686 123.906 299.686C124.785 299.686 125.469 299.438 125.957 298.943C126.452 298.449 126.699 297.752 126.699 296.854V295.945C125.977 296.779 124.99 297.195 123.74 297.195C122.503 297.195 121.501 296.697 120.732 295.701C119.971 294.705 119.59 293.348 119.59 291.629ZM121.406 291.834C121.406 293.025 121.65 293.963 122.139 294.646C122.627 295.324 123.311 295.662 124.189 295.662C125.329 295.662 126.165 295.145 126.699 294.109V289.285C126.146 288.276 125.316 287.771 124.209 287.771C123.33 287.771 122.643 288.113 122.148 288.797C121.654 289.48 121.406 290.493 121.406 291.834ZM137.773 297C137.669 296.792 137.585 296.421 137.52 295.887C136.68 296.759 135.677 297.195 134.512 297.195C133.47 297.195 132.614 296.902 131.943 296.316C131.279 295.724 130.947 294.975 130.947 294.07C130.947 292.97 131.364 292.117 132.197 291.512C133.037 290.9 134.215 290.594 135.732 290.594H137.49V289.764C137.49 289.132 137.301 288.631 136.924 288.26C136.546 287.882 135.99 287.693 135.254 287.693C134.609 287.693 134.069 287.856 133.633 288.182C133.197 288.507 132.979 288.901 132.979 289.363H131.162C131.162 288.836 131.348 288.328 131.719 287.84C132.096 287.345 132.604 286.954 133.242 286.668C133.887 286.382 134.593 286.238 135.361 286.238C136.579 286.238 137.533 286.544 138.223 287.156C138.913 287.762 139.271 288.598 139.297 289.666V294.529C139.297 295.499 139.421 296.271 139.668 296.844V297H137.773ZM134.775 295.623C135.342 295.623 135.879 295.477 136.387 295.184C136.895 294.891 137.262 294.51 137.49 294.041V291.873H136.074C133.861 291.873 132.754 292.521 132.754 293.816C132.754 294.383 132.943 294.826 133.32 295.145C133.698 295.464 134.183 295.623 134.775 295.623ZM141.689 291.629C141.689 290.008 142.074 288.706 142.842 287.723C143.61 286.733 144.616 286.238 145.859 286.238C147.096 286.238 148.076 286.661 148.799 287.508V282H150.605V297H148.945L148.857 295.867C148.135 296.753 147.129 297.195 145.84 297.195C144.616 297.195 143.617 296.694 142.842 295.691C142.074 294.689 141.689 293.38 141.689 291.766V291.629ZM143.496 291.834C143.496 293.032 143.743 293.969 144.238 294.646C144.733 295.324 145.417 295.662 146.289 295.662C147.435 295.662 148.271 295.148 148.799 294.119V289.266C148.258 288.27 147.428 287.771 146.309 287.771C145.423 287.771 144.733 288.113 144.238 288.797C143.743 289.48 143.496 290.493 143.496 291.834ZM152.939 291.619C152.939 290.584 153.141 289.653 153.545 288.826C153.955 287.999 154.521 287.361 155.244 286.912C155.973 286.463 156.803 286.238 157.734 286.238C159.173 286.238 160.335 286.736 161.221 287.732C162.113 288.729 162.559 290.053 162.559 291.707V291.834C162.559 292.863 162.36 293.787 161.963 294.607C161.572 295.421 161.009 296.056 160.273 296.512C159.544 296.967 158.704 297.195 157.754 297.195C156.322 297.195 155.16 296.697 154.268 295.701C153.382 294.705 152.939 293.387 152.939 291.746V291.619ZM154.756 291.834C154.756 293.006 155.026 293.947 155.566 294.656C156.113 295.366 156.842 295.721 157.754 295.721C158.672 295.721 159.401 295.363 159.941 294.646C160.482 293.924 160.752 292.915 160.752 291.619C160.752 290.46 160.475 289.523 159.922 288.807C159.375 288.084 158.646 287.723 157.734 287.723C156.842 287.723 156.123 288.077 155.576 288.787C155.029 289.497 154.756 290.512 154.756 291.834ZM169.932 288.055C169.658 288.009 169.362 287.986 169.043 287.986C167.858 287.986 167.054 288.491 166.631 289.5V297H164.824V286.434H166.582L166.611 287.654C167.204 286.71 168.044 286.238 169.131 286.238C169.482 286.238 169.749 286.284 169.932 286.375V288.055ZM171.543 296.053C171.543 295.74 171.634 295.48 171.816 295.271C172.005 295.063 172.285 294.959 172.656 294.959C173.027 294.959 173.307 295.063 173.496 295.271C173.691 295.48 173.789 295.74 173.789 296.053C173.789 296.352 173.691 296.603 173.496 296.805C173.307 297.007 173.027 297.107 172.656 297.107C172.285 297.107 172.005 297.007 171.816 296.805C171.634 296.603 171.543 296.352 171.543 296.053ZM171.553 287.43C171.553 287.117 171.644 286.857 171.826 286.648C172.015 286.44 172.295 286.336 172.666 286.336C173.037 286.336 173.317 286.44 173.506 286.648C173.701 286.857 173.799 287.117 173.799 287.43C173.799 287.729 173.701 287.98 173.506 288.182C173.317 288.383 173.037 288.484 172.666 288.484C172.295 288.484 172.015 288.383 171.826 288.182C171.644 287.98 171.553 287.729 171.553 287.43Z" fill="black"/>
<path d="M21.6504 395V380.781H25.6641C26.901 380.781 27.9948 381.055 28.9453 381.602C29.8958 382.148 30.6283 382.926 31.1426 383.936C31.6634 384.945 31.9271 386.104 31.9336 387.412V388.32C31.9336 389.661 31.6732 390.837 31.1523 391.846C30.638 392.855 29.8991 393.63 28.9355 394.17C27.9785 394.71 26.862 394.987 25.5859 395H21.6504ZM23.5254 382.324V393.467H25.498C26.9434 393.467 28.0664 393.018 28.8672 392.119C29.6745 391.221 30.0781 389.941 30.0781 388.281V387.451C30.0781 385.837 29.6973 384.583 28.9355 383.691C28.1803 382.793 27.1061 382.337 25.7129 382.324H23.5254ZM41.0156 393.955C40.3125 394.782 39.2806 395.195 37.9199 395.195C36.7936 395.195 35.9342 394.87 35.3418 394.219C34.7559 393.561 34.4596 392.591 34.4531 391.309V384.434H36.2598V391.26C36.2598 392.861 36.9108 393.662 38.2129 393.662C39.5931 393.662 40.5111 393.148 40.9668 392.119V384.434H42.7734V395H41.0547L41.0156 393.955ZM50.6348 386.055C50.3613 386.009 50.0651 385.986 49.7461 385.986C48.5612 385.986 47.7572 386.491 47.334 387.5V395H45.5273V384.434H47.2852L47.3145 385.654C47.9069 384.71 48.7467 384.238 49.834 384.238C50.1855 384.238 50.4525 384.284 50.6348 384.375V386.055ZM58.4375 395C58.3333 394.792 58.2487 394.421 58.1836 393.887C57.3438 394.759 56.3411 395.195 55.1758 395.195C54.1341 395.195 53.278 394.902 52.6074 394.316C51.9434 393.724 51.6113 392.975 51.6113 392.07C51.6113 390.97 52.028 390.117 52.8613 389.512C53.7012 388.9 54.8796 388.594 56.3965 388.594H58.1543V387.764C58.1543 387.132 57.9655 386.631 57.5879 386.26C57.2103 385.882 56.6536 385.693 55.918 385.693C55.2734 385.693 54.7331 385.856 54.2969 386.182C53.8607 386.507 53.6426 386.901 53.6426 387.363H51.8262C51.8262 386.836 52.0117 386.328 52.3828 385.84C52.7604 385.345 53.2682 384.954 53.9062 384.668C54.5508 384.382 55.2572 384.238 56.0254 384.238C57.2428 384.238 58.1966 384.544 58.8867 385.156C59.5768 385.762 59.9349 386.598 59.9609 387.666V392.529C59.9609 393.499 60.0846 394.271 60.332 394.844V395H58.4375ZM55.4395 393.623C56.0059 393.623 56.543 393.477 57.0508 393.184C57.5586 392.891 57.9264 392.51 58.1543 392.041V389.873H56.7383C54.5247 389.873 53.418 390.521 53.418 391.816C53.418 392.383 53.6068 392.826 53.9844 393.145C54.362 393.464 54.847 393.623 55.4395 393.623ZM67.0312 393.721C67.6758 393.721 68.2389 393.525 68.7207 393.135C69.2025 392.744 69.4694 392.256 69.5215 391.67H71.2305C71.1979 392.275 70.9896 392.852 70.6055 393.398C70.2214 393.945 69.707 394.382 69.0625 394.707C68.4245 395.033 67.7474 395.195 67.0312 395.195C65.5924 395.195 64.4466 394.717 63.5938 393.76C62.7474 392.796 62.3242 391.481 62.3242 389.814V389.512C62.3242 388.483 62.513 387.568 62.8906 386.768C63.2682 385.967 63.8086 385.345 64.5117 384.902C65.2214 384.46 66.0579 384.238 67.0215 384.238C68.2064 384.238 69.1895 384.593 69.9707 385.303C70.7585 386.012 71.1784 386.934 71.2305 388.066H69.5215C69.4694 387.383 69.209 386.823 68.7402 386.387C68.278 385.944 67.7051 385.723 67.0215 385.723C66.1035 385.723 65.3906 386.055 64.8828 386.719C64.3815 387.376 64.1309 388.33 64.1309 389.58V389.922C64.1309 391.139 64.3815 392.077 64.8828 392.734C65.3841 393.392 66.1003 393.721 67.0312 393.721ZM75.2246 395H73.418V384.434H75.2246V395ZM73.2715 381.631C73.2715 381.338 73.3594 381.09 73.5352 380.889C73.7174 380.687 73.9844 380.586 74.3359 380.586C74.6875 380.586 74.9544 380.687 75.1367 380.889C75.319 381.09 75.4102 381.338 75.4102 381.631C75.4102 381.924 75.319 382.168 75.1367 382.363C74.9544 382.559 74.6875 382.656 74.3359 382.656C73.9844 382.656 73.7174 382.559 73.5352 382.363C73.3594 382.168 73.2715 381.924 73.2715 381.631ZM77.6465 389.619C77.6465 388.584 77.8483 387.653 78.252 386.826C78.6621 385.999 79.2285 385.361 79.9512 384.912C80.6803 384.463 81.5104 384.238 82.4414 384.238C83.8802 384.238 85.0423 384.736 85.9277 385.732C86.8197 386.729 87.2656 388.053 87.2656 389.707V389.834C87.2656 390.863 87.0671 391.787 86.6699 392.607C86.2793 393.421 85.7161 394.056 84.9805 394.512C84.2513 394.967 83.4115 395.195 82.4609 395.195C81.0286 395.195 79.8665 394.697 78.9746 393.701C78.0892 392.705 77.6465 391.387 77.6465 389.746V389.619ZM79.4629 389.834C79.4629 391.006 79.7331 391.947 80.2734 392.656C80.8203 393.366 81.5495 393.721 82.4609 393.721C83.3789 393.721 84.1081 393.363 84.6484 392.646C85.1888 391.924 85.459 390.915 85.459 389.619C85.459 388.46 85.1823 387.523 84.6289 386.807C84.082 386.084 83.3529 385.723 82.4414 385.723C81.5495 385.723 80.8301 386.077 80.2832 386.787C79.7363 387.497 79.4629 388.512 79.4629 389.834ZM83.2617 380H85.4492L82.832 382.871H81.377L83.2617 380ZM91.2402 384.434L91.2988 385.762C92.1061 384.746 93.1608 384.238 94.4629 384.238C96.696 384.238 97.8223 385.498 97.8418 388.018V395H96.0352V388.008C96.0286 387.246 95.8529 386.683 95.5078 386.318C95.1693 385.954 94.6387 385.771 93.916 385.771C93.3301 385.771 92.8158 385.928 92.373 386.24C91.9303 386.553 91.5853 386.963 91.3379 387.471V395H89.5312V384.434H91.2402ZM105.088 389.629C105.088 388.008 105.472 386.706 106.24 385.723C107.008 384.733 108.014 384.238 109.258 384.238C110.495 384.238 111.475 384.661 112.197 385.508V380H114.004V395H112.344L112.256 393.867C111.533 394.753 110.527 395.195 109.238 395.195C108.014 395.195 107.015 394.694 106.24 393.691C105.472 392.689 105.088 391.38 105.088 389.766V389.629ZM106.895 389.834C106.895 391.032 107.142 391.969 107.637 392.646C108.132 393.324 108.815 393.662 109.688 393.662C110.833 393.662 111.67 393.148 112.197 392.119V387.266C111.657 386.27 110.827 385.771 109.707 385.771C108.822 385.771 108.132 386.113 107.637 386.797C107.142 387.48 106.895 388.493 106.895 389.834ZM121.201 395.195C119.769 395.195 118.604 394.727 117.705 393.789C116.807 392.845 116.357 391.585 116.357 390.01V389.678C116.357 388.63 116.556 387.695 116.953 386.875C117.357 386.048 117.917 385.404 118.633 384.941C119.355 384.473 120.137 384.238 120.977 384.238C122.35 384.238 123.418 384.691 124.18 385.596C124.941 386.501 125.322 387.796 125.322 389.482V390.234H118.164C118.19 391.276 118.493 392.119 119.072 392.764C119.658 393.402 120.4 393.721 121.299 393.721C121.937 393.721 122.477 393.59 122.92 393.33C123.363 393.07 123.75 392.725 124.082 392.295L125.186 393.154C124.3 394.515 122.972 395.195 121.201 395.195ZM120.977 385.723C120.247 385.723 119.635 385.99 119.141 386.523C118.646 387.051 118.34 387.793 118.223 388.75H123.516V388.613C123.464 387.695 123.216 386.986 122.773 386.484C122.331 385.977 121.732 385.723 120.977 385.723ZM129.385 395H127.578V380H129.385V395ZM146.963 382.324H142.393V395H140.527V382.324H135.967V380.781H146.963V382.324ZM150.752 395H148.945V384.434H150.752V395ZM148.799 381.631C148.799 381.338 148.887 381.09 149.062 380.889C149.245 380.687 149.512 380.586 149.863 380.586C150.215 380.586 150.482 380.687 150.664 380.889C150.846 381.09 150.938 381.338 150.938 381.631C150.938 381.924 150.846 382.168 150.664 382.363C150.482 382.559 150.215 382.656 149.863 382.656C149.512 382.656 149.245 382.559 149.062 382.363C148.887 382.168 148.799 381.924 148.799 381.631ZM155.352 384.434L155.4 385.605C156.175 384.694 157.22 384.238 158.535 384.238C160.013 384.238 161.019 384.805 161.553 385.938C161.904 385.43 162.36 385.02 162.92 384.707C163.486 384.395 164.154 384.238 164.922 384.238C167.24 384.238 168.418 385.465 168.457 387.92V395H166.65V388.027C166.65 387.272 166.478 386.709 166.133 386.338C165.788 385.96 165.208 385.771 164.395 385.771C163.724 385.771 163.167 385.973 162.725 386.377C162.282 386.774 162.025 387.311 161.953 387.988V395H160.137V388.076C160.137 386.54 159.385 385.771 157.881 385.771C156.696 385.771 155.885 386.276 155.449 387.285V395H153.643V384.434H155.352ZM175.576 395.195C174.144 395.195 172.979 394.727 172.08 393.789C171.182 392.845 170.732 391.585 170.732 390.01V389.678C170.732 388.63 170.931 387.695 171.328 386.875C171.732 386.048 172.292 385.404 173.008 384.941C173.73 384.473 174.512 384.238 175.352 384.238C176.725 384.238 177.793 384.691 178.555 385.596C179.316 386.501 179.697 387.796 179.697 389.482V390.234H172.539C172.565 391.276 172.868 392.119 173.447 392.764C174.033 393.402 174.775 393.721 175.674 393.721C176.312 393.721 176.852 393.59 177.295 393.33C177.738 393.07 178.125 392.725 178.457 392.295L179.561 393.154C178.675 394.515 177.347 395.195 175.576 395.195ZM175.352 385.723C174.622 385.723 174.01 385.99 173.516 386.523C173.021 387.051 172.715 387.793 172.598 388.75H177.891V388.613C177.839 387.695 177.591 386.986 177.148 386.484C176.706 385.977 176.107 385.723 175.352 385.723ZM186.904 386.055C186.631 386.009 186.335 385.986 186.016 385.986C184.831 385.986 184.027 386.491 183.604 387.5V395H181.797V384.434H183.555L183.584 385.654C184.176 384.71 185.016 384.238 186.104 384.238C186.455 384.238 186.722 384.284 186.904 384.375V386.055ZM188.516 394.053C188.516 393.74 188.607 393.48 188.789 393.271C188.978 393.063 189.258 392.959 189.629 392.959C190 392.959 190.28 393.063 190.469 393.271C190.664 393.48 190.762 393.74 190.762 394.053C190.762 394.352 190.664 394.603 190.469 394.805C190.28 395.007 190 395.107 189.629 395.107C189.258 395.107 188.978 395.007 188.789 394.805C188.607 394.603 188.516 394.352 188.516 394.053ZM188.525 385.43C188.525 385.117 188.617 384.857 188.799 384.648C188.988 384.44 189.268 384.336 189.639 384.336C190.01 384.336 190.29 384.44 190.479 384.648C190.674 384.857 190.771 385.117 190.771 385.43C190.771 385.729 190.674 385.98 190.479 386.182C190.29 386.383 190.01 386.484 189.639 386.484C189.268 386.484 188.988 386.383 188.799 386.182C188.617 385.98 188.525 385.729 188.525 385.43Z" fill="black"/>
<path d="M32.1094 463.488C31.9336 464.992 31.377 466.154 30.4395 466.975C29.5085 467.788 28.2682 468.195 26.7188 468.195C25.0391 468.195 23.6914 467.593 22.6758 466.389C21.6667 465.184 21.1621 463.573 21.1621 461.555V460.188C21.1621 458.866 21.3965 457.704 21.8652 456.701C22.3405 455.699 23.0111 454.93 23.877 454.396C24.7428 453.856 25.7454 453.586 26.8848 453.586C28.3952 453.586 29.6061 454.009 30.5176 454.855C31.429 455.695 31.9596 456.861 32.1094 458.352H30.2246C30.0618 457.219 29.707 456.398 29.1602 455.891C28.6198 455.383 27.8613 455.129 26.8848 455.129C25.6868 455.129 24.7461 455.572 24.0625 456.457C23.3854 457.342 23.0469 458.602 23.0469 460.236V461.613C23.0469 463.156 23.3691 464.383 24.0137 465.295C24.6582 466.206 25.5599 466.662 26.7188 466.662C27.7604 466.662 28.5579 466.428 29.1113 465.959C29.6712 465.484 30.0423 464.66 30.2246 463.488H32.1094ZM40.918 468C40.8138 467.792 40.7292 467.421 40.6641 466.887C39.8242 467.759 38.8216 468.195 37.6562 468.195C36.6146 468.195 35.7585 467.902 35.0879 467.316C34.4238 466.724 34.0918 465.975 34.0918 465.07C34.0918 463.97 34.5085 463.117 35.3418 462.512C36.1816 461.9 37.36 461.594 38.877 461.594H40.6348V460.764C40.6348 460.132 40.446 459.631 40.0684 459.26C39.6908 458.882 39.1341 458.693 38.3984 458.693C37.7539 458.693 37.2135 458.856 36.7773 459.182C36.3411 459.507 36.123 459.901 36.123 460.363H34.3066C34.3066 459.836 34.4922 459.328 34.8633 458.84C35.2409 458.345 35.7487 457.954 36.3867 457.668C37.0312 457.382 37.7376 457.238 38.5059 457.238C39.7233 457.238 40.6771 457.544 41.3672 458.156C42.0573 458.762 42.4154 459.598 42.4414 460.666V465.529C42.4414 466.499 42.5651 467.271 42.8125 467.844V468H40.918ZM37.9199 466.623C38.4863 466.623 39.0234 466.477 39.5312 466.184C40.0391 465.891 40.4069 465.51 40.6348 465.041V462.873H39.2188C37.0052 462.873 35.8984 463.521 35.8984 464.816C35.8984 465.383 36.0872 465.826 36.4648 466.145C36.8424 466.464 37.3275 466.623 37.9199 466.623ZM46.9824 457.434L47.041 458.762C47.8483 457.746 48.903 457.238 50.2051 457.238C52.4382 457.238 53.5645 458.498 53.584 461.018V468H51.7773V461.008C51.7708 460.246 51.5951 459.683 51.25 459.318C50.9115 458.954 50.3809 458.771 49.6582 458.771C49.0723 458.771 48.5579 458.928 48.1152 459.24C47.6725 459.553 47.3275 459.963 47.0801 460.471V468H45.2734V457.434H46.9824ZM58.7598 454.875V457.434H60.7324V458.83H58.7598V465.383C58.7598 465.806 58.8477 466.125 59.0234 466.34C59.1992 466.548 59.4987 466.652 59.9219 466.652C60.1302 466.652 60.4167 466.613 60.7812 466.535V468C60.306 468.13 59.8438 468.195 59.3945 468.195C58.5872 468.195 57.9785 467.951 57.5684 467.463C57.1582 466.975 56.9531 466.281 56.9531 465.383V458.83H55.0293V457.434H56.9531V454.875H58.7598ZM64.8145 468H63.0078V457.434H64.8145V468ZM62.8613 454.631C62.8613 454.338 62.9492 454.09 63.125 453.889C63.3073 453.687 63.5742 453.586 63.9258 453.586C64.2773 453.586 64.5443 453.687 64.7266 453.889C64.9089 454.09 65 454.338 65 454.631C65 454.924 64.9089 455.168 64.7266 455.363C64.5443 455.559 64.2773 455.656 63.9258 455.656C63.5742 455.656 63.3073 455.559 63.125 455.363C62.9492 455.168 62.8613 454.924 62.8613 454.631ZM67.2754 462.629C67.2754 461.008 67.6595 459.706 68.4277 458.723C69.196 457.733 70.2018 457.238 71.4453 457.238C72.6823 457.238 73.6621 457.661 74.3848 458.508V453H76.1914V468H74.5312L74.4434 466.867C73.7207 467.753 72.7148 468.195 71.4258 468.195C70.2018 468.195 69.2025 467.694 68.4277 466.691C67.6595 465.689 67.2754 464.38 67.2754 462.766V462.629ZM69.082 462.834C69.082 464.032 69.3294 464.969 69.8242 465.646C70.319 466.324 71.0026 466.662 71.875 466.662C73.0208 466.662 73.8574 466.148 74.3848 465.119V460.266C73.8444 459.27 73.0143 458.771 71.8945 458.771C71.0091 458.771 70.319 459.113 69.8242 459.797C69.3294 460.48 69.082 461.493 69.082 462.834ZM85.5273 468C85.4232 467.792 85.3385 467.421 85.2734 466.887C84.4336 467.759 83.431 468.195 82.2656 468.195C81.224 468.195 80.3678 467.902 79.6973 467.316C79.0332 466.724 78.7012 465.975 78.7012 465.07C78.7012 463.97 79.1178 463.117 79.9512 462.512C80.791 461.9 81.9694 461.594 83.4863 461.594H85.2441V460.764C85.2441 460.132 85.0553 459.631 84.6777 459.26C84.3001 458.882 83.7435 458.693 83.0078 458.693C82.3633 458.693 81.8229 458.856 81.3867 459.182C80.9505 459.507 80.7324 459.901 80.7324 460.363H78.916C78.916 459.836 79.1016 459.328 79.4727 458.84C79.8503 458.345 80.3581 457.954 80.9961 457.668C81.6406 457.382 82.347 457.238 83.1152 457.238C84.3327 457.238 85.2865 457.544 85.9766 458.156C86.6667 458.762 87.0247 459.598 87.0508 460.666V465.529C87.0508 466.499 87.1745 467.271 87.4219 467.844V468H85.5273ZM82.5293 466.623C83.0957 466.623 83.6328 466.477 84.1406 466.184C84.6484 465.891 85.0163 465.51 85.2441 465.041V462.873H83.8281C81.6146 462.873 80.5078 463.521 80.5078 464.816C80.5078 465.383 80.6966 465.826 81.0742 466.145C81.4518 466.464 81.9368 466.623 82.5293 466.623ZM89.4434 462.629C89.4434 461.008 89.8275 459.706 90.5957 458.723C91.3639 457.733 92.3698 457.238 93.6133 457.238C94.8503 457.238 95.8301 457.661 96.5527 458.508V453H98.3594V468H96.6992L96.6113 466.867C95.8887 467.753 94.8828 468.195 93.5938 468.195C92.3698 468.195 91.3704 467.694 90.5957 466.691C89.8275 465.689 89.4434 464.38 89.4434 462.766V462.629ZM91.25 462.834C91.25 464.032 91.4974 464.969 91.9922 465.646C92.487 466.324 93.1706 466.662 94.043 466.662C95.1888 466.662 96.0254 466.148 96.5527 465.119V460.266C96.0124 459.27 95.1823 458.771 94.0625 458.771C93.1771 458.771 92.487 459.113 91.9922 459.797C91.4974 460.48 91.25 461.493 91.25 462.834ZM112.373 453.781H114.258V463.85C114.258 465.21 113.848 466.275 113.027 467.043C112.214 467.811 111.126 468.195 109.766 468.195C108.353 468.195 107.253 467.834 106.465 467.111C105.677 466.389 105.283 465.376 105.283 464.074H107.158C107.158 464.888 107.38 465.523 107.822 465.979C108.271 466.434 108.919 466.662 109.766 466.662C110.54 466.662 111.165 466.418 111.641 465.93C112.122 465.441 112.367 464.758 112.373 463.879V453.781ZM123.691 466.955C122.988 467.782 121.956 468.195 120.596 468.195C119.469 468.195 118.61 467.87 118.018 467.219C117.432 466.561 117.135 465.591 117.129 464.309V457.434H118.936V464.26C118.936 465.861 119.587 466.662 120.889 466.662C122.269 466.662 123.187 466.148 123.643 465.119V457.434H125.449V468H123.73L123.691 466.955ZM127.773 462.629C127.773 460.982 128.154 459.673 128.916 458.703C129.678 457.727 130.687 457.238 131.943 457.238C133.232 457.238 134.238 457.694 134.961 458.605L135.049 457.434H136.699V467.746C136.699 469.113 136.292 470.191 135.479 470.979C134.671 471.766 133.584 472.16 132.217 472.16C131.455 472.16 130.71 471.997 129.98 471.672C129.251 471.346 128.695 470.9 128.311 470.334L129.248 469.25C130.023 470.207 130.97 470.686 132.09 470.686C132.969 470.686 133.652 470.438 134.141 469.943C134.635 469.449 134.883 468.752 134.883 467.854V466.945C134.16 467.779 133.174 468.195 131.924 468.195C130.687 468.195 129.684 467.697 128.916 466.701C128.154 465.705 127.773 464.348 127.773 462.629ZM129.59 462.834C129.59 464.025 129.834 464.963 130.322 465.646C130.811 466.324 131.494 466.662 132.373 466.662C133.512 466.662 134.349 466.145 134.883 465.109V460.285C134.329 459.276 133.499 458.771 132.393 458.771C131.514 458.771 130.827 459.113 130.332 459.797C129.837 460.48 129.59 461.493 129.59 462.834ZM145.957 468C145.853 467.792 145.768 467.421 145.703 466.887C144.863 467.759 143.861 468.195 142.695 468.195C141.654 468.195 140.798 467.902 140.127 467.316C139.463 466.724 139.131 465.975 139.131 465.07C139.131 463.97 139.548 463.117 140.381 462.512C141.221 461.9 142.399 461.594 143.916 461.594H145.674V460.764C145.674 460.132 145.485 459.631 145.107 459.26C144.73 458.882 144.173 458.693 143.438 458.693C142.793 458.693 142.253 458.856 141.816 459.182C141.38 459.507 141.162 459.901 141.162 460.363H139.346C139.346 459.836 139.531 459.328 139.902 458.84C140.28 458.345 140.788 457.954 141.426 457.668C142.07 457.382 142.777 457.238 143.545 457.238C144.762 457.238 145.716 457.544 146.406 458.156C147.096 458.762 147.454 459.598 147.48 460.666V465.529C147.48 466.499 147.604 467.271 147.852 467.844V468H145.957ZM142.959 466.623C143.525 466.623 144.062 466.477 144.57 466.184C145.078 465.891 145.446 465.51 145.674 465.041V462.873H144.258C142.044 462.873 140.938 463.521 140.938 464.816C140.938 465.383 141.126 465.826 141.504 466.145C141.882 466.464 142.367 466.623 142.959 466.623ZM149.873 462.629C149.873 461.008 150.257 459.706 151.025 458.723C151.794 457.733 152.799 457.238 154.043 457.238C155.28 457.238 156.26 457.661 156.982 458.508V453H158.789V468H157.129L157.041 466.867C156.318 467.753 155.312 468.195 154.023 468.195C152.799 468.195 151.8 467.694 151.025 466.691C150.257 465.689 149.873 464.38 149.873 462.766V462.629ZM151.68 462.834C151.68 464.032 151.927 464.969 152.422 465.646C152.917 466.324 153.6 466.662 154.473 466.662C155.618 466.662 156.455 466.148 156.982 465.119V460.266C156.442 459.27 155.612 458.771 154.492 458.771C153.607 458.771 152.917 459.113 152.422 459.797C151.927 460.48 151.68 461.493 151.68 462.834ZM161.123 462.619C161.123 461.584 161.325 460.653 161.729 459.826C162.139 458.999 162.705 458.361 163.428 457.912C164.157 457.463 164.987 457.238 165.918 457.238C167.357 457.238 168.519 457.736 169.404 458.732C170.296 459.729 170.742 461.053 170.742 462.707V462.834C170.742 463.863 170.544 464.787 170.146 465.607C169.756 466.421 169.193 467.056 168.457 467.512C167.728 467.967 166.888 468.195 165.938 468.195C164.505 468.195 163.343 467.697 162.451 466.701C161.566 465.705 161.123 464.387 161.123 462.746V462.619ZM162.939 462.834C162.939 464.006 163.21 464.947 163.75 465.656C164.297 466.366 165.026 466.721 165.938 466.721C166.855 466.721 167.585 466.363 168.125 465.646C168.665 464.924 168.936 463.915 168.936 462.619C168.936 461.46 168.659 460.523 168.105 459.807C167.559 459.084 166.829 458.723 165.918 458.723C165.026 458.723 164.307 459.077 163.76 459.787C163.213 460.497 162.939 461.512 162.939 462.834ZM178.115 459.055C177.842 459.009 177.546 458.986 177.227 458.986C176.042 458.986 175.238 459.491 174.814 460.5V468H173.008V457.434H174.766L174.795 458.654C175.387 457.71 176.227 457.238 177.314 457.238C177.666 457.238 177.933 457.284 178.115 457.375V459.055ZM183.975 468.195C182.542 468.195 181.377 467.727 180.479 466.789C179.58 465.845 179.131 464.585 179.131 463.01V462.678C179.131 461.63 179.329 460.695 179.727 459.875C180.13 459.048 180.69 458.404 181.406 457.941C182.129 457.473 182.91 457.238 183.75 457.238C185.124 457.238 186.191 457.691 186.953 458.596C187.715 459.501 188.096 460.796 188.096 462.482V463.234H180.938C180.964 464.276 181.266 465.119 181.846 465.764C182.432 466.402 183.174 466.721 184.072 466.721C184.71 466.721 185.251 466.59 185.693 466.33C186.136 466.07 186.523 465.725 186.855 465.295L187.959 466.154C187.074 467.515 185.745 468.195 183.975 468.195ZM183.75 458.723C183.021 458.723 182.409 458.99 181.914 459.523C181.419 460.051 181.113 460.793 180.996 461.75H186.289V461.613C186.237 460.695 185.99 459.986 185.547 459.484C185.104 458.977 184.505 458.723 183.75 458.723ZM196.348 465.197C196.348 464.709 196.162 464.331 195.791 464.064C195.426 463.791 194.785 463.557 193.867 463.361C192.956 463.166 192.23 462.932 191.689 462.658C191.156 462.385 190.758 462.059 190.498 461.682C190.244 461.304 190.117 460.855 190.117 460.334C190.117 459.468 190.482 458.736 191.211 458.137C191.947 457.538 192.884 457.238 194.023 457.238C195.221 457.238 196.191 457.548 196.934 458.166C197.682 458.785 198.057 459.576 198.057 460.539H196.24C196.24 460.044 196.029 459.618 195.605 459.26C195.189 458.902 194.661 458.723 194.023 458.723C193.366 458.723 192.852 458.866 192.48 459.152C192.109 459.439 191.924 459.813 191.924 460.275C191.924 460.712 192.096 461.04 192.441 461.262C192.786 461.483 193.408 461.695 194.307 461.896C195.212 462.098 195.944 462.339 196.504 462.619C197.064 462.899 197.477 463.238 197.744 463.635C198.018 464.025 198.154 464.504 198.154 465.07C198.154 466.014 197.777 466.773 197.021 467.346C196.266 467.912 195.286 468.195 194.082 468.195C193.236 468.195 192.487 468.046 191.836 467.746C191.185 467.447 190.674 467.03 190.303 466.496C189.938 465.956 189.756 465.373 189.756 464.748H191.562C191.595 465.354 191.836 465.835 192.285 466.193C192.741 466.545 193.34 466.721 194.082 466.721C194.766 466.721 195.312 466.584 195.723 466.311C196.139 466.031 196.348 465.66 196.348 465.197ZM200.449 467.053C200.449 466.74 200.54 466.48 200.723 466.271C200.911 466.063 201.191 465.959 201.562 465.959C201.934 465.959 202.214 466.063 202.402 466.271C202.598 466.48 202.695 466.74 202.695 467.053C202.695 467.352 202.598 467.603 202.402 467.805C202.214 468.007 201.934 468.107 201.562 468.107C201.191 468.107 200.911 468.007 200.723 467.805C200.54 467.603 200.449 467.352 200.449 467.053ZM200.459 458.43C200.459 458.117 200.55 457.857 200.732 457.648C200.921 457.44 201.201 457.336 201.572 457.336C201.943 457.336 202.223 457.44 202.412 457.648C202.607 457.857 202.705 458.117 202.705 458.43C202.705 458.729 202.607 458.98 202.412 459.182C202.223 459.383 201.943 459.484 201.572 459.484C201.201 459.484 200.921 459.383 200.732 459.182C200.55 458.98 200.459 458.729 200.459 458.43Z" fill="black"/>
<path d="M37.4746 519.324H32.9043V532H31.0391V519.324H26.4785V517.781H37.4746V519.324ZM44.7109 532C44.6068 531.792 44.5221 531.421 44.457 530.887C43.6172 531.759 42.6146 532.195 41.4492 532.195C40.4076 532.195 39.5514 531.902 38.8809 531.316C38.2168 530.724 37.8848 529.975 37.8848 529.07C37.8848 527.97 38.3014 527.117 39.1348 526.512C39.9746 525.9 41.153 525.594 42.6699 525.594H44.4277V524.764C44.4277 524.132 44.2389 523.631 43.8613 523.26C43.4837 522.882 42.9271 522.693 42.1914 522.693C41.5469 522.693 41.0065 522.856 40.5703 523.182C40.1341 523.507 39.916 523.901 39.916 524.363H38.0996C38.0996 523.836 38.2852 523.328 38.6562 522.84C39.0339 522.345 39.5417 521.954 40.1797 521.668C40.8242 521.382 41.5306 521.238 42.2988 521.238C43.5163 521.238 44.4701 521.544 45.1602 522.156C45.8503 522.762 46.2083 523.598 46.2344 524.666V529.529C46.2344 530.499 46.3581 531.271 46.6055 531.844V532H44.7109ZM41.7129 530.623C42.2793 530.623 42.8164 530.477 43.3242 530.184C43.832 529.891 44.1999 529.51 44.4277 529.041V526.873H43.0117C40.7982 526.873 39.6914 527.521 39.6914 528.816C39.6914 529.383 39.8802 529.826 40.2578 530.145C40.6354 530.464 41.1204 530.623 41.7129 530.623ZM50.7656 521.434L50.8145 522.605C51.5892 521.694 52.6341 521.238 53.9492 521.238C55.4271 521.238 56.4329 521.805 56.9668 522.938C57.3184 522.43 57.7741 522.02 58.334 521.707C58.9004 521.395 59.5677 521.238 60.3359 521.238C62.6536 521.238 63.832 522.465 63.8711 524.92V532H62.0645V525.027C62.0645 524.272 61.8919 523.709 61.5469 523.338C61.2018 522.96 60.6224 522.771 59.8086 522.771C59.138 522.771 58.5814 522.973 58.1387 523.377C57.696 523.774 57.4388 524.311 57.3672 524.988V532H55.5508V525.076C55.5508 523.54 54.7988 522.771 53.2949 522.771C52.11 522.771 51.2995 523.276 50.8633 524.285V532H49.0566V521.434H50.7656ZM73.1289 532C73.0247 531.792 72.9401 531.421 72.875 530.887C72.0352 531.759 71.0326 532.195 69.8672 532.195C68.8255 532.195 67.9694 531.902 67.2988 531.316C66.6348 530.724 66.3027 529.975 66.3027 529.07C66.3027 527.97 66.7194 527.117 67.5527 526.512C68.3926 525.9 69.571 525.594 71.0879 525.594H72.8457V524.764C72.8457 524.132 72.6569 523.631 72.2793 523.26C71.9017 522.882 71.3451 522.693 70.6094 522.693C69.9648 522.693 69.4245 522.856 68.9883 523.182C68.5521 523.507 68.334 523.901 68.334 524.363H66.5176C66.5176 523.836 66.7031 523.328 67.0742 522.84C67.4518 522.345 67.9596 521.954 68.5977 521.668C69.2422 521.382 69.9486 521.238 70.7168 521.238C71.9342 521.238 72.888 521.544 73.5781 522.156C74.2682 522.762 74.6263 523.598 74.6523 524.666V529.529C74.6523 530.499 74.776 531.271 75.0234 531.844V532H73.1289ZM70.1309 530.623C70.6973 530.623 71.2344 530.477 71.7422 530.184C72.25 529.891 72.6178 529.51 72.8457 529.041V526.873H71.4297C69.2161 526.873 68.1094 527.521 68.1094 528.816C68.1094 529.383 68.2982 529.826 68.6758 530.145C69.0534 530.464 69.5384 530.623 70.1309 530.623ZM79.1934 521.434L79.252 522.762C80.0592 521.746 81.1139 521.238 82.416 521.238C84.6491 521.238 85.7754 522.498 85.7949 525.018V532H83.9883V525.008C83.9818 524.246 83.806 523.683 83.4609 523.318C83.1224 522.954 82.5918 522.771 81.8691 522.771C81.2832 522.771 80.7689 522.928 80.3262 523.24C79.8835 523.553 79.5384 523.963 79.291 524.471V532H77.4844V521.434H79.1934ZM85.1699 517.312C85.1699 518.016 84.9681 518.585 84.5645 519.021C84.1673 519.458 83.6693 519.676 83.0703 519.676C82.8034 519.676 82.5723 519.643 82.377 519.578C82.1816 519.513 81.9245 519.38 81.6055 519.178C81.293 518.976 81.0651 518.855 80.9219 518.816C80.7852 518.771 80.6257 518.748 80.4434 518.748C80.1764 518.748 79.9486 518.852 79.7598 519.061C79.571 519.262 79.4766 519.523 79.4766 519.842L78.2656 519.773C78.2656 519.077 78.4609 518.501 78.8516 518.045C79.2487 517.589 79.75 517.361 80.3555 517.361C80.5833 517.361 80.7884 517.394 80.9707 517.459C81.153 517.524 81.4004 517.651 81.7129 517.84C82.0254 518.029 82.263 518.152 82.4258 518.211C82.5951 518.27 82.7806 518.299 82.9824 518.299C83.2624 518.299 83.4935 518.188 83.6758 517.967C83.8646 517.745 83.959 517.488 83.959 517.195L85.1699 517.312ZM88.041 526.619C88.041 525.584 88.2428 524.653 88.6465 523.826C89.0566 522.999 89.623 522.361 90.3457 521.912C91.0749 521.463 91.9049 521.238 92.8359 521.238C94.2747 521.238 95.4368 521.736 96.3223 522.732C97.2142 523.729 97.6602 525.053 97.6602 526.707V526.834C97.6602 527.863 97.4616 528.787 97.0645 529.607C96.6738 530.421 96.1107 531.056 95.375 531.512C94.6458 531.967 93.806 532.195 92.8555 532.195C91.4232 532.195 90.2611 531.697 89.3691 530.701C88.4837 529.705 88.041 528.387 88.041 526.746V526.619ZM89.8574 526.834C89.8574 528.006 90.1276 528.947 90.668 529.656C91.2148 530.366 91.944 530.721 92.8555 530.721C93.7734 530.721 94.5026 530.363 95.043 529.646C95.5833 528.924 95.8535 527.915 95.8535 526.619C95.8535 525.46 95.5768 524.523 95.0234 523.807C94.4766 523.084 93.7474 522.723 92.8359 522.723C91.944 522.723 91.2246 523.077 90.6777 523.787C90.1309 524.497 89.8574 525.512 89.8574 526.834ZM114.604 519.324H110.033V532H108.168V519.324H103.607V517.781H114.604V519.324ZM121.84 532C121.736 531.792 121.651 531.421 121.586 530.887C120.746 531.759 119.743 532.195 118.578 532.195C117.536 532.195 116.68 531.902 116.01 531.316C115.346 530.724 115.014 529.975 115.014 529.07C115.014 527.97 115.43 527.117 116.264 526.512C117.104 525.9 118.282 525.594 119.799 525.594H121.557V524.764C121.557 524.132 121.368 523.631 120.99 523.26C120.613 522.882 120.056 522.693 119.32 522.693C118.676 522.693 118.135 522.856 117.699 523.182C117.263 523.507 117.045 523.901 117.045 524.363H115.229C115.229 523.836 115.414 523.328 115.785 522.84C116.163 522.345 116.671 521.954 117.309 521.668C117.953 521.382 118.66 521.238 119.428 521.238C120.645 521.238 121.599 521.544 122.289 522.156C122.979 522.762 123.337 523.598 123.363 524.666V529.529C123.363 530.499 123.487 531.271 123.734 531.844V532H121.84ZM118.842 530.623C119.408 530.623 119.945 530.477 120.453 530.184C120.961 529.891 121.329 529.51 121.557 529.041V526.873H120.141C117.927 526.873 116.82 527.521 116.82 528.816C116.82 529.383 117.009 529.826 117.387 530.145C117.764 530.464 118.249 530.623 118.842 530.623ZM135.141 526.834C135.141 528.449 134.77 529.747 134.027 530.73C133.285 531.707 132.289 532.195 131.039 532.195C129.704 532.195 128.673 531.723 127.943 530.779L127.855 532H126.195V517H128.002V522.596C128.731 521.691 129.737 521.238 131.02 521.238C132.302 521.238 133.308 521.723 134.037 522.693C134.773 523.663 135.141 524.992 135.141 526.678V526.834ZM133.334 526.629C133.334 525.398 133.096 524.448 132.621 523.777C132.146 523.107 131.462 522.771 130.57 522.771C129.379 522.771 128.523 523.325 128.002 524.432V529.002C128.555 530.109 129.418 530.662 130.59 530.662C131.456 530.662 132.13 530.327 132.611 529.656C133.093 528.986 133.334 527.977 133.334 526.629ZM139.389 532H137.582V517H139.389V532ZM146.674 532.195C145.242 532.195 144.076 531.727 143.178 530.789C142.279 529.845 141.83 528.585 141.83 527.01V526.678C141.83 525.63 142.029 524.695 142.426 523.875C142.829 523.048 143.389 522.404 144.105 521.941C144.828 521.473 145.609 521.238 146.449 521.238C147.823 521.238 148.891 521.691 149.652 522.596C150.414 523.501 150.795 524.796 150.795 526.482V527.234H143.637C143.663 528.276 143.965 529.119 144.545 529.764C145.131 530.402 145.873 530.721 146.771 530.721C147.41 530.721 147.95 530.59 148.393 530.33C148.835 530.07 149.223 529.725 149.555 529.295L150.658 530.154C149.773 531.515 148.445 532.195 146.674 532.195ZM146.449 522.723C145.72 522.723 145.108 522.99 144.613 523.523C144.118 524.051 143.812 524.793 143.695 525.75H148.988V525.613C148.936 524.695 148.689 523.986 148.246 523.484C147.803 522.977 147.204 522.723 146.449 522.723ZM158.002 523.055C157.729 523.009 157.432 522.986 157.113 522.986C155.928 522.986 155.124 523.491 154.701 524.5V532H152.895V521.434H154.652L154.682 522.654C155.274 521.71 156.114 521.238 157.201 521.238C157.553 521.238 157.82 521.284 158.002 521.375V523.055ZM158.998 526.619C158.998 525.584 159.2 524.653 159.604 523.826C160.014 522.999 160.58 522.361 161.303 521.912C162.032 521.463 162.862 521.238 163.793 521.238C165.232 521.238 166.394 521.736 167.279 522.732C168.171 523.729 168.617 525.053 168.617 526.707V526.834C168.617 527.863 168.419 528.787 168.021 529.607C167.631 530.421 167.068 531.056 166.332 531.512C165.603 531.967 164.763 532.195 163.812 532.195C162.38 532.195 161.218 531.697 160.326 530.701C159.441 529.705 158.998 528.387 158.998 526.746V526.619ZM160.814 526.834C160.814 528.006 161.085 528.947 161.625 529.656C162.172 530.366 162.901 530.721 163.812 530.721C164.73 530.721 165.46 530.363 166 529.646C166.54 528.924 166.811 527.915 166.811 526.619C166.811 525.46 166.534 524.523 165.98 523.807C165.434 523.084 164.704 522.723 163.793 522.723C162.901 522.723 162.182 523.077 161.635 523.787C161.088 524.497 160.814 525.512 160.814 526.834ZM170.824 531.053C170.824 530.74 170.915 530.48 171.098 530.271C171.286 530.063 171.566 529.959 171.938 529.959C172.309 529.959 172.589 530.063 172.777 530.271C172.973 530.48 173.07 530.74 173.07 531.053C173.07 531.352 172.973 531.603 172.777 531.805C172.589 532.007 172.309 532.107 171.938 532.107C171.566 532.107 171.286 532.007 171.098 531.805C170.915 531.603 170.824 531.352 170.824 531.053ZM170.834 522.43C170.834 522.117 170.925 521.857 171.107 521.648C171.296 521.44 171.576 521.336 171.947 521.336C172.318 521.336 172.598 521.44 172.787 521.648C172.982 521.857 173.08 522.117 173.08 522.43C173.08 522.729 172.982 522.98 172.787 523.182C172.598 523.383 172.318 523.484 171.947 523.484C171.576 523.484 171.296 523.383 171.107 523.182C170.925 522.98 170.834 522.729 170.834 522.43Z" fill="black"/>
<rect x="37.5" y="626.5" width="160" height="50" rx="13.5" fill="#5B5B5B" stroke="black"/>
<rect x="258.5" y="626.5" width="160" height="50" rx="13.5" fill="white" stroke="black"/>
<path d="M87.502 655.289H81.5449L80.207 659H78.2734L83.7031 644.781H85.3438L90.7832 659H88.8594L87.502 655.289ZM82.1113 653.746H86.9453L84.5234 647.096L82.1113 653.746ZM96.6523 657.721C97.2969 657.721 97.86 657.525 98.3418 657.135C98.8236 656.744 99.0905 656.256 99.1426 655.67H100.852C100.819 656.275 100.611 656.852 100.227 657.398C99.8424 657.945 99.3281 658.382 98.6836 658.707C98.0456 659.033 97.3685 659.195 96.6523 659.195C95.2135 659.195 94.0677 658.717 93.2148 657.76C92.3685 656.796 91.9453 655.481 91.9453 653.814V653.512C91.9453 652.483 92.1341 651.568 92.5117 650.768C92.8893 649.967 93.4297 649.345 94.1328 648.902C94.8424 648.46 95.679 648.238 96.6426 648.238C97.8275 648.238 98.8105 648.593 99.5918 649.303C100.38 650.012 100.799 650.934 100.852 652.066H99.1426C99.0905 651.383 98.8301 650.823 98.3613 650.387C97.8991 649.944 97.3262 649.723 96.6426 649.723C95.7246 649.723 95.0117 650.055 94.5039 650.719C94.0026 651.376 93.752 652.33 93.752 653.58V653.922C93.752 655.139 94.0026 656.077 94.5039 656.734C95.0052 657.392 95.7214 657.721 96.6523 657.721ZM107.268 659.195C105.835 659.195 104.67 658.727 103.771 657.789C102.873 656.845 102.424 655.585 102.424 654.01V653.678C102.424 652.63 102.622 651.695 103.02 650.875C103.423 650.048 103.983 649.404 104.699 648.941C105.422 648.473 106.203 648.238 107.043 648.238C108.417 648.238 109.484 648.691 110.246 649.596C111.008 650.501 111.389 651.796 111.389 653.482V654.234H104.23C104.257 655.276 104.559 656.119 105.139 656.764C105.725 657.402 106.467 657.721 107.365 657.721C108.003 657.721 108.544 657.59 108.986 657.33C109.429 657.07 109.816 656.725 110.148 656.295L111.252 657.154C110.367 658.515 109.038 659.195 107.268 659.195ZM107.043 649.723C106.314 649.723 105.702 649.99 105.207 650.523C104.712 651.051 104.406 651.793 104.289 652.75H109.582V652.613C109.53 651.695 109.283 650.986 108.84 650.484C108.397 649.977 107.798 649.723 107.043 649.723ZM122.414 653.834C122.414 655.442 122.046 656.738 121.311 657.721C120.575 658.704 119.579 659.195 118.322 659.195C117.04 659.195 116.031 658.788 115.295 657.975V663.062H113.488V648.434H115.139L115.227 649.605C115.962 648.694 116.984 648.238 118.293 648.238C119.562 648.238 120.565 648.717 121.301 649.674C122.043 650.631 122.414 651.962 122.414 653.668V653.834ZM120.607 653.629C120.607 652.438 120.354 651.497 119.846 650.807C119.338 650.117 118.641 649.771 117.756 649.771C116.662 649.771 115.842 650.257 115.295 651.227V656.275C115.835 657.239 116.662 657.721 117.775 657.721C118.641 657.721 119.328 657.379 119.836 656.695C120.35 656.005 120.607 654.983 120.607 653.629ZM127.17 645.875V648.434H129.143V649.83H127.17V656.383C127.17 656.806 127.258 657.125 127.434 657.34C127.609 657.548 127.909 657.652 128.332 657.652C128.54 657.652 128.827 657.613 129.191 657.535V659C128.716 659.13 128.254 659.195 127.805 659.195C126.997 659.195 126.389 658.951 125.979 658.463C125.568 657.975 125.363 657.281 125.363 656.383V649.83H123.439V648.434H125.363V645.875H127.17ZM137.785 659C137.681 658.792 137.596 658.421 137.531 657.887C136.691 658.759 135.689 659.195 134.523 659.195C133.482 659.195 132.626 658.902 131.955 658.316C131.291 657.724 130.959 656.975 130.959 656.07C130.959 654.97 131.376 654.117 132.209 653.512C133.049 652.9 134.227 652.594 135.744 652.594H137.502V651.764C137.502 651.132 137.313 650.631 136.936 650.26C136.558 649.882 136.001 649.693 135.266 649.693C134.621 649.693 134.081 649.856 133.645 650.182C133.208 650.507 132.99 650.901 132.99 651.363H131.174C131.174 650.836 131.359 650.328 131.73 649.84C132.108 649.345 132.616 648.954 133.254 648.668C133.898 648.382 134.605 648.238 135.373 648.238C136.59 648.238 137.544 648.544 138.234 649.156C138.924 649.762 139.283 650.598 139.309 651.666V656.529C139.309 657.499 139.432 658.271 139.68 658.844V659H137.785ZM134.787 657.623C135.354 657.623 135.891 657.477 136.398 657.184C136.906 656.891 137.274 656.51 137.502 656.041V653.873H136.086C133.872 653.873 132.766 654.521 132.766 655.816C132.766 656.383 132.954 656.826 133.332 657.145C133.71 657.464 134.195 657.623 134.787 657.623ZM147.248 650.055C146.975 650.009 146.678 649.986 146.359 649.986C145.174 649.986 144.37 650.491 143.947 651.5V659H142.141V648.434H143.898L143.928 649.654C144.52 648.71 145.36 648.238 146.447 648.238C146.799 648.238 147.066 648.284 147.248 648.375V650.055Z" fill="black"/>
<path d="M308.109 654.488C307.934 655.992 307.377 657.154 306.439 657.975C305.508 658.788 304.268 659.195 302.719 659.195C301.039 659.195 299.691 658.593 298.676 657.389C297.667 656.184 297.162 654.573 297.162 652.555V651.188C297.162 649.866 297.396 648.704 297.865 647.701C298.34 646.699 299.011 645.93 299.877 645.396C300.743 644.856 301.745 644.586 302.885 644.586C304.395 644.586 305.606 645.009 306.518 645.855C307.429 646.695 307.96 647.861 308.109 649.352H306.225C306.062 648.219 305.707 647.398 305.16 646.891C304.62 646.383 303.861 646.129 302.885 646.129C301.687 646.129 300.746 646.572 300.062 647.457C299.385 648.342 299.047 649.602 299.047 651.236V652.613C299.047 654.156 299.369 655.383 300.014 656.295C300.658 657.206 301.56 657.662 302.719 657.662C303.76 657.662 304.558 657.428 305.111 656.959C305.671 656.484 306.042 655.66 306.225 654.488H308.109ZM316.918 659C316.814 658.792 316.729 658.421 316.664 657.887C315.824 658.759 314.822 659.195 313.656 659.195C312.615 659.195 311.758 658.902 311.088 658.316C310.424 657.724 310.092 656.975 310.092 656.07C310.092 654.97 310.508 654.117 311.342 653.512C312.182 652.9 313.36 652.594 314.877 652.594H316.635V651.764C316.635 651.132 316.446 650.631 316.068 650.26C315.691 649.882 315.134 649.693 314.398 649.693C313.754 649.693 313.214 649.856 312.777 650.182C312.341 650.507 312.123 650.901 312.123 651.363H310.307C310.307 650.836 310.492 650.328 310.863 649.84C311.241 649.345 311.749 648.954 312.387 648.668C313.031 648.382 313.738 648.238 314.506 648.238C315.723 648.238 316.677 648.544 317.367 649.156C318.057 649.762 318.415 650.598 318.441 651.666V656.529C318.441 657.499 318.565 658.271 318.812 658.844V659H316.918ZM313.92 657.623C314.486 657.623 315.023 657.477 315.531 657.184C316.039 656.891 316.407 656.51 316.635 656.041V653.873H315.219C313.005 653.873 311.898 654.521 311.898 655.816C311.898 656.383 312.087 656.826 312.465 657.145C312.842 657.464 313.327 657.623 313.92 657.623ZM322.982 648.434L323.041 649.762C323.848 648.746 324.903 648.238 326.205 648.238C328.438 648.238 329.564 649.498 329.584 652.018V659H327.777V652.008C327.771 651.246 327.595 650.683 327.25 650.318C326.911 649.954 326.381 649.771 325.658 649.771C325.072 649.771 324.558 649.928 324.115 650.24C323.673 650.553 323.327 650.963 323.08 651.471V659H321.273V648.434H322.982ZM336.547 657.721C337.191 657.721 337.755 657.525 338.236 657.135C338.718 656.744 338.985 656.256 339.037 655.67H340.746C340.714 656.275 340.505 656.852 340.121 657.398C339.737 657.945 339.223 658.382 338.578 658.707C337.94 659.033 337.263 659.195 336.547 659.195C335.108 659.195 333.962 658.717 333.109 657.76C332.263 656.796 331.84 655.481 331.84 653.814V653.512C331.84 652.483 332.029 651.568 332.406 650.768C332.784 649.967 333.324 649.345 334.027 648.902C334.737 648.46 335.574 648.238 336.537 648.238C337.722 648.238 338.705 648.593 339.486 649.303C340.274 650.012 340.694 650.934 340.746 652.066H339.037C338.985 651.383 338.725 650.823 338.256 650.387C337.794 649.944 337.221 649.723 336.537 649.723C335.619 649.723 334.906 650.055 334.398 650.719C333.897 651.376 333.646 652.33 333.646 653.58V653.922C333.646 655.139 333.897 656.077 334.398 656.734C334.9 657.392 335.616 657.721 336.547 657.721ZM347.162 659.195C345.73 659.195 344.564 658.727 343.666 657.789C342.768 656.845 342.318 655.585 342.318 654.01V653.678C342.318 652.63 342.517 651.695 342.914 650.875C343.318 650.048 343.878 649.404 344.594 648.941C345.316 648.473 346.098 648.238 346.938 648.238C348.311 648.238 349.379 648.691 350.141 649.596C350.902 650.501 351.283 651.796 351.283 653.482V654.234H344.125C344.151 655.276 344.454 656.119 345.033 656.764C345.619 657.402 346.361 657.721 347.26 657.721C347.898 657.721 348.438 657.59 348.881 657.33C349.324 657.07 349.711 656.725 350.043 656.295L351.146 657.154C350.261 658.515 348.933 659.195 347.162 659.195ZM346.938 649.723C346.208 649.723 345.596 649.99 345.102 650.523C344.607 651.051 344.301 651.793 344.184 652.75H349.477V652.613C349.424 651.695 349.177 650.986 348.734 650.484C348.292 649.977 347.693 649.723 346.938 649.723ZM355.346 659H353.539V644H355.346V659ZM364.77 659C364.665 658.792 364.581 658.421 364.516 657.887C363.676 658.759 362.673 659.195 361.508 659.195C360.466 659.195 359.61 658.902 358.939 658.316C358.275 657.724 357.943 656.975 357.943 656.07C357.943 654.97 358.36 654.117 359.193 653.512C360.033 652.9 361.212 652.594 362.729 652.594H364.486V651.764C364.486 651.132 364.298 650.631 363.92 650.26C363.542 649.882 362.986 649.693 362.25 649.693C361.605 649.693 361.065 649.856 360.629 650.182C360.193 650.507 359.975 650.901 359.975 651.363H358.158C358.158 650.836 358.344 650.328 358.715 649.84C359.092 649.345 359.6 648.954 360.238 648.668C360.883 648.382 361.589 648.238 362.357 648.238C363.575 648.238 364.529 648.544 365.219 649.156C365.909 649.762 366.267 650.598 366.293 651.666V656.529C366.293 657.499 366.417 658.271 366.664 658.844V659H364.77ZM361.771 657.623C362.338 657.623 362.875 657.477 363.383 657.184C363.891 656.891 364.258 656.51 364.486 656.041V653.873H363.07C360.857 653.873 359.75 654.521 359.75 655.816C359.75 656.383 359.939 656.826 360.316 657.145C360.694 657.464 361.179 657.623 361.771 657.623ZM374.232 650.055C373.959 650.009 373.663 649.986 373.344 649.986C372.159 649.986 371.355 650.491 370.932 651.5V659H369.125V648.434H370.883L370.912 649.654C371.505 648.71 372.344 648.238 373.432 648.238C373.783 648.238 374.05 648.284 374.232 648.375V650.055Z" fill="black"/>
<line x1="20.0027" y1="223" x2="919.999" y2="225.413" stroke="#11D0C5" stroke-width="2"/>
<path d="M34.918 192.316C34.7852 194.152 34.1055 195.598 32.8789 196.652C31.6602 197.707 30.0508 198.234 28.0508 198.234C25.8633 198.234 24.1406 197.5 22.8828 196.031C21.6328 194.555 21.0078 192.531 21.0078 189.961V188.918C21.0078 187.277 21.2969 185.832 21.875 184.582C22.4531 183.332 23.2773 182.375 24.3477 181.711C25.4258 181.039 26.6758 180.703 28.0977 180.703C30.0664 180.703 31.6523 181.23 32.8555 182.285C34.0586 183.34 34.7539 184.82 34.9414 186.727H31.4258C31.3398 185.625 31.0312 184.828 30.5 184.336C29.9766 183.836 29.1758 183.586 28.0977 183.586C26.9258 183.586 26.0469 184.008 25.4609 184.852C24.8828 185.688 24.5859 186.988 24.5703 188.754V190.043C24.5703 191.887 24.8477 193.234 25.4023 194.086C25.9648 194.938 26.8477 195.363 28.0508 195.363C29.1367 195.363 29.9453 195.117 30.4766 194.625C31.0156 194.125 31.3242 193.355 31.4023 192.316H34.918ZM44.1289 188.496C43.668 188.434 43.2617 188.402 42.9102 188.402C41.6289 188.402 40.7891 188.836 40.3906 189.703V198H37.0039V185.32H40.2031L40.2969 186.832C40.9766 185.668 41.918 185.086 43.1211 185.086C43.4961 185.086 43.8477 185.137 44.1758 185.238L44.1289 188.496ZM51.3711 198.234C49.5117 198.234 47.9961 197.664 46.8242 196.523C45.6602 195.383 45.0781 193.863 45.0781 191.965V191.637C45.0781 190.363 45.3242 189.227 45.8164 188.227C46.3086 187.219 47.0039 186.445 47.9023 185.906C48.8086 185.359 49.8398 185.086 50.9961 185.086C52.7305 185.086 54.0938 185.633 55.0859 186.727C56.0859 187.82 56.5859 189.371 56.5859 191.379V192.762H48.5117C48.6211 193.59 48.9492 194.254 49.4961 194.754C50.0508 195.254 50.75 195.504 51.5938 195.504C52.8984 195.504 53.918 195.031 54.6523 194.086L56.3164 195.949C55.8086 196.668 55.1211 197.23 54.2539 197.637C53.3867 198.035 52.4258 198.234 51.3711 198.234ZM50.9844 187.828C50.3125 187.828 49.7656 188.055 49.3438 188.508C48.9297 188.961 48.6641 189.609 48.5469 190.453H53.2578V190.184C53.2422 189.434 53.0391 188.855 52.6484 188.449C52.2578 188.035 51.7031 187.828 50.9844 187.828ZM65.8672 198C65.7109 197.695 65.5977 197.316 65.5273 196.863C64.707 197.777 63.6406 198.234 62.3281 198.234C61.0859 198.234 60.0547 197.875 59.2344 197.156C58.4219 196.438 58.0156 195.531 58.0156 194.438C58.0156 193.094 58.5117 192.062 59.5039 191.344C60.5039 190.625 61.9453 190.262 63.8281 190.254H65.3867V189.527C65.3867 188.941 65.2344 188.473 64.9297 188.121C64.6328 187.77 64.1602 187.594 63.5117 187.594C62.9414 187.594 62.4922 187.73 62.1641 188.004C61.8438 188.277 61.6836 188.652 61.6836 189.129H58.2969C58.2969 188.395 58.5234 187.715 58.9766 187.09C59.4297 186.465 60.0703 185.977 60.8984 185.625C61.7266 185.266 62.6562 185.086 63.6875 185.086C65.25 185.086 66.4883 185.48 67.4023 186.27C68.3242 187.051 68.7852 188.152 68.7852 189.574V195.07C68.793 196.273 68.9609 197.184 69.2891 197.801V198H65.8672ZM63.0664 195.645C63.5664 195.645 64.0273 195.535 64.4492 195.316C64.8711 195.09 65.1836 194.789 65.3867 194.414V192.234H64.1211C62.4258 192.234 61.5234 192.82 61.4141 193.992L61.4023 194.191C61.4023 194.613 61.5508 194.961 61.8477 195.234C62.1445 195.508 62.5508 195.645 63.0664 195.645ZM78.5117 188.496C78.0508 188.434 77.6445 188.402 77.293 188.402C76.0117 188.402 75.1719 188.836 74.7734 189.703V198H71.3867V185.32H74.5859L74.6797 186.832C75.3594 185.668 76.3008 185.086 77.5039 185.086C77.8789 185.086 78.2305 185.137 78.5586 185.238L78.5117 188.496ZM93.2305 180.938H96.7461V192.75C96.7461 193.836 96.5039 194.797 96.0195 195.633C95.543 196.461 94.8672 197.102 93.9922 197.555C93.1172 198.008 92.1289 198.234 91.0273 198.234C89.2227 198.234 87.8164 197.777 86.8086 196.863C85.8008 195.941 85.2969 194.641 85.2969 192.961H88.8359C88.8359 193.797 89.0117 194.414 89.3633 194.812C89.7148 195.211 90.2695 195.41 91.0273 195.41C91.6992 195.41 92.2344 195.18 92.6328 194.719C93.0312 194.258 93.2305 193.602 93.2305 192.75V180.938ZM107.129 196.711C106.293 197.727 105.137 198.234 103.66 198.234C102.301 198.234 101.262 197.844 100.543 197.062C99.832 196.281 99.4688 195.137 99.4531 193.629V185.32H102.84V193.512C102.84 194.832 103.441 195.492 104.645 195.492C105.793 195.492 106.582 195.094 107.012 194.297V185.32H110.41V198H107.223L107.129 196.711ZM118.801 198.234C116.941 198.234 115.426 197.664 114.254 196.523C113.09 195.383 112.508 193.863 112.508 191.965V191.637C112.508 190.363 112.754 189.227 113.246 188.227C113.738 187.219 114.434 186.445 115.332 185.906C116.238 185.359 117.27 185.086 118.426 185.086C120.16 185.086 121.523 185.633 122.516 186.727C123.516 187.82 124.016 189.371 124.016 191.379V192.762H115.941C116.051 193.59 116.379 194.254 116.926 194.754C117.48 195.254 118.18 195.504 119.023 195.504C120.328 195.504 121.348 195.031 122.082 194.086L123.746 195.949C123.238 196.668 122.551 197.23 121.684 197.637C120.816 198.035 119.855 198.234 118.801 198.234ZM118.414 187.828C117.742 187.828 117.195 188.055 116.773 188.508C116.359 188.961 116.094 189.609 115.977 190.453H120.688V190.184C120.672 189.434 120.469 188.855 120.078 188.449C119.688 188.035 119.133 187.828 118.414 187.828ZM125.457 191.566C125.457 189.621 125.918 188.055 126.84 186.867C127.77 185.68 129.02 185.086 130.59 185.086C131.98 185.086 133.062 185.562 133.836 186.516L133.977 185.32H137.047V197.578C137.047 198.688 136.793 199.652 136.285 200.473C135.785 201.293 135.078 201.918 134.164 202.348C133.25 202.777 132.18 202.992 130.953 202.992C130.023 202.992 129.117 202.805 128.234 202.43C127.352 202.062 126.684 201.586 126.23 201L127.73 198.938C128.574 199.883 129.598 200.355 130.801 200.355C131.699 200.355 132.398 200.113 132.898 199.629C133.398 199.152 133.648 198.473 133.648 197.59V196.91C132.867 197.793 131.84 198.234 130.566 198.234C129.043 198.234 127.809 197.641 126.863 196.453C125.926 195.258 125.457 193.676 125.457 191.707V191.566ZM128.844 191.812C128.844 192.961 129.074 193.863 129.535 194.52C129.996 195.168 130.629 195.492 131.434 195.492C132.465 195.492 133.203 195.105 133.648 194.332V189C133.195 188.227 132.465 187.84 131.457 187.84C130.645 187.84 130.004 188.172 129.535 188.836C129.074 189.5 128.844 190.492 128.844 191.812ZM139.133 191.543C139.133 190.285 139.375 189.164 139.859 188.18C140.344 187.195 141.039 186.434 141.945 185.895C142.859 185.355 143.918 185.086 145.121 185.086C146.832 185.086 148.227 185.609 149.305 186.656C150.391 187.703 150.996 189.125 151.121 190.922L151.145 191.789C151.145 193.734 150.602 195.297 149.516 196.477C148.43 197.648 146.973 198.234 145.145 198.234C143.316 198.234 141.855 197.648 140.762 196.477C139.676 195.305 139.133 193.711 139.133 191.695V191.543ZM142.52 191.789C142.52 192.992 142.746 193.914 143.199 194.555C143.652 195.188 144.301 195.504 145.145 195.504C145.965 195.504 146.605 195.191 147.066 194.566C147.527 193.934 147.758 192.926 147.758 191.543C147.758 190.363 147.527 189.449 147.066 188.801C146.605 188.152 145.957 187.828 145.121 187.828C144.293 187.828 143.652 188.152 143.199 188.801C142.746 189.441 142.52 190.438 142.52 191.789Z" fill="black"/>
<path d="M0 82H968V152H0V82Z" fill="#EBFFFE"/>
<path d="M33.8633 120H30.9102V102.938H33.8633V120ZM39.875 107.32L39.957 108.785C40.8945 107.652 42.125 107.086 43.6484 107.086C46.2891 107.086 47.6328 108.598 47.6797 111.621V120H44.832V111.785C44.832 110.98 44.6562 110.387 44.3047 110.004C43.9609 109.613 43.3945 109.418 42.6055 109.418C41.457 109.418 40.6016 109.938 40.0391 110.977V120H37.1914V107.32H39.875ZM53.6211 120H50.7734V107.32H53.6211V120ZM50.5977 104.027C50.5977 103.59 50.7344 103.227 51.0078 102.938C51.2891 102.648 51.6875 102.504 52.2031 102.504C52.7188 102.504 53.1172 102.648 53.3984 102.938C53.6797 103.227 53.8203 103.59 53.8203 104.027C53.8203 104.457 53.6797 104.816 53.3984 105.105C53.1172 105.387 52.7188 105.527 52.2031 105.527C51.6875 105.527 51.2891 105.387 51.0078 105.105C50.7344 104.816 50.5977 104.457 50.5977 104.027ZM61.9414 117.961C62.6523 117.961 63.2422 117.754 63.7109 117.34C64.1797 116.926 64.4297 116.414 64.4609 115.805H67.1445C67.1133 116.594 66.8672 117.332 66.4062 118.02C65.9453 118.699 65.3203 119.238 64.5312 119.637C63.7422 120.035 62.8906 120.234 61.9766 120.234C60.2031 120.234 58.7969 119.66 57.7578 118.512C56.7188 117.363 56.1992 115.777 56.1992 113.754V113.461C56.1992 111.531 56.7148 109.988 57.7461 108.832C58.7773 107.668 60.1836 107.086 61.9648 107.086C63.4727 107.086 64.6992 107.527 65.6445 108.41C66.5977 109.285 67.0977 110.438 67.1445 111.867H64.4609C64.4297 111.141 64.1797 110.543 63.7109 110.074C63.25 109.605 62.6602 109.371 61.9414 109.371C61.0195 109.371 60.3086 109.707 59.8086 110.379C59.3086 111.043 59.0547 112.055 59.0469 113.414V113.871C59.0469 115.246 59.293 116.273 59.7852 116.953C60.2852 117.625 61.0039 117.961 61.9414 117.961ZM72.3242 120H69.4766V107.32H72.3242V120ZM69.3008 104.027C69.3008 103.59 69.4375 103.227 69.7109 102.938C69.9922 102.648 70.3906 102.504 70.9062 102.504C71.4219 102.504 71.8203 102.648 72.1016 102.938C72.3828 103.227 72.5234 103.59 72.5234 104.027C72.5234 104.457 72.3828 104.816 72.1016 105.105C71.8203 105.387 71.4219 105.527 70.9062 105.527C70.3906 105.527 69.9922 105.387 69.7109 105.105C69.4375 104.816 69.3008 104.457 69.3008 104.027ZM74.9023 113.543C74.9023 112.301 75.1484 111.184 75.6406 110.191C76.1328 109.191 76.8242 108.426 77.7148 107.895C78.6055 107.355 79.6289 107.086 80.7852 107.086C82.4961 107.086 83.8828 107.637 84.9453 108.738C86.0156 109.84 86.5938 111.301 86.6797 113.121L86.6914 113.789C86.6914 115.039 86.4492 116.156 85.9648 117.141C85.4883 118.125 84.8008 118.887 83.9023 119.426C83.0117 119.965 81.9805 120.234 80.8086 120.234C79.0195 120.234 77.5859 119.641 76.5078 118.453C75.4375 117.258 74.9023 115.668 74.9023 113.684V113.543ZM77.75 113.789C77.75 115.094 78.0195 116.117 78.5586 116.859C79.0977 117.594 79.8477 117.961 80.8086 117.961C81.7695 117.961 82.5156 117.586 83.0469 116.836C83.5859 116.086 83.8555 114.988 83.8555 113.543C83.8555 112.262 83.5781 111.246 83.0234 110.496C82.4766 109.746 81.7305 109.371 80.7852 109.371C79.8555 109.371 79.1172 109.742 78.5703 110.484C78.0234 111.219 77.75 112.32 77.75 113.789Z" fill="black"/>
<path d="M151.863 120H148.91V102.938H151.863V120ZM157.875 107.32L157.957 108.785C158.895 107.652 160.125 107.086 161.648 107.086C164.289 107.086 165.633 108.598 165.68 111.621V120H162.832V111.785C162.832 110.98 162.656 110.387 162.305 110.004C161.961 109.613 161.395 109.418 160.605 109.418C159.457 109.418 158.602 109.938 158.039 110.977V120H155.191V107.32H157.875ZM175.699 116.555C175.699 116.047 175.488 115.66 175.066 115.395C174.652 115.129 173.961 114.895 172.992 114.691C172.023 114.488 171.215 114.23 170.566 113.918C169.145 113.23 168.434 112.234 168.434 110.93C168.434 109.836 168.895 108.922 169.816 108.188C170.738 107.453 171.91 107.086 173.332 107.086C174.848 107.086 176.07 107.461 177 108.211C177.938 108.961 178.406 109.934 178.406 111.129H175.559C175.559 110.582 175.355 110.129 174.949 109.77C174.543 109.402 174.004 109.219 173.332 109.219C172.707 109.219 172.195 109.363 171.797 109.652C171.406 109.941 171.211 110.328 171.211 110.812C171.211 111.25 171.395 111.59 171.762 111.832C172.129 112.074 172.871 112.32 173.988 112.57C175.105 112.812 175.98 113.105 176.613 113.449C177.254 113.785 177.727 114.191 178.031 114.668C178.344 115.145 178.5 115.723 178.5 116.402C178.5 117.543 178.027 118.469 177.082 119.18C176.137 119.883 174.898 120.234 173.367 120.234C172.328 120.234 171.402 120.047 170.59 119.672C169.777 119.297 169.145 118.781 168.691 118.125C168.238 117.469 168.012 116.762 168.012 116.004H170.777C170.816 116.676 171.07 117.195 171.539 117.562C172.008 117.922 172.629 118.102 173.402 118.102C174.152 118.102 174.723 117.961 175.113 117.68C175.504 117.391 175.699 117.016 175.699 116.555ZM184.559 104.238V107.32H186.797V109.43H184.559V116.508C184.559 116.992 184.652 117.344 184.84 117.562C185.035 117.773 185.379 117.879 185.871 117.879C186.199 117.879 186.531 117.84 186.867 117.762V119.965C186.219 120.145 185.594 120.234 184.992 120.234C182.805 120.234 181.711 119.027 181.711 116.613V109.43H179.625V107.32H181.711V104.238H184.559ZM195.621 109.922C195.246 109.859 194.859 109.828 194.461 109.828C193.156 109.828 192.277 110.328 191.824 111.328V120H188.977V107.32H191.695L191.766 108.738C192.453 107.637 193.406 107.086 194.625 107.086C195.031 107.086 195.367 107.141 195.633 107.25L195.621 109.922ZM205.102 118.758C204.266 119.742 203.078 120.234 201.539 120.234C200.164 120.234 199.121 119.832 198.41 119.027C197.707 118.223 197.355 117.059 197.355 115.535V107.32H200.203V115.5C200.203 117.109 200.871 117.914 202.207 117.914C203.59 117.914 204.523 117.418 205.008 116.426V107.32H207.855V120H205.172L205.102 118.758ZM215.965 117.961C216.676 117.961 217.266 117.754 217.734 117.34C218.203 116.926 218.453 116.414 218.484 115.805H221.168C221.137 116.594 220.891 117.332 220.43 118.02C219.969 118.699 219.344 119.238 218.555 119.637C217.766 120.035 216.914 120.234 216 120.234C214.227 120.234 212.82 119.66 211.781 118.512C210.742 117.363 210.223 115.777 210.223 113.754V113.461C210.223 111.531 210.738 109.988 211.77 108.832C212.801 107.668 214.207 107.086 215.988 107.086C217.496 107.086 218.723 107.527 219.668 108.41C220.621 109.285 221.121 110.438 221.168 111.867H218.484C218.453 111.141 218.203 110.543 217.734 110.074C217.273 109.605 216.684 109.371 215.965 109.371C215.043 109.371 214.332 109.707 213.832 110.379C213.332 111.043 213.078 112.055 213.07 113.414V113.871C213.07 115.246 213.316 116.273 213.809 116.953C214.309 117.625 215.027 117.961 215.965 117.961ZM228.527 117.961C229.238 117.961 229.828 117.754 230.297 117.34C230.766 116.926 231.016 116.414 231.047 115.805H233.73C233.699 116.594 233.453 117.332 232.992 118.02C232.531 118.699 231.906 119.238 231.117 119.637C230.328 120.035 229.477 120.234 228.562 120.234C226.789 120.234 225.383 119.66 224.344 118.512C223.305 117.363 222.785 115.777 222.785 113.754V113.461C222.785 111.531 223.301 109.988 224.332 108.832C225.363 107.668 226.77 107.086 228.551 107.086C230.059 107.086 231.285 107.527 232.23 108.41C233.184 109.285 233.684 110.438 233.73 111.867H231.047C231.016 111.141 230.766 110.543 230.297 110.074C229.836 109.605 229.246 109.371 228.527 109.371C227.605 109.371 226.895 109.707 226.395 110.379C225.895 111.043 225.641 112.055 225.633 113.414V113.871C225.633 115.246 225.879 116.273 226.371 116.953C226.871 117.625 227.59 117.961 228.527 117.961ZM238.91 120H236.062V107.32H238.91V120ZM235.887 104.027C235.887 103.59 236.023 103.227 236.297 102.938C236.578 102.648 236.977 102.504 237.492 102.504C238.008 102.504 238.406 102.648 238.688 102.938C238.969 103.227 239.109 103.59 239.109 104.027C239.109 104.457 238.969 104.816 238.688 105.105C238.406 105.387 238.008 105.527 237.492 105.527C236.977 105.527 236.578 105.387 236.297 105.105C236.023 104.816 235.887 104.457 235.887 104.027ZM241.488 113.543C241.488 112.301 241.734 111.184 242.227 110.191C242.719 109.191 243.41 108.426 244.301 107.895C245.191 107.355 246.215 107.086 247.371 107.086C249.082 107.086 250.469 107.637 251.531 108.738C252.602 109.84 253.18 111.301 253.266 113.121L253.277 113.789C253.277 115.039 253.035 116.156 252.551 117.141C252.074 118.125 251.387 118.887 250.488 119.426C249.598 119.965 248.566 120.234 247.395 120.234C245.605 120.234 244.172 119.641 243.094 118.453C242.023 117.258 241.488 115.668 241.488 113.684V113.543ZM244.336 113.789C244.336 115.094 244.605 116.117 245.145 116.859C245.684 117.594 246.434 117.961 247.395 117.961C248.355 117.961 249.102 117.586 249.633 116.836C250.172 116.086 250.441 114.988 250.441 113.543C250.441 112.262 250.164 111.246 249.609 110.496C249.062 109.746 248.316 109.371 247.371 109.371C246.441 109.371 245.703 109.742 245.156 110.484C244.609 111.219 244.336 112.32 244.336 113.789ZM258.328 107.32L258.41 108.785C259.348 107.652 260.578 107.086 262.102 107.086C264.742 107.086 266.086 108.598 266.133 111.621V120H263.285V111.785C263.285 110.98 263.109 110.387 262.758 110.004C262.414 109.613 261.848 109.418 261.059 109.418C259.91 109.418 259.055 109.938 258.492 110.977V120H255.645V107.32H258.328ZM274.629 120.234C272.824 120.234 271.359 119.668 270.234 118.535C269.117 117.395 268.559 115.879 268.559 113.988V113.637C268.559 112.371 268.801 111.242 269.285 110.25C269.777 109.25 270.465 108.473 271.348 107.918C272.23 107.363 273.215 107.086 274.301 107.086C276.027 107.086 277.359 107.637 278.297 108.738C279.242 109.84 279.715 111.398 279.715 113.414V114.562H271.43C271.516 115.609 271.863 116.438 272.473 117.047C273.09 117.656 273.863 117.961 274.793 117.961C276.098 117.961 277.16 117.434 277.98 116.379L279.516 117.844C279.008 118.602 278.328 119.191 277.477 119.613C276.633 120.027 275.684 120.234 274.629 120.234ZM274.289 109.371C273.508 109.371 272.875 109.645 272.391 110.191C271.914 110.738 271.609 111.5 271.477 112.477H276.902V112.266C276.84 111.312 276.586 110.594 276.141 110.109C275.695 109.617 275.078 109.371 274.289 109.371ZM289.043 116.555C289.043 116.047 288.832 115.66 288.41 115.395C287.996 115.129 287.305 114.895 286.336 114.691C285.367 114.488 284.559 114.23 283.91 113.918C282.488 113.23 281.777 112.234 281.777 110.93C281.777 109.836 282.238 108.922 283.16 108.188C284.082 107.453 285.254 107.086 286.676 107.086C288.191 107.086 289.414 107.461 290.344 108.211C291.281 108.961 291.75 109.934 291.75 111.129H288.902C288.902 110.582 288.699 110.129 288.293 109.77C287.887 109.402 287.348 109.219 286.676 109.219C286.051 109.219 285.539 109.363 285.141 109.652C284.75 109.941 284.555 110.328 284.555 110.812C284.555 111.25 284.738 111.59 285.105 111.832C285.473 112.074 286.215 112.32 287.332 112.57C288.449 112.812 289.324 113.105 289.957 113.449C290.598 113.785 291.07 114.191 291.375 114.668C291.688 115.145 291.844 115.723 291.844 116.402C291.844 117.543 291.371 118.469 290.426 119.18C289.48 119.883 288.242 120.234 286.711 120.234C285.672 120.234 284.746 120.047 283.934 119.672C283.121 119.297 282.488 118.781 282.035 118.125C281.582 117.469 281.355 116.762 281.355 116.004H284.121C284.16 116.676 284.414 117.195 284.883 117.562C285.352 117.922 285.973 118.102 286.746 118.102C287.496 118.102 288.066 117.961 288.457 117.68C288.848 117.391 289.043 117.016 289.043 116.555Z" fill="black"/>
<path d="M0 82V81H-1V82H0ZM968 82H969V81H968V82ZM968 152V153H969V152H968ZM0 152H-1V153H0V152ZM0 83H968V81H0V83ZM967 82V152H969V82H967ZM968 151H0V153H968V151ZM1 152V82H-1V152H1Z" fill="white"/>
<path d="M0 0H968V83H0V0Z" fill="#11D0C5"/>
<path d="M0 0V-1H-1V0H0ZM968 0H969V-1H968V0ZM968 83V84H969V83H968ZM0 83H-1V84H0V83ZM0 1H968V-1H0V1ZM967 0V83H969V0H967ZM968 82H0V84H968V82ZM1 83V0H-1V83H1Z" fill="white"/>
<rect x="1" y="1" width="966" height="726" stroke="#171212" stroke-width="2"/>
</svg>
