<svg width="968" height="728" viewBox="0 0 968 728" fill="none" xmlns="http://www.w3.org/2000/svg">
<rect x="1" y="1" width="966" height="726" fill="white"/>
<path d="M0 656H485V728H0V656Z" fill="white"/>
<path d="M22.4062 709.053C22.4062 708.74 22.4974 708.48 22.6797 708.271C22.8685 708.063 23.1484 707.959 23.5195 707.959C23.8906 707.959 24.1706 708.063 24.3594 708.271C24.5547 708.48 24.6523 708.74 24.6523 709.053C24.6523 709.352 24.5547 709.603 24.3594 709.805C24.1706 710.007 23.8906 710.107 23.5195 710.107C23.1484 710.107 22.8685 710.007 22.6797 709.805C22.4974 709.603 22.4062 709.352 22.4062 709.053Z" fill="black"/>
<path d="M0 82H968V152H0V82Z" fill="#EBFFFE"/>
<path d="M33.8633 120H30.9102V102.938H33.8633V120ZM39.875 107.32L39.957 108.785C40.8945 107.652 42.125 107.086 43.6484 107.086C46.2891 107.086 47.6328 108.598 47.6797 111.621V120H44.832V111.785C44.832 110.98 44.6562 110.387 44.3047 110.004C43.9609 109.613 43.3945 109.418 42.6055 109.418C41.457 109.418 40.6016 109.938 40.0391 110.977V120H37.1914V107.32H39.875ZM53.6211 120H50.7734V107.32H53.6211V120ZM50.5977 104.027C50.5977 103.59 50.7344 103.227 51.0078 102.938C51.2891 102.648 51.6875 102.504 52.2031 102.504C52.7188 102.504 53.1172 102.648 53.3984 102.938C53.6797 103.227 53.8203 103.59 53.8203 104.027C53.8203 104.457 53.6797 104.816 53.3984 105.105C53.1172 105.387 52.7188 105.527 52.2031 105.527C51.6875 105.527 51.2891 105.387 51.0078 105.105C50.7344 104.816 50.5977 104.457 50.5977 104.027ZM61.9414 117.961C62.6523 117.961 63.2422 117.754 63.7109 117.34C64.1797 116.926 64.4297 116.414 64.4609 115.805H67.1445C67.1133 116.594 66.8672 117.332 66.4062 118.02C65.9453 118.699 65.3203 119.238 64.5312 119.637C63.7422 120.035 62.8906 120.234 61.9766 120.234C60.2031 120.234 58.7969 119.66 57.7578 118.512C56.7188 117.363 56.1992 115.777 56.1992 113.754V113.461C56.1992 111.531 56.7148 109.988 57.7461 108.832C58.7773 107.668 60.1836 107.086 61.9648 107.086C63.4727 107.086 64.6992 107.527 65.6445 108.41C66.5977 109.285 67.0977 110.438 67.1445 111.867H64.4609C64.4297 111.141 64.1797 110.543 63.7109 110.074C63.25 109.605 62.6602 109.371 61.9414 109.371C61.0195 109.371 60.3086 109.707 59.8086 110.379C59.3086 111.043 59.0547 112.055 59.0469 113.414V113.871C59.0469 115.246 59.293 116.273 59.7852 116.953C60.2852 117.625 61.0039 117.961 61.9414 117.961ZM72.3242 120H69.4766V107.32H72.3242V120ZM69.3008 104.027C69.3008 103.59 69.4375 103.227 69.7109 102.938C69.9922 102.648 70.3906 102.504 70.9062 102.504C71.4219 102.504 71.8203 102.648 72.1016 102.938C72.3828 103.227 72.5234 103.59 72.5234 104.027C72.5234 104.457 72.3828 104.816 72.1016 105.105C71.8203 105.387 71.4219 105.527 70.9062 105.527C70.3906 105.527 69.9922 105.387 69.7109 105.105C69.4375 104.816 69.3008 104.457 69.3008 104.027ZM74.9023 113.543C74.9023 112.301 75.1484 111.184 75.6406 110.191C76.1328 109.191 76.8242 108.426 77.7148 107.895C78.6055 107.355 79.6289 107.086 80.7852 107.086C82.4961 107.086 83.8828 107.637 84.9453 108.738C86.0156 109.84 86.5938 111.301 86.6797 113.121L86.6914 113.789C86.6914 115.039 86.4492 116.156 85.9648 117.141C85.4883 118.125 84.8008 118.887 83.9023 119.426C83.0117 119.965 81.9805 120.234 80.8086 120.234C79.0195 120.234 77.5859 119.641 76.5078 118.453C75.4375 117.258 74.9023 115.668 74.9023 113.684V113.543ZM77.75 113.789C77.75 115.094 78.0195 116.117 78.5586 116.859C79.0977 117.594 79.8477 117.961 80.8086 117.961C81.7695 117.961 82.5156 117.586 83.0469 116.836C83.5859 116.086 83.8555 114.988 83.8555 113.543C83.8555 112.262 83.5781 111.246 83.0234 110.496C82.4766 109.746 81.7305 109.371 80.7852 109.371C79.8555 109.371 79.1172 109.742 78.5703 110.484C78.0234 111.219 77.75 112.32 77.75 113.789Z" fill="black"/>
<path d="M151.863 120H148.91V102.938H151.863V120ZM157.875 107.32L157.957 108.785C158.895 107.652 160.125 107.086 161.648 107.086C164.289 107.086 165.633 108.598 165.68 111.621V120H162.832V111.785C162.832 110.98 162.656 110.387 162.305 110.004C161.961 109.613 161.395 109.418 160.605 109.418C159.457 109.418 158.602 109.938 158.039 110.977V120H155.191V107.32H157.875ZM175.699 116.555C175.699 116.047 175.488 115.66 175.066 115.395C174.652 115.129 173.961 114.895 172.992 114.691C172.023 114.488 171.215 114.23 170.566 113.918C169.145 113.23 168.434 112.234 168.434 110.93C168.434 109.836 168.895 108.922 169.816 108.188C170.738 107.453 171.91 107.086 173.332 107.086C174.848 107.086 176.07 107.461 177 108.211C177.938 108.961 178.406 109.934 178.406 111.129H175.559C175.559 110.582 175.355 110.129 174.949 109.77C174.543 109.402 174.004 109.219 173.332 109.219C172.707 109.219 172.195 109.363 171.797 109.652C171.406 109.941 171.211 110.328 171.211 110.812C171.211 111.25 171.395 111.59 171.762 111.832C172.129 112.074 172.871 112.32 173.988 112.57C175.105 112.812 175.98 113.105 176.613 113.449C177.254 113.785 177.727 114.191 178.031 114.668C178.344 115.145 178.5 115.723 178.5 116.402C178.5 117.543 178.027 118.469 177.082 119.18C176.137 119.883 174.898 120.234 173.367 120.234C172.328 120.234 171.402 120.047 170.59 119.672C169.777 119.297 169.145 118.781 168.691 118.125C168.238 117.469 168.012 116.762 168.012 116.004H170.777C170.816 116.676 171.07 117.195 171.539 117.562C172.008 117.922 172.629 118.102 173.402 118.102C174.152 118.102 174.723 117.961 175.113 117.68C175.504 117.391 175.699 117.016 175.699 116.555ZM184.559 104.238V107.32H186.797V109.43H184.559V116.508C184.559 116.992 184.652 117.344 184.84 117.562C185.035 117.773 185.379 117.879 185.871 117.879C186.199 117.879 186.531 117.84 186.867 117.762V119.965C186.219 120.145 185.594 120.234 184.992 120.234C182.805 120.234 181.711 119.027 181.711 116.613V109.43H179.625V107.32H181.711V104.238H184.559ZM195.621 109.922C195.246 109.859 194.859 109.828 194.461 109.828C193.156 109.828 192.277 110.328 191.824 111.328V120H188.977V107.32H191.695L191.766 108.738C192.453 107.637 193.406 107.086 194.625 107.086C195.031 107.086 195.367 107.141 195.633 107.25L195.621 109.922ZM205.102 118.758C204.266 119.742 203.078 120.234 201.539 120.234C200.164 120.234 199.121 119.832 198.41 119.027C197.707 118.223 197.355 117.059 197.355 115.535V107.32H200.203V115.5C200.203 117.109 200.871 117.914 202.207 117.914C203.59 117.914 204.523 117.418 205.008 116.426V107.32H207.855V120H205.172L205.102 118.758ZM215.965 117.961C216.676 117.961 217.266 117.754 217.734 117.34C218.203 116.926 218.453 116.414 218.484 115.805H221.168C221.137 116.594 220.891 117.332 220.43 118.02C219.969 118.699 219.344 119.238 218.555 119.637C217.766 120.035 216.914 120.234 216 120.234C214.227 120.234 212.82 119.66 211.781 118.512C210.742 117.363 210.223 115.777 210.223 113.754V113.461C210.223 111.531 210.738 109.988 211.77 108.832C212.801 107.668 214.207 107.086 215.988 107.086C217.496 107.086 218.723 107.527 219.668 108.41C220.621 109.285 221.121 110.438 221.168 111.867H218.484C218.453 111.141 218.203 110.543 217.734 110.074C217.273 109.605 216.684 109.371 215.965 109.371C215.043 109.371 214.332 109.707 213.832 110.379C213.332 111.043 213.078 112.055 213.07 113.414V113.871C213.07 115.246 213.316 116.273 213.809 116.953C214.309 117.625 215.027 117.961 215.965 117.961ZM228.527 117.961C229.238 117.961 229.828 117.754 230.297 117.34C230.766 116.926 231.016 116.414 231.047 115.805H233.73C233.699 116.594 233.453 117.332 232.992 118.02C232.531 118.699 231.906 119.238 231.117 119.637C230.328 120.035 229.477 120.234 228.562 120.234C226.789 120.234 225.383 119.66 224.344 118.512C223.305 117.363 222.785 115.777 222.785 113.754V113.461C222.785 111.531 223.301 109.988 224.332 108.832C225.363 107.668 226.77 107.086 228.551 107.086C230.059 107.086 231.285 107.527 232.23 108.41C233.184 109.285 233.684 110.438 233.73 111.867H231.047C231.016 111.141 230.766 110.543 230.297 110.074C229.836 109.605 229.246 109.371 228.527 109.371C227.605 109.371 226.895 109.707 226.395 110.379C225.895 111.043 225.641 112.055 225.633 113.414V113.871C225.633 115.246 225.879 116.273 226.371 116.953C226.871 117.625 227.59 117.961 228.527 117.961ZM238.91 120H236.062V107.32H238.91V120ZM235.887 104.027C235.887 103.59 236.023 103.227 236.297 102.938C236.578 102.648 236.977 102.504 237.492 102.504C238.008 102.504 238.406 102.648 238.688 102.938C238.969 103.227 239.109 103.59 239.109 104.027C239.109 104.457 238.969 104.816 238.688 105.105C238.406 105.387 238.008 105.527 237.492 105.527C236.977 105.527 236.578 105.387 236.297 105.105C236.023 104.816 235.887 104.457 235.887 104.027ZM241.488 113.543C241.488 112.301 241.734 111.184 242.227 110.191C242.719 109.191 243.41 108.426 244.301 107.895C245.191 107.355 246.215 107.086 247.371 107.086C249.082 107.086 250.469 107.637 251.531 108.738C252.602 109.84 253.18 111.301 253.266 113.121L253.277 113.789C253.277 115.039 253.035 116.156 252.551 117.141C252.074 118.125 251.387 118.887 250.488 119.426C249.598 119.965 248.566 120.234 247.395 120.234C245.605 120.234 244.172 119.641 243.094 118.453C242.023 117.258 241.488 115.668 241.488 113.684V113.543ZM244.336 113.789C244.336 115.094 244.605 116.117 245.145 116.859C245.684 117.594 246.434 117.961 247.395 117.961C248.355 117.961 249.102 117.586 249.633 116.836C250.172 116.086 250.441 114.988 250.441 113.543C250.441 112.262 250.164 111.246 249.609 110.496C249.062 109.746 248.316 109.371 247.371 109.371C246.441 109.371 245.703 109.742 245.156 110.484C244.609 111.219 244.336 112.32 244.336 113.789ZM258.328 107.32L258.41 108.785C259.348 107.652 260.578 107.086 262.102 107.086C264.742 107.086 266.086 108.598 266.133 111.621V120H263.285V111.785C263.285 110.98 263.109 110.387 262.758 110.004C262.414 109.613 261.848 109.418 261.059 109.418C259.91 109.418 259.055 109.938 258.492 110.977V120H255.645V107.32H258.328ZM274.629 120.234C272.824 120.234 271.359 119.668 270.234 118.535C269.117 117.395 268.559 115.879 268.559 113.988V113.637C268.559 112.371 268.801 111.242 269.285 110.25C269.777 109.25 270.465 108.473 271.348 107.918C272.23 107.363 273.215 107.086 274.301 107.086C276.027 107.086 277.359 107.637 278.297 108.738C279.242 109.84 279.715 111.398 279.715 113.414V114.562H271.43C271.516 115.609 271.863 116.438 272.473 117.047C273.09 117.656 273.863 117.961 274.793 117.961C276.098 117.961 277.16 117.434 277.98 116.379L279.516 117.844C279.008 118.602 278.328 119.191 277.477 119.613C276.633 120.027 275.684 120.234 274.629 120.234ZM274.289 109.371C273.508 109.371 272.875 109.645 272.391 110.191C271.914 110.738 271.609 111.5 271.477 112.477H276.902V112.266C276.84 111.312 276.586 110.594 276.141 110.109C275.695 109.617 275.078 109.371 274.289 109.371ZM289.043 116.555C289.043 116.047 288.832 115.66 288.41 115.395C287.996 115.129 287.305 114.895 286.336 114.691C285.367 114.488 284.559 114.23 283.91 113.918C282.488 113.23 281.777 112.234 281.777 110.93C281.777 109.836 282.238 108.922 283.16 108.188C284.082 107.453 285.254 107.086 286.676 107.086C288.191 107.086 289.414 107.461 290.344 108.211C291.281 108.961 291.75 109.934 291.75 111.129H288.902C288.902 110.582 288.699 110.129 288.293 109.77C287.887 109.402 287.348 109.219 286.676 109.219C286.051 109.219 285.539 109.363 285.141 109.652C284.75 109.941 284.555 110.328 284.555 110.812C284.555 111.25 284.738 111.59 285.105 111.832C285.473 112.074 286.215 112.32 287.332 112.57C288.449 112.812 289.324 113.105 289.957 113.449C290.598 113.785 291.07 114.191 291.375 114.668C291.688 115.145 291.844 115.723 291.844 116.402C291.844 117.543 291.371 118.469 290.426 119.18C289.48 119.883 288.242 120.234 286.711 120.234C285.672 120.234 284.746 120.047 283.934 119.672C283.121 119.297 282.488 118.781 282.035 118.125C281.582 117.469 281.355 116.762 281.355 116.004H284.121C284.16 116.676 284.414 117.195 284.883 117.562C285.352 117.922 285.973 118.102 286.746 118.102C287.496 118.102 288.066 117.961 288.457 117.68C288.848 117.391 289.043 117.016 289.043 116.555Z" fill="black"/>
<path d="M0 82V81H-1V82H0ZM968 82H969V81H968V82ZM968 152V153H969V152H968ZM0 152H-1V153H0V152ZM0 83H968V81H0V83ZM967 82V152H969V82H967ZM968 151H0V153H968V151ZM1 152V82H-1V152H1Z" fill="white"/>
<path d="M0 0H968V83H0V0Z" fill="#11D0C5"/>
<path d="M0 0V-1H-1V0H0ZM968 0H969V-1H968V0ZM968 83V84H969V83H968ZM0 83H-1V84H0V83ZM0 1H968V-1H0V1ZM967 0V83H969V0H967ZM968 82H0V84H968V82ZM1 83V0H-1V83H1Z" fill="white"/>
<rect y="152" width="968" height="570" fill="white"/>
<rect x="37.5" y="628.5" width="160" height="50" rx="13.5" fill="#10B6AC" stroke="black"/>
<rect x="258.5" y="628.5" width="160" height="50" rx="13.5" fill="white" stroke="black"/>
<path d="M87.502 657.289H81.5449L80.207 661H78.2734L83.7031 646.781H85.3438L90.7832 661H88.8594L87.502 657.289ZM82.1113 655.746H86.9453L84.5234 649.096L82.1113 655.746ZM96.6523 659.721C97.2969 659.721 97.86 659.525 98.3418 659.135C98.8236 658.744 99.0905 658.256 99.1426 657.67H100.852C100.819 658.275 100.611 658.852 100.227 659.398C99.8424 659.945 99.3281 660.382 98.6836 660.707C98.0456 661.033 97.3685 661.195 96.6523 661.195C95.2135 661.195 94.0677 660.717 93.2148 659.76C92.3685 658.796 91.9453 657.481 91.9453 655.814V655.512C91.9453 654.483 92.1341 653.568 92.5117 652.768C92.8893 651.967 93.4297 651.345 94.1328 650.902C94.8424 650.46 95.679 650.238 96.6426 650.238C97.8275 650.238 98.8105 650.593 99.5918 651.303C100.38 652.012 100.799 652.934 100.852 654.066H99.1426C99.0905 653.383 98.8301 652.823 98.3613 652.387C97.8991 651.944 97.3262 651.723 96.6426 651.723C95.7246 651.723 95.0117 652.055 94.5039 652.719C94.0026 653.376 93.752 654.33 93.752 655.58V655.922C93.752 657.139 94.0026 658.077 94.5039 658.734C95.0052 659.392 95.7214 659.721 96.6523 659.721ZM107.268 661.195C105.835 661.195 104.67 660.727 103.771 659.789C102.873 658.845 102.424 657.585 102.424 656.01V655.678C102.424 654.63 102.622 653.695 103.02 652.875C103.423 652.048 103.983 651.404 104.699 650.941C105.422 650.473 106.203 650.238 107.043 650.238C108.417 650.238 109.484 650.691 110.246 651.596C111.008 652.501 111.389 653.796 111.389 655.482V656.234H104.23C104.257 657.276 104.559 658.119 105.139 658.764C105.725 659.402 106.467 659.721 107.365 659.721C108.003 659.721 108.544 659.59 108.986 659.33C109.429 659.07 109.816 658.725 110.148 658.295L111.252 659.154C110.367 660.515 109.038 661.195 107.268 661.195ZM107.043 651.723C106.314 651.723 105.702 651.99 105.207 652.523C104.712 653.051 104.406 653.793 104.289 654.75H109.582V654.613C109.53 653.695 109.283 652.986 108.84 652.484C108.397 651.977 107.798 651.723 107.043 651.723ZM122.414 655.834C122.414 657.442 122.046 658.738 121.311 659.721C120.575 660.704 119.579 661.195 118.322 661.195C117.04 661.195 116.031 660.788 115.295 659.975V665.062H113.488V650.434H115.139L115.227 651.605C115.962 650.694 116.984 650.238 118.293 650.238C119.562 650.238 120.565 650.717 121.301 651.674C122.043 652.631 122.414 653.962 122.414 655.668V655.834ZM120.607 655.629C120.607 654.438 120.354 653.497 119.846 652.807C119.338 652.117 118.641 651.771 117.756 651.771C116.662 651.771 115.842 652.257 115.295 653.227V658.275C115.835 659.239 116.662 659.721 117.775 659.721C118.641 659.721 119.328 659.379 119.836 658.695C120.35 658.005 120.607 656.983 120.607 655.629ZM127.17 647.875V650.434H129.143V651.83H127.17V658.383C127.17 658.806 127.258 659.125 127.434 659.34C127.609 659.548 127.909 659.652 128.332 659.652C128.54 659.652 128.827 659.613 129.191 659.535V661C128.716 661.13 128.254 661.195 127.805 661.195C126.997 661.195 126.389 660.951 125.979 660.463C125.568 659.975 125.363 659.281 125.363 658.383V651.83H123.439V650.434H125.363V647.875H127.17ZM137.785 661C137.681 660.792 137.596 660.421 137.531 659.887C136.691 660.759 135.689 661.195 134.523 661.195C133.482 661.195 132.626 660.902 131.955 660.316C131.291 659.724 130.959 658.975 130.959 658.07C130.959 656.97 131.376 656.117 132.209 655.512C133.049 654.9 134.227 654.594 135.744 654.594H137.502V653.764C137.502 653.132 137.313 652.631 136.936 652.26C136.558 651.882 136.001 651.693 135.266 651.693C134.621 651.693 134.081 651.856 133.645 652.182C133.208 652.507 132.99 652.901 132.99 653.363H131.174C131.174 652.836 131.359 652.328 131.73 651.84C132.108 651.345 132.616 650.954 133.254 650.668C133.898 650.382 134.605 650.238 135.373 650.238C136.59 650.238 137.544 650.544 138.234 651.156C138.924 651.762 139.283 652.598 139.309 653.666V658.529C139.309 659.499 139.432 660.271 139.68 660.844V661H137.785ZM134.787 659.623C135.354 659.623 135.891 659.477 136.398 659.184C136.906 658.891 137.274 658.51 137.502 658.041V655.873H136.086C133.872 655.873 132.766 656.521 132.766 657.816C132.766 658.383 132.954 658.826 133.332 659.145C133.71 659.464 134.195 659.623 134.787 659.623ZM147.248 652.055C146.975 652.009 146.678 651.986 146.359 651.986C145.174 651.986 144.37 652.491 143.947 653.5V661H142.141V650.434H143.898L143.928 651.654C144.52 650.71 145.36 650.238 146.447 650.238C146.799 650.238 147.066 650.284 147.248 650.375V652.055Z" fill="black"/>
<path d="M308.109 656.488C307.934 657.992 307.377 659.154 306.439 659.975C305.508 660.788 304.268 661.195 302.719 661.195C301.039 661.195 299.691 660.593 298.676 659.389C297.667 658.184 297.162 656.573 297.162 654.555V653.188C297.162 651.866 297.396 650.704 297.865 649.701C298.34 648.699 299.011 647.93 299.877 647.396C300.743 646.856 301.745 646.586 302.885 646.586C304.395 646.586 305.606 647.009 306.518 647.855C307.429 648.695 307.96 649.861 308.109 651.352H306.225C306.062 650.219 305.707 649.398 305.16 648.891C304.62 648.383 303.861 648.129 302.885 648.129C301.687 648.129 300.746 648.572 300.062 649.457C299.385 650.342 299.047 651.602 299.047 653.236V654.613C299.047 656.156 299.369 657.383 300.014 658.295C300.658 659.206 301.56 659.662 302.719 659.662C303.76 659.662 304.558 659.428 305.111 658.959C305.671 658.484 306.042 657.66 306.225 656.488H308.109ZM316.918 661C316.814 660.792 316.729 660.421 316.664 659.887C315.824 660.759 314.822 661.195 313.656 661.195C312.615 661.195 311.758 660.902 311.088 660.316C310.424 659.724 310.092 658.975 310.092 658.07C310.092 656.97 310.508 656.117 311.342 655.512C312.182 654.9 313.36 654.594 314.877 654.594H316.635V653.764C316.635 653.132 316.446 652.631 316.068 652.26C315.691 651.882 315.134 651.693 314.398 651.693C313.754 651.693 313.214 651.856 312.777 652.182C312.341 652.507 312.123 652.901 312.123 653.363H310.307C310.307 652.836 310.492 652.328 310.863 651.84C311.241 651.345 311.749 650.954 312.387 650.668C313.031 650.382 313.738 650.238 314.506 650.238C315.723 650.238 316.677 650.544 317.367 651.156C318.057 651.762 318.415 652.598 318.441 653.666V658.529C318.441 659.499 318.565 660.271 318.812 660.844V661H316.918ZM313.92 659.623C314.486 659.623 315.023 659.477 315.531 659.184C316.039 658.891 316.407 658.51 316.635 658.041V655.873H315.219C313.005 655.873 311.898 656.521 311.898 657.816C311.898 658.383 312.087 658.826 312.465 659.145C312.842 659.464 313.327 659.623 313.92 659.623ZM322.982 650.434L323.041 651.762C323.848 650.746 324.903 650.238 326.205 650.238C328.438 650.238 329.564 651.498 329.584 654.018V661H327.777V654.008C327.771 653.246 327.595 652.683 327.25 652.318C326.911 651.954 326.381 651.771 325.658 651.771C325.072 651.771 324.558 651.928 324.115 652.24C323.673 652.553 323.327 652.963 323.08 653.471V661H321.273V650.434H322.982ZM336.547 659.721C337.191 659.721 337.755 659.525 338.236 659.135C338.718 658.744 338.985 658.256 339.037 657.67H340.746C340.714 658.275 340.505 658.852 340.121 659.398C339.737 659.945 339.223 660.382 338.578 660.707C337.94 661.033 337.263 661.195 336.547 661.195C335.108 661.195 333.962 660.717 333.109 659.76C332.263 658.796 331.84 657.481 331.84 655.814V655.512C331.84 654.483 332.029 653.568 332.406 652.768C332.784 651.967 333.324 651.345 334.027 650.902C334.737 650.46 335.574 650.238 336.537 650.238C337.722 650.238 338.705 650.593 339.486 651.303C340.274 652.012 340.694 652.934 340.746 654.066H339.037C338.985 653.383 338.725 652.823 338.256 652.387C337.794 651.944 337.221 651.723 336.537 651.723C335.619 651.723 334.906 652.055 334.398 652.719C333.897 653.376 333.646 654.33 333.646 655.58V655.922C333.646 657.139 333.897 658.077 334.398 658.734C334.9 659.392 335.616 659.721 336.547 659.721ZM347.162 661.195C345.73 661.195 344.564 660.727 343.666 659.789C342.768 658.845 342.318 657.585 342.318 656.01V655.678C342.318 654.63 342.517 653.695 342.914 652.875C343.318 652.048 343.878 651.404 344.594 650.941C345.316 650.473 346.098 650.238 346.938 650.238C348.311 650.238 349.379 650.691 350.141 651.596C350.902 652.501 351.283 653.796 351.283 655.482V656.234H344.125C344.151 657.276 344.454 658.119 345.033 658.764C345.619 659.402 346.361 659.721 347.26 659.721C347.898 659.721 348.438 659.59 348.881 659.33C349.324 659.07 349.711 658.725 350.043 658.295L351.146 659.154C350.261 660.515 348.933 661.195 347.162 661.195ZM346.938 651.723C346.208 651.723 345.596 651.99 345.102 652.523C344.607 653.051 344.301 653.793 344.184 654.75H349.477V654.613C349.424 653.695 349.177 652.986 348.734 652.484C348.292 651.977 347.693 651.723 346.938 651.723ZM355.346 661H353.539V646H355.346V661ZM364.77 661C364.665 660.792 364.581 660.421 364.516 659.887C363.676 660.759 362.673 661.195 361.508 661.195C360.466 661.195 359.61 660.902 358.939 660.316C358.275 659.724 357.943 658.975 357.943 658.07C357.943 656.97 358.36 656.117 359.193 655.512C360.033 654.9 361.212 654.594 362.729 654.594H364.486V653.764C364.486 653.132 364.298 652.631 363.92 652.26C363.542 651.882 362.986 651.693 362.25 651.693C361.605 651.693 361.065 651.856 360.629 652.182C360.193 652.507 359.975 652.901 359.975 653.363H358.158C358.158 652.836 358.344 652.328 358.715 651.84C359.092 651.345 359.6 650.954 360.238 650.668C360.883 650.382 361.589 650.238 362.357 650.238C363.575 650.238 364.529 650.544 365.219 651.156C365.909 651.762 366.267 652.598 366.293 653.666V658.529C366.293 659.499 366.417 660.271 366.664 660.844V661H364.77ZM361.771 659.623C362.338 659.623 362.875 659.477 363.383 659.184C363.891 658.891 364.258 658.51 364.486 658.041V655.873H363.07C360.857 655.873 359.75 656.521 359.75 657.816C359.75 658.383 359.939 658.826 360.316 659.145C360.694 659.464 361.179 659.623 361.771 659.623ZM374.232 652.055C373.959 652.009 373.663 651.986 373.344 651.986C372.159 651.986 371.355 652.491 370.932 653.5V661H369.125V650.434H370.883L370.912 651.654C371.505 650.71 372.344 650.238 373.432 650.238C373.783 650.238 374.05 650.284 374.232 650.375V652.055Z" fill="black"/>
<rect x="218.5" y="275.5" width="599" height="34" fill="white" stroke="black"/>
<rect x="218.5" y="360.5" width="599" height="34" fill="white" stroke="black"/>
<path d="M231.119 473H229.303V460.959L225.66 462.297V460.656L230.836 458.713H231.119V473ZM245.328 466.936C245.328 469.051 244.967 470.624 244.244 471.652C243.521 472.681 242.392 473.195 240.855 473.195C239.339 473.195 238.215 472.694 237.486 471.691C236.757 470.682 236.38 469.178 236.354 467.18V464.768C236.354 462.678 236.715 461.125 237.438 460.109C238.16 459.094 239.293 458.586 240.836 458.586C242.366 458.586 243.492 459.077 244.215 460.061C244.938 461.037 245.309 462.548 245.328 464.592V466.936ZM243.521 464.465C243.521 462.935 243.307 461.822 242.877 461.125C242.447 460.422 241.767 460.07 240.836 460.07C239.911 460.07 239.238 460.419 238.814 461.115C238.391 461.812 238.173 462.883 238.16 464.328V467.219C238.16 468.755 238.382 469.891 238.824 470.627C239.273 471.356 239.951 471.721 240.855 471.721C241.747 471.721 242.408 471.376 242.838 470.686C243.274 469.995 243.502 468.908 243.521 467.424V464.465Z" fill="black"/>
<path d="M32.5781 299H30.6934L23.5352 288.043V299H21.6504V284.781H23.5352L30.7129 295.787V284.781H32.5781V299ZM35.1465 293.619C35.1465 292.584 35.3483 291.653 35.752 290.826C36.1621 289.999 36.7285 289.361 37.4512 288.912C38.1803 288.463 39.0104 288.238 39.9414 288.238C41.3802 288.238 42.5423 288.736 43.4277 289.732C44.3197 290.729 44.7656 292.053 44.7656 293.707V293.834C44.7656 294.863 44.5671 295.787 44.1699 296.607C43.7793 297.421 43.2161 298.056 42.4805 298.512C41.7513 298.967 40.9115 299.195 39.9609 299.195C38.5286 299.195 37.3665 298.697 36.4746 297.701C35.5892 296.705 35.1465 295.387 35.1465 293.746V293.619ZM36.9629 293.834C36.9629 295.006 37.2331 295.947 37.7734 296.656C38.3203 297.366 39.0495 297.721 39.9609 297.721C40.8789 297.721 41.6081 297.363 42.1484 296.646C42.6888 295.924 42.959 294.915 42.959 293.619C42.959 292.46 42.6823 291.523 42.1289 290.807C41.582 290.084 40.8529 289.723 39.9414 289.723C39.0495 289.723 38.3301 290.077 37.7832 290.787C37.2363 291.497 36.9629 292.512 36.9629 293.834ZM48.7305 288.434L48.7793 289.605C49.554 288.694 50.599 288.238 51.9141 288.238C53.3919 288.238 54.3978 288.805 54.9316 289.938C55.2832 289.43 55.7389 289.02 56.2988 288.707C56.8652 288.395 57.5326 288.238 58.3008 288.238C60.6185 288.238 61.7969 289.465 61.8359 291.92V299H60.0293V292.027C60.0293 291.272 59.8568 290.709 59.5117 290.338C59.1667 289.96 58.5872 289.771 57.7734 289.771C57.1029 289.771 56.5462 289.973 56.1035 290.377C55.6608 290.774 55.4036 291.311 55.332 291.988V299H53.5156V292.076C53.5156 290.54 52.7637 289.771 51.2598 289.771C50.0749 289.771 49.2643 290.276 48.8281 291.285V299H47.0215V288.434H48.7305ZM73.5156 293.834C73.5156 295.449 73.1445 296.747 72.4023 297.73C71.6602 298.707 70.6641 299.195 69.4141 299.195C68.0794 299.195 67.0475 298.723 66.3184 297.779L66.2305 299H64.5703V284H66.377V289.596C67.1061 288.691 68.112 288.238 69.3945 288.238C70.6771 288.238 71.6829 288.723 72.4121 289.693C73.1478 290.663 73.5156 291.992 73.5156 293.678V293.834ZM71.709 293.629C71.709 292.398 71.4714 291.448 70.9961 290.777C70.5208 290.107 69.8372 289.771 68.9453 289.771C67.7539 289.771 66.8978 290.325 66.377 291.432V296.002C66.9303 297.109 67.793 297.662 68.9648 297.662C69.8307 297.662 70.5046 297.327 70.9863 296.656C71.4681 295.986 71.709 294.977 71.709 293.629ZM80.9082 290.055C80.6348 290.009 80.3385 289.986 80.0195 289.986C78.8346 289.986 78.0306 290.491 77.6074 291.5V299H75.8008V288.434H77.5586L77.5879 289.654C78.1803 288.71 79.0202 288.238 80.1074 288.238C80.459 288.238 80.7259 288.284 80.9082 288.375V290.055ZM86.7676 299.195C85.3353 299.195 84.1699 298.727 83.2715 297.789C82.373 296.845 81.9238 295.585 81.9238 294.01V293.678C81.9238 292.63 82.1224 291.695 82.5195 290.875C82.9232 290.048 83.4831 289.404 84.1992 288.941C84.9219 288.473 85.7031 288.238 86.543 288.238C87.9167 288.238 88.9844 288.691 89.7461 289.596C90.5078 290.501 90.8887 291.796 90.8887 293.482V294.234H83.7305C83.7565 295.276 84.0592 296.119 84.6387 296.764C85.2246 297.402 85.9668 297.721 86.8652 297.721C87.5033 297.721 88.0436 297.59 88.4863 297.33C88.929 297.07 89.3164 296.725 89.6484 296.295L90.752 297.154C89.8665 298.515 88.5384 299.195 86.7676 299.195ZM86.543 289.723C85.8138 289.723 85.2018 289.99 84.707 290.523C84.2122 291.051 83.9062 291.793 83.7891 292.75H89.082V292.613C89.0299 291.695 88.7826 290.986 88.3398 290.484C87.8971 289.977 87.2982 289.723 86.543 289.723ZM104.189 284.781H106.074V294.85C106.074 296.21 105.664 297.275 104.844 298.043C104.03 298.811 102.943 299.195 101.582 299.195C100.169 299.195 99.069 298.834 98.2812 298.111C97.4935 297.389 97.0996 296.376 97.0996 295.074H98.9746C98.9746 295.888 99.196 296.523 99.6387 296.979C100.088 297.434 100.736 297.662 101.582 297.662C102.357 297.662 102.982 297.418 103.457 296.93C103.939 296.441 104.183 295.758 104.189 294.879V284.781ZM115.508 297.955C114.805 298.782 113.773 299.195 112.412 299.195C111.286 299.195 110.426 298.87 109.834 298.219C109.248 297.561 108.952 296.591 108.945 295.309V288.434H110.752V295.26C110.752 296.861 111.403 297.662 112.705 297.662C114.085 297.662 115.003 297.148 115.459 296.119V288.434H117.266V299H115.547L115.508 297.955ZM119.59 293.629C119.59 291.982 119.971 290.673 120.732 289.703C121.494 288.727 122.503 288.238 123.76 288.238C125.049 288.238 126.055 288.694 126.777 289.605L126.865 288.434H128.516V298.746C128.516 300.113 128.109 301.191 127.295 301.979C126.488 302.766 125.4 303.16 124.033 303.16C123.271 303.16 122.526 302.997 121.797 302.672C121.068 302.346 120.511 301.9 120.127 301.334L121.064 300.25C121.839 301.207 122.786 301.686 123.906 301.686C124.785 301.686 125.469 301.438 125.957 300.943C126.452 300.449 126.699 299.752 126.699 298.854V297.945C125.977 298.779 124.99 299.195 123.74 299.195C122.503 299.195 121.501 298.697 120.732 297.701C119.971 296.705 119.59 295.348 119.59 293.629ZM121.406 293.834C121.406 295.025 121.65 295.963 122.139 296.646C122.627 297.324 123.311 297.662 124.189 297.662C125.329 297.662 126.165 297.145 126.699 296.109V291.285C126.146 290.276 125.316 289.771 124.209 289.771C123.33 289.771 122.643 290.113 122.148 290.797C121.654 291.48 121.406 292.493 121.406 293.834ZM137.773 299C137.669 298.792 137.585 298.421 137.52 297.887C136.68 298.759 135.677 299.195 134.512 299.195C133.47 299.195 132.614 298.902 131.943 298.316C131.279 297.724 130.947 296.975 130.947 296.07C130.947 294.97 131.364 294.117 132.197 293.512C133.037 292.9 134.215 292.594 135.732 292.594H137.49V291.764C137.49 291.132 137.301 290.631 136.924 290.26C136.546 289.882 135.99 289.693 135.254 289.693C134.609 289.693 134.069 289.856 133.633 290.182C133.197 290.507 132.979 290.901 132.979 291.363H131.162C131.162 290.836 131.348 290.328 131.719 289.84C132.096 289.345 132.604 288.954 133.242 288.668C133.887 288.382 134.593 288.238 135.361 288.238C136.579 288.238 137.533 288.544 138.223 289.156C138.913 289.762 139.271 290.598 139.297 291.666V296.529C139.297 297.499 139.421 298.271 139.668 298.844V299H137.773ZM134.775 297.623C135.342 297.623 135.879 297.477 136.387 297.184C136.895 296.891 137.262 296.51 137.49 296.041V293.873H136.074C133.861 293.873 132.754 294.521 132.754 295.816C132.754 296.383 132.943 296.826 133.32 297.145C133.698 297.464 134.183 297.623 134.775 297.623ZM141.689 293.629C141.689 292.008 142.074 290.706 142.842 289.723C143.61 288.733 144.616 288.238 145.859 288.238C147.096 288.238 148.076 288.661 148.799 289.508V284H150.605V299H148.945L148.857 297.867C148.135 298.753 147.129 299.195 145.84 299.195C144.616 299.195 143.617 298.694 142.842 297.691C142.074 296.689 141.689 295.38 141.689 293.766V293.629ZM143.496 293.834C143.496 295.032 143.743 295.969 144.238 296.646C144.733 297.324 145.417 297.662 146.289 297.662C147.435 297.662 148.271 297.148 148.799 296.119V291.266C148.258 290.27 147.428 289.771 146.309 289.771C145.423 289.771 144.733 290.113 144.238 290.797C143.743 291.48 143.496 292.493 143.496 293.834ZM152.939 293.619C152.939 292.584 153.141 291.653 153.545 290.826C153.955 289.999 154.521 289.361 155.244 288.912C155.973 288.463 156.803 288.238 157.734 288.238C159.173 288.238 160.335 288.736 161.221 289.732C162.113 290.729 162.559 292.053 162.559 293.707V293.834C162.559 294.863 162.36 295.787 161.963 296.607C161.572 297.421 161.009 298.056 160.273 298.512C159.544 298.967 158.704 299.195 157.754 299.195C156.322 299.195 155.16 298.697 154.268 297.701C153.382 296.705 152.939 295.387 152.939 293.746V293.619ZM154.756 293.834C154.756 295.006 155.026 295.947 155.566 296.656C156.113 297.366 156.842 297.721 157.754 297.721C158.672 297.721 159.401 297.363 159.941 296.646C160.482 295.924 160.752 294.915 160.752 293.619C160.752 292.46 160.475 291.523 159.922 290.807C159.375 290.084 158.646 289.723 157.734 289.723C156.842 289.723 156.123 290.077 155.576 290.787C155.029 291.497 154.756 292.512 154.756 293.834ZM169.932 290.055C169.658 290.009 169.362 289.986 169.043 289.986C167.858 289.986 167.054 290.491 166.631 291.5V299H164.824V288.434H166.582L166.611 289.654C167.204 288.71 168.044 288.238 169.131 288.238C169.482 288.238 169.749 288.284 169.932 288.375V290.055ZM171.543 298.053C171.543 297.74 171.634 297.48 171.816 297.271C172.005 297.063 172.285 296.959 172.656 296.959C173.027 296.959 173.307 297.063 173.496 297.271C173.691 297.48 173.789 297.74 173.789 298.053C173.789 298.352 173.691 298.603 173.496 298.805C173.307 299.007 173.027 299.107 172.656 299.107C172.285 299.107 172.005 299.007 171.816 298.805C171.634 298.603 171.543 298.352 171.543 298.053ZM171.553 289.43C171.553 289.117 171.644 288.857 171.826 288.648C172.015 288.44 172.295 288.336 172.666 288.336C173.037 288.336 173.317 288.44 173.506 288.648C173.701 288.857 173.799 289.117 173.799 289.43C173.799 289.729 173.701 289.98 173.506 290.182C173.317 290.383 173.037 290.484 172.666 290.484C172.295 290.484 172.015 290.383 171.826 290.182C171.644 289.98 171.553 289.729 171.553 289.43Z" fill="black"/>
<path d="M21.6504 397V382.781H25.6641C26.901 382.781 27.9948 383.055 28.9453 383.602C29.8958 384.148 30.6283 384.926 31.1426 385.936C31.6634 386.945 31.9271 388.104 31.9336 389.412V390.32C31.9336 391.661 31.6732 392.837 31.1523 393.846C30.638 394.855 29.8991 395.63 28.9355 396.17C27.9785 396.71 26.862 396.987 25.5859 397H21.6504ZM23.5254 384.324V395.467H25.498C26.9434 395.467 28.0664 395.018 28.8672 394.119C29.6745 393.221 30.0781 391.941 30.0781 390.281V389.451C30.0781 387.837 29.6973 386.583 28.9355 385.691C28.1803 384.793 27.1061 384.337 25.7129 384.324H23.5254ZM41.0156 395.955C40.3125 396.782 39.2806 397.195 37.9199 397.195C36.7936 397.195 35.9342 396.87 35.3418 396.219C34.7559 395.561 34.4596 394.591 34.4531 393.309V386.434H36.2598V393.26C36.2598 394.861 36.9108 395.662 38.2129 395.662C39.5931 395.662 40.5111 395.148 40.9668 394.119V386.434H42.7734V397H41.0547L41.0156 395.955ZM50.6348 388.055C50.3613 388.009 50.0651 387.986 49.7461 387.986C48.5612 387.986 47.7572 388.491 47.334 389.5V397H45.5273V386.434H47.2852L47.3145 387.654C47.9069 386.71 48.7467 386.238 49.834 386.238C50.1855 386.238 50.4525 386.284 50.6348 386.375V388.055ZM58.4375 397C58.3333 396.792 58.2487 396.421 58.1836 395.887C57.3438 396.759 56.3411 397.195 55.1758 397.195C54.1341 397.195 53.278 396.902 52.6074 396.316C51.9434 395.724 51.6113 394.975 51.6113 394.07C51.6113 392.97 52.028 392.117 52.8613 391.512C53.7012 390.9 54.8796 390.594 56.3965 390.594H58.1543V389.764C58.1543 389.132 57.9655 388.631 57.5879 388.26C57.2103 387.882 56.6536 387.693 55.918 387.693C55.2734 387.693 54.7331 387.856 54.2969 388.182C53.8607 388.507 53.6426 388.901 53.6426 389.363H51.8262C51.8262 388.836 52.0117 388.328 52.3828 387.84C52.7604 387.345 53.2682 386.954 53.9062 386.668C54.5508 386.382 55.2572 386.238 56.0254 386.238C57.2428 386.238 58.1966 386.544 58.8867 387.156C59.5768 387.762 59.9349 388.598 59.9609 389.666V394.529C59.9609 395.499 60.0846 396.271 60.332 396.844V397H58.4375ZM55.4395 395.623C56.0059 395.623 56.543 395.477 57.0508 395.184C57.5586 394.891 57.9264 394.51 58.1543 394.041V391.873H56.7383C54.5247 391.873 53.418 392.521 53.418 393.816C53.418 394.383 53.6068 394.826 53.9844 395.145C54.362 395.464 54.847 395.623 55.4395 395.623ZM67.0312 395.721C67.6758 395.721 68.2389 395.525 68.7207 395.135C69.2025 394.744 69.4694 394.256 69.5215 393.67H71.2305C71.1979 394.275 70.9896 394.852 70.6055 395.398C70.2214 395.945 69.707 396.382 69.0625 396.707C68.4245 397.033 67.7474 397.195 67.0312 397.195C65.5924 397.195 64.4466 396.717 63.5938 395.76C62.7474 394.796 62.3242 393.481 62.3242 391.814V391.512C62.3242 390.483 62.513 389.568 62.8906 388.768C63.2682 387.967 63.8086 387.345 64.5117 386.902C65.2214 386.46 66.0579 386.238 67.0215 386.238C68.2064 386.238 69.1895 386.593 69.9707 387.303C70.7585 388.012 71.1784 388.934 71.2305 390.066H69.5215C69.4694 389.383 69.209 388.823 68.7402 388.387C68.278 387.944 67.7051 387.723 67.0215 387.723C66.1035 387.723 65.3906 388.055 64.8828 388.719C64.3815 389.376 64.1309 390.33 64.1309 391.58V391.922C64.1309 393.139 64.3815 394.077 64.8828 394.734C65.3841 395.392 66.1003 395.721 67.0312 395.721ZM75.2246 397H73.418V386.434H75.2246V397ZM73.2715 383.631C73.2715 383.338 73.3594 383.09 73.5352 382.889C73.7174 382.687 73.9844 382.586 74.3359 382.586C74.6875 382.586 74.9544 382.687 75.1367 382.889C75.319 383.09 75.4102 383.338 75.4102 383.631C75.4102 383.924 75.319 384.168 75.1367 384.363C74.9544 384.559 74.6875 384.656 74.3359 384.656C73.9844 384.656 73.7174 384.559 73.5352 384.363C73.3594 384.168 73.2715 383.924 73.2715 383.631ZM77.6465 391.619C77.6465 390.584 77.8483 389.653 78.252 388.826C78.6621 387.999 79.2285 387.361 79.9512 386.912C80.6803 386.463 81.5104 386.238 82.4414 386.238C83.8802 386.238 85.0423 386.736 85.9277 387.732C86.8197 388.729 87.2656 390.053 87.2656 391.707V391.834C87.2656 392.863 87.0671 393.787 86.6699 394.607C86.2793 395.421 85.7161 396.056 84.9805 396.512C84.2513 396.967 83.4115 397.195 82.4609 397.195C81.0286 397.195 79.8665 396.697 78.9746 395.701C78.0892 394.705 77.6465 393.387 77.6465 391.746V391.619ZM79.4629 391.834C79.4629 393.006 79.7331 393.947 80.2734 394.656C80.8203 395.366 81.5495 395.721 82.4609 395.721C83.3789 395.721 84.1081 395.363 84.6484 394.646C85.1888 393.924 85.459 392.915 85.459 391.619C85.459 390.46 85.1823 389.523 84.6289 388.807C84.082 388.084 83.3529 387.723 82.4414 387.723C81.5495 387.723 80.8301 388.077 80.2832 388.787C79.7363 389.497 79.4629 390.512 79.4629 391.834ZM83.2617 382H85.4492L82.832 384.871H81.377L83.2617 382ZM91.2402 386.434L91.2988 387.762C92.1061 386.746 93.1608 386.238 94.4629 386.238C96.696 386.238 97.8223 387.498 97.8418 390.018V397H96.0352V390.008C96.0286 389.246 95.8529 388.683 95.5078 388.318C95.1693 387.954 94.6387 387.771 93.916 387.771C93.3301 387.771 92.8158 387.928 92.373 388.24C91.9303 388.553 91.5853 388.963 91.3379 389.471V397H89.5312V386.434H91.2402ZM105.088 391.629C105.088 390.008 105.472 388.706 106.24 387.723C107.008 386.733 108.014 386.238 109.258 386.238C110.495 386.238 111.475 386.661 112.197 387.508V382H114.004V397H112.344L112.256 395.867C111.533 396.753 110.527 397.195 109.238 397.195C108.014 397.195 107.015 396.694 106.24 395.691C105.472 394.689 105.088 393.38 105.088 391.766V391.629ZM106.895 391.834C106.895 393.032 107.142 393.969 107.637 394.646C108.132 395.324 108.815 395.662 109.688 395.662C110.833 395.662 111.67 395.148 112.197 394.119V389.266C111.657 388.27 110.827 387.771 109.707 387.771C108.822 387.771 108.132 388.113 107.637 388.797C107.142 389.48 106.895 390.493 106.895 391.834ZM121.201 397.195C119.769 397.195 118.604 396.727 117.705 395.789C116.807 394.845 116.357 393.585 116.357 392.01V391.678C116.357 390.63 116.556 389.695 116.953 388.875C117.357 388.048 117.917 387.404 118.633 386.941C119.355 386.473 120.137 386.238 120.977 386.238C122.35 386.238 123.418 386.691 124.18 387.596C124.941 388.501 125.322 389.796 125.322 391.482V392.234H118.164C118.19 393.276 118.493 394.119 119.072 394.764C119.658 395.402 120.4 395.721 121.299 395.721C121.937 395.721 122.477 395.59 122.92 395.33C123.363 395.07 123.75 394.725 124.082 394.295L125.186 395.154C124.3 396.515 122.972 397.195 121.201 397.195ZM120.977 387.723C120.247 387.723 119.635 387.99 119.141 388.523C118.646 389.051 118.34 389.793 118.223 390.75H123.516V390.613C123.464 389.695 123.216 388.986 122.773 388.484C122.331 387.977 121.732 387.723 120.977 387.723ZM129.385 397H127.578V382H129.385V397ZM146.963 384.324H142.393V397H140.527V384.324H135.967V382.781H146.963V384.324ZM150.752 397H148.945V386.434H150.752V397ZM148.799 383.631C148.799 383.338 148.887 383.09 149.062 382.889C149.245 382.687 149.512 382.586 149.863 382.586C150.215 382.586 150.482 382.687 150.664 382.889C150.846 383.09 150.938 383.338 150.938 383.631C150.938 383.924 150.846 384.168 150.664 384.363C150.482 384.559 150.215 384.656 149.863 384.656C149.512 384.656 149.245 384.559 149.062 384.363C148.887 384.168 148.799 383.924 148.799 383.631ZM155.352 386.434L155.4 387.605C156.175 386.694 157.22 386.238 158.535 386.238C160.013 386.238 161.019 386.805 161.553 387.938C161.904 387.43 162.36 387.02 162.92 386.707C163.486 386.395 164.154 386.238 164.922 386.238C167.24 386.238 168.418 387.465 168.457 389.92V397H166.65V390.027C166.65 389.272 166.478 388.709 166.133 388.338C165.788 387.96 165.208 387.771 164.395 387.771C163.724 387.771 163.167 387.973 162.725 388.377C162.282 388.774 162.025 389.311 161.953 389.988V397H160.137V390.076C160.137 388.54 159.385 387.771 157.881 387.771C156.696 387.771 155.885 388.276 155.449 389.285V397H153.643V386.434H155.352ZM175.576 397.195C174.144 397.195 172.979 396.727 172.08 395.789C171.182 394.845 170.732 393.585 170.732 392.01V391.678C170.732 390.63 170.931 389.695 171.328 388.875C171.732 388.048 172.292 387.404 173.008 386.941C173.73 386.473 174.512 386.238 175.352 386.238C176.725 386.238 177.793 386.691 178.555 387.596C179.316 388.501 179.697 389.796 179.697 391.482V392.234H172.539C172.565 393.276 172.868 394.119 173.447 394.764C174.033 395.402 174.775 395.721 175.674 395.721C176.312 395.721 176.852 395.59 177.295 395.33C177.738 395.07 178.125 394.725 178.457 394.295L179.561 395.154C178.675 396.515 177.347 397.195 175.576 397.195ZM175.352 387.723C174.622 387.723 174.01 387.99 173.516 388.523C173.021 389.051 172.715 389.793 172.598 390.75H177.891V390.613C177.839 389.695 177.591 388.986 177.148 388.484C176.706 387.977 176.107 387.723 175.352 387.723ZM186.904 388.055C186.631 388.009 186.335 387.986 186.016 387.986C184.831 387.986 184.027 388.491 183.604 389.5V397H181.797V386.434H183.555L183.584 387.654C184.176 386.71 185.016 386.238 186.104 386.238C186.455 386.238 186.722 386.284 186.904 386.375V388.055ZM188.516 396.053C188.516 395.74 188.607 395.48 188.789 395.271C188.978 395.063 189.258 394.959 189.629 394.959C190 394.959 190.28 395.063 190.469 395.271C190.664 395.48 190.762 395.74 190.762 396.053C190.762 396.352 190.664 396.603 190.469 396.805C190.28 397.007 190 397.107 189.629 397.107C189.258 397.107 188.978 397.007 188.789 396.805C188.607 396.603 188.516 396.352 188.516 396.053ZM188.525 387.43C188.525 387.117 188.617 386.857 188.799 386.648C188.988 386.44 189.268 386.336 189.639 386.336C190.01 386.336 190.29 386.44 190.479 386.648C190.674 386.857 190.771 387.117 190.771 387.43C190.771 387.729 190.674 387.98 190.479 388.182C190.29 388.383 190.01 388.484 189.639 388.484C189.268 388.484 188.988 388.383 188.799 388.182C188.617 387.98 188.525 387.729 188.525 387.43Z" fill="black"/>
<line x1="22" y1="225" x2="922" y2="225" stroke="#11D0C5" stroke-width="2"/>
<path d="M34.918 192.316C34.7852 194.152 34.1055 195.598 32.8789 196.652C31.6602 197.707 30.0508 198.234 28.0508 198.234C25.8633 198.234 24.1406 197.5 22.8828 196.031C21.6328 194.555 21.0078 192.531 21.0078 189.961V188.918C21.0078 187.277 21.2969 185.832 21.875 184.582C22.4531 183.332 23.2773 182.375 24.3477 181.711C25.4258 181.039 26.6758 180.703 28.0977 180.703C30.0664 180.703 31.6523 181.23 32.8555 182.285C34.0586 183.34 34.7539 184.82 34.9414 186.727H31.4258C31.3398 185.625 31.0312 184.828 30.5 184.336C29.9766 183.836 29.1758 183.586 28.0977 183.586C26.9258 183.586 26.0469 184.008 25.4609 184.852C24.8828 185.688 24.5859 186.988 24.5703 188.754V190.043C24.5703 191.887 24.8477 193.234 25.4023 194.086C25.9648 194.938 26.8477 195.363 28.0508 195.363C29.1367 195.363 29.9453 195.117 30.4766 194.625C31.0156 194.125 31.3242 193.355 31.4023 192.316H34.918ZM44.1289 188.496C43.668 188.434 43.2617 188.402 42.9102 188.402C41.6289 188.402 40.7891 188.836 40.3906 189.703V198H37.0039V185.32H40.2031L40.2969 186.832C40.9766 185.668 41.918 185.086 43.1211 185.086C43.4961 185.086 43.8477 185.137 44.1758 185.238L44.1289 188.496ZM51.3711 198.234C49.5117 198.234 47.9961 197.664 46.8242 196.523C45.6602 195.383 45.0781 193.863 45.0781 191.965V191.637C45.0781 190.363 45.3242 189.227 45.8164 188.227C46.3086 187.219 47.0039 186.445 47.9023 185.906C48.8086 185.359 49.8398 185.086 50.9961 185.086C52.7305 185.086 54.0938 185.633 55.0859 186.727C56.0859 187.82 56.5859 189.371 56.5859 191.379V192.762H48.5117C48.6211 193.59 48.9492 194.254 49.4961 194.754C50.0508 195.254 50.75 195.504 51.5938 195.504C52.8984 195.504 53.918 195.031 54.6523 194.086L56.3164 195.949C55.8086 196.668 55.1211 197.23 54.2539 197.637C53.3867 198.035 52.4258 198.234 51.3711 198.234ZM50.9844 187.828C50.3125 187.828 49.7656 188.055 49.3438 188.508C48.9297 188.961 48.6641 189.609 48.5469 190.453H53.2578V190.184C53.2422 189.434 53.0391 188.855 52.6484 188.449C52.2578 188.035 51.7031 187.828 50.9844 187.828ZM65.8672 198C65.7109 197.695 65.5977 197.316 65.5273 196.863C64.707 197.777 63.6406 198.234 62.3281 198.234C61.0859 198.234 60.0547 197.875 59.2344 197.156C58.4219 196.438 58.0156 195.531 58.0156 194.438C58.0156 193.094 58.5117 192.062 59.5039 191.344C60.5039 190.625 61.9453 190.262 63.8281 190.254H65.3867V189.527C65.3867 188.941 65.2344 188.473 64.9297 188.121C64.6328 187.77 64.1602 187.594 63.5117 187.594C62.9414 187.594 62.4922 187.73 62.1641 188.004C61.8438 188.277 61.6836 188.652 61.6836 189.129H58.2969C58.2969 188.395 58.5234 187.715 58.9766 187.09C59.4297 186.465 60.0703 185.977 60.8984 185.625C61.7266 185.266 62.6562 185.086 63.6875 185.086C65.25 185.086 66.4883 185.48 67.4023 186.27C68.3242 187.051 68.7852 188.152 68.7852 189.574V195.07C68.793 196.273 68.9609 197.184 69.2891 197.801V198H65.8672ZM63.0664 195.645C63.5664 195.645 64.0273 195.535 64.4492 195.316C64.8711 195.09 65.1836 194.789 65.3867 194.414V192.234H64.1211C62.4258 192.234 61.5234 192.82 61.4141 193.992L61.4023 194.191C61.4023 194.613 61.5508 194.961 61.8477 195.234C62.1445 195.508 62.5508 195.645 63.0664 195.645ZM78.5117 188.496C78.0508 188.434 77.6445 188.402 77.293 188.402C76.0117 188.402 75.1719 188.836 74.7734 189.703V198H71.3867V185.32H74.5859L74.6797 186.832C75.3594 185.668 76.3008 185.086 77.5039 185.086C77.8789 185.086 78.2305 185.137 78.5586 185.238L78.5117 188.496ZM93.2305 180.938H96.7461V192.75C96.7461 193.836 96.5039 194.797 96.0195 195.633C95.543 196.461 94.8672 197.102 93.9922 197.555C93.1172 198.008 92.1289 198.234 91.0273 198.234C89.2227 198.234 87.8164 197.777 86.8086 196.863C85.8008 195.941 85.2969 194.641 85.2969 192.961H88.8359C88.8359 193.797 89.0117 194.414 89.3633 194.812C89.7148 195.211 90.2695 195.41 91.0273 195.41C91.6992 195.41 92.2344 195.18 92.6328 194.719C93.0312 194.258 93.2305 193.602 93.2305 192.75V180.938ZM107.129 196.711C106.293 197.727 105.137 198.234 103.66 198.234C102.301 198.234 101.262 197.844 100.543 197.062C99.832 196.281 99.4688 195.137 99.4531 193.629V185.32H102.84V193.512C102.84 194.832 103.441 195.492 104.645 195.492C105.793 195.492 106.582 195.094 107.012 194.297V185.32H110.41V198H107.223L107.129 196.711ZM118.801 198.234C116.941 198.234 115.426 197.664 114.254 196.523C113.09 195.383 112.508 193.863 112.508 191.965V191.637C112.508 190.363 112.754 189.227 113.246 188.227C113.738 187.219 114.434 186.445 115.332 185.906C116.238 185.359 117.27 185.086 118.426 185.086C120.16 185.086 121.523 185.633 122.516 186.727C123.516 187.82 124.016 189.371 124.016 191.379V192.762H115.941C116.051 193.59 116.379 194.254 116.926 194.754C117.48 195.254 118.18 195.504 119.023 195.504C120.328 195.504 121.348 195.031 122.082 194.086L123.746 195.949C123.238 196.668 122.551 197.23 121.684 197.637C120.816 198.035 119.855 198.234 118.801 198.234ZM118.414 187.828C117.742 187.828 117.195 188.055 116.773 188.508C116.359 188.961 116.094 189.609 115.977 190.453H120.688V190.184C120.672 189.434 120.469 188.855 120.078 188.449C119.688 188.035 119.133 187.828 118.414 187.828ZM125.457 191.566C125.457 189.621 125.918 188.055 126.84 186.867C127.77 185.68 129.02 185.086 130.59 185.086C131.98 185.086 133.062 185.562 133.836 186.516L133.977 185.32H137.047V197.578C137.047 198.688 136.793 199.652 136.285 200.473C135.785 201.293 135.078 201.918 134.164 202.348C133.25 202.777 132.18 202.992 130.953 202.992C130.023 202.992 129.117 202.805 128.234 202.43C127.352 202.062 126.684 201.586 126.23 201L127.73 198.938C128.574 199.883 129.598 200.355 130.801 200.355C131.699 200.355 132.398 200.113 132.898 199.629C133.398 199.152 133.648 198.473 133.648 197.59V196.91C132.867 197.793 131.84 198.234 130.566 198.234C129.043 198.234 127.809 197.641 126.863 196.453C125.926 195.258 125.457 193.676 125.457 191.707V191.566ZM128.844 191.812C128.844 192.961 129.074 193.863 129.535 194.52C129.996 195.168 130.629 195.492 131.434 195.492C132.465 195.492 133.203 195.105 133.648 194.332V189C133.195 188.227 132.465 187.84 131.457 187.84C130.645 187.84 130.004 188.172 129.535 188.836C129.074 189.5 128.844 190.492 128.844 191.812ZM139.133 191.543C139.133 190.285 139.375 189.164 139.859 188.18C140.344 187.195 141.039 186.434 141.945 185.895C142.859 185.355 143.918 185.086 145.121 185.086C146.832 185.086 148.227 185.609 149.305 186.656C150.391 187.703 150.996 189.125 151.121 190.922L151.145 191.789C151.145 193.734 150.602 195.297 149.516 196.477C148.43 197.648 146.973 198.234 145.145 198.234C143.316 198.234 141.855 197.648 140.762 196.477C139.676 195.305 139.133 193.711 139.133 191.695V191.543ZM142.52 191.789C142.52 192.992 142.746 193.914 143.199 194.555C143.652 195.188 144.301 195.504 145.145 195.504C145.965 195.504 146.605 195.191 147.066 194.566C147.527 193.934 147.758 192.926 147.758 191.543C147.758 190.363 147.527 189.449 147.066 188.801C146.605 188.152 145.957 187.828 145.121 187.828C144.293 187.828 143.652 188.152 143.199 188.801C142.746 189.441 142.52 190.438 142.52 191.789Z" fill="black"/>
<rect x="216.5" y="450.5" width="599" height="34" fill="white" stroke="black"/>
<rect x="216.5" y="520.5" width="599" height="34" fill="white" stroke="black"/>
<path d="M32.1094 469.488C31.9336 470.992 31.377 472.154 30.4395 472.975C29.5085 473.788 28.2682 474.195 26.7188 474.195C25.0391 474.195 23.6914 473.593 22.6758 472.389C21.6667 471.184 21.1621 469.573 21.1621 467.555V466.188C21.1621 464.866 21.3965 463.704 21.8652 462.701C22.3405 461.699 23.0111 460.93 23.877 460.396C24.7428 459.856 25.7454 459.586 26.8848 459.586C28.3952 459.586 29.6061 460.009 30.5176 460.855C31.429 461.695 31.9596 462.861 32.1094 464.352H30.2246C30.0618 463.219 29.707 462.398 29.1602 461.891C28.6198 461.383 27.8613 461.129 26.8848 461.129C25.6868 461.129 24.7461 461.572 24.0625 462.457C23.3854 463.342 23.0469 464.602 23.0469 466.236V467.613C23.0469 469.156 23.3691 470.383 24.0137 471.295C24.6582 472.206 25.5599 472.662 26.7188 472.662C27.7604 472.662 28.5579 472.428 29.1113 471.959C29.6712 471.484 30.0423 470.66 30.2246 469.488H32.1094ZM40.918 474C40.8138 473.792 40.7292 473.421 40.6641 472.887C39.8242 473.759 38.8216 474.195 37.6562 474.195C36.6146 474.195 35.7585 473.902 35.0879 473.316C34.4238 472.724 34.0918 471.975 34.0918 471.07C34.0918 469.97 34.5085 469.117 35.3418 468.512C36.1816 467.9 37.36 467.594 38.877 467.594H40.6348V466.764C40.6348 466.132 40.446 465.631 40.0684 465.26C39.6908 464.882 39.1341 464.693 38.3984 464.693C37.7539 464.693 37.2135 464.856 36.7773 465.182C36.3411 465.507 36.123 465.901 36.123 466.363H34.3066C34.3066 465.836 34.4922 465.328 34.8633 464.84C35.2409 464.345 35.7487 463.954 36.3867 463.668C37.0312 463.382 37.7376 463.238 38.5059 463.238C39.7233 463.238 40.6771 463.544 41.3672 464.156C42.0573 464.762 42.4154 465.598 42.4414 466.666V471.529C42.4414 472.499 42.5651 473.271 42.8125 473.844V474H40.918ZM37.9199 472.623C38.4863 472.623 39.0234 472.477 39.5312 472.184C40.0391 471.891 40.4069 471.51 40.6348 471.041V468.873H39.2188C37.0052 468.873 35.8984 469.521 35.8984 470.816C35.8984 471.383 36.0872 471.826 36.4648 472.145C36.8424 472.464 37.3275 472.623 37.9199 472.623ZM46.9824 463.434L47.041 464.762C47.8483 463.746 48.903 463.238 50.2051 463.238C52.4382 463.238 53.5645 464.498 53.584 467.018V474H51.7773V467.008C51.7708 466.246 51.5951 465.683 51.25 465.318C50.9115 464.954 50.3809 464.771 49.6582 464.771C49.0723 464.771 48.5579 464.928 48.1152 465.24C47.6725 465.553 47.3275 465.963 47.0801 466.471V474H45.2734V463.434H46.9824ZM58.7598 460.875V463.434H60.7324V464.83H58.7598V471.383C58.7598 471.806 58.8477 472.125 59.0234 472.34C59.1992 472.548 59.4987 472.652 59.9219 472.652C60.1302 472.652 60.4167 472.613 60.7812 472.535V474C60.306 474.13 59.8438 474.195 59.3945 474.195C58.5872 474.195 57.9785 473.951 57.5684 473.463C57.1582 472.975 56.9531 472.281 56.9531 471.383V464.83H55.0293V463.434H56.9531V460.875H58.7598ZM64.8145 474H63.0078V463.434H64.8145V474ZM62.8613 460.631C62.8613 460.338 62.9492 460.09 63.125 459.889C63.3073 459.687 63.5742 459.586 63.9258 459.586C64.2773 459.586 64.5443 459.687 64.7266 459.889C64.9089 460.09 65 460.338 65 460.631C65 460.924 64.9089 461.168 64.7266 461.363C64.5443 461.559 64.2773 461.656 63.9258 461.656C63.5742 461.656 63.3073 461.559 63.125 461.363C62.9492 461.168 62.8613 460.924 62.8613 460.631ZM67.2754 468.629C67.2754 467.008 67.6595 465.706 68.4277 464.723C69.196 463.733 70.2018 463.238 71.4453 463.238C72.6823 463.238 73.6621 463.661 74.3848 464.508V459H76.1914V474H74.5312L74.4434 472.867C73.7207 473.753 72.7148 474.195 71.4258 474.195C70.2018 474.195 69.2025 473.694 68.4277 472.691C67.6595 471.689 67.2754 470.38 67.2754 468.766V468.629ZM69.082 468.834C69.082 470.032 69.3294 470.969 69.8242 471.646C70.319 472.324 71.0026 472.662 71.875 472.662C73.0208 472.662 73.8574 472.148 74.3848 471.119V466.266C73.8444 465.27 73.0143 464.771 71.8945 464.771C71.0091 464.771 70.319 465.113 69.8242 465.797C69.3294 466.48 69.082 467.493 69.082 468.834ZM85.5273 474C85.4232 473.792 85.3385 473.421 85.2734 472.887C84.4336 473.759 83.431 474.195 82.2656 474.195C81.224 474.195 80.3678 473.902 79.6973 473.316C79.0332 472.724 78.7012 471.975 78.7012 471.07C78.7012 469.97 79.1178 469.117 79.9512 468.512C80.791 467.9 81.9694 467.594 83.4863 467.594H85.2441V466.764C85.2441 466.132 85.0553 465.631 84.6777 465.26C84.3001 464.882 83.7435 464.693 83.0078 464.693C82.3633 464.693 81.8229 464.856 81.3867 465.182C80.9505 465.507 80.7324 465.901 80.7324 466.363H78.916C78.916 465.836 79.1016 465.328 79.4727 464.84C79.8503 464.345 80.3581 463.954 80.9961 463.668C81.6406 463.382 82.347 463.238 83.1152 463.238C84.3327 463.238 85.2865 463.544 85.9766 464.156C86.6667 464.762 87.0247 465.598 87.0508 466.666V471.529C87.0508 472.499 87.1745 473.271 87.4219 473.844V474H85.5273ZM82.5293 472.623C83.0957 472.623 83.6328 472.477 84.1406 472.184C84.6484 471.891 85.0163 471.51 85.2441 471.041V468.873H83.8281C81.6146 468.873 80.5078 469.521 80.5078 470.816C80.5078 471.383 80.6966 471.826 81.0742 472.145C81.4518 472.464 81.9368 472.623 82.5293 472.623ZM89.4434 468.629C89.4434 467.008 89.8275 465.706 90.5957 464.723C91.3639 463.733 92.3698 463.238 93.6133 463.238C94.8503 463.238 95.8301 463.661 96.5527 464.508V459H98.3594V474H96.6992L96.6113 472.867C95.8887 473.753 94.8828 474.195 93.5938 474.195C92.3698 474.195 91.3704 473.694 90.5957 472.691C89.8275 471.689 89.4434 470.38 89.4434 468.766V468.629ZM91.25 468.834C91.25 470.032 91.4974 470.969 91.9922 471.646C92.487 472.324 93.1706 472.662 94.043 472.662C95.1888 472.662 96.0254 472.148 96.5527 471.119V466.266C96.0124 465.27 95.1823 464.771 94.0625 464.771C93.1771 464.771 92.487 465.113 91.9922 465.797C91.4974 466.48 91.25 467.493 91.25 468.834ZM112.373 459.781H114.258V469.85C114.258 471.21 113.848 472.275 113.027 473.043C112.214 473.811 111.126 474.195 109.766 474.195C108.353 474.195 107.253 473.834 106.465 473.111C105.677 472.389 105.283 471.376 105.283 470.074H107.158C107.158 470.888 107.38 471.523 107.822 471.979C108.271 472.434 108.919 472.662 109.766 472.662C110.54 472.662 111.165 472.418 111.641 471.93C112.122 471.441 112.367 470.758 112.373 469.879V459.781ZM123.691 472.955C122.988 473.782 121.956 474.195 120.596 474.195C119.469 474.195 118.61 473.87 118.018 473.219C117.432 472.561 117.135 471.591 117.129 470.309V463.434H118.936V470.26C118.936 471.861 119.587 472.662 120.889 472.662C122.269 472.662 123.187 472.148 123.643 471.119V463.434H125.449V474H123.73L123.691 472.955ZM127.773 468.629C127.773 466.982 128.154 465.673 128.916 464.703C129.678 463.727 130.687 463.238 131.943 463.238C133.232 463.238 134.238 463.694 134.961 464.605L135.049 463.434H136.699V473.746C136.699 475.113 136.292 476.191 135.479 476.979C134.671 477.766 133.584 478.16 132.217 478.16C131.455 478.16 130.71 477.997 129.98 477.672C129.251 477.346 128.695 476.9 128.311 476.334L129.248 475.25C130.023 476.207 130.97 476.686 132.09 476.686C132.969 476.686 133.652 476.438 134.141 475.943C134.635 475.449 134.883 474.752 134.883 473.854V472.945C134.16 473.779 133.174 474.195 131.924 474.195C130.687 474.195 129.684 473.697 128.916 472.701C128.154 471.705 127.773 470.348 127.773 468.629ZM129.59 468.834C129.59 470.025 129.834 470.963 130.322 471.646C130.811 472.324 131.494 472.662 132.373 472.662C133.512 472.662 134.349 472.145 134.883 471.109V466.285C134.329 465.276 133.499 464.771 132.393 464.771C131.514 464.771 130.827 465.113 130.332 465.797C129.837 466.48 129.59 467.493 129.59 468.834ZM145.957 474C145.853 473.792 145.768 473.421 145.703 472.887C144.863 473.759 143.861 474.195 142.695 474.195C141.654 474.195 140.798 473.902 140.127 473.316C139.463 472.724 139.131 471.975 139.131 471.07C139.131 469.97 139.548 469.117 140.381 468.512C141.221 467.9 142.399 467.594 143.916 467.594H145.674V466.764C145.674 466.132 145.485 465.631 145.107 465.26C144.73 464.882 144.173 464.693 143.438 464.693C142.793 464.693 142.253 464.856 141.816 465.182C141.38 465.507 141.162 465.901 141.162 466.363H139.346C139.346 465.836 139.531 465.328 139.902 464.84C140.28 464.345 140.788 463.954 141.426 463.668C142.07 463.382 142.777 463.238 143.545 463.238C144.762 463.238 145.716 463.544 146.406 464.156C147.096 464.762 147.454 465.598 147.48 466.666V471.529C147.48 472.499 147.604 473.271 147.852 473.844V474H145.957ZM142.959 472.623C143.525 472.623 144.062 472.477 144.57 472.184C145.078 471.891 145.446 471.51 145.674 471.041V468.873H144.258C142.044 468.873 140.938 469.521 140.938 470.816C140.938 471.383 141.126 471.826 141.504 472.145C141.882 472.464 142.367 472.623 142.959 472.623ZM149.873 468.629C149.873 467.008 150.257 465.706 151.025 464.723C151.794 463.733 152.799 463.238 154.043 463.238C155.28 463.238 156.26 463.661 156.982 464.508V459H158.789V474H157.129L157.041 472.867C156.318 473.753 155.312 474.195 154.023 474.195C152.799 474.195 151.8 473.694 151.025 472.691C150.257 471.689 149.873 470.38 149.873 468.766V468.629ZM151.68 468.834C151.68 470.032 151.927 470.969 152.422 471.646C152.917 472.324 153.6 472.662 154.473 472.662C155.618 472.662 156.455 472.148 156.982 471.119V466.266C156.442 465.27 155.612 464.771 154.492 464.771C153.607 464.771 152.917 465.113 152.422 465.797C151.927 466.48 151.68 467.493 151.68 468.834ZM161.123 468.619C161.123 467.584 161.325 466.653 161.729 465.826C162.139 464.999 162.705 464.361 163.428 463.912C164.157 463.463 164.987 463.238 165.918 463.238C167.357 463.238 168.519 463.736 169.404 464.732C170.296 465.729 170.742 467.053 170.742 468.707V468.834C170.742 469.863 170.544 470.787 170.146 471.607C169.756 472.421 169.193 473.056 168.457 473.512C167.728 473.967 166.888 474.195 165.938 474.195C164.505 474.195 163.343 473.697 162.451 472.701C161.566 471.705 161.123 470.387 161.123 468.746V468.619ZM162.939 468.834C162.939 470.006 163.21 470.947 163.75 471.656C164.297 472.366 165.026 472.721 165.938 472.721C166.855 472.721 167.585 472.363 168.125 471.646C168.665 470.924 168.936 469.915 168.936 468.619C168.936 467.46 168.659 466.523 168.105 465.807C167.559 465.084 166.829 464.723 165.918 464.723C165.026 464.723 164.307 465.077 163.76 465.787C163.213 466.497 162.939 467.512 162.939 468.834ZM178.115 465.055C177.842 465.009 177.546 464.986 177.227 464.986C176.042 464.986 175.238 465.491 174.814 466.5V474H173.008V463.434H174.766L174.795 464.654C175.387 463.71 176.227 463.238 177.314 463.238C177.666 463.238 177.933 463.284 178.115 463.375V465.055ZM183.975 474.195C182.542 474.195 181.377 473.727 180.479 472.789C179.58 471.845 179.131 470.585 179.131 469.01V468.678C179.131 467.63 179.329 466.695 179.727 465.875C180.13 465.048 180.69 464.404 181.406 463.941C182.129 463.473 182.91 463.238 183.75 463.238C185.124 463.238 186.191 463.691 186.953 464.596C187.715 465.501 188.096 466.796 188.096 468.482V469.234H180.938C180.964 470.276 181.266 471.119 181.846 471.764C182.432 472.402 183.174 472.721 184.072 472.721C184.71 472.721 185.251 472.59 185.693 472.33C186.136 472.07 186.523 471.725 186.855 471.295L187.959 472.154C187.074 473.515 185.745 474.195 183.975 474.195ZM183.75 464.723C183.021 464.723 182.409 464.99 181.914 465.523C181.419 466.051 181.113 466.793 180.996 467.75H186.289V467.613C186.237 466.695 185.99 465.986 185.547 465.484C185.104 464.977 184.505 464.723 183.75 464.723ZM196.348 471.197C196.348 470.709 196.162 470.331 195.791 470.064C195.426 469.791 194.785 469.557 193.867 469.361C192.956 469.166 192.23 468.932 191.689 468.658C191.156 468.385 190.758 468.059 190.498 467.682C190.244 467.304 190.117 466.855 190.117 466.334C190.117 465.468 190.482 464.736 191.211 464.137C191.947 463.538 192.884 463.238 194.023 463.238C195.221 463.238 196.191 463.548 196.934 464.166C197.682 464.785 198.057 465.576 198.057 466.539H196.24C196.24 466.044 196.029 465.618 195.605 465.26C195.189 464.902 194.661 464.723 194.023 464.723C193.366 464.723 192.852 464.866 192.48 465.152C192.109 465.439 191.924 465.813 191.924 466.275C191.924 466.712 192.096 467.04 192.441 467.262C192.786 467.483 193.408 467.695 194.307 467.896C195.212 468.098 195.944 468.339 196.504 468.619C197.064 468.899 197.477 469.238 197.744 469.635C198.018 470.025 198.154 470.504 198.154 471.07C198.154 472.014 197.777 472.773 197.021 473.346C196.266 473.912 195.286 474.195 194.082 474.195C193.236 474.195 192.487 474.046 191.836 473.746C191.185 473.447 190.674 473.03 190.303 472.496C189.938 471.956 189.756 471.373 189.756 470.748H191.562C191.595 471.354 191.836 471.835 192.285 472.193C192.741 472.545 193.34 472.721 194.082 472.721C194.766 472.721 195.312 472.584 195.723 472.311C196.139 472.031 196.348 471.66 196.348 471.197ZM200.449 473.053C200.449 472.74 200.54 472.48 200.723 472.271C200.911 472.063 201.191 471.959 201.562 471.959C201.934 471.959 202.214 472.063 202.402 472.271C202.598 472.48 202.695 472.74 202.695 473.053C202.695 473.352 202.598 473.603 202.402 473.805C202.214 474.007 201.934 474.107 201.562 474.107C201.191 474.107 200.911 474.007 200.723 473.805C200.54 473.603 200.449 473.352 200.449 473.053ZM200.459 464.43C200.459 464.117 200.55 463.857 200.732 463.648C200.921 463.44 201.201 463.336 201.572 463.336C201.943 463.336 202.223 463.44 202.412 463.648C202.607 463.857 202.705 464.117 202.705 464.43C202.705 464.729 202.607 464.98 202.412 465.182C202.223 465.383 201.943 465.484 201.572 465.484C201.201 465.484 200.921 465.383 200.732 465.182C200.55 464.98 200.459 464.729 200.459 464.43Z" fill="black"/>
<path d="M37.4746 525.324H32.9043V538H31.0391V525.324H26.4785V523.781H37.4746V525.324ZM44.7109 538C44.6068 537.792 44.5221 537.421 44.457 536.887C43.6172 537.759 42.6146 538.195 41.4492 538.195C40.4076 538.195 39.5514 537.902 38.8809 537.316C38.2168 536.724 37.8848 535.975 37.8848 535.07C37.8848 533.97 38.3014 533.117 39.1348 532.512C39.9746 531.9 41.153 531.594 42.6699 531.594H44.4277V530.764C44.4277 530.132 44.2389 529.631 43.8613 529.26C43.4837 528.882 42.9271 528.693 42.1914 528.693C41.5469 528.693 41.0065 528.856 40.5703 529.182C40.1341 529.507 39.916 529.901 39.916 530.363H38.0996C38.0996 529.836 38.2852 529.328 38.6562 528.84C39.0339 528.345 39.5417 527.954 40.1797 527.668C40.8242 527.382 41.5306 527.238 42.2988 527.238C43.5163 527.238 44.4701 527.544 45.1602 528.156C45.8503 528.762 46.2083 529.598 46.2344 530.666V535.529C46.2344 536.499 46.3581 537.271 46.6055 537.844V538H44.7109ZM41.7129 536.623C42.2793 536.623 42.8164 536.477 43.3242 536.184C43.832 535.891 44.1999 535.51 44.4277 535.041V532.873H43.0117C40.7982 532.873 39.6914 533.521 39.6914 534.816C39.6914 535.383 39.8802 535.826 40.2578 536.145C40.6354 536.464 41.1204 536.623 41.7129 536.623ZM50.7656 527.434L50.8145 528.605C51.5892 527.694 52.6341 527.238 53.9492 527.238C55.4271 527.238 56.4329 527.805 56.9668 528.938C57.3184 528.43 57.7741 528.02 58.334 527.707C58.9004 527.395 59.5677 527.238 60.3359 527.238C62.6536 527.238 63.832 528.465 63.8711 530.92V538H62.0645V531.027C62.0645 530.272 61.8919 529.709 61.5469 529.338C61.2018 528.96 60.6224 528.771 59.8086 528.771C59.138 528.771 58.5814 528.973 58.1387 529.377C57.696 529.774 57.4388 530.311 57.3672 530.988V538H55.5508V531.076C55.5508 529.54 54.7988 528.771 53.2949 528.771C52.11 528.771 51.2995 529.276 50.8633 530.285V538H49.0566V527.434H50.7656ZM73.1289 538C73.0247 537.792 72.9401 537.421 72.875 536.887C72.0352 537.759 71.0326 538.195 69.8672 538.195C68.8255 538.195 67.9694 537.902 67.2988 537.316C66.6348 536.724 66.3027 535.975 66.3027 535.07C66.3027 533.97 66.7194 533.117 67.5527 532.512C68.3926 531.9 69.571 531.594 71.0879 531.594H72.8457V530.764C72.8457 530.132 72.6569 529.631 72.2793 529.26C71.9017 528.882 71.3451 528.693 70.6094 528.693C69.9648 528.693 69.4245 528.856 68.9883 529.182C68.5521 529.507 68.334 529.901 68.334 530.363H66.5176C66.5176 529.836 66.7031 529.328 67.0742 528.84C67.4518 528.345 67.9596 527.954 68.5977 527.668C69.2422 527.382 69.9486 527.238 70.7168 527.238C71.9342 527.238 72.888 527.544 73.5781 528.156C74.2682 528.762 74.6263 529.598 74.6523 530.666V535.529C74.6523 536.499 74.776 537.271 75.0234 537.844V538H73.1289ZM70.1309 536.623C70.6973 536.623 71.2344 536.477 71.7422 536.184C72.25 535.891 72.6178 535.51 72.8457 535.041V532.873H71.4297C69.2161 532.873 68.1094 533.521 68.1094 534.816C68.1094 535.383 68.2982 535.826 68.6758 536.145C69.0534 536.464 69.5384 536.623 70.1309 536.623ZM79.1934 527.434L79.252 528.762C80.0592 527.746 81.1139 527.238 82.416 527.238C84.6491 527.238 85.7754 528.498 85.7949 531.018V538H83.9883V531.008C83.9818 530.246 83.806 529.683 83.4609 529.318C83.1224 528.954 82.5918 528.771 81.8691 528.771C81.2832 528.771 80.7689 528.928 80.3262 529.24C79.8835 529.553 79.5384 529.963 79.291 530.471V538H77.4844V527.434H79.1934ZM85.1699 523.312C85.1699 524.016 84.9681 524.585 84.5645 525.021C84.1673 525.458 83.6693 525.676 83.0703 525.676C82.8034 525.676 82.5723 525.643 82.377 525.578C82.1816 525.513 81.9245 525.38 81.6055 525.178C81.293 524.976 81.0651 524.855 80.9219 524.816C80.7852 524.771 80.6257 524.748 80.4434 524.748C80.1764 524.748 79.9486 524.852 79.7598 525.061C79.571 525.262 79.4766 525.523 79.4766 525.842L78.2656 525.773C78.2656 525.077 78.4609 524.501 78.8516 524.045C79.2487 523.589 79.75 523.361 80.3555 523.361C80.5833 523.361 80.7884 523.394 80.9707 523.459C81.153 523.524 81.4004 523.651 81.7129 523.84C82.0254 524.029 82.263 524.152 82.4258 524.211C82.5951 524.27 82.7806 524.299 82.9824 524.299C83.2624 524.299 83.4935 524.188 83.6758 523.967C83.8646 523.745 83.959 523.488 83.959 523.195L85.1699 523.312ZM88.041 532.619C88.041 531.584 88.2428 530.653 88.6465 529.826C89.0566 528.999 89.623 528.361 90.3457 527.912C91.0749 527.463 91.9049 527.238 92.8359 527.238C94.2747 527.238 95.4368 527.736 96.3223 528.732C97.2142 529.729 97.6602 531.053 97.6602 532.707V532.834C97.6602 533.863 97.4616 534.787 97.0645 535.607C96.6738 536.421 96.1107 537.056 95.375 537.512C94.6458 537.967 93.806 538.195 92.8555 538.195C91.4232 538.195 90.2611 537.697 89.3691 536.701C88.4837 535.705 88.041 534.387 88.041 532.746V532.619ZM89.8574 532.834C89.8574 534.006 90.1276 534.947 90.668 535.656C91.2148 536.366 91.944 536.721 92.8555 536.721C93.7734 536.721 94.5026 536.363 95.043 535.646C95.5833 534.924 95.8535 533.915 95.8535 532.619C95.8535 531.46 95.5768 530.523 95.0234 529.807C94.4766 529.084 93.7474 528.723 92.8359 528.723C91.944 528.723 91.2246 529.077 90.6777 529.787C90.1309 530.497 89.8574 531.512 89.8574 532.834ZM114.604 525.324H110.033V538H108.168V525.324H103.607V523.781H114.604V525.324ZM121.84 538C121.736 537.792 121.651 537.421 121.586 536.887C120.746 537.759 119.743 538.195 118.578 538.195C117.536 538.195 116.68 537.902 116.01 537.316C115.346 536.724 115.014 535.975 115.014 535.07C115.014 533.97 115.43 533.117 116.264 532.512C117.104 531.9 118.282 531.594 119.799 531.594H121.557V530.764C121.557 530.132 121.368 529.631 120.99 529.26C120.613 528.882 120.056 528.693 119.32 528.693C118.676 528.693 118.135 528.856 117.699 529.182C117.263 529.507 117.045 529.901 117.045 530.363H115.229C115.229 529.836 115.414 529.328 115.785 528.84C116.163 528.345 116.671 527.954 117.309 527.668C117.953 527.382 118.66 527.238 119.428 527.238C120.645 527.238 121.599 527.544 122.289 528.156C122.979 528.762 123.337 529.598 123.363 530.666V535.529C123.363 536.499 123.487 537.271 123.734 537.844V538H121.84ZM118.842 536.623C119.408 536.623 119.945 536.477 120.453 536.184C120.961 535.891 121.329 535.51 121.557 535.041V532.873H120.141C117.927 532.873 116.82 533.521 116.82 534.816C116.82 535.383 117.009 535.826 117.387 536.145C117.764 536.464 118.249 536.623 118.842 536.623ZM135.141 532.834C135.141 534.449 134.77 535.747 134.027 536.73C133.285 537.707 132.289 538.195 131.039 538.195C129.704 538.195 128.673 537.723 127.943 536.779L127.855 538H126.195V523H128.002V528.596C128.731 527.691 129.737 527.238 131.02 527.238C132.302 527.238 133.308 527.723 134.037 528.693C134.773 529.663 135.141 530.992 135.141 532.678V532.834ZM133.334 532.629C133.334 531.398 133.096 530.448 132.621 529.777C132.146 529.107 131.462 528.771 130.57 528.771C129.379 528.771 128.523 529.325 128.002 530.432V535.002C128.555 536.109 129.418 536.662 130.59 536.662C131.456 536.662 132.13 536.327 132.611 535.656C133.093 534.986 133.334 533.977 133.334 532.629ZM139.389 538H137.582V523H139.389V538ZM146.674 538.195C145.242 538.195 144.076 537.727 143.178 536.789C142.279 535.845 141.83 534.585 141.83 533.01V532.678C141.83 531.63 142.029 530.695 142.426 529.875C142.829 529.048 143.389 528.404 144.105 527.941C144.828 527.473 145.609 527.238 146.449 527.238C147.823 527.238 148.891 527.691 149.652 528.596C150.414 529.501 150.795 530.796 150.795 532.482V533.234H143.637C143.663 534.276 143.965 535.119 144.545 535.764C145.131 536.402 145.873 536.721 146.771 536.721C147.41 536.721 147.95 536.59 148.393 536.33C148.835 536.07 149.223 535.725 149.555 535.295L150.658 536.154C149.773 537.515 148.445 538.195 146.674 538.195ZM146.449 528.723C145.72 528.723 145.108 528.99 144.613 529.523C144.118 530.051 143.812 530.793 143.695 531.75H148.988V531.613C148.936 530.695 148.689 529.986 148.246 529.484C147.803 528.977 147.204 528.723 146.449 528.723ZM158.002 529.055C157.729 529.009 157.432 528.986 157.113 528.986C155.928 528.986 155.124 529.491 154.701 530.5V538H152.895V527.434H154.652L154.682 528.654C155.274 527.71 156.114 527.238 157.201 527.238C157.553 527.238 157.82 527.284 158.002 527.375V529.055ZM158.998 532.619C158.998 531.584 159.2 530.653 159.604 529.826C160.014 528.999 160.58 528.361 161.303 527.912C162.032 527.463 162.862 527.238 163.793 527.238C165.232 527.238 166.394 527.736 167.279 528.732C168.171 529.729 168.617 531.053 168.617 532.707V532.834C168.617 533.863 168.419 534.787 168.021 535.607C167.631 536.421 167.068 537.056 166.332 537.512C165.603 537.967 164.763 538.195 163.812 538.195C162.38 538.195 161.218 537.697 160.326 536.701C159.441 535.705 158.998 534.387 158.998 532.746V532.619ZM160.814 532.834C160.814 534.006 161.085 534.947 161.625 535.656C162.172 536.366 162.901 536.721 163.812 536.721C164.73 536.721 165.46 536.363 166 535.646C166.54 534.924 166.811 533.915 166.811 532.619C166.811 531.46 166.534 530.523 165.98 529.807C165.434 529.084 164.704 528.723 163.793 528.723C162.901 528.723 162.182 529.077 161.635 529.787C161.088 530.497 160.814 531.512 160.814 532.834ZM170.824 537.053C170.824 536.74 170.915 536.48 171.098 536.271C171.286 536.063 171.566 535.959 171.938 535.959C172.309 535.959 172.589 536.063 172.777 536.271C172.973 536.48 173.07 536.74 173.07 537.053C173.07 537.352 172.973 537.603 172.777 537.805C172.589 538.007 172.309 538.107 171.938 538.107C171.566 538.107 171.286 538.007 171.098 537.805C170.915 537.603 170.824 537.352 170.824 537.053ZM170.834 528.43C170.834 528.117 170.925 527.857 171.107 527.648C171.296 527.44 171.576 527.336 171.947 527.336C172.318 527.336 172.598 527.44 172.787 527.648C172.982 527.857 173.08 528.117 173.08 528.43C173.08 528.729 172.982 528.98 172.787 529.182C172.598 529.383 172.318 529.484 171.947 529.484C171.576 529.484 171.296 529.383 171.107 529.182C170.925 528.98 170.834 528.729 170.834 528.43Z" fill="black"/>
<path d="M233.688 288.428H227.525V293.467H234.684V295H225.65V280.781H234.586V282.324H227.525V286.895H233.688V288.428ZM236.1 289.629C236.1 288.008 236.484 286.706 237.252 285.723C238.02 284.733 239.026 284.238 240.27 284.238C241.507 284.238 242.486 284.661 243.209 285.508V280H245.016V295H243.355L243.268 293.867C242.545 294.753 241.539 295.195 240.25 295.195C239.026 295.195 238.027 294.694 237.252 293.691C236.484 292.689 236.1 291.38 236.1 289.766V289.629ZM237.906 289.834C237.906 291.032 238.154 291.969 238.648 292.646C239.143 293.324 239.827 293.662 240.699 293.662C241.845 293.662 242.682 293.148 243.209 292.119V287.266C242.669 286.27 241.839 285.771 240.719 285.771C239.833 285.771 239.143 286.113 238.648 286.797C238.154 287.48 237.906 288.493 237.906 289.834ZM247.398 289.629C247.398 287.982 247.779 286.673 248.541 285.703C249.303 284.727 250.312 284.238 251.568 284.238C252.857 284.238 253.863 284.694 254.586 285.605L254.674 284.434H256.324V294.746C256.324 296.113 255.917 297.191 255.104 297.979C254.296 298.766 253.209 299.16 251.842 299.16C251.08 299.16 250.335 298.997 249.605 298.672C248.876 298.346 248.32 297.9 247.936 297.334L248.873 296.25C249.648 297.207 250.595 297.686 251.715 297.686C252.594 297.686 253.277 297.438 253.766 296.943C254.26 296.449 254.508 295.752 254.508 294.854V293.945C253.785 294.779 252.799 295.195 251.549 295.195C250.312 295.195 249.309 294.697 248.541 293.701C247.779 292.705 247.398 291.348 247.398 289.629ZM249.215 289.834C249.215 291.025 249.459 291.963 249.947 292.646C250.436 293.324 251.119 293.662 251.998 293.662C253.137 293.662 253.974 293.145 254.508 292.109V287.285C253.954 286.276 253.124 285.771 252.018 285.771C251.139 285.771 250.452 286.113 249.957 286.797C249.462 287.48 249.215 288.493 249.215 289.834ZM265.582 295C265.478 294.792 265.393 294.421 265.328 293.887C264.488 294.759 263.486 295.195 262.32 295.195C261.279 295.195 260.423 294.902 259.752 294.316C259.088 293.724 258.756 292.975 258.756 292.07C258.756 290.97 259.173 290.117 260.006 289.512C260.846 288.9 262.024 288.594 263.541 288.594H265.299V287.764C265.299 287.132 265.11 286.631 264.732 286.26C264.355 285.882 263.798 285.693 263.062 285.693C262.418 285.693 261.878 285.856 261.441 286.182C261.005 286.507 260.787 286.901 260.787 287.363H258.971C258.971 286.836 259.156 286.328 259.527 285.84C259.905 285.345 260.413 284.954 261.051 284.668C261.695 284.382 262.402 284.238 263.17 284.238C264.387 284.238 265.341 284.544 266.031 285.156C266.721 285.762 267.079 286.598 267.105 287.666V292.529C267.105 293.499 267.229 294.271 267.477 294.844V295H265.582ZM262.584 293.623C263.15 293.623 263.688 293.477 264.195 293.184C264.703 292.891 265.071 292.51 265.299 292.041V289.873H263.883C261.669 289.873 260.562 290.521 260.562 291.816C260.562 292.383 260.751 292.826 261.129 293.145C261.507 293.464 261.992 293.623 262.584 293.623ZM275.045 286.055C274.771 286.009 274.475 285.986 274.156 285.986C272.971 285.986 272.167 286.491 271.744 287.5V295H269.938V284.434H271.695L271.725 285.654C272.317 284.71 273.157 284.238 274.244 284.238C274.596 284.238 274.863 284.284 275.045 284.375V286.055ZM286.148 288.662C284.54 288.2 283.368 287.633 282.633 286.963C281.904 286.286 281.539 285.452 281.539 284.463C281.539 283.343 281.985 282.419 282.877 281.689C283.775 280.954 284.941 280.586 286.373 280.586C287.35 280.586 288.219 280.775 288.98 281.152C289.749 281.53 290.341 282.051 290.758 282.715C291.181 283.379 291.393 284.105 291.393 284.893H289.508C289.508 284.033 289.234 283.359 288.688 282.871C288.141 282.376 287.369 282.129 286.373 282.129C285.449 282.129 284.726 282.334 284.205 282.744C283.691 283.148 283.434 283.711 283.434 284.434C283.434 285.013 283.678 285.505 284.166 285.908C284.661 286.305 285.497 286.67 286.676 287.002C287.861 287.334 288.785 287.702 289.449 288.105C290.12 288.503 290.615 288.968 290.934 289.502C291.259 290.036 291.422 290.664 291.422 291.387C291.422 292.539 290.973 293.464 290.074 294.16C289.176 294.85 287.975 295.195 286.471 295.195C285.494 295.195 284.583 295.01 283.736 294.639C282.89 294.261 282.236 293.747 281.773 293.096C281.318 292.445 281.09 291.706 281.09 290.879H282.975C282.975 291.738 283.29 292.419 283.922 292.92C284.56 293.415 285.41 293.662 286.471 293.662C287.46 293.662 288.219 293.46 288.746 293.057C289.273 292.653 289.537 292.103 289.537 291.406C289.537 290.71 289.293 290.173 288.805 289.795C288.316 289.411 287.431 289.033 286.148 288.662ZM295.514 295H293.707V284.434H295.514V295ZM293.561 281.631C293.561 281.338 293.648 281.09 293.824 280.889C294.007 280.687 294.273 280.586 294.625 280.586C294.977 280.586 295.243 280.687 295.426 280.889C295.608 281.09 295.699 281.338 295.699 281.631C295.699 281.924 295.608 282.168 295.426 282.363C295.243 282.559 294.977 282.656 294.625 282.656C294.273 282.656 294.007 282.559 293.824 282.363C293.648 282.168 293.561 281.924 293.561 281.631ZM300.377 295H298.57V280H300.377V295ZM306.764 292.549L309.381 284.434H311.227L307.438 295H306.061L302.232 284.434H304.078L306.764 292.549ZM319.332 295C319.228 294.792 319.143 294.421 319.078 293.887C318.238 294.759 317.236 295.195 316.07 295.195C315.029 295.195 314.173 294.902 313.502 294.316C312.838 293.724 312.506 292.975 312.506 292.07C312.506 290.97 312.923 290.117 313.756 289.512C314.596 288.9 315.774 288.594 317.291 288.594H319.049V287.764C319.049 287.132 318.86 286.631 318.482 286.26C318.105 285.882 317.548 285.693 316.812 285.693C316.168 285.693 315.628 285.856 315.191 286.182C314.755 286.507 314.537 286.901 314.537 287.363H312.721C312.721 286.836 312.906 286.328 313.277 285.84C313.655 285.345 314.163 284.954 314.801 284.668C315.445 284.382 316.152 284.238 316.92 284.238C318.137 284.238 319.091 284.544 319.781 285.156C320.471 285.762 320.829 286.598 320.855 287.666V292.529C320.855 293.499 320.979 294.271 321.227 294.844V295H319.332ZM316.334 293.623C316.9 293.623 317.438 293.477 317.945 293.184C318.453 292.891 318.821 292.51 319.049 292.041V289.873H317.633C315.419 289.873 314.312 290.521 314.312 291.816C314.312 292.383 314.501 292.826 314.879 293.145C315.257 293.464 315.742 293.623 316.334 293.623Z" fill="black"/>
<path d="M231.119 386H229.303V373.959L225.66 375.297V373.656L230.836 371.713H231.119V386ZM245.328 379.936C245.328 382.051 244.967 383.624 244.244 384.652C243.521 385.681 242.392 386.195 240.855 386.195C239.339 386.195 238.215 385.694 237.486 384.691C236.757 383.682 236.38 382.178 236.354 380.18V377.768C236.354 375.678 236.715 374.125 237.438 373.109C238.16 372.094 239.293 371.586 240.836 371.586C242.366 371.586 243.492 372.077 244.215 373.061C244.938 374.037 245.309 375.548 245.328 377.592V379.936ZM243.521 377.465C243.521 375.935 243.307 374.822 242.877 374.125C242.447 373.422 241.767 373.07 240.836 373.07C239.911 373.07 239.238 373.419 238.814 374.115C238.391 374.812 238.173 375.883 238.16 377.328V380.219C238.16 381.755 238.382 382.891 238.824 383.627C239.273 384.356 239.951 384.721 240.855 384.721C241.747 384.721 242.408 384.376 242.838 383.686C243.274 382.995 243.502 381.908 243.521 380.424V377.465Z" fill="black"/>
<path d="M223.012 538.871L223.734 531.781H231.02V533.451H225.268L224.838 537.328C225.535 536.918 226.326 536.713 227.211 536.713C228.507 536.713 229.535 537.143 230.297 538.002C231.059 538.855 231.439 540.01 231.439 541.469C231.439 542.934 231.042 544.089 230.248 544.936C229.46 545.775 228.357 546.195 226.938 546.195C225.681 546.195 224.656 545.847 223.861 545.15C223.067 544.454 222.615 543.49 222.504 542.26H224.213C224.324 543.074 224.613 543.689 225.082 544.105C225.551 544.516 226.169 544.721 226.938 544.721C227.777 544.721 228.435 544.434 228.91 543.861C229.392 543.288 229.633 542.497 229.633 541.488C229.633 540.538 229.372 539.776 228.852 539.203C228.337 538.624 227.65 538.334 226.791 538.334C226.003 538.334 225.385 538.507 224.936 538.852L224.457 539.242L223.012 538.871ZM237.143 539.291L239.486 535.434H241.596L238.139 540.658L241.703 546H239.613L237.172 542.045L234.73 546H232.631L236.195 540.658L232.738 535.434H234.828L237.143 539.291ZM244.164 538.871L244.887 531.781H252.172V533.451H246.42L245.99 537.328C246.687 536.918 247.478 536.713 248.363 536.713C249.659 536.713 250.688 537.143 251.449 538.002C252.211 538.855 252.592 540.01 252.592 541.469C252.592 542.934 252.195 544.089 251.4 544.936C250.613 545.775 249.509 546.195 248.09 546.195C246.833 546.195 245.808 545.847 245.014 545.15C244.219 544.454 243.767 543.49 243.656 542.26H245.365C245.476 543.074 245.766 543.689 246.234 544.105C246.703 544.516 247.322 544.721 248.09 544.721C248.93 544.721 249.587 544.434 250.062 543.861C250.544 543.288 250.785 542.497 250.785 541.488C250.785 540.538 250.525 539.776 250.004 539.203C249.49 538.624 248.803 538.334 247.943 538.334C247.156 538.334 246.537 538.507 246.088 538.852L245.609 539.242L244.164 538.871Z" fill="black"/>
<path d="M232.809 471.225H234.781V472.699H232.809V476H230.992V472.699H224.518V471.635L230.885 461.781H232.809V471.225ZM226.568 471.225H230.992V464.252L230.777 464.643L226.568 471.225Z" fill="black"/>
<rect x="1" y="1" width="966" height="726" stroke="#171212" stroke-width="2"/>
</svg>
