<svg width="968" height="728" viewBox="0 0 968 728" fill="none" xmlns="http://www.w3.org/2000/svg">
<rect x="1" y="1" width="966" height="726" fill="white"/>
<path d="M0 656H485V728H0V656Z" fill="white"/>
<path d="M22.4062 709.053C22.4062 708.74 22.4974 708.48 22.6797 708.271C22.8685 708.063 23.1484 707.959 23.5195 707.959C23.8906 707.959 24.1706 708.063 24.3594 708.271C24.5547 708.48 24.6523 708.74 24.6523 709.053C24.6523 709.352 24.5547 709.603 24.3594 709.805C24.1706 710.007 23.8906 710.107 23.5195 710.107C23.1484 710.107 22.8685 710.007 22.6797 709.805C22.4974 709.603 22.4062 709.352 22.4062 709.053Z" fill="black"/>
<path d="M0 82H968V152H0V82Z" fill="#EBFFFE"/>
<path d="M33.8633 120H30.9102V102.938H33.8633V120ZM39.875 107.32L39.957 108.785C40.8945 107.652 42.125 107.086 43.6484 107.086C46.2891 107.086 47.6328 108.598 47.6797 111.621V120H44.832V111.785C44.832 110.98 44.6562 110.387 44.3047 110.004C43.9609 109.613 43.3945 109.418 42.6055 109.418C41.457 109.418 40.6016 109.938 40.0391 110.977V120H37.1914V107.32H39.875ZM53.6211 120H50.7734V107.32H53.6211V120ZM50.5977 104.027C50.5977 103.59 50.7344 103.227 51.0078 102.938C51.2891 102.648 51.6875 102.504 52.2031 102.504C52.7188 102.504 53.1172 102.648 53.3984 102.938C53.6797 103.227 53.8203 103.59 53.8203 104.027C53.8203 104.457 53.6797 104.816 53.3984 105.105C53.1172 105.387 52.7188 105.527 52.2031 105.527C51.6875 105.527 51.2891 105.387 51.0078 105.105C50.7344 104.816 50.5977 104.457 50.5977 104.027ZM61.9414 117.961C62.6523 117.961 63.2422 117.754 63.7109 117.34C64.1797 116.926 64.4297 116.414 64.4609 115.805H67.1445C67.1133 116.594 66.8672 117.332 66.4062 118.02C65.9453 118.699 65.3203 119.238 64.5312 119.637C63.7422 120.035 62.8906 120.234 61.9766 120.234C60.2031 120.234 58.7969 119.66 57.7578 118.512C56.7188 117.363 56.1992 115.777 56.1992 113.754V113.461C56.1992 111.531 56.7148 109.988 57.7461 108.832C58.7773 107.668 60.1836 107.086 61.9648 107.086C63.4727 107.086 64.6992 107.527 65.6445 108.41C66.5977 109.285 67.0977 110.438 67.1445 111.867H64.4609C64.4297 111.141 64.1797 110.543 63.7109 110.074C63.25 109.605 62.6602 109.371 61.9414 109.371C61.0195 109.371 60.3086 109.707 59.8086 110.379C59.3086 111.043 59.0547 112.055 59.0469 113.414V113.871C59.0469 115.246 59.293 116.273 59.7852 116.953C60.2852 117.625 61.0039 117.961 61.9414 117.961ZM72.3242 120H69.4766V107.32H72.3242V120ZM69.3008 104.027C69.3008 103.59 69.4375 103.227 69.7109 102.938C69.9922 102.648 70.3906 102.504 70.9062 102.504C71.4219 102.504 71.8203 102.648 72.1016 102.938C72.3828 103.227 72.5234 103.59 72.5234 104.027C72.5234 104.457 72.3828 104.816 72.1016 105.105C71.8203 105.387 71.4219 105.527 70.9062 105.527C70.3906 105.527 69.9922 105.387 69.7109 105.105C69.4375 104.816 69.3008 104.457 69.3008 104.027ZM74.9023 113.543C74.9023 112.301 75.1484 111.184 75.6406 110.191C76.1328 109.191 76.8242 108.426 77.7148 107.895C78.6055 107.355 79.6289 107.086 80.7852 107.086C82.4961 107.086 83.8828 107.637 84.9453 108.738C86.0156 109.84 86.5938 111.301 86.6797 113.121L86.6914 113.789C86.6914 115.039 86.4492 116.156 85.9648 117.141C85.4883 118.125 84.8008 118.887 83.9023 119.426C83.0117 119.965 81.9805 120.234 80.8086 120.234C79.0195 120.234 77.5859 119.641 76.5078 118.453C75.4375 117.258 74.9023 115.668 74.9023 113.684V113.543ZM77.75 113.789C77.75 115.094 78.0195 116.117 78.5586 116.859C79.0977 117.594 79.8477 117.961 80.8086 117.961C81.7695 117.961 82.5156 117.586 83.0469 116.836C83.5859 116.086 83.8555 114.988 83.8555 113.543C83.8555 112.262 83.5781 111.246 83.0234 110.496C82.4766 109.746 81.7305 109.371 80.7852 109.371C79.8555 109.371 79.1172 109.742 78.5703 110.484C78.0234 111.219 77.75 112.32 77.75 113.789Z" fill="black"/>
<path d="M151.863 120H148.91V102.938H151.863V120ZM157.875 107.32L157.957 108.785C158.895 107.652 160.125 107.086 161.648 107.086C164.289 107.086 165.633 108.598 165.68 111.621V120H162.832V111.785C162.832 110.98 162.656 110.387 162.305 110.004C161.961 109.613 161.395 109.418 160.605 109.418C159.457 109.418 158.602 109.938 158.039 110.977V120H155.191V107.32H157.875ZM175.699 116.555C175.699 116.047 175.488 115.66 175.066 115.395C174.652 115.129 173.961 114.895 172.992 114.691C172.023 114.488 171.215 114.23 170.566 113.918C169.145 113.23 168.434 112.234 168.434 110.93C168.434 109.836 168.895 108.922 169.816 108.188C170.738 107.453 171.91 107.086 173.332 107.086C174.848 107.086 176.07 107.461 177 108.211C177.938 108.961 178.406 109.934 178.406 111.129H175.559C175.559 110.582 175.355 110.129 174.949 109.77C174.543 109.402 174.004 109.219 173.332 109.219C172.707 109.219 172.195 109.363 171.797 109.652C171.406 109.941 171.211 110.328 171.211 110.812C171.211 111.25 171.395 111.59 171.762 111.832C172.129 112.074 172.871 112.32 173.988 112.57C175.105 112.812 175.98 113.105 176.613 113.449C177.254 113.785 177.727 114.191 178.031 114.668C178.344 115.145 178.5 115.723 178.5 116.402C178.5 117.543 178.027 118.469 177.082 119.18C176.137 119.883 174.898 120.234 173.367 120.234C172.328 120.234 171.402 120.047 170.59 119.672C169.777 119.297 169.145 118.781 168.691 118.125C168.238 117.469 168.012 116.762 168.012 116.004H170.777C170.816 116.676 171.07 117.195 171.539 117.562C172.008 117.922 172.629 118.102 173.402 118.102C174.152 118.102 174.723 117.961 175.113 117.68C175.504 117.391 175.699 117.016 175.699 116.555ZM184.559 104.238V107.32H186.797V109.43H184.559V116.508C184.559 116.992 184.652 117.344 184.84 117.562C185.035 117.773 185.379 117.879 185.871 117.879C186.199 117.879 186.531 117.84 186.867 117.762V119.965C186.219 120.145 185.594 120.234 184.992 120.234C182.805 120.234 181.711 119.027 181.711 116.613V109.43H179.625V107.32H181.711V104.238H184.559ZM195.621 109.922C195.246 109.859 194.859 109.828 194.461 109.828C193.156 109.828 192.277 110.328 191.824 111.328V120H188.977V107.32H191.695L191.766 108.738C192.453 107.637 193.406 107.086 194.625 107.086C195.031 107.086 195.367 107.141 195.633 107.25L195.621 109.922ZM205.102 118.758C204.266 119.742 203.078 120.234 201.539 120.234C200.164 120.234 199.121 119.832 198.41 119.027C197.707 118.223 197.355 117.059 197.355 115.535V107.32H200.203V115.5C200.203 117.109 200.871 117.914 202.207 117.914C203.59 117.914 204.523 117.418 205.008 116.426V107.32H207.855V120H205.172L205.102 118.758ZM215.965 117.961C216.676 117.961 217.266 117.754 217.734 117.34C218.203 116.926 218.453 116.414 218.484 115.805H221.168C221.137 116.594 220.891 117.332 220.43 118.02C219.969 118.699 219.344 119.238 218.555 119.637C217.766 120.035 216.914 120.234 216 120.234C214.227 120.234 212.82 119.66 211.781 118.512C210.742 117.363 210.223 115.777 210.223 113.754V113.461C210.223 111.531 210.738 109.988 211.77 108.832C212.801 107.668 214.207 107.086 215.988 107.086C217.496 107.086 218.723 107.527 219.668 108.41C220.621 109.285 221.121 110.438 221.168 111.867H218.484C218.453 111.141 218.203 110.543 217.734 110.074C217.273 109.605 216.684 109.371 215.965 109.371C215.043 109.371 214.332 109.707 213.832 110.379C213.332 111.043 213.078 112.055 213.07 113.414V113.871C213.07 115.246 213.316 116.273 213.809 116.953C214.309 117.625 215.027 117.961 215.965 117.961ZM228.527 117.961C229.238 117.961 229.828 117.754 230.297 117.34C230.766 116.926 231.016 116.414 231.047 115.805H233.73C233.699 116.594 233.453 117.332 232.992 118.02C232.531 118.699 231.906 119.238 231.117 119.637C230.328 120.035 229.477 120.234 228.562 120.234C226.789 120.234 225.383 119.66 224.344 118.512C223.305 117.363 222.785 115.777 222.785 113.754V113.461C222.785 111.531 223.301 109.988 224.332 108.832C225.363 107.668 226.77 107.086 228.551 107.086C230.059 107.086 231.285 107.527 232.23 108.41C233.184 109.285 233.684 110.438 233.73 111.867H231.047C231.016 111.141 230.766 110.543 230.297 110.074C229.836 109.605 229.246 109.371 228.527 109.371C227.605 109.371 226.895 109.707 226.395 110.379C225.895 111.043 225.641 112.055 225.633 113.414V113.871C225.633 115.246 225.879 116.273 226.371 116.953C226.871 117.625 227.59 117.961 228.527 117.961ZM238.91 120H236.062V107.32H238.91V120ZM235.887 104.027C235.887 103.59 236.023 103.227 236.297 102.938C236.578 102.648 236.977 102.504 237.492 102.504C238.008 102.504 238.406 102.648 238.688 102.938C238.969 103.227 239.109 103.59 239.109 104.027C239.109 104.457 238.969 104.816 238.688 105.105C238.406 105.387 238.008 105.527 237.492 105.527C236.977 105.527 236.578 105.387 236.297 105.105C236.023 104.816 235.887 104.457 235.887 104.027ZM241.488 113.543C241.488 112.301 241.734 111.184 242.227 110.191C242.719 109.191 243.41 108.426 244.301 107.895C245.191 107.355 246.215 107.086 247.371 107.086C249.082 107.086 250.469 107.637 251.531 108.738C252.602 109.84 253.18 111.301 253.266 113.121L253.277 113.789C253.277 115.039 253.035 116.156 252.551 117.141C252.074 118.125 251.387 118.887 250.488 119.426C249.598 119.965 248.566 120.234 247.395 120.234C245.605 120.234 244.172 119.641 243.094 118.453C242.023 117.258 241.488 115.668 241.488 113.684V113.543ZM244.336 113.789C244.336 115.094 244.605 116.117 245.145 116.859C245.684 117.594 246.434 117.961 247.395 117.961C248.355 117.961 249.102 117.586 249.633 116.836C250.172 116.086 250.441 114.988 250.441 113.543C250.441 112.262 250.164 111.246 249.609 110.496C249.062 109.746 248.316 109.371 247.371 109.371C246.441 109.371 245.703 109.742 245.156 110.484C244.609 111.219 244.336 112.32 244.336 113.789ZM258.328 107.32L258.41 108.785C259.348 107.652 260.578 107.086 262.102 107.086C264.742 107.086 266.086 108.598 266.133 111.621V120H263.285V111.785C263.285 110.98 263.109 110.387 262.758 110.004C262.414 109.613 261.848 109.418 261.059 109.418C259.91 109.418 259.055 109.938 258.492 110.977V120H255.645V107.32H258.328ZM274.629 120.234C272.824 120.234 271.359 119.668 270.234 118.535C269.117 117.395 268.559 115.879 268.559 113.988V113.637C268.559 112.371 268.801 111.242 269.285 110.25C269.777 109.25 270.465 108.473 271.348 107.918C272.23 107.363 273.215 107.086 274.301 107.086C276.027 107.086 277.359 107.637 278.297 108.738C279.242 109.84 279.715 111.398 279.715 113.414V114.562H271.43C271.516 115.609 271.863 116.438 272.473 117.047C273.09 117.656 273.863 117.961 274.793 117.961C276.098 117.961 277.16 117.434 277.98 116.379L279.516 117.844C279.008 118.602 278.328 119.191 277.477 119.613C276.633 120.027 275.684 120.234 274.629 120.234ZM274.289 109.371C273.508 109.371 272.875 109.645 272.391 110.191C271.914 110.738 271.609 111.5 271.477 112.477H276.902V112.266C276.84 111.312 276.586 110.594 276.141 110.109C275.695 109.617 275.078 109.371 274.289 109.371ZM289.043 116.555C289.043 116.047 288.832 115.66 288.41 115.395C287.996 115.129 287.305 114.895 286.336 114.691C285.367 114.488 284.559 114.23 283.91 113.918C282.488 113.23 281.777 112.234 281.777 110.93C281.777 109.836 282.238 108.922 283.16 108.188C284.082 107.453 285.254 107.086 286.676 107.086C288.191 107.086 289.414 107.461 290.344 108.211C291.281 108.961 291.75 109.934 291.75 111.129H288.902C288.902 110.582 288.699 110.129 288.293 109.77C287.887 109.402 287.348 109.219 286.676 109.219C286.051 109.219 285.539 109.363 285.141 109.652C284.75 109.941 284.555 110.328 284.555 110.812C284.555 111.25 284.738 111.59 285.105 111.832C285.473 112.074 286.215 112.32 287.332 112.57C288.449 112.812 289.324 113.105 289.957 113.449C290.598 113.785 291.07 114.191 291.375 114.668C291.688 115.145 291.844 115.723 291.844 116.402C291.844 117.543 291.371 118.469 290.426 119.18C289.48 119.883 288.242 120.234 286.711 120.234C285.672 120.234 284.746 120.047 283.934 119.672C283.121 119.297 282.488 118.781 282.035 118.125C281.582 117.469 281.355 116.762 281.355 116.004H284.121C284.16 116.676 284.414 117.195 284.883 117.562C285.352 117.922 285.973 118.102 286.746 118.102C287.496 118.102 288.066 117.961 288.457 117.68C288.848 117.391 289.043 117.016 289.043 116.555Z" fill="black"/>
<path d="M0 82V81H-1V82H0ZM968 82H969V81H968V82ZM968 152V153H969V152H968ZM0 152H-1V153H0V152ZM0 83H968V81H0V83ZM967 82V152H969V82H967ZM968 151H0V153H968V151ZM1 152V82H-1V152H1Z" fill="white"/>
<path d="M0 0H968V83H0V0Z" fill="#11D0C5"/>
<path d="M0 0V-1H-1V0H0ZM968 0H969V-1H968V0ZM968 83V84H969V83H968ZM0 83H-1V84H0V83ZM0 1H968V-1H0V1ZM967 0V83H969V0H967ZM968 82H0V84H968V82ZM1 83V0H-1V83H1Z" fill="white"/>
<rect y="152" width="968" height="504" fill="white"/>
<rect x="22.5" y="563.5" width="160" height="50" rx="13.5" fill="#10B6AC" stroke="black"/>
<rect x="243.5" y="563.5" width="160" height="50" rx="13.5" fill="white" stroke="black"/>
<path d="M72.502 592.289H66.5449L65.207 596H63.2734L68.7031 581.781H70.3438L75.7832 596H73.8594L72.502 592.289ZM67.1113 590.746H71.9453L69.5234 584.096L67.1113 590.746ZM81.6523 594.721C82.2969 594.721 82.86 594.525 83.3418 594.135C83.8236 593.744 84.0905 593.256 84.1426 592.67H85.8516C85.819 593.275 85.6107 593.852 85.2266 594.398C84.8424 594.945 84.3281 595.382 83.6836 595.707C83.0456 596.033 82.3685 596.195 81.6523 596.195C80.2135 596.195 79.0677 595.717 78.2148 594.76C77.3685 593.796 76.9453 592.481 76.9453 590.814V590.512C76.9453 589.483 77.1341 588.568 77.5117 587.768C77.8893 586.967 78.4297 586.345 79.1328 585.902C79.8424 585.46 80.679 585.238 81.6426 585.238C82.8275 585.238 83.8105 585.593 84.5918 586.303C85.3796 587.012 85.7995 587.934 85.8516 589.066H84.1426C84.0905 588.383 83.8301 587.823 83.3613 587.387C82.8991 586.944 82.3262 586.723 81.6426 586.723C80.7246 586.723 80.0117 587.055 79.5039 587.719C79.0026 588.376 78.752 589.33 78.752 590.58V590.922C78.752 592.139 79.0026 593.077 79.5039 593.734C80.0052 594.392 80.7214 594.721 81.6523 594.721ZM92.2676 596.195C90.8353 596.195 89.6699 595.727 88.7715 594.789C87.873 593.845 87.4238 592.585 87.4238 591.01V590.678C87.4238 589.63 87.6224 588.695 88.0195 587.875C88.4232 587.048 88.9831 586.404 89.6992 585.941C90.4219 585.473 91.2031 585.238 92.043 585.238C93.4167 585.238 94.4844 585.691 95.2461 586.596C96.0078 587.501 96.3887 588.796 96.3887 590.482V591.234H89.2305C89.2565 592.276 89.5592 593.119 90.1387 593.764C90.7246 594.402 91.4668 594.721 92.3652 594.721C93.0033 594.721 93.5436 594.59 93.9863 594.33C94.429 594.07 94.8164 593.725 95.1484 593.295L96.252 594.154C95.3665 595.515 94.0384 596.195 92.2676 596.195ZM92.043 586.723C91.3138 586.723 90.7018 586.99 90.207 587.523C89.7122 588.051 89.4062 588.793 89.2891 589.75H94.582V589.613C94.5299 588.695 94.2826 587.986 93.8398 587.484C93.3971 586.977 92.7982 586.723 92.043 586.723ZM107.414 590.834C107.414 592.442 107.046 593.738 106.311 594.721C105.575 595.704 104.579 596.195 103.322 596.195C102.04 596.195 101.031 595.788 100.295 594.975V600.062H98.4883V585.434H100.139L100.227 586.605C100.962 585.694 101.984 585.238 103.293 585.238C104.562 585.238 105.565 585.717 106.301 586.674C107.043 587.631 107.414 588.962 107.414 590.668V590.834ZM105.607 590.629C105.607 589.438 105.354 588.497 104.846 587.807C104.338 587.117 103.641 586.771 102.756 586.771C101.662 586.771 100.842 587.257 100.295 588.227V593.275C100.835 594.239 101.662 594.721 102.775 594.721C103.641 594.721 104.328 594.379 104.836 593.695C105.35 593.005 105.607 591.983 105.607 590.629ZM112.17 582.875V585.434H114.143V586.83H112.17V593.383C112.17 593.806 112.258 594.125 112.434 594.34C112.609 594.548 112.909 594.652 113.332 594.652C113.54 594.652 113.827 594.613 114.191 594.535V596C113.716 596.13 113.254 596.195 112.805 596.195C111.997 596.195 111.389 595.951 110.979 595.463C110.568 594.975 110.363 594.281 110.363 593.383V586.83H108.439V585.434H110.363V582.875H112.17ZM122.785 596C122.681 595.792 122.596 595.421 122.531 594.887C121.691 595.759 120.689 596.195 119.523 596.195C118.482 596.195 117.626 595.902 116.955 595.316C116.291 594.724 115.959 593.975 115.959 593.07C115.959 591.97 116.376 591.117 117.209 590.512C118.049 589.9 119.227 589.594 120.744 589.594H122.502V588.764C122.502 588.132 122.313 587.631 121.936 587.26C121.558 586.882 121.001 586.693 120.266 586.693C119.621 586.693 119.081 586.856 118.645 587.182C118.208 587.507 117.99 587.901 117.99 588.363H116.174C116.174 587.836 116.359 587.328 116.73 586.84C117.108 586.345 117.616 585.954 118.254 585.668C118.898 585.382 119.605 585.238 120.373 585.238C121.59 585.238 122.544 585.544 123.234 586.156C123.924 586.762 124.283 587.598 124.309 588.666V593.529C124.309 594.499 124.432 595.271 124.68 595.844V596H122.785ZM119.787 594.623C120.354 594.623 120.891 594.477 121.398 594.184C121.906 593.891 122.274 593.51 122.502 593.041V590.873H121.086C118.872 590.873 117.766 591.521 117.766 592.816C117.766 593.383 117.954 593.826 118.332 594.145C118.71 594.464 119.195 594.623 119.787 594.623ZM132.248 587.055C131.975 587.009 131.678 586.986 131.359 586.986C130.174 586.986 129.37 587.491 128.947 588.5V596H127.141V585.434H128.898L128.928 586.654C129.52 585.71 130.36 585.238 131.447 585.238C131.799 585.238 132.066 585.284 132.248 585.375V587.055Z" fill="black"/>
<path d="M293.109 591.488C292.934 592.992 292.377 594.154 291.439 594.975C290.508 595.788 289.268 596.195 287.719 596.195C286.039 596.195 284.691 595.593 283.676 594.389C282.667 593.184 282.162 591.573 282.162 589.555V588.188C282.162 586.866 282.396 585.704 282.865 584.701C283.34 583.699 284.011 582.93 284.877 582.396C285.743 581.856 286.745 581.586 287.885 581.586C289.395 581.586 290.606 582.009 291.518 582.855C292.429 583.695 292.96 584.861 293.109 586.352H291.225C291.062 585.219 290.707 584.398 290.16 583.891C289.62 583.383 288.861 583.129 287.885 583.129C286.687 583.129 285.746 583.572 285.062 584.457C284.385 585.342 284.047 586.602 284.047 588.236V589.613C284.047 591.156 284.369 592.383 285.014 593.295C285.658 594.206 286.56 594.662 287.719 594.662C288.76 594.662 289.558 594.428 290.111 593.959C290.671 593.484 291.042 592.66 291.225 591.488H293.109ZM301.918 596C301.814 595.792 301.729 595.421 301.664 594.887C300.824 595.759 299.822 596.195 298.656 596.195C297.615 596.195 296.758 595.902 296.088 595.316C295.424 594.724 295.092 593.975 295.092 593.07C295.092 591.97 295.508 591.117 296.342 590.512C297.182 589.9 298.36 589.594 299.877 589.594H301.635V588.764C301.635 588.132 301.446 587.631 301.068 587.26C300.691 586.882 300.134 586.693 299.398 586.693C298.754 586.693 298.214 586.856 297.777 587.182C297.341 587.507 297.123 587.901 297.123 588.363H295.307C295.307 587.836 295.492 587.328 295.863 586.84C296.241 586.345 296.749 585.954 297.387 585.668C298.031 585.382 298.738 585.238 299.506 585.238C300.723 585.238 301.677 585.544 302.367 586.156C303.057 586.762 303.415 587.598 303.441 588.666V593.529C303.441 594.499 303.565 595.271 303.812 595.844V596H301.918ZM298.92 594.623C299.486 594.623 300.023 594.477 300.531 594.184C301.039 593.891 301.407 593.51 301.635 593.041V590.873H300.219C298.005 590.873 296.898 591.521 296.898 592.816C296.898 593.383 297.087 593.826 297.465 594.145C297.842 594.464 298.327 594.623 298.92 594.623ZM307.982 585.434L308.041 586.762C308.848 585.746 309.903 585.238 311.205 585.238C313.438 585.238 314.564 586.498 314.584 589.018V596H312.777V589.008C312.771 588.246 312.595 587.683 312.25 587.318C311.911 586.954 311.381 586.771 310.658 586.771C310.072 586.771 309.558 586.928 309.115 587.24C308.673 587.553 308.327 587.963 308.08 588.471V596H306.273V585.434H307.982ZM321.547 594.721C322.191 594.721 322.755 594.525 323.236 594.135C323.718 593.744 323.985 593.256 324.037 592.67H325.746C325.714 593.275 325.505 593.852 325.121 594.398C324.737 594.945 324.223 595.382 323.578 595.707C322.94 596.033 322.263 596.195 321.547 596.195C320.108 596.195 318.962 595.717 318.109 594.76C317.263 593.796 316.84 592.481 316.84 590.814V590.512C316.84 589.483 317.029 588.568 317.406 587.768C317.784 586.967 318.324 586.345 319.027 585.902C319.737 585.46 320.574 585.238 321.537 585.238C322.722 585.238 323.705 585.593 324.486 586.303C325.274 587.012 325.694 587.934 325.746 589.066H324.037C323.985 588.383 323.725 587.823 323.256 587.387C322.794 586.944 322.221 586.723 321.537 586.723C320.619 586.723 319.906 587.055 319.398 587.719C318.897 588.376 318.646 589.33 318.646 590.58V590.922C318.646 592.139 318.897 593.077 319.398 593.734C319.9 594.392 320.616 594.721 321.547 594.721ZM332.162 596.195C330.73 596.195 329.564 595.727 328.666 594.789C327.768 593.845 327.318 592.585 327.318 591.01V590.678C327.318 589.63 327.517 588.695 327.914 587.875C328.318 587.048 328.878 586.404 329.594 585.941C330.316 585.473 331.098 585.238 331.938 585.238C333.311 585.238 334.379 585.691 335.141 586.596C335.902 587.501 336.283 588.796 336.283 590.482V591.234H329.125C329.151 592.276 329.454 593.119 330.033 593.764C330.619 594.402 331.361 594.721 332.26 594.721C332.898 594.721 333.438 594.59 333.881 594.33C334.324 594.07 334.711 593.725 335.043 593.295L336.146 594.154C335.261 595.515 333.933 596.195 332.162 596.195ZM331.938 586.723C331.208 586.723 330.596 586.99 330.102 587.523C329.607 588.051 329.301 588.793 329.184 589.75H334.477V589.613C334.424 588.695 334.177 587.986 333.734 587.484C333.292 586.977 332.693 586.723 331.938 586.723ZM340.346 596H338.539V581H340.346V596ZM349.77 596C349.665 595.792 349.581 595.421 349.516 594.887C348.676 595.759 347.673 596.195 346.508 596.195C345.466 596.195 344.61 595.902 343.939 595.316C343.275 594.724 342.943 593.975 342.943 593.07C342.943 591.97 343.36 591.117 344.193 590.512C345.033 589.9 346.212 589.594 347.729 589.594H349.486V588.764C349.486 588.132 349.298 587.631 348.92 587.26C348.542 586.882 347.986 586.693 347.25 586.693C346.605 586.693 346.065 586.856 345.629 587.182C345.193 587.507 344.975 587.901 344.975 588.363H343.158C343.158 587.836 343.344 587.328 343.715 586.84C344.092 586.345 344.6 585.954 345.238 585.668C345.883 585.382 346.589 585.238 347.357 585.238C348.575 585.238 349.529 585.544 350.219 586.156C350.909 586.762 351.267 587.598 351.293 588.666V593.529C351.293 594.499 351.417 595.271 351.664 595.844V596H349.77ZM346.771 594.623C347.338 594.623 347.875 594.477 348.383 594.184C348.891 593.891 349.258 593.51 349.486 593.041V590.873H348.07C345.857 590.873 344.75 591.521 344.75 592.816C344.75 593.383 344.939 593.826 345.316 594.145C345.694 594.464 346.179 594.623 346.771 594.623ZM359.232 587.055C358.959 587.009 358.663 586.986 358.344 586.986C357.159 586.986 356.355 587.491 355.932 588.5V596H354.125V585.434H355.883L355.912 586.654C356.505 585.71 357.344 585.238 358.432 585.238C358.783 585.238 359.05 585.284 359.232 585.375V587.055Z" fill="black"/>
<rect x="218.5" y="275.5" width="599" height="34" fill="white" stroke="black"/>
<rect x="218.5" y="360.5" width="599" height="34" fill="white" stroke="black"/>
<path d="M32.5781 299H30.6934L23.5352 288.043V299H21.6504V284.781H23.5352L30.7129 295.787V284.781H32.5781V299ZM35.1465 293.619C35.1465 292.584 35.3483 291.653 35.752 290.826C36.1621 289.999 36.7285 289.361 37.4512 288.912C38.1803 288.463 39.0104 288.238 39.9414 288.238C41.3802 288.238 42.5423 288.736 43.4277 289.732C44.3197 290.729 44.7656 292.053 44.7656 293.707V293.834C44.7656 294.863 44.5671 295.787 44.1699 296.607C43.7793 297.421 43.2161 298.056 42.4805 298.512C41.7513 298.967 40.9115 299.195 39.9609 299.195C38.5286 299.195 37.3665 298.697 36.4746 297.701C35.5892 296.705 35.1465 295.387 35.1465 293.746V293.619ZM36.9629 293.834C36.9629 295.006 37.2331 295.947 37.7734 296.656C38.3203 297.366 39.0495 297.721 39.9609 297.721C40.8789 297.721 41.6081 297.363 42.1484 296.646C42.6888 295.924 42.959 294.915 42.959 293.619C42.959 292.46 42.6823 291.523 42.1289 290.807C41.582 290.084 40.8529 289.723 39.9414 289.723C39.0495 289.723 38.3301 290.077 37.7832 290.787C37.2363 291.497 36.9629 292.512 36.9629 293.834ZM48.7305 288.434L48.7793 289.605C49.554 288.694 50.599 288.238 51.9141 288.238C53.3919 288.238 54.3978 288.805 54.9316 289.938C55.2832 289.43 55.7389 289.02 56.2988 288.707C56.8652 288.395 57.5326 288.238 58.3008 288.238C60.6185 288.238 61.7969 289.465 61.8359 291.92V299H60.0293V292.027C60.0293 291.272 59.8568 290.709 59.5117 290.338C59.1667 289.96 58.5872 289.771 57.7734 289.771C57.1029 289.771 56.5462 289.973 56.1035 290.377C55.6608 290.774 55.4036 291.311 55.332 291.988V299H53.5156V292.076C53.5156 290.54 52.7637 289.771 51.2598 289.771C50.0749 289.771 49.2643 290.276 48.8281 291.285V299H47.0215V288.434H48.7305ZM73.5156 293.834C73.5156 295.449 73.1445 296.747 72.4023 297.73C71.6602 298.707 70.6641 299.195 69.4141 299.195C68.0794 299.195 67.0475 298.723 66.3184 297.779L66.2305 299H64.5703V284H66.377V289.596C67.1061 288.691 68.112 288.238 69.3945 288.238C70.6771 288.238 71.6829 288.723 72.4121 289.693C73.1478 290.663 73.5156 291.992 73.5156 293.678V293.834ZM71.709 293.629C71.709 292.398 71.4714 291.448 70.9961 290.777C70.5208 290.107 69.8372 289.771 68.9453 289.771C67.7539 289.771 66.8978 290.325 66.377 291.432V296.002C66.9303 297.109 67.793 297.662 68.9648 297.662C69.8307 297.662 70.5046 297.327 70.9863 296.656C71.4681 295.986 71.709 294.977 71.709 293.629ZM80.9082 290.055C80.6348 290.009 80.3385 289.986 80.0195 289.986C78.8346 289.986 78.0306 290.491 77.6074 291.5V299H75.8008V288.434H77.5586L77.5879 289.654C78.1803 288.71 79.0202 288.238 80.1074 288.238C80.459 288.238 80.7259 288.284 80.9082 288.375V290.055ZM86.7676 299.195C85.3353 299.195 84.1699 298.727 83.2715 297.789C82.373 296.845 81.9238 295.585 81.9238 294.01V293.678C81.9238 292.63 82.1224 291.695 82.5195 290.875C82.9232 290.048 83.4831 289.404 84.1992 288.941C84.9219 288.473 85.7031 288.238 86.543 288.238C87.9167 288.238 88.9844 288.691 89.7461 289.596C90.5078 290.501 90.8887 291.796 90.8887 293.482V294.234H83.7305C83.7565 295.276 84.0592 296.119 84.6387 296.764C85.2246 297.402 85.9668 297.721 86.8652 297.721C87.5033 297.721 88.0436 297.59 88.4863 297.33C88.929 297.07 89.3164 296.725 89.6484 296.295L90.752 297.154C89.8665 298.515 88.5384 299.195 86.7676 299.195ZM86.543 289.723C85.8138 289.723 85.2018 289.99 84.707 290.523C84.2122 291.051 83.9062 291.793 83.7891 292.75H89.082V292.613C89.0299 291.695 88.7826 290.986 88.3398 290.484C87.8971 289.977 87.2982 289.723 86.543 289.723ZM104.189 284.781H106.074V294.85C106.074 296.21 105.664 297.275 104.844 298.043C104.03 298.811 102.943 299.195 101.582 299.195C100.169 299.195 99.069 298.834 98.2812 298.111C97.4935 297.389 97.0996 296.376 97.0996 295.074H98.9746C98.9746 295.888 99.196 296.523 99.6387 296.979C100.088 297.434 100.736 297.662 101.582 297.662C102.357 297.662 102.982 297.418 103.457 296.93C103.939 296.441 104.183 295.758 104.189 294.879V284.781ZM115.508 297.955C114.805 298.782 113.773 299.195 112.412 299.195C111.286 299.195 110.426 298.87 109.834 298.219C109.248 297.561 108.952 296.591 108.945 295.309V288.434H110.752V295.26C110.752 296.861 111.403 297.662 112.705 297.662C114.085 297.662 115.003 297.148 115.459 296.119V288.434H117.266V299H115.547L115.508 297.955ZM119.59 293.629C119.59 291.982 119.971 290.673 120.732 289.703C121.494 288.727 122.503 288.238 123.76 288.238C125.049 288.238 126.055 288.694 126.777 289.605L126.865 288.434H128.516V298.746C128.516 300.113 128.109 301.191 127.295 301.979C126.488 302.766 125.4 303.16 124.033 303.16C123.271 303.16 122.526 302.997 121.797 302.672C121.068 302.346 120.511 301.9 120.127 301.334L121.064 300.25C121.839 301.207 122.786 301.686 123.906 301.686C124.785 301.686 125.469 301.438 125.957 300.943C126.452 300.449 126.699 299.752 126.699 298.854V297.945C125.977 298.779 124.99 299.195 123.74 299.195C122.503 299.195 121.501 298.697 120.732 297.701C119.971 296.705 119.59 295.348 119.59 293.629ZM121.406 293.834C121.406 295.025 121.65 295.963 122.139 296.646C122.627 297.324 123.311 297.662 124.189 297.662C125.329 297.662 126.165 297.145 126.699 296.109V291.285C126.146 290.276 125.316 289.771 124.209 289.771C123.33 289.771 122.643 290.113 122.148 290.797C121.654 291.48 121.406 292.493 121.406 293.834ZM137.773 299C137.669 298.792 137.585 298.421 137.52 297.887C136.68 298.759 135.677 299.195 134.512 299.195C133.47 299.195 132.614 298.902 131.943 298.316C131.279 297.724 130.947 296.975 130.947 296.07C130.947 294.97 131.364 294.117 132.197 293.512C133.037 292.9 134.215 292.594 135.732 292.594H137.49V291.764C137.49 291.132 137.301 290.631 136.924 290.26C136.546 289.882 135.99 289.693 135.254 289.693C134.609 289.693 134.069 289.856 133.633 290.182C133.197 290.507 132.979 290.901 132.979 291.363H131.162C131.162 290.836 131.348 290.328 131.719 289.84C132.096 289.345 132.604 288.954 133.242 288.668C133.887 288.382 134.593 288.238 135.361 288.238C136.579 288.238 137.533 288.544 138.223 289.156C138.913 289.762 139.271 290.598 139.297 291.666V296.529C139.297 297.499 139.421 298.271 139.668 298.844V299H137.773ZM134.775 297.623C135.342 297.623 135.879 297.477 136.387 297.184C136.895 296.891 137.262 296.51 137.49 296.041V293.873H136.074C133.861 293.873 132.754 294.521 132.754 295.816C132.754 296.383 132.943 296.826 133.32 297.145C133.698 297.464 134.183 297.623 134.775 297.623ZM141.689 293.629C141.689 292.008 142.074 290.706 142.842 289.723C143.61 288.733 144.616 288.238 145.859 288.238C147.096 288.238 148.076 288.661 148.799 289.508V284H150.605V299H148.945L148.857 297.867C148.135 298.753 147.129 299.195 145.84 299.195C144.616 299.195 143.617 298.694 142.842 297.691C142.074 296.689 141.689 295.38 141.689 293.766V293.629ZM143.496 293.834C143.496 295.032 143.743 295.969 144.238 296.646C144.733 297.324 145.417 297.662 146.289 297.662C147.435 297.662 148.271 297.148 148.799 296.119V291.266C148.258 290.27 147.428 289.771 146.309 289.771C145.423 289.771 144.733 290.113 144.238 290.797C143.743 291.48 143.496 292.493 143.496 293.834ZM152.939 293.619C152.939 292.584 153.141 291.653 153.545 290.826C153.955 289.999 154.521 289.361 155.244 288.912C155.973 288.463 156.803 288.238 157.734 288.238C159.173 288.238 160.335 288.736 161.221 289.732C162.113 290.729 162.559 292.053 162.559 293.707V293.834C162.559 294.863 162.36 295.787 161.963 296.607C161.572 297.421 161.009 298.056 160.273 298.512C159.544 298.967 158.704 299.195 157.754 299.195C156.322 299.195 155.16 298.697 154.268 297.701C153.382 296.705 152.939 295.387 152.939 293.746V293.619ZM154.756 293.834C154.756 295.006 155.026 295.947 155.566 296.656C156.113 297.366 156.842 297.721 157.754 297.721C158.672 297.721 159.401 297.363 159.941 296.646C160.482 295.924 160.752 294.915 160.752 293.619C160.752 292.46 160.475 291.523 159.922 290.807C159.375 290.084 158.646 289.723 157.734 289.723C156.842 289.723 156.123 290.077 155.576 290.787C155.029 291.497 154.756 292.512 154.756 293.834ZM169.932 290.055C169.658 290.009 169.362 289.986 169.043 289.986C167.858 289.986 167.054 290.491 166.631 291.5V299H164.824V288.434H166.582L166.611 289.654C167.204 288.71 168.044 288.238 169.131 288.238C169.482 288.238 169.749 288.284 169.932 288.375V290.055ZM171.543 298.053C171.543 297.74 171.634 297.48 171.816 297.271C172.005 297.063 172.285 296.959 172.656 296.959C173.027 296.959 173.307 297.063 173.496 297.271C173.691 297.48 173.789 297.74 173.789 298.053C173.789 298.352 173.691 298.603 173.496 298.805C173.307 299.007 173.027 299.107 172.656 299.107C172.285 299.107 172.005 299.007 171.816 298.805C171.634 298.603 171.543 298.352 171.543 298.053ZM171.553 289.43C171.553 289.117 171.644 288.857 171.826 288.648C172.015 288.44 172.295 288.336 172.666 288.336C173.037 288.336 173.317 288.44 173.506 288.648C173.701 288.857 173.799 289.117 173.799 289.43C173.799 289.729 173.701 289.98 173.506 290.182C173.317 290.383 173.037 290.484 172.666 290.484C172.295 290.484 172.015 290.383 171.826 290.182C171.644 289.98 171.553 289.729 171.553 289.43Z" fill="black"/>
<path d="M21.6504 397V382.781H25.6641C26.901 382.781 27.9948 383.055 28.9453 383.602C29.8958 384.148 30.6283 384.926 31.1426 385.936C31.6634 386.945 31.9271 388.104 31.9336 389.412V390.32C31.9336 391.661 31.6732 392.837 31.1523 393.846C30.638 394.855 29.8991 395.63 28.9355 396.17C27.9785 396.71 26.862 396.987 25.5859 397H21.6504ZM23.5254 384.324V395.467H25.498C26.9434 395.467 28.0664 395.018 28.8672 394.119C29.6745 393.221 30.0781 391.941 30.0781 390.281V389.451C30.0781 387.837 29.6973 386.583 28.9355 385.691C28.1803 384.793 27.1061 384.337 25.7129 384.324H23.5254ZM41.0156 395.955C40.3125 396.782 39.2806 397.195 37.9199 397.195C36.7936 397.195 35.9342 396.87 35.3418 396.219C34.7559 395.561 34.4596 394.591 34.4531 393.309V386.434H36.2598V393.26C36.2598 394.861 36.9108 395.662 38.2129 395.662C39.5931 395.662 40.5111 395.148 40.9668 394.119V386.434H42.7734V397H41.0547L41.0156 395.955ZM50.6348 388.055C50.3613 388.009 50.0651 387.986 49.7461 387.986C48.5612 387.986 47.7572 388.491 47.334 389.5V397H45.5273V386.434H47.2852L47.3145 387.654C47.9069 386.71 48.7467 386.238 49.834 386.238C50.1855 386.238 50.4525 386.284 50.6348 386.375V388.055ZM58.4375 397C58.3333 396.792 58.2487 396.421 58.1836 395.887C57.3438 396.759 56.3411 397.195 55.1758 397.195C54.1341 397.195 53.278 396.902 52.6074 396.316C51.9434 395.724 51.6113 394.975 51.6113 394.07C51.6113 392.97 52.028 392.117 52.8613 391.512C53.7012 390.9 54.8796 390.594 56.3965 390.594H58.1543V389.764C58.1543 389.132 57.9655 388.631 57.5879 388.26C57.2103 387.882 56.6536 387.693 55.918 387.693C55.2734 387.693 54.7331 387.856 54.2969 388.182C53.8607 388.507 53.6426 388.901 53.6426 389.363H51.8262C51.8262 388.836 52.0117 388.328 52.3828 387.84C52.7604 387.345 53.2682 386.954 53.9062 386.668C54.5508 386.382 55.2572 386.238 56.0254 386.238C57.2428 386.238 58.1966 386.544 58.8867 387.156C59.5768 387.762 59.9349 388.598 59.9609 389.666V394.529C59.9609 395.499 60.0846 396.271 60.332 396.844V397H58.4375ZM55.4395 395.623C56.0059 395.623 56.543 395.477 57.0508 395.184C57.5586 394.891 57.9264 394.51 58.1543 394.041V391.873H56.7383C54.5247 391.873 53.418 392.521 53.418 393.816C53.418 394.383 53.6068 394.826 53.9844 395.145C54.362 395.464 54.847 395.623 55.4395 395.623ZM67.0312 395.721C67.6758 395.721 68.2389 395.525 68.7207 395.135C69.2025 394.744 69.4694 394.256 69.5215 393.67H71.2305C71.1979 394.275 70.9896 394.852 70.6055 395.398C70.2214 395.945 69.707 396.382 69.0625 396.707C68.4245 397.033 67.7474 397.195 67.0312 397.195C65.5924 397.195 64.4466 396.717 63.5938 395.76C62.7474 394.796 62.3242 393.481 62.3242 391.814V391.512C62.3242 390.483 62.513 389.568 62.8906 388.768C63.2682 387.967 63.8086 387.345 64.5117 386.902C65.2214 386.46 66.0579 386.238 67.0215 386.238C68.2064 386.238 69.1895 386.593 69.9707 387.303C70.7585 388.012 71.1784 388.934 71.2305 390.066H69.5215C69.4694 389.383 69.209 388.823 68.7402 388.387C68.278 387.944 67.7051 387.723 67.0215 387.723C66.1035 387.723 65.3906 388.055 64.8828 388.719C64.3815 389.376 64.1309 390.33 64.1309 391.58V391.922C64.1309 393.139 64.3815 394.077 64.8828 394.734C65.3841 395.392 66.1003 395.721 67.0312 395.721ZM75.2246 397H73.418V386.434H75.2246V397ZM73.2715 383.631C73.2715 383.338 73.3594 383.09 73.5352 382.889C73.7174 382.687 73.9844 382.586 74.3359 382.586C74.6875 382.586 74.9544 382.687 75.1367 382.889C75.319 383.09 75.4102 383.338 75.4102 383.631C75.4102 383.924 75.319 384.168 75.1367 384.363C74.9544 384.559 74.6875 384.656 74.3359 384.656C73.9844 384.656 73.7174 384.559 73.5352 384.363C73.3594 384.168 73.2715 383.924 73.2715 383.631ZM77.6465 391.619C77.6465 390.584 77.8483 389.653 78.252 388.826C78.6621 387.999 79.2285 387.361 79.9512 386.912C80.6803 386.463 81.5104 386.238 82.4414 386.238C83.8802 386.238 85.0423 386.736 85.9277 387.732C86.8197 388.729 87.2656 390.053 87.2656 391.707V391.834C87.2656 392.863 87.0671 393.787 86.6699 394.607C86.2793 395.421 85.7161 396.056 84.9805 396.512C84.2513 396.967 83.4115 397.195 82.4609 397.195C81.0286 397.195 79.8665 396.697 78.9746 395.701C78.0892 394.705 77.6465 393.387 77.6465 391.746V391.619ZM79.4629 391.834C79.4629 393.006 79.7331 393.947 80.2734 394.656C80.8203 395.366 81.5495 395.721 82.4609 395.721C83.3789 395.721 84.1081 395.363 84.6484 394.646C85.1888 393.924 85.459 392.915 85.459 391.619C85.459 390.46 85.1823 389.523 84.6289 388.807C84.082 388.084 83.3529 387.723 82.4414 387.723C81.5495 387.723 80.8301 388.077 80.2832 388.787C79.7363 389.497 79.4629 390.512 79.4629 391.834ZM83.2617 382H85.4492L82.832 384.871H81.377L83.2617 382ZM91.2402 386.434L91.2988 387.762C92.1061 386.746 93.1608 386.238 94.4629 386.238C96.696 386.238 97.8223 387.498 97.8418 390.018V397H96.0352V390.008C96.0286 389.246 95.8529 388.683 95.5078 388.318C95.1693 387.954 94.6387 387.771 93.916 387.771C93.3301 387.771 92.8158 387.928 92.373 388.24C91.9303 388.553 91.5853 388.963 91.3379 389.471V397H89.5312V386.434H91.2402ZM105.088 391.629C105.088 390.008 105.472 388.706 106.24 387.723C107.008 386.733 108.014 386.238 109.258 386.238C110.495 386.238 111.475 386.661 112.197 387.508V382H114.004V397H112.344L112.256 395.867C111.533 396.753 110.527 397.195 109.238 397.195C108.014 397.195 107.015 396.694 106.24 395.691C105.472 394.689 105.088 393.38 105.088 391.766V391.629ZM106.895 391.834C106.895 393.032 107.142 393.969 107.637 394.646C108.132 395.324 108.815 395.662 109.688 395.662C110.833 395.662 111.67 395.148 112.197 394.119V389.266C111.657 388.27 110.827 387.771 109.707 387.771C108.822 387.771 108.132 388.113 107.637 388.797C107.142 389.48 106.895 390.493 106.895 391.834ZM121.201 397.195C119.769 397.195 118.604 396.727 117.705 395.789C116.807 394.845 116.357 393.585 116.357 392.01V391.678C116.357 390.63 116.556 389.695 116.953 388.875C117.357 388.048 117.917 387.404 118.633 386.941C119.355 386.473 120.137 386.238 120.977 386.238C122.35 386.238 123.418 386.691 124.18 387.596C124.941 388.501 125.322 389.796 125.322 391.482V392.234H118.164C118.19 393.276 118.493 394.119 119.072 394.764C119.658 395.402 120.4 395.721 121.299 395.721C121.937 395.721 122.477 395.59 122.92 395.33C123.363 395.07 123.75 394.725 124.082 394.295L125.186 395.154C124.3 396.515 122.972 397.195 121.201 397.195ZM120.977 387.723C120.247 387.723 119.635 387.99 119.141 388.523C118.646 389.051 118.34 389.793 118.223 390.75H123.516V390.613C123.464 389.695 123.216 388.986 122.773 388.484C122.331 387.977 121.732 387.723 120.977 387.723ZM129.385 397H127.578V382H129.385V397ZM146.963 384.324H142.393V397H140.527V384.324H135.967V382.781H146.963V384.324ZM150.752 397H148.945V386.434H150.752V397ZM148.799 383.631C148.799 383.338 148.887 383.09 149.062 382.889C149.245 382.687 149.512 382.586 149.863 382.586C150.215 382.586 150.482 382.687 150.664 382.889C150.846 383.09 150.938 383.338 150.938 383.631C150.938 383.924 150.846 384.168 150.664 384.363C150.482 384.559 150.215 384.656 149.863 384.656C149.512 384.656 149.245 384.559 149.062 384.363C148.887 384.168 148.799 383.924 148.799 383.631ZM155.352 386.434L155.4 387.605C156.175 386.694 157.22 386.238 158.535 386.238C160.013 386.238 161.019 386.805 161.553 387.938C161.904 387.43 162.36 387.02 162.92 386.707C163.486 386.395 164.154 386.238 164.922 386.238C167.24 386.238 168.418 387.465 168.457 389.92V397H166.65V390.027C166.65 389.272 166.478 388.709 166.133 388.338C165.788 387.96 165.208 387.771 164.395 387.771C163.724 387.771 163.167 387.973 162.725 388.377C162.282 388.774 162.025 389.311 161.953 389.988V397H160.137V390.076C160.137 388.54 159.385 387.771 157.881 387.771C156.696 387.771 155.885 388.276 155.449 389.285V397H153.643V386.434H155.352ZM175.576 397.195C174.144 397.195 172.979 396.727 172.08 395.789C171.182 394.845 170.732 393.585 170.732 392.01V391.678C170.732 390.63 170.931 389.695 171.328 388.875C171.732 388.048 172.292 387.404 173.008 386.941C173.73 386.473 174.512 386.238 175.352 386.238C176.725 386.238 177.793 386.691 178.555 387.596C179.316 388.501 179.697 389.796 179.697 391.482V392.234H172.539C172.565 393.276 172.868 394.119 173.447 394.764C174.033 395.402 174.775 395.721 175.674 395.721C176.312 395.721 176.852 395.59 177.295 395.33C177.738 395.07 178.125 394.725 178.457 394.295L179.561 395.154C178.675 396.515 177.347 397.195 175.576 397.195ZM175.352 387.723C174.622 387.723 174.01 387.99 173.516 388.523C173.021 389.051 172.715 389.793 172.598 390.75H177.891V390.613C177.839 389.695 177.591 388.986 177.148 388.484C176.706 387.977 176.107 387.723 175.352 387.723ZM186.904 388.055C186.631 388.009 186.335 387.986 186.016 387.986C184.831 387.986 184.027 388.491 183.604 389.5V397H181.797V386.434H183.555L183.584 387.654C184.176 386.71 185.016 386.238 186.104 386.238C186.455 386.238 186.722 386.284 186.904 386.375V388.055ZM188.516 396.053C188.516 395.74 188.607 395.48 188.789 395.271C188.978 395.063 189.258 394.959 189.629 394.959C190 394.959 190.28 395.063 190.469 395.271C190.664 395.48 190.762 395.74 190.762 396.053C190.762 396.352 190.664 396.603 190.469 396.805C190.28 397.007 190 397.107 189.629 397.107C189.258 397.107 188.978 397.007 188.789 396.805C188.607 396.603 188.516 396.352 188.516 396.053ZM188.525 387.43C188.525 387.117 188.617 386.857 188.799 386.648C188.988 386.44 189.268 386.336 189.639 386.336C190.01 386.336 190.29 386.44 190.479 386.648C190.674 386.857 190.771 387.117 190.771 387.43C190.771 387.729 190.674 387.98 190.479 388.182C190.29 388.383 190.01 388.484 189.639 388.484C189.268 388.484 188.988 388.383 188.799 388.182C188.617 387.98 188.525 387.729 188.525 387.43Z" fill="black"/>
<line x1="22" y1="225" x2="922" y2="225" stroke="#11D0C5" stroke-width="2"/>
<path d="M34.918 192.316C34.7852 194.152 34.1055 195.598 32.8789 196.652C31.6602 197.707 30.0508 198.234 28.0508 198.234C25.8633 198.234 24.1406 197.5 22.8828 196.031C21.6328 194.555 21.0078 192.531 21.0078 189.961V188.918C21.0078 187.277 21.2969 185.832 21.875 184.582C22.4531 183.332 23.2773 182.375 24.3477 181.711C25.4258 181.039 26.6758 180.703 28.0977 180.703C30.0664 180.703 31.6523 181.23 32.8555 182.285C34.0586 183.34 34.7539 184.82 34.9414 186.727H31.4258C31.3398 185.625 31.0312 184.828 30.5 184.336C29.9766 183.836 29.1758 183.586 28.0977 183.586C26.9258 183.586 26.0469 184.008 25.4609 184.852C24.8828 185.688 24.5859 186.988 24.5703 188.754V190.043C24.5703 191.887 24.8477 193.234 25.4023 194.086C25.9648 194.938 26.8477 195.363 28.0508 195.363C29.1367 195.363 29.9453 195.117 30.4766 194.625C31.0156 194.125 31.3242 193.355 31.4023 192.316H34.918ZM44.1289 188.496C43.668 188.434 43.2617 188.402 42.9102 188.402C41.6289 188.402 40.7891 188.836 40.3906 189.703V198H37.0039V185.32H40.2031L40.2969 186.832C40.9766 185.668 41.918 185.086 43.1211 185.086C43.4961 185.086 43.8477 185.137 44.1758 185.238L44.1289 188.496ZM51.3711 198.234C49.5117 198.234 47.9961 197.664 46.8242 196.523C45.6602 195.383 45.0781 193.863 45.0781 191.965V191.637C45.0781 190.363 45.3242 189.227 45.8164 188.227C46.3086 187.219 47.0039 186.445 47.9023 185.906C48.8086 185.359 49.8398 185.086 50.9961 185.086C52.7305 185.086 54.0938 185.633 55.0859 186.727C56.0859 187.82 56.5859 189.371 56.5859 191.379V192.762H48.5117C48.6211 193.59 48.9492 194.254 49.4961 194.754C50.0508 195.254 50.75 195.504 51.5938 195.504C52.8984 195.504 53.918 195.031 54.6523 194.086L56.3164 195.949C55.8086 196.668 55.1211 197.23 54.2539 197.637C53.3867 198.035 52.4258 198.234 51.3711 198.234ZM50.9844 187.828C50.3125 187.828 49.7656 188.055 49.3438 188.508C48.9297 188.961 48.6641 189.609 48.5469 190.453H53.2578V190.184C53.2422 189.434 53.0391 188.855 52.6484 188.449C52.2578 188.035 51.7031 187.828 50.9844 187.828ZM65.8672 198C65.7109 197.695 65.5977 197.316 65.5273 196.863C64.707 197.777 63.6406 198.234 62.3281 198.234C61.0859 198.234 60.0547 197.875 59.2344 197.156C58.4219 196.438 58.0156 195.531 58.0156 194.438C58.0156 193.094 58.5117 192.062 59.5039 191.344C60.5039 190.625 61.9453 190.262 63.8281 190.254H65.3867V189.527C65.3867 188.941 65.2344 188.473 64.9297 188.121C64.6328 187.77 64.1602 187.594 63.5117 187.594C62.9414 187.594 62.4922 187.73 62.1641 188.004C61.8438 188.277 61.6836 188.652 61.6836 189.129H58.2969C58.2969 188.395 58.5234 187.715 58.9766 187.09C59.4297 186.465 60.0703 185.977 60.8984 185.625C61.7266 185.266 62.6562 185.086 63.6875 185.086C65.25 185.086 66.4883 185.48 67.4023 186.27C68.3242 187.051 68.7852 188.152 68.7852 189.574V195.07C68.793 196.273 68.9609 197.184 69.2891 197.801V198H65.8672ZM63.0664 195.645C63.5664 195.645 64.0273 195.535 64.4492 195.316C64.8711 195.09 65.1836 194.789 65.3867 194.414V192.234H64.1211C62.4258 192.234 61.5234 192.82 61.4141 193.992L61.4023 194.191C61.4023 194.613 61.5508 194.961 61.8477 195.234C62.1445 195.508 62.5508 195.645 63.0664 195.645ZM78.5117 188.496C78.0508 188.434 77.6445 188.402 77.293 188.402C76.0117 188.402 75.1719 188.836 74.7734 189.703V198H71.3867V185.32H74.5859L74.6797 186.832C75.3594 185.668 76.3008 185.086 77.5039 185.086C77.8789 185.086 78.2305 185.137 78.5586 185.238L78.5117 188.496ZM93.2305 180.938H96.7461V192.75C96.7461 193.836 96.5039 194.797 96.0195 195.633C95.543 196.461 94.8672 197.102 93.9922 197.555C93.1172 198.008 92.1289 198.234 91.0273 198.234C89.2227 198.234 87.8164 197.777 86.8086 196.863C85.8008 195.941 85.2969 194.641 85.2969 192.961H88.8359C88.8359 193.797 89.0117 194.414 89.3633 194.812C89.7148 195.211 90.2695 195.41 91.0273 195.41C91.6992 195.41 92.2344 195.18 92.6328 194.719C93.0312 194.258 93.2305 193.602 93.2305 192.75V180.938ZM107.129 196.711C106.293 197.727 105.137 198.234 103.66 198.234C102.301 198.234 101.262 197.844 100.543 197.062C99.832 196.281 99.4688 195.137 99.4531 193.629V185.32H102.84V193.512C102.84 194.832 103.441 195.492 104.645 195.492C105.793 195.492 106.582 195.094 107.012 194.297V185.32H110.41V198H107.223L107.129 196.711ZM118.801 198.234C116.941 198.234 115.426 197.664 114.254 196.523C113.09 195.383 112.508 193.863 112.508 191.965V191.637C112.508 190.363 112.754 189.227 113.246 188.227C113.738 187.219 114.434 186.445 115.332 185.906C116.238 185.359 117.27 185.086 118.426 185.086C120.16 185.086 121.523 185.633 122.516 186.727C123.516 187.82 124.016 189.371 124.016 191.379V192.762H115.941C116.051 193.59 116.379 194.254 116.926 194.754C117.48 195.254 118.18 195.504 119.023 195.504C120.328 195.504 121.348 195.031 122.082 194.086L123.746 195.949C123.238 196.668 122.551 197.23 121.684 197.637C120.816 198.035 119.855 198.234 118.801 198.234ZM118.414 187.828C117.742 187.828 117.195 188.055 116.773 188.508C116.359 188.961 116.094 189.609 115.977 190.453H120.688V190.184C120.672 189.434 120.469 188.855 120.078 188.449C119.688 188.035 119.133 187.828 118.414 187.828ZM125.457 191.566C125.457 189.621 125.918 188.055 126.84 186.867C127.77 185.68 129.02 185.086 130.59 185.086C131.98 185.086 133.062 185.562 133.836 186.516L133.977 185.32H137.047V197.578C137.047 198.688 136.793 199.652 136.285 200.473C135.785 201.293 135.078 201.918 134.164 202.348C133.25 202.777 132.18 202.992 130.953 202.992C130.023 202.992 129.117 202.805 128.234 202.43C127.352 202.062 126.684 201.586 126.23 201L127.73 198.938C128.574 199.883 129.598 200.355 130.801 200.355C131.699 200.355 132.398 200.113 132.898 199.629C133.398 199.152 133.648 198.473 133.648 197.59V196.91C132.867 197.793 131.84 198.234 130.566 198.234C129.043 198.234 127.809 197.641 126.863 196.453C125.926 195.258 125.457 193.676 125.457 191.707V191.566ZM128.844 191.812C128.844 192.961 129.074 193.863 129.535 194.52C129.996 195.168 130.629 195.492 131.434 195.492C132.465 195.492 133.203 195.105 133.648 194.332V189C133.195 188.227 132.465 187.84 131.457 187.84C130.645 187.84 130.004 188.172 129.535 188.836C129.074 189.5 128.844 190.492 128.844 191.812ZM139.133 191.543C139.133 190.285 139.375 189.164 139.859 188.18C140.344 187.195 141.039 186.434 141.945 185.895C142.859 185.355 143.918 185.086 145.121 185.086C146.832 185.086 148.227 185.609 149.305 186.656C150.391 187.703 150.996 189.125 151.121 190.922L151.145 191.789C151.145 193.734 150.602 195.297 149.516 196.477C148.43 197.648 146.973 198.234 145.145 198.234C143.316 198.234 141.855 197.648 140.762 196.477C139.676 195.305 139.133 193.711 139.133 191.695V191.543ZM142.52 191.789C142.52 192.992 142.746 193.914 143.199 194.555C143.652 195.188 144.301 195.504 145.145 195.504C145.965 195.504 146.605 195.191 147.066 194.566C147.527 193.934 147.758 192.926 147.758 191.543C147.758 190.363 147.527 189.449 147.066 188.801C146.605 188.152 145.957 187.828 145.121 187.828C144.293 187.828 143.652 188.152 143.199 188.801C142.746 189.441 142.52 190.438 142.52 191.789Z" fill="black"/>
<rect x="1" y="1" width="966" height="726" stroke="#171212" stroke-width="2"/>
</svg>
