<svg width="485" height="728" viewBox="0 0 485 728" fill="none" xmlns="http://www.w3.org/2000/svg">
<rect x="1" y="1" width="483" height="726" fill="white"/>
<path d="M24.5254 704.434V710H22.6504V695.781H27.8945C29.4505 695.781 30.668 696.178 31.5469 696.973C32.4323 697.767 32.875 698.818 32.875 700.127C32.875 701.507 32.4421 702.572 31.5762 703.32C30.7168 704.062 29.4831 704.434 27.875 704.434H24.5254ZM24.5254 702.9H27.8945C28.8971 702.9 29.6654 702.666 30.1992 702.197C30.7331 701.722 31 701.038 31 700.146C31 699.3 30.7331 698.623 30.1992 698.115C29.6654 697.607 28.9329 697.344 28.002 697.324H24.5254V702.9ZM36.9473 710H35.1406V699.434H36.9473V710ZM34.9941 696.631C34.9941 696.338 35.082 696.09 35.2578 695.889C35.4401 695.687 35.707 695.586 36.0586 695.586C36.4102 695.586 36.6771 695.687 36.8594 695.889C37.0417 696.09 37.1328 696.338 37.1328 696.631C37.1328 696.924 37.0417 697.168 36.8594 697.363C36.6771 697.559 36.4102 697.656 36.0586 697.656C35.707 697.656 35.4401 697.559 35.2578 697.363C35.082 697.168 34.9941 696.924 34.9941 696.631ZM44.2324 710.195C42.8001 710.195 41.6348 709.727 40.7363 708.789C39.8379 707.845 39.3887 706.585 39.3887 705.01V704.678C39.3887 703.63 39.5872 702.695 39.9844 701.875C40.388 701.048 40.9479 700.404 41.6641 699.941C42.3867 699.473 43.168 699.238 44.0078 699.238C45.3815 699.238 46.4492 699.691 47.2109 700.596C47.9727 701.501 48.3535 702.796 48.3535 704.482V705.234H41.1953C41.2214 706.276 41.5241 707.119 42.1035 707.764C42.6895 708.402 43.4316 708.721 44.3301 708.721C44.9681 708.721 45.5085 708.59 45.9512 708.33C46.3939 708.07 46.7812 707.725 47.1133 707.295L48.2168 708.154C47.3314 709.515 46.0033 710.195 44.2324 710.195ZM44.0078 700.723C43.2786 700.723 42.6667 700.99 42.1719 701.523C41.6771 702.051 41.3711 702.793 41.2539 703.75H46.5469V703.613C46.4948 702.695 46.2474 701.986 45.8047 701.484C45.362 700.977 44.763 700.723 44.0078 700.723ZM54.9746 704.629C54.9746 703.008 55.3587 701.706 56.127 700.723C56.8952 699.733 57.901 699.238 59.1445 699.238C60.3815 699.238 61.3613 699.661 62.084 700.508V695H63.8906V710H62.2305L62.1426 708.867C61.4199 709.753 60.4141 710.195 59.125 710.195C57.901 710.195 56.9017 709.694 56.127 708.691C55.3587 707.689 54.9746 706.38 54.9746 704.766V704.629ZM56.7812 704.834C56.7812 706.032 57.0286 706.969 57.5234 707.646C58.0182 708.324 58.7018 708.662 59.5742 708.662C60.7201 708.662 61.5566 708.148 62.084 707.119V702.266C61.5436 701.27 60.7135 700.771 59.5938 700.771C58.7083 700.771 58.0182 701.113 57.5234 701.797C57.0286 702.48 56.7812 703.493 56.7812 704.834ZM71.0879 710.195C69.6556 710.195 68.4902 709.727 67.5918 708.789C66.6934 707.845 66.2441 706.585 66.2441 705.01V704.678C66.2441 703.63 66.4427 702.695 66.8398 701.875C67.2435 701.048 67.8034 700.404 68.5195 699.941C69.2422 699.473 70.0234 699.238 70.8633 699.238C72.237 699.238 73.3047 699.691 74.0664 700.596C74.8281 701.501 75.209 702.796 75.209 704.482V705.234H68.0508C68.0768 706.276 68.3796 707.119 68.959 707.764C69.5449 708.402 70.2871 708.721 71.1855 708.721C71.8236 708.721 72.3639 708.59 72.8066 708.33C73.2493 708.07 73.6367 707.725 73.9688 707.295L75.0723 708.154C74.1868 709.515 72.8587 710.195 71.0879 710.195ZM70.8633 700.723C70.1341 700.723 69.5221 700.99 69.0273 701.523C68.5326 702.051 68.2266 702.793 68.1094 703.75H73.4023V703.613C73.3503 702.695 73.1029 701.986 72.6602 701.484C72.2174 700.977 71.6185 700.723 70.8633 700.723ZM91.1953 704.834C91.1953 706.442 90.8275 707.738 90.0918 708.721C89.3561 709.704 88.36 710.195 87.1035 710.195C85.821 710.195 84.8118 709.788 84.0762 708.975V714.062H82.2695V699.434H83.9199L84.0078 700.605C84.7435 699.694 85.7656 699.238 87.0742 699.238C88.3438 699.238 89.3464 699.717 90.082 700.674C90.8242 701.631 91.1953 702.962 91.1953 704.668V704.834ZM89.3887 704.629C89.3887 703.438 89.1348 702.497 88.627 701.807C88.1191 701.117 87.4225 700.771 86.5371 700.771C85.4434 700.771 84.623 701.257 84.0762 702.227V707.275C84.6165 708.239 85.4434 708.721 86.5566 708.721C87.4225 708.721 88.1094 708.379 88.6172 707.695C89.1315 707.005 89.3887 705.983 89.3887 704.629ZM100.023 710C99.9193 709.792 99.8346 709.421 99.7695 708.887C98.9297 709.759 97.9271 710.195 96.7617 710.195C95.7201 710.195 94.8639 709.902 94.1934 709.316C93.5293 708.724 93.1973 707.975 93.1973 707.07C93.1973 705.97 93.6139 705.117 94.4473 704.512C95.2871 703.9 96.4655 703.594 97.9824 703.594H99.7402V702.764C99.7402 702.132 99.5514 701.631 99.1738 701.26C98.7962 700.882 98.2396 700.693 97.5039 700.693C96.8594 700.693 96.319 700.856 95.8828 701.182C95.4466 701.507 95.2285 701.901 95.2285 702.363H93.4121C93.4121 701.836 93.5977 701.328 93.9688 700.84C94.3464 700.345 94.8542 699.954 95.4922 699.668C96.1367 699.382 96.8431 699.238 97.6113 699.238C98.8288 699.238 99.7826 699.544 100.473 700.156C101.163 700.762 101.521 701.598 101.547 702.666V707.529C101.547 708.499 101.671 709.271 101.918 709.844V710H100.023ZM97.0254 708.623C97.5918 708.623 98.1289 708.477 98.6367 708.184C99.1445 707.891 99.5124 707.51 99.7402 707.041V704.873H98.3242C96.1107 704.873 95.0039 705.521 95.0039 706.816C95.0039 707.383 95.1927 707.826 95.5703 708.145C95.9479 708.464 96.4329 708.623 97.0254 708.623ZM98.6953 695H100.883L98.2656 697.871H96.8105L98.6953 695ZM103.949 704.629C103.949 702.982 104.33 701.673 105.092 700.703C105.854 699.727 106.863 699.238 108.119 699.238C109.408 699.238 110.414 699.694 111.137 700.605L111.225 699.434H112.875V709.746C112.875 711.113 112.468 712.191 111.654 712.979C110.847 713.766 109.76 714.16 108.393 714.16C107.631 714.16 106.885 713.997 106.156 713.672C105.427 713.346 104.87 712.9 104.486 712.334L105.424 711.25C106.199 712.207 107.146 712.686 108.266 712.686C109.145 712.686 109.828 712.438 110.316 711.943C110.811 711.449 111.059 710.752 111.059 709.854V708.945C110.336 709.779 109.35 710.195 108.1 710.195C106.863 710.195 105.86 709.697 105.092 708.701C104.33 707.705 103.949 706.348 103.949 704.629ZM105.766 704.834C105.766 706.025 106.01 706.963 106.498 707.646C106.986 708.324 107.67 708.662 108.549 708.662C109.688 708.662 110.525 708.145 111.059 707.109V702.285C110.505 701.276 109.675 700.771 108.568 700.771C107.689 700.771 107.003 701.113 106.508 701.797C106.013 702.48 105.766 703.493 105.766 704.834ZM117.572 710H115.766V699.434H117.572V710ZM115.619 696.631C115.619 696.338 115.707 696.09 115.883 695.889C116.065 695.687 116.332 695.586 116.684 695.586C117.035 695.586 117.302 695.687 117.484 695.889C117.667 696.09 117.758 696.338 117.758 696.631C117.758 696.924 117.667 697.168 117.484 697.363C117.302 697.559 117.035 697.656 116.684 697.656C116.332 697.656 116.065 697.559 115.883 697.363C115.707 697.168 115.619 696.924 115.619 696.631ZM122.182 699.434L122.24 700.762C123.048 699.746 124.102 699.238 125.404 699.238C127.637 699.238 128.764 700.498 128.783 703.018V710H126.977V703.008C126.97 702.246 126.794 701.683 126.449 701.318C126.111 700.954 125.58 700.771 124.857 700.771C124.271 700.771 123.757 700.928 123.314 701.24C122.872 701.553 122.527 701.963 122.279 702.471V710H120.473V699.434H122.182ZM138.031 710C137.927 709.792 137.842 709.421 137.777 708.887C136.938 709.759 135.935 710.195 134.77 710.195C133.728 710.195 132.872 709.902 132.201 709.316C131.537 708.724 131.205 707.975 131.205 707.07C131.205 705.97 131.622 705.117 132.455 704.512C133.295 703.9 134.473 703.594 135.99 703.594H137.748V702.764C137.748 702.132 137.559 701.631 137.182 701.26C136.804 700.882 136.247 700.693 135.512 700.693C134.867 700.693 134.327 700.856 133.891 701.182C133.454 701.507 133.236 701.901 133.236 702.363H131.42C131.42 701.836 131.605 701.328 131.977 700.84C132.354 700.345 132.862 699.954 133.5 699.668C134.145 699.382 134.851 699.238 135.619 699.238C136.837 699.238 137.79 699.544 138.48 700.156C139.171 700.762 139.529 701.598 139.555 702.666V707.529C139.555 708.499 139.678 709.271 139.926 709.844V710H138.031ZM135.033 708.623C135.6 708.623 136.137 708.477 136.645 708.184C137.152 707.891 137.52 707.51 137.748 707.041V704.873H136.332C134.118 704.873 133.012 705.521 133.012 706.816C133.012 707.383 133.201 707.826 133.578 708.145C133.956 708.464 134.441 708.623 135.033 708.623Z" fill="black"/>
<path d="M0 82H485V152H0V82Z" fill="#EBFFFE"/>
<path d="M33.8633 120H30.9102V102.938H33.8633V120ZM39.875 107.32L39.957 108.785C40.8945 107.652 42.125 107.086 43.6484 107.086C46.2891 107.086 47.6328 108.598 47.6797 111.621V120H44.832V111.785C44.832 110.98 44.6562 110.387 44.3047 110.004C43.9609 109.613 43.3945 109.418 42.6055 109.418C41.457 109.418 40.6016 109.938 40.0391 110.977V120H37.1914V107.32H39.875ZM53.6211 120H50.7734V107.32H53.6211V120ZM50.5977 104.027C50.5977 103.59 50.7344 103.227 51.0078 102.938C51.2891 102.648 51.6875 102.504 52.2031 102.504C52.7188 102.504 53.1172 102.648 53.3984 102.938C53.6797 103.227 53.8203 103.59 53.8203 104.027C53.8203 104.457 53.6797 104.816 53.3984 105.105C53.1172 105.387 52.7188 105.527 52.2031 105.527C51.6875 105.527 51.2891 105.387 51.0078 105.105C50.7344 104.816 50.5977 104.457 50.5977 104.027ZM61.9414 117.961C62.6523 117.961 63.2422 117.754 63.7109 117.34C64.1797 116.926 64.4297 116.414 64.4609 115.805H67.1445C67.1133 116.594 66.8672 117.332 66.4062 118.02C65.9453 118.699 65.3203 119.238 64.5312 119.637C63.7422 120.035 62.8906 120.234 61.9766 120.234C60.2031 120.234 58.7969 119.66 57.7578 118.512C56.7188 117.363 56.1992 115.777 56.1992 113.754V113.461C56.1992 111.531 56.7148 109.988 57.7461 108.832C58.7773 107.668 60.1836 107.086 61.9648 107.086C63.4727 107.086 64.6992 107.527 65.6445 108.41C66.5977 109.285 67.0977 110.438 67.1445 111.867H64.4609C64.4297 111.141 64.1797 110.543 63.7109 110.074C63.25 109.605 62.6602 109.371 61.9414 109.371C61.0195 109.371 60.3086 109.707 59.8086 110.379C59.3086 111.043 59.0547 112.055 59.0469 113.414V113.871C59.0469 115.246 59.293 116.273 59.7852 116.953C60.2852 117.625 61.0039 117.961 61.9414 117.961ZM72.3242 120H69.4766V107.32H72.3242V120ZM69.3008 104.027C69.3008 103.59 69.4375 103.227 69.7109 102.938C69.9922 102.648 70.3906 102.504 70.9062 102.504C71.4219 102.504 71.8203 102.648 72.1016 102.938C72.3828 103.227 72.5234 103.59 72.5234 104.027C72.5234 104.457 72.3828 104.816 72.1016 105.105C71.8203 105.387 71.4219 105.527 70.9062 105.527C70.3906 105.527 69.9922 105.387 69.7109 105.105C69.4375 104.816 69.3008 104.457 69.3008 104.027ZM74.9023 113.543C74.9023 112.301 75.1484 111.184 75.6406 110.191C76.1328 109.191 76.8242 108.426 77.7148 107.895C78.6055 107.355 79.6289 107.086 80.7852 107.086C82.4961 107.086 83.8828 107.637 84.9453 108.738C86.0156 109.84 86.5938 111.301 86.6797 113.121L86.6914 113.789C86.6914 115.039 86.4492 116.156 85.9648 117.141C85.4883 118.125 84.8008 118.887 83.9023 119.426C83.0117 119.965 81.9805 120.234 80.8086 120.234C79.0195 120.234 77.5859 119.641 76.5078 118.453C75.4375 117.258 74.9023 115.668 74.9023 113.684V113.543ZM77.75 113.789C77.75 115.094 78.0195 116.117 78.5586 116.859C79.0977 117.594 79.8477 117.961 80.8086 117.961C81.7695 117.961 82.5156 117.586 83.0469 116.836C83.5859 116.086 83.8555 114.988 83.8555 113.543C83.8555 112.262 83.5781 111.246 83.0234 110.496C82.4766 109.746 81.7305 109.371 80.7852 109.371C79.8555 109.371 79.1172 109.742 78.5703 110.484C78.0234 111.219 77.75 112.32 77.75 113.789Z" fill="black"/>
<path d="M151.863 120H148.91V102.938H151.863V120ZM157.875 107.32L157.957 108.785C158.895 107.652 160.125 107.086 161.648 107.086C164.289 107.086 165.633 108.598 165.68 111.621V120H162.832V111.785C162.832 110.98 162.656 110.387 162.305 110.004C161.961 109.613 161.395 109.418 160.605 109.418C159.457 109.418 158.602 109.938 158.039 110.977V120H155.191V107.32H157.875ZM175.699 116.555C175.699 116.047 175.488 115.66 175.066 115.395C174.652 115.129 173.961 114.895 172.992 114.691C172.023 114.488 171.215 114.23 170.566 113.918C169.145 113.23 168.434 112.234 168.434 110.93C168.434 109.836 168.895 108.922 169.816 108.188C170.738 107.453 171.91 107.086 173.332 107.086C174.848 107.086 176.07 107.461 177 108.211C177.938 108.961 178.406 109.934 178.406 111.129H175.559C175.559 110.582 175.355 110.129 174.949 109.77C174.543 109.402 174.004 109.219 173.332 109.219C172.707 109.219 172.195 109.363 171.797 109.652C171.406 109.941 171.211 110.328 171.211 110.812C171.211 111.25 171.395 111.59 171.762 111.832C172.129 112.074 172.871 112.32 173.988 112.57C175.105 112.812 175.98 113.105 176.613 113.449C177.254 113.785 177.727 114.191 178.031 114.668C178.344 115.145 178.5 115.723 178.5 116.402C178.5 117.543 178.027 118.469 177.082 119.18C176.137 119.883 174.898 120.234 173.367 120.234C172.328 120.234 171.402 120.047 170.59 119.672C169.777 119.297 169.145 118.781 168.691 118.125C168.238 117.469 168.012 116.762 168.012 116.004H170.777C170.816 116.676 171.07 117.195 171.539 117.562C172.008 117.922 172.629 118.102 173.402 118.102C174.152 118.102 174.723 117.961 175.113 117.68C175.504 117.391 175.699 117.016 175.699 116.555ZM184.559 104.238V107.32H186.797V109.43H184.559V116.508C184.559 116.992 184.652 117.344 184.84 117.562C185.035 117.773 185.379 117.879 185.871 117.879C186.199 117.879 186.531 117.84 186.867 117.762V119.965C186.219 120.145 185.594 120.234 184.992 120.234C182.805 120.234 181.711 119.027 181.711 116.613V109.43H179.625V107.32H181.711V104.238H184.559ZM195.621 109.922C195.246 109.859 194.859 109.828 194.461 109.828C193.156 109.828 192.277 110.328 191.824 111.328V120H188.977V107.32H191.695L191.766 108.738C192.453 107.637 193.406 107.086 194.625 107.086C195.031 107.086 195.367 107.141 195.633 107.25L195.621 109.922ZM205.102 118.758C204.266 119.742 203.078 120.234 201.539 120.234C200.164 120.234 199.121 119.832 198.41 119.027C197.707 118.223 197.355 117.059 197.355 115.535V107.32H200.203V115.5C200.203 117.109 200.871 117.914 202.207 117.914C203.59 117.914 204.523 117.418 205.008 116.426V107.32H207.855V120H205.172L205.102 118.758ZM215.965 117.961C216.676 117.961 217.266 117.754 217.734 117.34C218.203 116.926 218.453 116.414 218.484 115.805H221.168C221.137 116.594 220.891 117.332 220.43 118.02C219.969 118.699 219.344 119.238 218.555 119.637C217.766 120.035 216.914 120.234 216 120.234C214.227 120.234 212.82 119.66 211.781 118.512C210.742 117.363 210.223 115.777 210.223 113.754V113.461C210.223 111.531 210.738 109.988 211.77 108.832C212.801 107.668 214.207 107.086 215.988 107.086C217.496 107.086 218.723 107.527 219.668 108.41C220.621 109.285 221.121 110.438 221.168 111.867H218.484C218.453 111.141 218.203 110.543 217.734 110.074C217.273 109.605 216.684 109.371 215.965 109.371C215.043 109.371 214.332 109.707 213.832 110.379C213.332 111.043 213.078 112.055 213.07 113.414V113.871C213.07 115.246 213.316 116.273 213.809 116.953C214.309 117.625 215.027 117.961 215.965 117.961ZM228.527 117.961C229.238 117.961 229.828 117.754 230.297 117.34C230.766 116.926 231.016 116.414 231.047 115.805H233.73C233.699 116.594 233.453 117.332 232.992 118.02C232.531 118.699 231.906 119.238 231.117 119.637C230.328 120.035 229.477 120.234 228.562 120.234C226.789 120.234 225.383 119.66 224.344 118.512C223.305 117.363 222.785 115.777 222.785 113.754V113.461C222.785 111.531 223.301 109.988 224.332 108.832C225.363 107.668 226.77 107.086 228.551 107.086C230.059 107.086 231.285 107.527 232.23 108.41C233.184 109.285 233.684 110.438 233.73 111.867H231.047C231.016 111.141 230.766 110.543 230.297 110.074C229.836 109.605 229.246 109.371 228.527 109.371C227.605 109.371 226.895 109.707 226.395 110.379C225.895 111.043 225.641 112.055 225.633 113.414V113.871C225.633 115.246 225.879 116.273 226.371 116.953C226.871 117.625 227.59 117.961 228.527 117.961ZM238.91 120H236.062V107.32H238.91V120ZM235.887 104.027C235.887 103.59 236.023 103.227 236.297 102.938C236.578 102.648 236.977 102.504 237.492 102.504C238.008 102.504 238.406 102.648 238.688 102.938C238.969 103.227 239.109 103.59 239.109 104.027C239.109 104.457 238.969 104.816 238.688 105.105C238.406 105.387 238.008 105.527 237.492 105.527C236.977 105.527 236.578 105.387 236.297 105.105C236.023 104.816 235.887 104.457 235.887 104.027ZM241.488 113.543C241.488 112.301 241.734 111.184 242.227 110.191C242.719 109.191 243.41 108.426 244.301 107.895C245.191 107.355 246.215 107.086 247.371 107.086C249.082 107.086 250.469 107.637 251.531 108.738C252.602 109.84 253.18 111.301 253.266 113.121L253.277 113.789C253.277 115.039 253.035 116.156 252.551 117.141C252.074 118.125 251.387 118.887 250.488 119.426C249.598 119.965 248.566 120.234 247.395 120.234C245.605 120.234 244.172 119.641 243.094 118.453C242.023 117.258 241.488 115.668 241.488 113.684V113.543ZM244.336 113.789C244.336 115.094 244.605 116.117 245.145 116.859C245.684 117.594 246.434 117.961 247.395 117.961C248.355 117.961 249.102 117.586 249.633 116.836C250.172 116.086 250.441 114.988 250.441 113.543C250.441 112.262 250.164 111.246 249.609 110.496C249.062 109.746 248.316 109.371 247.371 109.371C246.441 109.371 245.703 109.742 245.156 110.484C244.609 111.219 244.336 112.32 244.336 113.789ZM258.328 107.32L258.41 108.785C259.348 107.652 260.578 107.086 262.102 107.086C264.742 107.086 266.086 108.598 266.133 111.621V120H263.285V111.785C263.285 110.98 263.109 110.387 262.758 110.004C262.414 109.613 261.848 109.418 261.059 109.418C259.91 109.418 259.055 109.938 258.492 110.977V120H255.645V107.32H258.328ZM274.629 120.234C272.824 120.234 271.359 119.668 270.234 118.535C269.117 117.395 268.559 115.879 268.559 113.988V113.637C268.559 112.371 268.801 111.242 269.285 110.25C269.777 109.25 270.465 108.473 271.348 107.918C272.23 107.363 273.215 107.086 274.301 107.086C276.027 107.086 277.359 107.637 278.297 108.738C279.242 109.84 279.715 111.398 279.715 113.414V114.562H271.43C271.516 115.609 271.863 116.438 272.473 117.047C273.09 117.656 273.863 117.961 274.793 117.961C276.098 117.961 277.16 117.434 277.98 116.379L279.516 117.844C279.008 118.602 278.328 119.191 277.477 119.613C276.633 120.027 275.684 120.234 274.629 120.234ZM274.289 109.371C273.508 109.371 272.875 109.645 272.391 110.191C271.914 110.738 271.609 111.5 271.477 112.477H276.902V112.266C276.84 111.312 276.586 110.594 276.141 110.109C275.695 109.617 275.078 109.371 274.289 109.371ZM289.043 116.555C289.043 116.047 288.832 115.66 288.41 115.395C287.996 115.129 287.305 114.895 286.336 114.691C285.367 114.488 284.559 114.23 283.91 113.918C282.488 113.23 281.777 112.234 281.777 110.93C281.777 109.836 282.238 108.922 283.16 108.188C284.082 107.453 285.254 107.086 286.676 107.086C288.191 107.086 289.414 107.461 290.344 108.211C291.281 108.961 291.75 109.934 291.75 111.129H288.902C288.902 110.582 288.699 110.129 288.293 109.77C287.887 109.402 287.348 109.219 286.676 109.219C286.051 109.219 285.539 109.363 285.141 109.652C284.75 109.941 284.555 110.328 284.555 110.812C284.555 111.25 284.738 111.59 285.105 111.832C285.473 112.074 286.215 112.32 287.332 112.57C288.449 112.812 289.324 113.105 289.957 113.449C290.598 113.785 291.07 114.191 291.375 114.668C291.688 115.145 291.844 115.723 291.844 116.402C291.844 117.543 291.371 118.469 290.426 119.18C289.48 119.883 288.242 120.234 286.711 120.234C285.672 120.234 284.746 120.047 283.934 119.672C283.121 119.297 282.488 118.781 282.035 118.125C281.582 117.469 281.355 116.762 281.355 116.004H284.121C284.16 116.676 284.414 117.195 284.883 117.562C285.352 117.922 285.973 118.102 286.746 118.102C287.496 118.102 288.066 117.961 288.457 117.68C288.848 117.391 289.043 117.016 289.043 116.555Z" fill="black"/>
<path d="M0 82V81H-1V82H0ZM485 82H486V81H485V82ZM485 152V153H486V152H485ZM0 152H-1V153H0V152ZM0 83H485V81H0V83ZM484 82V152H486V82H484ZM485 151H0V153H485V151ZM1 152V82H-1V152H1Z" fill="white"/>
<path d="M0 0H485V83H0V0Z" fill="#11D0C5"/>
<path d="M30.4746 28.3242H25.9043V41H24.0391V28.3242H19.4785V26.7812H30.4746V28.3242ZM34.2637 41H32.4473V30.4336H34.2637V41ZM34.2832 26.0098H36.4707L33.8535 28.8809H32.3984L34.2832 26.0098ZM39.6934 27.875V30.4336H41.666V31.8301H39.6934V38.3828C39.6934 38.806 39.7812 39.125 39.957 39.3398C40.1328 39.5482 40.4323 39.6523 40.8555 39.6523C41.0638 39.6523 41.3503 39.6133 41.7148 39.5352V41C41.2396 41.1302 40.7773 41.1953 40.3281 41.1953C39.5208 41.1953 38.9121 40.9512 38.502 40.4629C38.0918 39.9746 37.8867 39.2812 37.8867 38.3828V31.8301H35.9629V30.4336H37.8867V27.875H39.6934ZM50.3086 39.9551C49.6055 40.7819 48.5736 41.1953 47.2129 41.1953C46.0866 41.1953 45.2272 40.8698 44.6348 40.2188C44.0488 39.5612 43.7526 38.5911 43.7461 37.3086V30.4336H45.5527V37.2598C45.5527 38.8613 46.2038 39.6621 47.5059 39.6621C48.8861 39.6621 49.804 39.1478 50.2598 38.1191V30.4336H52.0664V41H50.3477L50.3086 39.9551ZM56.7832 41H54.9766V26H56.7832V41ZM59.2051 35.6191C59.2051 34.584 59.4069 33.653 59.8105 32.8262C60.2207 31.9993 60.7871 31.3613 61.5098 30.9121C62.2389 30.4629 63.069 30.2383 64 30.2383C65.4388 30.2383 66.6009 30.7363 67.4863 31.7324C68.3783 32.7285 68.8242 34.0534 68.8242 35.707V35.834C68.8242 36.8626 68.6257 37.7871 68.2285 38.6074C67.8379 39.4212 67.2747 40.056 66.5391 40.5117C65.8099 40.9674 64.9701 41.1953 64.0195 41.1953C62.5872 41.1953 61.4251 40.6973 60.5332 39.7012C59.6478 38.7051 59.2051 37.3867 59.2051 35.7461V35.6191ZM61.0215 35.834C61.0215 37.0059 61.2917 37.9466 61.832 38.6562C62.3789 39.3659 63.1081 39.7207 64.0195 39.7207C64.9375 39.7207 65.6667 39.3626 66.207 38.6465C66.7474 37.9238 67.0176 36.9147 67.0176 35.6191C67.0176 34.4603 66.7409 33.5228 66.1875 32.8066C65.6406 32.084 64.9115 31.7227 64 31.7227C63.1081 31.7227 62.3887 32.0775 61.8418 32.7871C61.2949 33.4967 61.0215 34.5124 61.0215 35.834ZM75.6113 35.6289C75.6113 34.0078 75.9954 32.7057 76.7637 31.7227C77.5319 30.7331 78.5378 30.2383 79.7812 30.2383C81.0182 30.2383 81.998 30.6615 82.7207 31.5078V26H84.5273V41H82.8672L82.7793 39.8672C82.0566 40.7526 81.0508 41.1953 79.7617 41.1953C78.5378 41.1953 77.5384 40.694 76.7637 39.6914C75.9954 38.6888 75.6113 37.3802 75.6113 35.7656V35.6289ZM77.418 35.834C77.418 37.0319 77.6654 37.9694 78.1602 38.6465C78.6549 39.3236 79.3385 39.6621 80.2109 39.6621C81.3568 39.6621 82.1934 39.1478 82.7207 38.1191V33.2656C82.1803 32.2695 81.3503 31.7715 80.2305 31.7715C79.3451 31.7715 78.6549 32.1133 78.1602 32.7969C77.6654 33.4805 77.418 34.4928 77.418 35.834ZM91.7246 41.1953C90.2923 41.1953 89.127 40.7266 88.2285 39.7891C87.3301 38.8451 86.8809 37.5853 86.8809 36.0098V35.6777C86.8809 34.6296 87.0794 33.6953 87.4766 32.875C87.8802 32.0482 88.4401 31.4036 89.1562 30.9414C89.8789 30.4727 90.6602 30.2383 91.5 30.2383C92.8737 30.2383 93.9414 30.6908 94.7031 31.5957C95.4648 32.5007 95.8457 33.7962 95.8457 35.4824V36.2344H88.6875C88.7135 37.276 89.0163 38.1191 89.5957 38.7637C90.1816 39.4017 90.9238 39.7207 91.8223 39.7207C92.4603 39.7207 93.0007 39.5905 93.4434 39.3301C93.8861 39.0697 94.2734 38.7246 94.6055 38.2949L95.709 39.1543C94.8236 40.515 93.4954 41.1953 91.7246 41.1953ZM91.5 31.7227C90.7708 31.7227 90.1589 31.9896 89.6641 32.5234C89.1693 33.0508 88.8633 33.793 88.7461 34.75H94.0391V34.6133C93.987 33.6953 93.7396 32.9857 93.2969 32.4844C92.8542 31.9766 92.2552 31.7227 91.5 31.7227ZM104.869 41H103.062V26H104.869V41ZM114.293 41C114.189 40.7917 114.104 40.4206 114.039 39.8867C113.199 40.7591 112.197 41.1953 111.031 41.1953C109.99 41.1953 109.133 40.9023 108.463 40.3164C107.799 39.724 107.467 38.9753 107.467 38.0703C107.467 36.9701 107.883 36.1172 108.717 35.5117C109.557 34.8997 110.735 34.5938 112.252 34.5938H114.01V33.7637C114.01 33.1322 113.821 32.6309 113.443 32.2598C113.066 31.8822 112.509 31.6934 111.773 31.6934C111.129 31.6934 110.589 31.8561 110.152 32.1816C109.716 32.5072 109.498 32.901 109.498 33.3633H107.682C107.682 32.8359 107.867 32.3281 108.238 31.8398C108.616 31.3451 109.124 30.9544 109.762 30.668C110.406 30.3815 111.113 30.2383 111.881 30.2383C113.098 30.2383 114.052 30.5443 114.742 31.1562C115.432 31.7617 115.79 32.5983 115.816 33.666V38.5293C115.816 39.4993 115.94 40.2708 116.188 40.8438V41H114.293ZM111.295 39.623C111.861 39.623 112.398 39.4766 112.906 39.1836C113.414 38.8906 113.782 38.5098 114.01 38.041V35.873H112.594C110.38 35.873 109.273 36.5208 109.273 37.8164C109.273 38.3828 109.462 38.8255 109.84 39.1445C110.217 39.4635 110.702 39.623 111.295 39.623ZM132.535 35.834C132.535 37.4421 132.167 38.7376 131.432 39.7207C130.696 40.7038 129.7 41.1953 128.443 41.1953C127.161 41.1953 126.152 40.7884 125.416 39.9746V45.0625H123.609V30.4336H125.26L125.348 31.6055C126.083 30.694 127.105 30.2383 128.414 30.2383C129.684 30.2383 130.686 30.7168 131.422 31.6738C132.164 32.6309 132.535 33.9622 132.535 35.668V35.834ZM130.729 35.6289C130.729 34.4375 130.475 33.4967 129.967 32.8066C129.459 32.1165 128.762 31.7715 127.877 31.7715C126.783 31.7715 125.963 32.2565 125.416 33.2266V38.2754C125.956 39.2389 126.783 39.7207 127.896 39.7207C128.762 39.7207 129.449 39.3789 129.957 38.6953C130.471 38.0052 130.729 36.9831 130.729 35.6289ZM141.363 41C141.259 40.7917 141.174 40.4206 141.109 39.8867C140.27 40.7591 139.267 41.1953 138.102 41.1953C137.06 41.1953 136.204 40.9023 135.533 40.3164C134.869 39.724 134.537 38.9753 134.537 38.0703C134.537 36.9701 134.954 36.1172 135.787 35.5117C136.627 34.8997 137.805 34.5938 139.322 34.5938H141.08V33.7637C141.08 33.1322 140.891 32.6309 140.514 32.2598C140.136 31.8822 139.579 31.6934 138.844 31.6934C138.199 31.6934 137.659 31.8561 137.223 32.1816C136.786 32.5072 136.568 32.901 136.568 33.3633H134.752C134.752 32.8359 134.938 32.3281 135.309 31.8398C135.686 31.3451 136.194 30.9544 136.832 30.668C137.477 30.3815 138.183 30.2383 138.951 30.2383C140.169 30.2383 141.122 30.5443 141.812 31.1562C142.503 31.7617 142.861 32.5983 142.887 33.666V38.5293C142.887 39.4993 143.01 40.2708 143.258 40.8438V41H141.363ZM138.365 39.623C138.932 39.623 139.469 39.4766 139.977 39.1836C140.484 38.8906 140.852 38.5098 141.08 38.041V35.873H139.664C137.451 35.873 136.344 36.5208 136.344 37.8164C136.344 38.3828 136.533 38.8255 136.91 39.1445C137.288 39.4635 137.773 39.623 138.365 39.623ZM140.035 26H142.223L139.605 28.8711H138.15L140.035 26ZM145.289 35.6289C145.289 33.9818 145.67 32.6732 146.432 31.7031C147.193 30.7266 148.202 30.2383 149.459 30.2383C150.748 30.2383 151.754 30.694 152.477 31.6055L152.564 30.4336H154.215V40.7461C154.215 42.1133 153.808 43.1908 152.994 43.9785C152.187 44.7663 151.1 45.1602 149.732 45.1602C148.971 45.1602 148.225 44.9974 147.496 44.6719C146.767 44.3464 146.21 43.9004 145.826 43.334L146.764 42.25C147.538 43.207 148.486 43.6855 149.605 43.6855C150.484 43.6855 151.168 43.4382 151.656 42.9434C152.151 42.4486 152.398 41.752 152.398 40.8535V39.9453C151.676 40.7786 150.689 41.1953 149.439 41.1953C148.202 41.1953 147.2 40.6973 146.432 39.7012C145.67 38.7051 145.289 37.3477 145.289 35.6289ZM147.105 35.834C147.105 37.0254 147.35 37.9629 147.838 38.6465C148.326 39.3236 149.01 39.6621 149.889 39.6621C151.028 39.6621 151.865 39.1445 152.398 38.1094V33.2852C151.845 32.276 151.015 31.7715 149.908 31.7715C149.029 31.7715 148.342 32.1133 147.848 32.7969C147.353 33.4805 147.105 34.4928 147.105 35.834ZM158.912 41H157.105V30.4336H158.912V41ZM156.959 27.6309C156.959 27.3379 157.047 27.0905 157.223 26.8887C157.405 26.6868 157.672 26.5859 158.023 26.5859C158.375 26.5859 158.642 26.6868 158.824 26.8887C159.007 27.0905 159.098 27.3379 159.098 27.6309C159.098 27.9238 159.007 28.168 158.824 28.3633C158.642 28.5586 158.375 28.6562 158.023 28.6562C157.672 28.6562 157.405 28.5586 157.223 28.3633C157.047 28.168 156.959 27.9238 156.959 27.6309ZM163.521 30.4336L163.58 31.7617C164.387 30.7461 165.442 30.2383 166.744 30.2383C168.977 30.2383 170.104 31.498 170.123 34.0176V41H168.316V34.0078C168.31 33.2461 168.134 32.6829 167.789 32.3184C167.451 31.9538 166.92 31.7715 166.197 31.7715C165.611 31.7715 165.097 31.9277 164.654 32.2402C164.212 32.5527 163.867 32.9629 163.619 33.4707V41H161.812V30.4336H163.521ZM179.371 41C179.267 40.7917 179.182 40.4206 179.117 39.8867C178.277 40.7591 177.275 41.1953 176.109 41.1953C175.068 41.1953 174.212 40.9023 173.541 40.3164C172.877 39.724 172.545 38.9753 172.545 38.0703C172.545 36.9701 172.962 36.1172 173.795 35.5117C174.635 34.8997 175.813 34.5938 177.33 34.5938H179.088V33.7637C179.088 33.1322 178.899 32.6309 178.521 32.2598C178.144 31.8822 177.587 31.6934 176.852 31.6934C176.207 31.6934 175.667 31.8561 175.23 32.1816C174.794 32.5072 174.576 32.901 174.576 33.3633H172.76C172.76 32.8359 172.945 32.3281 173.316 31.8398C173.694 31.3451 174.202 30.9544 174.84 30.668C175.484 30.3815 176.191 30.2383 176.959 30.2383C178.176 30.2383 179.13 30.5443 179.82 31.1562C180.51 31.7617 180.868 32.5983 180.895 33.666V38.5293C180.895 39.4993 181.018 40.2708 181.266 40.8438V41H179.371ZM176.373 39.623C176.939 39.623 177.477 39.4766 177.984 39.1836C178.492 38.8906 178.86 38.5098 179.088 38.041V35.873H177.672C175.458 35.873 174.352 36.5208 174.352 37.8164C174.352 38.3828 174.54 38.8255 174.918 39.1445C175.296 39.4635 175.781 39.623 176.373 39.623Z" fill="black"/>
<path d="M0 0V-1H-1V0H0ZM485 0H486V-1H485V0ZM485 83V84H486V83H485ZM0 83H-1V84H0V83ZM0 1H485V-1H0V1ZM484 0V83H486V0H484ZM485 82H0V84H485V82ZM1 83V0H-1V83H1Z" fill="white"/>
<rect y="152" width="485" height="504" fill="white"/>
<rect x="185.5" y="217.5" width="271" height="34" fill="white" stroke="black"/>
<path d="M34.5781 239H32.6934L25.5352 228.043V239H23.6504V224.781H25.5352L32.7129 235.787V224.781H34.5781V239ZM37.1465 233.619C37.1465 232.584 37.3483 231.653 37.752 230.826C38.1621 229.999 38.7285 229.361 39.4512 228.912C40.1803 228.463 41.0104 228.238 41.9414 228.238C43.3802 228.238 44.5423 228.736 45.4277 229.732C46.3197 230.729 46.7656 232.053 46.7656 233.707V233.834C46.7656 234.863 46.5671 235.787 46.1699 236.607C45.7793 237.421 45.2161 238.056 44.4805 238.512C43.7513 238.967 42.9115 239.195 41.9609 239.195C40.5286 239.195 39.3665 238.697 38.4746 237.701C37.5892 236.705 37.1465 235.387 37.1465 233.746V233.619ZM38.9629 233.834C38.9629 235.006 39.2331 235.947 39.7734 236.656C40.3203 237.366 41.0495 237.721 41.9609 237.721C42.8789 237.721 43.6081 237.363 44.1484 236.646C44.6888 235.924 44.959 234.915 44.959 233.619C44.959 232.46 44.6823 231.523 44.1289 230.807C43.582 230.084 42.8529 229.723 41.9414 229.723C41.0495 229.723 40.3301 230.077 39.7832 230.787C39.2363 231.497 38.9629 232.512 38.9629 233.834ZM50.7305 228.434L50.7793 229.605C51.554 228.694 52.599 228.238 53.9141 228.238C55.3919 228.238 56.3978 228.805 56.9316 229.938C57.2832 229.43 57.7389 229.02 58.2988 228.707C58.8652 228.395 59.5326 228.238 60.3008 228.238C62.6185 228.238 63.7969 229.465 63.8359 231.92V239H62.0293V232.027C62.0293 231.272 61.8568 230.709 61.5117 230.338C61.1667 229.96 60.5872 229.771 59.7734 229.771C59.1029 229.771 58.5462 229.973 58.1035 230.377C57.6608 230.774 57.4036 231.311 57.332 231.988V239H55.5156V232.076C55.5156 230.54 54.7637 229.771 53.2598 229.771C52.0749 229.771 51.2643 230.276 50.8281 231.285V239H49.0215V228.434H50.7305ZM75.5156 233.834C75.5156 235.449 75.1445 236.747 74.4023 237.73C73.6602 238.707 72.6641 239.195 71.4141 239.195C70.0794 239.195 69.0475 238.723 68.3184 237.779L68.2305 239H66.5703V224H68.377V229.596C69.1061 228.691 70.112 228.238 71.3945 228.238C72.6771 228.238 73.6829 228.723 74.4121 229.693C75.1478 230.663 75.5156 231.992 75.5156 233.678V233.834ZM73.709 233.629C73.709 232.398 73.4714 231.448 72.9961 230.777C72.5208 230.107 71.8372 229.771 70.9453 229.771C69.7539 229.771 68.8978 230.325 68.377 231.432V236.002C68.9303 237.109 69.793 237.662 70.9648 237.662C71.8307 237.662 72.5046 237.327 72.9863 236.656C73.4681 235.986 73.709 234.977 73.709 233.629ZM82.9082 230.055C82.6348 230.009 82.3385 229.986 82.0195 229.986C80.8346 229.986 80.0306 230.491 79.6074 231.5V239H77.8008V228.434H79.5586L79.5879 229.654C80.1803 228.71 81.0202 228.238 82.1074 228.238C82.459 228.238 82.7259 228.284 82.9082 228.375V230.055ZM88.7676 239.195C87.3353 239.195 86.1699 238.727 85.2715 237.789C84.373 236.845 83.9238 235.585 83.9238 234.01V233.678C83.9238 232.63 84.1224 231.695 84.5195 230.875C84.9232 230.048 85.4831 229.404 86.1992 228.941C86.9219 228.473 87.7031 228.238 88.543 228.238C89.9167 228.238 90.9844 228.691 91.7461 229.596C92.5078 230.501 92.8887 231.796 92.8887 233.482V234.234H85.7305C85.7565 235.276 86.0592 236.119 86.6387 236.764C87.2246 237.402 87.9668 237.721 88.8652 237.721C89.5033 237.721 90.0436 237.59 90.4863 237.33C90.929 237.07 91.3164 236.725 91.6484 236.295L92.752 237.154C91.8665 238.515 90.5384 239.195 88.7676 239.195ZM88.543 229.723C87.8138 229.723 87.2018 229.99 86.707 230.523C86.2122 231.051 85.9062 231.793 85.7891 232.75H91.082V232.613C91.0299 231.695 90.7826 230.986 90.3398 230.484C89.8971 229.977 89.2982 229.723 88.543 229.723ZM94.9297 238.053C94.9297 237.74 95.0208 237.48 95.2031 237.271C95.3919 237.063 95.6719 236.959 96.043 236.959C96.4141 236.959 96.694 237.063 96.8828 237.271C97.0781 237.48 97.1758 237.74 97.1758 238.053C97.1758 238.352 97.0781 238.603 96.8828 238.805C96.694 239.007 96.4141 239.107 96.043 239.107C95.6719 239.107 95.3919 239.007 95.2031 238.805C95.0208 238.603 94.9297 238.352 94.9297 238.053ZM94.9395 229.43C94.9395 229.117 95.0306 228.857 95.2129 228.648C95.4017 228.44 95.6816 228.336 96.0527 228.336C96.4238 228.336 96.7038 228.44 96.8926 228.648C97.0879 228.857 97.1855 229.117 97.1855 229.43C97.1855 229.729 97.0879 229.98 96.8926 230.182C96.7038 230.383 96.4238 230.484 96.0527 230.484C95.6816 230.484 95.4017 230.383 95.2129 230.182C95.0306 229.98 94.9395 229.729 94.9395 229.43Z" fill="black"/>
<rect x="22.5" y="321.5" width="160" height="50" rx="13.5" fill="#10B6AC" stroke="black"/>
<rect x="243.5" y="321.5" width="160" height="50" rx="13.5" fill="white" stroke="black"/>
<path d="M72.502 350.289H66.5449L65.207 354H63.2734L68.7031 339.781H70.3438L75.7832 354H73.8594L72.502 350.289ZM67.1113 348.746H71.9453L69.5234 342.096L67.1113 348.746ZM81.6523 352.721C82.2969 352.721 82.86 352.525 83.3418 352.135C83.8236 351.744 84.0905 351.256 84.1426 350.67H85.8516C85.819 351.275 85.6107 351.852 85.2266 352.398C84.8424 352.945 84.3281 353.382 83.6836 353.707C83.0456 354.033 82.3685 354.195 81.6523 354.195C80.2135 354.195 79.0677 353.717 78.2148 352.76C77.3685 351.796 76.9453 350.481 76.9453 348.814V348.512C76.9453 347.483 77.1341 346.568 77.5117 345.768C77.8893 344.967 78.4297 344.345 79.1328 343.902C79.8424 343.46 80.679 343.238 81.6426 343.238C82.8275 343.238 83.8105 343.593 84.5918 344.303C85.3796 345.012 85.7995 345.934 85.8516 347.066H84.1426C84.0905 346.383 83.8301 345.823 83.3613 345.387C82.8991 344.944 82.3262 344.723 81.6426 344.723C80.7246 344.723 80.0117 345.055 79.5039 345.719C79.0026 346.376 78.752 347.33 78.752 348.58V348.922C78.752 350.139 79.0026 351.077 79.5039 351.734C80.0052 352.392 80.7214 352.721 81.6523 352.721ZM92.2676 354.195C90.8353 354.195 89.6699 353.727 88.7715 352.789C87.873 351.845 87.4238 350.585 87.4238 349.01V348.678C87.4238 347.63 87.6224 346.695 88.0195 345.875C88.4232 345.048 88.9831 344.404 89.6992 343.941C90.4219 343.473 91.2031 343.238 92.043 343.238C93.4167 343.238 94.4844 343.691 95.2461 344.596C96.0078 345.501 96.3887 346.796 96.3887 348.482V349.234H89.2305C89.2565 350.276 89.5592 351.119 90.1387 351.764C90.7246 352.402 91.4668 352.721 92.3652 352.721C93.0033 352.721 93.5436 352.59 93.9863 352.33C94.429 352.07 94.8164 351.725 95.1484 351.295L96.252 352.154C95.3665 353.515 94.0384 354.195 92.2676 354.195ZM92.043 344.723C91.3138 344.723 90.7018 344.99 90.207 345.523C89.7122 346.051 89.4062 346.793 89.2891 347.75H94.582V347.613C94.5299 346.695 94.2826 345.986 93.8398 345.484C93.3971 344.977 92.7982 344.723 92.043 344.723ZM107.414 348.834C107.414 350.442 107.046 351.738 106.311 352.721C105.575 353.704 104.579 354.195 103.322 354.195C102.04 354.195 101.031 353.788 100.295 352.975V358.062H98.4883V343.434H100.139L100.227 344.605C100.962 343.694 101.984 343.238 103.293 343.238C104.562 343.238 105.565 343.717 106.301 344.674C107.043 345.631 107.414 346.962 107.414 348.668V348.834ZM105.607 348.629C105.607 347.438 105.354 346.497 104.846 345.807C104.338 345.117 103.641 344.771 102.756 344.771C101.662 344.771 100.842 345.257 100.295 346.227V351.275C100.835 352.239 101.662 352.721 102.775 352.721C103.641 352.721 104.328 352.379 104.836 351.695C105.35 351.005 105.607 349.983 105.607 348.629ZM112.17 340.875V343.434H114.143V344.83H112.17V351.383C112.17 351.806 112.258 352.125 112.434 352.34C112.609 352.548 112.909 352.652 113.332 352.652C113.54 352.652 113.827 352.613 114.191 352.535V354C113.716 354.13 113.254 354.195 112.805 354.195C111.997 354.195 111.389 353.951 110.979 353.463C110.568 352.975 110.363 352.281 110.363 351.383V344.83H108.439V343.434H110.363V340.875H112.17ZM122.785 354C122.681 353.792 122.596 353.421 122.531 352.887C121.691 353.759 120.689 354.195 119.523 354.195C118.482 354.195 117.626 353.902 116.955 353.316C116.291 352.724 115.959 351.975 115.959 351.07C115.959 349.97 116.376 349.117 117.209 348.512C118.049 347.9 119.227 347.594 120.744 347.594H122.502V346.764C122.502 346.132 122.313 345.631 121.936 345.26C121.558 344.882 121.001 344.693 120.266 344.693C119.621 344.693 119.081 344.856 118.645 345.182C118.208 345.507 117.99 345.901 117.99 346.363H116.174C116.174 345.836 116.359 345.328 116.73 344.84C117.108 344.345 117.616 343.954 118.254 343.668C118.898 343.382 119.605 343.238 120.373 343.238C121.59 343.238 122.544 343.544 123.234 344.156C123.924 344.762 124.283 345.598 124.309 346.666V351.529C124.309 352.499 124.432 353.271 124.68 353.844V354H122.785ZM119.787 352.623C120.354 352.623 120.891 352.477 121.398 352.184C121.906 351.891 122.274 351.51 122.502 351.041V348.873H121.086C118.872 348.873 117.766 349.521 117.766 350.816C117.766 351.383 117.954 351.826 118.332 352.145C118.71 352.464 119.195 352.623 119.787 352.623ZM132.248 345.055C131.975 345.009 131.678 344.986 131.359 344.986C130.174 344.986 129.37 345.491 128.947 346.5V354H127.141V343.434H128.898L128.928 344.654C129.52 343.71 130.36 343.238 131.447 343.238C131.799 343.238 132.066 343.284 132.248 343.375V345.055Z" fill="black"/>
<path d="M293.109 349.488C292.934 350.992 292.377 352.154 291.439 352.975C290.508 353.788 289.268 354.195 287.719 354.195C286.039 354.195 284.691 353.593 283.676 352.389C282.667 351.184 282.162 349.573 282.162 347.555V346.188C282.162 344.866 282.396 343.704 282.865 342.701C283.34 341.699 284.011 340.93 284.877 340.396C285.743 339.856 286.745 339.586 287.885 339.586C289.395 339.586 290.606 340.009 291.518 340.855C292.429 341.695 292.96 342.861 293.109 344.352H291.225C291.062 343.219 290.707 342.398 290.16 341.891C289.62 341.383 288.861 341.129 287.885 341.129C286.687 341.129 285.746 341.572 285.062 342.457C284.385 343.342 284.047 344.602 284.047 346.236V347.613C284.047 349.156 284.369 350.383 285.014 351.295C285.658 352.206 286.56 352.662 287.719 352.662C288.76 352.662 289.558 352.428 290.111 351.959C290.671 351.484 291.042 350.66 291.225 349.488H293.109ZM301.918 354C301.814 353.792 301.729 353.421 301.664 352.887C300.824 353.759 299.822 354.195 298.656 354.195C297.615 354.195 296.758 353.902 296.088 353.316C295.424 352.724 295.092 351.975 295.092 351.07C295.092 349.97 295.508 349.117 296.342 348.512C297.182 347.9 298.36 347.594 299.877 347.594H301.635V346.764C301.635 346.132 301.446 345.631 301.068 345.26C300.691 344.882 300.134 344.693 299.398 344.693C298.754 344.693 298.214 344.856 297.777 345.182C297.341 345.507 297.123 345.901 297.123 346.363H295.307C295.307 345.836 295.492 345.328 295.863 344.84C296.241 344.345 296.749 343.954 297.387 343.668C298.031 343.382 298.738 343.238 299.506 343.238C300.723 343.238 301.677 343.544 302.367 344.156C303.057 344.762 303.415 345.598 303.441 346.666V351.529C303.441 352.499 303.565 353.271 303.812 353.844V354H301.918ZM298.92 352.623C299.486 352.623 300.023 352.477 300.531 352.184C301.039 351.891 301.407 351.51 301.635 351.041V348.873H300.219C298.005 348.873 296.898 349.521 296.898 350.816C296.898 351.383 297.087 351.826 297.465 352.145C297.842 352.464 298.327 352.623 298.92 352.623ZM307.982 343.434L308.041 344.762C308.848 343.746 309.903 343.238 311.205 343.238C313.438 343.238 314.564 344.498 314.584 347.018V354H312.777V347.008C312.771 346.246 312.595 345.683 312.25 345.318C311.911 344.954 311.381 344.771 310.658 344.771C310.072 344.771 309.558 344.928 309.115 345.24C308.673 345.553 308.327 345.963 308.08 346.471V354H306.273V343.434H307.982ZM321.547 352.721C322.191 352.721 322.755 352.525 323.236 352.135C323.718 351.744 323.985 351.256 324.037 350.67H325.746C325.714 351.275 325.505 351.852 325.121 352.398C324.737 352.945 324.223 353.382 323.578 353.707C322.94 354.033 322.263 354.195 321.547 354.195C320.108 354.195 318.962 353.717 318.109 352.76C317.263 351.796 316.84 350.481 316.84 348.814V348.512C316.84 347.483 317.029 346.568 317.406 345.768C317.784 344.967 318.324 344.345 319.027 343.902C319.737 343.46 320.574 343.238 321.537 343.238C322.722 343.238 323.705 343.593 324.486 344.303C325.274 345.012 325.694 345.934 325.746 347.066H324.037C323.985 346.383 323.725 345.823 323.256 345.387C322.794 344.944 322.221 344.723 321.537 344.723C320.619 344.723 319.906 345.055 319.398 345.719C318.897 346.376 318.646 347.33 318.646 348.58V348.922C318.646 350.139 318.897 351.077 319.398 351.734C319.9 352.392 320.616 352.721 321.547 352.721ZM332.162 354.195C330.73 354.195 329.564 353.727 328.666 352.789C327.768 351.845 327.318 350.585 327.318 349.01V348.678C327.318 347.63 327.517 346.695 327.914 345.875C328.318 345.048 328.878 344.404 329.594 343.941C330.316 343.473 331.098 343.238 331.938 343.238C333.311 343.238 334.379 343.691 335.141 344.596C335.902 345.501 336.283 346.796 336.283 348.482V349.234H329.125C329.151 350.276 329.454 351.119 330.033 351.764C330.619 352.402 331.361 352.721 332.26 352.721C332.898 352.721 333.438 352.59 333.881 352.33C334.324 352.07 334.711 351.725 335.043 351.295L336.146 352.154C335.261 353.515 333.933 354.195 332.162 354.195ZM331.938 344.723C331.208 344.723 330.596 344.99 330.102 345.523C329.607 346.051 329.301 346.793 329.184 347.75H334.477V347.613C334.424 346.695 334.177 345.986 333.734 345.484C333.292 344.977 332.693 344.723 331.938 344.723ZM340.346 354H338.539V339H340.346V354ZM349.77 354C349.665 353.792 349.581 353.421 349.516 352.887C348.676 353.759 347.673 354.195 346.508 354.195C345.466 354.195 344.61 353.902 343.939 353.316C343.275 352.724 342.943 351.975 342.943 351.07C342.943 349.97 343.36 349.117 344.193 348.512C345.033 347.9 346.212 347.594 347.729 347.594H349.486V346.764C349.486 346.132 349.298 345.631 348.92 345.26C348.542 344.882 347.986 344.693 347.25 344.693C346.605 344.693 346.065 344.856 345.629 345.182C345.193 345.507 344.975 345.901 344.975 346.363H343.158C343.158 345.836 343.344 345.328 343.715 344.84C344.092 344.345 344.6 343.954 345.238 343.668C345.883 343.382 346.589 343.238 347.357 343.238C348.575 343.238 349.529 343.544 350.219 344.156C350.909 344.762 351.267 345.598 351.293 346.666V351.529C351.293 352.499 351.417 353.271 351.664 353.844V354H349.77ZM346.771 352.623C347.338 352.623 347.875 352.477 348.383 352.184C348.891 351.891 349.258 351.51 349.486 351.041V348.873H348.07C345.857 348.873 344.75 349.521 344.75 350.816C344.75 351.383 344.939 351.826 345.316 352.145C345.694 352.464 346.179 352.623 346.771 352.623ZM359.232 345.055C358.959 345.009 358.663 344.986 358.344 344.986C357.159 344.986 356.355 345.491 355.932 346.5V354H354.125V343.434H355.883L355.912 344.654C356.505 343.71 357.344 343.238 358.432 343.238C358.783 343.238 359.05 343.284 359.232 343.375V345.055Z" fill="black"/>
<path d="M206.688 236.428H200.525V241.467H207.684V243H198.65V228.781H207.586V230.324H200.525V234.895H206.688V236.428ZM209.1 237.629C209.1 236.008 209.484 234.706 210.252 233.723C211.02 232.733 212.026 232.238 213.27 232.238C214.507 232.238 215.486 232.661 216.209 233.508V228H218.016V243H216.355L216.268 241.867C215.545 242.753 214.539 243.195 213.25 243.195C212.026 243.195 211.027 242.694 210.252 241.691C209.484 240.689 209.1 239.38 209.1 237.766V237.629ZM210.906 237.834C210.906 239.032 211.154 239.969 211.648 240.646C212.143 241.324 212.827 241.662 213.699 241.662C214.845 241.662 215.682 241.148 216.209 240.119V235.266C215.669 234.27 214.839 233.771 213.719 233.771C212.833 233.771 212.143 234.113 211.648 234.797C211.154 235.48 210.906 236.493 210.906 237.834ZM220.398 237.629C220.398 235.982 220.779 234.673 221.541 233.703C222.303 232.727 223.312 232.238 224.568 232.238C225.857 232.238 226.863 232.694 227.586 233.605L227.674 232.434H229.324V242.746C229.324 244.113 228.917 245.191 228.104 245.979C227.296 246.766 226.209 247.16 224.842 247.16C224.08 247.16 223.335 246.997 222.605 246.672C221.876 246.346 221.32 245.9 220.936 245.334L221.873 244.25C222.648 245.207 223.595 245.686 224.715 245.686C225.594 245.686 226.277 245.438 226.766 244.943C227.26 244.449 227.508 243.752 227.508 242.854V241.945C226.785 242.779 225.799 243.195 224.549 243.195C223.312 243.195 222.309 242.697 221.541 241.701C220.779 240.705 220.398 239.348 220.398 237.629ZM222.215 237.834C222.215 239.025 222.459 239.963 222.947 240.646C223.436 241.324 224.119 241.662 224.998 241.662C226.137 241.662 226.974 241.145 227.508 240.109V235.285C226.954 234.276 226.124 233.771 225.018 233.771C224.139 233.771 223.452 234.113 222.957 234.797C222.462 235.48 222.215 236.493 222.215 237.834ZM238.582 243C238.478 242.792 238.393 242.421 238.328 241.887C237.488 242.759 236.486 243.195 235.32 243.195C234.279 243.195 233.423 242.902 232.752 242.316C232.088 241.724 231.756 240.975 231.756 240.07C231.756 238.97 232.173 238.117 233.006 237.512C233.846 236.9 235.024 236.594 236.541 236.594H238.299V235.764C238.299 235.132 238.11 234.631 237.732 234.26C237.355 233.882 236.798 233.693 236.062 233.693C235.418 233.693 234.878 233.856 234.441 234.182C234.005 234.507 233.787 234.901 233.787 235.363H231.971C231.971 234.836 232.156 234.328 232.527 233.84C232.905 233.345 233.413 232.954 234.051 232.668C234.695 232.382 235.402 232.238 236.17 232.238C237.387 232.238 238.341 232.544 239.031 233.156C239.721 233.762 240.079 234.598 240.105 235.666V240.529C240.105 241.499 240.229 242.271 240.477 242.844V243H238.582ZM235.584 241.623C236.15 241.623 236.688 241.477 237.195 241.184C237.703 240.891 238.071 240.51 238.299 240.041V237.873H236.883C234.669 237.873 233.562 238.521 233.562 239.816C233.562 240.383 233.751 240.826 234.129 241.145C234.507 241.464 234.992 241.623 235.584 241.623ZM248.045 234.055C247.771 234.009 247.475 233.986 247.156 233.986C245.971 233.986 245.167 234.491 244.744 235.5V243H242.938V232.434H244.695L244.725 233.654C245.317 232.71 246.157 232.238 247.244 232.238C247.596 232.238 247.863 232.284 248.045 232.375V234.055ZM259.148 236.662C257.54 236.2 256.368 235.633 255.633 234.963C254.904 234.286 254.539 233.452 254.539 232.463C254.539 231.343 254.985 230.419 255.877 229.689C256.775 228.954 257.941 228.586 259.373 228.586C260.35 228.586 261.219 228.775 261.98 229.152C262.749 229.53 263.341 230.051 263.758 230.715C264.181 231.379 264.393 232.105 264.393 232.893H262.508C262.508 232.033 262.234 231.359 261.688 230.871C261.141 230.376 260.369 230.129 259.373 230.129C258.449 230.129 257.726 230.334 257.205 230.744C256.691 231.148 256.434 231.711 256.434 232.434C256.434 233.013 256.678 233.505 257.166 233.908C257.661 234.305 258.497 234.67 259.676 235.002C260.861 235.334 261.785 235.702 262.449 236.105C263.12 236.503 263.615 236.968 263.934 237.502C264.259 238.036 264.422 238.664 264.422 239.387C264.422 240.539 263.973 241.464 263.074 242.16C262.176 242.85 260.975 243.195 259.471 243.195C258.494 243.195 257.583 243.01 256.736 242.639C255.89 242.261 255.236 241.747 254.773 241.096C254.318 240.445 254.09 239.706 254.09 238.879H255.975C255.975 239.738 256.29 240.419 256.922 240.92C257.56 241.415 258.41 241.662 259.471 241.662C260.46 241.662 261.219 241.46 261.746 241.057C262.273 240.653 262.537 240.103 262.537 239.406C262.537 238.71 262.293 238.173 261.805 237.795C261.316 237.411 260.431 237.033 259.148 236.662ZM268.514 243H266.707V232.434H268.514V243ZM266.561 229.631C266.561 229.338 266.648 229.09 266.824 228.889C267.007 228.687 267.273 228.586 267.625 228.586C267.977 228.586 268.243 228.687 268.426 228.889C268.608 229.09 268.699 229.338 268.699 229.631C268.699 229.924 268.608 230.168 268.426 230.363C268.243 230.559 267.977 230.656 267.625 230.656C267.273 230.656 267.007 230.559 266.824 230.363C266.648 230.168 266.561 229.924 266.561 229.631ZM273.377 243H271.57V228H273.377V243ZM279.764 240.549L282.381 232.434H284.227L280.438 243H279.061L275.232 232.434H277.078L279.764 240.549ZM292.332 243C292.228 242.792 292.143 242.421 292.078 241.887C291.238 242.759 290.236 243.195 289.07 243.195C288.029 243.195 287.173 242.902 286.502 242.316C285.838 241.724 285.506 240.975 285.506 240.07C285.506 238.97 285.923 238.117 286.756 237.512C287.596 236.9 288.774 236.594 290.291 236.594H292.049V235.764C292.049 235.132 291.86 234.631 291.482 234.26C291.105 233.882 290.548 233.693 289.812 233.693C289.168 233.693 288.628 233.856 288.191 234.182C287.755 234.507 287.537 234.901 287.537 235.363H285.721C285.721 234.836 285.906 234.328 286.277 233.84C286.655 233.345 287.163 232.954 287.801 232.668C288.445 232.382 289.152 232.238 289.92 232.238C291.137 232.238 292.091 232.544 292.781 233.156C293.471 233.762 293.829 234.598 293.855 235.666V240.529C293.855 241.499 293.979 242.271 294.227 242.844V243H292.332ZM289.334 241.623C289.9 241.623 290.438 241.477 290.945 241.184C291.453 240.891 291.821 240.51 292.049 240.041V237.873H290.633C288.419 237.873 287.312 238.521 287.312 239.816C287.312 240.383 287.501 240.826 287.879 241.145C288.257 241.464 288.742 241.623 289.334 241.623Z" fill="black"/>
<rect x="1" y="1" width="483" height="726" stroke="#171212" stroke-width="2"/>
</svg>
