<svg width="968" height="728" viewBox="0 0 968 728" fill="none" xmlns="http://www.w3.org/2000/svg">
<rect x="1" y="1" width="966" height="726" fill="white"/>
<g clip-path="url(#clip0)">
<path d="M0 671H485V728H0V671Z" fill="white"/>
<path d="M22.4062 724.053C22.4062 723.74 22.4974 723.48 22.6797 723.271C22.8685 723.063 23.1484 722.959 23.5195 722.959C23.8906 722.959 24.1706 723.063 24.3594 723.271C24.5547 723.48 24.6523 723.74 24.6523 724.053C24.6523 724.352 24.5547 724.603 24.3594 724.805C24.1706 725.007 23.8906 725.107 23.5195 725.107C23.1484 725.107 22.8685 725.007 22.6797 724.805C22.4974 724.603 22.4062 724.352 22.4062 724.053Z" fill="black"/>
</g>
<rect y="152" width="968" height="555" fill="white"/>
<path d="M40.7188 295.938H43.6719V307.902C43.6719 309.535 43.1602 310.832 42.1367 311.793C41.1211 312.754 39.7773 313.234 38.1055 313.234C36.3242 313.234 34.9492 312.785 33.9805 311.887C33.0117 310.988 32.5273 309.738 32.5273 308.137H35.4805C35.4805 309.043 35.7031 309.727 36.1484 310.188C36.6016 310.641 37.2539 310.867 38.1055 310.867C38.9023 310.867 39.5352 310.605 40.0039 310.082C40.4805 309.551 40.7188 308.82 40.7188 307.891V295.938ZM54.4766 311.758C53.6406 312.742 52.4531 313.234 50.9141 313.234C49.5391 313.234 48.4961 312.832 47.7852 312.027C47.082 311.223 46.7305 310.059 46.7305 308.535V300.32H49.5781V308.5C49.5781 310.109 50.2461 310.914 51.582 310.914C52.9648 310.914 53.8984 310.418 54.3828 309.426V300.32H57.2305V313H54.5469L54.4766 311.758ZM59.6328 306.566C59.6328 304.598 60.0938 303.027 61.0156 301.855C61.9453 300.676 63.1758 300.086 64.707 300.086C66.1523 300.086 67.2891 300.59 68.1172 301.598L68.2461 300.32H70.8125V312.613C70.8125 314.277 70.293 315.59 69.2539 316.551C68.2227 317.512 66.8281 317.992 65.0703 317.992C64.1406 317.992 63.2305 317.797 62.3398 317.406C61.457 317.023 60.7852 316.52 60.3242 315.895L61.6719 314.184C62.5469 315.223 63.625 315.742 64.9062 315.742C65.8516 315.742 66.5977 315.484 67.1445 314.969C67.6914 314.461 67.9648 313.711 67.9648 312.719V311.863C67.1445 312.777 66.0508 313.234 64.6836 313.234C63.1992 313.234 61.9844 312.645 61.0391 311.465C60.1016 310.285 59.6328 308.652 59.6328 306.566ZM62.4688 306.812C62.4688 308.086 62.7266 309.09 63.2422 309.824C63.7656 310.551 64.4883 310.914 65.4102 310.914C66.5586 310.914 67.4102 310.422 67.9648 309.438V303.859C67.4258 302.898 66.582 302.418 65.4336 302.418C64.4961 302.418 63.7656 302.789 63.2422 303.531C62.7266 304.273 62.4688 305.367 62.4688 306.812ZM81.3242 313C81.1992 312.758 81.0898 312.363 80.9961 311.816C80.0898 312.762 78.9805 313.234 77.668 313.234C76.3945 313.234 75.3555 312.871 74.5508 312.145C73.7461 311.418 73.3438 310.52 73.3438 309.449C73.3438 308.098 73.8438 307.062 74.8438 306.344C75.8516 305.617 77.2891 305.254 79.1562 305.254H80.9023V304.422C80.9023 303.766 80.7188 303.242 80.3516 302.852C79.9844 302.453 79.4258 302.254 78.6758 302.254C78.0273 302.254 77.4961 302.418 77.082 302.746C76.668 303.066 76.4609 303.477 76.4609 303.977H73.6133C73.6133 303.281 73.8438 302.633 74.3047 302.031C74.7656 301.422 75.3906 300.945 76.1797 300.602C76.9766 300.258 77.8633 300.086 78.8398 300.086C80.3242 300.086 81.5078 300.461 82.3906 301.211C83.2734 301.953 83.7266 303 83.75 304.352V310.07C83.75 311.211 83.9102 312.121 84.2305 312.801V313H81.3242ZM78.1953 310.949C78.7578 310.949 79.2852 310.812 79.7773 310.539C80.2773 310.266 80.6523 309.898 80.9023 309.438V307.047H79.3672C78.3125 307.047 77.5195 307.23 76.9883 307.598C76.457 307.965 76.1914 308.484 76.1914 309.156C76.1914 309.703 76.3711 310.141 76.7305 310.469C77.0977 310.789 77.5859 310.949 78.1953 310.949ZM86.1992 306.566C86.1992 304.613 86.6523 303.047 87.5586 301.867C88.4648 300.68 89.6797 300.086 91.2031 300.086C92.5469 300.086 93.6328 300.555 94.4609 301.492V295H97.3086V313H94.7305L94.5898 311.688C93.7383 312.719 92.6016 313.234 91.1797 313.234C89.6953 313.234 88.4922 312.637 87.5703 311.441C86.6562 310.246 86.1992 308.621 86.1992 306.566ZM89.0469 306.812C89.0469 308.102 89.293 309.109 89.7852 309.836C90.2852 310.555 90.9922 310.914 91.9062 310.914C93.0703 310.914 93.9219 310.395 94.4609 309.355V303.941C93.9375 302.926 93.0938 302.418 91.9297 302.418C91.0078 302.418 90.2969 302.785 89.7969 303.52C89.2969 304.246 89.0469 305.344 89.0469 306.812ZM99.7461 306.543C99.7461 305.301 99.9922 304.184 100.484 303.191C100.977 302.191 101.668 301.426 102.559 300.895C103.449 300.355 104.473 300.086 105.629 300.086C107.34 300.086 108.727 300.637 109.789 301.738C110.859 302.84 111.438 304.301 111.523 306.121L111.535 306.789C111.535 308.039 111.293 309.156 110.809 310.141C110.332 311.125 109.645 311.887 108.746 312.426C107.855 312.965 106.824 313.234 105.652 313.234C103.863 313.234 102.43 312.641 101.352 311.453C100.281 310.258 99.7461 308.668 99.7461 306.684V306.543ZM102.594 306.789C102.594 308.094 102.863 309.117 103.402 309.859C103.941 310.594 104.691 310.961 105.652 310.961C106.613 310.961 107.359 310.586 107.891 309.836C108.43 309.086 108.699 307.988 108.699 306.543C108.699 305.262 108.422 304.246 107.867 303.496C107.32 302.746 106.574 302.371 105.629 302.371C104.699 302.371 103.961 302.742 103.414 303.484C102.867 304.219 102.594 305.32 102.594 306.789ZM120.582 302.922C120.207 302.859 119.82 302.828 119.422 302.828C118.117 302.828 117.238 303.328 116.785 304.328V313H113.938V300.32H116.656L116.727 301.738C117.414 300.637 118.367 300.086 119.586 300.086C119.992 300.086 120.328 300.141 120.594 300.25L120.582 302.922ZM127.73 313.234C125.926 313.234 124.461 312.668 123.336 311.535C122.219 310.395 121.66 308.879 121.66 306.988V306.637C121.66 305.371 121.902 304.242 122.387 303.25C122.879 302.25 123.566 301.473 124.449 300.918C125.332 300.363 126.316 300.086 127.402 300.086C129.129 300.086 130.461 300.637 131.398 301.738C132.344 302.84 132.816 304.398 132.816 306.414V307.562H124.531C124.617 308.609 124.965 309.438 125.574 310.047C126.191 310.656 126.965 310.961 127.895 310.961C129.199 310.961 130.262 310.434 131.082 309.379L132.617 310.844C132.109 311.602 131.43 312.191 130.578 312.613C129.734 313.027 128.785 313.234 127.73 313.234ZM127.391 302.371C126.609 302.371 125.977 302.645 125.492 303.191C125.016 303.738 124.711 304.5 124.578 305.477H130.004V305.266C129.941 304.312 129.688 303.594 129.242 303.109C128.797 302.617 128.18 302.371 127.391 302.371ZM142.145 309.555C142.145 309.047 141.934 308.66 141.512 308.395C141.098 308.129 140.406 307.895 139.438 307.691C138.469 307.488 137.66 307.23 137.012 306.918C135.59 306.23 134.879 305.234 134.879 303.93C134.879 302.836 135.34 301.922 136.262 301.188C137.184 300.453 138.355 300.086 139.777 300.086C141.293 300.086 142.516 300.461 143.445 301.211C144.383 301.961 144.852 302.934 144.852 304.129H142.004C142.004 303.582 141.801 303.129 141.395 302.77C140.988 302.402 140.449 302.219 139.777 302.219C139.152 302.219 138.641 302.363 138.242 302.652C137.852 302.941 137.656 303.328 137.656 303.812C137.656 304.25 137.84 304.59 138.207 304.832C138.574 305.074 139.316 305.32 140.434 305.57C141.551 305.812 142.426 306.105 143.059 306.449C143.699 306.785 144.172 307.191 144.477 307.668C144.789 308.145 144.945 308.723 144.945 309.402C144.945 310.543 144.473 311.469 143.527 312.18C142.582 312.883 141.344 313.234 139.812 313.234C138.773 313.234 137.848 313.047 137.035 312.672C136.223 312.297 135.59 311.781 135.137 311.125C134.684 310.469 134.457 309.762 134.457 309.004H137.223C137.262 309.676 137.516 310.195 137.984 310.562C138.453 310.922 139.074 311.102 139.848 311.102C140.598 311.102 141.168 310.961 141.559 310.68C141.949 310.391 142.145 310.016 142.145 309.555ZM166.168 295.938V307.34C166.168 309.152 165.586 310.59 164.422 311.652C163.266 312.707 161.723 313.234 159.793 313.234C157.84 313.234 156.289 312.715 155.141 311.676C153.992 310.629 153.418 309.18 153.418 307.328V295.938H156.371V307.352C156.371 308.492 156.66 309.363 157.238 309.965C157.816 310.566 158.668 310.867 159.793 310.867C162.074 310.867 163.215 309.664 163.215 307.258V295.938H166.168ZM171.711 300.32L171.793 301.785C172.73 300.652 173.961 300.086 175.484 300.086C178.125 300.086 179.469 301.598 179.516 304.621V313H176.668V304.785C176.668 303.98 176.492 303.387 176.141 303.004C175.797 302.613 175.23 302.418 174.441 302.418C173.293 302.418 172.438 302.938 171.875 303.977V313H169.027V300.32H171.711ZM185.457 313H182.609V300.32H185.457V313ZM182.434 297.027C182.434 296.59 182.57 296.227 182.844 295.938C183.125 295.648 183.523 295.504 184.039 295.504C184.555 295.504 184.953 295.648 185.234 295.938C185.516 296.227 185.656 296.59 185.656 297.027C185.656 297.457 185.516 297.816 185.234 298.105C184.953 298.387 184.555 298.527 184.039 298.527C183.523 298.527 183.125 298.387 182.844 298.105C182.57 297.816 182.434 297.457 182.434 297.027ZM188.035 306.566C188.035 304.613 188.488 303.047 189.395 301.867C190.301 300.68 191.516 300.086 193.039 300.086C194.383 300.086 195.469 300.555 196.297 301.492V295H199.145V313H196.566L196.426 311.688C195.574 312.719 194.438 313.234 193.016 313.234C191.531 313.234 190.328 312.637 189.406 311.441C188.492 310.246 188.035 308.621 188.035 306.566ZM190.883 306.812C190.883 308.102 191.129 309.109 191.621 309.836C192.121 310.555 192.828 310.914 193.742 310.914C194.906 310.914 195.758 310.395 196.297 309.355V303.941C195.773 302.926 194.93 302.418 193.766 302.418C192.844 302.418 192.133 302.785 191.633 303.52C191.133 304.246 190.883 305.344 190.883 306.812ZM201.582 306.543C201.582 305.301 201.828 304.184 202.32 303.191C202.812 302.191 203.504 301.426 204.395 300.895C205.285 300.355 206.309 300.086 207.465 300.086C209.176 300.086 210.562 300.637 211.625 301.738C212.695 302.84 213.273 304.301 213.359 306.121L213.371 306.789C213.371 308.039 213.129 309.156 212.645 310.141C212.168 311.125 211.48 311.887 210.582 312.426C209.691 312.965 208.66 313.234 207.488 313.234C205.699 313.234 204.266 312.641 203.188 311.453C202.117 310.258 201.582 308.668 201.582 306.684V306.543ZM204.43 306.789C204.43 308.094 204.699 309.117 205.238 309.859C205.777 310.594 206.527 310.961 207.488 310.961C208.449 310.961 209.195 310.586 209.727 309.836C210.266 309.086 210.535 307.988 210.535 306.543C210.535 305.262 210.258 304.246 209.703 303.496C209.156 302.746 208.41 302.371 207.465 302.371C206.535 302.371 205.797 302.742 205.25 303.484C204.703 304.219 204.43 305.32 204.43 306.789ZM222.887 309.555C222.887 309.047 222.676 308.66 222.254 308.395C221.84 308.129 221.148 307.895 220.18 307.691C219.211 307.488 218.402 307.23 217.754 306.918C216.332 306.23 215.621 305.234 215.621 303.93C215.621 302.836 216.082 301.922 217.004 301.188C217.926 300.453 219.098 300.086 220.52 300.086C222.035 300.086 223.258 300.461 224.188 301.211C225.125 301.961 225.594 302.934 225.594 304.129H222.746C222.746 303.582 222.543 303.129 222.137 302.77C221.73 302.402 221.191 302.219 220.52 302.219C219.895 302.219 219.383 302.363 218.984 302.652C218.594 302.941 218.398 303.328 218.398 303.812C218.398 304.25 218.582 304.59 218.949 304.832C219.316 305.074 220.059 305.32 221.176 305.57C222.293 305.812 223.168 306.105 223.801 306.449C224.441 306.785 224.914 307.191 225.219 307.668C225.531 308.145 225.688 308.723 225.688 309.402C225.688 310.543 225.215 311.469 224.27 312.18C223.324 312.883 222.086 313.234 220.555 313.234C219.516 313.234 218.59 313.047 217.777 312.672C216.965 312.297 216.332 311.781 215.879 311.125C215.426 310.469 215.199 309.762 215.199 309.004H217.965C218.004 309.676 218.258 310.195 218.727 310.562C219.195 310.922 219.816 311.102 220.59 311.102C221.34 311.102 221.91 310.961 222.301 310.68C222.691 310.391 222.887 310.016 222.887 309.555ZM239.738 313.234C237.934 313.234 236.469 312.668 235.344 311.535C234.227 310.395 233.668 308.879 233.668 306.988V306.637C233.668 305.371 233.91 304.242 234.395 303.25C234.887 302.25 235.574 301.473 236.457 300.918C237.34 300.363 238.324 300.086 239.41 300.086C241.137 300.086 242.469 300.637 243.406 301.738C244.352 302.84 244.824 304.398 244.824 306.414V307.562H236.539C236.625 308.609 236.973 309.438 237.582 310.047C238.199 310.656 238.973 310.961 239.902 310.961C241.207 310.961 242.27 310.434 243.09 309.379L244.625 310.844C244.117 311.602 243.438 312.191 242.586 312.613C241.742 313.027 240.793 313.234 239.738 313.234ZM239.398 302.371C238.617 302.371 237.984 302.645 237.5 303.191C237.023 303.738 236.719 304.5 236.586 305.477H242.012V305.266C241.949 304.312 241.695 303.594 241.25 303.109C240.805 302.617 240.188 302.371 239.398 302.371ZM249.688 300.32L249.77 301.785C250.707 300.652 251.938 300.086 253.461 300.086C256.102 300.086 257.445 301.598 257.492 304.621V313H254.645V304.785C254.645 303.98 254.469 303.387 254.117 303.004C253.773 302.613 253.207 302.418 252.418 302.418C251.27 302.418 250.414 302.938 249.852 303.977V313H247.004V300.32H249.688ZM269.41 313H266.562V295H269.41V313ZM280.098 313C279.973 312.758 279.863 312.363 279.77 311.816C278.863 312.762 277.754 313.234 276.441 313.234C275.168 313.234 274.129 312.871 273.324 312.145C272.52 311.418 272.117 310.52 272.117 309.449C272.117 308.098 272.617 307.062 273.617 306.344C274.625 305.617 276.062 305.254 277.93 305.254H279.676V304.422C279.676 303.766 279.492 303.242 279.125 302.852C278.758 302.453 278.199 302.254 277.449 302.254C276.801 302.254 276.27 302.418 275.855 302.746C275.441 303.066 275.234 303.477 275.234 303.977H272.387C272.387 303.281 272.617 302.633 273.078 302.031C273.539 301.422 274.164 300.945 274.953 300.602C275.75 300.258 276.637 300.086 277.613 300.086C279.098 300.086 280.281 300.461 281.164 301.211C282.047 301.953 282.5 303 282.523 304.352V310.07C282.523 311.211 282.684 312.121 283.004 312.801V313H280.098ZM276.969 310.949C277.531 310.949 278.059 310.812 278.551 310.539C279.051 310.266 279.426 309.898 279.676 309.438V307.047H278.141C277.086 307.047 276.293 307.23 275.762 307.598C275.23 307.965 274.965 308.484 274.965 309.156C274.965 309.703 275.145 310.141 275.504 310.469C275.871 310.789 276.359 310.949 276.969 310.949ZM298.59 309.555C298.59 309.047 298.379 308.66 297.957 308.395C297.543 308.129 296.852 307.895 295.883 307.691C294.914 307.488 294.105 307.23 293.457 306.918C292.035 306.23 291.324 305.234 291.324 303.93C291.324 302.836 291.785 301.922 292.707 301.188C293.629 300.453 294.801 300.086 296.223 300.086C297.738 300.086 298.961 300.461 299.891 301.211C300.828 301.961 301.297 302.934 301.297 304.129H298.449C298.449 303.582 298.246 303.129 297.84 302.77C297.434 302.402 296.895 302.219 296.223 302.219C295.598 302.219 295.086 302.363 294.688 302.652C294.297 302.941 294.102 303.328 294.102 303.812C294.102 304.25 294.285 304.59 294.652 304.832C295.02 305.074 295.762 305.32 296.879 305.57C297.996 305.812 298.871 306.105 299.504 306.449C300.145 306.785 300.617 307.191 300.922 307.668C301.234 308.145 301.391 308.723 301.391 309.402C301.391 310.543 300.918 311.469 299.973 312.18C299.027 312.883 297.789 313.234 296.258 313.234C295.219 313.234 294.293 313.047 293.48 312.672C292.668 312.297 292.035 311.781 291.582 311.125C291.129 310.469 290.902 309.762 290.902 309.004H293.668C293.707 309.676 293.961 310.195 294.43 310.562C294.898 310.922 295.52 311.102 296.293 311.102C297.043 311.102 297.613 310.961 298.004 310.68C298.395 310.391 298.59 310.016 298.59 309.555ZM309.465 313.234C307.66 313.234 306.195 312.668 305.07 311.535C303.953 310.395 303.395 308.879 303.395 306.988V306.637C303.395 305.371 303.637 304.242 304.121 303.25C304.613 302.25 305.301 301.473 306.184 300.918C307.066 300.363 308.051 300.086 309.137 300.086C310.863 300.086 312.195 300.637 313.133 301.738C314.078 302.84 314.551 304.398 314.551 306.414V307.562H306.266C306.352 308.609 306.699 309.438 307.309 310.047C307.926 310.656 308.699 310.961 309.629 310.961C310.934 310.961 311.996 310.434 312.816 309.379L314.352 310.844C313.844 311.602 313.164 312.191 312.312 312.613C311.469 313.027 310.52 313.234 309.465 313.234ZM309.125 302.371C308.344 302.371 307.711 302.645 307.227 303.191C306.75 303.738 306.445 304.5 306.312 305.477H311.738V305.266C311.676 304.312 311.422 303.594 310.977 303.109C310.531 302.617 309.914 302.371 309.125 302.371ZM323.879 309.555C323.879 309.047 323.668 308.66 323.246 308.395C322.832 308.129 322.141 307.895 321.172 307.691C320.203 307.488 319.395 307.23 318.746 306.918C317.324 306.23 316.613 305.234 316.613 303.93C316.613 302.836 317.074 301.922 317.996 301.188C318.918 300.453 320.09 300.086 321.512 300.086C323.027 300.086 324.25 300.461 325.18 301.211C326.117 301.961 326.586 302.934 326.586 304.129H323.738C323.738 303.582 323.535 303.129 323.129 302.77C322.723 302.402 322.184 302.219 321.512 302.219C320.887 302.219 320.375 302.363 319.977 302.652C319.586 302.941 319.391 303.328 319.391 303.812C319.391 304.25 319.574 304.59 319.941 304.832C320.309 305.074 321.051 305.32 322.168 305.57C323.285 305.812 324.16 306.105 324.793 306.449C325.434 306.785 325.906 307.191 326.211 307.668C326.523 308.145 326.68 308.723 326.68 309.402C326.68 310.543 326.207 311.469 325.262 312.18C324.316 312.883 323.078 313.234 321.547 313.234C320.508 313.234 319.582 313.047 318.77 312.672C317.957 312.297 317.324 311.781 316.871 311.125C316.418 310.469 316.191 309.762 316.191 309.004H318.957C318.996 309.676 319.25 310.195 319.719 310.562C320.188 310.922 320.809 311.102 321.582 311.102C322.332 311.102 322.902 310.961 323.293 310.68C323.684 310.391 323.879 310.016 323.879 309.555ZM332.199 313H329.352V300.32H332.199V313ZM329.176 297.027C329.176 296.59 329.312 296.227 329.586 295.938C329.867 295.648 330.266 295.504 330.781 295.504C331.297 295.504 331.695 295.648 331.977 295.938C332.258 296.227 332.398 296.59 332.398 297.027C332.398 297.457 332.258 297.816 331.977 298.105C331.695 298.387 331.297 298.527 330.781 298.527C330.266 298.527 329.867 298.387 329.586 298.105C329.312 297.816 329.176 297.457 329.176 297.027ZM334.777 306.543C334.777 305.301 335.023 304.184 335.516 303.191C336.008 302.191 336.699 301.426 337.59 300.895C338.48 300.355 339.504 300.086 340.66 300.086C342.371 300.086 343.758 300.637 344.82 301.738C345.891 302.84 346.469 304.301 346.555 306.121L346.566 306.789C346.566 308.039 346.324 309.156 345.84 310.141C345.363 311.125 344.676 311.887 343.777 312.426C342.887 312.965 341.855 313.234 340.684 313.234C338.895 313.234 337.461 312.641 336.383 311.453C335.312 310.258 334.777 308.668 334.777 306.684V306.543ZM337.625 306.789C337.625 308.094 337.895 309.117 338.434 309.859C338.973 310.594 339.723 310.961 340.684 310.961C341.645 310.961 342.391 310.586 342.922 309.836C343.461 309.086 343.73 307.988 343.73 306.543C343.73 305.262 343.453 304.246 342.898 303.496C342.352 302.746 341.605 302.371 340.66 302.371C339.73 302.371 338.992 302.742 338.445 303.484C337.898 304.219 337.625 305.32 337.625 306.789ZM341.445 295H344.691L341.445 298.551H339.16L341.445 295ZM351.617 300.32L351.699 301.785C352.637 300.652 353.867 300.086 355.391 300.086C358.031 300.086 359.375 301.598 359.422 304.621V313H356.574V304.785C356.574 303.98 356.398 303.387 356.047 303.004C355.703 302.613 355.137 302.418 354.348 302.418C353.199 302.418 352.344 302.938 351.781 303.977V313H348.934V300.32H351.617Z" fill="black"/>
<path d="M48.9883 372H46.1523V358.301L41.9688 359.73V357.328L48.625 354.879H48.9883V372ZM56.875 369C57.4062 369 57.8164 369.152 58.1055 369.457C58.3945 369.754 58.5391 370.129 58.5391 370.582C58.5391 371.027 58.3945 371.398 58.1055 371.695C57.8164 371.984 57.4062 372.129 56.875 372.129C56.3672 372.129 55.9648 371.984 55.668 371.695C55.3711 371.406 55.2227 371.035 55.2227 370.582C55.2227 370.129 55.3672 369.754 55.6562 369.457C55.9453 369.152 56.3516 369 56.875 369ZM78.0273 364.383H71.0195V369.633H79.2109V372H68.0547V354.938H79.1289V357.328H71.0195V362.039H78.0273V364.383ZM80.582 365.566C80.582 363.613 81.0352 362.047 81.9414 360.867C82.8477 359.68 84.0625 359.086 85.5859 359.086C86.9297 359.086 88.0156 359.555 88.8438 360.492V354H91.6914V372H89.1133L88.9727 370.688C88.1211 371.719 86.9844 372.234 85.5625 372.234C84.0781 372.234 82.875 371.637 81.9531 370.441C81.0391 369.246 80.582 367.621 80.582 365.566ZM83.4297 365.812C83.4297 367.102 83.6758 368.109 84.168 368.836C84.668 369.555 85.375 369.914 86.2891 369.914C87.4531 369.914 88.3047 369.395 88.8438 368.355V362.941C88.3203 361.926 87.4766 361.418 86.3125 361.418C85.3906 361.418 84.6797 361.785 84.1797 362.52C83.6797 363.246 83.4297 364.344 83.4297 365.812ZM94.1641 365.566C94.1641 363.598 94.625 362.027 95.5469 360.855C96.4766 359.676 97.707 359.086 99.2383 359.086C100.684 359.086 101.82 359.59 102.648 360.598L102.777 359.32H105.344V371.613C105.344 373.277 104.824 374.59 103.785 375.551C102.754 376.512 101.359 376.992 99.6016 376.992C98.6719 376.992 97.7617 376.797 96.8711 376.406C95.9883 376.023 95.3164 375.52 94.8555 374.895L96.2031 373.184C97.0781 374.223 98.1562 374.742 99.4375 374.742C100.383 374.742 101.129 374.484 101.676 373.969C102.223 373.461 102.496 372.711 102.496 371.719V370.863C101.676 371.777 100.582 372.234 99.2148 372.234C97.7305 372.234 96.5156 371.645 95.5703 370.465C94.6328 369.285 94.1641 367.652 94.1641 365.566ZM97 365.812C97 367.086 97.2578 368.09 97.7734 368.824C98.2969 369.551 99.0195 369.914 99.9414 369.914C101.09 369.914 101.941 369.422 102.496 368.438V362.859C101.957 361.898 101.113 361.418 99.9648 361.418C99.0273 361.418 98.2969 361.789 97.7734 362.531C97.2578 363.273 97 364.367 97 365.812ZM115.855 372C115.73 371.758 115.621 371.363 115.527 370.816C114.621 371.762 113.512 372.234 112.199 372.234C110.926 372.234 109.887 371.871 109.082 371.145C108.277 370.418 107.875 369.52 107.875 368.449C107.875 367.098 108.375 366.062 109.375 365.344C110.383 364.617 111.82 364.254 113.688 364.254H115.434V363.422C115.434 362.766 115.25 362.242 114.883 361.852C114.516 361.453 113.957 361.254 113.207 361.254C112.559 361.254 112.027 361.418 111.613 361.746C111.199 362.066 110.992 362.477 110.992 362.977H108.145C108.145 362.281 108.375 361.633 108.836 361.031C109.297 360.422 109.922 359.945 110.711 359.602C111.508 359.258 112.395 359.086 113.371 359.086C114.855 359.086 116.039 359.461 116.922 360.211C117.805 360.953 118.258 362 118.281 363.352V369.07C118.281 370.211 118.441 371.121 118.762 371.801V372H115.855ZM112.727 369.949C113.289 369.949 113.816 369.812 114.309 369.539C114.809 369.266 115.184 368.898 115.434 368.438V366.047H113.898C112.844 366.047 112.051 366.23 111.52 366.598C110.988 366.965 110.723 367.484 110.723 368.156C110.723 368.703 110.902 369.141 111.262 369.469C111.629 369.789 112.117 369.949 112.727 369.949ZM127.902 361.922C127.527 361.859 127.141 361.828 126.742 361.828C125.438 361.828 124.559 362.328 124.105 363.328V372H121.258V359.32H123.977L124.047 360.738C124.734 359.637 125.688 359.086 126.906 359.086C127.312 359.086 127.648 359.141 127.914 359.25L127.902 361.922ZM144.871 367.605C144.871 366.855 144.605 366.277 144.074 365.871C143.551 365.465 142.602 365.055 141.227 364.641C139.852 364.227 138.758 363.766 137.945 363.258C136.391 362.281 135.613 361.008 135.613 359.438C135.613 358.062 136.172 356.93 137.289 356.039C138.414 355.148 139.871 354.703 141.66 354.703C142.848 354.703 143.906 354.922 144.836 355.359C145.766 355.797 146.496 356.422 147.027 357.234C147.559 358.039 147.824 358.934 147.824 359.918H144.871C144.871 359.027 144.59 358.332 144.027 357.832C143.473 357.324 142.676 357.07 141.637 357.07C140.668 357.07 139.914 357.277 139.375 357.691C138.844 358.105 138.578 358.684 138.578 359.426C138.578 360.051 138.867 360.574 139.445 360.996C140.023 361.41 140.977 361.816 142.305 362.215C143.633 362.605 144.699 363.055 145.504 363.562C146.309 364.062 146.898 364.641 147.273 365.297C147.648 365.945 147.836 366.707 147.836 367.582C147.836 369.004 147.289 370.137 146.195 370.98C145.109 371.816 143.633 372.234 141.766 372.234C140.531 372.234 139.395 372.008 138.355 371.555C137.324 371.094 136.52 370.461 135.941 369.656C135.371 368.852 135.086 367.914 135.086 366.844H138.051C138.051 367.812 138.371 368.562 139.012 369.094C139.652 369.625 140.57 369.891 141.766 369.891C142.797 369.891 143.57 369.684 144.086 369.27C144.609 368.848 144.871 368.293 144.871 367.605ZM153.191 372H150.344V359.32H153.191V372ZM150.168 356.027C150.168 355.59 150.305 355.227 150.578 354.938C150.859 354.648 151.258 354.504 151.773 354.504C152.289 354.504 152.688 354.648 152.969 354.938C153.25 355.227 153.391 355.59 153.391 356.027C153.391 356.457 153.25 356.816 152.969 357.105C152.688 357.387 152.289 357.527 151.773 357.527C151.258 357.527 150.859 357.387 150.578 357.105C150.305 356.816 150.168 356.457 150.168 356.027ZM159.332 372H156.484V354H159.332V372ZM166.914 368.391L169.598 359.32H172.539L168.145 372H165.672L161.242 359.32H164.195L166.914 368.391ZM181.715 372C181.59 371.758 181.48 371.363 181.387 370.816C180.48 371.762 179.371 372.234 178.059 372.234C176.785 372.234 175.746 371.871 174.941 371.145C174.137 370.418 173.734 369.52 173.734 368.449C173.734 367.098 174.234 366.062 175.234 365.344C176.242 364.617 177.68 364.254 179.547 364.254H181.293V363.422C181.293 362.766 181.109 362.242 180.742 361.852C180.375 361.453 179.816 361.254 179.066 361.254C178.418 361.254 177.887 361.418 177.473 361.746C177.059 362.066 176.852 362.477 176.852 362.977H174.004C174.004 362.281 174.234 361.633 174.695 361.031C175.156 360.422 175.781 359.945 176.57 359.602C177.367 359.258 178.254 359.086 179.23 359.086C180.715 359.086 181.898 359.461 182.781 360.211C183.664 360.953 184.117 362 184.141 363.352V369.07C184.141 370.211 184.301 371.121 184.621 371.801V372H181.715ZM178.586 369.949C179.148 369.949 179.676 369.812 180.168 369.539C180.668 369.266 181.043 368.898 181.293 368.438V366.047H179.758C178.703 366.047 177.91 366.23 177.379 366.598C176.848 366.965 176.582 367.484 176.582 368.156C176.582 368.703 176.762 369.141 177.121 369.469C177.488 369.789 177.977 369.949 178.586 369.949Z" fill="black"/>
<rect x="32.5" y="609.5" width="160" height="50" rx="13.5" fill="#5E6464" stroke="black"/>
<rect x="253.5" y="609.5" width="160" height="50" rx="13.5" fill="white" stroke="black"/>
<path d="M47.6621 642H45.7871V627.781H47.6621V642ZM52.5254 631.434L52.584 632.762C53.3913 631.746 54.446 631.238 55.748 631.238C57.9811 631.238 59.1074 632.498 59.127 635.018V642H57.3203V635.008C57.3138 634.246 57.138 633.683 56.793 633.318C56.4544 632.954 55.9238 632.771 55.2012 632.771C54.6152 632.771 54.1009 632.928 53.6582 633.24C53.2155 633.553 52.8704 633.963 52.623 634.471V642H50.8164V631.434H52.5254ZM63.8145 642H62.0078V631.434H63.8145V642ZM61.8613 628.631C61.8613 628.338 61.9492 628.09 62.125 627.889C62.3073 627.687 62.5742 627.586 62.9258 627.586C63.2773 627.586 63.5443 627.687 63.7266 627.889C63.9089 628.09 64 628.338 64 628.631C64 628.924 63.9089 629.168 63.7266 629.363C63.5443 629.559 63.2773 629.656 62.9258 629.656C62.5742 629.656 62.3073 629.559 62.125 629.363C61.9492 629.168 61.8613 628.924 61.8613 628.631ZM70.9531 640.721C71.5977 640.721 72.1608 640.525 72.6426 640.135C73.1243 639.744 73.3913 639.256 73.4434 638.67H75.1523C75.1198 639.275 74.9115 639.852 74.5273 640.398C74.1432 640.945 73.6289 641.382 72.9844 641.707C72.3464 642.033 71.6693 642.195 70.9531 642.195C69.5143 642.195 68.3685 641.717 67.5156 640.76C66.6693 639.796 66.2461 638.481 66.2461 636.814V636.512C66.2461 635.483 66.4349 634.568 66.8125 633.768C67.1901 632.967 67.7305 632.345 68.4336 631.902C69.1432 631.46 69.9798 631.238 70.9434 631.238C72.1283 631.238 73.1113 631.593 73.8926 632.303C74.6803 633.012 75.1003 633.934 75.1523 635.066H73.4434C73.3913 634.383 73.1309 633.823 72.6621 633.387C72.1999 632.944 71.627 632.723 70.9434 632.723C70.0254 632.723 69.3125 633.055 68.8047 633.719C68.3034 634.376 68.0527 635.33 68.0527 636.58V636.922C68.0527 638.139 68.3034 639.077 68.8047 639.734C69.306 640.392 70.0221 640.721 70.9531 640.721ZM79.1465 642H77.3398V631.434H79.1465V642ZM77.1934 628.631C77.1934 628.338 77.2812 628.09 77.457 627.889C77.6393 627.687 77.9062 627.586 78.2578 627.586C78.6094 627.586 78.8763 627.687 79.0586 627.889C79.2409 628.09 79.332 628.338 79.332 628.631C79.332 628.924 79.2409 629.168 79.0586 629.363C78.8763 629.559 78.6094 629.656 78.2578 629.656C77.9062 629.656 77.6393 629.559 77.457 629.363C77.2812 629.168 77.1934 628.924 77.1934 628.631ZM88.5703 642C88.4661 641.792 88.3815 641.421 88.3164 640.887C87.4766 641.759 86.474 642.195 85.3086 642.195C84.2669 642.195 83.4108 641.902 82.7402 641.316C82.0762 640.724 81.7441 639.975 81.7441 639.07C81.7441 637.97 82.1608 637.117 82.9941 636.512C83.834 635.9 85.0124 635.594 86.5293 635.594H88.2871V634.764C88.2871 634.132 88.0983 633.631 87.7207 633.26C87.3431 632.882 86.7865 632.693 86.0508 632.693C85.4062 632.693 84.8659 632.856 84.4297 633.182C83.9935 633.507 83.7754 633.901 83.7754 634.363H81.959C81.959 633.836 82.1445 633.328 82.5156 632.84C82.8932 632.345 83.401 631.954 84.0391 631.668C84.6836 631.382 85.39 631.238 86.1582 631.238C87.3757 631.238 88.3294 631.544 89.0195 632.156C89.7096 632.762 90.0677 633.598 90.0938 634.666V639.529C90.0938 640.499 90.2174 641.271 90.4648 641.844V642H88.5703ZM85.5723 640.623C86.1387 640.623 86.6758 640.477 87.1836 640.184C87.6914 639.891 88.0592 639.51 88.2871 639.041V636.873H86.8711C84.6576 636.873 83.5508 637.521 83.5508 638.816C83.5508 639.383 83.7396 639.826 84.1172 640.145C84.4948 640.464 84.9798 640.623 85.5723 640.623ZM98.0332 633.055C97.7598 633.009 97.4635 632.986 97.1445 632.986C95.9596 632.986 95.1556 633.491 94.7324 634.5V642H92.9258V631.434H94.6836L94.7129 632.654C95.3053 631.71 96.1452 631.238 97.2324 631.238C97.584 631.238 97.8509 631.284 98.0332 631.375V633.055ZM106.822 636.434V642H104.947V627.781H110.191C111.747 627.781 112.965 628.178 113.844 628.973C114.729 629.767 115.172 630.818 115.172 632.127C115.172 633.507 114.739 634.572 113.873 635.32C113.014 636.062 111.78 636.434 110.172 636.434H106.822ZM106.822 634.9H110.191C111.194 634.9 111.962 634.666 112.496 634.197C113.03 633.722 113.297 633.038 113.297 632.146C113.297 631.3 113.03 630.623 112.496 630.115C111.962 629.607 111.23 629.344 110.299 629.324H106.822V634.9ZM123.688 642C123.583 641.792 123.499 641.421 123.434 640.887C122.594 641.759 121.591 642.195 120.426 642.195C119.384 642.195 118.528 641.902 117.857 641.316C117.193 640.724 116.861 639.975 116.861 639.07C116.861 637.97 117.278 637.117 118.111 636.512C118.951 635.9 120.13 635.594 121.646 635.594H123.404V634.764C123.404 634.132 123.215 633.631 122.838 633.26C122.46 632.882 121.904 632.693 121.168 632.693C120.523 632.693 119.983 632.856 119.547 633.182C119.111 633.507 118.893 633.901 118.893 634.363H117.076C117.076 633.836 117.262 633.328 117.633 632.84C118.01 632.345 118.518 631.954 119.156 631.668C119.801 631.382 120.507 631.238 121.275 631.238C122.493 631.238 123.447 631.544 124.137 632.156C124.827 632.762 125.185 633.598 125.211 634.666V639.529C125.211 640.499 125.335 641.271 125.582 641.844V642H123.688ZM120.689 640.623C121.256 640.623 121.793 640.477 122.301 640.184C122.809 639.891 123.176 639.51 123.404 639.041V636.873H121.988C119.775 636.873 118.668 637.521 118.668 638.816C118.668 639.383 118.857 639.826 119.234 640.145C119.612 640.464 120.097 640.623 120.689 640.623ZM133.15 633.055C132.877 633.009 132.581 632.986 132.262 632.986C131.077 632.986 130.273 633.491 129.85 634.5V642H128.043V631.434H129.801L129.83 632.654C130.423 631.71 131.262 631.238 132.35 631.238C132.701 631.238 132.968 631.284 133.15 631.375V633.055ZM137.76 628.875V631.434H139.732V632.83H137.76V639.383C137.76 639.806 137.848 640.125 138.023 640.34C138.199 640.548 138.499 640.652 138.922 640.652C139.13 640.652 139.417 640.613 139.781 640.535V642C139.306 642.13 138.844 642.195 138.395 642.195C137.587 642.195 136.979 641.951 136.568 641.463C136.158 640.975 135.953 640.281 135.953 639.383V632.83H134.029V631.434H135.953V628.875H137.76ZM143.814 642H142.008V631.434H143.814V642ZM141.861 628.631C141.861 628.338 141.949 628.09 142.125 627.889C142.307 627.687 142.574 627.586 142.926 627.586C143.277 627.586 143.544 627.687 143.727 627.889C143.909 628.09 144 628.338 144 628.631C144 628.924 143.909 629.168 143.727 629.363C143.544 629.559 143.277 629.656 142.926 629.656C142.574 629.656 142.307 629.559 142.125 629.363C141.949 629.168 141.861 628.924 141.861 628.631ZM146.275 636.629C146.275 635.008 146.66 633.706 147.428 632.723C148.196 631.733 149.202 631.238 150.445 631.238C151.682 631.238 152.662 631.661 153.385 632.508V627H155.191V642H153.531L153.443 640.867C152.721 641.753 151.715 642.195 150.426 642.195C149.202 642.195 148.202 641.694 147.428 640.691C146.66 639.689 146.275 638.38 146.275 636.766V636.629ZM148.082 636.834C148.082 638.032 148.329 638.969 148.824 639.646C149.319 640.324 150.003 640.662 150.875 640.662C152.021 640.662 152.857 640.148 153.385 639.119V634.266C152.844 633.27 152.014 632.771 150.895 632.771C150.009 632.771 149.319 633.113 148.824 633.797C148.329 634.48 148.082 635.493 148.082 636.834ZM164.527 642C164.423 641.792 164.339 641.421 164.273 640.887C163.434 641.759 162.431 642.195 161.266 642.195C160.224 642.195 159.368 641.902 158.697 641.316C158.033 640.724 157.701 639.975 157.701 639.07C157.701 637.97 158.118 637.117 158.951 636.512C159.791 635.9 160.969 635.594 162.486 635.594H164.244V634.764C164.244 634.132 164.055 633.631 163.678 633.26C163.3 632.882 162.743 632.693 162.008 632.693C161.363 632.693 160.823 632.856 160.387 633.182C159.951 633.507 159.732 633.901 159.732 634.363H157.916C157.916 633.836 158.102 633.328 158.473 632.84C158.85 632.345 159.358 631.954 159.996 631.668C160.641 631.382 161.347 631.238 162.115 631.238C163.333 631.238 164.286 631.544 164.977 632.156C165.667 632.762 166.025 633.598 166.051 634.666V639.529C166.051 640.499 166.174 641.271 166.422 641.844V642H164.527ZM161.529 640.623C162.096 640.623 162.633 640.477 163.141 640.184C163.648 639.891 164.016 639.51 164.244 639.041V636.873H162.828C160.615 636.873 159.508 637.521 159.508 638.816C159.508 639.383 159.697 639.826 160.074 640.145C160.452 640.464 160.937 640.623 161.529 640.623Z" fill="black"/>
<path d="M303.109 637.488C302.934 638.992 302.377 640.154 301.439 640.975C300.508 641.788 299.268 642.195 297.719 642.195C296.039 642.195 294.691 641.593 293.676 640.389C292.667 639.184 292.162 637.573 292.162 635.555V634.188C292.162 632.866 292.396 631.704 292.865 630.701C293.34 629.699 294.011 628.93 294.877 628.396C295.743 627.856 296.745 627.586 297.885 627.586C299.395 627.586 300.606 628.009 301.518 628.855C302.429 629.695 302.96 630.861 303.109 632.352H301.225C301.062 631.219 300.707 630.398 300.16 629.891C299.62 629.383 298.861 629.129 297.885 629.129C296.687 629.129 295.746 629.572 295.062 630.457C294.385 631.342 294.047 632.602 294.047 634.236V635.613C294.047 637.156 294.369 638.383 295.014 639.295C295.658 640.206 296.56 640.662 297.719 640.662C298.76 640.662 299.558 640.428 300.111 639.959C300.671 639.484 301.042 638.66 301.225 637.488H303.109ZM311.918 642C311.814 641.792 311.729 641.421 311.664 640.887C310.824 641.759 309.822 642.195 308.656 642.195C307.615 642.195 306.758 641.902 306.088 641.316C305.424 640.724 305.092 639.975 305.092 639.07C305.092 637.97 305.508 637.117 306.342 636.512C307.182 635.9 308.36 635.594 309.877 635.594H311.635V634.764C311.635 634.132 311.446 633.631 311.068 633.26C310.691 632.882 310.134 632.693 309.398 632.693C308.754 632.693 308.214 632.856 307.777 633.182C307.341 633.507 307.123 633.901 307.123 634.363H305.307C305.307 633.836 305.492 633.328 305.863 632.84C306.241 632.345 306.749 631.954 307.387 631.668C308.031 631.382 308.738 631.238 309.506 631.238C310.723 631.238 311.677 631.544 312.367 632.156C313.057 632.762 313.415 633.598 313.441 634.666V639.529C313.441 640.499 313.565 641.271 313.812 641.844V642H311.918ZM308.92 640.623C309.486 640.623 310.023 640.477 310.531 640.184C311.039 639.891 311.407 639.51 311.635 639.041V636.873H310.219C308.005 636.873 306.898 637.521 306.898 638.816C306.898 639.383 307.087 639.826 307.465 640.145C307.842 640.464 308.327 640.623 308.92 640.623ZM317.982 631.434L318.041 632.762C318.848 631.746 319.903 631.238 321.205 631.238C323.438 631.238 324.564 632.498 324.584 635.018V642H322.777V635.008C322.771 634.246 322.595 633.683 322.25 633.318C321.911 632.954 321.381 632.771 320.658 632.771C320.072 632.771 319.558 632.928 319.115 633.24C318.673 633.553 318.327 633.963 318.08 634.471V642H316.273V631.434H317.982ZM331.547 640.721C332.191 640.721 332.755 640.525 333.236 640.135C333.718 639.744 333.985 639.256 334.037 638.67H335.746C335.714 639.275 335.505 639.852 335.121 640.398C334.737 640.945 334.223 641.382 333.578 641.707C332.94 642.033 332.263 642.195 331.547 642.195C330.108 642.195 328.962 641.717 328.109 640.76C327.263 639.796 326.84 638.481 326.84 636.814V636.512C326.84 635.483 327.029 634.568 327.406 633.768C327.784 632.967 328.324 632.345 329.027 631.902C329.737 631.46 330.574 631.238 331.537 631.238C332.722 631.238 333.705 631.593 334.486 632.303C335.274 633.012 335.694 633.934 335.746 635.066H334.037C333.985 634.383 333.725 633.823 333.256 633.387C332.794 632.944 332.221 632.723 331.537 632.723C330.619 632.723 329.906 633.055 329.398 633.719C328.897 634.376 328.646 635.33 328.646 636.58V636.922C328.646 638.139 328.897 639.077 329.398 639.734C329.9 640.392 330.616 640.721 331.547 640.721ZM342.162 642.195C340.73 642.195 339.564 641.727 338.666 640.789C337.768 639.845 337.318 638.585 337.318 637.01V636.678C337.318 635.63 337.517 634.695 337.914 633.875C338.318 633.048 338.878 632.404 339.594 631.941C340.316 631.473 341.098 631.238 341.938 631.238C343.311 631.238 344.379 631.691 345.141 632.596C345.902 633.501 346.283 634.796 346.283 636.482V637.234H339.125C339.151 638.276 339.454 639.119 340.033 639.764C340.619 640.402 341.361 640.721 342.26 640.721C342.898 640.721 343.438 640.59 343.881 640.33C344.324 640.07 344.711 639.725 345.043 639.295L346.146 640.154C345.261 641.515 343.933 642.195 342.162 642.195ZM341.938 632.723C341.208 632.723 340.596 632.99 340.102 633.523C339.607 634.051 339.301 634.793 339.184 635.75H344.477V635.613C344.424 634.695 344.177 633.986 343.734 633.484C343.292 632.977 342.693 632.723 341.938 632.723ZM350.346 642H348.539V627H350.346V642ZM359.77 642C359.665 641.792 359.581 641.421 359.516 640.887C358.676 641.759 357.673 642.195 356.508 642.195C355.466 642.195 354.61 641.902 353.939 641.316C353.275 640.724 352.943 639.975 352.943 639.07C352.943 637.97 353.36 637.117 354.193 636.512C355.033 635.9 356.212 635.594 357.729 635.594H359.486V634.764C359.486 634.132 359.298 633.631 358.92 633.26C358.542 632.882 357.986 632.693 357.25 632.693C356.605 632.693 356.065 632.856 355.629 633.182C355.193 633.507 354.975 633.901 354.975 634.363H353.158C353.158 633.836 353.344 633.328 353.715 632.84C354.092 632.345 354.6 631.954 355.238 631.668C355.883 631.382 356.589 631.238 357.357 631.238C358.575 631.238 359.529 631.544 360.219 632.156C360.909 632.762 361.267 633.598 361.293 634.666V639.529C361.293 640.499 361.417 641.271 361.664 641.844V642H359.77ZM356.771 640.623C357.338 640.623 357.875 640.477 358.383 640.184C358.891 639.891 359.258 639.51 359.486 639.041V636.873H358.07C355.857 636.873 354.75 637.521 354.75 638.816C354.75 639.383 354.939 639.826 355.316 640.145C355.694 640.464 356.179 640.623 356.771 640.623ZM369.232 633.055C368.959 633.009 368.663 632.986 368.344 632.986C367.159 632.986 366.355 633.491 365.932 634.5V642H364.125V631.434H365.883L365.912 632.654C366.505 631.71 367.344 631.238 368.432 631.238C368.783 631.238 369.05 631.284 369.232 631.375V633.055Z" fill="black"/>
<path d="M49.6523 264.605C49.6523 263.855 49.3867 263.277 48.8555 262.871C48.332 262.465 47.3828 262.055 46.0078 261.641C44.6328 261.227 43.5391 260.766 42.7266 260.258C41.1719 259.281 40.3945 258.008 40.3945 256.438C40.3945 255.062 40.9531 253.93 42.0703 253.039C43.1953 252.148 44.6523 251.703 46.4414 251.703C47.6289 251.703 48.6875 251.922 49.6172 252.359C50.5469 252.797 51.2773 253.422 51.8086 254.234C52.3398 255.039 52.6055 255.934 52.6055 256.918H49.6523C49.6523 256.027 49.3711 255.332 48.8086 254.832C48.2539 254.324 47.457 254.07 46.418 254.07C45.4492 254.07 44.6953 254.277 44.1562 254.691C43.625 255.105 43.3594 255.684 43.3594 256.426C43.3594 257.051 43.6484 257.574 44.2266 257.996C44.8047 258.41 45.7578 258.816 47.0859 259.215C48.4141 259.605 49.4805 260.055 50.2852 260.562C51.0898 261.062 51.6797 261.641 52.0547 262.297C52.4297 262.945 52.6172 263.707 52.6172 264.582C52.6172 266.004 52.0703 267.137 50.9766 267.98C49.8906 268.816 48.4141 269.234 46.5469 269.234C45.3125 269.234 44.1758 269.008 43.1367 268.555C42.1055 268.094 41.3008 267.461 40.7227 266.656C40.1523 265.852 39.8672 264.914 39.8672 263.844H42.832C42.832 264.812 43.1523 265.562 43.793 266.094C44.4336 266.625 45.3516 266.891 46.5469 266.891C47.5781 266.891 48.3516 266.684 48.8672 266.27C49.3906 265.848 49.6523 265.293 49.6523 264.605ZM60.5273 269.234C58.7227 269.234 57.2578 268.668 56.1328 267.535C55.0156 266.395 54.457 264.879 54.457 262.988V262.637C54.457 261.371 54.6992 260.242 55.1836 259.25C55.6758 258.25 56.3633 257.473 57.2461 256.918C58.1289 256.363 59.1133 256.086 60.1992 256.086C61.9258 256.086 63.2578 256.637 64.1953 257.738C65.1406 258.84 65.6133 260.398 65.6133 262.414V263.562H57.3281C57.4141 264.609 57.7617 265.438 58.3711 266.047C58.9883 266.656 59.7617 266.961 60.6914 266.961C61.9961 266.961 63.0586 266.434 63.8789 265.379L65.4141 266.844C64.9062 267.602 64.2266 268.191 63.375 268.613C62.5312 269.027 61.582 269.234 60.5273 269.234ZM60.1875 258.371C59.4062 258.371 58.7734 258.645 58.2891 259.191C57.8125 259.738 57.5078 260.5 57.375 261.477H62.8008V261.266C62.7383 260.312 62.4844 259.594 62.0391 259.109C61.5938 258.617 60.9766 258.371 60.1875 258.371ZM74.9414 265.555C74.9414 265.047 74.7305 264.66 74.3086 264.395C73.8945 264.129 73.2031 263.895 72.2344 263.691C71.2656 263.488 70.457 263.23 69.8086 262.918C68.3867 262.23 67.6758 261.234 67.6758 259.93C67.6758 258.836 68.1367 257.922 69.0586 257.188C69.9805 256.453 71.1523 256.086 72.5742 256.086C74.0898 256.086 75.3125 256.461 76.2422 257.211C77.1797 257.961 77.6484 258.934 77.6484 260.129H74.8008C74.8008 259.582 74.5977 259.129 74.1914 258.77C73.7852 258.402 73.2461 258.219 72.5742 258.219C71.9492 258.219 71.4375 258.363 71.0391 258.652C70.6484 258.941 70.4531 259.328 70.4531 259.812C70.4531 260.25 70.6367 260.59 71.0039 260.832C71.3711 261.074 72.1133 261.32 73.2305 261.57C74.3477 261.812 75.2227 262.105 75.8555 262.449C76.4961 262.785 76.9688 263.191 77.2734 263.668C77.5859 264.145 77.7422 264.723 77.7422 265.402C77.7422 266.543 77.2695 267.469 76.3242 268.18C75.3789 268.883 74.1406 269.234 72.6094 269.234C71.5703 269.234 70.6445 269.047 69.832 268.672C69.0195 268.297 68.3867 267.781 67.9336 267.125C67.4805 266.469 67.2539 265.762 67.2539 265.004H70.0195C70.0586 265.676 70.3125 266.195 70.7812 266.562C71.25 266.922 71.8711 267.102 72.6445 267.102C73.3945 267.102 73.9648 266.961 74.3555 266.68C74.7461 266.391 74.9414 266.016 74.9414 265.555ZM83.2617 269H80.4141V256.32H83.2617V269ZM80.2383 253.027C80.2383 252.59 80.375 252.227 80.6484 251.938C80.9297 251.648 81.3281 251.504 81.8438 251.504C82.3594 251.504 82.7578 251.648 83.0391 251.938C83.3203 252.227 83.4609 252.59 83.4609 253.027C83.4609 253.457 83.3203 253.816 83.0391 254.105C82.7578 254.387 82.3594 254.527 81.8438 254.527C81.3281 254.527 80.9297 254.387 80.6484 254.105C80.375 253.816 80.2383 253.457 80.2383 253.027ZM85.8398 262.543C85.8398 261.301 86.0859 260.184 86.5781 259.191C87.0703 258.191 87.7617 257.426 88.6523 256.895C89.543 256.355 90.5664 256.086 91.7227 256.086C93.4336 256.086 94.8203 256.637 95.8828 257.738C96.9531 258.84 97.5312 260.301 97.6172 262.121L97.6289 262.789C97.6289 264.039 97.3867 265.156 96.9023 266.141C96.4258 267.125 95.7383 267.887 94.8398 268.426C93.9492 268.965 92.918 269.234 91.7461 269.234C89.957 269.234 88.5234 268.641 87.4453 267.453C86.375 266.258 85.8398 264.668 85.8398 262.684V262.543ZM88.6875 262.789C88.6875 264.094 88.957 265.117 89.4961 265.859C90.0352 266.594 90.7852 266.961 91.7461 266.961C92.707 266.961 93.4531 266.586 93.9844 265.836C94.5234 265.086 94.793 263.988 94.793 262.543C94.793 261.262 94.5156 260.246 93.9609 259.496C93.4141 258.746 92.668 258.371 91.7227 258.371C90.793 258.371 90.0547 258.742 89.5078 259.484C88.9609 260.219 88.6875 261.32 88.6875 262.789ZM92.5078 251H95.7539L92.5078 254.551H90.2227L92.5078 251ZM102.68 256.32L102.762 257.785C103.699 256.652 104.93 256.086 106.453 256.086C109.094 256.086 110.438 257.598 110.484 260.621V269H107.637V260.785C107.637 259.98 107.461 259.387 107.109 259.004C106.766 258.613 106.199 258.418 105.41 258.418C104.262 258.418 103.406 258.938 102.844 259.977V269H99.9961V256.32H102.68ZM122.777 269H119.824V251.938H122.777V269ZM126.422 269V251.938H131.461C132.969 251.938 134.305 252.273 135.469 252.945C136.641 253.617 137.547 254.57 138.188 255.805C138.828 257.039 139.148 258.453 139.148 260.047V260.902C139.148 262.52 138.824 263.941 138.176 265.168C137.535 266.395 136.617 267.34 135.422 268.004C134.234 268.668 132.871 269 131.332 269H126.422ZM129.387 254.328V266.633H131.32C132.875 266.633 134.066 266.148 134.895 265.18C135.73 264.203 136.156 262.805 136.172 260.984V260.035C136.172 258.184 135.77 256.77 134.965 255.793C134.16 254.816 132.992 254.328 131.461 254.328H129.387ZM143.543 266C144.074 266 144.484 266.152 144.773 266.457C145.062 266.754 145.207 267.129 145.207 267.582C145.207 268.027 145.062 268.398 144.773 268.695C144.484 268.984 144.074 269.129 143.543 269.129C143.035 269.129 142.633 268.984 142.336 268.695C142.039 268.406 141.891 268.035 141.891 267.582C141.891 267.129 142.035 266.754 142.324 266.457C142.613 266.152 143.02 266 143.543 266ZM143.543 256.051C144.074 256.051 144.484 256.203 144.773 256.508C145.062 256.805 145.207 257.18 145.207 257.633C145.207 258.078 145.062 258.449 144.773 258.746C144.484 259.035 144.074 259.18 143.543 259.18C143.035 259.18 142.633 259.035 142.336 258.746C142.039 258.457 141.891 258.086 141.891 257.633C141.891 257.18 142.035 256.805 142.324 256.508C142.613 256.203 143.02 256.051 143.543 256.051ZM161.145 264.195H158.52L157.629 269H155.66L156.551 264.195H153.844V262.344H156.902L157.582 258.676H154.734V256.812H157.934L158.848 251.938H160.805L159.891 256.812H162.527L163.441 251.938H165.398L164.484 256.812H166.922V258.676H164.133L163.453 262.344H166.043V264.195H163.102L162.211 269H160.254L161.145 264.195ZM158.871 262.344H161.496L162.176 258.676H159.551L158.871 262.344ZM178.934 261.77H172.066V269H169.102V251.938H179.941V254.328H172.066V259.402H178.934V261.77ZM181.23 262.566C181.23 260.613 181.684 259.047 182.59 257.867C183.496 256.68 184.711 256.086 186.234 256.086C187.578 256.086 188.664 256.555 189.492 257.492V251H192.34V269H189.762L189.621 267.688C188.77 268.719 187.633 269.234 186.211 269.234C184.727 269.234 183.523 268.637 182.602 267.441C181.688 266.246 181.23 264.621 181.23 262.566ZM184.078 262.812C184.078 264.102 184.324 265.109 184.816 265.836C185.316 266.555 186.023 266.914 186.938 266.914C188.102 266.914 188.953 266.395 189.492 265.355V259.941C188.969 258.926 188.125 258.418 186.961 258.418C186.039 258.418 185.328 258.785 184.828 259.52C184.328 260.246 184.078 261.344 184.078 262.812ZM199.863 260.492L202.277 256.32H205.441L201.562 262.566L205.57 269H202.43L199.898 264.664L197.379 269H194.215L198.223 262.566L194.355 256.32H197.496L199.863 260.492ZM210.492 259.168H212.227C213.102 259.16 213.793 258.934 214.301 258.488C214.816 258.043 215.074 257.398 215.074 256.555C215.074 255.742 214.859 255.113 214.43 254.668C214.008 254.215 213.359 253.988 212.484 253.988C211.719 253.988 211.09 254.211 210.598 254.656C210.105 255.094 209.859 255.668 209.859 256.379H207.012C207.012 255.504 207.242 254.707 207.703 253.988C208.172 253.27 208.82 252.711 209.648 252.312C210.484 251.906 211.418 251.703 212.449 251.703C214.152 251.703 215.488 252.133 216.457 252.992C217.434 253.844 217.922 255.031 217.922 256.555C217.922 257.32 217.676 258.043 217.184 258.723C216.699 259.395 216.07 259.902 215.297 260.246C216.234 260.566 216.945 261.07 217.43 261.758C217.922 262.445 218.168 263.266 218.168 264.219C218.168 265.75 217.641 266.969 216.586 267.875C215.539 268.781 214.16 269.234 212.449 269.234C210.809 269.234 209.465 268.797 208.418 267.922C207.371 267.047 206.848 265.883 206.848 264.43H209.695C209.695 265.18 209.945 265.789 210.445 266.258C210.953 266.727 211.633 266.961 212.484 266.961C213.367 266.961 214.062 266.727 214.57 266.258C215.078 265.789 215.332 265.109 215.332 264.219C215.332 263.32 215.066 262.629 214.535 262.145C214.004 261.66 213.215 261.418 212.168 261.418H210.492V259.168ZM232.312 269H220.84V267.043L226.523 260.844C227.344 259.93 227.926 259.168 228.27 258.559C228.621 257.941 228.797 257.324 228.797 256.707C228.797 255.895 228.566 255.238 228.105 254.738C227.652 254.238 227.039 253.988 226.266 253.988C225.344 253.988 224.629 254.27 224.121 254.832C223.613 255.395 223.359 256.164 223.359 257.141H220.512C220.512 256.102 220.746 255.168 221.215 254.34C221.691 253.504 222.367 252.855 223.242 252.395C224.125 251.934 225.141 251.703 226.289 251.703C227.945 251.703 229.25 252.121 230.203 252.957C231.164 253.785 231.645 254.934 231.645 256.402C231.645 257.254 231.402 258.148 230.918 259.086C230.441 260.016 229.656 261.074 228.562 262.262L224.391 266.727H232.312V269ZM235.242 260.539L236.168 251.938H245.332V254.398H238.535L238.066 258.477C238.855 258.023 239.746 257.797 240.738 257.797C242.363 257.797 243.625 258.316 244.523 259.355C245.43 260.395 245.883 261.793 245.883 263.551C245.883 265.285 245.383 266.668 244.383 267.699C243.383 268.723 242.012 269.234 240.27 269.234C238.707 269.234 237.41 268.793 236.379 267.91C235.355 267.02 234.801 265.848 234.715 264.395H237.469C237.578 265.223 237.875 265.859 238.359 266.305C238.844 266.742 239.477 266.961 240.258 266.961C241.133 266.961 241.812 266.648 242.297 266.023C242.789 265.398 243.035 264.547 243.035 263.469C243.035 262.43 242.766 261.609 242.227 261.008C241.688 260.398 240.945 260.094 240 260.094C239.484 260.094 239.047 260.164 238.688 260.305C238.328 260.438 237.938 260.703 237.516 261.102L235.242 260.539Z" fill="black"/>
<line x1="20.0027" y1="213" x2="919.999" y2="215.413" stroke="#11D0C5" stroke-width="2"/>
<path d="M30.3711 183.523C30.3711 182.859 30.1367 182.352 29.668 182C29.1992 181.641 28.3555 181.266 27.1367 180.875C25.918 180.477 24.9531 180.086 24.2422 179.703C22.3047 178.656 21.3359 177.246 21.3359 175.473C21.3359 174.551 21.5938 173.73 22.1094 173.012C22.6328 172.285 23.3789 171.719 24.3477 171.312C25.3242 170.906 26.418 170.703 27.6289 170.703C28.8477 170.703 29.9336 170.926 30.8867 171.371C31.8398 171.809 32.5781 172.43 33.1016 173.234C33.6328 174.039 33.8984 174.953 33.8984 175.977H30.3828C30.3828 175.195 30.1367 174.59 29.6445 174.16C29.1523 173.723 28.4609 173.504 27.5703 173.504C26.7109 173.504 26.043 173.688 25.5664 174.055C25.0898 174.414 24.8516 174.891 24.8516 175.484C24.8516 176.039 25.1289 176.504 25.6836 176.879C26.2461 177.254 27.0703 177.605 28.1562 177.934C30.1562 178.535 31.6133 179.281 32.5273 180.172C33.4414 181.062 33.8984 182.172 33.8984 183.5C33.8984 184.977 33.3398 186.137 32.2227 186.98C31.1055 187.816 29.6016 188.234 27.7109 188.234C26.3984 188.234 25.2031 187.996 24.125 187.52C23.0469 187.035 22.2227 186.375 21.6523 185.539C21.0898 184.703 20.8086 183.734 20.8086 182.633H24.3359C24.3359 184.516 25.4609 185.457 27.7109 185.457C28.5469 185.457 29.1992 185.289 29.668 184.953C30.1367 184.609 30.3711 184.133 30.3711 183.523ZM43.4141 188C43.2578 187.695 43.1445 187.316 43.0742 186.863C42.2539 187.777 41.1875 188.234 39.875 188.234C38.6328 188.234 37.6016 187.875 36.7812 187.156C35.9688 186.438 35.5625 185.531 35.5625 184.438C35.5625 183.094 36.0586 182.062 37.0508 181.344C38.0508 180.625 39.4922 180.262 41.375 180.254H42.9336V179.527C42.9336 178.941 42.7812 178.473 42.4766 178.121C42.1797 177.77 41.707 177.594 41.0586 177.594C40.4883 177.594 40.0391 177.73 39.7109 178.004C39.3906 178.277 39.2305 178.652 39.2305 179.129H35.8438C35.8438 178.395 36.0703 177.715 36.5234 177.09C36.9766 176.465 37.6172 175.977 38.4453 175.625C39.2734 175.266 40.2031 175.086 41.2344 175.086C42.7969 175.086 44.0352 175.48 44.9492 176.27C45.8711 177.051 46.332 178.152 46.332 179.574V185.07C46.3398 186.273 46.5078 187.184 46.8359 187.801V188H43.4141ZM40.6133 185.645C41.1133 185.645 41.5742 185.535 41.9961 185.316C42.418 185.09 42.7305 184.789 42.9336 184.414V182.234H41.668C39.9727 182.234 39.0703 182.82 38.9609 183.992L38.9492 184.191C38.9492 184.613 39.0977 184.961 39.3945 185.234C39.6914 185.508 40.0977 185.645 40.6133 185.645ZM52.5078 188H49.1094V170H52.5078V188ZM62.6562 188C62.5 187.695 62.3867 187.316 62.3164 186.863C61.4961 187.777 60.4297 188.234 59.1172 188.234C57.875 188.234 56.8438 187.875 56.0234 187.156C55.2109 186.438 54.8047 185.531 54.8047 184.438C54.8047 183.094 55.3008 182.062 56.293 181.344C57.293 180.625 58.7344 180.262 60.6172 180.254H62.1758V179.527C62.1758 178.941 62.0234 178.473 61.7188 178.121C61.4219 177.77 60.9492 177.594 60.3008 177.594C59.7305 177.594 59.2812 177.73 58.9531 178.004C58.6328 178.277 58.4727 178.652 58.4727 179.129H55.0859C55.0859 178.395 55.3125 177.715 55.7656 177.09C56.2188 176.465 56.8594 175.977 57.6875 175.625C58.5156 175.266 59.4453 175.086 60.4766 175.086C62.0391 175.086 63.2773 175.48 64.1914 176.27C65.1133 177.051 65.5742 178.152 65.5742 179.574V185.07C65.582 186.273 65.75 187.184 66.0781 187.801V188H62.6562ZM59.8555 185.645C60.3555 185.645 60.8164 185.535 61.2383 185.316C61.6602 185.09 61.9727 184.789 62.1758 184.414V182.234H60.9102C59.2148 182.234 58.3125 182.82 58.2031 183.992L58.1914 184.191C58.1914 184.613 58.3398 184.961 58.6367 185.234C58.9336 185.508 59.3398 185.645 59.8555 185.645ZM73.625 181.566C73.625 179.59 74.0664 178.016 74.9492 176.844C75.8398 175.672 77.0547 175.086 78.5938 175.086C79.8281 175.086 80.8477 175.547 81.6523 176.469V170H85.0508V188H81.9922L81.8281 186.652C80.9844 187.707 79.8984 188.234 78.5703 188.234C77.0781 188.234 75.8789 187.648 74.9727 186.477C74.0742 185.297 73.625 183.66 73.625 181.566ZM77.0117 181.812C77.0117 183 77.2188 183.91 77.6328 184.543C78.0469 185.176 78.6484 185.492 79.4375 185.492C80.4844 185.492 81.2227 185.051 81.6523 184.168V179.164C81.2305 178.281 80.5 177.84 79.4609 177.84C77.8281 177.84 77.0117 179.164 77.0117 181.812ZM93.5117 188.234C91.6523 188.234 90.1367 187.664 88.9648 186.523C87.8008 185.383 87.2188 183.863 87.2188 181.965V181.637C87.2188 180.363 87.4648 179.227 87.957 178.227C88.4492 177.219 89.1445 176.445 90.043 175.906C90.9492 175.359 91.9805 175.086 93.1367 175.086C94.8711 175.086 96.2344 175.633 97.2266 176.727C98.2266 177.82 98.7266 179.371 98.7266 181.379V182.762H90.6523C90.7617 183.59 91.0898 184.254 91.6367 184.754C92.1914 185.254 92.8906 185.504 93.7344 185.504C95.0391 185.504 96.0586 185.031 96.793 184.086L98.457 185.949C97.9492 186.668 97.2617 187.23 96.3945 187.637C95.5273 188.035 94.5664 188.234 93.5117 188.234ZM93.125 177.828C92.4531 177.828 91.9062 178.055 91.4844 178.508C91.0703 178.961 90.8047 179.609 90.6875 180.453H95.3984V180.184C95.3828 179.434 95.1797 178.855 94.7891 178.449C94.3984 178.035 93.8438 177.828 93.125 177.828ZM117.125 180.605H110.375V185.176H118.297V188H106.859V170.938H118.273V173.785H110.375V177.852H117.125V180.605ZM127.004 184.496C127.004 184.082 126.797 183.758 126.383 183.523C125.977 183.281 125.32 183.066 124.414 182.879C121.398 182.246 119.891 180.965 119.891 179.035C119.891 177.91 120.355 176.973 121.285 176.223C122.223 175.465 123.445 175.086 124.953 175.086C126.562 175.086 127.848 175.465 128.809 176.223C129.777 176.98 130.262 177.965 130.262 179.176H126.875C126.875 178.691 126.719 178.293 126.406 177.98C126.094 177.66 125.605 177.5 124.941 177.5C124.371 177.5 123.93 177.629 123.617 177.887C123.305 178.145 123.148 178.473 123.148 178.871C123.148 179.246 123.324 179.551 123.676 179.785C124.035 180.012 124.637 180.211 125.48 180.383C126.324 180.547 127.035 180.734 127.613 180.945C129.402 181.602 130.297 182.738 130.297 184.355C130.297 185.512 129.801 186.449 128.809 187.168C127.816 187.879 126.535 188.234 124.965 188.234C123.902 188.234 122.957 188.047 122.129 187.672C121.309 187.289 120.664 186.77 120.195 186.113C119.727 185.449 119.492 184.734 119.492 183.969H122.703C122.734 184.57 122.957 185.031 123.371 185.352C123.785 185.672 124.34 185.832 125.035 185.832C125.684 185.832 126.172 185.711 126.5 185.469C126.836 185.219 127.004 184.895 127.004 184.496ZM143.902 181.777C143.902 183.73 143.457 185.297 142.566 186.477C141.684 187.648 140.488 188.234 138.98 188.234C137.699 188.234 136.664 187.789 135.875 186.898V192.875H132.488V175.32H135.629L135.746 176.562C136.566 175.578 137.637 175.086 138.957 175.086C140.52 175.086 141.734 175.664 142.602 176.82C143.469 177.977 143.902 179.57 143.902 181.602V181.777ZM140.516 181.531C140.516 180.352 140.305 179.441 139.883 178.801C139.469 178.16 138.863 177.84 138.066 177.84C137.004 177.84 136.273 178.246 135.875 179.059V184.25C136.289 185.086 137.027 185.504 138.09 185.504C139.707 185.504 140.516 184.18 140.516 181.531ZM151.848 188.234C149.988 188.234 148.473 187.664 147.301 186.523C146.137 185.383 145.555 183.863 145.555 181.965V181.637C145.555 180.363 145.801 179.227 146.293 178.227C146.785 177.219 147.48 176.445 148.379 175.906C149.285 175.359 150.316 175.086 151.473 175.086C153.207 175.086 154.57 175.633 155.562 176.727C156.562 177.82 157.062 179.371 157.062 181.379V182.762H148.988C149.098 183.59 149.426 184.254 149.973 184.754C150.527 185.254 151.227 185.504 152.07 185.504C153.375 185.504 154.395 185.031 155.129 184.086L156.793 185.949C156.285 186.668 155.598 187.23 154.73 187.637C153.863 188.035 152.902 188.234 151.848 188.234ZM151.461 177.828C150.789 177.828 150.242 178.055 149.82 178.508C149.406 178.961 149.141 179.609 149.023 180.453H153.734V180.184C153.719 179.434 153.516 178.855 153.125 178.449C152.734 178.035 152.18 177.828 151.461 177.828ZM166.121 178.496C165.66 178.434 165.254 178.402 164.902 178.402C163.621 178.402 162.781 178.836 162.383 179.703V188H158.996V175.32H162.195L162.289 176.832C162.969 175.668 163.91 175.086 165.113 175.086C165.488 175.086 165.84 175.137 166.168 175.238L166.121 178.496ZM174.758 188C174.602 187.695 174.488 187.316 174.418 186.863C173.598 187.777 172.531 188.234 171.219 188.234C169.977 188.234 168.945 187.875 168.125 187.156C167.312 186.438 166.906 185.531 166.906 184.438C166.906 183.094 167.402 182.062 168.395 181.344C169.395 180.625 170.836 180.262 172.719 180.254H174.277V179.527C174.277 178.941 174.125 178.473 173.82 178.121C173.523 177.77 173.051 177.594 172.402 177.594C171.832 177.594 171.383 177.73 171.055 178.004C170.734 178.277 170.574 178.652 170.574 179.129H167.188C167.188 178.395 167.414 177.715 167.867 177.09C168.32 176.465 168.961 175.977 169.789 175.625C170.617 175.266 171.547 175.086 172.578 175.086C174.141 175.086 175.379 175.48 176.293 176.27C177.215 177.051 177.676 178.152 177.676 179.574V185.07C177.684 186.273 177.852 187.184 178.18 187.801V188H174.758ZM171.957 185.645C172.457 185.645 172.918 185.535 173.34 185.316C173.762 185.09 174.074 184.789 174.277 184.414V182.234H173.012C171.316 182.234 170.414 182.82 170.305 183.992L170.293 184.191C170.293 184.613 170.441 184.961 170.738 185.234C171.035 185.508 171.441 185.645 171.957 185.645Z" fill="black"/>
<path d="M0 82H968V152H0V82Z" fill="#EBFFFE"/>
<path d="M33.8633 120H30.9102V102.938H33.8633V120ZM39.875 107.32L39.957 108.785C40.8945 107.652 42.125 107.086 43.6484 107.086C46.2891 107.086 47.6328 108.598 47.6797 111.621V120H44.832V111.785C44.832 110.98 44.6562 110.387 44.3047 110.004C43.9609 109.613 43.3945 109.418 42.6055 109.418C41.457 109.418 40.6016 109.938 40.0391 110.977V120H37.1914V107.32H39.875ZM53.6211 120H50.7734V107.32H53.6211V120ZM50.5977 104.027C50.5977 103.59 50.7344 103.227 51.0078 102.938C51.2891 102.648 51.6875 102.504 52.2031 102.504C52.7188 102.504 53.1172 102.648 53.3984 102.938C53.6797 103.227 53.8203 103.59 53.8203 104.027C53.8203 104.457 53.6797 104.816 53.3984 105.105C53.1172 105.387 52.7188 105.527 52.2031 105.527C51.6875 105.527 51.2891 105.387 51.0078 105.105C50.7344 104.816 50.5977 104.457 50.5977 104.027ZM61.9414 117.961C62.6523 117.961 63.2422 117.754 63.7109 117.34C64.1797 116.926 64.4297 116.414 64.4609 115.805H67.1445C67.1133 116.594 66.8672 117.332 66.4062 118.02C65.9453 118.699 65.3203 119.238 64.5312 119.637C63.7422 120.035 62.8906 120.234 61.9766 120.234C60.2031 120.234 58.7969 119.66 57.7578 118.512C56.7188 117.363 56.1992 115.777 56.1992 113.754V113.461C56.1992 111.531 56.7148 109.988 57.7461 108.832C58.7773 107.668 60.1836 107.086 61.9648 107.086C63.4727 107.086 64.6992 107.527 65.6445 108.41C66.5977 109.285 67.0977 110.438 67.1445 111.867H64.4609C64.4297 111.141 64.1797 110.543 63.7109 110.074C63.25 109.605 62.6602 109.371 61.9414 109.371C61.0195 109.371 60.3086 109.707 59.8086 110.379C59.3086 111.043 59.0547 112.055 59.0469 113.414V113.871C59.0469 115.246 59.293 116.273 59.7852 116.953C60.2852 117.625 61.0039 117.961 61.9414 117.961ZM72.3242 120H69.4766V107.32H72.3242V120ZM69.3008 104.027C69.3008 103.59 69.4375 103.227 69.7109 102.938C69.9922 102.648 70.3906 102.504 70.9062 102.504C71.4219 102.504 71.8203 102.648 72.1016 102.938C72.3828 103.227 72.5234 103.59 72.5234 104.027C72.5234 104.457 72.3828 104.816 72.1016 105.105C71.8203 105.387 71.4219 105.527 70.9062 105.527C70.3906 105.527 69.9922 105.387 69.7109 105.105C69.4375 104.816 69.3008 104.457 69.3008 104.027ZM74.9023 113.543C74.9023 112.301 75.1484 111.184 75.6406 110.191C76.1328 109.191 76.8242 108.426 77.7148 107.895C78.6055 107.355 79.6289 107.086 80.7852 107.086C82.4961 107.086 83.8828 107.637 84.9453 108.738C86.0156 109.84 86.5938 111.301 86.6797 113.121L86.6914 113.789C86.6914 115.039 86.4492 116.156 85.9648 117.141C85.4883 118.125 84.8008 118.887 83.9023 119.426C83.0117 119.965 81.9805 120.234 80.8086 120.234C79.0195 120.234 77.5859 119.641 76.5078 118.453C75.4375 117.258 74.9023 115.668 74.9023 113.684V113.543ZM77.75 113.789C77.75 115.094 78.0195 116.117 78.5586 116.859C79.0977 117.594 79.8477 117.961 80.8086 117.961C81.7695 117.961 82.5156 117.586 83.0469 116.836C83.5859 116.086 83.8555 114.988 83.8555 113.543C83.8555 112.262 83.5781 111.246 83.0234 110.496C82.4766 109.746 81.7305 109.371 80.7852 109.371C79.8555 109.371 79.1172 109.742 78.5703 110.484C78.0234 111.219 77.75 112.32 77.75 113.789Z" fill="black"/>
<path d="M151.863 120H148.91V102.938H151.863V120ZM157.875 107.32L157.957 108.785C158.895 107.652 160.125 107.086 161.648 107.086C164.289 107.086 165.633 108.598 165.68 111.621V120H162.832V111.785C162.832 110.98 162.656 110.387 162.305 110.004C161.961 109.613 161.395 109.418 160.605 109.418C159.457 109.418 158.602 109.938 158.039 110.977V120H155.191V107.32H157.875ZM175.699 116.555C175.699 116.047 175.488 115.66 175.066 115.395C174.652 115.129 173.961 114.895 172.992 114.691C172.023 114.488 171.215 114.23 170.566 113.918C169.145 113.23 168.434 112.234 168.434 110.93C168.434 109.836 168.895 108.922 169.816 108.188C170.738 107.453 171.91 107.086 173.332 107.086C174.848 107.086 176.07 107.461 177 108.211C177.938 108.961 178.406 109.934 178.406 111.129H175.559C175.559 110.582 175.355 110.129 174.949 109.77C174.543 109.402 174.004 109.219 173.332 109.219C172.707 109.219 172.195 109.363 171.797 109.652C171.406 109.941 171.211 110.328 171.211 110.812C171.211 111.25 171.395 111.59 171.762 111.832C172.129 112.074 172.871 112.32 173.988 112.57C175.105 112.812 175.98 113.105 176.613 113.449C177.254 113.785 177.727 114.191 178.031 114.668C178.344 115.145 178.5 115.723 178.5 116.402C178.5 117.543 178.027 118.469 177.082 119.18C176.137 119.883 174.898 120.234 173.367 120.234C172.328 120.234 171.402 120.047 170.59 119.672C169.777 119.297 169.145 118.781 168.691 118.125C168.238 117.469 168.012 116.762 168.012 116.004H170.777C170.816 116.676 171.07 117.195 171.539 117.562C172.008 117.922 172.629 118.102 173.402 118.102C174.152 118.102 174.723 117.961 175.113 117.68C175.504 117.391 175.699 117.016 175.699 116.555ZM184.559 104.238V107.32H186.797V109.43H184.559V116.508C184.559 116.992 184.652 117.344 184.84 117.562C185.035 117.773 185.379 117.879 185.871 117.879C186.199 117.879 186.531 117.84 186.867 117.762V119.965C186.219 120.145 185.594 120.234 184.992 120.234C182.805 120.234 181.711 119.027 181.711 116.613V109.43H179.625V107.32H181.711V104.238H184.559ZM195.621 109.922C195.246 109.859 194.859 109.828 194.461 109.828C193.156 109.828 192.277 110.328 191.824 111.328V120H188.977V107.32H191.695L191.766 108.738C192.453 107.637 193.406 107.086 194.625 107.086C195.031 107.086 195.367 107.141 195.633 107.25L195.621 109.922ZM205.102 118.758C204.266 119.742 203.078 120.234 201.539 120.234C200.164 120.234 199.121 119.832 198.41 119.027C197.707 118.223 197.355 117.059 197.355 115.535V107.32H200.203V115.5C200.203 117.109 200.871 117.914 202.207 117.914C203.59 117.914 204.523 117.418 205.008 116.426V107.32H207.855V120H205.172L205.102 118.758ZM215.965 117.961C216.676 117.961 217.266 117.754 217.734 117.34C218.203 116.926 218.453 116.414 218.484 115.805H221.168C221.137 116.594 220.891 117.332 220.43 118.02C219.969 118.699 219.344 119.238 218.555 119.637C217.766 120.035 216.914 120.234 216 120.234C214.227 120.234 212.82 119.66 211.781 118.512C210.742 117.363 210.223 115.777 210.223 113.754V113.461C210.223 111.531 210.738 109.988 211.77 108.832C212.801 107.668 214.207 107.086 215.988 107.086C217.496 107.086 218.723 107.527 219.668 108.41C220.621 109.285 221.121 110.438 221.168 111.867H218.484C218.453 111.141 218.203 110.543 217.734 110.074C217.273 109.605 216.684 109.371 215.965 109.371C215.043 109.371 214.332 109.707 213.832 110.379C213.332 111.043 213.078 112.055 213.07 113.414V113.871C213.07 115.246 213.316 116.273 213.809 116.953C214.309 117.625 215.027 117.961 215.965 117.961ZM228.527 117.961C229.238 117.961 229.828 117.754 230.297 117.34C230.766 116.926 231.016 116.414 231.047 115.805H233.73C233.699 116.594 233.453 117.332 232.992 118.02C232.531 118.699 231.906 119.238 231.117 119.637C230.328 120.035 229.477 120.234 228.562 120.234C226.789 120.234 225.383 119.66 224.344 118.512C223.305 117.363 222.785 115.777 222.785 113.754V113.461C222.785 111.531 223.301 109.988 224.332 108.832C225.363 107.668 226.77 107.086 228.551 107.086C230.059 107.086 231.285 107.527 232.23 108.41C233.184 109.285 233.684 110.438 233.73 111.867H231.047C231.016 111.141 230.766 110.543 230.297 110.074C229.836 109.605 229.246 109.371 228.527 109.371C227.605 109.371 226.895 109.707 226.395 110.379C225.895 111.043 225.641 112.055 225.633 113.414V113.871C225.633 115.246 225.879 116.273 226.371 116.953C226.871 117.625 227.59 117.961 228.527 117.961ZM238.91 120H236.062V107.32H238.91V120ZM235.887 104.027C235.887 103.59 236.023 103.227 236.297 102.938C236.578 102.648 236.977 102.504 237.492 102.504C238.008 102.504 238.406 102.648 238.688 102.938C238.969 103.227 239.109 103.59 239.109 104.027C239.109 104.457 238.969 104.816 238.688 105.105C238.406 105.387 238.008 105.527 237.492 105.527C236.977 105.527 236.578 105.387 236.297 105.105C236.023 104.816 235.887 104.457 235.887 104.027ZM241.488 113.543C241.488 112.301 241.734 111.184 242.227 110.191C242.719 109.191 243.41 108.426 244.301 107.895C245.191 107.355 246.215 107.086 247.371 107.086C249.082 107.086 250.469 107.637 251.531 108.738C252.602 109.84 253.18 111.301 253.266 113.121L253.277 113.789C253.277 115.039 253.035 116.156 252.551 117.141C252.074 118.125 251.387 118.887 250.488 119.426C249.598 119.965 248.566 120.234 247.395 120.234C245.605 120.234 244.172 119.641 243.094 118.453C242.023 117.258 241.488 115.668 241.488 113.684V113.543ZM244.336 113.789C244.336 115.094 244.605 116.117 245.145 116.859C245.684 117.594 246.434 117.961 247.395 117.961C248.355 117.961 249.102 117.586 249.633 116.836C250.172 116.086 250.441 114.988 250.441 113.543C250.441 112.262 250.164 111.246 249.609 110.496C249.062 109.746 248.316 109.371 247.371 109.371C246.441 109.371 245.703 109.742 245.156 110.484C244.609 111.219 244.336 112.32 244.336 113.789ZM258.328 107.32L258.41 108.785C259.348 107.652 260.578 107.086 262.102 107.086C264.742 107.086 266.086 108.598 266.133 111.621V120H263.285V111.785C263.285 110.98 263.109 110.387 262.758 110.004C262.414 109.613 261.848 109.418 261.059 109.418C259.91 109.418 259.055 109.938 258.492 110.977V120H255.645V107.32H258.328ZM274.629 120.234C272.824 120.234 271.359 119.668 270.234 118.535C269.117 117.395 268.559 115.879 268.559 113.988V113.637C268.559 112.371 268.801 111.242 269.285 110.25C269.777 109.25 270.465 108.473 271.348 107.918C272.23 107.363 273.215 107.086 274.301 107.086C276.027 107.086 277.359 107.637 278.297 108.738C279.242 109.84 279.715 111.398 279.715 113.414V114.562H271.43C271.516 115.609 271.863 116.438 272.473 117.047C273.09 117.656 273.863 117.961 274.793 117.961C276.098 117.961 277.16 117.434 277.98 116.379L279.516 117.844C279.008 118.602 278.328 119.191 277.477 119.613C276.633 120.027 275.684 120.234 274.629 120.234ZM274.289 109.371C273.508 109.371 272.875 109.645 272.391 110.191C271.914 110.738 271.609 111.5 271.477 112.477H276.902V112.266C276.84 111.312 276.586 110.594 276.141 110.109C275.695 109.617 275.078 109.371 274.289 109.371ZM289.043 116.555C289.043 116.047 288.832 115.66 288.41 115.395C287.996 115.129 287.305 114.895 286.336 114.691C285.367 114.488 284.559 114.23 283.91 113.918C282.488 113.23 281.777 112.234 281.777 110.93C281.777 109.836 282.238 108.922 283.16 108.188C284.082 107.453 285.254 107.086 286.676 107.086C288.191 107.086 289.414 107.461 290.344 108.211C291.281 108.961 291.75 109.934 291.75 111.129H288.902C288.902 110.582 288.699 110.129 288.293 109.77C287.887 109.402 287.348 109.219 286.676 109.219C286.051 109.219 285.539 109.363 285.141 109.652C284.75 109.941 284.555 110.328 284.555 110.812C284.555 111.25 284.738 111.59 285.105 111.832C285.473 112.074 286.215 112.32 287.332 112.57C288.449 112.812 289.324 113.105 289.957 113.449C290.598 113.785 291.07 114.191 291.375 114.668C291.688 115.145 291.844 115.723 291.844 116.402C291.844 117.543 291.371 118.469 290.426 119.18C289.48 119.883 288.242 120.234 286.711 120.234C285.672 120.234 284.746 120.047 283.934 119.672C283.121 119.297 282.488 118.781 282.035 118.125C281.582 117.469 281.355 116.762 281.355 116.004H284.121C284.16 116.676 284.414 117.195 284.883 117.562C285.352 117.922 285.973 118.102 286.746 118.102C287.496 118.102 288.066 117.961 288.457 117.68C288.848 117.391 289.043 117.016 289.043 116.555Z" fill="black"/>
<path d="M0 82V81H-1V82H0ZM968 82H969V81H968V82ZM968 152V153H969V152H968ZM0 152H-1V153H0V152ZM0 83H968V81H0V83ZM967 82V152H969V82H967ZM968 151H0V153H968V151ZM1 152V82H-1V152H1Z" fill="white"/>
<path d="M0 0H968V83H0V0Z" fill="#11D0C5"/>
<path d="M0 0V-1H-1V0H0ZM968 0H969V-1H968V0ZM968 83V84H969V83H968ZM0 83H-1V84H0V83ZM0 1H968V-1H0V1ZM967 0V83H969V0H967ZM968 82H0V84H968V82ZM1 83V0H-1V83H1Z" fill="white"/>
<rect x="1" y="1" width="966" height="726" stroke="#171212" stroke-width="2"/>
<defs>
<clipPath id="clip0">
<path d="M0 671H485V728H0V671Z" fill="white"/>
</clipPath>
</defs>
</svg>
