<svg width="485" height="728" viewBox="0 0 485 728" fill="none" xmlns="http://www.w3.org/2000/svg">
<rect x="1" y="1" width="483" height="726" fill="white"/>
<path d="M24.5254 704.434V710H22.6504V695.781H27.8945C29.4505 695.781 30.668 696.178 31.5469 696.973C32.4323 697.767 32.875 698.818 32.875 700.127C32.875 701.507 32.4421 702.572 31.5762 703.32C30.7168 704.062 29.4831 704.434 27.875 704.434H24.5254ZM24.5254 702.9H27.8945C28.8971 702.9 29.6654 702.666 30.1992 702.197C30.7331 701.722 31 701.038 31 700.146C31 699.3 30.7331 698.623 30.1992 698.115C29.6654 697.607 28.9329 697.344 28.002 697.324H24.5254V702.9ZM36.9473 710H35.1406V699.434H36.9473V710ZM34.9941 696.631C34.9941 696.338 35.082 696.09 35.2578 695.889C35.4401 695.687 35.707 695.586 36.0586 695.586C36.4102 695.586 36.6771 695.687 36.8594 695.889C37.0417 696.09 37.1328 696.338 37.1328 696.631C37.1328 696.924 37.0417 697.168 36.8594 697.363C36.6771 697.559 36.4102 697.656 36.0586 697.656C35.707 697.656 35.4401 697.559 35.2578 697.363C35.082 697.168 34.9941 696.924 34.9941 696.631ZM44.2324 710.195C42.8001 710.195 41.6348 709.727 40.7363 708.789C39.8379 707.845 39.3887 706.585 39.3887 705.01V704.678C39.3887 703.63 39.5872 702.695 39.9844 701.875C40.388 701.048 40.9479 700.404 41.6641 699.941C42.3867 699.473 43.168 699.238 44.0078 699.238C45.3815 699.238 46.4492 699.691 47.2109 700.596C47.9727 701.501 48.3535 702.796 48.3535 704.482V705.234H41.1953C41.2214 706.276 41.5241 707.119 42.1035 707.764C42.6895 708.402 43.4316 708.721 44.3301 708.721C44.9681 708.721 45.5085 708.59 45.9512 708.33C46.3939 708.07 46.7812 707.725 47.1133 707.295L48.2168 708.154C47.3314 709.515 46.0033 710.195 44.2324 710.195ZM44.0078 700.723C43.2786 700.723 42.6667 700.99 42.1719 701.523C41.6771 702.051 41.3711 702.793 41.2539 703.75H46.5469V703.613C46.4948 702.695 46.2474 701.986 45.8047 701.484C45.362 700.977 44.763 700.723 44.0078 700.723ZM54.9746 704.629C54.9746 703.008 55.3587 701.706 56.127 700.723C56.8952 699.733 57.901 699.238 59.1445 699.238C60.3815 699.238 61.3613 699.661 62.084 700.508V695H63.8906V710H62.2305L62.1426 708.867C61.4199 709.753 60.4141 710.195 59.125 710.195C57.901 710.195 56.9017 709.694 56.127 708.691C55.3587 707.689 54.9746 706.38 54.9746 704.766V704.629ZM56.7812 704.834C56.7812 706.032 57.0286 706.969 57.5234 707.646C58.0182 708.324 58.7018 708.662 59.5742 708.662C60.7201 708.662 61.5566 708.148 62.084 707.119V702.266C61.5436 701.27 60.7135 700.771 59.5938 700.771C58.7083 700.771 58.0182 701.113 57.5234 701.797C57.0286 702.48 56.7812 703.493 56.7812 704.834ZM71.0879 710.195C69.6556 710.195 68.4902 709.727 67.5918 708.789C66.6934 707.845 66.2441 706.585 66.2441 705.01V704.678C66.2441 703.63 66.4427 702.695 66.8398 701.875C67.2435 701.048 67.8034 700.404 68.5195 699.941C69.2422 699.473 70.0234 699.238 70.8633 699.238C72.237 699.238 73.3047 699.691 74.0664 700.596C74.8281 701.501 75.209 702.796 75.209 704.482V705.234H68.0508C68.0768 706.276 68.3796 707.119 68.959 707.764C69.5449 708.402 70.2871 708.721 71.1855 708.721C71.8236 708.721 72.3639 708.59 72.8066 708.33C73.2493 708.07 73.6367 707.725 73.9688 707.295L75.0723 708.154C74.1868 709.515 72.8587 710.195 71.0879 710.195ZM70.8633 700.723C70.1341 700.723 69.5221 700.99 69.0273 701.523C68.5326 702.051 68.2266 702.793 68.1094 703.75H73.4023V703.613C73.3503 702.695 73.1029 701.986 72.6602 701.484C72.2174 700.977 71.6185 700.723 70.8633 700.723ZM91.1953 704.834C91.1953 706.442 90.8275 707.738 90.0918 708.721C89.3561 709.704 88.36 710.195 87.1035 710.195C85.821 710.195 84.8118 709.788 84.0762 708.975V714.062H82.2695V699.434H83.9199L84.0078 700.605C84.7435 699.694 85.7656 699.238 87.0742 699.238C88.3438 699.238 89.3464 699.717 90.082 700.674C90.8242 701.631 91.1953 702.962 91.1953 704.668V704.834ZM89.3887 704.629C89.3887 703.438 89.1348 702.497 88.627 701.807C88.1191 701.117 87.4225 700.771 86.5371 700.771C85.4434 700.771 84.623 701.257 84.0762 702.227V707.275C84.6165 708.239 85.4434 708.721 86.5566 708.721C87.4225 708.721 88.1094 708.379 88.6172 707.695C89.1315 707.005 89.3887 705.983 89.3887 704.629ZM100.023 710C99.9193 709.792 99.8346 709.421 99.7695 708.887C98.9297 709.759 97.9271 710.195 96.7617 710.195C95.7201 710.195 94.8639 709.902 94.1934 709.316C93.5293 708.724 93.1973 707.975 93.1973 707.07C93.1973 705.97 93.6139 705.117 94.4473 704.512C95.2871 703.9 96.4655 703.594 97.9824 703.594H99.7402V702.764C99.7402 702.132 99.5514 701.631 99.1738 701.26C98.7962 700.882 98.2396 700.693 97.5039 700.693C96.8594 700.693 96.319 700.856 95.8828 701.182C95.4466 701.507 95.2285 701.901 95.2285 702.363H93.4121C93.4121 701.836 93.5977 701.328 93.9688 700.84C94.3464 700.345 94.8542 699.954 95.4922 699.668C96.1367 699.382 96.8431 699.238 97.6113 699.238C98.8288 699.238 99.7826 699.544 100.473 700.156C101.163 700.762 101.521 701.598 101.547 702.666V707.529C101.547 708.499 101.671 709.271 101.918 709.844V710H100.023ZM97.0254 708.623C97.5918 708.623 98.1289 708.477 98.6367 708.184C99.1445 707.891 99.5124 707.51 99.7402 707.041V704.873H98.3242C96.1107 704.873 95.0039 705.521 95.0039 706.816C95.0039 707.383 95.1927 707.826 95.5703 708.145C95.9479 708.464 96.4329 708.623 97.0254 708.623ZM98.6953 695H100.883L98.2656 697.871H96.8105L98.6953 695ZM103.949 704.629C103.949 702.982 104.33 701.673 105.092 700.703C105.854 699.727 106.863 699.238 108.119 699.238C109.408 699.238 110.414 699.694 111.137 700.605L111.225 699.434H112.875V709.746C112.875 711.113 112.468 712.191 111.654 712.979C110.847 713.766 109.76 714.16 108.393 714.16C107.631 714.16 106.885 713.997 106.156 713.672C105.427 713.346 104.87 712.9 104.486 712.334L105.424 711.25C106.199 712.207 107.146 712.686 108.266 712.686C109.145 712.686 109.828 712.438 110.316 711.943C110.811 711.449 111.059 710.752 111.059 709.854V708.945C110.336 709.779 109.35 710.195 108.1 710.195C106.863 710.195 105.86 709.697 105.092 708.701C104.33 707.705 103.949 706.348 103.949 704.629ZM105.766 704.834C105.766 706.025 106.01 706.963 106.498 707.646C106.986 708.324 107.67 708.662 108.549 708.662C109.688 708.662 110.525 708.145 111.059 707.109V702.285C110.505 701.276 109.675 700.771 108.568 700.771C107.689 700.771 107.003 701.113 106.508 701.797C106.013 702.48 105.766 703.493 105.766 704.834ZM117.572 710H115.766V699.434H117.572V710ZM115.619 696.631C115.619 696.338 115.707 696.09 115.883 695.889C116.065 695.687 116.332 695.586 116.684 695.586C117.035 695.586 117.302 695.687 117.484 695.889C117.667 696.09 117.758 696.338 117.758 696.631C117.758 696.924 117.667 697.168 117.484 697.363C117.302 697.559 117.035 697.656 116.684 697.656C116.332 697.656 116.065 697.559 115.883 697.363C115.707 697.168 115.619 696.924 115.619 696.631ZM122.182 699.434L122.24 700.762C123.048 699.746 124.102 699.238 125.404 699.238C127.637 699.238 128.764 700.498 128.783 703.018V710H126.977V703.008C126.97 702.246 126.794 701.683 126.449 701.318C126.111 700.954 125.58 700.771 124.857 700.771C124.271 700.771 123.757 700.928 123.314 701.24C122.872 701.553 122.527 701.963 122.279 702.471V710H120.473V699.434H122.182ZM138.031 710C137.927 709.792 137.842 709.421 137.777 708.887C136.938 709.759 135.935 710.195 134.77 710.195C133.728 710.195 132.872 709.902 132.201 709.316C131.537 708.724 131.205 707.975 131.205 707.07C131.205 705.97 131.622 705.117 132.455 704.512C133.295 703.9 134.473 703.594 135.99 703.594H137.748V702.764C137.748 702.132 137.559 701.631 137.182 701.26C136.804 700.882 136.247 700.693 135.512 700.693C134.867 700.693 134.327 700.856 133.891 701.182C133.454 701.507 133.236 701.901 133.236 702.363H131.42C131.42 701.836 131.605 701.328 131.977 700.84C132.354 700.345 132.862 699.954 133.5 699.668C134.145 699.382 134.851 699.238 135.619 699.238C136.837 699.238 137.79 699.544 138.48 700.156C139.171 700.762 139.529 701.598 139.555 702.666V707.529C139.555 708.499 139.678 709.271 139.926 709.844V710H138.031ZM135.033 708.623C135.6 708.623 136.137 708.477 136.645 708.184C137.152 707.891 137.52 707.51 137.748 707.041V704.873H136.332C134.118 704.873 133.012 705.521 133.012 706.816C133.012 707.383 133.201 707.826 133.578 708.145C133.956 708.464 134.441 708.623 135.033 708.623Z" fill="black"/>
<rect y="152" width="485" height="504" fill="white"/>
<path d="M24.7188 208.938H27.6719V220.902C27.6719 222.535 27.1602 223.832 26.1367 224.793C25.1211 225.754 23.7773 226.234 22.1055 226.234C20.3242 226.234 18.9492 225.785 17.9805 224.887C17.0117 223.988 16.5273 222.738 16.5273 221.137H19.4805C19.4805 222.043 19.7031 222.727 20.1484 223.188C20.6016 223.641 21.2539 223.867 22.1055 223.867C22.9023 223.867 23.5352 223.605 24.0039 223.082C24.4805 222.551 24.7188 221.82 24.7188 220.891V208.938ZM38.4766 224.758C37.6406 225.742 36.4531 226.234 34.9141 226.234C33.5391 226.234 32.4961 225.832 31.7852 225.027C31.082 224.223 30.7305 223.059 30.7305 221.535V213.32H33.5781V221.5C33.5781 223.109 34.2461 223.914 35.582 223.914C36.9648 223.914 37.8984 223.418 38.3828 222.426V213.32H41.2305V226H38.5469L38.4766 224.758ZM43.6328 219.566C43.6328 217.598 44.0938 216.027 45.0156 214.855C45.9453 213.676 47.1758 213.086 48.707 213.086C50.1523 213.086 51.2891 213.59 52.1172 214.598L52.2461 213.32H54.8125V225.613C54.8125 227.277 54.293 228.59 53.2539 229.551C52.2227 230.512 50.8281 230.992 49.0703 230.992C48.1406 230.992 47.2305 230.797 46.3398 230.406C45.457 230.023 44.7852 229.52 44.3242 228.895L45.6719 227.184C46.5469 228.223 47.625 228.742 48.9062 228.742C49.8516 228.742 50.5977 228.484 51.1445 227.969C51.6914 227.461 51.9648 226.711 51.9648 225.719V224.863C51.1445 225.777 50.0508 226.234 48.6836 226.234C47.1992 226.234 45.9844 225.645 45.0391 224.465C44.1016 223.285 43.6328 221.652 43.6328 219.566ZM46.4688 219.812C46.4688 221.086 46.7266 222.09 47.2422 222.824C47.7656 223.551 48.4883 223.914 49.4102 223.914C50.5586 223.914 51.4102 223.422 51.9648 222.438V216.859C51.4258 215.898 50.582 215.418 49.4336 215.418C48.4961 215.418 47.7656 215.789 47.2422 216.531C46.7266 217.273 46.4688 218.367 46.4688 219.812ZM65.3242 226C65.1992 225.758 65.0898 225.363 64.9961 224.816C64.0898 225.762 62.9805 226.234 61.668 226.234C60.3945 226.234 59.3555 225.871 58.5508 225.145C57.7461 224.418 57.3438 223.52 57.3438 222.449C57.3438 221.098 57.8438 220.062 58.8438 219.344C59.8516 218.617 61.2891 218.254 63.1562 218.254H64.9023V217.422C64.9023 216.766 64.7188 216.242 64.3516 215.852C63.9844 215.453 63.4258 215.254 62.6758 215.254C62.0273 215.254 61.4961 215.418 61.082 215.746C60.668 216.066 60.4609 216.477 60.4609 216.977H57.6133C57.6133 216.281 57.8438 215.633 58.3047 215.031C58.7656 214.422 59.3906 213.945 60.1797 213.602C60.9766 213.258 61.8633 213.086 62.8398 213.086C64.3242 213.086 65.5078 213.461 66.3906 214.211C67.2734 214.953 67.7266 216 67.75 217.352V223.07C67.75 224.211 67.9102 225.121 68.2305 225.801V226H65.3242ZM62.1953 223.949C62.7578 223.949 63.2852 223.812 63.7773 223.539C64.2773 223.266 64.6523 222.898 64.9023 222.438V220.047H63.3672C62.3125 220.047 61.5195 220.23 60.9883 220.598C60.457 220.965 60.1914 221.484 60.1914 222.156C60.1914 222.703 60.3711 223.141 60.7305 223.469C61.0977 223.789 61.5859 223.949 62.1953 223.949ZM70.1992 219.566C70.1992 217.613 70.6523 216.047 71.5586 214.867C72.4648 213.68 73.6797 213.086 75.2031 213.086C76.5469 213.086 77.6328 213.555 78.4609 214.492V208H81.3086V226H78.7305L78.5898 224.688C77.7383 225.719 76.6016 226.234 75.1797 226.234C73.6953 226.234 72.4922 225.637 71.5703 224.441C70.6562 223.246 70.1992 221.621 70.1992 219.566ZM73.0469 219.812C73.0469 221.102 73.293 222.109 73.7852 222.836C74.2852 223.555 74.9922 223.914 75.9062 223.914C77.0703 223.914 77.9219 223.395 78.4609 222.355V216.941C77.9375 215.926 77.0938 215.418 75.9297 215.418C75.0078 215.418 74.2969 215.785 73.7969 216.52C73.2969 217.246 73.0469 218.344 73.0469 219.812ZM83.7461 219.543C83.7461 218.301 83.9922 217.184 84.4844 216.191C84.9766 215.191 85.668 214.426 86.5586 213.895C87.4492 213.355 88.4727 213.086 89.6289 213.086C91.3398 213.086 92.7266 213.637 93.7891 214.738C94.8594 215.84 95.4375 217.301 95.5234 219.121L95.5352 219.789C95.5352 221.039 95.293 222.156 94.8086 223.141C94.332 224.125 93.6445 224.887 92.7461 225.426C91.8555 225.965 90.8242 226.234 89.6523 226.234C87.8633 226.234 86.4297 225.641 85.3516 224.453C84.2812 223.258 83.7461 221.668 83.7461 219.684V219.543ZM86.5938 219.789C86.5938 221.094 86.8633 222.117 87.4023 222.859C87.9414 223.594 88.6914 223.961 89.6523 223.961C90.6133 223.961 91.3594 223.586 91.8906 222.836C92.4297 222.086 92.6992 220.988 92.6992 219.543C92.6992 218.262 92.4219 217.246 91.8672 216.496C91.3203 215.746 90.5742 215.371 89.6289 215.371C88.6992 215.371 87.9609 215.742 87.4141 216.484C86.8672 217.219 86.5938 218.32 86.5938 219.789ZM104.582 215.922C104.207 215.859 103.82 215.828 103.422 215.828C102.117 215.828 101.238 216.328 100.785 217.328V226H97.9375V213.32H100.656L100.727 214.738C101.414 213.637 102.367 213.086 103.586 213.086C103.992 213.086 104.328 213.141 104.594 213.25L104.582 215.922ZM111.73 226.234C109.926 226.234 108.461 225.668 107.336 224.535C106.219 223.395 105.66 221.879 105.66 219.988V219.637C105.66 218.371 105.902 217.242 106.387 216.25C106.879 215.25 107.566 214.473 108.449 213.918C109.332 213.363 110.316 213.086 111.402 213.086C113.129 213.086 114.461 213.637 115.398 214.738C116.344 215.84 116.816 217.398 116.816 219.414V220.562H108.531C108.617 221.609 108.965 222.438 109.574 223.047C110.191 223.656 110.965 223.961 111.895 223.961C113.199 223.961 114.262 223.434 115.082 222.379L116.617 223.844C116.109 224.602 115.43 225.191 114.578 225.613C113.734 226.027 112.785 226.234 111.73 226.234ZM111.391 215.371C110.609 215.371 109.977 215.645 109.492 216.191C109.016 216.738 108.711 217.5 108.578 218.477H114.004V218.266C113.941 217.312 113.688 216.594 113.242 216.109C112.797 215.617 112.18 215.371 111.391 215.371ZM126.145 222.555C126.145 222.047 125.934 221.66 125.512 221.395C125.098 221.129 124.406 220.895 123.438 220.691C122.469 220.488 121.66 220.23 121.012 219.918C119.59 219.23 118.879 218.234 118.879 216.93C118.879 215.836 119.34 214.922 120.262 214.188C121.184 213.453 122.355 213.086 123.777 213.086C125.293 213.086 126.516 213.461 127.445 214.211C128.383 214.961 128.852 215.934 128.852 217.129H126.004C126.004 216.582 125.801 216.129 125.395 215.77C124.988 215.402 124.449 215.219 123.777 215.219C123.152 215.219 122.641 215.363 122.242 215.652C121.852 215.941 121.656 216.328 121.656 216.812C121.656 217.25 121.84 217.59 122.207 217.832C122.574 218.074 123.316 218.32 124.434 218.57C125.551 218.812 126.426 219.105 127.059 219.449C127.699 219.785 128.172 220.191 128.477 220.668C128.789 221.145 128.945 221.723 128.945 222.402C128.945 223.543 128.473 224.469 127.527 225.18C126.582 225.883 125.344 226.234 123.812 226.234C122.773 226.234 121.848 226.047 121.035 225.672C120.223 225.297 119.59 224.781 119.137 224.125C118.684 223.469 118.457 222.762 118.457 222.004H121.223C121.262 222.676 121.516 223.195 121.984 223.562C122.453 223.922 123.074 224.102 123.848 224.102C124.598 224.102 125.168 223.961 125.559 223.68C125.949 223.391 126.145 223.016 126.145 222.555ZM150.168 208.938V220.34C150.168 222.152 149.586 223.59 148.422 224.652C147.266 225.707 145.723 226.234 143.793 226.234C141.84 226.234 140.289 225.715 139.141 224.676C137.992 223.629 137.418 222.18 137.418 220.328V208.938H140.371V220.352C140.371 221.492 140.66 222.363 141.238 222.965C141.816 223.566 142.668 223.867 143.793 223.867C146.074 223.867 147.215 222.664 147.215 220.258V208.938H150.168ZM155.711 213.32L155.793 214.785C156.73 213.652 157.961 213.086 159.484 213.086C162.125 213.086 163.469 214.598 163.516 217.621V226H160.668V217.785C160.668 216.98 160.492 216.387 160.141 216.004C159.797 215.613 159.23 215.418 158.441 215.418C157.293 215.418 156.438 215.938 155.875 216.977V226H153.027V213.32H155.711ZM169.457 226H166.609V213.32H169.457V226ZM166.434 210.027C166.434 209.59 166.57 209.227 166.844 208.938C167.125 208.648 167.523 208.504 168.039 208.504C168.555 208.504 168.953 208.648 169.234 208.938C169.516 209.227 169.656 209.59 169.656 210.027C169.656 210.457 169.516 210.816 169.234 211.105C168.953 211.387 168.555 211.527 168.039 211.527C167.523 211.527 167.125 211.387 166.844 211.105C166.57 210.816 166.434 210.457 166.434 210.027ZM172.035 219.566C172.035 217.613 172.488 216.047 173.395 214.867C174.301 213.68 175.516 213.086 177.039 213.086C178.383 213.086 179.469 213.555 180.297 214.492V208H183.145V226H180.566L180.426 224.688C179.574 225.719 178.438 226.234 177.016 226.234C175.531 226.234 174.328 225.637 173.406 224.441C172.492 223.246 172.035 221.621 172.035 219.566ZM174.883 219.812C174.883 221.102 175.129 222.109 175.621 222.836C176.121 223.555 176.828 223.914 177.742 223.914C178.906 223.914 179.758 223.395 180.297 222.355V216.941C179.773 215.926 178.93 215.418 177.766 215.418C176.844 215.418 176.133 215.785 175.633 216.52C175.133 217.246 174.883 218.344 174.883 219.812ZM185.582 219.543C185.582 218.301 185.828 217.184 186.32 216.191C186.812 215.191 187.504 214.426 188.395 213.895C189.285 213.355 190.309 213.086 191.465 213.086C193.176 213.086 194.562 213.637 195.625 214.738C196.695 215.84 197.273 217.301 197.359 219.121L197.371 219.789C197.371 221.039 197.129 222.156 196.645 223.141C196.168 224.125 195.48 224.887 194.582 225.426C193.691 225.965 192.66 226.234 191.488 226.234C189.699 226.234 188.266 225.641 187.188 224.453C186.117 223.258 185.582 221.668 185.582 219.684V219.543ZM188.43 219.789C188.43 221.094 188.699 222.117 189.238 222.859C189.777 223.594 190.527 223.961 191.488 223.961C192.449 223.961 193.195 223.586 193.727 222.836C194.266 222.086 194.535 220.988 194.535 219.543C194.535 218.262 194.258 217.246 193.703 216.496C193.156 215.746 192.41 215.371 191.465 215.371C190.535 215.371 189.797 215.742 189.25 216.484C188.703 217.219 188.43 218.32 188.43 219.789ZM206.887 222.555C206.887 222.047 206.676 221.66 206.254 221.395C205.84 221.129 205.148 220.895 204.18 220.691C203.211 220.488 202.402 220.23 201.754 219.918C200.332 219.23 199.621 218.234 199.621 216.93C199.621 215.836 200.082 214.922 201.004 214.188C201.926 213.453 203.098 213.086 204.52 213.086C206.035 213.086 207.258 213.461 208.188 214.211C209.125 214.961 209.594 215.934 209.594 217.129H206.746C206.746 216.582 206.543 216.129 206.137 215.77C205.73 215.402 205.191 215.219 204.52 215.219C203.895 215.219 203.383 215.363 202.984 215.652C202.594 215.941 202.398 216.328 202.398 216.812C202.398 217.25 202.582 217.59 202.949 217.832C203.316 218.074 204.059 218.32 205.176 218.57C206.293 218.812 207.168 219.105 207.801 219.449C208.441 219.785 208.914 220.191 209.219 220.668C209.531 221.145 209.688 221.723 209.688 222.402C209.688 223.543 209.215 224.469 208.27 225.18C207.324 225.883 206.086 226.234 204.555 226.234C203.516 226.234 202.59 226.047 201.777 225.672C200.965 225.297 200.332 224.781 199.879 224.125C199.426 223.469 199.199 222.762 199.199 222.004H201.965C202.004 222.676 202.258 223.195 202.727 223.562C203.195 223.922 203.816 224.102 204.59 224.102C205.34 224.102 205.91 223.961 206.301 223.68C206.691 223.391 206.887 223.016 206.887 222.555ZM223.738 226.234C221.934 226.234 220.469 225.668 219.344 224.535C218.227 223.395 217.668 221.879 217.668 219.988V219.637C217.668 218.371 217.91 217.242 218.395 216.25C218.887 215.25 219.574 214.473 220.457 213.918C221.34 213.363 222.324 213.086 223.41 213.086C225.137 213.086 226.469 213.637 227.406 214.738C228.352 215.84 228.824 217.398 228.824 219.414V220.562H220.539C220.625 221.609 220.973 222.438 221.582 223.047C222.199 223.656 222.973 223.961 223.902 223.961C225.207 223.961 226.27 223.434 227.09 222.379L228.625 223.844C228.117 224.602 227.438 225.191 226.586 225.613C225.742 226.027 224.793 226.234 223.738 226.234ZM223.398 215.371C222.617 215.371 221.984 215.645 221.5 216.191C221.023 216.738 220.719 217.5 220.586 218.477H226.012V218.266C225.949 217.312 225.695 216.594 225.25 216.109C224.805 215.617 224.188 215.371 223.398 215.371ZM233.688 213.32L233.77 214.785C234.707 213.652 235.938 213.086 237.461 213.086C240.102 213.086 241.445 214.598 241.492 217.621V226H238.645V217.785C238.645 216.98 238.469 216.387 238.117 216.004C237.773 215.613 237.207 215.418 236.418 215.418C235.27 215.418 234.414 215.938 233.852 216.977V226H231.004V213.32H233.688ZM253.41 226H250.562V208H253.41V226ZM264.098 226C263.973 225.758 263.863 225.363 263.77 224.816C262.863 225.762 261.754 226.234 260.441 226.234C259.168 226.234 258.129 225.871 257.324 225.145C256.52 224.418 256.117 223.52 256.117 222.449C256.117 221.098 256.617 220.062 257.617 219.344C258.625 218.617 260.062 218.254 261.93 218.254H263.676V217.422C263.676 216.766 263.492 216.242 263.125 215.852C262.758 215.453 262.199 215.254 261.449 215.254C260.801 215.254 260.27 215.418 259.855 215.746C259.441 216.066 259.234 216.477 259.234 216.977H256.387C256.387 216.281 256.617 215.633 257.078 215.031C257.539 214.422 258.164 213.945 258.953 213.602C259.75 213.258 260.637 213.086 261.613 213.086C263.098 213.086 264.281 213.461 265.164 214.211C266.047 214.953 266.5 216 266.523 217.352V223.07C266.523 224.211 266.684 225.121 267.004 225.801V226H264.098ZM260.969 223.949C261.531 223.949 262.059 223.812 262.551 223.539C263.051 223.266 263.426 222.898 263.676 222.438V220.047H262.141C261.086 220.047 260.293 220.23 259.762 220.598C259.23 220.965 258.965 221.484 258.965 222.156C258.965 222.703 259.145 223.141 259.504 223.469C259.871 223.789 260.359 223.949 260.969 223.949ZM282.59 222.555C282.59 222.047 282.379 221.66 281.957 221.395C281.543 221.129 280.852 220.895 279.883 220.691C278.914 220.488 278.105 220.23 277.457 219.918C276.035 219.23 275.324 218.234 275.324 216.93C275.324 215.836 275.785 214.922 276.707 214.188C277.629 213.453 278.801 213.086 280.223 213.086C281.738 213.086 282.961 213.461 283.891 214.211C284.828 214.961 285.297 215.934 285.297 217.129H282.449C282.449 216.582 282.246 216.129 281.84 215.77C281.434 215.402 280.895 215.219 280.223 215.219C279.598 215.219 279.086 215.363 278.688 215.652C278.297 215.941 278.102 216.328 278.102 216.812C278.102 217.25 278.285 217.59 278.652 217.832C279.02 218.074 279.762 218.32 280.879 218.57C281.996 218.812 282.871 219.105 283.504 219.449C284.145 219.785 284.617 220.191 284.922 220.668C285.234 221.145 285.391 221.723 285.391 222.402C285.391 223.543 284.918 224.469 283.973 225.18C283.027 225.883 281.789 226.234 280.258 226.234C279.219 226.234 278.293 226.047 277.48 225.672C276.668 225.297 276.035 224.781 275.582 224.125C275.129 223.469 274.902 222.762 274.902 222.004H277.668C277.707 222.676 277.961 223.195 278.43 223.562C278.898 223.922 279.52 224.102 280.293 224.102C281.043 224.102 281.613 223.961 282.004 223.68C282.395 223.391 282.59 223.016 282.59 222.555ZM293.465 226.234C291.66 226.234 290.195 225.668 289.07 224.535C287.953 223.395 287.395 221.879 287.395 219.988V219.637C287.395 218.371 287.637 217.242 288.121 216.25C288.613 215.25 289.301 214.473 290.184 213.918C291.066 213.363 292.051 213.086 293.137 213.086C294.863 213.086 296.195 213.637 297.133 214.738C298.078 215.84 298.551 217.398 298.551 219.414V220.562H290.266C290.352 221.609 290.699 222.438 291.309 223.047C291.926 223.656 292.699 223.961 293.629 223.961C294.934 223.961 295.996 223.434 296.816 222.379L298.352 223.844C297.844 224.602 297.164 225.191 296.312 225.613C295.469 226.027 294.52 226.234 293.465 226.234ZM293.125 215.371C292.344 215.371 291.711 215.645 291.227 216.191C290.75 216.738 290.445 217.5 290.312 218.477H295.738V218.266C295.676 217.312 295.422 216.594 294.977 216.109C294.531 215.617 293.914 215.371 293.125 215.371ZM307.879 222.555C307.879 222.047 307.668 221.66 307.246 221.395C306.832 221.129 306.141 220.895 305.172 220.691C304.203 220.488 303.395 220.23 302.746 219.918C301.324 219.23 300.613 218.234 300.613 216.93C300.613 215.836 301.074 214.922 301.996 214.188C302.918 213.453 304.09 213.086 305.512 213.086C307.027 213.086 308.25 213.461 309.18 214.211C310.117 214.961 310.586 215.934 310.586 217.129H307.738C307.738 216.582 307.535 216.129 307.129 215.77C306.723 215.402 306.184 215.219 305.512 215.219C304.887 215.219 304.375 215.363 303.977 215.652C303.586 215.941 303.391 216.328 303.391 216.812C303.391 217.25 303.574 217.59 303.941 217.832C304.309 218.074 305.051 218.32 306.168 218.57C307.285 218.812 308.16 219.105 308.793 219.449C309.434 219.785 309.906 220.191 310.211 220.668C310.523 221.145 310.68 221.723 310.68 222.402C310.68 223.543 310.207 224.469 309.262 225.18C308.316 225.883 307.078 226.234 305.547 226.234C304.508 226.234 303.582 226.047 302.77 225.672C301.957 225.297 301.324 224.781 300.871 224.125C300.418 223.469 300.191 222.762 300.191 222.004H302.957C302.996 222.676 303.25 223.195 303.719 223.562C304.188 223.922 304.809 224.102 305.582 224.102C306.332 224.102 306.902 223.961 307.293 223.68C307.684 223.391 307.879 223.016 307.879 222.555ZM316.199 226H313.352V213.32H316.199V226ZM313.176 210.027C313.176 209.59 313.312 209.227 313.586 208.938C313.867 208.648 314.266 208.504 314.781 208.504C315.297 208.504 315.695 208.648 315.977 208.938C316.258 209.227 316.398 209.59 316.398 210.027C316.398 210.457 316.258 210.816 315.977 211.105C315.695 211.387 315.297 211.527 314.781 211.527C314.266 211.527 313.867 211.387 313.586 211.105C313.312 210.816 313.176 210.457 313.176 210.027ZM318.777 219.543C318.777 218.301 319.023 217.184 319.516 216.191C320.008 215.191 320.699 214.426 321.59 213.895C322.48 213.355 323.504 213.086 324.66 213.086C326.371 213.086 327.758 213.637 328.82 214.738C329.891 215.84 330.469 217.301 330.555 219.121L330.566 219.789C330.566 221.039 330.324 222.156 329.84 223.141C329.363 224.125 328.676 224.887 327.777 225.426C326.887 225.965 325.855 226.234 324.684 226.234C322.895 226.234 321.461 225.641 320.383 224.453C319.312 223.258 318.777 221.668 318.777 219.684V219.543ZM321.625 219.789C321.625 221.094 321.895 222.117 322.434 222.859C322.973 223.594 323.723 223.961 324.684 223.961C325.645 223.961 326.391 223.586 326.922 222.836C327.461 222.086 327.73 220.988 327.73 219.543C327.73 218.262 327.453 217.246 326.898 216.496C326.352 215.746 325.605 215.371 324.66 215.371C323.73 215.371 322.992 215.742 322.445 216.484C321.898 217.219 321.625 218.32 321.625 219.789ZM325.445 208H328.691L325.445 211.551H323.16L325.445 208ZM335.617 213.32L335.699 214.785C336.637 213.652 337.867 213.086 339.391 213.086C342.031 213.086 343.375 214.598 343.422 217.621V226H340.574V217.785C340.574 216.98 340.398 216.387 340.047 216.004C339.703 215.613 339.137 215.418 338.348 215.418C337.199 215.418 336.344 215.938 335.781 216.977V226H332.934V213.32H335.617Z" fill="black"/>
<path d="M32.9883 285H30.1523V271.301L25.9688 272.73V270.328L32.625 267.879H32.9883V285ZM40.875 282C41.4062 282 41.8164 282.152 42.1055 282.457C42.3945 282.754 42.5391 283.129 42.5391 283.582C42.5391 284.027 42.3945 284.398 42.1055 284.695C41.8164 284.984 41.4062 285.129 40.875 285.129C40.3672 285.129 39.9648 284.984 39.668 284.695C39.3711 284.406 39.2227 284.035 39.2227 283.582C39.2227 283.129 39.3672 282.754 39.6562 282.457C39.9453 282.152 40.3516 282 40.875 282ZM62.0273 277.383H55.0195V282.633H63.2109V285H52.0547V267.938H63.1289V270.328H55.0195V275.039H62.0273V277.383ZM64.582 278.566C64.582 276.613 65.0352 275.047 65.9414 273.867C66.8477 272.68 68.0625 272.086 69.5859 272.086C70.9297 272.086 72.0156 272.555 72.8438 273.492V267H75.6914V285H73.1133L72.9727 283.688C72.1211 284.719 70.9844 285.234 69.5625 285.234C68.0781 285.234 66.875 284.637 65.9531 283.441C65.0391 282.246 64.582 280.621 64.582 278.566ZM67.4297 278.812C67.4297 280.102 67.6758 281.109 68.168 281.836C68.668 282.555 69.375 282.914 70.2891 282.914C71.4531 282.914 72.3047 282.395 72.8438 281.355V275.941C72.3203 274.926 71.4766 274.418 70.3125 274.418C69.3906 274.418 68.6797 274.785 68.1797 275.52C67.6797 276.246 67.4297 277.344 67.4297 278.812ZM78.1641 278.566C78.1641 276.598 78.625 275.027 79.5469 273.855C80.4766 272.676 81.707 272.086 83.2383 272.086C84.6836 272.086 85.8203 272.59 86.6484 273.598L86.7773 272.32H89.3438V284.613C89.3438 286.277 88.8242 287.59 87.7852 288.551C86.7539 289.512 85.3594 289.992 83.6016 289.992C82.6719 289.992 81.7617 289.797 80.8711 289.406C79.9883 289.023 79.3164 288.52 78.8555 287.895L80.2031 286.184C81.0781 287.223 82.1562 287.742 83.4375 287.742C84.3828 287.742 85.1289 287.484 85.6758 286.969C86.2227 286.461 86.4961 285.711 86.4961 284.719V283.863C85.6758 284.777 84.582 285.234 83.2148 285.234C81.7305 285.234 80.5156 284.645 79.5703 283.465C78.6328 282.285 78.1641 280.652 78.1641 278.566ZM81 278.812C81 280.086 81.2578 281.09 81.7734 281.824C82.2969 282.551 83.0195 282.914 83.9414 282.914C85.0898 282.914 85.9414 282.422 86.4961 281.438V275.859C85.957 274.898 85.1133 274.418 83.9648 274.418C83.0273 274.418 82.2969 274.789 81.7734 275.531C81.2578 276.273 81 277.367 81 278.812ZM99.8555 285C99.7305 284.758 99.6211 284.363 99.5273 283.816C98.6211 284.762 97.5117 285.234 96.1992 285.234C94.9258 285.234 93.8867 284.871 93.082 284.145C92.2773 283.418 91.875 282.52 91.875 281.449C91.875 280.098 92.375 279.062 93.375 278.344C94.3828 277.617 95.8203 277.254 97.6875 277.254H99.4336V276.422C99.4336 275.766 99.25 275.242 98.8828 274.852C98.5156 274.453 97.957 274.254 97.207 274.254C96.5586 274.254 96.0273 274.418 95.6133 274.746C95.1992 275.066 94.9922 275.477 94.9922 275.977H92.1445C92.1445 275.281 92.375 274.633 92.8359 274.031C93.2969 273.422 93.9219 272.945 94.7109 272.602C95.5078 272.258 96.3945 272.086 97.3711 272.086C98.8555 272.086 100.039 272.461 100.922 273.211C101.805 273.953 102.258 275 102.281 276.352V282.07C102.281 283.211 102.441 284.121 102.762 284.801V285H99.8555ZM96.7266 282.949C97.2891 282.949 97.8164 282.812 98.3086 282.539C98.8086 282.266 99.1836 281.898 99.4336 281.438V279.047H97.8984C96.8438 279.047 96.0508 279.23 95.5195 279.598C94.9883 279.965 94.7227 280.484 94.7227 281.156C94.7227 281.703 94.9023 282.141 95.2617 282.469C95.6289 282.789 96.1172 282.949 96.7266 282.949ZM111.902 274.922C111.527 274.859 111.141 274.828 110.742 274.828C109.438 274.828 108.559 275.328 108.105 276.328V285H105.258V272.32H107.977L108.047 273.738C108.734 272.637 109.688 272.086 110.906 272.086C111.312 272.086 111.648 272.141 111.914 272.25L111.902 274.922ZM128.871 280.605C128.871 279.855 128.605 279.277 128.074 278.871C127.551 278.465 126.602 278.055 125.227 277.641C123.852 277.227 122.758 276.766 121.945 276.258C120.391 275.281 119.613 274.008 119.613 272.438C119.613 271.062 120.172 269.93 121.289 269.039C122.414 268.148 123.871 267.703 125.66 267.703C126.848 267.703 127.906 267.922 128.836 268.359C129.766 268.797 130.496 269.422 131.027 270.234C131.559 271.039 131.824 271.934 131.824 272.918H128.871C128.871 272.027 128.59 271.332 128.027 270.832C127.473 270.324 126.676 270.07 125.637 270.07C124.668 270.07 123.914 270.277 123.375 270.691C122.844 271.105 122.578 271.684 122.578 272.426C122.578 273.051 122.867 273.574 123.445 273.996C124.023 274.41 124.977 274.816 126.305 275.215C127.633 275.605 128.699 276.055 129.504 276.562C130.309 277.062 130.898 277.641 131.273 278.297C131.648 278.945 131.836 279.707 131.836 280.582C131.836 282.004 131.289 283.137 130.195 283.98C129.109 284.816 127.633 285.234 125.766 285.234C124.531 285.234 123.395 285.008 122.355 284.555C121.324 284.094 120.52 283.461 119.941 282.656C119.371 281.852 119.086 280.914 119.086 279.844H122.051C122.051 280.812 122.371 281.562 123.012 282.094C123.652 282.625 124.57 282.891 125.766 282.891C126.797 282.891 127.57 282.684 128.086 282.27C128.609 281.848 128.871 281.293 128.871 280.605ZM137.191 285H134.344V272.32H137.191V285ZM134.168 269.027C134.168 268.59 134.305 268.227 134.578 267.938C134.859 267.648 135.258 267.504 135.773 267.504C136.289 267.504 136.688 267.648 136.969 267.938C137.25 268.227 137.391 268.59 137.391 269.027C137.391 269.457 137.25 269.816 136.969 270.105C136.688 270.387 136.289 270.527 135.773 270.527C135.258 270.527 134.859 270.387 134.578 270.105C134.305 269.816 134.168 269.457 134.168 269.027ZM143.332 285H140.484V267H143.332V285ZM150.914 281.391L153.598 272.32H156.539L152.145 285H149.672L145.242 272.32H148.195L150.914 281.391ZM165.715 285C165.59 284.758 165.48 284.363 165.387 283.816C164.48 284.762 163.371 285.234 162.059 285.234C160.785 285.234 159.746 284.871 158.941 284.145C158.137 283.418 157.734 282.52 157.734 281.449C157.734 280.098 158.234 279.062 159.234 278.344C160.242 277.617 161.68 277.254 163.547 277.254H165.293V276.422C165.293 275.766 165.109 275.242 164.742 274.852C164.375 274.453 163.816 274.254 163.066 274.254C162.418 274.254 161.887 274.418 161.473 274.746C161.059 275.066 160.852 275.477 160.852 275.977H158.004C158.004 275.281 158.234 274.633 158.695 274.031C159.156 273.422 159.781 272.945 160.57 272.602C161.367 272.258 162.254 272.086 163.23 272.086C164.715 272.086 165.898 272.461 166.781 273.211C167.664 273.953 168.117 275 168.141 276.352V282.07C168.141 283.211 168.301 284.121 168.621 284.801V285H165.715ZM162.586 282.949C163.148 282.949 163.676 282.812 164.168 282.539C164.668 282.266 165.043 281.898 165.293 281.438V279.047H163.758C162.703 279.047 161.91 279.23 161.379 279.598C160.848 279.965 160.582 280.484 160.582 281.156C160.582 281.703 160.762 282.141 161.121 282.469C161.488 282.789 161.977 282.949 162.586 282.949Z" fill="black"/>
<rect x="16.5" y="522.5" width="160" height="50" rx="13.5" fill="#5E6464" stroke="black"/>
<rect x="237.5" y="522.5" width="160" height="50" rx="13.5" fill="white" stroke="black"/>
<path d="M31.6621 555H29.7871V540.781H31.6621V555ZM36.5254 544.434L36.584 545.762C37.3913 544.746 38.446 544.238 39.748 544.238C41.9811 544.238 43.1074 545.498 43.127 548.018V555H41.3203V548.008C41.3138 547.246 41.138 546.683 40.793 546.318C40.4544 545.954 39.9238 545.771 39.2012 545.771C38.6152 545.771 38.1009 545.928 37.6582 546.24C37.2155 546.553 36.8704 546.963 36.623 547.471V555H34.8164V544.434H36.5254ZM47.8145 555H46.0078V544.434H47.8145V555ZM45.8613 541.631C45.8613 541.338 45.9492 541.09 46.125 540.889C46.3073 540.687 46.5742 540.586 46.9258 540.586C47.2773 540.586 47.5443 540.687 47.7266 540.889C47.9089 541.09 48 541.338 48 541.631C48 541.924 47.9089 542.168 47.7266 542.363C47.5443 542.559 47.2773 542.656 46.9258 542.656C46.5742 542.656 46.3073 542.559 46.125 542.363C45.9492 542.168 45.8613 541.924 45.8613 541.631ZM54.9531 553.721C55.5977 553.721 56.1608 553.525 56.6426 553.135C57.1243 552.744 57.3913 552.256 57.4434 551.67H59.1523C59.1198 552.275 58.9115 552.852 58.5273 553.398C58.1432 553.945 57.6289 554.382 56.9844 554.707C56.3464 555.033 55.6693 555.195 54.9531 555.195C53.5143 555.195 52.3685 554.717 51.5156 553.76C50.6693 552.796 50.2461 551.481 50.2461 549.814V549.512C50.2461 548.483 50.4349 547.568 50.8125 546.768C51.1901 545.967 51.7305 545.345 52.4336 544.902C53.1432 544.46 53.9798 544.238 54.9434 544.238C56.1283 544.238 57.1113 544.593 57.8926 545.303C58.6803 546.012 59.1003 546.934 59.1523 548.066H57.4434C57.3913 547.383 57.1309 546.823 56.6621 546.387C56.1999 545.944 55.627 545.723 54.9434 545.723C54.0254 545.723 53.3125 546.055 52.8047 546.719C52.3034 547.376 52.0527 548.33 52.0527 549.58V549.922C52.0527 551.139 52.3034 552.077 52.8047 552.734C53.306 553.392 54.0221 553.721 54.9531 553.721ZM63.1465 555H61.3398V544.434H63.1465V555ZM61.1934 541.631C61.1934 541.338 61.2812 541.09 61.457 540.889C61.6393 540.687 61.9062 540.586 62.2578 540.586C62.6094 540.586 62.8763 540.687 63.0586 540.889C63.2409 541.09 63.332 541.338 63.332 541.631C63.332 541.924 63.2409 542.168 63.0586 542.363C62.8763 542.559 62.6094 542.656 62.2578 542.656C61.9062 542.656 61.6393 542.559 61.457 542.363C61.2812 542.168 61.1934 541.924 61.1934 541.631ZM72.5703 555C72.4661 554.792 72.3815 554.421 72.3164 553.887C71.4766 554.759 70.474 555.195 69.3086 555.195C68.2669 555.195 67.4108 554.902 66.7402 554.316C66.0762 553.724 65.7441 552.975 65.7441 552.07C65.7441 550.97 66.1608 550.117 66.9941 549.512C67.834 548.9 69.0124 548.594 70.5293 548.594H72.2871V547.764C72.2871 547.132 72.0983 546.631 71.7207 546.26C71.3431 545.882 70.7865 545.693 70.0508 545.693C69.4062 545.693 68.8659 545.856 68.4297 546.182C67.9935 546.507 67.7754 546.901 67.7754 547.363H65.959C65.959 546.836 66.1445 546.328 66.5156 545.84C66.8932 545.345 67.401 544.954 68.0391 544.668C68.6836 544.382 69.39 544.238 70.1582 544.238C71.3757 544.238 72.3294 544.544 73.0195 545.156C73.7096 545.762 74.0677 546.598 74.0938 547.666V552.529C74.0938 553.499 74.2174 554.271 74.4648 554.844V555H72.5703ZM69.5723 553.623C70.1387 553.623 70.6758 553.477 71.1836 553.184C71.6914 552.891 72.0592 552.51 72.2871 552.041V549.873H70.8711C68.6576 549.873 67.5508 550.521 67.5508 551.816C67.5508 552.383 67.7396 552.826 68.1172 553.145C68.4948 553.464 68.9798 553.623 69.5723 553.623ZM82.0332 546.055C81.7598 546.009 81.4635 545.986 81.1445 545.986C79.9596 545.986 79.1556 546.491 78.7324 547.5V555H76.9258V544.434H78.6836L78.7129 545.654C79.3053 544.71 80.1452 544.238 81.2324 544.238C81.584 544.238 81.8509 544.284 82.0332 544.375V546.055ZM90.8223 549.434V555H88.9473V540.781H94.1914C95.7474 540.781 96.9648 541.178 97.8438 541.973C98.7292 542.767 99.1719 543.818 99.1719 545.127C99.1719 546.507 98.7389 547.572 97.873 548.32C97.0137 549.062 95.7799 549.434 94.1719 549.434H90.8223ZM90.8223 547.9H94.1914C95.194 547.9 95.9622 547.666 96.4961 547.197C97.0299 546.722 97.2969 546.038 97.2969 545.146C97.2969 544.3 97.0299 543.623 96.4961 543.115C95.9622 542.607 95.2298 542.344 94.2988 542.324H90.8223V547.9ZM107.688 555C107.583 554.792 107.499 554.421 107.434 553.887C106.594 554.759 105.591 555.195 104.426 555.195C103.384 555.195 102.528 554.902 101.857 554.316C101.193 553.724 100.861 552.975 100.861 552.07C100.861 550.97 101.278 550.117 102.111 549.512C102.951 548.9 104.13 548.594 105.646 548.594H107.404V547.764C107.404 547.132 107.215 546.631 106.838 546.26C106.46 545.882 105.904 545.693 105.168 545.693C104.523 545.693 103.983 545.856 103.547 546.182C103.111 546.507 102.893 546.901 102.893 547.363H101.076C101.076 546.836 101.262 546.328 101.633 545.84C102.01 545.345 102.518 544.954 103.156 544.668C103.801 544.382 104.507 544.238 105.275 544.238C106.493 544.238 107.447 544.544 108.137 545.156C108.827 545.762 109.185 546.598 109.211 547.666V552.529C109.211 553.499 109.335 554.271 109.582 554.844V555H107.688ZM104.689 553.623C105.256 553.623 105.793 553.477 106.301 553.184C106.809 552.891 107.176 552.51 107.404 552.041V549.873H105.988C103.775 549.873 102.668 550.521 102.668 551.816C102.668 552.383 102.857 552.826 103.234 553.145C103.612 553.464 104.097 553.623 104.689 553.623ZM117.15 546.055C116.877 546.009 116.581 545.986 116.262 545.986C115.077 545.986 114.273 546.491 113.85 547.5V555H112.043V544.434H113.801L113.83 545.654C114.423 544.71 115.262 544.238 116.35 544.238C116.701 544.238 116.968 544.284 117.15 544.375V546.055ZM121.76 541.875V544.434H123.732V545.83H121.76V552.383C121.76 552.806 121.848 553.125 122.023 553.34C122.199 553.548 122.499 553.652 122.922 553.652C123.13 553.652 123.417 553.613 123.781 553.535V555C123.306 555.13 122.844 555.195 122.395 555.195C121.587 555.195 120.979 554.951 120.568 554.463C120.158 553.975 119.953 553.281 119.953 552.383V545.83H118.029V544.434H119.953V541.875H121.76ZM127.814 555H126.008V544.434H127.814V555ZM125.861 541.631C125.861 541.338 125.949 541.09 126.125 540.889C126.307 540.687 126.574 540.586 126.926 540.586C127.277 540.586 127.544 540.687 127.727 540.889C127.909 541.09 128 541.338 128 541.631C128 541.924 127.909 542.168 127.727 542.363C127.544 542.559 127.277 542.656 126.926 542.656C126.574 542.656 126.307 542.559 126.125 542.363C125.949 542.168 125.861 541.924 125.861 541.631ZM130.275 549.629C130.275 548.008 130.66 546.706 131.428 545.723C132.196 544.733 133.202 544.238 134.445 544.238C135.682 544.238 136.662 544.661 137.385 545.508V540H139.191V555H137.531L137.443 553.867C136.721 554.753 135.715 555.195 134.426 555.195C133.202 555.195 132.202 554.694 131.428 553.691C130.66 552.689 130.275 551.38 130.275 549.766V549.629ZM132.082 549.834C132.082 551.032 132.329 551.969 132.824 552.646C133.319 553.324 134.003 553.662 134.875 553.662C136.021 553.662 136.857 553.148 137.385 552.119V547.266C136.844 546.27 136.014 545.771 134.895 545.771C134.009 545.771 133.319 546.113 132.824 546.797C132.329 547.48 132.082 548.493 132.082 549.834ZM148.527 555C148.423 554.792 148.339 554.421 148.273 553.887C147.434 554.759 146.431 555.195 145.266 555.195C144.224 555.195 143.368 554.902 142.697 554.316C142.033 553.724 141.701 552.975 141.701 552.07C141.701 550.97 142.118 550.117 142.951 549.512C143.791 548.9 144.969 548.594 146.486 548.594H148.244V547.764C148.244 547.132 148.055 546.631 147.678 546.26C147.3 545.882 146.743 545.693 146.008 545.693C145.363 545.693 144.823 545.856 144.387 546.182C143.951 546.507 143.732 546.901 143.732 547.363H141.916C141.916 546.836 142.102 546.328 142.473 545.84C142.85 545.345 143.358 544.954 143.996 544.668C144.641 544.382 145.347 544.238 146.115 544.238C147.333 544.238 148.286 544.544 148.977 545.156C149.667 545.762 150.025 546.598 150.051 547.666V552.529C150.051 553.499 150.174 554.271 150.422 554.844V555H148.527ZM145.529 553.623C146.096 553.623 146.633 553.477 147.141 553.184C147.648 552.891 148.016 552.51 148.244 552.041V549.873H146.828C144.615 549.873 143.508 550.521 143.508 551.816C143.508 552.383 143.697 552.826 144.074 553.145C144.452 553.464 144.937 553.623 145.529 553.623Z" fill="black"/>
<path d="M287.109 550.488C286.934 551.992 286.377 553.154 285.439 553.975C284.508 554.788 283.268 555.195 281.719 555.195C280.039 555.195 278.691 554.593 277.676 553.389C276.667 552.184 276.162 550.573 276.162 548.555V547.188C276.162 545.866 276.396 544.704 276.865 543.701C277.34 542.699 278.011 541.93 278.877 541.396C279.743 540.856 280.745 540.586 281.885 540.586C283.395 540.586 284.606 541.009 285.518 541.855C286.429 542.695 286.96 543.861 287.109 545.352H285.225C285.062 544.219 284.707 543.398 284.16 542.891C283.62 542.383 282.861 542.129 281.885 542.129C280.687 542.129 279.746 542.572 279.062 543.457C278.385 544.342 278.047 545.602 278.047 547.236V548.613C278.047 550.156 278.369 551.383 279.014 552.295C279.658 553.206 280.56 553.662 281.719 553.662C282.76 553.662 283.558 553.428 284.111 552.959C284.671 552.484 285.042 551.66 285.225 550.488H287.109ZM295.918 555C295.814 554.792 295.729 554.421 295.664 553.887C294.824 554.759 293.822 555.195 292.656 555.195C291.615 555.195 290.758 554.902 290.088 554.316C289.424 553.724 289.092 552.975 289.092 552.07C289.092 550.97 289.508 550.117 290.342 549.512C291.182 548.9 292.36 548.594 293.877 548.594H295.635V547.764C295.635 547.132 295.446 546.631 295.068 546.26C294.691 545.882 294.134 545.693 293.398 545.693C292.754 545.693 292.214 545.856 291.777 546.182C291.341 546.507 291.123 546.901 291.123 547.363H289.307C289.307 546.836 289.492 546.328 289.863 545.84C290.241 545.345 290.749 544.954 291.387 544.668C292.031 544.382 292.738 544.238 293.506 544.238C294.723 544.238 295.677 544.544 296.367 545.156C297.057 545.762 297.415 546.598 297.441 547.666V552.529C297.441 553.499 297.565 554.271 297.812 554.844V555H295.918ZM292.92 553.623C293.486 553.623 294.023 553.477 294.531 553.184C295.039 552.891 295.407 552.51 295.635 552.041V549.873H294.219C292.005 549.873 290.898 550.521 290.898 551.816C290.898 552.383 291.087 552.826 291.465 553.145C291.842 553.464 292.327 553.623 292.92 553.623ZM301.982 544.434L302.041 545.762C302.848 544.746 303.903 544.238 305.205 544.238C307.438 544.238 308.564 545.498 308.584 548.018V555H306.777V548.008C306.771 547.246 306.595 546.683 306.25 546.318C305.911 545.954 305.381 545.771 304.658 545.771C304.072 545.771 303.558 545.928 303.115 546.24C302.673 546.553 302.327 546.963 302.08 547.471V555H300.273V544.434H301.982ZM315.547 553.721C316.191 553.721 316.755 553.525 317.236 553.135C317.718 552.744 317.985 552.256 318.037 551.67H319.746C319.714 552.275 319.505 552.852 319.121 553.398C318.737 553.945 318.223 554.382 317.578 554.707C316.94 555.033 316.263 555.195 315.547 555.195C314.108 555.195 312.962 554.717 312.109 553.76C311.263 552.796 310.84 551.481 310.84 549.814V549.512C310.84 548.483 311.029 547.568 311.406 546.768C311.784 545.967 312.324 545.345 313.027 544.902C313.737 544.46 314.574 544.238 315.537 544.238C316.722 544.238 317.705 544.593 318.486 545.303C319.274 546.012 319.694 546.934 319.746 548.066H318.037C317.985 547.383 317.725 546.823 317.256 546.387C316.794 545.944 316.221 545.723 315.537 545.723C314.619 545.723 313.906 546.055 313.398 546.719C312.897 547.376 312.646 548.33 312.646 549.58V549.922C312.646 551.139 312.897 552.077 313.398 552.734C313.9 553.392 314.616 553.721 315.547 553.721ZM326.162 555.195C324.73 555.195 323.564 554.727 322.666 553.789C321.768 552.845 321.318 551.585 321.318 550.01V549.678C321.318 548.63 321.517 547.695 321.914 546.875C322.318 546.048 322.878 545.404 323.594 544.941C324.316 544.473 325.098 544.238 325.938 544.238C327.311 544.238 328.379 544.691 329.141 545.596C329.902 546.501 330.283 547.796 330.283 549.482V550.234H323.125C323.151 551.276 323.454 552.119 324.033 552.764C324.619 553.402 325.361 553.721 326.26 553.721C326.898 553.721 327.438 553.59 327.881 553.33C328.324 553.07 328.711 552.725 329.043 552.295L330.146 553.154C329.261 554.515 327.933 555.195 326.162 555.195ZM325.938 545.723C325.208 545.723 324.596 545.99 324.102 546.523C323.607 547.051 323.301 547.793 323.184 548.75H328.477V548.613C328.424 547.695 328.177 546.986 327.734 546.484C327.292 545.977 326.693 545.723 325.938 545.723ZM334.346 555H332.539V540H334.346V555ZM343.77 555C343.665 554.792 343.581 554.421 343.516 553.887C342.676 554.759 341.673 555.195 340.508 555.195C339.466 555.195 338.61 554.902 337.939 554.316C337.275 553.724 336.943 552.975 336.943 552.07C336.943 550.97 337.36 550.117 338.193 549.512C339.033 548.9 340.212 548.594 341.729 548.594H343.486V547.764C343.486 547.132 343.298 546.631 342.92 546.26C342.542 545.882 341.986 545.693 341.25 545.693C340.605 545.693 340.065 545.856 339.629 546.182C339.193 546.507 338.975 546.901 338.975 547.363H337.158C337.158 546.836 337.344 546.328 337.715 545.84C338.092 545.345 338.6 544.954 339.238 544.668C339.883 544.382 340.589 544.238 341.357 544.238C342.575 544.238 343.529 544.544 344.219 545.156C344.909 545.762 345.267 546.598 345.293 547.666V552.529C345.293 553.499 345.417 554.271 345.664 554.844V555H343.77ZM340.771 553.623C341.338 553.623 341.875 553.477 342.383 553.184C342.891 552.891 343.258 552.51 343.486 552.041V549.873H342.07C339.857 549.873 338.75 550.521 338.75 551.816C338.75 552.383 338.939 552.826 339.316 553.145C339.694 553.464 340.179 553.623 340.771 553.623ZM353.232 546.055C352.959 546.009 352.663 545.986 352.344 545.986C351.159 545.986 350.355 546.491 349.932 547.5V555H348.125V544.434H349.883L349.912 545.654C350.505 544.71 351.344 544.238 352.432 544.238C352.783 544.238 353.05 544.284 353.232 544.375V546.055Z" fill="black"/>
<path d="M33.6523 177.605C33.6523 176.855 33.3867 176.277 32.8555 175.871C32.332 175.465 31.3828 175.055 30.0078 174.641C28.6328 174.227 27.5391 173.766 26.7266 173.258C25.1719 172.281 24.3945 171.008 24.3945 169.438C24.3945 168.062 24.9531 166.93 26.0703 166.039C27.1953 165.148 28.6523 164.703 30.4414 164.703C31.6289 164.703 32.6875 164.922 33.6172 165.359C34.5469 165.797 35.2773 166.422 35.8086 167.234C36.3398 168.039 36.6055 168.934 36.6055 169.918H33.6523C33.6523 169.027 33.3711 168.332 32.8086 167.832C32.2539 167.324 31.457 167.07 30.418 167.07C29.4492 167.07 28.6953 167.277 28.1562 167.691C27.625 168.105 27.3594 168.684 27.3594 169.426C27.3594 170.051 27.6484 170.574 28.2266 170.996C28.8047 171.41 29.7578 171.816 31.0859 172.215C32.4141 172.605 33.4805 173.055 34.2852 173.562C35.0898 174.062 35.6797 174.641 36.0547 175.297C36.4297 175.945 36.6172 176.707 36.6172 177.582C36.6172 179.004 36.0703 180.137 34.9766 180.98C33.8906 181.816 32.4141 182.234 30.5469 182.234C29.3125 182.234 28.1758 182.008 27.1367 181.555C26.1055 181.094 25.3008 180.461 24.7227 179.656C24.1523 178.852 23.8672 177.914 23.8672 176.844H26.832C26.832 177.812 27.1523 178.562 27.793 179.094C28.4336 179.625 29.3516 179.891 30.5469 179.891C31.5781 179.891 32.3516 179.684 32.8672 179.27C33.3906 178.848 33.6523 178.293 33.6523 177.605ZM44.5273 182.234C42.7227 182.234 41.2578 181.668 40.1328 180.535C39.0156 179.395 38.457 177.879 38.457 175.988V175.637C38.457 174.371 38.6992 173.242 39.1836 172.25C39.6758 171.25 40.3633 170.473 41.2461 169.918C42.1289 169.363 43.1133 169.086 44.1992 169.086C45.9258 169.086 47.2578 169.637 48.1953 170.738C49.1406 171.84 49.6133 173.398 49.6133 175.414V176.562H41.3281C41.4141 177.609 41.7617 178.438 42.3711 179.047C42.9883 179.656 43.7617 179.961 44.6914 179.961C45.9961 179.961 47.0586 179.434 47.8789 178.379L49.4141 179.844C48.9062 180.602 48.2266 181.191 47.375 181.613C46.5312 182.027 45.582 182.234 44.5273 182.234ZM44.1875 171.371C43.4062 171.371 42.7734 171.645 42.2891 172.191C41.8125 172.738 41.5078 173.5 41.375 174.477H46.8008V174.266C46.7383 173.312 46.4844 172.594 46.0391 172.109C45.5938 171.617 44.9766 171.371 44.1875 171.371ZM58.9414 178.555C58.9414 178.047 58.7305 177.66 58.3086 177.395C57.8945 177.129 57.2031 176.895 56.2344 176.691C55.2656 176.488 54.457 176.23 53.8086 175.918C52.3867 175.23 51.6758 174.234 51.6758 172.93C51.6758 171.836 52.1367 170.922 53.0586 170.188C53.9805 169.453 55.1523 169.086 56.5742 169.086C58.0898 169.086 59.3125 169.461 60.2422 170.211C61.1797 170.961 61.6484 171.934 61.6484 173.129H58.8008C58.8008 172.582 58.5977 172.129 58.1914 171.77C57.7852 171.402 57.2461 171.219 56.5742 171.219C55.9492 171.219 55.4375 171.363 55.0391 171.652C54.6484 171.941 54.4531 172.328 54.4531 172.812C54.4531 173.25 54.6367 173.59 55.0039 173.832C55.3711 174.074 56.1133 174.32 57.2305 174.57C58.3477 174.812 59.2227 175.105 59.8555 175.449C60.4961 175.785 60.9688 176.191 61.2734 176.668C61.5859 177.145 61.7422 177.723 61.7422 178.402C61.7422 179.543 61.2695 180.469 60.3242 181.18C59.3789 181.883 58.1406 182.234 56.6094 182.234C55.5703 182.234 54.6445 182.047 53.832 181.672C53.0195 181.297 52.3867 180.781 51.9336 180.125C51.4805 179.469 51.2539 178.762 51.2539 178.004H54.0195C54.0586 178.676 54.3125 179.195 54.7812 179.562C55.25 179.922 55.8711 180.102 56.6445 180.102C57.3945 180.102 57.9648 179.961 58.3555 179.68C58.7461 179.391 58.9414 179.016 58.9414 178.555ZM67.2617 182H64.4141V169.32H67.2617V182ZM64.2383 166.027C64.2383 165.59 64.375 165.227 64.6484 164.938C64.9297 164.648 65.3281 164.504 65.8438 164.504C66.3594 164.504 66.7578 164.648 67.0391 164.938C67.3203 165.227 67.4609 165.59 67.4609 166.027C67.4609 166.457 67.3203 166.816 67.0391 167.105C66.7578 167.387 66.3594 167.527 65.8438 167.527C65.3281 167.527 64.9297 167.387 64.6484 167.105C64.375 166.816 64.2383 166.457 64.2383 166.027ZM69.8398 175.543C69.8398 174.301 70.0859 173.184 70.5781 172.191C71.0703 171.191 71.7617 170.426 72.6523 169.895C73.543 169.355 74.5664 169.086 75.7227 169.086C77.4336 169.086 78.8203 169.637 79.8828 170.738C80.9531 171.84 81.5312 173.301 81.6172 175.121L81.6289 175.789C81.6289 177.039 81.3867 178.156 80.9023 179.141C80.4258 180.125 79.7383 180.887 78.8398 181.426C77.9492 181.965 76.918 182.234 75.7461 182.234C73.957 182.234 72.5234 181.641 71.4453 180.453C70.375 179.258 69.8398 177.668 69.8398 175.684V175.543ZM72.6875 175.789C72.6875 177.094 72.957 178.117 73.4961 178.859C74.0352 179.594 74.7852 179.961 75.7461 179.961C76.707 179.961 77.4531 179.586 77.9844 178.836C78.5234 178.086 78.793 176.988 78.793 175.543C78.793 174.262 78.5156 173.246 77.9609 172.496C77.4141 171.746 76.668 171.371 75.7227 171.371C74.793 171.371 74.0547 171.742 73.5078 172.484C72.9609 173.219 72.6875 174.32 72.6875 175.789ZM76.5078 164H79.7539L76.5078 167.551H74.2227L76.5078 164ZM86.6797 169.32L86.7617 170.785C87.6992 169.652 88.9297 169.086 90.4531 169.086C93.0938 169.086 94.4375 170.598 94.4844 173.621V182H91.6367V173.785C91.6367 172.98 91.4609 172.387 91.1094 172.004C90.7656 171.613 90.1992 171.418 89.4102 171.418C88.2617 171.418 87.4062 171.938 86.8438 172.977V182H83.9961V169.32H86.6797ZM106.777 182H103.824V164.938H106.777V182ZM110.422 182V164.938H115.461C116.969 164.938 118.305 165.273 119.469 165.945C120.641 166.617 121.547 167.57 122.188 168.805C122.828 170.039 123.148 171.453 123.148 173.047V173.902C123.148 175.52 122.824 176.941 122.176 178.168C121.535 179.395 120.617 180.34 119.422 181.004C118.234 181.668 116.871 182 115.332 182H110.422ZM113.387 167.328V179.633H115.32C116.875 179.633 118.066 179.148 118.895 178.18C119.73 177.203 120.156 175.805 120.172 173.984V173.035C120.172 171.184 119.77 169.77 118.965 168.793C118.16 167.816 116.992 167.328 115.461 167.328H113.387ZM127.543 179C128.074 179 128.484 179.152 128.773 179.457C129.062 179.754 129.207 180.129 129.207 180.582C129.207 181.027 129.062 181.398 128.773 181.695C128.484 181.984 128.074 182.129 127.543 182.129C127.035 182.129 126.633 181.984 126.336 181.695C126.039 181.406 125.891 181.035 125.891 180.582C125.891 180.129 126.035 179.754 126.324 179.457C126.613 179.152 127.02 179 127.543 179ZM127.543 169.051C128.074 169.051 128.484 169.203 128.773 169.508C129.062 169.805 129.207 170.18 129.207 170.633C129.207 171.078 129.062 171.449 128.773 171.746C128.484 172.035 128.074 172.18 127.543 172.18C127.035 172.18 126.633 172.035 126.336 171.746C126.039 171.457 125.891 171.086 125.891 170.633C125.891 170.18 126.035 169.805 126.324 169.508C126.613 169.203 127.02 169.051 127.543 169.051ZM145.145 177.195H142.52L141.629 182H139.66L140.551 177.195H137.844V175.344H140.902L141.582 171.676H138.734V169.812H141.934L142.848 164.938H144.805L143.891 169.812H146.527L147.441 164.938H149.398L148.484 169.812H150.922V171.676H148.133L147.453 175.344H150.043V177.195H147.102L146.211 182H144.254L145.145 177.195ZM142.871 175.344H145.496L146.176 171.676H143.551L142.871 175.344ZM162.934 174.77H156.066V182H153.102V164.938H163.941V167.328H156.066V172.402H162.934V174.77ZM165.23 175.566C165.23 173.613 165.684 172.047 166.59 170.867C167.496 169.68 168.711 169.086 170.234 169.086C171.578 169.086 172.664 169.555 173.492 170.492V164H176.34V182H173.762L173.621 180.688C172.77 181.719 171.633 182.234 170.211 182.234C168.727 182.234 167.523 181.637 166.602 180.441C165.688 179.246 165.23 177.621 165.23 175.566ZM168.078 175.812C168.078 177.102 168.324 178.109 168.816 178.836C169.316 179.555 170.023 179.914 170.938 179.914C172.102 179.914 172.953 179.395 173.492 178.355V172.941C172.969 171.926 172.125 171.418 170.961 171.418C170.039 171.418 169.328 171.785 168.828 172.52C168.328 173.246 168.078 174.344 168.078 175.812ZM183.863 173.492L186.277 169.32H189.441L185.562 175.566L189.57 182H186.43L183.898 177.664L181.379 182H178.215L182.223 175.566L178.355 169.32H181.496L183.863 173.492ZM194.492 172.168H196.227C197.102 172.16 197.793 171.934 198.301 171.488C198.816 171.043 199.074 170.398 199.074 169.555C199.074 168.742 198.859 168.113 198.43 167.668C198.008 167.215 197.359 166.988 196.484 166.988C195.719 166.988 195.09 167.211 194.598 167.656C194.105 168.094 193.859 168.668 193.859 169.379H191.012C191.012 168.504 191.242 167.707 191.703 166.988C192.172 166.27 192.82 165.711 193.648 165.312C194.484 164.906 195.418 164.703 196.449 164.703C198.152 164.703 199.488 165.133 200.457 165.992C201.434 166.844 201.922 168.031 201.922 169.555C201.922 170.32 201.676 171.043 201.184 171.723C200.699 172.395 200.07 172.902 199.297 173.246C200.234 173.566 200.945 174.07 201.43 174.758C201.922 175.445 202.168 176.266 202.168 177.219C202.168 178.75 201.641 179.969 200.586 180.875C199.539 181.781 198.16 182.234 196.449 182.234C194.809 182.234 193.465 181.797 192.418 180.922C191.371 180.047 190.848 178.883 190.848 177.43H193.695C193.695 178.18 193.945 178.789 194.445 179.258C194.953 179.727 195.633 179.961 196.484 179.961C197.367 179.961 198.062 179.727 198.57 179.258C199.078 178.789 199.332 178.109 199.332 177.219C199.332 176.32 199.066 175.629 198.535 175.145C198.004 174.66 197.215 174.418 196.168 174.418H194.492V172.168ZM216.312 182H204.84V180.043L210.523 173.844C211.344 172.93 211.926 172.168 212.27 171.559C212.621 170.941 212.797 170.324 212.797 169.707C212.797 168.895 212.566 168.238 212.105 167.738C211.652 167.238 211.039 166.988 210.266 166.988C209.344 166.988 208.629 167.27 208.121 167.832C207.613 168.395 207.359 169.164 207.359 170.141H204.512C204.512 169.102 204.746 168.168 205.215 167.34C205.691 166.504 206.367 165.855 207.242 165.395C208.125 164.934 209.141 164.703 210.289 164.703C211.945 164.703 213.25 165.121 214.203 165.957C215.164 166.785 215.645 167.934 215.645 169.402C215.645 170.254 215.402 171.148 214.918 172.086C214.441 173.016 213.656 174.074 212.562 175.262L208.391 179.727H216.312V182ZM219.242 173.539L220.168 164.938H229.332V167.398H222.535L222.066 171.477C222.855 171.023 223.746 170.797 224.738 170.797C226.363 170.797 227.625 171.316 228.523 172.355C229.43 173.395 229.883 174.793 229.883 176.551C229.883 178.285 229.383 179.668 228.383 180.699C227.383 181.723 226.012 182.234 224.27 182.234C222.707 182.234 221.41 181.793 220.379 180.91C219.355 180.02 218.801 178.848 218.715 177.395H221.469C221.578 178.223 221.875 178.859 222.359 179.305C222.844 179.742 223.477 179.961 224.258 179.961C225.133 179.961 225.812 179.648 226.297 179.023C226.789 178.398 227.035 177.547 227.035 176.469C227.035 175.43 226.766 174.609 226.227 174.008C225.688 173.398 224.945 173.094 224 173.094C223.484 173.094 223.047 173.164 222.688 173.305C222.328 173.438 221.938 173.703 221.516 174.102L219.242 173.539Z" fill="black"/>
<path d="M0 82H485V152H0V82Z" fill="#EBFFFE"/>
<path d="M33.8633 120H30.9102V102.938H33.8633V120ZM39.875 107.32L39.957 108.785C40.8945 107.652 42.125 107.086 43.6484 107.086C46.2891 107.086 47.6328 108.598 47.6797 111.621V120H44.832V111.785C44.832 110.98 44.6562 110.387 44.3047 110.004C43.9609 109.613 43.3945 109.418 42.6055 109.418C41.457 109.418 40.6016 109.938 40.0391 110.977V120H37.1914V107.32H39.875ZM53.6211 120H50.7734V107.32H53.6211V120ZM50.5977 104.027C50.5977 103.59 50.7344 103.227 51.0078 102.938C51.2891 102.648 51.6875 102.504 52.2031 102.504C52.7188 102.504 53.1172 102.648 53.3984 102.938C53.6797 103.227 53.8203 103.59 53.8203 104.027C53.8203 104.457 53.6797 104.816 53.3984 105.105C53.1172 105.387 52.7188 105.527 52.2031 105.527C51.6875 105.527 51.2891 105.387 51.0078 105.105C50.7344 104.816 50.5977 104.457 50.5977 104.027ZM61.9414 117.961C62.6523 117.961 63.2422 117.754 63.7109 117.34C64.1797 116.926 64.4297 116.414 64.4609 115.805H67.1445C67.1133 116.594 66.8672 117.332 66.4062 118.02C65.9453 118.699 65.3203 119.238 64.5312 119.637C63.7422 120.035 62.8906 120.234 61.9766 120.234C60.2031 120.234 58.7969 119.66 57.7578 118.512C56.7188 117.363 56.1992 115.777 56.1992 113.754V113.461C56.1992 111.531 56.7148 109.988 57.7461 108.832C58.7773 107.668 60.1836 107.086 61.9648 107.086C63.4727 107.086 64.6992 107.527 65.6445 108.41C66.5977 109.285 67.0977 110.438 67.1445 111.867H64.4609C64.4297 111.141 64.1797 110.543 63.7109 110.074C63.25 109.605 62.6602 109.371 61.9414 109.371C61.0195 109.371 60.3086 109.707 59.8086 110.379C59.3086 111.043 59.0547 112.055 59.0469 113.414V113.871C59.0469 115.246 59.293 116.273 59.7852 116.953C60.2852 117.625 61.0039 117.961 61.9414 117.961ZM72.3242 120H69.4766V107.32H72.3242V120ZM69.3008 104.027C69.3008 103.59 69.4375 103.227 69.7109 102.938C69.9922 102.648 70.3906 102.504 70.9062 102.504C71.4219 102.504 71.8203 102.648 72.1016 102.938C72.3828 103.227 72.5234 103.59 72.5234 104.027C72.5234 104.457 72.3828 104.816 72.1016 105.105C71.8203 105.387 71.4219 105.527 70.9062 105.527C70.3906 105.527 69.9922 105.387 69.7109 105.105C69.4375 104.816 69.3008 104.457 69.3008 104.027ZM74.9023 113.543C74.9023 112.301 75.1484 111.184 75.6406 110.191C76.1328 109.191 76.8242 108.426 77.7148 107.895C78.6055 107.355 79.6289 107.086 80.7852 107.086C82.4961 107.086 83.8828 107.637 84.9453 108.738C86.0156 109.84 86.5938 111.301 86.6797 113.121L86.6914 113.789C86.6914 115.039 86.4492 116.156 85.9648 117.141C85.4883 118.125 84.8008 118.887 83.9023 119.426C83.0117 119.965 81.9805 120.234 80.8086 120.234C79.0195 120.234 77.5859 119.641 76.5078 118.453C75.4375 117.258 74.9023 115.668 74.9023 113.684V113.543ZM77.75 113.789C77.75 115.094 78.0195 116.117 78.5586 116.859C79.0977 117.594 79.8477 117.961 80.8086 117.961C81.7695 117.961 82.5156 117.586 83.0469 116.836C83.5859 116.086 83.8555 114.988 83.8555 113.543C83.8555 112.262 83.5781 111.246 83.0234 110.496C82.4766 109.746 81.7305 109.371 80.7852 109.371C79.8555 109.371 79.1172 109.742 78.5703 110.484C78.0234 111.219 77.75 112.32 77.75 113.789Z" fill="black"/>
<path d="M151.863 120H148.91V102.938H151.863V120ZM157.875 107.32L157.957 108.785C158.895 107.652 160.125 107.086 161.648 107.086C164.289 107.086 165.633 108.598 165.68 111.621V120H162.832V111.785C162.832 110.98 162.656 110.387 162.305 110.004C161.961 109.613 161.395 109.418 160.605 109.418C159.457 109.418 158.602 109.938 158.039 110.977V120H155.191V107.32H157.875ZM175.699 116.555C175.699 116.047 175.488 115.66 175.066 115.395C174.652 115.129 173.961 114.895 172.992 114.691C172.023 114.488 171.215 114.23 170.566 113.918C169.145 113.23 168.434 112.234 168.434 110.93C168.434 109.836 168.895 108.922 169.816 108.188C170.738 107.453 171.91 107.086 173.332 107.086C174.848 107.086 176.07 107.461 177 108.211C177.938 108.961 178.406 109.934 178.406 111.129H175.559C175.559 110.582 175.355 110.129 174.949 109.77C174.543 109.402 174.004 109.219 173.332 109.219C172.707 109.219 172.195 109.363 171.797 109.652C171.406 109.941 171.211 110.328 171.211 110.812C171.211 111.25 171.395 111.59 171.762 111.832C172.129 112.074 172.871 112.32 173.988 112.57C175.105 112.812 175.98 113.105 176.613 113.449C177.254 113.785 177.727 114.191 178.031 114.668C178.344 115.145 178.5 115.723 178.5 116.402C178.5 117.543 178.027 118.469 177.082 119.18C176.137 119.883 174.898 120.234 173.367 120.234C172.328 120.234 171.402 120.047 170.59 119.672C169.777 119.297 169.145 118.781 168.691 118.125C168.238 117.469 168.012 116.762 168.012 116.004H170.777C170.816 116.676 171.07 117.195 171.539 117.562C172.008 117.922 172.629 118.102 173.402 118.102C174.152 118.102 174.723 117.961 175.113 117.68C175.504 117.391 175.699 117.016 175.699 116.555ZM184.559 104.238V107.32H186.797V109.43H184.559V116.508C184.559 116.992 184.652 117.344 184.84 117.562C185.035 117.773 185.379 117.879 185.871 117.879C186.199 117.879 186.531 117.84 186.867 117.762V119.965C186.219 120.145 185.594 120.234 184.992 120.234C182.805 120.234 181.711 119.027 181.711 116.613V109.43H179.625V107.32H181.711V104.238H184.559ZM195.621 109.922C195.246 109.859 194.859 109.828 194.461 109.828C193.156 109.828 192.277 110.328 191.824 111.328V120H188.977V107.32H191.695L191.766 108.738C192.453 107.637 193.406 107.086 194.625 107.086C195.031 107.086 195.367 107.141 195.633 107.25L195.621 109.922ZM205.102 118.758C204.266 119.742 203.078 120.234 201.539 120.234C200.164 120.234 199.121 119.832 198.41 119.027C197.707 118.223 197.355 117.059 197.355 115.535V107.32H200.203V115.5C200.203 117.109 200.871 117.914 202.207 117.914C203.59 117.914 204.523 117.418 205.008 116.426V107.32H207.855V120H205.172L205.102 118.758ZM215.965 117.961C216.676 117.961 217.266 117.754 217.734 117.34C218.203 116.926 218.453 116.414 218.484 115.805H221.168C221.137 116.594 220.891 117.332 220.43 118.02C219.969 118.699 219.344 119.238 218.555 119.637C217.766 120.035 216.914 120.234 216 120.234C214.227 120.234 212.82 119.66 211.781 118.512C210.742 117.363 210.223 115.777 210.223 113.754V113.461C210.223 111.531 210.738 109.988 211.77 108.832C212.801 107.668 214.207 107.086 215.988 107.086C217.496 107.086 218.723 107.527 219.668 108.41C220.621 109.285 221.121 110.438 221.168 111.867H218.484C218.453 111.141 218.203 110.543 217.734 110.074C217.273 109.605 216.684 109.371 215.965 109.371C215.043 109.371 214.332 109.707 213.832 110.379C213.332 111.043 213.078 112.055 213.07 113.414V113.871C213.07 115.246 213.316 116.273 213.809 116.953C214.309 117.625 215.027 117.961 215.965 117.961ZM228.527 117.961C229.238 117.961 229.828 117.754 230.297 117.34C230.766 116.926 231.016 116.414 231.047 115.805H233.73C233.699 116.594 233.453 117.332 232.992 118.02C232.531 118.699 231.906 119.238 231.117 119.637C230.328 120.035 229.477 120.234 228.562 120.234C226.789 120.234 225.383 119.66 224.344 118.512C223.305 117.363 222.785 115.777 222.785 113.754V113.461C222.785 111.531 223.301 109.988 224.332 108.832C225.363 107.668 226.77 107.086 228.551 107.086C230.059 107.086 231.285 107.527 232.23 108.41C233.184 109.285 233.684 110.438 233.73 111.867H231.047C231.016 111.141 230.766 110.543 230.297 110.074C229.836 109.605 229.246 109.371 228.527 109.371C227.605 109.371 226.895 109.707 226.395 110.379C225.895 111.043 225.641 112.055 225.633 113.414V113.871C225.633 115.246 225.879 116.273 226.371 116.953C226.871 117.625 227.59 117.961 228.527 117.961ZM238.91 120H236.062V107.32H238.91V120ZM235.887 104.027C235.887 103.59 236.023 103.227 236.297 102.938C236.578 102.648 236.977 102.504 237.492 102.504C238.008 102.504 238.406 102.648 238.688 102.938C238.969 103.227 239.109 103.59 239.109 104.027C239.109 104.457 238.969 104.816 238.688 105.105C238.406 105.387 238.008 105.527 237.492 105.527C236.977 105.527 236.578 105.387 236.297 105.105C236.023 104.816 235.887 104.457 235.887 104.027ZM241.488 113.543C241.488 112.301 241.734 111.184 242.227 110.191C242.719 109.191 243.41 108.426 244.301 107.895C245.191 107.355 246.215 107.086 247.371 107.086C249.082 107.086 250.469 107.637 251.531 108.738C252.602 109.84 253.18 111.301 253.266 113.121L253.277 113.789C253.277 115.039 253.035 116.156 252.551 117.141C252.074 118.125 251.387 118.887 250.488 119.426C249.598 119.965 248.566 120.234 247.395 120.234C245.605 120.234 244.172 119.641 243.094 118.453C242.023 117.258 241.488 115.668 241.488 113.684V113.543ZM244.336 113.789C244.336 115.094 244.605 116.117 245.145 116.859C245.684 117.594 246.434 117.961 247.395 117.961C248.355 117.961 249.102 117.586 249.633 116.836C250.172 116.086 250.441 114.988 250.441 113.543C250.441 112.262 250.164 111.246 249.609 110.496C249.062 109.746 248.316 109.371 247.371 109.371C246.441 109.371 245.703 109.742 245.156 110.484C244.609 111.219 244.336 112.32 244.336 113.789ZM258.328 107.32L258.41 108.785C259.348 107.652 260.578 107.086 262.102 107.086C264.742 107.086 266.086 108.598 266.133 111.621V120H263.285V111.785C263.285 110.98 263.109 110.387 262.758 110.004C262.414 109.613 261.848 109.418 261.059 109.418C259.91 109.418 259.055 109.938 258.492 110.977V120H255.645V107.32H258.328ZM274.629 120.234C272.824 120.234 271.359 119.668 270.234 118.535C269.117 117.395 268.559 115.879 268.559 113.988V113.637C268.559 112.371 268.801 111.242 269.285 110.25C269.777 109.25 270.465 108.473 271.348 107.918C272.23 107.363 273.215 107.086 274.301 107.086C276.027 107.086 277.359 107.637 278.297 108.738C279.242 109.84 279.715 111.398 279.715 113.414V114.562H271.43C271.516 115.609 271.863 116.438 272.473 117.047C273.09 117.656 273.863 117.961 274.793 117.961C276.098 117.961 277.16 117.434 277.98 116.379L279.516 117.844C279.008 118.602 278.328 119.191 277.477 119.613C276.633 120.027 275.684 120.234 274.629 120.234ZM274.289 109.371C273.508 109.371 272.875 109.645 272.391 110.191C271.914 110.738 271.609 111.5 271.477 112.477H276.902V112.266C276.84 111.312 276.586 110.594 276.141 110.109C275.695 109.617 275.078 109.371 274.289 109.371ZM289.043 116.555C289.043 116.047 288.832 115.66 288.41 115.395C287.996 115.129 287.305 114.895 286.336 114.691C285.367 114.488 284.559 114.23 283.91 113.918C282.488 113.23 281.777 112.234 281.777 110.93C281.777 109.836 282.238 108.922 283.16 108.188C284.082 107.453 285.254 107.086 286.676 107.086C288.191 107.086 289.414 107.461 290.344 108.211C291.281 108.961 291.75 109.934 291.75 111.129H288.902C288.902 110.582 288.699 110.129 288.293 109.77C287.887 109.402 287.348 109.219 286.676 109.219C286.051 109.219 285.539 109.363 285.141 109.652C284.75 109.941 284.555 110.328 284.555 110.812C284.555 111.25 284.738 111.59 285.105 111.832C285.473 112.074 286.215 112.32 287.332 112.57C288.449 112.812 289.324 113.105 289.957 113.449C290.598 113.785 291.07 114.191 291.375 114.668C291.688 115.145 291.844 115.723 291.844 116.402C291.844 117.543 291.371 118.469 290.426 119.18C289.48 119.883 288.242 120.234 286.711 120.234C285.672 120.234 284.746 120.047 283.934 119.672C283.121 119.297 282.488 118.781 282.035 118.125C281.582 117.469 281.355 116.762 281.355 116.004H284.121C284.16 116.676 284.414 117.195 284.883 117.562C285.352 117.922 285.973 118.102 286.746 118.102C287.496 118.102 288.066 117.961 288.457 117.68C288.848 117.391 289.043 117.016 289.043 116.555Z" fill="black"/>
<path d="M0 82V81H-1V82H0ZM485 82H486V81H485V82ZM485 152V153H486V152H485ZM0 152H-1V153H0V152ZM0 83H485V81H0V83ZM484 82V152H486V82H484ZM485 151H0V153H485V151ZM1 152V82H-1V152H1Z" fill="white"/>
<path d="M0 0H485V83H0V0Z" fill="#11D0C5"/>
<path d="M28.6875 34.4277H22.5254V39.4668H29.6836V41H20.6504V26.7812H29.5859V28.3242H22.5254V32.8945H28.6875V34.4277ZM33.4434 30.4336L33.502 31.7617C34.3092 30.7461 35.3639 30.2383 36.666 30.2383C38.8991 30.2383 40.0254 31.498 40.0449 34.0176V41H38.2383V34.0078C38.2318 33.2461 38.056 32.6829 37.7109 32.3184C37.3724 31.9538 36.8418 31.7715 36.1191 31.7715C35.5332 31.7715 35.0189 31.9277 34.5762 32.2402C34.1335 32.5527 33.7884 32.9629 33.541 33.4707V41H31.7344V30.4336H33.4434ZM47.0078 39.7207C47.6523 39.7207 48.2155 39.5254 48.6973 39.1348C49.179 38.7441 49.446 38.2559 49.498 37.6699H51.207C51.1745 38.2754 50.9661 38.8516 50.582 39.3984C50.1979 39.9453 49.6836 40.3815 49.0391 40.707C48.401 41.0326 47.724 41.1953 47.0078 41.1953C45.569 41.1953 44.4232 40.7168 43.5703 39.7598C42.724 38.7962 42.3008 37.4811 42.3008 35.8145V35.5117C42.3008 34.4831 42.4896 33.5684 42.8672 32.7676C43.2448 31.9668 43.7852 31.3451 44.4883 30.9023C45.1979 30.4596 46.0345 30.2383 46.998 30.2383C48.1829 30.2383 49.166 30.5931 49.9473 31.3027C50.735 32.0124 51.1549 32.9336 51.207 34.0664H49.498C49.446 33.3828 49.1855 32.8229 48.7168 32.3867C48.2546 31.944 47.6816 31.7227 46.998 31.7227C46.0801 31.7227 45.3672 32.0547 44.8594 32.7188C44.3581 33.3763 44.1074 34.3301 44.1074 35.5801V35.9219C44.1074 37.1393 44.3581 38.0768 44.8594 38.7344C45.3607 39.3919 46.0768 39.7207 47.0078 39.7207ZM59.7617 41C59.6576 40.7917 59.5729 40.4206 59.5078 39.8867C58.668 40.7591 57.6654 41.1953 56.5 41.1953C55.4583 41.1953 54.6022 40.9023 53.9316 40.3164C53.2676 39.724 52.9355 38.9753 52.9355 38.0703C52.9355 36.9701 53.3522 36.1172 54.1855 35.5117C55.0254 34.8997 56.2038 34.5938 57.7207 34.5938H59.4785V33.7637C59.4785 33.1322 59.2897 32.6309 58.9121 32.2598C58.5345 31.8822 57.9779 31.6934 57.2422 31.6934C56.5977 31.6934 56.0573 31.8561 55.6211 32.1816C55.1849 32.5072 54.9668 32.901 54.9668 33.3633H53.1504C53.1504 32.8359 53.3359 32.3281 53.707 31.8398C54.0846 31.3451 54.5924 30.9544 55.2305 30.668C55.875 30.3815 56.5814 30.2383 57.3496 30.2383C58.5671 30.2383 59.5208 30.5443 60.2109 31.1562C60.901 31.7617 61.2591 32.5983 61.2852 33.666V38.5293C61.2852 39.4993 61.4089 40.2708 61.6562 40.8438V41H59.7617ZM56.7637 39.623C57.3301 39.623 57.8672 39.4766 58.375 39.1836C58.8828 38.8906 59.2507 38.5098 59.4785 38.041V35.873H58.0625C55.849 35.873 54.7422 36.5208 54.7422 37.8164C54.7422 38.3828 54.931 38.8255 55.3086 39.1445C55.6862 39.4635 56.1712 39.623 56.7637 39.623ZM73.0625 35.834C73.0625 37.4486 72.6914 38.7474 71.9492 39.7305C71.207 40.707 70.2109 41.1953 68.9609 41.1953C67.6263 41.1953 66.5944 40.7233 65.8652 39.7793L65.7773 41H64.1172V26H65.9238V31.5957C66.653 30.6908 67.6589 30.2383 68.9414 30.2383C70.224 30.2383 71.2298 30.7233 71.959 31.6934C72.6947 32.6634 73.0625 33.9915 73.0625 35.6777V35.834ZM71.2559 35.6289C71.2559 34.3984 71.0182 33.4479 70.543 32.7773C70.0677 32.1068 69.3841 31.7715 68.4922 31.7715C67.3008 31.7715 66.4447 32.3249 65.9238 33.4316V38.002C66.4772 39.1087 67.3398 39.6621 68.5117 39.6621C69.3776 39.6621 70.0514 39.3268 70.5332 38.6562C71.015 37.9857 71.2559 36.9766 71.2559 35.6289ZM79.7324 41.1953C78.3001 41.1953 77.1348 40.7266 76.2363 39.7891C75.3379 38.8451 74.8887 37.5853 74.8887 36.0098V35.6777C74.8887 34.6296 75.0872 33.6953 75.4844 32.875C75.888 32.0482 76.4479 31.4036 77.1641 30.9414C77.8867 30.4727 78.668 30.2383 79.5078 30.2383C80.8815 30.2383 81.9492 30.6908 82.7109 31.5957C83.4727 32.5007 83.8535 33.7962 83.8535 35.4824V36.2344H76.6953C76.7214 37.276 77.0241 38.1191 77.6035 38.7637C78.1895 39.4017 78.9316 39.7207 79.8301 39.7207C80.4681 39.7207 81.0085 39.5905 81.4512 39.3301C81.8939 39.0697 82.2812 38.7246 82.6133 38.2949L83.7168 39.1543C82.8314 40.515 81.5033 41.1953 79.7324 41.1953ZM79.5078 31.7227C78.7786 31.7227 78.1667 31.9896 77.6719 32.5234C77.1771 33.0508 76.8711 33.793 76.7539 34.75H82.0469V34.6133C81.9948 33.6953 81.7474 32.9857 81.3047 32.4844C80.862 31.9766 80.263 31.7227 79.5078 31.7227ZM87.6523 39.5254H93.834V41H85.4453V39.6719L91.2754 31.9277H85.5332V30.4336H93.541V31.7129L87.6523 39.5254ZM102.398 41C102.294 40.7917 102.21 40.4206 102.145 39.8867C101.305 40.7591 100.302 41.1953 99.1367 41.1953C98.0951 41.1953 97.2389 40.9023 96.5684 40.3164C95.9043 39.724 95.5723 38.9753 95.5723 38.0703C95.5723 36.9701 95.9889 36.1172 96.8223 35.5117C97.6621 34.8997 98.8405 34.5938 100.357 34.5938H102.115V33.7637C102.115 33.1322 101.926 32.6309 101.549 32.2598C101.171 31.8822 100.615 31.6934 99.8789 31.6934C99.2344 31.6934 98.694 31.8561 98.2578 32.1816C97.8216 32.5072 97.6035 32.901 97.6035 33.3633H95.7871C95.7871 32.8359 95.9727 32.3281 96.3438 31.8398C96.7214 31.3451 97.2292 30.9544 97.8672 30.668C98.5117 30.3815 99.2181 30.2383 99.9863 30.2383C101.204 30.2383 102.158 30.5443 102.848 31.1562C103.538 31.7617 103.896 32.5983 103.922 33.666V38.5293C103.922 39.4993 104.046 40.2708 104.293 40.8438V41H102.398ZM99.4004 39.623C99.9668 39.623 100.504 39.4766 101.012 39.1836C101.52 38.8906 101.887 38.5098 102.115 38.041V35.873H100.699C98.4857 35.873 97.3789 36.5208 97.3789 37.8164C97.3789 38.3828 97.5677 38.8255 97.9453 39.1445C98.3229 39.4635 98.8079 39.623 99.4004 39.623ZM106.314 35.6289C106.314 34.0078 106.699 32.7057 107.467 31.7227C108.235 30.7331 109.241 30.2383 110.484 30.2383C111.721 30.2383 112.701 30.6615 113.424 31.5078V26H115.23V41H113.57L113.482 39.8672C112.76 40.7526 111.754 41.1953 110.465 41.1953C109.241 41.1953 108.242 40.694 107.467 39.6914C106.699 38.6888 106.314 37.3802 106.314 35.7656V35.6289ZM108.121 35.834C108.121 37.0319 108.368 37.9694 108.863 38.6465C109.358 39.3236 110.042 39.6621 110.914 39.6621C112.06 39.6621 112.896 39.1478 113.424 38.1191V33.2656C112.883 32.2695 112.053 31.7715 110.934 31.7715C110.048 31.7715 109.358 32.1133 108.863 32.7969C108.368 33.4805 108.121 34.4928 108.121 35.834ZM117.564 35.6191C117.564 34.584 117.766 33.653 118.17 32.8262C118.58 31.9993 119.146 31.3613 119.869 30.9121C120.598 30.4629 121.428 30.2383 122.359 30.2383C123.798 30.2383 124.96 30.7363 125.846 31.7324C126.738 32.7285 127.184 34.0534 127.184 35.707V35.834C127.184 36.8626 126.985 37.7871 126.588 38.6074C126.197 39.4212 125.634 40.056 124.898 40.5117C124.169 40.9674 123.329 41.1953 122.379 41.1953C120.947 41.1953 119.785 40.6973 118.893 39.7012C118.007 38.7051 117.564 37.3867 117.564 35.7461V35.6191ZM119.381 35.834C119.381 37.0059 119.651 37.9466 120.191 38.6562C120.738 39.3659 121.467 39.7207 122.379 39.7207C123.297 39.7207 124.026 39.3626 124.566 38.6465C125.107 37.9238 125.377 36.9147 125.377 35.6191C125.377 34.4603 125.1 33.5228 124.547 32.8066C124 32.084 123.271 31.7227 122.359 31.7227C121.467 31.7227 120.748 32.0775 120.201 32.7871C119.654 33.4967 119.381 34.5124 119.381 35.834Z" fill="black"/>
<path d="M0 0V-1H-1V0H0ZM485 0H486V-1H485V0ZM485 83V84H486V83H485ZM0 83H-1V84H0V83ZM0 1H485V-1H0V1ZM484 0V83H486V0H484ZM485 82H0V84H485V82ZM1 83V0H-1V83H1Z" fill="white"/>
<rect x="1" y="1" width="483" height="726" stroke="#171212" stroke-width="2"/>
</svg>
