<svg width="968" height="728" viewBox="0 0 968 728" fill="none" xmlns="http://www.w3.org/2000/svg">
<rect x="1" y="1" width="966" height="726" fill="white"/>
<g clip-path="url(#clip0)">
<path d="M0 678H485V728H0V678Z" fill="white"/>
</g>
<g clip-path="url(#clip1)">
<rect y="136" width="968" height="526" fill="white"/>
<g clip-path="url(#clip2)">
<path d="M40.7188 279.938H43.6719V291.902C43.6719 293.535 43.1602 294.832 42.1367 295.793C41.1211 296.754 39.7773 297.234 38.1055 297.234C36.3242 297.234 34.9492 296.785 33.9805 295.887C33.0117 294.988 32.5273 293.738 32.5273 292.137H35.4805C35.4805 293.043 35.7031 293.727 36.1484 294.188C36.6016 294.641 37.2539 294.867 38.1055 294.867C38.9023 294.867 39.5352 294.605 40.0039 294.082C40.4805 293.551 40.7188 292.82 40.7188 291.891V279.938ZM54.4766 295.758C53.6406 296.742 52.4531 297.234 50.9141 297.234C49.5391 297.234 48.4961 296.832 47.7852 296.027C47.082 295.223 46.7305 294.059 46.7305 292.535V284.32H49.5781V292.5C49.5781 294.109 50.2461 294.914 51.582 294.914C52.9648 294.914 53.8984 294.418 54.3828 293.426V284.32H57.2305V297H54.5469L54.4766 295.758ZM59.6328 290.566C59.6328 288.598 60.0938 287.027 61.0156 285.855C61.9453 284.676 63.1758 284.086 64.707 284.086C66.1523 284.086 67.2891 284.59 68.1172 285.598L68.2461 284.32H70.8125V296.613C70.8125 298.277 70.293 299.59 69.2539 300.551C68.2227 301.512 66.8281 301.992 65.0703 301.992C64.1406 301.992 63.2305 301.797 62.3398 301.406C61.457 301.023 60.7852 300.52 60.3242 299.895L61.6719 298.184C62.5469 299.223 63.625 299.742 64.9062 299.742C65.8516 299.742 66.5977 299.484 67.1445 298.969C67.6914 298.461 67.9648 297.711 67.9648 296.719V295.863C67.1445 296.777 66.0508 297.234 64.6836 297.234C63.1992 297.234 61.9844 296.645 61.0391 295.465C60.1016 294.285 59.6328 292.652 59.6328 290.566ZM62.4688 290.812C62.4688 292.086 62.7266 293.09 63.2422 293.824C63.7656 294.551 64.4883 294.914 65.4102 294.914C66.5586 294.914 67.4102 294.422 67.9648 293.438V287.859C67.4258 286.898 66.582 286.418 65.4336 286.418C64.4961 286.418 63.7656 286.789 63.2422 287.531C62.7266 288.273 62.4688 289.367 62.4688 290.812ZM81.3242 297C81.1992 296.758 81.0898 296.363 80.9961 295.816C80.0898 296.762 78.9805 297.234 77.668 297.234C76.3945 297.234 75.3555 296.871 74.5508 296.145C73.7461 295.418 73.3438 294.52 73.3438 293.449C73.3438 292.098 73.8438 291.062 74.8438 290.344C75.8516 289.617 77.2891 289.254 79.1562 289.254H80.9023V288.422C80.9023 287.766 80.7188 287.242 80.3516 286.852C79.9844 286.453 79.4258 286.254 78.6758 286.254C78.0273 286.254 77.4961 286.418 77.082 286.746C76.668 287.066 76.4609 287.477 76.4609 287.977H73.6133C73.6133 287.281 73.8438 286.633 74.3047 286.031C74.7656 285.422 75.3906 284.945 76.1797 284.602C76.9766 284.258 77.8633 284.086 78.8398 284.086C80.3242 284.086 81.5078 284.461 82.3906 285.211C83.2734 285.953 83.7266 287 83.75 288.352V294.07C83.75 295.211 83.9102 296.121 84.2305 296.801V297H81.3242ZM78.1953 294.949C78.7578 294.949 79.2852 294.812 79.7773 294.539C80.2773 294.266 80.6523 293.898 80.9023 293.438V291.047H79.3672C78.3125 291.047 77.5195 291.23 76.9883 291.598C76.457 291.965 76.1914 292.484 76.1914 293.156C76.1914 293.703 76.3711 294.141 76.7305 294.469C77.0977 294.789 77.5859 294.949 78.1953 294.949ZM86.1992 290.566C86.1992 288.613 86.6523 287.047 87.5586 285.867C88.4648 284.68 89.6797 284.086 91.2031 284.086C92.5469 284.086 93.6328 284.555 94.4609 285.492V279H97.3086V297H94.7305L94.5898 295.688C93.7383 296.719 92.6016 297.234 91.1797 297.234C89.6953 297.234 88.4922 296.637 87.5703 295.441C86.6562 294.246 86.1992 292.621 86.1992 290.566ZM89.0469 290.812C89.0469 292.102 89.293 293.109 89.7852 293.836C90.2852 294.555 90.9922 294.914 91.9062 294.914C93.0703 294.914 93.9219 294.395 94.4609 293.355V287.941C93.9375 286.926 93.0938 286.418 91.9297 286.418C91.0078 286.418 90.2969 286.785 89.7969 287.52C89.2969 288.246 89.0469 289.344 89.0469 290.812ZM99.7461 290.543C99.7461 289.301 99.9922 288.184 100.484 287.191C100.977 286.191 101.668 285.426 102.559 284.895C103.449 284.355 104.473 284.086 105.629 284.086C107.34 284.086 108.727 284.637 109.789 285.738C110.859 286.84 111.438 288.301 111.523 290.121L111.535 290.789C111.535 292.039 111.293 293.156 110.809 294.141C110.332 295.125 109.645 295.887 108.746 296.426C107.855 296.965 106.824 297.234 105.652 297.234C103.863 297.234 102.43 296.641 101.352 295.453C100.281 294.258 99.7461 292.668 99.7461 290.684V290.543ZM102.594 290.789C102.594 292.094 102.863 293.117 103.402 293.859C103.941 294.594 104.691 294.961 105.652 294.961C106.613 294.961 107.359 294.586 107.891 293.836C108.43 293.086 108.699 291.988 108.699 290.543C108.699 289.262 108.422 288.246 107.867 287.496C107.32 286.746 106.574 286.371 105.629 286.371C104.699 286.371 103.961 286.742 103.414 287.484C102.867 288.219 102.594 289.32 102.594 290.789ZM120.582 286.922C120.207 286.859 119.82 286.828 119.422 286.828C118.117 286.828 117.238 287.328 116.785 288.328V297H113.938V284.32H116.656L116.727 285.738C117.414 284.637 118.367 284.086 119.586 284.086C119.992 284.086 120.328 284.141 120.594 284.25L120.582 286.922ZM127.73 297.234C125.926 297.234 124.461 296.668 123.336 295.535C122.219 294.395 121.66 292.879 121.66 290.988V290.637C121.66 289.371 121.902 288.242 122.387 287.25C122.879 286.25 123.566 285.473 124.449 284.918C125.332 284.363 126.316 284.086 127.402 284.086C129.129 284.086 130.461 284.637 131.398 285.738C132.344 286.84 132.816 288.398 132.816 290.414V291.562H124.531C124.617 292.609 124.965 293.438 125.574 294.047C126.191 294.656 126.965 294.961 127.895 294.961C129.199 294.961 130.262 294.434 131.082 293.379L132.617 294.844C132.109 295.602 131.43 296.191 130.578 296.613C129.734 297.027 128.785 297.234 127.73 297.234ZM127.391 286.371C126.609 286.371 125.977 286.645 125.492 287.191C125.016 287.738 124.711 288.5 124.578 289.477H130.004V289.266C129.941 288.312 129.688 287.594 129.242 287.109C128.797 286.617 128.18 286.371 127.391 286.371ZM142.145 293.555C142.145 293.047 141.934 292.66 141.512 292.395C141.098 292.129 140.406 291.895 139.438 291.691C138.469 291.488 137.66 291.23 137.012 290.918C135.59 290.23 134.879 289.234 134.879 287.93C134.879 286.836 135.34 285.922 136.262 285.188C137.184 284.453 138.355 284.086 139.777 284.086C141.293 284.086 142.516 284.461 143.445 285.211C144.383 285.961 144.852 286.934 144.852 288.129H142.004C142.004 287.582 141.801 287.129 141.395 286.77C140.988 286.402 140.449 286.219 139.777 286.219C139.152 286.219 138.641 286.363 138.242 286.652C137.852 286.941 137.656 287.328 137.656 287.812C137.656 288.25 137.84 288.59 138.207 288.832C138.574 289.074 139.316 289.32 140.434 289.57C141.551 289.812 142.426 290.105 143.059 290.449C143.699 290.785 144.172 291.191 144.477 291.668C144.789 292.145 144.945 292.723 144.945 293.402C144.945 294.543 144.473 295.469 143.527 296.18C142.582 296.883 141.344 297.234 139.812 297.234C138.773 297.234 137.848 297.047 137.035 296.672C136.223 296.297 135.59 295.781 135.137 295.125C134.684 294.469 134.457 293.762 134.457 293.004H137.223C137.262 293.676 137.516 294.195 137.984 294.562C138.453 294.922 139.074 295.102 139.848 295.102C140.598 295.102 141.168 294.961 141.559 294.68C141.949 294.391 142.145 294.016 142.145 293.555ZM166.168 279.938V291.34C166.168 293.152 165.586 294.59 164.422 295.652C163.266 296.707 161.723 297.234 159.793 297.234C157.84 297.234 156.289 296.715 155.141 295.676C153.992 294.629 153.418 293.18 153.418 291.328V279.938H156.371V291.352C156.371 292.492 156.66 293.363 157.238 293.965C157.816 294.566 158.668 294.867 159.793 294.867C162.074 294.867 163.215 293.664 163.215 291.258V279.938H166.168ZM171.711 284.32L171.793 285.785C172.73 284.652 173.961 284.086 175.484 284.086C178.125 284.086 179.469 285.598 179.516 288.621V297H176.668V288.785C176.668 287.98 176.492 287.387 176.141 287.004C175.797 286.613 175.23 286.418 174.441 286.418C173.293 286.418 172.438 286.938 171.875 287.977V297H169.027V284.32H171.711ZM185.457 297H182.609V284.32H185.457V297ZM182.434 281.027C182.434 280.59 182.57 280.227 182.844 279.938C183.125 279.648 183.523 279.504 184.039 279.504C184.555 279.504 184.953 279.648 185.234 279.938C185.516 280.227 185.656 280.59 185.656 281.027C185.656 281.457 185.516 281.816 185.234 282.105C184.953 282.387 184.555 282.527 184.039 282.527C183.523 282.527 183.125 282.387 182.844 282.105C182.57 281.816 182.434 281.457 182.434 281.027ZM188.035 290.566C188.035 288.613 188.488 287.047 189.395 285.867C190.301 284.68 191.516 284.086 193.039 284.086C194.383 284.086 195.469 284.555 196.297 285.492V279H199.145V297H196.566L196.426 295.688C195.574 296.719 194.438 297.234 193.016 297.234C191.531 297.234 190.328 296.637 189.406 295.441C188.492 294.246 188.035 292.621 188.035 290.566ZM190.883 290.812C190.883 292.102 191.129 293.109 191.621 293.836C192.121 294.555 192.828 294.914 193.742 294.914C194.906 294.914 195.758 294.395 196.297 293.355V287.941C195.773 286.926 194.93 286.418 193.766 286.418C192.844 286.418 192.133 286.785 191.633 287.52C191.133 288.246 190.883 289.344 190.883 290.812ZM201.582 290.543C201.582 289.301 201.828 288.184 202.32 287.191C202.812 286.191 203.504 285.426 204.395 284.895C205.285 284.355 206.309 284.086 207.465 284.086C209.176 284.086 210.562 284.637 211.625 285.738C212.695 286.84 213.273 288.301 213.359 290.121L213.371 290.789C213.371 292.039 213.129 293.156 212.645 294.141C212.168 295.125 211.48 295.887 210.582 296.426C209.691 296.965 208.66 297.234 207.488 297.234C205.699 297.234 204.266 296.641 203.188 295.453C202.117 294.258 201.582 292.668 201.582 290.684V290.543ZM204.43 290.789C204.43 292.094 204.699 293.117 205.238 293.859C205.777 294.594 206.527 294.961 207.488 294.961C208.449 294.961 209.195 294.586 209.727 293.836C210.266 293.086 210.535 291.988 210.535 290.543C210.535 289.262 210.258 288.246 209.703 287.496C209.156 286.746 208.41 286.371 207.465 286.371C206.535 286.371 205.797 286.742 205.25 287.484C204.703 288.219 204.43 289.32 204.43 290.789ZM222.887 293.555C222.887 293.047 222.676 292.66 222.254 292.395C221.84 292.129 221.148 291.895 220.18 291.691C219.211 291.488 218.402 291.23 217.754 290.918C216.332 290.23 215.621 289.234 215.621 287.93C215.621 286.836 216.082 285.922 217.004 285.188C217.926 284.453 219.098 284.086 220.52 284.086C222.035 284.086 223.258 284.461 224.188 285.211C225.125 285.961 225.594 286.934 225.594 288.129H222.746C222.746 287.582 222.543 287.129 222.137 286.77C221.73 286.402 221.191 286.219 220.52 286.219C219.895 286.219 219.383 286.363 218.984 286.652C218.594 286.941 218.398 287.328 218.398 287.812C218.398 288.25 218.582 288.59 218.949 288.832C219.316 289.074 220.059 289.32 221.176 289.57C222.293 289.812 223.168 290.105 223.801 290.449C224.441 290.785 224.914 291.191 225.219 291.668C225.531 292.145 225.688 292.723 225.688 293.402C225.688 294.543 225.215 295.469 224.27 296.18C223.324 296.883 222.086 297.234 220.555 297.234C219.516 297.234 218.59 297.047 217.777 296.672C216.965 296.297 216.332 295.781 215.879 295.125C215.426 294.469 215.199 293.762 215.199 293.004H217.965C218.004 293.676 218.258 294.195 218.727 294.562C219.195 294.922 219.816 295.102 220.59 295.102C221.34 295.102 221.91 294.961 222.301 294.68C222.691 294.391 222.887 294.016 222.887 293.555ZM239.738 297.234C237.934 297.234 236.469 296.668 235.344 295.535C234.227 294.395 233.668 292.879 233.668 290.988V290.637C233.668 289.371 233.91 288.242 234.395 287.25C234.887 286.25 235.574 285.473 236.457 284.918C237.34 284.363 238.324 284.086 239.41 284.086C241.137 284.086 242.469 284.637 243.406 285.738C244.352 286.84 244.824 288.398 244.824 290.414V291.562H236.539C236.625 292.609 236.973 293.438 237.582 294.047C238.199 294.656 238.973 294.961 239.902 294.961C241.207 294.961 242.27 294.434 243.09 293.379L244.625 294.844C244.117 295.602 243.438 296.191 242.586 296.613C241.742 297.027 240.793 297.234 239.738 297.234ZM239.398 286.371C238.617 286.371 237.984 286.645 237.5 287.191C237.023 287.738 236.719 288.5 236.586 289.477H242.012V289.266C241.949 288.312 241.695 287.594 241.25 287.109C240.805 286.617 240.188 286.371 239.398 286.371ZM249.688 284.32L249.77 285.785C250.707 284.652 251.938 284.086 253.461 284.086C256.102 284.086 257.445 285.598 257.492 288.621V297H254.645V288.785C254.645 287.98 254.469 287.387 254.117 287.004C253.773 286.613 253.207 286.418 252.418 286.418C251.27 286.418 250.414 286.938 249.852 287.977V297H247.004V284.32H249.688ZM269.41 297H266.562V279H269.41V297ZM280.098 297C279.973 296.758 279.863 296.363 279.77 295.816C278.863 296.762 277.754 297.234 276.441 297.234C275.168 297.234 274.129 296.871 273.324 296.145C272.52 295.418 272.117 294.52 272.117 293.449C272.117 292.098 272.617 291.062 273.617 290.344C274.625 289.617 276.062 289.254 277.93 289.254H279.676V288.422C279.676 287.766 279.492 287.242 279.125 286.852C278.758 286.453 278.199 286.254 277.449 286.254C276.801 286.254 276.27 286.418 275.855 286.746C275.441 287.066 275.234 287.477 275.234 287.977H272.387C272.387 287.281 272.617 286.633 273.078 286.031C273.539 285.422 274.164 284.945 274.953 284.602C275.75 284.258 276.637 284.086 277.613 284.086C279.098 284.086 280.281 284.461 281.164 285.211C282.047 285.953 282.5 287 282.523 288.352V294.07C282.523 295.211 282.684 296.121 283.004 296.801V297H280.098ZM276.969 294.949C277.531 294.949 278.059 294.812 278.551 294.539C279.051 294.266 279.426 293.898 279.676 293.438V291.047H278.141C277.086 291.047 276.293 291.23 275.762 291.598C275.23 291.965 274.965 292.484 274.965 293.156C274.965 293.703 275.145 294.141 275.504 294.469C275.871 294.789 276.359 294.949 276.969 294.949ZM298.59 293.555C298.59 293.047 298.379 292.66 297.957 292.395C297.543 292.129 296.852 291.895 295.883 291.691C294.914 291.488 294.105 291.23 293.457 290.918C292.035 290.23 291.324 289.234 291.324 287.93C291.324 286.836 291.785 285.922 292.707 285.188C293.629 284.453 294.801 284.086 296.223 284.086C297.738 284.086 298.961 284.461 299.891 285.211C300.828 285.961 301.297 286.934 301.297 288.129H298.449C298.449 287.582 298.246 287.129 297.84 286.77C297.434 286.402 296.895 286.219 296.223 286.219C295.598 286.219 295.086 286.363 294.688 286.652C294.297 286.941 294.102 287.328 294.102 287.812C294.102 288.25 294.285 288.59 294.652 288.832C295.02 289.074 295.762 289.32 296.879 289.57C297.996 289.812 298.871 290.105 299.504 290.449C300.145 290.785 300.617 291.191 300.922 291.668C301.234 292.145 301.391 292.723 301.391 293.402C301.391 294.543 300.918 295.469 299.973 296.18C299.027 296.883 297.789 297.234 296.258 297.234C295.219 297.234 294.293 297.047 293.48 296.672C292.668 296.297 292.035 295.781 291.582 295.125C291.129 294.469 290.902 293.762 290.902 293.004H293.668C293.707 293.676 293.961 294.195 294.43 294.562C294.898 294.922 295.52 295.102 296.293 295.102C297.043 295.102 297.613 294.961 298.004 294.68C298.395 294.391 298.59 294.016 298.59 293.555ZM309.465 297.234C307.66 297.234 306.195 296.668 305.07 295.535C303.953 294.395 303.395 292.879 303.395 290.988V290.637C303.395 289.371 303.637 288.242 304.121 287.25C304.613 286.25 305.301 285.473 306.184 284.918C307.066 284.363 308.051 284.086 309.137 284.086C310.863 284.086 312.195 284.637 313.133 285.738C314.078 286.84 314.551 288.398 314.551 290.414V291.562H306.266C306.352 292.609 306.699 293.438 307.309 294.047C307.926 294.656 308.699 294.961 309.629 294.961C310.934 294.961 311.996 294.434 312.816 293.379L314.352 294.844C313.844 295.602 313.164 296.191 312.312 296.613C311.469 297.027 310.52 297.234 309.465 297.234ZM309.125 286.371C308.344 286.371 307.711 286.645 307.227 287.191C306.75 287.738 306.445 288.5 306.312 289.477H311.738V289.266C311.676 288.312 311.422 287.594 310.977 287.109C310.531 286.617 309.914 286.371 309.125 286.371ZM323.879 293.555C323.879 293.047 323.668 292.66 323.246 292.395C322.832 292.129 322.141 291.895 321.172 291.691C320.203 291.488 319.395 291.23 318.746 290.918C317.324 290.23 316.613 289.234 316.613 287.93C316.613 286.836 317.074 285.922 317.996 285.188C318.918 284.453 320.09 284.086 321.512 284.086C323.027 284.086 324.25 284.461 325.18 285.211C326.117 285.961 326.586 286.934 326.586 288.129H323.738C323.738 287.582 323.535 287.129 323.129 286.77C322.723 286.402 322.184 286.219 321.512 286.219C320.887 286.219 320.375 286.363 319.977 286.652C319.586 286.941 319.391 287.328 319.391 287.812C319.391 288.25 319.574 288.59 319.941 288.832C320.309 289.074 321.051 289.32 322.168 289.57C323.285 289.812 324.16 290.105 324.793 290.449C325.434 290.785 325.906 291.191 326.211 291.668C326.523 292.145 326.68 292.723 326.68 293.402C326.68 294.543 326.207 295.469 325.262 296.18C324.316 296.883 323.078 297.234 321.547 297.234C320.508 297.234 319.582 297.047 318.77 296.672C317.957 296.297 317.324 295.781 316.871 295.125C316.418 294.469 316.191 293.762 316.191 293.004H318.957C318.996 293.676 319.25 294.195 319.719 294.562C320.188 294.922 320.809 295.102 321.582 295.102C322.332 295.102 322.902 294.961 323.293 294.68C323.684 294.391 323.879 294.016 323.879 293.555ZM332.199 297H329.352V284.32H332.199V297ZM329.176 281.027C329.176 280.59 329.312 280.227 329.586 279.938C329.867 279.648 330.266 279.504 330.781 279.504C331.297 279.504 331.695 279.648 331.977 279.938C332.258 280.227 332.398 280.59 332.398 281.027C332.398 281.457 332.258 281.816 331.977 282.105C331.695 282.387 331.297 282.527 330.781 282.527C330.266 282.527 329.867 282.387 329.586 282.105C329.312 281.816 329.176 281.457 329.176 281.027ZM334.777 290.543C334.777 289.301 335.023 288.184 335.516 287.191C336.008 286.191 336.699 285.426 337.59 284.895C338.48 284.355 339.504 284.086 340.66 284.086C342.371 284.086 343.758 284.637 344.82 285.738C345.891 286.84 346.469 288.301 346.555 290.121L346.566 290.789C346.566 292.039 346.324 293.156 345.84 294.141C345.363 295.125 344.676 295.887 343.777 296.426C342.887 296.965 341.855 297.234 340.684 297.234C338.895 297.234 337.461 296.641 336.383 295.453C335.312 294.258 334.777 292.668 334.777 290.684V290.543ZM337.625 290.789C337.625 292.094 337.895 293.117 338.434 293.859C338.973 294.594 339.723 294.961 340.684 294.961C341.645 294.961 342.391 294.586 342.922 293.836C343.461 293.086 343.73 291.988 343.73 290.543C343.73 289.262 343.453 288.246 342.898 287.496C342.352 286.746 341.605 286.371 340.66 286.371C339.73 286.371 338.992 286.742 338.445 287.484C337.898 288.219 337.625 289.32 337.625 290.789ZM341.445 279H344.691L341.445 282.551H339.16L341.445 279ZM351.617 284.32L351.699 285.785C352.637 284.652 353.867 284.086 355.391 284.086C358.031 284.086 359.375 285.598 359.422 288.621V297H356.574V288.785C356.574 287.98 356.398 287.387 356.047 287.004C355.703 286.613 355.137 286.418 354.348 286.418C353.199 286.418 352.344 286.938 351.781 287.977V297H348.934V284.32H351.617Z" fill="black"/>
<path d="M48.9883 356H46.1523V342.301L41.9688 343.73V341.328L48.625 338.879H48.9883V356ZM56.875 353C57.4062 353 57.8164 353.152 58.1055 353.457C58.3945 353.754 58.5391 354.129 58.5391 354.582C58.5391 355.027 58.3945 355.398 58.1055 355.695C57.8164 355.984 57.4062 356.129 56.875 356.129C56.3672 356.129 55.9648 355.984 55.668 355.695C55.3711 355.406 55.2227 355.035 55.2227 354.582C55.2227 354.129 55.3672 353.754 55.6562 353.457C55.9453 353.152 56.3516 353 56.875 353ZM78.0273 348.383H71.0195V353.633H79.2109V356H68.0547V338.938H79.1289V341.328H71.0195V346.039H78.0273V348.383ZM80.582 349.566C80.582 347.613 81.0352 346.047 81.9414 344.867C82.8477 343.68 84.0625 343.086 85.5859 343.086C86.9297 343.086 88.0156 343.555 88.8438 344.492V338H91.6914V356H89.1133L88.9727 354.688C88.1211 355.719 86.9844 356.234 85.5625 356.234C84.0781 356.234 82.875 355.637 81.9531 354.441C81.0391 353.246 80.582 351.621 80.582 349.566ZM83.4297 349.812C83.4297 351.102 83.6758 352.109 84.168 352.836C84.668 353.555 85.375 353.914 86.2891 353.914C87.4531 353.914 88.3047 353.395 88.8438 352.355V346.941C88.3203 345.926 87.4766 345.418 86.3125 345.418C85.3906 345.418 84.6797 345.785 84.1797 346.52C83.6797 347.246 83.4297 348.344 83.4297 349.812ZM94.1641 349.566C94.1641 347.598 94.625 346.027 95.5469 344.855C96.4766 343.676 97.707 343.086 99.2383 343.086C100.684 343.086 101.82 343.59 102.648 344.598L102.777 343.32H105.344V355.613C105.344 357.277 104.824 358.59 103.785 359.551C102.754 360.512 101.359 360.992 99.6016 360.992C98.6719 360.992 97.7617 360.797 96.8711 360.406C95.9883 360.023 95.3164 359.52 94.8555 358.895L96.2031 357.184C97.0781 358.223 98.1562 358.742 99.4375 358.742C100.383 358.742 101.129 358.484 101.676 357.969C102.223 357.461 102.496 356.711 102.496 355.719V354.863C101.676 355.777 100.582 356.234 99.2148 356.234C97.7305 356.234 96.5156 355.645 95.5703 354.465C94.6328 353.285 94.1641 351.652 94.1641 349.566ZM97 349.812C97 351.086 97.2578 352.09 97.7734 352.824C98.2969 353.551 99.0195 353.914 99.9414 353.914C101.09 353.914 101.941 353.422 102.496 352.438V346.859C101.957 345.898 101.113 345.418 99.9648 345.418C99.0273 345.418 98.2969 345.789 97.7734 346.531C97.2578 347.273 97 348.367 97 349.812ZM115.855 356C115.73 355.758 115.621 355.363 115.527 354.816C114.621 355.762 113.512 356.234 112.199 356.234C110.926 356.234 109.887 355.871 109.082 355.145C108.277 354.418 107.875 353.52 107.875 352.449C107.875 351.098 108.375 350.062 109.375 349.344C110.383 348.617 111.82 348.254 113.688 348.254H115.434V347.422C115.434 346.766 115.25 346.242 114.883 345.852C114.516 345.453 113.957 345.254 113.207 345.254C112.559 345.254 112.027 345.418 111.613 345.746C111.199 346.066 110.992 346.477 110.992 346.977H108.145C108.145 346.281 108.375 345.633 108.836 345.031C109.297 344.422 109.922 343.945 110.711 343.602C111.508 343.258 112.395 343.086 113.371 343.086C114.855 343.086 116.039 343.461 116.922 344.211C117.805 344.953 118.258 346 118.281 347.352V353.07C118.281 354.211 118.441 355.121 118.762 355.801V356H115.855ZM112.727 353.949C113.289 353.949 113.816 353.812 114.309 353.539C114.809 353.266 115.184 352.898 115.434 352.438V350.047H113.898C112.844 350.047 112.051 350.23 111.52 350.598C110.988 350.965 110.723 351.484 110.723 352.156C110.723 352.703 110.902 353.141 111.262 353.469C111.629 353.789 112.117 353.949 112.727 353.949ZM127.902 345.922C127.527 345.859 127.141 345.828 126.742 345.828C125.438 345.828 124.559 346.328 124.105 347.328V356H121.258V343.32H123.977L124.047 344.738C124.734 343.637 125.688 343.086 126.906 343.086C127.312 343.086 127.648 343.141 127.914 343.25L127.902 345.922ZM144.871 351.605C144.871 350.855 144.605 350.277 144.074 349.871C143.551 349.465 142.602 349.055 141.227 348.641C139.852 348.227 138.758 347.766 137.945 347.258C136.391 346.281 135.613 345.008 135.613 343.438C135.613 342.062 136.172 340.93 137.289 340.039C138.414 339.148 139.871 338.703 141.66 338.703C142.848 338.703 143.906 338.922 144.836 339.359C145.766 339.797 146.496 340.422 147.027 341.234C147.559 342.039 147.824 342.934 147.824 343.918H144.871C144.871 343.027 144.59 342.332 144.027 341.832C143.473 341.324 142.676 341.07 141.637 341.07C140.668 341.07 139.914 341.277 139.375 341.691C138.844 342.105 138.578 342.684 138.578 343.426C138.578 344.051 138.867 344.574 139.445 344.996C140.023 345.41 140.977 345.816 142.305 346.215C143.633 346.605 144.699 347.055 145.504 347.562C146.309 348.062 146.898 348.641 147.273 349.297C147.648 349.945 147.836 350.707 147.836 351.582C147.836 353.004 147.289 354.137 146.195 354.98C145.109 355.816 143.633 356.234 141.766 356.234C140.531 356.234 139.395 356.008 138.355 355.555C137.324 355.094 136.52 354.461 135.941 353.656C135.371 352.852 135.086 351.914 135.086 350.844H138.051C138.051 351.812 138.371 352.562 139.012 353.094C139.652 353.625 140.57 353.891 141.766 353.891C142.797 353.891 143.57 353.684 144.086 353.27C144.609 352.848 144.871 352.293 144.871 351.605ZM153.191 356H150.344V343.32H153.191V356ZM150.168 340.027C150.168 339.59 150.305 339.227 150.578 338.938C150.859 338.648 151.258 338.504 151.773 338.504C152.289 338.504 152.688 338.648 152.969 338.938C153.25 339.227 153.391 339.59 153.391 340.027C153.391 340.457 153.25 340.816 152.969 341.105C152.688 341.387 152.289 341.527 151.773 341.527C151.258 341.527 150.859 341.387 150.578 341.105C150.305 340.816 150.168 340.457 150.168 340.027ZM159.332 356H156.484V338H159.332V356ZM166.914 352.391L169.598 343.32H172.539L168.145 356H165.672L161.242 343.32H164.195L166.914 352.391ZM181.715 356C181.59 355.758 181.48 355.363 181.387 354.816C180.48 355.762 179.371 356.234 178.059 356.234C176.785 356.234 175.746 355.871 174.941 355.145C174.137 354.418 173.734 353.52 173.734 352.449C173.734 351.098 174.234 350.062 175.234 349.344C176.242 348.617 177.68 348.254 179.547 348.254H181.293V347.422C181.293 346.766 181.109 346.242 180.742 345.852C180.375 345.453 179.816 345.254 179.066 345.254C178.418 345.254 177.887 345.418 177.473 345.746C177.059 346.066 176.852 346.477 176.852 346.977H174.004C174.004 346.281 174.234 345.633 174.695 345.031C175.156 344.422 175.781 343.945 176.57 343.602C177.367 343.258 178.254 343.086 179.23 343.086C180.715 343.086 181.898 343.461 182.781 344.211C183.664 344.953 184.117 346 184.141 347.352V353.07C184.141 354.211 184.301 355.121 184.621 355.801V356H181.715ZM178.586 353.949C179.148 353.949 179.676 353.812 180.168 353.539C180.668 353.266 181.043 352.898 181.293 352.438V350.047H179.758C178.703 350.047 177.91 350.23 177.379 350.598C176.848 350.965 176.582 351.484 176.582 352.156C176.582 352.703 176.762 353.141 177.121 353.469C177.488 353.789 177.977 353.949 178.586 353.949Z" fill="black"/>
<path d="M207.605 394.102L211.191 387.938H214.613L209.457 396.398L214.73 405H211.273L207.605 398.742L203.926 405H200.48L205.766 396.398L200.598 387.938H204.02L207.605 394.102Z" fill="#FB0000"/>
<path d="M52.75 405H41.2773V403.043L46.9609 396.844C47.7812 395.93 48.3633 395.168 48.707 394.559C49.0586 393.941 49.2344 393.324 49.2344 392.707C49.2344 391.895 49.0039 391.238 48.543 390.738C48.0898 390.238 47.4766 389.988 46.7031 389.988C45.7812 389.988 45.0664 390.27 44.5586 390.832C44.0508 391.395 43.7969 392.164 43.7969 393.141H40.9492C40.9492 392.102 41.1836 391.168 41.6523 390.34C42.1289 389.504 42.8047 388.855 43.6797 388.395C44.5625 387.934 45.5781 387.703 46.7266 387.703C48.3828 387.703 49.6875 388.121 50.6406 388.957C51.6016 389.785 52.082 390.934 52.082 392.402C52.082 393.254 51.8398 394.148 51.3555 395.086C50.8789 396.016 50.0938 397.074 49 398.262L44.8281 402.727H52.75V405ZM56.875 402C57.4062 402 57.8164 402.152 58.1055 402.457C58.3945 402.754 58.5391 403.129 58.5391 403.582C58.5391 404.027 58.3945 404.398 58.1055 404.695C57.8164 404.984 57.4062 405.129 56.875 405.129C56.3672 405.129 55.9648 404.984 55.668 404.695C55.3711 404.406 55.2227 404.035 55.2227 403.582C55.2227 403.129 55.3672 402.754 55.6562 402.457C55.9453 402.152 56.3516 402 56.875 402ZM77.6055 401.027H70.9961L69.6133 405H66.5312L72.9766 387.938H75.6367L82.0938 405H79L77.6055 401.027ZM71.8281 398.637H76.7734L74.3008 391.559L71.8281 398.637ZM85.8438 392.32L85.9258 393.785C86.8633 392.652 88.0938 392.086 89.6172 392.086C92.2578 392.086 93.6016 393.598 93.6484 396.621V405H90.8008V396.785C90.8008 395.98 90.625 395.387 90.2734 395.004C89.9297 394.613 89.3633 394.418 88.5742 394.418C87.4258 394.418 86.5703 394.938 86.0078 395.977V405H83.1602V392.32H85.8438ZM104.137 405C104.012 404.758 103.902 404.363 103.809 403.816C102.902 404.762 101.793 405.234 100.48 405.234C99.207 405.234 98.168 404.871 97.3633 404.145C96.5586 403.418 96.1562 402.52 96.1562 401.449C96.1562 400.098 96.6562 399.062 97.6562 398.344C98.6641 397.617 100.102 397.254 101.969 397.254H103.715V396.422C103.715 395.766 103.531 395.242 103.164 394.852C102.797 394.453 102.238 394.254 101.488 394.254C100.84 394.254 100.309 394.418 99.8945 394.746C99.4805 395.066 99.2734 395.477 99.2734 395.977H96.4258C96.4258 395.281 96.6562 394.633 97.1172 394.031C97.5781 393.422 98.2031 392.945 98.9922 392.602C99.7891 392.258 100.676 392.086 101.652 392.086C103.137 392.086 104.32 392.461 105.203 393.211C106.086 393.953 106.539 395 106.562 396.352V402.07C106.562 403.211 106.723 404.121 107.043 404.801V405H104.137ZM101.008 402.949C101.57 402.949 102.098 402.812 102.59 402.539C103.09 402.266 103.465 401.898 103.715 401.438V399.047H102.18C101.125 399.047 100.332 399.23 99.8008 399.598C99.2695 399.965 99.0039 400.484 99.0039 401.156C99.0039 401.703 99.1836 402.141 99.543 402.469C99.9102 402.789 100.398 402.949 101.008 402.949ZM119.641 387.938L124.562 401.016L129.473 387.938H133.305V405H130.352V399.375L130.645 391.852L125.605 405H123.484L118.457 391.863L118.75 399.375V405H115.797V387.938H119.641ZM144.121 405C143.996 404.758 143.887 404.363 143.793 403.816C142.887 404.762 141.777 405.234 140.465 405.234C139.191 405.234 138.152 404.871 137.348 404.145C136.543 403.418 136.141 402.52 136.141 401.449C136.141 400.098 136.641 399.062 137.641 398.344C138.648 397.617 140.086 397.254 141.953 397.254H143.699V396.422C143.699 395.766 143.516 395.242 143.148 394.852C142.781 394.453 142.223 394.254 141.473 394.254C140.824 394.254 140.293 394.418 139.879 394.746C139.465 395.066 139.258 395.477 139.258 395.977H136.41C136.41 395.281 136.641 394.633 137.102 394.031C137.562 393.422 138.188 392.945 138.977 392.602C139.773 392.258 140.66 392.086 141.637 392.086C143.121 392.086 144.305 392.461 145.188 393.211C146.07 393.953 146.523 395 146.547 396.352V402.07C146.547 403.211 146.707 404.121 147.027 404.801V405H144.121ZM140.992 402.949C141.555 402.949 142.082 402.812 142.574 402.539C143.074 402.266 143.449 401.898 143.699 401.438V399.047H142.164C141.109 399.047 140.316 399.23 139.785 399.598C139.254 399.965 138.988 400.484 138.988 401.156C138.988 401.703 139.168 402.141 139.527 402.469C139.895 402.789 140.383 402.949 140.992 402.949ZM156.168 394.922C155.793 394.859 155.406 394.828 155.008 394.828C153.703 394.828 152.824 395.328 152.371 396.328V405H149.523V392.32H152.242L152.312 393.738C153 392.637 153.953 392.086 155.172 392.086C155.578 392.086 155.914 392.141 156.18 392.25L156.168 394.922ZM160.996 405H158.148V392.32H160.996V405ZM157.973 389.027C157.973 388.59 158.109 388.227 158.383 387.938C158.664 387.648 159.062 387.504 159.578 387.504C160.094 387.504 160.492 387.648 160.773 387.938C161.055 388.227 161.195 388.59 161.195 389.027C161.195 389.457 161.055 389.816 160.773 390.105C160.492 390.387 160.094 390.527 159.578 390.527C159.062 390.527 158.664 390.387 158.383 390.105C158.109 389.816 157.973 389.457 157.973 389.027ZM171.684 405C171.559 404.758 171.449 404.363 171.355 403.816C170.449 404.762 169.34 405.234 168.027 405.234C166.754 405.234 165.715 404.871 164.91 404.145C164.105 403.418 163.703 402.52 163.703 401.449C163.703 400.098 164.203 399.062 165.203 398.344C166.211 397.617 167.648 397.254 169.516 397.254H171.262V396.422C171.262 395.766 171.078 395.242 170.711 394.852C170.344 394.453 169.785 394.254 169.035 394.254C168.387 394.254 167.855 394.418 167.441 394.746C167.027 395.066 166.82 395.477 166.82 395.977H163.973C163.973 395.281 164.203 394.633 164.664 394.031C165.125 393.422 165.75 392.945 166.539 392.602C167.336 392.258 168.223 392.086 169.199 392.086C170.684 392.086 171.867 392.461 172.75 393.211C173.633 393.953 174.086 395 174.109 396.352V402.07C174.109 403.211 174.27 404.121 174.59 404.801V405H171.684ZM168.555 402.949C169.117 402.949 169.645 402.812 170.137 402.539C170.637 402.266 171.012 401.898 171.262 401.438V399.047H169.727C168.672 399.047 167.879 399.23 167.348 399.598C166.816 399.965 166.551 400.484 166.551 401.156C166.551 401.703 166.73 402.141 167.09 402.469C167.457 402.789 167.945 402.949 168.555 402.949Z" fill="black"/>
</g>
<rect x="32.5" y="593.5" width="160" height="50" rx="13.5" fill="#10B6AC" stroke="black"/>
<rect x="253.5" y="593.5" width="160" height="50" rx="13.5" fill="white" stroke="black"/>
<path d="M303.109 621.488C302.934 622.992 302.377 624.154 301.439 624.975C300.508 625.788 299.268 626.195 297.719 626.195C296.039 626.195 294.691 625.593 293.676 624.389C292.667 623.184 292.162 621.573 292.162 619.555V618.188C292.162 616.866 292.396 615.704 292.865 614.701C293.34 613.699 294.011 612.93 294.877 612.396C295.743 611.856 296.745 611.586 297.885 611.586C299.395 611.586 300.606 612.009 301.518 612.855C302.429 613.695 302.96 614.861 303.109 616.352H301.225C301.062 615.219 300.707 614.398 300.16 613.891C299.62 613.383 298.861 613.129 297.885 613.129C296.687 613.129 295.746 613.572 295.062 614.457C294.385 615.342 294.047 616.602 294.047 618.236V619.613C294.047 621.156 294.369 622.383 295.014 623.295C295.658 624.206 296.56 624.662 297.719 624.662C298.76 624.662 299.558 624.428 300.111 623.959C300.671 623.484 301.042 622.66 301.225 621.488H303.109ZM311.918 626C311.814 625.792 311.729 625.421 311.664 624.887C310.824 625.759 309.822 626.195 308.656 626.195C307.615 626.195 306.758 625.902 306.088 625.316C305.424 624.724 305.092 623.975 305.092 623.07C305.092 621.97 305.508 621.117 306.342 620.512C307.182 619.9 308.36 619.594 309.877 619.594H311.635V618.764C311.635 618.132 311.446 617.631 311.068 617.26C310.691 616.882 310.134 616.693 309.398 616.693C308.754 616.693 308.214 616.856 307.777 617.182C307.341 617.507 307.123 617.901 307.123 618.363H305.307C305.307 617.836 305.492 617.328 305.863 616.84C306.241 616.345 306.749 615.954 307.387 615.668C308.031 615.382 308.738 615.238 309.506 615.238C310.723 615.238 311.677 615.544 312.367 616.156C313.057 616.762 313.415 617.598 313.441 618.666V623.529C313.441 624.499 313.565 625.271 313.812 625.844V626H311.918ZM308.92 624.623C309.486 624.623 310.023 624.477 310.531 624.184C311.039 623.891 311.407 623.51 311.635 623.041V620.873H310.219C308.005 620.873 306.898 621.521 306.898 622.816C306.898 623.383 307.087 623.826 307.465 624.145C307.842 624.464 308.327 624.623 308.92 624.623ZM317.982 615.434L318.041 616.762C318.848 615.746 319.903 615.238 321.205 615.238C323.438 615.238 324.564 616.498 324.584 619.018V626H322.777V619.008C322.771 618.246 322.595 617.683 322.25 617.318C321.911 616.954 321.381 616.771 320.658 616.771C320.072 616.771 319.558 616.928 319.115 617.24C318.673 617.553 318.327 617.963 318.08 618.471V626H316.273V615.434H317.982ZM331.547 624.721C332.191 624.721 332.755 624.525 333.236 624.135C333.718 623.744 333.985 623.256 334.037 622.67H335.746C335.714 623.275 335.505 623.852 335.121 624.398C334.737 624.945 334.223 625.382 333.578 625.707C332.94 626.033 332.263 626.195 331.547 626.195C330.108 626.195 328.962 625.717 328.109 624.76C327.263 623.796 326.84 622.481 326.84 620.814V620.512C326.84 619.483 327.029 618.568 327.406 617.768C327.784 616.967 328.324 616.345 329.027 615.902C329.737 615.46 330.574 615.238 331.537 615.238C332.722 615.238 333.705 615.593 334.486 616.303C335.274 617.012 335.694 617.934 335.746 619.066H334.037C333.985 618.383 333.725 617.823 333.256 617.387C332.794 616.944 332.221 616.723 331.537 616.723C330.619 616.723 329.906 617.055 329.398 617.719C328.897 618.376 328.646 619.33 328.646 620.58V620.922C328.646 622.139 328.897 623.077 329.398 623.734C329.9 624.392 330.616 624.721 331.547 624.721ZM342.162 626.195C340.73 626.195 339.564 625.727 338.666 624.789C337.768 623.845 337.318 622.585 337.318 621.01V620.678C337.318 619.63 337.517 618.695 337.914 617.875C338.318 617.048 338.878 616.404 339.594 615.941C340.316 615.473 341.098 615.238 341.938 615.238C343.311 615.238 344.379 615.691 345.141 616.596C345.902 617.501 346.283 618.796 346.283 620.482V621.234H339.125C339.151 622.276 339.454 623.119 340.033 623.764C340.619 624.402 341.361 624.721 342.26 624.721C342.898 624.721 343.438 624.59 343.881 624.33C344.324 624.07 344.711 623.725 345.043 623.295L346.146 624.154C345.261 625.515 343.933 626.195 342.162 626.195ZM341.938 616.723C341.208 616.723 340.596 616.99 340.102 617.523C339.607 618.051 339.301 618.793 339.184 619.75H344.477V619.613C344.424 618.695 344.177 617.986 343.734 617.484C343.292 616.977 342.693 616.723 341.938 616.723ZM350.346 626H348.539V611H350.346V626ZM359.77 626C359.665 625.792 359.581 625.421 359.516 624.887C358.676 625.759 357.673 626.195 356.508 626.195C355.466 626.195 354.61 625.902 353.939 625.316C353.275 624.724 352.943 623.975 352.943 623.07C352.943 621.97 353.36 621.117 354.193 620.512C355.033 619.9 356.212 619.594 357.729 619.594H359.486V618.764C359.486 618.132 359.298 617.631 358.92 617.26C358.542 616.882 357.986 616.693 357.25 616.693C356.605 616.693 356.065 616.856 355.629 617.182C355.193 617.507 354.975 617.901 354.975 618.363H353.158C353.158 617.836 353.344 617.328 353.715 616.84C354.092 616.345 354.6 615.954 355.238 615.668C355.883 615.382 356.589 615.238 357.357 615.238C358.575 615.238 359.529 615.544 360.219 616.156C360.909 616.762 361.267 617.598 361.293 618.666V623.529C361.293 624.499 361.417 625.271 361.664 625.844V626H359.77ZM356.771 624.623C357.338 624.623 357.875 624.477 358.383 624.184C358.891 623.891 359.258 623.51 359.486 623.041V620.873H358.07C355.857 620.873 354.75 621.521 354.75 622.816C354.75 623.383 354.939 623.826 355.316 624.145C355.694 624.464 356.179 624.623 356.771 624.623ZM369.232 617.055C368.959 617.009 368.663 616.986 368.344 616.986C367.159 616.986 366.355 617.491 365.932 618.5V626H364.125V615.434H365.883L365.912 616.654C366.505 615.71 367.344 615.238 368.432 615.238C368.783 615.238 369.05 615.284 369.232 615.375V617.055Z" fill="black"/>
<path d="M47.6621 626H45.7871V611.781H47.6621V626ZM52.5254 615.434L52.584 616.762C53.3913 615.746 54.446 615.238 55.748 615.238C57.9811 615.238 59.1074 616.498 59.127 619.018V626H57.3203V619.008C57.3138 618.246 57.138 617.683 56.793 617.318C56.4544 616.954 55.9238 616.771 55.2012 616.771C54.6152 616.771 54.1009 616.928 53.6582 617.24C53.2155 617.553 52.8704 617.963 52.623 618.471V626H50.8164V615.434H52.5254ZM63.8145 626H62.0078V615.434H63.8145V626ZM61.8613 612.631C61.8613 612.338 61.9492 612.09 62.125 611.889C62.3073 611.687 62.5742 611.586 62.9258 611.586C63.2773 611.586 63.5443 611.687 63.7266 611.889C63.9089 612.09 64 612.338 64 612.631C64 612.924 63.9089 613.168 63.7266 613.363C63.5443 613.559 63.2773 613.656 62.9258 613.656C62.5742 613.656 62.3073 613.559 62.125 613.363C61.9492 613.168 61.8613 612.924 61.8613 612.631ZM70.9531 624.721C71.5977 624.721 72.1608 624.525 72.6426 624.135C73.1243 623.744 73.3913 623.256 73.4434 622.67H75.1523C75.1198 623.275 74.9115 623.852 74.5273 624.398C74.1432 624.945 73.6289 625.382 72.9844 625.707C72.3464 626.033 71.6693 626.195 70.9531 626.195C69.5143 626.195 68.3685 625.717 67.5156 624.76C66.6693 623.796 66.2461 622.481 66.2461 620.814V620.512C66.2461 619.483 66.4349 618.568 66.8125 617.768C67.1901 616.967 67.7305 616.345 68.4336 615.902C69.1432 615.46 69.9798 615.238 70.9434 615.238C72.1283 615.238 73.1113 615.593 73.8926 616.303C74.6803 617.012 75.1003 617.934 75.1523 619.066H73.4434C73.3913 618.383 73.1309 617.823 72.6621 617.387C72.1999 616.944 71.627 616.723 70.9434 616.723C70.0254 616.723 69.3125 617.055 68.8047 617.719C68.3034 618.376 68.0527 619.33 68.0527 620.58V620.922C68.0527 622.139 68.3034 623.077 68.8047 623.734C69.306 624.392 70.0221 624.721 70.9531 624.721ZM79.1465 626H77.3398V615.434H79.1465V626ZM77.1934 612.631C77.1934 612.338 77.2812 612.09 77.457 611.889C77.6393 611.687 77.9062 611.586 78.2578 611.586C78.6094 611.586 78.8763 611.687 79.0586 611.889C79.2409 612.09 79.332 612.338 79.332 612.631C79.332 612.924 79.2409 613.168 79.0586 613.363C78.8763 613.559 78.6094 613.656 78.2578 613.656C77.9062 613.656 77.6393 613.559 77.457 613.363C77.2812 613.168 77.1934 612.924 77.1934 612.631ZM88.5703 626C88.4661 625.792 88.3815 625.421 88.3164 624.887C87.4766 625.759 86.474 626.195 85.3086 626.195C84.2669 626.195 83.4108 625.902 82.7402 625.316C82.0762 624.724 81.7441 623.975 81.7441 623.07C81.7441 621.97 82.1608 621.117 82.9941 620.512C83.834 619.9 85.0124 619.594 86.5293 619.594H88.2871V618.764C88.2871 618.132 88.0983 617.631 87.7207 617.26C87.3431 616.882 86.7865 616.693 86.0508 616.693C85.4062 616.693 84.8659 616.856 84.4297 617.182C83.9935 617.507 83.7754 617.901 83.7754 618.363H81.959C81.959 617.836 82.1445 617.328 82.5156 616.84C82.8932 616.345 83.401 615.954 84.0391 615.668C84.6836 615.382 85.39 615.238 86.1582 615.238C87.3757 615.238 88.3294 615.544 89.0195 616.156C89.7096 616.762 90.0677 617.598 90.0938 618.666V623.529C90.0938 624.499 90.2174 625.271 90.4648 625.844V626H88.5703ZM85.5723 624.623C86.1387 624.623 86.6758 624.477 87.1836 624.184C87.6914 623.891 88.0592 623.51 88.2871 623.041V620.873H86.8711C84.6576 620.873 83.5508 621.521 83.5508 622.816C83.5508 623.383 83.7396 623.826 84.1172 624.145C84.4948 624.464 84.9798 624.623 85.5723 624.623ZM98.0332 617.055C97.7598 617.009 97.4635 616.986 97.1445 616.986C95.9596 616.986 95.1556 617.491 94.7324 618.5V626H92.9258V615.434H94.6836L94.7129 616.654C95.3053 615.71 96.1452 615.238 97.2324 615.238C97.584 615.238 97.8509 615.284 98.0332 615.375V617.055ZM106.822 620.434V626H104.947V611.781H110.191C111.747 611.781 112.965 612.178 113.844 612.973C114.729 613.767 115.172 614.818 115.172 616.127C115.172 617.507 114.739 618.572 113.873 619.32C113.014 620.062 111.78 620.434 110.172 620.434H106.822ZM106.822 618.9H110.191C111.194 618.9 111.962 618.666 112.496 618.197C113.03 617.722 113.297 617.038 113.297 616.146C113.297 615.3 113.03 614.623 112.496 614.115C111.962 613.607 111.23 613.344 110.299 613.324H106.822V618.9ZM123.688 626C123.583 625.792 123.499 625.421 123.434 624.887C122.594 625.759 121.591 626.195 120.426 626.195C119.384 626.195 118.528 625.902 117.857 625.316C117.193 624.724 116.861 623.975 116.861 623.07C116.861 621.97 117.278 621.117 118.111 620.512C118.951 619.9 120.13 619.594 121.646 619.594H123.404V618.764C123.404 618.132 123.215 617.631 122.838 617.26C122.46 616.882 121.904 616.693 121.168 616.693C120.523 616.693 119.983 616.856 119.547 617.182C119.111 617.507 118.893 617.901 118.893 618.363H117.076C117.076 617.836 117.262 617.328 117.633 616.84C118.01 616.345 118.518 615.954 119.156 615.668C119.801 615.382 120.507 615.238 121.275 615.238C122.493 615.238 123.447 615.544 124.137 616.156C124.827 616.762 125.185 617.598 125.211 618.666V623.529C125.211 624.499 125.335 625.271 125.582 625.844V626H123.688ZM120.689 624.623C121.256 624.623 121.793 624.477 122.301 624.184C122.809 623.891 123.176 623.51 123.404 623.041V620.873H121.988C119.775 620.873 118.668 621.521 118.668 622.816C118.668 623.383 118.857 623.826 119.234 624.145C119.612 624.464 120.097 624.623 120.689 624.623ZM133.15 617.055C132.877 617.009 132.581 616.986 132.262 616.986C131.077 616.986 130.273 617.491 129.85 618.5V626H128.043V615.434H129.801L129.83 616.654C130.423 615.71 131.262 615.238 132.35 615.238C132.701 615.238 132.968 615.284 133.15 615.375V617.055ZM137.76 612.875V615.434H139.732V616.83H137.76V623.383C137.76 623.806 137.848 624.125 138.023 624.34C138.199 624.548 138.499 624.652 138.922 624.652C139.13 624.652 139.417 624.613 139.781 624.535V626C139.306 626.13 138.844 626.195 138.395 626.195C137.587 626.195 136.979 625.951 136.568 625.463C136.158 624.975 135.953 624.281 135.953 623.383V616.83H134.029V615.434H135.953V612.875H137.76ZM143.814 626H142.008V615.434H143.814V626ZM141.861 612.631C141.861 612.338 141.949 612.09 142.125 611.889C142.307 611.687 142.574 611.586 142.926 611.586C143.277 611.586 143.544 611.687 143.727 611.889C143.909 612.09 144 612.338 144 612.631C144 612.924 143.909 613.168 143.727 613.363C143.544 613.559 143.277 613.656 142.926 613.656C142.574 613.656 142.307 613.559 142.125 613.363C141.949 613.168 141.861 612.924 141.861 612.631ZM146.275 620.629C146.275 619.008 146.66 617.706 147.428 616.723C148.196 615.733 149.202 615.238 150.445 615.238C151.682 615.238 152.662 615.661 153.385 616.508V611H155.191V626H153.531L153.443 624.867C152.721 625.753 151.715 626.195 150.426 626.195C149.202 626.195 148.202 625.694 147.428 624.691C146.66 623.689 146.275 622.38 146.275 620.766V620.629ZM148.082 620.834C148.082 622.032 148.329 622.969 148.824 623.646C149.319 624.324 150.003 624.662 150.875 624.662C152.021 624.662 152.857 624.148 153.385 623.119V618.266C152.844 617.27 152.014 616.771 150.895 616.771C150.009 616.771 149.319 617.113 148.824 617.797C148.329 618.48 148.082 619.493 148.082 620.834ZM164.527 626C164.423 625.792 164.339 625.421 164.273 624.887C163.434 625.759 162.431 626.195 161.266 626.195C160.224 626.195 159.368 625.902 158.697 625.316C158.033 624.724 157.701 623.975 157.701 623.07C157.701 621.97 158.118 621.117 158.951 620.512C159.791 619.9 160.969 619.594 162.486 619.594H164.244V618.764C164.244 618.132 164.055 617.631 163.678 617.26C163.3 616.882 162.743 616.693 162.008 616.693C161.363 616.693 160.823 616.856 160.387 617.182C159.951 617.507 159.732 617.901 159.732 618.363H157.916C157.916 617.836 158.102 617.328 158.473 616.84C158.85 616.345 159.358 615.954 159.996 615.668C160.641 615.382 161.347 615.238 162.115 615.238C163.333 615.238 164.286 615.544 164.977 616.156C165.667 616.762 166.025 617.598 166.051 618.666V623.529C166.051 624.499 166.174 625.271 166.422 625.844V626H164.527ZM161.529 624.623C162.096 624.623 162.633 624.477 163.141 624.184C163.648 623.891 164.016 623.51 164.244 623.041V620.873H162.828C160.615 620.873 159.508 621.521 159.508 622.816C159.508 623.383 159.697 623.826 160.074 624.145C160.452 624.464 160.937 624.623 161.529 624.623Z" fill="black"/>
<path d="M49.6523 248.605C49.6523 247.855 49.3867 247.277 48.8555 246.871C48.332 246.465 47.3828 246.055 46.0078 245.641C44.6328 245.227 43.5391 244.766 42.7266 244.258C41.1719 243.281 40.3945 242.008 40.3945 240.438C40.3945 239.062 40.9531 237.93 42.0703 237.039C43.1953 236.148 44.6523 235.703 46.4414 235.703C47.6289 235.703 48.6875 235.922 49.6172 236.359C50.5469 236.797 51.2773 237.422 51.8086 238.234C52.3398 239.039 52.6055 239.934 52.6055 240.918H49.6523C49.6523 240.027 49.3711 239.332 48.8086 238.832C48.2539 238.324 47.457 238.07 46.418 238.07C45.4492 238.07 44.6953 238.277 44.1562 238.691C43.625 239.105 43.3594 239.684 43.3594 240.426C43.3594 241.051 43.6484 241.574 44.2266 241.996C44.8047 242.41 45.7578 242.816 47.0859 243.215C48.4141 243.605 49.4805 244.055 50.2852 244.562C51.0898 245.062 51.6797 245.641 52.0547 246.297C52.4297 246.945 52.6172 247.707 52.6172 248.582C52.6172 250.004 52.0703 251.137 50.9766 251.98C49.8906 252.816 48.4141 253.234 46.5469 253.234C45.3125 253.234 44.1758 253.008 43.1367 252.555C42.1055 252.094 41.3008 251.461 40.7227 250.656C40.1523 249.852 39.8672 248.914 39.8672 247.844H42.832C42.832 248.812 43.1523 249.562 43.793 250.094C44.4336 250.625 45.3516 250.891 46.5469 250.891C47.5781 250.891 48.3516 250.684 48.8672 250.27C49.3906 249.848 49.6523 249.293 49.6523 248.605ZM60.5273 253.234C58.7227 253.234 57.2578 252.668 56.1328 251.535C55.0156 250.395 54.457 248.879 54.457 246.988V246.637C54.457 245.371 54.6992 244.242 55.1836 243.25C55.6758 242.25 56.3633 241.473 57.2461 240.918C58.1289 240.363 59.1133 240.086 60.1992 240.086C61.9258 240.086 63.2578 240.637 64.1953 241.738C65.1406 242.84 65.6133 244.398 65.6133 246.414V247.562H57.3281C57.4141 248.609 57.7617 249.438 58.3711 250.047C58.9883 250.656 59.7617 250.961 60.6914 250.961C61.9961 250.961 63.0586 250.434 63.8789 249.379L65.4141 250.844C64.9062 251.602 64.2266 252.191 63.375 252.613C62.5312 253.027 61.582 253.234 60.5273 253.234ZM60.1875 242.371C59.4062 242.371 58.7734 242.645 58.2891 243.191C57.8125 243.738 57.5078 244.5 57.375 245.477H62.8008V245.266C62.7383 244.312 62.4844 243.594 62.0391 243.109C61.5938 242.617 60.9766 242.371 60.1875 242.371ZM74.9414 249.555C74.9414 249.047 74.7305 248.66 74.3086 248.395C73.8945 248.129 73.2031 247.895 72.2344 247.691C71.2656 247.488 70.457 247.23 69.8086 246.918C68.3867 246.23 67.6758 245.234 67.6758 243.93C67.6758 242.836 68.1367 241.922 69.0586 241.188C69.9805 240.453 71.1523 240.086 72.5742 240.086C74.0898 240.086 75.3125 240.461 76.2422 241.211C77.1797 241.961 77.6484 242.934 77.6484 244.129H74.8008C74.8008 243.582 74.5977 243.129 74.1914 242.77C73.7852 242.402 73.2461 242.219 72.5742 242.219C71.9492 242.219 71.4375 242.363 71.0391 242.652C70.6484 242.941 70.4531 243.328 70.4531 243.812C70.4531 244.25 70.6367 244.59 71.0039 244.832C71.3711 245.074 72.1133 245.32 73.2305 245.57C74.3477 245.812 75.2227 246.105 75.8555 246.449C76.4961 246.785 76.9688 247.191 77.2734 247.668C77.5859 248.145 77.7422 248.723 77.7422 249.402C77.7422 250.543 77.2695 251.469 76.3242 252.18C75.3789 252.883 74.1406 253.234 72.6094 253.234C71.5703 253.234 70.6445 253.047 69.832 252.672C69.0195 252.297 68.3867 251.781 67.9336 251.125C67.4805 250.469 67.2539 249.762 67.2539 249.004H70.0195C70.0586 249.676 70.3125 250.195 70.7812 250.562C71.25 250.922 71.8711 251.102 72.6445 251.102C73.3945 251.102 73.9648 250.961 74.3555 250.68C74.7461 250.391 74.9414 250.016 74.9414 249.555ZM83.2617 253H80.4141V240.32H83.2617V253ZM80.2383 237.027C80.2383 236.59 80.375 236.227 80.6484 235.938C80.9297 235.648 81.3281 235.504 81.8438 235.504C82.3594 235.504 82.7578 235.648 83.0391 235.938C83.3203 236.227 83.4609 236.59 83.4609 237.027C83.4609 237.457 83.3203 237.816 83.0391 238.105C82.7578 238.387 82.3594 238.527 81.8438 238.527C81.3281 238.527 80.9297 238.387 80.6484 238.105C80.375 237.816 80.2383 237.457 80.2383 237.027ZM85.8398 246.543C85.8398 245.301 86.0859 244.184 86.5781 243.191C87.0703 242.191 87.7617 241.426 88.6523 240.895C89.543 240.355 90.5664 240.086 91.7227 240.086C93.4336 240.086 94.8203 240.637 95.8828 241.738C96.9531 242.84 97.5312 244.301 97.6172 246.121L97.6289 246.789C97.6289 248.039 97.3867 249.156 96.9023 250.141C96.4258 251.125 95.7383 251.887 94.8398 252.426C93.9492 252.965 92.918 253.234 91.7461 253.234C89.957 253.234 88.5234 252.641 87.4453 251.453C86.375 250.258 85.8398 248.668 85.8398 246.684V246.543ZM88.6875 246.789C88.6875 248.094 88.957 249.117 89.4961 249.859C90.0352 250.594 90.7852 250.961 91.7461 250.961C92.707 250.961 93.4531 250.586 93.9844 249.836C94.5234 249.086 94.793 247.988 94.793 246.543C94.793 245.262 94.5156 244.246 93.9609 243.496C93.4141 242.746 92.668 242.371 91.7227 242.371C90.793 242.371 90.0547 242.742 89.5078 243.484C88.9609 244.219 88.6875 245.32 88.6875 246.789ZM92.5078 235H95.7539L92.5078 238.551H90.2227L92.5078 235ZM102.68 240.32L102.762 241.785C103.699 240.652 104.93 240.086 106.453 240.086C109.094 240.086 110.438 241.598 110.484 244.621V253H107.637V244.785C107.637 243.98 107.461 243.387 107.109 243.004C106.766 242.613 106.199 242.418 105.41 242.418C104.262 242.418 103.406 242.938 102.844 243.977V253H99.9961V240.32H102.68ZM122.777 253H119.824V235.938H122.777V253ZM126.422 253V235.938H131.461C132.969 235.938 134.305 236.273 135.469 236.945C136.641 237.617 137.547 238.57 138.188 239.805C138.828 241.039 139.148 242.453 139.148 244.047V244.902C139.148 246.52 138.824 247.941 138.176 249.168C137.535 250.395 136.617 251.34 135.422 252.004C134.234 252.668 132.871 253 131.332 253H126.422ZM129.387 238.328V250.633H131.32C132.875 250.633 134.066 250.148 134.895 249.18C135.73 248.203 136.156 246.805 136.172 244.984V244.035C136.172 242.184 135.77 240.77 134.965 239.793C134.16 238.816 132.992 238.328 131.461 238.328H129.387ZM143.543 250C144.074 250 144.484 250.152 144.773 250.457C145.062 250.754 145.207 251.129 145.207 251.582C145.207 252.027 145.062 252.398 144.773 252.695C144.484 252.984 144.074 253.129 143.543 253.129C143.035 253.129 142.633 252.984 142.336 252.695C142.039 252.406 141.891 252.035 141.891 251.582C141.891 251.129 142.035 250.754 142.324 250.457C142.613 250.152 143.02 250 143.543 250ZM143.543 240.051C144.074 240.051 144.484 240.203 144.773 240.508C145.062 240.805 145.207 241.18 145.207 241.633C145.207 242.078 145.062 242.449 144.773 242.746C144.484 243.035 144.074 243.18 143.543 243.18C143.035 243.18 142.633 243.035 142.336 242.746C142.039 242.457 141.891 242.086 141.891 241.633C141.891 241.18 142.035 240.805 142.324 240.508C142.613 240.203 143.02 240.051 143.543 240.051ZM161.145 248.195H158.52L157.629 253H155.66L156.551 248.195H153.844V246.344H156.902L157.582 242.676H154.734V240.812H157.934L158.848 235.938H160.805L159.891 240.812H162.527L163.441 235.938H165.398L164.484 240.812H166.922V242.676H164.133L163.453 246.344H166.043V248.195H163.102L162.211 253H160.254L161.145 248.195ZM158.871 246.344H161.496L162.176 242.676H159.551L158.871 246.344ZM178.934 245.77H172.066V253H169.102V235.938H179.941V238.328H172.066V243.402H178.934V245.77ZM181.23 246.566C181.23 244.613 181.684 243.047 182.59 241.867C183.496 240.68 184.711 240.086 186.234 240.086C187.578 240.086 188.664 240.555 189.492 241.492V235H192.34V253H189.762L189.621 251.688C188.77 252.719 187.633 253.234 186.211 253.234C184.727 253.234 183.523 252.637 182.602 251.441C181.688 250.246 181.23 248.621 181.23 246.566ZM184.078 246.812C184.078 248.102 184.324 249.109 184.816 249.836C185.316 250.555 186.023 250.914 186.938 250.914C188.102 250.914 188.953 250.395 189.492 249.355V243.941C188.969 242.926 188.125 242.418 186.961 242.418C186.039 242.418 185.328 242.785 184.828 243.52C184.328 244.246 184.078 245.344 184.078 246.812ZM199.863 244.492L202.277 240.32H205.441L201.562 246.566L205.57 253H202.43L199.898 248.664L197.379 253H194.215L198.223 246.566L194.355 240.32H197.496L199.863 244.492ZM210.492 243.168H212.227C213.102 243.16 213.793 242.934 214.301 242.488C214.816 242.043 215.074 241.398 215.074 240.555C215.074 239.742 214.859 239.113 214.43 238.668C214.008 238.215 213.359 237.988 212.484 237.988C211.719 237.988 211.09 238.211 210.598 238.656C210.105 239.094 209.859 239.668 209.859 240.379H207.012C207.012 239.504 207.242 238.707 207.703 237.988C208.172 237.27 208.82 236.711 209.648 236.312C210.484 235.906 211.418 235.703 212.449 235.703C214.152 235.703 215.488 236.133 216.457 236.992C217.434 237.844 217.922 239.031 217.922 240.555C217.922 241.32 217.676 242.043 217.184 242.723C216.699 243.395 216.07 243.902 215.297 244.246C216.234 244.566 216.945 245.07 217.43 245.758C217.922 246.445 218.168 247.266 218.168 248.219C218.168 249.75 217.641 250.969 216.586 251.875C215.539 252.781 214.16 253.234 212.449 253.234C210.809 253.234 209.465 252.797 208.418 251.922C207.371 251.047 206.848 249.883 206.848 248.43H209.695C209.695 249.18 209.945 249.789 210.445 250.258C210.953 250.727 211.633 250.961 212.484 250.961C213.367 250.961 214.062 250.727 214.57 250.258C215.078 249.789 215.332 249.109 215.332 248.219C215.332 247.32 215.066 246.629 214.535 246.145C214.004 245.66 213.215 245.418 212.168 245.418H210.492V243.168ZM232.312 253H220.84V251.043L226.523 244.844C227.344 243.93 227.926 243.168 228.27 242.559C228.621 241.941 228.797 241.324 228.797 240.707C228.797 239.895 228.566 239.238 228.105 238.738C227.652 238.238 227.039 237.988 226.266 237.988C225.344 237.988 224.629 238.27 224.121 238.832C223.613 239.395 223.359 240.164 223.359 241.141H220.512C220.512 240.102 220.746 239.168 221.215 238.34C221.691 237.504 222.367 236.855 223.242 236.395C224.125 235.934 225.141 235.703 226.289 235.703C227.945 235.703 229.25 236.121 230.203 236.957C231.164 237.785 231.645 238.934 231.645 240.402C231.645 241.254 231.402 242.148 230.918 243.086C230.441 244.016 229.656 245.074 228.562 246.262L224.391 250.727H232.312V253ZM235.242 244.539L236.168 235.938H245.332V238.398H238.535L238.066 242.477C238.855 242.023 239.746 241.797 240.738 241.797C242.363 241.797 243.625 242.316 244.523 243.355C245.43 244.395 245.883 245.793 245.883 247.551C245.883 249.285 245.383 250.668 244.383 251.699C243.383 252.723 242.012 253.234 240.27 253.234C238.707 253.234 237.41 252.793 236.379 251.91C235.355 251.02 234.801 249.848 234.715 248.395H237.469C237.578 249.223 237.875 249.859 238.359 250.305C238.844 250.742 239.477 250.961 240.258 250.961C241.133 250.961 241.812 250.648 242.297 250.023C242.789 249.398 243.035 248.547 243.035 247.469C243.035 246.43 242.766 245.609 242.227 245.008C241.688 244.398 240.945 244.094 240 244.094C239.484 244.094 239.047 244.164 238.688 244.305C238.328 244.438 237.938 244.703 237.516 245.102L235.242 244.539Z" fill="black"/>
<line x1="32.0027" y1="210" x2="931.999" y2="212.413" stroke="#11D0C5" stroke-width="2"/>
<path d="M42.3711 180.523C42.3711 179.859 42.1367 179.352 41.668 179C41.1992 178.641 40.3555 178.266 39.1367 177.875C37.918 177.477 36.9531 177.086 36.2422 176.703C34.3047 175.656 33.3359 174.246 33.3359 172.473C33.3359 171.551 33.5938 170.73 34.1094 170.012C34.6328 169.285 35.3789 168.719 36.3477 168.312C37.3242 167.906 38.418 167.703 39.6289 167.703C40.8477 167.703 41.9336 167.926 42.8867 168.371C43.8398 168.809 44.5781 169.43 45.1016 170.234C45.6328 171.039 45.8984 171.953 45.8984 172.977H42.3828C42.3828 172.195 42.1367 171.59 41.6445 171.16C41.1523 170.723 40.4609 170.504 39.5703 170.504C38.7109 170.504 38.043 170.688 37.5664 171.055C37.0898 171.414 36.8516 171.891 36.8516 172.484C36.8516 173.039 37.1289 173.504 37.6836 173.879C38.2461 174.254 39.0703 174.605 40.1562 174.934C42.1562 175.535 43.6133 176.281 44.5273 177.172C45.4414 178.062 45.8984 179.172 45.8984 180.5C45.8984 181.977 45.3398 183.137 44.2227 183.98C43.1055 184.816 41.6016 185.234 39.7109 185.234C38.3984 185.234 37.2031 184.996 36.125 184.52C35.0469 184.035 34.2227 183.375 33.6523 182.539C33.0898 181.703 32.8086 180.734 32.8086 179.633H36.3359C36.3359 181.516 37.4609 182.457 39.7109 182.457C40.5469 182.457 41.1992 182.289 41.668 181.953C42.1367 181.609 42.3711 181.133 42.3711 180.523ZM55.4141 185C55.2578 184.695 55.1445 184.316 55.0742 183.863C54.2539 184.777 53.1875 185.234 51.875 185.234C50.6328 185.234 49.6016 184.875 48.7812 184.156C47.9688 183.438 47.5625 182.531 47.5625 181.438C47.5625 180.094 48.0586 179.062 49.0508 178.344C50.0508 177.625 51.4922 177.262 53.375 177.254H54.9336V176.527C54.9336 175.941 54.7812 175.473 54.4766 175.121C54.1797 174.77 53.707 174.594 53.0586 174.594C52.4883 174.594 52.0391 174.73 51.7109 175.004C51.3906 175.277 51.2305 175.652 51.2305 176.129H47.8438C47.8438 175.395 48.0703 174.715 48.5234 174.09C48.9766 173.465 49.6172 172.977 50.4453 172.625C51.2734 172.266 52.2031 172.086 53.2344 172.086C54.7969 172.086 56.0352 172.48 56.9492 173.27C57.8711 174.051 58.332 175.152 58.332 176.574V182.07C58.3398 183.273 58.5078 184.184 58.8359 184.801V185H55.4141ZM52.6133 182.645C53.1133 182.645 53.5742 182.535 53.9961 182.316C54.418 182.09 54.7305 181.789 54.9336 181.414V179.234H53.668C51.9727 179.234 51.0703 179.82 50.9609 180.992L50.9492 181.191C50.9492 181.613 51.0977 181.961 51.3945 182.234C51.6914 182.508 52.0977 182.645 52.6133 182.645ZM64.5078 185H61.1094V167H64.5078V185ZM74.6562 185C74.5 184.695 74.3867 184.316 74.3164 183.863C73.4961 184.777 72.4297 185.234 71.1172 185.234C69.875 185.234 68.8438 184.875 68.0234 184.156C67.2109 183.438 66.8047 182.531 66.8047 181.438C66.8047 180.094 67.3008 179.062 68.293 178.344C69.293 177.625 70.7344 177.262 72.6172 177.254H74.1758V176.527C74.1758 175.941 74.0234 175.473 73.7188 175.121C73.4219 174.77 72.9492 174.594 72.3008 174.594C71.7305 174.594 71.2812 174.73 70.9531 175.004C70.6328 175.277 70.4727 175.652 70.4727 176.129H67.0859C67.0859 175.395 67.3125 174.715 67.7656 174.09C68.2188 173.465 68.8594 172.977 69.6875 172.625C70.5156 172.266 71.4453 172.086 72.4766 172.086C74.0391 172.086 75.2773 172.48 76.1914 173.27C77.1133 174.051 77.5742 175.152 77.5742 176.574V182.07C77.582 183.273 77.75 184.184 78.0781 184.801V185H74.6562ZM71.8555 182.645C72.3555 182.645 72.8164 182.535 73.2383 182.316C73.6602 182.09 73.9727 181.789 74.1758 181.414V179.234H72.9102C71.2148 179.234 70.3125 179.82 70.2031 180.992L70.1914 181.191C70.1914 181.613 70.3398 181.961 70.6367 182.234C70.9336 182.508 71.3398 182.645 71.8555 182.645ZM85.625 178.566C85.625 176.59 86.0664 175.016 86.9492 173.844C87.8398 172.672 89.0547 172.086 90.5938 172.086C91.8281 172.086 92.8477 172.547 93.6523 173.469V167H97.0508V185H93.9922L93.8281 183.652C92.9844 184.707 91.8984 185.234 90.5703 185.234C89.0781 185.234 87.8789 184.648 86.9727 183.477C86.0742 182.297 85.625 180.66 85.625 178.566ZM89.0117 178.812C89.0117 180 89.2188 180.91 89.6328 181.543C90.0469 182.176 90.6484 182.492 91.4375 182.492C92.4844 182.492 93.2227 182.051 93.6523 181.168V176.164C93.2305 175.281 92.5 174.84 91.4609 174.84C89.8281 174.84 89.0117 176.164 89.0117 178.812ZM105.512 185.234C103.652 185.234 102.137 184.664 100.965 183.523C99.8008 182.383 99.2188 180.863 99.2188 178.965V178.637C99.2188 177.363 99.4648 176.227 99.957 175.227C100.449 174.219 101.145 173.445 102.043 172.906C102.949 172.359 103.98 172.086 105.137 172.086C106.871 172.086 108.234 172.633 109.227 173.727C110.227 174.82 110.727 176.371 110.727 178.379V179.762H102.652C102.762 180.59 103.09 181.254 103.637 181.754C104.191 182.254 104.891 182.504 105.734 182.504C107.039 182.504 108.059 182.031 108.793 181.086L110.457 182.949C109.949 183.668 109.262 184.23 108.395 184.637C107.527 185.035 106.566 185.234 105.512 185.234ZM105.125 174.828C104.453 174.828 103.906 175.055 103.484 175.508C103.07 175.961 102.805 176.609 102.688 177.453H107.398V177.184C107.383 176.434 107.18 175.855 106.789 175.449C106.398 175.035 105.844 174.828 105.125 174.828ZM129.125 177.605H122.375V182.176H130.297V185H118.859V167.938H130.273V170.785H122.375V174.852H129.125V177.605ZM139.004 181.496C139.004 181.082 138.797 180.758 138.383 180.523C137.977 180.281 137.32 180.066 136.414 179.879C133.398 179.246 131.891 177.965 131.891 176.035C131.891 174.91 132.355 173.973 133.285 173.223C134.223 172.465 135.445 172.086 136.953 172.086C138.562 172.086 139.848 172.465 140.809 173.223C141.777 173.98 142.262 174.965 142.262 176.176H138.875C138.875 175.691 138.719 175.293 138.406 174.98C138.094 174.66 137.605 174.5 136.941 174.5C136.371 174.5 135.93 174.629 135.617 174.887C135.305 175.145 135.148 175.473 135.148 175.871C135.148 176.246 135.324 176.551 135.676 176.785C136.035 177.012 136.637 177.211 137.48 177.383C138.324 177.547 139.035 177.734 139.613 177.945C141.402 178.602 142.297 179.738 142.297 181.355C142.297 182.512 141.801 183.449 140.809 184.168C139.816 184.879 138.535 185.234 136.965 185.234C135.902 185.234 134.957 185.047 134.129 184.672C133.309 184.289 132.664 183.77 132.195 183.113C131.727 182.449 131.492 181.734 131.492 180.969H134.703C134.734 181.57 134.957 182.031 135.371 182.352C135.785 182.672 136.34 182.832 137.035 182.832C137.684 182.832 138.172 182.711 138.5 182.469C138.836 182.219 139.004 181.895 139.004 181.496ZM155.902 178.777C155.902 180.73 155.457 182.297 154.566 183.477C153.684 184.648 152.488 185.234 150.98 185.234C149.699 185.234 148.664 184.789 147.875 183.898V189.875H144.488V172.32H147.629L147.746 173.562C148.566 172.578 149.637 172.086 150.957 172.086C152.52 172.086 153.734 172.664 154.602 173.82C155.469 174.977 155.902 176.57 155.902 178.602V178.777ZM152.516 178.531C152.516 177.352 152.305 176.441 151.883 175.801C151.469 175.16 150.863 174.84 150.066 174.84C149.004 174.84 148.273 175.246 147.875 176.059V181.25C148.289 182.086 149.027 182.504 150.09 182.504C151.707 182.504 152.516 181.18 152.516 178.531ZM163.848 185.234C161.988 185.234 160.473 184.664 159.301 183.523C158.137 182.383 157.555 180.863 157.555 178.965V178.637C157.555 177.363 157.801 176.227 158.293 175.227C158.785 174.219 159.48 173.445 160.379 172.906C161.285 172.359 162.316 172.086 163.473 172.086C165.207 172.086 166.57 172.633 167.562 173.727C168.562 174.82 169.062 176.371 169.062 178.379V179.762H160.988C161.098 180.59 161.426 181.254 161.973 181.754C162.527 182.254 163.227 182.504 164.07 182.504C165.375 182.504 166.395 182.031 167.129 181.086L168.793 182.949C168.285 183.668 167.598 184.23 166.73 184.637C165.863 185.035 164.902 185.234 163.848 185.234ZM163.461 174.828C162.789 174.828 162.242 175.055 161.82 175.508C161.406 175.961 161.141 176.609 161.023 177.453H165.734V177.184C165.719 176.434 165.516 175.855 165.125 175.449C164.734 175.035 164.18 174.828 163.461 174.828ZM178.121 175.496C177.66 175.434 177.254 175.402 176.902 175.402C175.621 175.402 174.781 175.836 174.383 176.703V185H170.996V172.32H174.195L174.289 173.832C174.969 172.668 175.91 172.086 177.113 172.086C177.488 172.086 177.84 172.137 178.168 172.238L178.121 175.496ZM186.758 185C186.602 184.695 186.488 184.316 186.418 183.863C185.598 184.777 184.531 185.234 183.219 185.234C181.977 185.234 180.945 184.875 180.125 184.156C179.312 183.438 178.906 182.531 178.906 181.438C178.906 180.094 179.402 179.062 180.395 178.344C181.395 177.625 182.836 177.262 184.719 177.254H186.277V176.527C186.277 175.941 186.125 175.473 185.82 175.121C185.523 174.77 185.051 174.594 184.402 174.594C183.832 174.594 183.383 174.73 183.055 175.004C182.734 175.277 182.574 175.652 182.574 176.129H179.188C179.188 175.395 179.414 174.715 179.867 174.09C180.32 173.465 180.961 172.977 181.789 172.625C182.617 172.266 183.547 172.086 184.578 172.086C186.141 172.086 187.379 172.48 188.293 173.27C189.215 174.051 189.676 175.152 189.676 176.574V182.07C189.684 183.273 189.852 184.184 190.18 184.801V185H186.758ZM183.957 182.645C184.457 182.645 184.918 182.535 185.34 182.316C185.762 182.09 186.074 181.789 186.277 181.414V179.234H185.012C183.316 179.234 182.414 179.82 182.305 180.992L182.293 181.191C182.293 181.613 182.441 181.961 182.738 182.234C183.035 182.508 183.441 182.645 183.957 182.645Z" fill="black"/>
</g>
<path d="M0 82H968V152H0V82Z" fill="#EBFFFE"/>
<path d="M33.8633 120H30.9102V102.938H33.8633V120ZM39.875 107.32L39.957 108.785C40.8945 107.652 42.125 107.086 43.6484 107.086C46.2891 107.086 47.6328 108.598 47.6797 111.621V120H44.832V111.785C44.832 110.98 44.6562 110.387 44.3047 110.004C43.9609 109.613 43.3945 109.418 42.6055 109.418C41.457 109.418 40.6016 109.938 40.0391 110.977V120H37.1914V107.32H39.875ZM53.6211 120H50.7734V107.32H53.6211V120ZM50.5977 104.027C50.5977 103.59 50.7344 103.227 51.0078 102.938C51.2891 102.648 51.6875 102.504 52.2031 102.504C52.7188 102.504 53.1172 102.648 53.3984 102.938C53.6797 103.227 53.8203 103.59 53.8203 104.027C53.8203 104.457 53.6797 104.816 53.3984 105.105C53.1172 105.387 52.7188 105.527 52.2031 105.527C51.6875 105.527 51.2891 105.387 51.0078 105.105C50.7344 104.816 50.5977 104.457 50.5977 104.027ZM61.9414 117.961C62.6523 117.961 63.2422 117.754 63.7109 117.34C64.1797 116.926 64.4297 116.414 64.4609 115.805H67.1445C67.1133 116.594 66.8672 117.332 66.4062 118.02C65.9453 118.699 65.3203 119.238 64.5312 119.637C63.7422 120.035 62.8906 120.234 61.9766 120.234C60.2031 120.234 58.7969 119.66 57.7578 118.512C56.7188 117.363 56.1992 115.777 56.1992 113.754V113.461C56.1992 111.531 56.7148 109.988 57.7461 108.832C58.7773 107.668 60.1836 107.086 61.9648 107.086C63.4727 107.086 64.6992 107.527 65.6445 108.41C66.5977 109.285 67.0977 110.438 67.1445 111.867H64.4609C64.4297 111.141 64.1797 110.543 63.7109 110.074C63.25 109.605 62.6602 109.371 61.9414 109.371C61.0195 109.371 60.3086 109.707 59.8086 110.379C59.3086 111.043 59.0547 112.055 59.0469 113.414V113.871C59.0469 115.246 59.293 116.273 59.7852 116.953C60.2852 117.625 61.0039 117.961 61.9414 117.961ZM72.3242 120H69.4766V107.32H72.3242V120ZM69.3008 104.027C69.3008 103.59 69.4375 103.227 69.7109 102.938C69.9922 102.648 70.3906 102.504 70.9062 102.504C71.4219 102.504 71.8203 102.648 72.1016 102.938C72.3828 103.227 72.5234 103.59 72.5234 104.027C72.5234 104.457 72.3828 104.816 72.1016 105.105C71.8203 105.387 71.4219 105.527 70.9062 105.527C70.3906 105.527 69.9922 105.387 69.7109 105.105C69.4375 104.816 69.3008 104.457 69.3008 104.027ZM74.9023 113.543C74.9023 112.301 75.1484 111.184 75.6406 110.191C76.1328 109.191 76.8242 108.426 77.7148 107.895C78.6055 107.355 79.6289 107.086 80.7852 107.086C82.4961 107.086 83.8828 107.637 84.9453 108.738C86.0156 109.84 86.5938 111.301 86.6797 113.121L86.6914 113.789C86.6914 115.039 86.4492 116.156 85.9648 117.141C85.4883 118.125 84.8008 118.887 83.9023 119.426C83.0117 119.965 81.9805 120.234 80.8086 120.234C79.0195 120.234 77.5859 119.641 76.5078 118.453C75.4375 117.258 74.9023 115.668 74.9023 113.684V113.543ZM77.75 113.789C77.75 115.094 78.0195 116.117 78.5586 116.859C79.0977 117.594 79.8477 117.961 80.8086 117.961C81.7695 117.961 82.5156 117.586 83.0469 116.836C83.5859 116.086 83.8555 114.988 83.8555 113.543C83.8555 112.262 83.5781 111.246 83.0234 110.496C82.4766 109.746 81.7305 109.371 80.7852 109.371C79.8555 109.371 79.1172 109.742 78.5703 110.484C78.0234 111.219 77.75 112.32 77.75 113.789Z" fill="black"/>
<path d="M151.863 120H148.91V102.938H151.863V120ZM157.875 107.32L157.957 108.785C158.895 107.652 160.125 107.086 161.648 107.086C164.289 107.086 165.633 108.598 165.68 111.621V120H162.832V111.785C162.832 110.98 162.656 110.387 162.305 110.004C161.961 109.613 161.395 109.418 160.605 109.418C159.457 109.418 158.602 109.938 158.039 110.977V120H155.191V107.32H157.875ZM175.699 116.555C175.699 116.047 175.488 115.66 175.066 115.395C174.652 115.129 173.961 114.895 172.992 114.691C172.023 114.488 171.215 114.23 170.566 113.918C169.145 113.23 168.434 112.234 168.434 110.93C168.434 109.836 168.895 108.922 169.816 108.188C170.738 107.453 171.91 107.086 173.332 107.086C174.848 107.086 176.07 107.461 177 108.211C177.938 108.961 178.406 109.934 178.406 111.129H175.559C175.559 110.582 175.355 110.129 174.949 109.77C174.543 109.402 174.004 109.219 173.332 109.219C172.707 109.219 172.195 109.363 171.797 109.652C171.406 109.941 171.211 110.328 171.211 110.812C171.211 111.25 171.395 111.59 171.762 111.832C172.129 112.074 172.871 112.32 173.988 112.57C175.105 112.812 175.98 113.105 176.613 113.449C177.254 113.785 177.727 114.191 178.031 114.668C178.344 115.145 178.5 115.723 178.5 116.402C178.5 117.543 178.027 118.469 177.082 119.18C176.137 119.883 174.898 120.234 173.367 120.234C172.328 120.234 171.402 120.047 170.59 119.672C169.777 119.297 169.145 118.781 168.691 118.125C168.238 117.469 168.012 116.762 168.012 116.004H170.777C170.816 116.676 171.07 117.195 171.539 117.562C172.008 117.922 172.629 118.102 173.402 118.102C174.152 118.102 174.723 117.961 175.113 117.68C175.504 117.391 175.699 117.016 175.699 116.555ZM184.559 104.238V107.32H186.797V109.43H184.559V116.508C184.559 116.992 184.652 117.344 184.84 117.562C185.035 117.773 185.379 117.879 185.871 117.879C186.199 117.879 186.531 117.84 186.867 117.762V119.965C186.219 120.145 185.594 120.234 184.992 120.234C182.805 120.234 181.711 119.027 181.711 116.613V109.43H179.625V107.32H181.711V104.238H184.559ZM195.621 109.922C195.246 109.859 194.859 109.828 194.461 109.828C193.156 109.828 192.277 110.328 191.824 111.328V120H188.977V107.32H191.695L191.766 108.738C192.453 107.637 193.406 107.086 194.625 107.086C195.031 107.086 195.367 107.141 195.633 107.25L195.621 109.922ZM205.102 118.758C204.266 119.742 203.078 120.234 201.539 120.234C200.164 120.234 199.121 119.832 198.41 119.027C197.707 118.223 197.355 117.059 197.355 115.535V107.32H200.203V115.5C200.203 117.109 200.871 117.914 202.207 117.914C203.59 117.914 204.523 117.418 205.008 116.426V107.32H207.855V120H205.172L205.102 118.758ZM215.965 117.961C216.676 117.961 217.266 117.754 217.734 117.34C218.203 116.926 218.453 116.414 218.484 115.805H221.168C221.137 116.594 220.891 117.332 220.43 118.02C219.969 118.699 219.344 119.238 218.555 119.637C217.766 120.035 216.914 120.234 216 120.234C214.227 120.234 212.82 119.66 211.781 118.512C210.742 117.363 210.223 115.777 210.223 113.754V113.461C210.223 111.531 210.738 109.988 211.77 108.832C212.801 107.668 214.207 107.086 215.988 107.086C217.496 107.086 218.723 107.527 219.668 108.41C220.621 109.285 221.121 110.438 221.168 111.867H218.484C218.453 111.141 218.203 110.543 217.734 110.074C217.273 109.605 216.684 109.371 215.965 109.371C215.043 109.371 214.332 109.707 213.832 110.379C213.332 111.043 213.078 112.055 213.07 113.414V113.871C213.07 115.246 213.316 116.273 213.809 116.953C214.309 117.625 215.027 117.961 215.965 117.961ZM228.527 117.961C229.238 117.961 229.828 117.754 230.297 117.34C230.766 116.926 231.016 116.414 231.047 115.805H233.73C233.699 116.594 233.453 117.332 232.992 118.02C232.531 118.699 231.906 119.238 231.117 119.637C230.328 120.035 229.477 120.234 228.562 120.234C226.789 120.234 225.383 119.66 224.344 118.512C223.305 117.363 222.785 115.777 222.785 113.754V113.461C222.785 111.531 223.301 109.988 224.332 108.832C225.363 107.668 226.77 107.086 228.551 107.086C230.059 107.086 231.285 107.527 232.23 108.41C233.184 109.285 233.684 110.438 233.73 111.867H231.047C231.016 111.141 230.766 110.543 230.297 110.074C229.836 109.605 229.246 109.371 228.527 109.371C227.605 109.371 226.895 109.707 226.395 110.379C225.895 111.043 225.641 112.055 225.633 113.414V113.871C225.633 115.246 225.879 116.273 226.371 116.953C226.871 117.625 227.59 117.961 228.527 117.961ZM238.91 120H236.062V107.32H238.91V120ZM235.887 104.027C235.887 103.59 236.023 103.227 236.297 102.938C236.578 102.648 236.977 102.504 237.492 102.504C238.008 102.504 238.406 102.648 238.688 102.938C238.969 103.227 239.109 103.59 239.109 104.027C239.109 104.457 238.969 104.816 238.688 105.105C238.406 105.387 238.008 105.527 237.492 105.527C236.977 105.527 236.578 105.387 236.297 105.105C236.023 104.816 235.887 104.457 235.887 104.027ZM241.488 113.543C241.488 112.301 241.734 111.184 242.227 110.191C242.719 109.191 243.41 108.426 244.301 107.895C245.191 107.355 246.215 107.086 247.371 107.086C249.082 107.086 250.469 107.637 251.531 108.738C252.602 109.84 253.18 111.301 253.266 113.121L253.277 113.789C253.277 115.039 253.035 116.156 252.551 117.141C252.074 118.125 251.387 118.887 250.488 119.426C249.598 119.965 248.566 120.234 247.395 120.234C245.605 120.234 244.172 119.641 243.094 118.453C242.023 117.258 241.488 115.668 241.488 113.684V113.543ZM244.336 113.789C244.336 115.094 244.605 116.117 245.145 116.859C245.684 117.594 246.434 117.961 247.395 117.961C248.355 117.961 249.102 117.586 249.633 116.836C250.172 116.086 250.441 114.988 250.441 113.543C250.441 112.262 250.164 111.246 249.609 110.496C249.062 109.746 248.316 109.371 247.371 109.371C246.441 109.371 245.703 109.742 245.156 110.484C244.609 111.219 244.336 112.32 244.336 113.789ZM258.328 107.32L258.41 108.785C259.348 107.652 260.578 107.086 262.102 107.086C264.742 107.086 266.086 108.598 266.133 111.621V120H263.285V111.785C263.285 110.98 263.109 110.387 262.758 110.004C262.414 109.613 261.848 109.418 261.059 109.418C259.91 109.418 259.055 109.938 258.492 110.977V120H255.645V107.32H258.328ZM274.629 120.234C272.824 120.234 271.359 119.668 270.234 118.535C269.117 117.395 268.559 115.879 268.559 113.988V113.637C268.559 112.371 268.801 111.242 269.285 110.25C269.777 109.25 270.465 108.473 271.348 107.918C272.23 107.363 273.215 107.086 274.301 107.086C276.027 107.086 277.359 107.637 278.297 108.738C279.242 109.84 279.715 111.398 279.715 113.414V114.562H271.43C271.516 115.609 271.863 116.438 272.473 117.047C273.09 117.656 273.863 117.961 274.793 117.961C276.098 117.961 277.16 117.434 277.98 116.379L279.516 117.844C279.008 118.602 278.328 119.191 277.477 119.613C276.633 120.027 275.684 120.234 274.629 120.234ZM274.289 109.371C273.508 109.371 272.875 109.645 272.391 110.191C271.914 110.738 271.609 111.5 271.477 112.477H276.902V112.266C276.84 111.312 276.586 110.594 276.141 110.109C275.695 109.617 275.078 109.371 274.289 109.371ZM289.043 116.555C289.043 116.047 288.832 115.66 288.41 115.395C287.996 115.129 287.305 114.895 286.336 114.691C285.367 114.488 284.559 114.23 283.91 113.918C282.488 113.23 281.777 112.234 281.777 110.93C281.777 109.836 282.238 108.922 283.16 108.188C284.082 107.453 285.254 107.086 286.676 107.086C288.191 107.086 289.414 107.461 290.344 108.211C291.281 108.961 291.75 109.934 291.75 111.129H288.902C288.902 110.582 288.699 110.129 288.293 109.77C287.887 109.402 287.348 109.219 286.676 109.219C286.051 109.219 285.539 109.363 285.141 109.652C284.75 109.941 284.555 110.328 284.555 110.812C284.555 111.25 284.738 111.59 285.105 111.832C285.473 112.074 286.215 112.32 287.332 112.57C288.449 112.812 289.324 113.105 289.957 113.449C290.598 113.785 291.07 114.191 291.375 114.668C291.688 115.145 291.844 115.723 291.844 116.402C291.844 117.543 291.371 118.469 290.426 119.18C289.48 119.883 288.242 120.234 286.711 120.234C285.672 120.234 284.746 120.047 283.934 119.672C283.121 119.297 282.488 118.781 282.035 118.125C281.582 117.469 281.355 116.762 281.355 116.004H284.121C284.16 116.676 284.414 117.195 284.883 117.562C285.352 117.922 285.973 118.102 286.746 118.102C287.496 118.102 288.066 117.961 288.457 117.68C288.848 117.391 289.043 117.016 289.043 116.555Z" fill="black"/>
<path d="M0 82V81H-1V82H0ZM968 82H969V81H968V82ZM968 152V153H969V152H968ZM0 152H-1V153H0V152ZM0 83H968V81H0V83ZM967 82V152H969V82H967ZM968 151H0V153H968V151ZM1 152V82H-1V152H1Z" fill="white"/>
<path d="M0 0H968V83H0V0Z" fill="#11D0C5"/>
<path d="M0 0V-1H-1V0H0ZM968 0H969V-1H968V0ZM968 83V84H969V83H968ZM0 83H-1V84H0V83ZM0 1H968V-1H0V1ZM967 0V83H969V0H967ZM968 82H0V84H968V82ZM1 83V0H-1V83H1Z" fill="white"/>
<path d="M44.5703 437.168H46.3047C47.1797 437.16 47.8711 436.934 48.3789 436.488C48.8945 436.043 49.1523 435.398 49.1523 434.555C49.1523 433.742 48.9375 433.113 48.5078 432.668C48.0859 432.215 47.4375 431.988 46.5625 431.988C45.7969 431.988 45.168 432.211 44.6758 432.656C44.1836 433.094 43.9375 433.668 43.9375 434.379H41.0898C41.0898 433.504 41.3203 432.707 41.7812 431.988C42.25 431.27 42.8984 430.711 43.7266 430.312C44.5625 429.906 45.4961 429.703 46.5273 429.703C48.2305 429.703 49.5664 430.133 50.5352 430.992C51.5117 431.844 52 433.031 52 434.555C52 435.32 51.7539 436.043 51.2617 436.723C50.7773 437.395 50.1484 437.902 49.375 438.246C50.3125 438.566 51.0234 439.07 51.5078 439.758C52 440.445 52.2461 441.266 52.2461 442.219C52.2461 443.75 51.7188 444.969 50.6641 445.875C49.6172 446.781 48.2383 447.234 46.5273 447.234C44.8867 447.234 43.543 446.797 42.4961 445.922C41.4492 445.047 40.9258 443.883 40.9258 442.43H43.7734C43.7734 443.18 44.0234 443.789 44.5234 444.258C45.0312 444.727 45.7109 444.961 46.5625 444.961C47.4453 444.961 48.1406 444.727 48.6484 444.258C49.1562 443.789 49.4102 443.109 49.4102 442.219C49.4102 441.32 49.1445 440.629 48.6133 440.145C48.082 439.66 47.293 439.418 46.2461 439.418H44.5703V437.168ZM56.875 444C57.4062 444 57.8164 444.152 58.1055 444.457C58.3945 444.754 58.5391 445.129 58.5391 445.582C58.5391 446.027 58.3945 446.398 58.1055 446.695C57.8164 446.984 57.4062 447.129 56.875 447.129C56.3672 447.129 55.9648 446.984 55.668 446.695C55.3711 446.406 55.2227 446.035 55.2227 445.582C55.2227 445.129 55.3672 444.754 55.6562 444.457C55.9453 444.152 56.3516 444 56.875 444ZM75.0391 429.938H77.9922V441.902C77.9922 443.535 77.4805 444.832 76.457 445.793C75.4414 446.754 74.0977 447.234 72.4258 447.234C70.6445 447.234 69.2695 446.785 68.3008 445.887C67.332 444.988 66.8477 443.738 66.8477 442.137H69.8008C69.8008 443.043 70.0234 443.727 70.4688 444.188C70.9219 444.641 71.5742 444.867 72.4258 444.867C73.2227 444.867 73.8555 444.605 74.3242 444.082C74.8008 443.551 75.0391 442.82 75.0391 441.891V429.938ZM88.7969 445.758C87.9609 446.742 86.7734 447.234 85.2344 447.234C83.8594 447.234 82.8164 446.832 82.1055 446.027C81.4023 445.223 81.0508 444.059 81.0508 442.535V434.32H83.8984V442.5C83.8984 444.109 84.5664 444.914 85.9023 444.914C87.2852 444.914 88.2188 444.418 88.7031 443.426V434.32H91.5508V447H88.8672L88.7969 445.758ZM102.027 447C101.902 446.758 101.793 446.363 101.699 445.816C100.793 446.762 99.6836 447.234 98.3711 447.234C97.0977 447.234 96.0586 446.871 95.2539 446.145C94.4492 445.418 94.0469 444.52 94.0469 443.449C94.0469 442.098 94.5469 441.062 95.5469 440.344C96.5547 439.617 97.9922 439.254 99.8594 439.254H101.605V438.422C101.605 437.766 101.422 437.242 101.055 436.852C100.688 436.453 100.129 436.254 99.3789 436.254C98.7305 436.254 98.1992 436.418 97.7852 436.746C97.3711 437.066 97.1641 437.477 97.1641 437.977H94.3164C94.3164 437.281 94.5469 436.633 95.0078 436.031C95.4688 435.422 96.0938 434.945 96.8828 434.602C97.6797 434.258 98.5664 434.086 99.543 434.086C101.027 434.086 102.211 434.461 103.094 435.211C103.977 435.953 104.43 437 104.453 438.352V444.07C104.453 445.211 104.613 446.121 104.934 446.801V447H102.027ZM98.8984 444.949C99.4609 444.949 99.9883 444.812 100.48 444.539C100.98 444.266 101.355 443.898 101.605 443.438V441.047H100.07C99.0156 441.047 98.2227 441.23 97.6914 441.598C97.1602 441.965 96.8945 442.484 96.8945 443.156C96.8945 443.703 97.0742 444.141 97.4336 444.469C97.8008 444.789 98.2891 444.949 98.8984 444.949ZM110.078 434.32L110.16 435.785C111.098 434.652 112.328 434.086 113.852 434.086C116.492 434.086 117.836 435.598 117.883 438.621V447H115.035V438.785C115.035 437.98 114.859 437.387 114.508 437.004C114.164 436.613 113.598 436.418 112.809 436.418C111.66 436.418 110.805 436.938 110.242 437.977V447H107.395V434.32H110.078ZM130.012 440.66V447H127.047V429.938H133.574C135.48 429.938 136.992 430.434 138.109 431.426C139.234 432.418 139.797 433.73 139.797 435.363C139.797 437.035 139.246 438.336 138.145 439.266C137.051 440.195 135.516 440.66 133.539 440.66H130.012ZM130.012 438.281H133.574C134.629 438.281 135.434 438.035 135.988 437.543C136.543 437.043 136.82 436.324 136.82 435.387C136.82 434.465 136.539 433.73 135.977 433.184C135.414 432.629 134.641 432.344 133.656 432.328H130.012V438.281ZM147.543 447.234C145.738 447.234 144.273 446.668 143.148 445.535C142.031 444.395 141.473 442.879 141.473 440.988V440.637C141.473 439.371 141.715 438.242 142.199 437.25C142.691 436.25 143.379 435.473 144.262 434.918C145.145 434.363 146.129 434.086 147.215 434.086C148.941 434.086 150.273 434.637 151.211 435.738C152.156 436.84 152.629 438.398 152.629 440.414V441.562H144.344C144.43 442.609 144.777 443.438 145.387 444.047C146.004 444.656 146.777 444.961 147.707 444.961C149.012 444.961 150.074 444.434 150.895 443.379L152.43 444.844C151.922 445.602 151.242 446.191 150.391 446.613C149.547 447.027 148.598 447.234 147.543 447.234ZM147.203 436.371C146.422 436.371 145.789 436.645 145.305 437.191C144.828 437.738 144.523 438.5 144.391 439.477H149.816V439.266C149.754 438.312 149.5 437.594 149.055 437.109C148.609 436.617 147.992 436.371 147.203 436.371ZM161.488 436.922C161.113 436.859 160.727 436.828 160.328 436.828C159.023 436.828 158.145 437.328 157.691 438.328V447H154.844V434.32H157.562L157.633 435.738C158.32 434.637 159.273 434.086 160.492 434.086C160.898 434.086 161.234 434.141 161.5 434.25L161.488 436.922ZM168.637 447.234C166.832 447.234 165.367 446.668 164.242 445.535C163.125 444.395 162.566 442.879 162.566 440.988V440.637C162.566 439.371 162.809 438.242 163.293 437.25C163.785 436.25 164.473 435.473 165.355 434.918C166.238 434.363 167.223 434.086 168.309 434.086C170.035 434.086 171.367 434.637 172.305 435.738C173.25 436.84 173.723 438.398 173.723 440.414V441.562H165.438C165.523 442.609 165.871 443.438 166.48 444.047C167.098 444.656 167.871 444.961 168.801 444.961C170.105 444.961 171.168 444.434 171.988 443.379L173.523 444.844C173.016 445.602 172.336 446.191 171.484 446.613C170.641 447.027 169.691 447.234 168.637 447.234ZM168.297 436.371C167.516 436.371 166.883 436.645 166.398 437.191C165.922 437.738 165.617 438.5 165.484 439.477H170.91V439.266C170.848 438.312 170.594 437.594 170.148 437.109C169.703 436.617 169.086 436.371 168.297 436.371ZM178.984 444.727H185.734V447H175.445V445.137L181.879 436.617H175.562V434.32H185.488V436.125L178.984 444.727Z" fill="black"/>
<path d="M50.9102 482.918H53.0312V485.203H50.9102V489H48.0625V485.203H40.6914L40.6094 483.469L47.9688 471.938H50.9102V482.918ZM43.5977 482.918H48.0625V475.793L47.8516 476.168L43.5977 482.918ZM56.875 486C57.4062 486 57.8164 486.152 58.1055 486.457C58.3945 486.754 58.5391 487.129 58.5391 487.582C58.5391 488.027 58.3945 488.398 58.1055 488.695C57.8164 488.984 57.4062 489.129 56.875 489.129C56.3672 489.129 55.9648 488.984 55.668 488.695C55.3711 488.406 55.2227 488.035 55.2227 487.582C55.2227 487.129 55.3672 486.754 55.6562 486.457C55.9453 486.152 56.3516 486 56.875 486ZM74.3242 482.426H71.0195V489H68.0547V471.938H74.0547C76.0234 471.938 77.543 472.379 78.6133 473.262C79.6836 474.145 80.2188 475.422 80.2188 477.094C80.2188 478.234 79.9414 479.191 79.3867 479.965C78.8398 480.73 78.0742 481.32 77.0898 481.734L80.9219 488.848V489H77.7461L74.3242 482.426ZM71.0195 480.047H74.0664C75.0664 480.047 75.8477 479.797 76.4102 479.297C76.9727 478.789 77.2539 478.098 77.2539 477.223C77.2539 476.309 76.9922 475.602 76.4688 475.102C75.9531 474.602 75.1797 474.344 74.1484 474.328H71.0195V480.047ZM82.2227 482.543C82.2227 481.301 82.4688 480.184 82.9609 479.191C83.4531 478.191 84.1445 477.426 85.0352 476.895C85.9258 476.355 86.9492 476.086 88.1055 476.086C89.8164 476.086 91.2031 476.637 92.2656 477.738C93.3359 478.84 93.9141 480.301 94 482.121L94.0117 482.789C94.0117 484.039 93.7695 485.156 93.2852 486.141C92.8086 487.125 92.1211 487.887 91.2227 488.426C90.332 488.965 89.3008 489.234 88.1289 489.234C86.3398 489.234 84.9062 488.641 83.8281 487.453C82.7578 486.258 82.2227 484.668 82.2227 482.684V482.543ZM85.0703 482.789C85.0703 484.094 85.3398 485.117 85.8789 485.859C86.418 486.594 87.168 486.961 88.1289 486.961C89.0898 486.961 89.8359 486.586 90.3672 485.836C90.9062 485.086 91.1758 483.988 91.1758 482.543C91.1758 481.262 90.8984 480.246 90.3438 479.496C89.7969 478.746 89.0508 478.371 88.1055 478.371C87.1758 478.371 86.4375 478.742 85.8906 479.484C85.3438 480.219 85.0703 481.32 85.0703 482.789ZM107.547 482.789C107.547 484.758 107.105 486.324 106.223 487.488C105.348 488.652 104.141 489.234 102.602 489.234C101.117 489.234 99.9609 488.699 99.1328 487.629L98.9922 489H96.4141V471H99.2617V477.539C100.082 476.57 101.188 476.086 102.578 476.086C104.125 476.086 105.34 476.66 106.223 477.809C107.105 478.957 107.547 480.562 107.547 482.625V482.789ZM104.699 482.543C104.699 481.168 104.457 480.137 103.973 479.449C103.488 478.762 102.785 478.418 101.863 478.418C100.629 478.418 99.7617 478.957 99.2617 480.035V485.262C99.7695 486.363 100.645 486.914 101.887 486.914C102.777 486.914 103.465 486.582 103.949 485.918C104.434 485.254 104.684 484.25 104.699 482.906V482.543ZM115.527 489.234C113.723 489.234 112.258 488.668 111.133 487.535C110.016 486.395 109.457 484.879 109.457 482.988V482.637C109.457 481.371 109.699 480.242 110.184 479.25C110.676 478.25 111.363 477.473 112.246 476.918C113.129 476.363 114.113 476.086 115.199 476.086C116.926 476.086 118.258 476.637 119.195 477.738C120.141 478.84 120.613 480.398 120.613 482.414V483.562H112.328C112.414 484.609 112.762 485.438 113.371 486.047C113.988 486.656 114.762 486.961 115.691 486.961C116.996 486.961 118.059 486.434 118.879 485.379L120.414 486.844C119.906 487.602 119.227 488.191 118.375 488.613C117.531 489.027 116.582 489.234 115.527 489.234ZM115.188 478.371C114.406 478.371 113.773 478.645 113.289 479.191C112.812 479.738 112.508 480.5 112.375 481.477H117.801V481.266C117.738 480.312 117.484 479.594 117.039 479.109C116.594 478.617 115.977 478.371 115.188 478.371ZM129.473 478.922C129.098 478.859 128.711 478.828 128.312 478.828C127.008 478.828 126.129 479.328 125.676 480.328V489H122.828V476.32H125.547L125.617 477.738C126.305 476.637 127.258 476.086 128.477 476.086C128.883 476.086 129.219 476.141 129.484 476.25L129.473 478.922ZM135.426 473.238V476.32H137.664V478.43H135.426V485.508C135.426 485.992 135.52 486.344 135.707 486.562C135.902 486.773 136.246 486.879 136.738 486.879C137.066 486.879 137.398 486.84 137.734 486.762V488.965C137.086 489.145 136.461 489.234 135.859 489.234C133.672 489.234 132.578 488.027 132.578 485.613V478.43H130.492V476.32H132.578V473.238H135.426ZM138.965 482.543C138.965 481.301 139.211 480.184 139.703 479.191C140.195 478.191 140.887 477.426 141.777 476.895C142.668 476.355 143.691 476.086 144.848 476.086C146.559 476.086 147.945 476.637 149.008 477.738C150.078 478.84 150.656 480.301 150.742 482.121L150.754 482.789C150.754 484.039 150.512 485.156 150.027 486.141C149.551 487.125 148.863 487.887 147.965 488.426C147.074 488.965 146.043 489.234 144.871 489.234C143.082 489.234 141.648 488.641 140.57 487.453C139.5 486.258 138.965 484.668 138.965 482.684V482.543ZM141.812 482.789C141.812 484.094 142.082 485.117 142.621 485.859C143.16 486.594 143.91 486.961 144.871 486.961C145.832 486.961 146.578 486.586 147.109 485.836C147.648 485.086 147.918 483.988 147.918 482.543C147.918 481.262 147.641 480.246 147.086 479.496C146.539 478.746 145.793 478.371 144.848 478.371C143.918 478.371 143.18 478.742 142.633 479.484C142.086 480.219 141.812 481.32 141.812 482.789ZM159.414 489V471.938H164.453C165.961 471.938 167.297 472.273 168.461 472.945C169.633 473.617 170.539 474.57 171.18 475.805C171.82 477.039 172.141 478.453 172.141 480.047V480.902C172.141 482.52 171.816 483.941 171.168 485.168C170.527 486.395 169.609 487.34 168.414 488.004C167.227 488.668 165.863 489 164.324 489H159.414ZM162.379 474.328V486.633H164.312C165.867 486.633 167.059 486.148 167.887 485.18C168.723 484.203 169.148 482.805 169.164 480.984V480.035C169.164 478.184 168.762 476.77 167.957 475.793C167.152 474.816 165.984 474.328 164.453 474.328H162.379ZM177.848 489H175V476.32H177.848V489ZM174.824 473.027C174.824 472.59 174.961 472.227 175.234 471.938C175.516 471.648 175.914 471.504 176.43 471.504C176.945 471.504 177.344 471.648 177.625 471.938C177.906 472.227 178.047 472.59 178.047 473.027C178.047 473.457 177.906 473.816 177.625 474.105C177.344 474.387 176.945 474.527 176.43 474.527C175.914 474.527 175.516 474.387 175.234 474.105C174.961 473.816 174.824 473.457 174.824 473.027ZM188.535 489C188.41 488.758 188.301 488.363 188.207 487.816C187.301 488.762 186.191 489.234 184.879 489.234C183.605 489.234 182.566 488.871 181.762 488.145C180.957 487.418 180.555 486.52 180.555 485.449C180.555 484.098 181.055 483.062 182.055 482.344C183.062 481.617 184.5 481.254 186.367 481.254H188.113V480.422C188.113 479.766 187.93 479.242 187.562 478.852C187.195 478.453 186.637 478.254 185.887 478.254C185.238 478.254 184.707 478.418 184.293 478.746C183.879 479.066 183.672 479.477 183.672 479.977H180.824C180.824 479.281 181.055 478.633 181.516 478.031C181.977 477.422 182.602 476.945 183.391 476.602C184.188 476.258 185.074 476.086 186.051 476.086C187.535 476.086 188.719 476.461 189.602 477.211C190.484 477.953 190.938 479 190.961 480.352V486.07C190.961 487.211 191.121 488.121 191.441 488.801V489H188.535ZM185.406 486.949C185.969 486.949 186.496 486.812 186.988 486.539C187.488 486.266 187.863 485.898 188.113 485.438V483.047H186.578C185.523 483.047 184.73 483.23 184.199 483.598C183.668 483.965 183.402 484.484 183.402 485.156C183.402 485.703 183.582 486.141 183.941 486.469C184.309 486.789 184.797 486.949 185.406 486.949ZM196.984 486.727H203.734V489H193.445V487.137L199.879 478.617H193.562V476.32H203.488V478.125L196.984 486.727Z" fill="black"/>
<path d="M233.605 478.102L237.191 471.938H240.613L235.457 480.398L240.73 489H237.273L233.605 482.742L229.926 489H226.48L231.766 480.398L226.598 471.938H230.02L233.605 478.102Z" fill="#FB0000"/>
<path d="M207.605 436.102L211.191 429.938H214.613L209.457 438.398L214.73 447H211.273L207.605 440.742L203.926 447H200.48L205.766 438.398L200.598 429.938H204.02L207.605 436.102Z" fill="#FB0000"/>
<rect x="1" y="1" width="966" height="726" stroke="#171212" stroke-width="2"/>
<defs>
<clipPath id="clip0">
<path d="M0 678H485V728H0V678Z" fill="white"/>
</clipPath>
<clipPath id="clip1">
<rect y="136" width="968" height="526" fill="white"/>
</clipPath>
<clipPath id="clip2">
<rect y="163" width="421" height="245" fill="white"/>
</clipPath>
</defs>
</svg>
