<svg width="968" height="728" viewBox="0 0 968 728" fill="none" xmlns="http://www.w3.org/2000/svg">
<rect width="968" height="728" fill="white"/>
<path d="M0 656H485V728H0V656Z" fill="white"/>
<path d="M22.4062 709.053C22.4062 708.74 22.4974 708.48 22.6797 708.271C22.8685 708.063 23.1484 707.959 23.5195 707.959C23.8906 707.959 24.1706 708.063 24.3594 708.271C24.5547 708.48 24.6523 708.74 24.6523 709.053C24.6523 709.352 24.5547 709.603 24.3594 709.805C24.1706 710.007 23.8906 710.107 23.5195 710.107C23.1484 710.107 22.8685 710.007 22.6797 709.805C22.4974 709.603 22.4062 709.352 22.4062 709.053Z" fill="black"/>
<rect y="152" width="485" height="504" fill="white"/>
<rect x="185.5" y="217.5" width="271" height="34" fill="white" stroke="black"/>
<path d="M34.5781 239H32.6934L25.5352 228.043V239H23.6504V224.781H25.5352L32.7129 235.787V224.781H34.5781V239ZM37.1465 233.619C37.1465 232.584 37.3483 231.653 37.752 230.826C38.1621 229.999 38.7285 229.361 39.4512 228.912C40.1803 228.463 41.0104 228.238 41.9414 228.238C43.3802 228.238 44.5423 228.736 45.4277 229.732C46.3197 230.729 46.7656 232.053 46.7656 233.707V233.834C46.7656 234.863 46.5671 235.787 46.1699 236.607C45.7793 237.421 45.2161 238.056 44.4805 238.512C43.7513 238.967 42.9115 239.195 41.9609 239.195C40.5286 239.195 39.3665 238.697 38.4746 237.701C37.5892 236.705 37.1465 235.387 37.1465 233.746V233.619ZM38.9629 233.834C38.9629 235.006 39.2331 235.947 39.7734 236.656C40.3203 237.366 41.0495 237.721 41.9609 237.721C42.8789 237.721 43.6081 237.363 44.1484 236.646C44.6888 235.924 44.959 234.915 44.959 233.619C44.959 232.46 44.6823 231.523 44.1289 230.807C43.582 230.084 42.8529 229.723 41.9414 229.723C41.0495 229.723 40.3301 230.077 39.7832 230.787C39.2363 231.497 38.9629 232.512 38.9629 233.834ZM50.7305 228.434L50.7793 229.605C51.554 228.694 52.599 228.238 53.9141 228.238C55.3919 228.238 56.3978 228.805 56.9316 229.938C57.2832 229.43 57.7389 229.02 58.2988 228.707C58.8652 228.395 59.5326 228.238 60.3008 228.238C62.6185 228.238 63.7969 229.465 63.8359 231.92V239H62.0293V232.027C62.0293 231.272 61.8568 230.709 61.5117 230.338C61.1667 229.96 60.5872 229.771 59.7734 229.771C59.1029 229.771 58.5462 229.973 58.1035 230.377C57.6608 230.774 57.4036 231.311 57.332 231.988V239H55.5156V232.076C55.5156 230.54 54.7637 229.771 53.2598 229.771C52.0749 229.771 51.2643 230.276 50.8281 231.285V239H49.0215V228.434H50.7305ZM75.5156 233.834C75.5156 235.449 75.1445 236.747 74.4023 237.73C73.6602 238.707 72.6641 239.195 71.4141 239.195C70.0794 239.195 69.0475 238.723 68.3184 237.779L68.2305 239H66.5703V224H68.377V229.596C69.1061 228.691 70.112 228.238 71.3945 228.238C72.6771 228.238 73.6829 228.723 74.4121 229.693C75.1478 230.663 75.5156 231.992 75.5156 233.678V233.834ZM73.709 233.629C73.709 232.398 73.4714 231.448 72.9961 230.777C72.5208 230.107 71.8372 229.771 70.9453 229.771C69.7539 229.771 68.8978 230.325 68.377 231.432V236.002C68.9303 237.109 69.793 237.662 70.9648 237.662C71.8307 237.662 72.5046 237.327 72.9863 236.656C73.4681 235.986 73.709 234.977 73.709 233.629ZM82.9082 230.055C82.6348 230.009 82.3385 229.986 82.0195 229.986C80.8346 229.986 80.0306 230.491 79.6074 231.5V239H77.8008V228.434H79.5586L79.5879 229.654C80.1803 228.71 81.0202 228.238 82.1074 228.238C82.459 228.238 82.7259 228.284 82.9082 228.375V230.055ZM88.7676 239.195C87.3353 239.195 86.1699 238.727 85.2715 237.789C84.373 236.845 83.9238 235.585 83.9238 234.01V233.678C83.9238 232.63 84.1224 231.695 84.5195 230.875C84.9232 230.048 85.4831 229.404 86.1992 228.941C86.9219 228.473 87.7031 228.238 88.543 228.238C89.9167 228.238 90.9844 228.691 91.7461 229.596C92.5078 230.501 92.8887 231.796 92.8887 233.482V234.234H85.7305C85.7565 235.276 86.0592 236.119 86.6387 236.764C87.2246 237.402 87.9668 237.721 88.8652 237.721C89.5033 237.721 90.0436 237.59 90.4863 237.33C90.929 237.07 91.3164 236.725 91.6484 236.295L92.752 237.154C91.8665 238.515 90.5384 239.195 88.7676 239.195ZM88.543 229.723C87.8138 229.723 87.2018 229.99 86.707 230.523C86.2122 231.051 85.9062 231.793 85.7891 232.75H91.082V232.613C91.0299 231.695 90.7826 230.986 90.3398 230.484C89.8971 229.977 89.2982 229.723 88.543 229.723ZM94.9297 238.053C94.9297 237.74 95.0208 237.48 95.2031 237.271C95.3919 237.063 95.6719 236.959 96.043 236.959C96.4141 236.959 96.694 237.063 96.8828 237.271C97.0781 237.48 97.1758 237.74 97.1758 238.053C97.1758 238.352 97.0781 238.603 96.8828 238.805C96.694 239.007 96.4141 239.107 96.043 239.107C95.6719 239.107 95.3919 239.007 95.2031 238.805C95.0208 238.603 94.9297 238.352 94.9297 238.053ZM94.9395 229.43C94.9395 229.117 95.0306 228.857 95.2129 228.648C95.4017 228.44 95.6816 228.336 96.0527 228.336C96.4238 228.336 96.7038 228.44 96.8926 228.648C97.0879 228.857 97.1855 229.117 97.1855 229.43C97.1855 229.729 97.0879 229.98 96.8926 230.182C96.7038 230.383 96.4238 230.484 96.0527 230.484C95.6816 230.484 95.4017 230.383 95.2129 230.182C95.0306 229.98 94.9395 229.729 94.9395 229.43Z" fill="black"/>
<rect x="22.5" y="321.5" width="160" height="50" rx="13.5" fill="#10B6AC" stroke="black"/>
<rect x="243.5" y="321.5" width="160" height="50" rx="13.5" fill="white" stroke="black"/>
<path d="M72.502 350.289H66.5449L65.207 354H63.2734L68.7031 339.781H70.3438L75.7832 354H73.8594L72.502 350.289ZM67.1113 348.746H71.9453L69.5234 342.096L67.1113 348.746ZM81.6523 352.721C82.2969 352.721 82.86 352.525 83.3418 352.135C83.8236 351.744 84.0905 351.256 84.1426 350.67H85.8516C85.819 351.275 85.6107 351.852 85.2266 352.398C84.8424 352.945 84.3281 353.382 83.6836 353.707C83.0456 354.033 82.3685 354.195 81.6523 354.195C80.2135 354.195 79.0677 353.717 78.2148 352.76C77.3685 351.796 76.9453 350.481 76.9453 348.814V348.512C76.9453 347.483 77.1341 346.568 77.5117 345.768C77.8893 344.967 78.4297 344.345 79.1328 343.902C79.8424 343.46 80.679 343.238 81.6426 343.238C82.8275 343.238 83.8105 343.593 84.5918 344.303C85.3796 345.012 85.7995 345.934 85.8516 347.066H84.1426C84.0905 346.383 83.8301 345.823 83.3613 345.387C82.8991 344.944 82.3262 344.723 81.6426 344.723C80.7246 344.723 80.0117 345.055 79.5039 345.719C79.0026 346.376 78.752 347.33 78.752 348.58V348.922C78.752 350.139 79.0026 351.077 79.5039 351.734C80.0052 352.392 80.7214 352.721 81.6523 352.721ZM92.2676 354.195C90.8353 354.195 89.6699 353.727 88.7715 352.789C87.873 351.845 87.4238 350.585 87.4238 349.01V348.678C87.4238 347.63 87.6224 346.695 88.0195 345.875C88.4232 345.048 88.9831 344.404 89.6992 343.941C90.4219 343.473 91.2031 343.238 92.043 343.238C93.4167 343.238 94.4844 343.691 95.2461 344.596C96.0078 345.501 96.3887 346.796 96.3887 348.482V349.234H89.2305C89.2565 350.276 89.5592 351.119 90.1387 351.764C90.7246 352.402 91.4668 352.721 92.3652 352.721C93.0033 352.721 93.5436 352.59 93.9863 352.33C94.429 352.07 94.8164 351.725 95.1484 351.295L96.252 352.154C95.3665 353.515 94.0384 354.195 92.2676 354.195ZM92.043 344.723C91.3138 344.723 90.7018 344.99 90.207 345.523C89.7122 346.051 89.4062 346.793 89.2891 347.75H94.582V347.613C94.5299 346.695 94.2826 345.986 93.8398 345.484C93.3971 344.977 92.7982 344.723 92.043 344.723ZM107.414 348.834C107.414 350.442 107.046 351.738 106.311 352.721C105.575 353.704 104.579 354.195 103.322 354.195C102.04 354.195 101.031 353.788 100.295 352.975V358.062H98.4883V343.434H100.139L100.227 344.605C100.962 343.694 101.984 343.238 103.293 343.238C104.562 343.238 105.565 343.717 106.301 344.674C107.043 345.631 107.414 346.962 107.414 348.668V348.834ZM105.607 348.629C105.607 347.438 105.354 346.497 104.846 345.807C104.338 345.117 103.641 344.771 102.756 344.771C101.662 344.771 100.842 345.257 100.295 346.227V351.275C100.835 352.239 101.662 352.721 102.775 352.721C103.641 352.721 104.328 352.379 104.836 351.695C105.35 351.005 105.607 349.983 105.607 348.629ZM112.17 340.875V343.434H114.143V344.83H112.17V351.383C112.17 351.806 112.258 352.125 112.434 352.34C112.609 352.548 112.909 352.652 113.332 352.652C113.54 352.652 113.827 352.613 114.191 352.535V354C113.716 354.13 113.254 354.195 112.805 354.195C111.997 354.195 111.389 353.951 110.979 353.463C110.568 352.975 110.363 352.281 110.363 351.383V344.83H108.439V343.434H110.363V340.875H112.17ZM122.785 354C122.681 353.792 122.596 353.421 122.531 352.887C121.691 353.759 120.689 354.195 119.523 354.195C118.482 354.195 117.626 353.902 116.955 353.316C116.291 352.724 115.959 351.975 115.959 351.07C115.959 349.97 116.376 349.117 117.209 348.512C118.049 347.9 119.227 347.594 120.744 347.594H122.502V346.764C122.502 346.132 122.313 345.631 121.936 345.26C121.558 344.882 121.001 344.693 120.266 344.693C119.621 344.693 119.081 344.856 118.645 345.182C118.208 345.507 117.99 345.901 117.99 346.363H116.174C116.174 345.836 116.359 345.328 116.73 344.84C117.108 344.345 117.616 343.954 118.254 343.668C118.898 343.382 119.605 343.238 120.373 343.238C121.59 343.238 122.544 343.544 123.234 344.156C123.924 344.762 124.283 345.598 124.309 346.666V351.529C124.309 352.499 124.432 353.271 124.68 353.844V354H122.785ZM119.787 352.623C120.354 352.623 120.891 352.477 121.398 352.184C121.906 351.891 122.274 351.51 122.502 351.041V348.873H121.086C118.872 348.873 117.766 349.521 117.766 350.816C117.766 351.383 117.954 351.826 118.332 352.145C118.71 352.464 119.195 352.623 119.787 352.623ZM132.248 345.055C131.975 345.009 131.678 344.986 131.359 344.986C130.174 344.986 129.37 345.491 128.947 346.5V354H127.141V343.434H128.898L128.928 344.654C129.52 343.71 130.36 343.238 131.447 343.238C131.799 343.238 132.066 343.284 132.248 343.375V345.055Z" fill="black"/>
<path d="M293.109 349.488C292.934 350.992 292.377 352.154 291.439 352.975C290.508 353.788 289.268 354.195 287.719 354.195C286.039 354.195 284.691 353.593 283.676 352.389C282.667 351.184 282.162 349.573 282.162 347.555V346.188C282.162 344.866 282.396 343.704 282.865 342.701C283.34 341.699 284.011 340.93 284.877 340.396C285.743 339.856 286.745 339.586 287.885 339.586C289.395 339.586 290.606 340.009 291.518 340.855C292.429 341.695 292.96 342.861 293.109 344.352H291.225C291.062 343.219 290.707 342.398 290.16 341.891C289.62 341.383 288.861 341.129 287.885 341.129C286.687 341.129 285.746 341.572 285.062 342.457C284.385 343.342 284.047 344.602 284.047 346.236V347.613C284.047 349.156 284.369 350.383 285.014 351.295C285.658 352.206 286.56 352.662 287.719 352.662C288.76 352.662 289.558 352.428 290.111 351.959C290.671 351.484 291.042 350.66 291.225 349.488H293.109ZM301.918 354C301.814 353.792 301.729 353.421 301.664 352.887C300.824 353.759 299.822 354.195 298.656 354.195C297.615 354.195 296.758 353.902 296.088 353.316C295.424 352.724 295.092 351.975 295.092 351.07C295.092 349.97 295.508 349.117 296.342 348.512C297.182 347.9 298.36 347.594 299.877 347.594H301.635V346.764C301.635 346.132 301.446 345.631 301.068 345.26C300.691 344.882 300.134 344.693 299.398 344.693C298.754 344.693 298.214 344.856 297.777 345.182C297.341 345.507 297.123 345.901 297.123 346.363H295.307C295.307 345.836 295.492 345.328 295.863 344.84C296.241 344.345 296.749 343.954 297.387 343.668C298.031 343.382 298.738 343.238 299.506 343.238C300.723 343.238 301.677 343.544 302.367 344.156C303.057 344.762 303.415 345.598 303.441 346.666V351.529C303.441 352.499 303.565 353.271 303.812 353.844V354H301.918ZM298.92 352.623C299.486 352.623 300.023 352.477 300.531 352.184C301.039 351.891 301.407 351.51 301.635 351.041V348.873H300.219C298.005 348.873 296.898 349.521 296.898 350.816C296.898 351.383 297.087 351.826 297.465 352.145C297.842 352.464 298.327 352.623 298.92 352.623ZM307.982 343.434L308.041 344.762C308.848 343.746 309.903 343.238 311.205 343.238C313.438 343.238 314.564 344.498 314.584 347.018V354H312.777V347.008C312.771 346.246 312.595 345.683 312.25 345.318C311.911 344.954 311.381 344.771 310.658 344.771C310.072 344.771 309.558 344.928 309.115 345.24C308.673 345.553 308.327 345.963 308.08 346.471V354H306.273V343.434H307.982ZM321.547 352.721C322.191 352.721 322.755 352.525 323.236 352.135C323.718 351.744 323.985 351.256 324.037 350.67H325.746C325.714 351.275 325.505 351.852 325.121 352.398C324.737 352.945 324.223 353.382 323.578 353.707C322.94 354.033 322.263 354.195 321.547 354.195C320.108 354.195 318.962 353.717 318.109 352.76C317.263 351.796 316.84 350.481 316.84 348.814V348.512C316.84 347.483 317.029 346.568 317.406 345.768C317.784 344.967 318.324 344.345 319.027 343.902C319.737 343.46 320.574 343.238 321.537 343.238C322.722 343.238 323.705 343.593 324.486 344.303C325.274 345.012 325.694 345.934 325.746 347.066H324.037C323.985 346.383 323.725 345.823 323.256 345.387C322.794 344.944 322.221 344.723 321.537 344.723C320.619 344.723 319.906 345.055 319.398 345.719C318.897 346.376 318.646 347.33 318.646 348.58V348.922C318.646 350.139 318.897 351.077 319.398 351.734C319.9 352.392 320.616 352.721 321.547 352.721ZM332.162 354.195C330.73 354.195 329.564 353.727 328.666 352.789C327.768 351.845 327.318 350.585 327.318 349.01V348.678C327.318 347.63 327.517 346.695 327.914 345.875C328.318 345.048 328.878 344.404 329.594 343.941C330.316 343.473 331.098 343.238 331.938 343.238C333.311 343.238 334.379 343.691 335.141 344.596C335.902 345.501 336.283 346.796 336.283 348.482V349.234H329.125C329.151 350.276 329.454 351.119 330.033 351.764C330.619 352.402 331.361 352.721 332.26 352.721C332.898 352.721 333.438 352.59 333.881 352.33C334.324 352.07 334.711 351.725 335.043 351.295L336.146 352.154C335.261 353.515 333.933 354.195 332.162 354.195ZM331.938 344.723C331.208 344.723 330.596 344.99 330.102 345.523C329.607 346.051 329.301 346.793 329.184 347.75H334.477V347.613C334.424 346.695 334.177 345.986 333.734 345.484C333.292 344.977 332.693 344.723 331.938 344.723ZM340.346 354H338.539V339H340.346V354ZM349.77 354C349.665 353.792 349.581 353.421 349.516 352.887C348.676 353.759 347.673 354.195 346.508 354.195C345.466 354.195 344.61 353.902 343.939 353.316C343.275 352.724 342.943 351.975 342.943 351.07C342.943 349.97 343.36 349.117 344.193 348.512C345.033 347.9 346.212 347.594 347.729 347.594H349.486V346.764C349.486 346.132 349.298 345.631 348.92 345.26C348.542 344.882 347.986 344.693 347.25 344.693C346.605 344.693 346.065 344.856 345.629 345.182C345.193 345.507 344.975 345.901 344.975 346.363H343.158C343.158 345.836 343.344 345.328 343.715 344.84C344.092 344.345 344.6 343.954 345.238 343.668C345.883 343.382 346.589 343.238 347.357 343.238C348.575 343.238 349.529 343.544 350.219 344.156C350.909 344.762 351.267 345.598 351.293 346.666V351.529C351.293 352.499 351.417 353.271 351.664 353.844V354H349.77ZM346.771 352.623C347.338 352.623 347.875 352.477 348.383 352.184C348.891 351.891 349.258 351.51 349.486 351.041V348.873H348.07C345.857 348.873 344.75 349.521 344.75 350.816C344.75 351.383 344.939 351.826 345.316 352.145C345.694 352.464 346.179 352.623 346.771 352.623ZM359.232 345.055C358.959 345.009 358.663 344.986 358.344 344.986C357.159 344.986 356.355 345.491 355.932 346.5V354H354.125V343.434H355.883L355.912 344.654C356.505 343.71 357.344 343.238 358.432 343.238C358.783 343.238 359.05 343.284 359.232 343.375V345.055Z" fill="black"/>
<rect y="152" width="485" height="504" fill="white"/>
<rect x="185.5" y="217.5" width="271" height="34" fill="white" stroke="black"/>
<path d="M34.5781 239H32.6934L25.5352 228.043V239H23.6504V224.781H25.5352L32.7129 235.787V224.781H34.5781V239ZM37.1465 233.619C37.1465 232.584 37.3483 231.653 37.752 230.826C38.1621 229.999 38.7285 229.361 39.4512 228.912C40.1803 228.463 41.0104 228.238 41.9414 228.238C43.3802 228.238 44.5423 228.736 45.4277 229.732C46.3197 230.729 46.7656 232.053 46.7656 233.707V233.834C46.7656 234.863 46.5671 235.787 46.1699 236.607C45.7793 237.421 45.2161 238.056 44.4805 238.512C43.7513 238.967 42.9115 239.195 41.9609 239.195C40.5286 239.195 39.3665 238.697 38.4746 237.701C37.5892 236.705 37.1465 235.387 37.1465 233.746V233.619ZM38.9629 233.834C38.9629 235.006 39.2331 235.947 39.7734 236.656C40.3203 237.366 41.0495 237.721 41.9609 237.721C42.8789 237.721 43.6081 237.363 44.1484 236.646C44.6888 235.924 44.959 234.915 44.959 233.619C44.959 232.46 44.6823 231.523 44.1289 230.807C43.582 230.084 42.8529 229.723 41.9414 229.723C41.0495 229.723 40.3301 230.077 39.7832 230.787C39.2363 231.497 38.9629 232.512 38.9629 233.834ZM50.7305 228.434L50.7793 229.605C51.554 228.694 52.599 228.238 53.9141 228.238C55.3919 228.238 56.3978 228.805 56.9316 229.938C57.2832 229.43 57.7389 229.02 58.2988 228.707C58.8652 228.395 59.5326 228.238 60.3008 228.238C62.6185 228.238 63.7969 229.465 63.8359 231.92V239H62.0293V232.027C62.0293 231.272 61.8568 230.709 61.5117 230.338C61.1667 229.96 60.5872 229.771 59.7734 229.771C59.1029 229.771 58.5462 229.973 58.1035 230.377C57.6608 230.774 57.4036 231.311 57.332 231.988V239H55.5156V232.076C55.5156 230.54 54.7637 229.771 53.2598 229.771C52.0749 229.771 51.2643 230.276 50.8281 231.285V239H49.0215V228.434H50.7305ZM75.5156 233.834C75.5156 235.449 75.1445 236.747 74.4023 237.73C73.6602 238.707 72.6641 239.195 71.4141 239.195C70.0794 239.195 69.0475 238.723 68.3184 237.779L68.2305 239H66.5703V224H68.377V229.596C69.1061 228.691 70.112 228.238 71.3945 228.238C72.6771 228.238 73.6829 228.723 74.4121 229.693C75.1478 230.663 75.5156 231.992 75.5156 233.678V233.834ZM73.709 233.629C73.709 232.398 73.4714 231.448 72.9961 230.777C72.5208 230.107 71.8372 229.771 70.9453 229.771C69.7539 229.771 68.8978 230.325 68.377 231.432V236.002C68.9303 237.109 69.793 237.662 70.9648 237.662C71.8307 237.662 72.5046 237.327 72.9863 236.656C73.4681 235.986 73.709 234.977 73.709 233.629ZM82.9082 230.055C82.6348 230.009 82.3385 229.986 82.0195 229.986C80.8346 229.986 80.0306 230.491 79.6074 231.5V239H77.8008V228.434H79.5586L79.5879 229.654C80.1803 228.71 81.0202 228.238 82.1074 228.238C82.459 228.238 82.7259 228.284 82.9082 228.375V230.055ZM88.7676 239.195C87.3353 239.195 86.1699 238.727 85.2715 237.789C84.373 236.845 83.9238 235.585 83.9238 234.01V233.678C83.9238 232.63 84.1224 231.695 84.5195 230.875C84.9232 230.048 85.4831 229.404 86.1992 228.941C86.9219 228.473 87.7031 228.238 88.543 228.238C89.9167 228.238 90.9844 228.691 91.7461 229.596C92.5078 230.501 92.8887 231.796 92.8887 233.482V234.234H85.7305C85.7565 235.276 86.0592 236.119 86.6387 236.764C87.2246 237.402 87.9668 237.721 88.8652 237.721C89.5033 237.721 90.0436 237.59 90.4863 237.33C90.929 237.07 91.3164 236.725 91.6484 236.295L92.752 237.154C91.8665 238.515 90.5384 239.195 88.7676 239.195ZM88.543 229.723C87.8138 229.723 87.2018 229.99 86.707 230.523C86.2122 231.051 85.9062 231.793 85.7891 232.75H91.082V232.613C91.0299 231.695 90.7826 230.986 90.3398 230.484C89.8971 229.977 89.2982 229.723 88.543 229.723ZM94.9297 238.053C94.9297 237.74 95.0208 237.48 95.2031 237.271C95.3919 237.063 95.6719 236.959 96.043 236.959C96.4141 236.959 96.694 237.063 96.8828 237.271C97.0781 237.48 97.1758 237.74 97.1758 238.053C97.1758 238.352 97.0781 238.603 96.8828 238.805C96.694 239.007 96.4141 239.107 96.043 239.107C95.6719 239.107 95.3919 239.007 95.2031 238.805C95.0208 238.603 94.9297 238.352 94.9297 238.053ZM94.9395 229.43C94.9395 229.117 95.0306 228.857 95.2129 228.648C95.4017 228.44 95.6816 228.336 96.0527 228.336C96.4238 228.336 96.7038 228.44 96.8926 228.648C97.0879 228.857 97.1855 229.117 97.1855 229.43C97.1855 229.729 97.0879 229.98 96.8926 230.182C96.7038 230.383 96.4238 230.484 96.0527 230.484C95.6816 230.484 95.4017 230.383 95.2129 230.182C95.0306 229.98 94.9395 229.729 94.9395 229.43Z" fill="black"/>
<rect x="22.5" y="321.5" width="160" height="50" rx="13.5" fill="#10B6AC" stroke="black"/>
<rect x="243.5" y="321.5" width="160" height="50" rx="13.5" fill="white" stroke="black"/>
<path d="M72.502 350.289H66.5449L65.207 354H63.2734L68.7031 339.781H70.3438L75.7832 354H73.8594L72.502 350.289ZM67.1113 348.746H71.9453L69.5234 342.096L67.1113 348.746ZM81.6523 352.721C82.2969 352.721 82.86 352.525 83.3418 352.135C83.8236 351.744 84.0905 351.256 84.1426 350.67H85.8516C85.819 351.275 85.6107 351.852 85.2266 352.398C84.8424 352.945 84.3281 353.382 83.6836 353.707C83.0456 354.033 82.3685 354.195 81.6523 354.195C80.2135 354.195 79.0677 353.717 78.2148 352.76C77.3685 351.796 76.9453 350.481 76.9453 348.814V348.512C76.9453 347.483 77.1341 346.568 77.5117 345.768C77.8893 344.967 78.4297 344.345 79.1328 343.902C79.8424 343.46 80.679 343.238 81.6426 343.238C82.8275 343.238 83.8105 343.593 84.5918 344.303C85.3796 345.012 85.7995 345.934 85.8516 347.066H84.1426C84.0905 346.383 83.8301 345.823 83.3613 345.387C82.8991 344.944 82.3262 344.723 81.6426 344.723C80.7246 344.723 80.0117 345.055 79.5039 345.719C79.0026 346.376 78.752 347.33 78.752 348.58V348.922C78.752 350.139 79.0026 351.077 79.5039 351.734C80.0052 352.392 80.7214 352.721 81.6523 352.721ZM92.2676 354.195C90.8353 354.195 89.6699 353.727 88.7715 352.789C87.873 351.845 87.4238 350.585 87.4238 349.01V348.678C87.4238 347.63 87.6224 346.695 88.0195 345.875C88.4232 345.048 88.9831 344.404 89.6992 343.941C90.4219 343.473 91.2031 343.238 92.043 343.238C93.4167 343.238 94.4844 343.691 95.2461 344.596C96.0078 345.501 96.3887 346.796 96.3887 348.482V349.234H89.2305C89.2565 350.276 89.5592 351.119 90.1387 351.764C90.7246 352.402 91.4668 352.721 92.3652 352.721C93.0033 352.721 93.5436 352.59 93.9863 352.33C94.429 352.07 94.8164 351.725 95.1484 351.295L96.252 352.154C95.3665 353.515 94.0384 354.195 92.2676 354.195ZM92.043 344.723C91.3138 344.723 90.7018 344.99 90.207 345.523C89.7122 346.051 89.4062 346.793 89.2891 347.75H94.582V347.613C94.5299 346.695 94.2826 345.986 93.8398 345.484C93.3971 344.977 92.7982 344.723 92.043 344.723ZM107.414 348.834C107.414 350.442 107.046 351.738 106.311 352.721C105.575 353.704 104.579 354.195 103.322 354.195C102.04 354.195 101.031 353.788 100.295 352.975V358.062H98.4883V343.434H100.139L100.227 344.605C100.962 343.694 101.984 343.238 103.293 343.238C104.562 343.238 105.565 343.717 106.301 344.674C107.043 345.631 107.414 346.962 107.414 348.668V348.834ZM105.607 348.629C105.607 347.438 105.354 346.497 104.846 345.807C104.338 345.117 103.641 344.771 102.756 344.771C101.662 344.771 100.842 345.257 100.295 346.227V351.275C100.835 352.239 101.662 352.721 102.775 352.721C103.641 352.721 104.328 352.379 104.836 351.695C105.35 351.005 105.607 349.983 105.607 348.629ZM112.17 340.875V343.434H114.143V344.83H112.17V351.383C112.17 351.806 112.258 352.125 112.434 352.34C112.609 352.548 112.909 352.652 113.332 352.652C113.54 352.652 113.827 352.613 114.191 352.535V354C113.716 354.13 113.254 354.195 112.805 354.195C111.997 354.195 111.389 353.951 110.979 353.463C110.568 352.975 110.363 352.281 110.363 351.383V344.83H108.439V343.434H110.363V340.875H112.17ZM122.785 354C122.681 353.792 122.596 353.421 122.531 352.887C121.691 353.759 120.689 354.195 119.523 354.195C118.482 354.195 117.626 353.902 116.955 353.316C116.291 352.724 115.959 351.975 115.959 351.07C115.959 349.97 116.376 349.117 117.209 348.512C118.049 347.9 119.227 347.594 120.744 347.594H122.502V346.764C122.502 346.132 122.313 345.631 121.936 345.26C121.558 344.882 121.001 344.693 120.266 344.693C119.621 344.693 119.081 344.856 118.645 345.182C118.208 345.507 117.99 345.901 117.99 346.363H116.174C116.174 345.836 116.359 345.328 116.73 344.84C117.108 344.345 117.616 343.954 118.254 343.668C118.898 343.382 119.605 343.238 120.373 343.238C121.59 343.238 122.544 343.544 123.234 344.156C123.924 344.762 124.283 345.598 124.309 346.666V351.529C124.309 352.499 124.432 353.271 124.68 353.844V354H122.785ZM119.787 352.623C120.354 352.623 120.891 352.477 121.398 352.184C121.906 351.891 122.274 351.51 122.502 351.041V348.873H121.086C118.872 348.873 117.766 349.521 117.766 350.816C117.766 351.383 117.954 351.826 118.332 352.145C118.71 352.464 119.195 352.623 119.787 352.623ZM132.248 345.055C131.975 345.009 131.678 344.986 131.359 344.986C130.174 344.986 129.37 345.491 128.947 346.5V354H127.141V343.434H128.898L128.928 344.654C129.52 343.71 130.36 343.238 131.447 343.238C131.799 343.238 132.066 343.284 132.248 343.375V345.055Z" fill="black"/>
<path d="M293.109 349.488C292.934 350.992 292.377 352.154 291.439 352.975C290.508 353.788 289.268 354.195 287.719 354.195C286.039 354.195 284.691 353.593 283.676 352.389C282.667 351.184 282.162 349.573 282.162 347.555V346.188C282.162 344.866 282.396 343.704 282.865 342.701C283.34 341.699 284.011 340.93 284.877 340.396C285.743 339.856 286.745 339.586 287.885 339.586C289.395 339.586 290.606 340.009 291.518 340.855C292.429 341.695 292.96 342.861 293.109 344.352H291.225C291.062 343.219 290.707 342.398 290.16 341.891C289.62 341.383 288.861 341.129 287.885 341.129C286.687 341.129 285.746 341.572 285.062 342.457C284.385 343.342 284.047 344.602 284.047 346.236V347.613C284.047 349.156 284.369 350.383 285.014 351.295C285.658 352.206 286.56 352.662 287.719 352.662C288.76 352.662 289.558 352.428 290.111 351.959C290.671 351.484 291.042 350.66 291.225 349.488H293.109ZM301.918 354C301.814 353.792 301.729 353.421 301.664 352.887C300.824 353.759 299.822 354.195 298.656 354.195C297.615 354.195 296.758 353.902 296.088 353.316C295.424 352.724 295.092 351.975 295.092 351.07C295.092 349.97 295.508 349.117 296.342 348.512C297.182 347.9 298.36 347.594 299.877 347.594H301.635V346.764C301.635 346.132 301.446 345.631 301.068 345.26C300.691 344.882 300.134 344.693 299.398 344.693C298.754 344.693 298.214 344.856 297.777 345.182C297.341 345.507 297.123 345.901 297.123 346.363H295.307C295.307 345.836 295.492 345.328 295.863 344.84C296.241 344.345 296.749 343.954 297.387 343.668C298.031 343.382 298.738 343.238 299.506 343.238C300.723 343.238 301.677 343.544 302.367 344.156C303.057 344.762 303.415 345.598 303.441 346.666V351.529C303.441 352.499 303.565 353.271 303.812 353.844V354H301.918ZM298.92 352.623C299.486 352.623 300.023 352.477 300.531 352.184C301.039 351.891 301.407 351.51 301.635 351.041V348.873H300.219C298.005 348.873 296.898 349.521 296.898 350.816C296.898 351.383 297.087 351.826 297.465 352.145C297.842 352.464 298.327 352.623 298.92 352.623ZM307.982 343.434L308.041 344.762C308.848 343.746 309.903 343.238 311.205 343.238C313.438 343.238 314.564 344.498 314.584 347.018V354H312.777V347.008C312.771 346.246 312.595 345.683 312.25 345.318C311.911 344.954 311.381 344.771 310.658 344.771C310.072 344.771 309.558 344.928 309.115 345.24C308.673 345.553 308.327 345.963 308.08 346.471V354H306.273V343.434H307.982ZM321.547 352.721C322.191 352.721 322.755 352.525 323.236 352.135C323.718 351.744 323.985 351.256 324.037 350.67H325.746C325.714 351.275 325.505 351.852 325.121 352.398C324.737 352.945 324.223 353.382 323.578 353.707C322.94 354.033 322.263 354.195 321.547 354.195C320.108 354.195 318.962 353.717 318.109 352.76C317.263 351.796 316.84 350.481 316.84 348.814V348.512C316.84 347.483 317.029 346.568 317.406 345.768C317.784 344.967 318.324 344.345 319.027 343.902C319.737 343.46 320.574 343.238 321.537 343.238C322.722 343.238 323.705 343.593 324.486 344.303C325.274 345.012 325.694 345.934 325.746 347.066H324.037C323.985 346.383 323.725 345.823 323.256 345.387C322.794 344.944 322.221 344.723 321.537 344.723C320.619 344.723 319.906 345.055 319.398 345.719C318.897 346.376 318.646 347.33 318.646 348.58V348.922C318.646 350.139 318.897 351.077 319.398 351.734C319.9 352.392 320.616 352.721 321.547 352.721ZM332.162 354.195C330.73 354.195 329.564 353.727 328.666 352.789C327.768 351.845 327.318 350.585 327.318 349.01V348.678C327.318 347.63 327.517 346.695 327.914 345.875C328.318 345.048 328.878 344.404 329.594 343.941C330.316 343.473 331.098 343.238 331.938 343.238C333.311 343.238 334.379 343.691 335.141 344.596C335.902 345.501 336.283 346.796 336.283 348.482V349.234H329.125C329.151 350.276 329.454 351.119 330.033 351.764C330.619 352.402 331.361 352.721 332.26 352.721C332.898 352.721 333.438 352.59 333.881 352.33C334.324 352.07 334.711 351.725 335.043 351.295L336.146 352.154C335.261 353.515 333.933 354.195 332.162 354.195ZM331.938 344.723C331.208 344.723 330.596 344.99 330.102 345.523C329.607 346.051 329.301 346.793 329.184 347.75H334.477V347.613C334.424 346.695 334.177 345.986 333.734 345.484C333.292 344.977 332.693 344.723 331.938 344.723ZM340.346 354H338.539V339H340.346V354ZM349.77 354C349.665 353.792 349.581 353.421 349.516 352.887C348.676 353.759 347.673 354.195 346.508 354.195C345.466 354.195 344.61 353.902 343.939 353.316C343.275 352.724 342.943 351.975 342.943 351.07C342.943 349.97 343.36 349.117 344.193 348.512C345.033 347.9 346.212 347.594 347.729 347.594H349.486V346.764C349.486 346.132 349.298 345.631 348.92 345.26C348.542 344.882 347.986 344.693 347.25 344.693C346.605 344.693 346.065 344.856 345.629 345.182C345.193 345.507 344.975 345.901 344.975 346.363H343.158C343.158 345.836 343.344 345.328 343.715 344.84C344.092 344.345 344.6 343.954 345.238 343.668C345.883 343.382 346.589 343.238 347.357 343.238C348.575 343.238 349.529 343.544 350.219 344.156C350.909 344.762 351.267 345.598 351.293 346.666V351.529C351.293 352.499 351.417 353.271 351.664 353.844V354H349.77ZM346.771 352.623C347.338 352.623 347.875 352.477 348.383 352.184C348.891 351.891 349.258 351.51 349.486 351.041V348.873H348.07C345.857 348.873 344.75 349.521 344.75 350.816C344.75 351.383 344.939 351.826 345.316 352.145C345.694 352.464 346.179 352.623 346.771 352.623ZM359.232 345.055C358.959 345.009 358.663 344.986 358.344 344.986C357.159 344.986 356.355 345.491 355.932 346.5V354H354.125V343.434H355.883L355.912 344.654C356.505 343.71 357.344 343.238 358.432 343.238C358.783 343.238 359.05 343.284 359.232 343.375V345.055Z" fill="black"/>
<rect y="152" width="968" height="504" fill="white"/>
<rect x="187.5" y="278.5" width="599" height="34" fill="white" stroke="black"/>
<path d="M31.5781 300H29.6934L22.5352 289.043V300H20.6504V285.781H22.5352L29.7129 296.787V285.781H31.5781V300ZM34.1465 294.619C34.1465 293.584 34.3483 292.653 34.752 291.826C35.1621 290.999 35.7285 290.361 36.4512 289.912C37.1803 289.463 38.0104 289.238 38.9414 289.238C40.3802 289.238 41.5423 289.736 42.4277 290.732C43.3197 291.729 43.7656 293.053 43.7656 294.707V294.834C43.7656 295.863 43.5671 296.787 43.1699 297.607C42.7793 298.421 42.2161 299.056 41.4805 299.512C40.7513 299.967 39.9115 300.195 38.9609 300.195C37.5286 300.195 36.3665 299.697 35.4746 298.701C34.5892 297.705 34.1465 296.387 34.1465 294.746V294.619ZM35.9629 294.834C35.9629 296.006 36.2331 296.947 36.7734 297.656C37.3203 298.366 38.0495 298.721 38.9609 298.721C39.8789 298.721 40.6081 298.363 41.1484 297.646C41.6888 296.924 41.959 295.915 41.959 294.619C41.959 293.46 41.6823 292.523 41.1289 291.807C40.582 291.084 39.8529 290.723 38.9414 290.723C38.0495 290.723 37.3301 291.077 36.7832 291.787C36.2363 292.497 35.9629 293.512 35.9629 294.834ZM47.7305 289.434L47.7793 290.605C48.554 289.694 49.599 289.238 50.9141 289.238C52.3919 289.238 53.3978 289.805 53.9316 290.938C54.2832 290.43 54.7389 290.02 55.2988 289.707C55.8652 289.395 56.5326 289.238 57.3008 289.238C59.6185 289.238 60.7969 290.465 60.8359 292.92V300H59.0293V293.027C59.0293 292.272 58.8568 291.709 58.5117 291.338C58.1667 290.96 57.5872 290.771 56.7734 290.771C56.1029 290.771 55.5462 290.973 55.1035 291.377C54.6608 291.774 54.4036 292.311 54.332 292.988V300H52.5156V293.076C52.5156 291.54 51.7637 290.771 50.2598 290.771C49.0749 290.771 48.2643 291.276 47.8281 292.285V300H46.0215V289.434H47.7305ZM72.5156 294.834C72.5156 296.449 72.1445 297.747 71.4023 298.73C70.6602 299.707 69.6641 300.195 68.4141 300.195C67.0794 300.195 66.0475 299.723 65.3184 298.779L65.2305 300H63.5703V285H65.377V290.596C66.1061 289.691 67.112 289.238 68.3945 289.238C69.6771 289.238 70.6829 289.723 71.4121 290.693C72.1478 291.663 72.5156 292.992 72.5156 294.678V294.834ZM70.709 294.629C70.709 293.398 70.4714 292.448 69.9961 291.777C69.5208 291.107 68.8372 290.771 67.9453 290.771C66.7539 290.771 65.8978 291.325 65.377 292.432V297.002C65.9303 298.109 66.793 298.662 67.9648 298.662C68.8307 298.662 69.5046 298.327 69.9863 297.656C70.4681 296.986 70.709 295.977 70.709 294.629ZM79.9082 291.055C79.6348 291.009 79.3385 290.986 79.0195 290.986C77.8346 290.986 77.0306 291.491 76.6074 292.5V300H74.8008V289.434H76.5586L76.5879 290.654C77.1803 289.71 78.0202 289.238 79.1074 289.238C79.459 289.238 79.7259 289.284 79.9082 289.375V291.055ZM85.7676 300.195C84.3353 300.195 83.1699 299.727 82.2715 298.789C81.373 297.845 80.9238 296.585 80.9238 295.01V294.678C80.9238 293.63 81.1224 292.695 81.5195 291.875C81.9232 291.048 82.4831 290.404 83.1992 289.941C83.9219 289.473 84.7031 289.238 85.543 289.238C86.9167 289.238 87.9844 289.691 88.7461 290.596C89.5078 291.501 89.8887 292.796 89.8887 294.482V295.234H82.7305C82.7565 296.276 83.0592 297.119 83.6387 297.764C84.2246 298.402 84.9668 298.721 85.8652 298.721C86.5033 298.721 87.0436 298.59 87.4863 298.33C87.929 298.07 88.3164 297.725 88.6484 297.295L89.752 298.154C88.8665 299.515 87.5384 300.195 85.7676 300.195ZM85.543 290.723C84.8138 290.723 84.2018 290.99 83.707 291.523C83.2122 292.051 82.9062 292.793 82.7891 293.75H88.082V293.613C88.0299 292.695 87.7826 291.986 87.3398 291.484C86.8971 290.977 86.2982 290.723 85.543 290.723ZM103.189 285.781H105.074V295.85C105.074 297.21 104.664 298.275 103.844 299.043C103.03 299.811 101.943 300.195 100.582 300.195C99.1693 300.195 98.069 299.834 97.2812 299.111C96.4935 298.389 96.0996 297.376 96.0996 296.074H97.9746C97.9746 296.888 98.196 297.523 98.6387 297.979C99.0879 298.434 99.7357 298.662 100.582 298.662C101.357 298.662 101.982 298.418 102.457 297.93C102.939 297.441 103.183 296.758 103.189 295.879V285.781ZM114.508 298.955C113.805 299.782 112.773 300.195 111.412 300.195C110.286 300.195 109.426 299.87 108.834 299.219C108.248 298.561 107.952 297.591 107.945 296.309V289.434H109.752V296.26C109.752 297.861 110.403 298.662 111.705 298.662C113.085 298.662 114.003 298.148 114.459 297.119V289.434H116.266V300H114.547L114.508 298.955ZM118.59 294.629C118.59 292.982 118.971 291.673 119.732 290.703C120.494 289.727 121.503 289.238 122.76 289.238C124.049 289.238 125.055 289.694 125.777 290.605L125.865 289.434H127.516V299.746C127.516 301.113 127.109 302.191 126.295 302.979C125.488 303.766 124.4 304.16 123.033 304.16C122.271 304.16 121.526 303.997 120.797 303.672C120.068 303.346 119.511 302.9 119.127 302.334L120.064 301.25C120.839 302.207 121.786 302.686 122.906 302.686C123.785 302.686 124.469 302.438 124.957 301.943C125.452 301.449 125.699 300.752 125.699 299.854V298.945C124.977 299.779 123.99 300.195 122.74 300.195C121.503 300.195 120.501 299.697 119.732 298.701C118.971 297.705 118.59 296.348 118.59 294.629ZM120.406 294.834C120.406 296.025 120.65 296.963 121.139 297.646C121.627 298.324 122.311 298.662 123.189 298.662C124.329 298.662 125.165 298.145 125.699 297.109V292.285C125.146 291.276 124.316 290.771 123.209 290.771C122.33 290.771 121.643 291.113 121.148 291.797C120.654 292.48 120.406 293.493 120.406 294.834ZM136.773 300C136.669 299.792 136.585 299.421 136.52 298.887C135.68 299.759 134.677 300.195 133.512 300.195C132.47 300.195 131.614 299.902 130.943 299.316C130.279 298.724 129.947 297.975 129.947 297.07C129.947 295.97 130.364 295.117 131.197 294.512C132.037 293.9 133.215 293.594 134.732 293.594H136.49V292.764C136.49 292.132 136.301 291.631 135.924 291.26C135.546 290.882 134.99 290.693 134.254 290.693C133.609 290.693 133.069 290.856 132.633 291.182C132.197 291.507 131.979 291.901 131.979 292.363H130.162C130.162 291.836 130.348 291.328 130.719 290.84C131.096 290.345 131.604 289.954 132.242 289.668C132.887 289.382 133.593 289.238 134.361 289.238C135.579 289.238 136.533 289.544 137.223 290.156C137.913 290.762 138.271 291.598 138.297 292.666V297.529C138.297 298.499 138.421 299.271 138.668 299.844V300H136.773ZM133.775 298.623C134.342 298.623 134.879 298.477 135.387 298.184C135.895 297.891 136.262 297.51 136.49 297.041V294.873H135.074C132.861 294.873 131.754 295.521 131.754 296.816C131.754 297.383 131.943 297.826 132.32 298.145C132.698 298.464 133.183 298.623 133.775 298.623ZM140.689 294.629C140.689 293.008 141.074 291.706 141.842 290.723C142.61 289.733 143.616 289.238 144.859 289.238C146.096 289.238 147.076 289.661 147.799 290.508V285H149.605V300H147.945L147.857 298.867C147.135 299.753 146.129 300.195 144.84 300.195C143.616 300.195 142.617 299.694 141.842 298.691C141.074 297.689 140.689 296.38 140.689 294.766V294.629ZM142.496 294.834C142.496 296.032 142.743 296.969 143.238 297.646C143.733 298.324 144.417 298.662 145.289 298.662C146.435 298.662 147.271 298.148 147.799 297.119V292.266C147.258 291.27 146.428 290.771 145.309 290.771C144.423 290.771 143.733 291.113 143.238 291.797C142.743 292.48 142.496 293.493 142.496 294.834ZM151.939 294.619C151.939 293.584 152.141 292.653 152.545 291.826C152.955 290.999 153.521 290.361 154.244 289.912C154.973 289.463 155.803 289.238 156.734 289.238C158.173 289.238 159.335 289.736 160.221 290.732C161.113 291.729 161.559 293.053 161.559 294.707V294.834C161.559 295.863 161.36 296.787 160.963 297.607C160.572 298.421 160.009 299.056 159.273 299.512C158.544 299.967 157.704 300.195 156.754 300.195C155.322 300.195 154.16 299.697 153.268 298.701C152.382 297.705 151.939 296.387 151.939 294.746V294.619ZM153.756 294.834C153.756 296.006 154.026 296.947 154.566 297.656C155.113 298.366 155.842 298.721 156.754 298.721C157.672 298.721 158.401 298.363 158.941 297.646C159.482 296.924 159.752 295.915 159.752 294.619C159.752 293.46 159.475 292.523 158.922 291.807C158.375 291.084 157.646 290.723 156.734 290.723C155.842 290.723 155.123 291.077 154.576 291.787C154.029 292.497 153.756 293.512 153.756 294.834ZM168.932 291.055C168.658 291.009 168.362 290.986 168.043 290.986C166.858 290.986 166.054 291.491 165.631 292.5V300H163.824V289.434H165.582L165.611 290.654C166.204 289.71 167.044 289.238 168.131 289.238C168.482 289.238 168.749 289.284 168.932 289.375V291.055ZM170.543 299.053C170.543 298.74 170.634 298.48 170.816 298.271C171.005 298.063 171.285 297.959 171.656 297.959C172.027 297.959 172.307 298.063 172.496 298.271C172.691 298.48 172.789 298.74 172.789 299.053C172.789 299.352 172.691 299.603 172.496 299.805C172.307 300.007 172.027 300.107 171.656 300.107C171.285 300.107 171.005 300.007 170.816 299.805C170.634 299.603 170.543 299.352 170.543 299.053ZM170.553 290.43C170.553 290.117 170.644 289.857 170.826 289.648C171.015 289.44 171.295 289.336 171.666 289.336C172.037 289.336 172.317 289.44 172.506 289.648C172.701 289.857 172.799 290.117 172.799 290.43C172.799 290.729 172.701 290.98 172.506 291.182C172.317 291.383 172.037 291.484 171.666 291.484C171.295 291.484 171.015 291.383 170.826 291.182C170.644 290.98 170.553 290.729 170.553 290.43Z" fill="black"/>
<rect x="22.5" y="548.5" width="160" height="50" rx="13.5" fill="#5B5B5B" stroke="black"/>
<rect x="243.5" y="548.5" width="160" height="50" rx="13.5" fill="white" stroke="black"/>
<path d="M72.502 577.289H66.5449L65.207 581H63.2734L68.7031 566.781H70.3438L75.7832 581H73.8594L72.502 577.289ZM67.1113 575.746H71.9453L69.5234 569.096L67.1113 575.746ZM81.6523 579.721C82.2969 579.721 82.86 579.525 83.3418 579.135C83.8236 578.744 84.0905 578.256 84.1426 577.67H85.8516C85.819 578.275 85.6107 578.852 85.2266 579.398C84.8424 579.945 84.3281 580.382 83.6836 580.707C83.0456 581.033 82.3685 581.195 81.6523 581.195C80.2135 581.195 79.0677 580.717 78.2148 579.76C77.3685 578.796 76.9453 577.481 76.9453 575.814V575.512C76.9453 574.483 77.1341 573.568 77.5117 572.768C77.8893 571.967 78.4297 571.345 79.1328 570.902C79.8424 570.46 80.679 570.238 81.6426 570.238C82.8275 570.238 83.8105 570.593 84.5918 571.303C85.3796 572.012 85.7995 572.934 85.8516 574.066H84.1426C84.0905 573.383 83.8301 572.823 83.3613 572.387C82.8991 571.944 82.3262 571.723 81.6426 571.723C80.7246 571.723 80.0117 572.055 79.5039 572.719C79.0026 573.376 78.752 574.33 78.752 575.58V575.922C78.752 577.139 79.0026 578.077 79.5039 578.734C80.0052 579.392 80.7214 579.721 81.6523 579.721ZM92.2676 581.195C90.8353 581.195 89.6699 580.727 88.7715 579.789C87.873 578.845 87.4238 577.585 87.4238 576.01V575.678C87.4238 574.63 87.6224 573.695 88.0195 572.875C88.4232 572.048 88.9831 571.404 89.6992 570.941C90.4219 570.473 91.2031 570.238 92.043 570.238C93.4167 570.238 94.4844 570.691 95.2461 571.596C96.0078 572.501 96.3887 573.796 96.3887 575.482V576.234H89.2305C89.2565 577.276 89.5592 578.119 90.1387 578.764C90.7246 579.402 91.4668 579.721 92.3652 579.721C93.0033 579.721 93.5436 579.59 93.9863 579.33C94.429 579.07 94.8164 578.725 95.1484 578.295L96.252 579.154C95.3665 580.515 94.0384 581.195 92.2676 581.195ZM92.043 571.723C91.3138 571.723 90.7018 571.99 90.207 572.523C89.7122 573.051 89.4062 573.793 89.2891 574.75H94.582V574.613C94.5299 573.695 94.2826 572.986 93.8398 572.484C93.3971 571.977 92.7982 571.723 92.043 571.723ZM107.414 575.834C107.414 577.442 107.046 578.738 106.311 579.721C105.575 580.704 104.579 581.195 103.322 581.195C102.04 581.195 101.031 580.788 100.295 579.975V585.062H98.4883V570.434H100.139L100.227 571.605C100.962 570.694 101.984 570.238 103.293 570.238C104.562 570.238 105.565 570.717 106.301 571.674C107.043 572.631 107.414 573.962 107.414 575.668V575.834ZM105.607 575.629C105.607 574.438 105.354 573.497 104.846 572.807C104.338 572.117 103.641 571.771 102.756 571.771C101.662 571.771 100.842 572.257 100.295 573.227V578.275C100.835 579.239 101.662 579.721 102.775 579.721C103.641 579.721 104.328 579.379 104.836 578.695C105.35 578.005 105.607 576.983 105.607 575.629ZM112.17 567.875V570.434H114.143V571.83H112.17V578.383C112.17 578.806 112.258 579.125 112.434 579.34C112.609 579.548 112.909 579.652 113.332 579.652C113.54 579.652 113.827 579.613 114.191 579.535V581C113.716 581.13 113.254 581.195 112.805 581.195C111.997 581.195 111.389 580.951 110.979 580.463C110.568 579.975 110.363 579.281 110.363 578.383V571.83H108.439V570.434H110.363V567.875H112.17ZM122.785 581C122.681 580.792 122.596 580.421 122.531 579.887C121.691 580.759 120.689 581.195 119.523 581.195C118.482 581.195 117.626 580.902 116.955 580.316C116.291 579.724 115.959 578.975 115.959 578.07C115.959 576.97 116.376 576.117 117.209 575.512C118.049 574.9 119.227 574.594 120.744 574.594H122.502V573.764C122.502 573.132 122.313 572.631 121.936 572.26C121.558 571.882 121.001 571.693 120.266 571.693C119.621 571.693 119.081 571.856 118.645 572.182C118.208 572.507 117.99 572.901 117.99 573.363H116.174C116.174 572.836 116.359 572.328 116.73 571.84C117.108 571.345 117.616 570.954 118.254 570.668C118.898 570.382 119.605 570.238 120.373 570.238C121.59 570.238 122.544 570.544 123.234 571.156C123.924 571.762 124.283 572.598 124.309 573.666V578.529C124.309 579.499 124.432 580.271 124.68 580.844V581H122.785ZM119.787 579.623C120.354 579.623 120.891 579.477 121.398 579.184C121.906 578.891 122.274 578.51 122.502 578.041V575.873H121.086C118.872 575.873 117.766 576.521 117.766 577.816C117.766 578.383 117.954 578.826 118.332 579.145C118.71 579.464 119.195 579.623 119.787 579.623ZM132.248 572.055C131.975 572.009 131.678 571.986 131.359 571.986C130.174 571.986 129.37 572.491 128.947 573.5V581H127.141V570.434H128.898L128.928 571.654C129.52 570.71 130.36 570.238 131.447 570.238C131.799 570.238 132.066 570.284 132.248 570.375V572.055Z" fill="black"/>
<path d="M293.109 576.488C292.934 577.992 292.377 579.154 291.439 579.975C290.508 580.788 289.268 581.195 287.719 581.195C286.039 581.195 284.691 580.593 283.676 579.389C282.667 578.184 282.162 576.573 282.162 574.555V573.188C282.162 571.866 282.396 570.704 282.865 569.701C283.34 568.699 284.011 567.93 284.877 567.396C285.743 566.856 286.745 566.586 287.885 566.586C289.395 566.586 290.606 567.009 291.518 567.855C292.429 568.695 292.96 569.861 293.109 571.352H291.225C291.062 570.219 290.707 569.398 290.16 568.891C289.62 568.383 288.861 568.129 287.885 568.129C286.687 568.129 285.746 568.572 285.062 569.457C284.385 570.342 284.047 571.602 284.047 573.236V574.613C284.047 576.156 284.369 577.383 285.014 578.295C285.658 579.206 286.56 579.662 287.719 579.662C288.76 579.662 289.558 579.428 290.111 578.959C290.671 578.484 291.042 577.66 291.225 576.488H293.109ZM301.918 581C301.814 580.792 301.729 580.421 301.664 579.887C300.824 580.759 299.822 581.195 298.656 581.195C297.615 581.195 296.758 580.902 296.088 580.316C295.424 579.724 295.092 578.975 295.092 578.07C295.092 576.97 295.508 576.117 296.342 575.512C297.182 574.9 298.36 574.594 299.877 574.594H301.635V573.764C301.635 573.132 301.446 572.631 301.068 572.26C300.691 571.882 300.134 571.693 299.398 571.693C298.754 571.693 298.214 571.856 297.777 572.182C297.341 572.507 297.123 572.901 297.123 573.363H295.307C295.307 572.836 295.492 572.328 295.863 571.84C296.241 571.345 296.749 570.954 297.387 570.668C298.031 570.382 298.738 570.238 299.506 570.238C300.723 570.238 301.677 570.544 302.367 571.156C303.057 571.762 303.415 572.598 303.441 573.666V578.529C303.441 579.499 303.565 580.271 303.812 580.844V581H301.918ZM298.92 579.623C299.486 579.623 300.023 579.477 300.531 579.184C301.039 578.891 301.407 578.51 301.635 578.041V575.873H300.219C298.005 575.873 296.898 576.521 296.898 577.816C296.898 578.383 297.087 578.826 297.465 579.145C297.842 579.464 298.327 579.623 298.92 579.623ZM307.982 570.434L308.041 571.762C308.848 570.746 309.903 570.238 311.205 570.238C313.438 570.238 314.564 571.498 314.584 574.018V581H312.777V574.008C312.771 573.246 312.595 572.683 312.25 572.318C311.911 571.954 311.381 571.771 310.658 571.771C310.072 571.771 309.558 571.928 309.115 572.24C308.673 572.553 308.327 572.963 308.08 573.471V581H306.273V570.434H307.982ZM321.547 579.721C322.191 579.721 322.755 579.525 323.236 579.135C323.718 578.744 323.985 578.256 324.037 577.67H325.746C325.714 578.275 325.505 578.852 325.121 579.398C324.737 579.945 324.223 580.382 323.578 580.707C322.94 581.033 322.263 581.195 321.547 581.195C320.108 581.195 318.962 580.717 318.109 579.76C317.263 578.796 316.84 577.481 316.84 575.814V575.512C316.84 574.483 317.029 573.568 317.406 572.768C317.784 571.967 318.324 571.345 319.027 570.902C319.737 570.46 320.574 570.238 321.537 570.238C322.722 570.238 323.705 570.593 324.486 571.303C325.274 572.012 325.694 572.934 325.746 574.066H324.037C323.985 573.383 323.725 572.823 323.256 572.387C322.794 571.944 322.221 571.723 321.537 571.723C320.619 571.723 319.906 572.055 319.398 572.719C318.897 573.376 318.646 574.33 318.646 575.58V575.922C318.646 577.139 318.897 578.077 319.398 578.734C319.9 579.392 320.616 579.721 321.547 579.721ZM332.162 581.195C330.73 581.195 329.564 580.727 328.666 579.789C327.768 578.845 327.318 577.585 327.318 576.01V575.678C327.318 574.63 327.517 573.695 327.914 572.875C328.318 572.048 328.878 571.404 329.594 570.941C330.316 570.473 331.098 570.238 331.938 570.238C333.311 570.238 334.379 570.691 335.141 571.596C335.902 572.501 336.283 573.796 336.283 575.482V576.234H329.125C329.151 577.276 329.454 578.119 330.033 578.764C330.619 579.402 331.361 579.721 332.26 579.721C332.898 579.721 333.438 579.59 333.881 579.33C334.324 579.07 334.711 578.725 335.043 578.295L336.146 579.154C335.261 580.515 333.933 581.195 332.162 581.195ZM331.938 571.723C331.208 571.723 330.596 571.99 330.102 572.523C329.607 573.051 329.301 573.793 329.184 574.75H334.477V574.613C334.424 573.695 334.177 572.986 333.734 572.484C333.292 571.977 332.693 571.723 331.938 571.723ZM340.346 581H338.539V566H340.346V581ZM349.77 581C349.665 580.792 349.581 580.421 349.516 579.887C348.676 580.759 347.673 581.195 346.508 581.195C345.466 581.195 344.61 580.902 343.939 580.316C343.275 579.724 342.943 578.975 342.943 578.07C342.943 576.97 343.36 576.117 344.193 575.512C345.033 574.9 346.212 574.594 347.729 574.594H349.486V573.764C349.486 573.132 349.298 572.631 348.92 572.26C348.542 571.882 347.986 571.693 347.25 571.693C346.605 571.693 346.065 571.856 345.629 572.182C345.193 572.507 344.975 572.901 344.975 573.363H343.158C343.158 572.836 343.344 572.328 343.715 571.84C344.092 571.345 344.6 570.954 345.238 570.668C345.883 570.382 346.589 570.238 347.357 570.238C348.575 570.238 349.529 570.544 350.219 571.156C350.909 571.762 351.267 572.598 351.293 573.666V578.529C351.293 579.499 351.417 580.271 351.664 580.844V581H349.77ZM346.771 579.623C347.338 579.623 347.875 579.477 348.383 579.184C348.891 578.891 349.258 578.51 349.486 578.041V575.873H348.07C345.857 575.873 344.75 576.521 344.75 577.816C344.75 578.383 344.939 578.826 345.316 579.145C345.694 579.464 346.179 579.623 346.771 579.623ZM359.232 572.055C358.959 572.009 358.663 571.986 358.344 571.986C357.159 571.986 356.355 572.491 355.932 573.5V581H354.125V570.434H355.883L355.912 571.654C356.505 570.71 357.344 570.238 358.432 570.238C358.783 570.238 359.05 570.284 359.232 570.375V572.055Z" fill="black"/>
<rect x="187.5" y="383.5" width="599" height="34" fill="white" stroke="black"/>
<path d="M22.6621 405H20.7871V390.781H22.6621V405ZM26.0996 405V390.781H30.1133C31.3503 390.781 32.444 391.055 33.3945 391.602C34.3451 392.148 35.0775 392.926 35.5918 393.936C36.1126 394.945 36.3763 396.104 36.3828 397.412V398.32C36.3828 399.661 36.1224 400.837 35.6016 401.846C35.0872 402.855 34.3483 403.63 33.3848 404.17C32.4277 404.71 31.3112 404.987 30.0352 405H26.0996ZM27.9746 392.324V403.467H29.9473C31.3926 403.467 32.5156 403.018 33.3164 402.119C34.1237 401.221 34.5273 399.941 34.5273 398.281V397.451C34.5273 395.837 34.1465 394.583 33.3848 393.691C32.6296 392.793 31.5553 392.337 30.1621 392.324H27.9746ZM48.375 398.662C46.7669 398.2 45.5951 397.633 44.8594 396.963C44.1302 396.286 43.7656 395.452 43.7656 394.463C43.7656 393.343 44.2116 392.419 45.1035 391.689C46.002 390.954 47.1673 390.586 48.5996 390.586C49.5762 390.586 50.4453 390.775 51.207 391.152C51.9753 391.53 52.5677 392.051 52.9844 392.715C53.4076 393.379 53.6191 394.105 53.6191 394.893H51.7344C51.7344 394.033 51.4609 393.359 50.9141 392.871C50.3672 392.376 49.5957 392.129 48.5996 392.129C47.6751 392.129 46.9525 392.334 46.4316 392.744C45.9173 393.148 45.6602 393.711 45.6602 394.434C45.6602 395.013 45.9043 395.505 46.3926 395.908C46.8874 396.305 47.724 396.67 48.9023 397.002C50.0872 397.334 51.0117 397.702 51.6758 398.105C52.3464 398.503 52.8411 398.968 53.1602 399.502C53.4857 400.036 53.6484 400.664 53.6484 401.387C53.6484 402.539 53.1992 403.464 52.3008 404.16C51.4023 404.85 50.2012 405.195 48.6973 405.195C47.7207 405.195 46.8092 405.01 45.9629 404.639C45.1165 404.261 44.4622 403.747 44 403.096C43.5443 402.445 43.3164 401.706 43.3164 400.879H45.2012C45.2012 401.738 45.5169 402.419 46.1484 402.92C46.7865 403.415 47.6361 403.662 48.6973 403.662C49.6868 403.662 50.4453 403.46 50.9727 403.057C51.5 402.653 51.7637 402.103 51.7637 401.406C51.7637 400.71 51.5195 400.173 51.0312 399.795C50.543 399.411 49.6576 399.033 48.375 398.662ZM60.1621 405.195C58.7298 405.195 57.5645 404.727 56.666 403.789C55.7676 402.845 55.3184 401.585 55.3184 400.01V399.678C55.3184 398.63 55.5169 397.695 55.9141 396.875C56.3177 396.048 56.8776 395.404 57.5938 394.941C58.3164 394.473 59.0977 394.238 59.9375 394.238C61.3112 394.238 62.3789 394.691 63.1406 395.596C63.9023 396.501 64.2832 397.796 64.2832 399.482V400.234H57.125C57.151 401.276 57.4538 402.119 58.0332 402.764C58.6191 403.402 59.3613 403.721 60.2598 403.721C60.8978 403.721 61.4382 403.59 61.8809 403.33C62.3236 403.07 62.7109 402.725 63.043 402.295L64.1465 403.154C63.2611 404.515 61.9329 405.195 60.1621 405.195ZM59.9375 395.723C59.2083 395.723 58.5964 395.99 58.1016 396.523C57.6068 397.051 57.3008 397.793 57.1836 398.75H62.4766V398.613C62.4245 397.695 62.1771 396.986 61.7344 396.484C61.2917 395.977 60.6927 395.723 59.9375 395.723ZM72.5352 402.197C72.5352 401.709 72.3496 401.331 71.9785 401.064C71.6139 400.791 70.9727 400.557 70.0547 400.361C69.1432 400.166 68.4173 399.932 67.877 399.658C67.3431 399.385 66.946 399.059 66.6855 398.682C66.4316 398.304 66.3047 397.855 66.3047 397.334C66.3047 396.468 66.6693 395.736 67.3984 395.137C68.1341 394.538 69.0716 394.238 70.2109 394.238C71.4089 394.238 72.3789 394.548 73.1211 395.166C73.8698 395.785 74.2441 396.576 74.2441 397.539H72.4277C72.4277 397.044 72.2161 396.618 71.793 396.26C71.3763 395.902 70.849 395.723 70.2109 395.723C69.5534 395.723 69.0391 395.866 68.668 396.152C68.2969 396.439 68.1113 396.813 68.1113 397.275C68.1113 397.712 68.2839 398.04 68.6289 398.262C68.974 398.483 69.5957 398.695 70.4941 398.896C71.3991 399.098 72.1315 399.339 72.6914 399.619C73.2513 399.899 73.6647 400.238 73.9316 400.635C74.2051 401.025 74.3418 401.504 74.3418 402.07C74.3418 403.014 73.9642 403.773 73.209 404.346C72.4538 404.912 71.474 405.195 70.2695 405.195C69.4232 405.195 68.6745 405.046 68.0234 404.746C67.3724 404.447 66.8613 404.03 66.4902 403.496C66.1257 402.956 65.9434 402.373 65.9434 401.748H67.75C67.7826 402.354 68.0234 402.835 68.4727 403.193C68.9284 403.545 69.5273 403.721 70.2695 403.721C70.9531 403.721 71.5 403.584 71.9102 403.311C72.3268 403.031 72.5352 402.66 72.5352 402.197ZM78.6582 405H76.8516V394.434H78.6582V405ZM76.7051 391.631C76.7051 391.338 76.793 391.09 76.9688 390.889C77.151 390.687 77.418 390.586 77.7695 390.586C78.1211 390.586 78.388 390.687 78.5703 390.889C78.7526 391.09 78.8438 391.338 78.8438 391.631C78.8438 391.924 78.7526 392.168 78.5703 392.363C78.388 392.559 78.1211 392.656 77.7695 392.656C77.418 392.656 77.151 392.559 76.9688 392.363C76.793 392.168 76.7051 391.924 76.7051 391.631ZM81.0801 399.619C81.0801 398.584 81.2819 397.653 81.6855 396.826C82.0957 395.999 82.6621 395.361 83.3848 394.912C84.1139 394.463 84.944 394.238 85.875 394.238C87.3138 394.238 88.4759 394.736 89.3613 395.732C90.2533 396.729 90.6992 398.053 90.6992 399.707V399.834C90.6992 400.863 90.5007 401.787 90.1035 402.607C89.7129 403.421 89.1497 404.056 88.4141 404.512C87.6849 404.967 86.8451 405.195 85.8945 405.195C84.4622 405.195 83.3001 404.697 82.4082 403.701C81.5228 402.705 81.0801 401.387 81.0801 399.746V399.619ZM82.8965 399.834C82.8965 401.006 83.1667 401.947 83.707 402.656C84.2539 403.366 84.9831 403.721 85.8945 403.721C86.8125 403.721 87.5417 403.363 88.082 402.646C88.6224 401.924 88.8926 400.915 88.8926 399.619C88.8926 398.46 88.6159 397.523 88.0625 396.807C87.5156 396.084 86.7865 395.723 85.875 395.723C84.9831 395.723 84.2637 396.077 83.7168 396.787C83.1699 397.497 82.8965 398.512 82.8965 399.834ZM86.6953 390H88.8828L86.2656 392.871H84.8105L86.6953 390ZM94.6738 394.434L94.7324 395.762C95.5397 394.746 96.5944 394.238 97.8965 394.238C100.13 394.238 101.256 395.498 101.275 398.018V405H99.4688V398.008C99.4622 397.246 99.2865 396.683 98.9414 396.318C98.6029 395.954 98.0723 395.771 97.3496 395.771C96.7637 395.771 96.2493 395.928 95.8066 396.24C95.3639 396.553 95.0189 396.963 94.7715 397.471V405H92.9648V394.434H94.6738ZM103.941 404.053C103.941 403.74 104.033 403.48 104.215 403.271C104.404 403.063 104.684 402.959 105.055 402.959C105.426 402.959 105.706 403.063 105.895 403.271C106.09 403.48 106.188 403.74 106.188 404.053C106.188 404.352 106.09 404.603 105.895 404.805C105.706 405.007 105.426 405.107 105.055 405.107C104.684 405.107 104.404 405.007 104.215 404.805C104.033 404.603 103.941 404.352 103.941 404.053ZM103.951 395.43C103.951 395.117 104.042 394.857 104.225 394.648C104.413 394.44 104.693 394.336 105.064 394.336C105.436 394.336 105.715 394.44 105.904 394.648C106.1 394.857 106.197 395.117 106.197 395.43C106.197 395.729 106.1 395.98 105.904 396.182C105.715 396.383 105.436 396.484 105.064 396.484C104.693 396.484 104.413 396.383 104.225 396.182C104.042 395.98 103.951 395.729 103.951 395.43Z" fill="black"/>
<line x1="24" y1="237" x2="924" y2="237" stroke="#11D0C5" stroke-width="2"/>
<path d="M36.4375 192.938V204.176C36.4375 206.043 35.8516 207.52 34.6797 208.605C33.5156 209.691 31.9219 210.234 29.8984 210.234C27.9062 210.234 26.3242 209.707 25.1523 208.652C23.9805 207.598 23.3828 206.148 23.3594 204.305V192.938H26.875V204.199C26.875 205.316 27.1406 206.133 27.6719 206.648C28.2109 207.156 28.9531 207.41 29.8984 207.41C31.875 207.41 32.8789 206.371 32.9102 204.293V192.938H36.4375ZM42.2148 197.32L42.3203 198.785C43.2266 197.652 44.4414 197.086 45.9648 197.086C47.3086 197.086 48.3086 197.48 48.9648 198.27C49.6211 199.059 49.957 200.238 49.9727 201.809V210H46.5859V201.891C46.5859 201.172 46.4297 200.652 46.1172 200.332C45.8047 200.004 45.2852 199.84 44.5586 199.84C43.6055 199.84 42.8906 200.246 42.4141 201.059V210H39.0273V197.32H42.2148ZM56.125 210H52.7266V197.32H56.125V210ZM52.5273 194.039C52.5273 193.531 52.6953 193.113 53.0312 192.785C53.375 192.457 53.8398 192.293 54.4258 192.293C55.0039 192.293 55.4648 192.457 55.8086 192.785C56.1523 193.113 56.3242 193.531 56.3242 194.039C56.3242 194.555 56.1484 194.977 55.7969 195.305C55.4531 195.633 54.9961 195.797 54.4258 195.797C53.8555 195.797 53.3945 195.633 53.043 195.305C52.6992 194.977 52.5273 194.555 52.5273 194.039ZM66.0508 200.496C65.5898 200.434 65.1836 200.402 64.832 200.402C63.5508 200.402 62.7109 200.836 62.3125 201.703V210H58.9258V197.32H62.125L62.2188 198.832C62.8984 197.668 63.8398 197.086 65.043 197.086C65.418 197.086 65.7695 197.137 66.0977 197.238L66.0508 200.496ZM74.5586 206.496C74.5586 206.082 74.3516 205.758 73.9375 205.523C73.5312 205.281 72.875 205.066 71.9688 204.879C68.9531 204.246 67.4453 202.965 67.4453 201.035C67.4453 199.91 67.9102 198.973 68.8398 198.223C69.7773 197.465 71 197.086 72.5078 197.086C74.1172 197.086 75.4023 197.465 76.3633 198.223C77.332 198.98 77.8164 199.965 77.8164 201.176H74.4297C74.4297 200.691 74.2734 200.293 73.9609 199.98C73.6484 199.66 73.1602 199.5 72.4961 199.5C71.9258 199.5 71.4844 199.629 71.1719 199.887C70.8594 200.145 70.7031 200.473 70.7031 200.871C70.7031 201.246 70.8789 201.551 71.2305 201.785C71.5898 202.012 72.1914 202.211 73.0352 202.383C73.8789 202.547 74.5898 202.734 75.168 202.945C76.957 203.602 77.8516 204.738 77.8516 206.355C77.8516 207.512 77.3555 208.449 76.3633 209.168C75.3711 209.879 74.0898 210.234 72.5195 210.234C71.457 210.234 70.5117 210.047 69.6836 209.672C68.8633 209.289 68.2188 208.77 67.75 208.113C67.2812 207.449 67.0469 206.734 67.0469 205.969H70.2578C70.2891 206.57 70.5117 207.031 70.9258 207.352C71.3398 207.672 71.8945 207.832 72.5898 207.832C73.2383 207.832 73.7266 207.711 74.0547 207.469C74.3906 207.219 74.5586 206.895 74.5586 206.496ZM85.8789 210.234C84.0195 210.234 82.5039 209.664 81.332 208.523C80.168 207.383 79.5859 205.863 79.5859 203.965V203.637C79.5859 202.363 79.832 201.227 80.3242 200.227C80.8164 199.219 81.5117 198.445 82.4102 197.906C83.3164 197.359 84.3477 197.086 85.5039 197.086C87.2383 197.086 88.6016 197.633 89.5938 198.727C90.5938 199.82 91.0938 201.371 91.0938 203.379V204.762H83.0195C83.1289 205.59 83.457 206.254 84.0039 206.754C84.5586 207.254 85.2578 207.504 86.1016 207.504C87.4062 207.504 88.4258 207.031 89.1602 206.086L90.8242 207.949C90.3164 208.668 89.6289 209.23 88.7617 209.637C87.8945 210.035 86.9336 210.234 85.8789 210.234ZM85.4922 199.828C84.8203 199.828 84.2734 200.055 83.8516 200.508C83.4375 200.961 83.1719 201.609 83.0547 202.453H87.7656V202.184C87.75 201.434 87.5469 200.855 87.1562 200.449C86.7656 200.035 86.2109 199.828 85.4922 199.828ZM106.352 210C106.195 209.695 106.082 209.316 106.012 208.863C105.191 209.777 104.125 210.234 102.812 210.234C101.57 210.234 100.539 209.875 99.7188 209.156C98.9062 208.438 98.5 207.531 98.5 206.438C98.5 205.094 98.9961 204.062 99.9883 203.344C100.988 202.625 102.43 202.262 104.312 202.254H105.871V201.527C105.871 200.941 105.719 200.473 105.414 200.121C105.117 199.77 104.645 199.594 103.996 199.594C103.426 199.594 102.977 199.73 102.648 200.004C102.328 200.277 102.168 200.652 102.168 201.129H98.7812C98.7812 200.395 99.0078 199.715 99.4609 199.09C99.9141 198.465 100.555 197.977 101.383 197.625C102.211 197.266 103.141 197.086 104.172 197.086C105.734 197.086 106.973 197.48 107.887 198.27C108.809 199.051 109.27 200.152 109.27 201.574V207.07C109.277 208.273 109.445 209.184 109.773 209.801V210H106.352ZM103.551 207.645C104.051 207.645 104.512 207.535 104.934 207.316C105.355 207.09 105.668 206.789 105.871 206.414V204.234H104.605C102.91 204.234 102.008 204.82 101.898 205.992L101.887 206.191C101.887 206.613 102.035 206.961 102.332 207.234C102.629 207.508 103.035 207.645 103.551 207.645ZM124.949 192.938H128.465V204.75C128.465 205.836 128.223 206.797 127.738 207.633C127.262 208.461 126.586 209.102 125.711 209.555C124.836 210.008 123.848 210.234 122.746 210.234C120.941 210.234 119.535 209.777 118.527 208.863C117.52 207.941 117.016 206.641 117.016 204.961H120.555C120.555 205.797 120.73 206.414 121.082 206.812C121.434 207.211 121.988 207.41 122.746 207.41C123.418 207.41 123.953 207.18 124.352 206.719C124.75 206.258 124.949 205.602 124.949 204.75V192.938ZM138.848 208.711C138.012 209.727 136.855 210.234 135.379 210.234C134.02 210.234 132.98 209.844 132.262 209.062C131.551 208.281 131.188 207.137 131.172 205.629V197.32H134.559V205.512C134.559 206.832 135.16 207.492 136.363 207.492C137.512 207.492 138.301 207.094 138.73 206.297V197.32H142.129V210H138.941L138.848 208.711ZM150.52 210.234C148.66 210.234 147.145 209.664 145.973 208.523C144.809 207.383 144.227 205.863 144.227 203.965V203.637C144.227 202.363 144.473 201.227 144.965 200.227C145.457 199.219 146.152 198.445 147.051 197.906C147.957 197.359 148.988 197.086 150.145 197.086C151.879 197.086 153.242 197.633 154.234 198.727C155.234 199.82 155.734 201.371 155.734 203.379V204.762H147.66C147.77 205.59 148.098 206.254 148.645 206.754C149.199 207.254 149.898 207.504 150.742 207.504C152.047 207.504 153.066 207.031 153.801 206.086L155.465 207.949C154.957 208.668 154.27 209.23 153.402 209.637C152.535 210.035 151.574 210.234 150.52 210.234ZM150.133 199.828C149.461 199.828 148.914 200.055 148.492 200.508C148.078 200.961 147.812 201.609 147.695 202.453H152.406V202.184C152.391 201.434 152.188 200.855 151.797 200.449C151.406 200.035 150.852 199.828 150.133 199.828ZM157.176 203.566C157.176 201.621 157.637 200.055 158.559 198.867C159.488 197.68 160.738 197.086 162.309 197.086C163.699 197.086 164.781 197.562 165.555 198.516L165.695 197.32H168.766V209.578C168.766 210.688 168.512 211.652 168.004 212.473C167.504 213.293 166.797 213.918 165.883 214.348C164.969 214.777 163.898 214.992 162.672 214.992C161.742 214.992 160.836 214.805 159.953 214.43C159.07 214.062 158.402 213.586 157.949 213L159.449 210.938C160.293 211.883 161.316 212.355 162.52 212.355C163.418 212.355 164.117 212.113 164.617 211.629C165.117 211.152 165.367 210.473 165.367 209.59V208.91C164.586 209.793 163.559 210.234 162.285 210.234C160.762 210.234 159.527 209.641 158.582 208.453C157.645 207.258 157.176 205.676 157.176 203.707V203.566ZM160.562 203.812C160.562 204.961 160.793 205.863 161.254 206.52C161.715 207.168 162.348 207.492 163.152 207.492C164.184 207.492 164.922 207.105 165.367 206.332V201C164.914 200.227 164.184 199.84 163.176 199.84C162.363 199.84 161.723 200.172 161.254 200.836C160.793 201.5 160.562 202.492 160.562 203.812ZM170.852 203.543C170.852 202.285 171.094 201.164 171.578 200.18C172.062 199.195 172.758 198.434 173.664 197.895C174.578 197.355 175.637 197.086 176.84 197.086C178.551 197.086 179.945 197.609 181.023 198.656C182.109 199.703 182.715 201.125 182.84 202.922L182.863 203.789C182.863 205.734 182.32 207.297 181.234 208.477C180.148 209.648 178.691 210.234 176.863 210.234C175.035 210.234 173.574 209.648 172.48 208.477C171.395 207.305 170.852 205.711 170.852 203.695V203.543ZM174.238 203.789C174.238 204.992 174.465 205.914 174.918 206.555C175.371 207.188 176.02 207.504 176.863 207.504C177.684 207.504 178.324 207.191 178.785 206.566C179.246 205.934 179.477 204.926 179.477 203.543C179.477 202.363 179.246 201.449 178.785 200.801C178.324 200.152 177.676 199.828 176.84 199.828C176.012 199.828 175.371 200.152 174.918 200.801C174.465 201.441 174.238 202.438 174.238 203.789Z" fill="black"/>
<path d="M0 82H968V152H0V82Z" fill="#EBFFFE"/>
<path d="M33.8633 120H30.9102V102.938H33.8633V120ZM39.875 107.32L39.957 108.785C40.8945 107.652 42.125 107.086 43.6484 107.086C46.2891 107.086 47.6328 108.598 47.6797 111.621V120H44.832V111.785C44.832 110.98 44.6562 110.387 44.3047 110.004C43.9609 109.613 43.3945 109.418 42.6055 109.418C41.457 109.418 40.6016 109.938 40.0391 110.977V120H37.1914V107.32H39.875ZM53.6211 120H50.7734V107.32H53.6211V120ZM50.5977 104.027C50.5977 103.59 50.7344 103.227 51.0078 102.938C51.2891 102.648 51.6875 102.504 52.2031 102.504C52.7188 102.504 53.1172 102.648 53.3984 102.938C53.6797 103.227 53.8203 103.59 53.8203 104.027C53.8203 104.457 53.6797 104.816 53.3984 105.105C53.1172 105.387 52.7188 105.527 52.2031 105.527C51.6875 105.527 51.2891 105.387 51.0078 105.105C50.7344 104.816 50.5977 104.457 50.5977 104.027ZM61.9414 117.961C62.6523 117.961 63.2422 117.754 63.7109 117.34C64.1797 116.926 64.4297 116.414 64.4609 115.805H67.1445C67.1133 116.594 66.8672 117.332 66.4062 118.02C65.9453 118.699 65.3203 119.238 64.5312 119.637C63.7422 120.035 62.8906 120.234 61.9766 120.234C60.2031 120.234 58.7969 119.66 57.7578 118.512C56.7188 117.363 56.1992 115.777 56.1992 113.754V113.461C56.1992 111.531 56.7148 109.988 57.7461 108.832C58.7773 107.668 60.1836 107.086 61.9648 107.086C63.4727 107.086 64.6992 107.527 65.6445 108.41C66.5977 109.285 67.0977 110.438 67.1445 111.867H64.4609C64.4297 111.141 64.1797 110.543 63.7109 110.074C63.25 109.605 62.6602 109.371 61.9414 109.371C61.0195 109.371 60.3086 109.707 59.8086 110.379C59.3086 111.043 59.0547 112.055 59.0469 113.414V113.871C59.0469 115.246 59.293 116.273 59.7852 116.953C60.2852 117.625 61.0039 117.961 61.9414 117.961ZM72.3242 120H69.4766V107.32H72.3242V120ZM69.3008 104.027C69.3008 103.59 69.4375 103.227 69.7109 102.938C69.9922 102.648 70.3906 102.504 70.9062 102.504C71.4219 102.504 71.8203 102.648 72.1016 102.938C72.3828 103.227 72.5234 103.59 72.5234 104.027C72.5234 104.457 72.3828 104.816 72.1016 105.105C71.8203 105.387 71.4219 105.527 70.9062 105.527C70.3906 105.527 69.9922 105.387 69.7109 105.105C69.4375 104.816 69.3008 104.457 69.3008 104.027ZM74.9023 113.543C74.9023 112.301 75.1484 111.184 75.6406 110.191C76.1328 109.191 76.8242 108.426 77.7148 107.895C78.6055 107.355 79.6289 107.086 80.7852 107.086C82.4961 107.086 83.8828 107.637 84.9453 108.738C86.0156 109.84 86.5938 111.301 86.6797 113.121L86.6914 113.789C86.6914 115.039 86.4492 116.156 85.9648 117.141C85.4883 118.125 84.8008 118.887 83.9023 119.426C83.0117 119.965 81.9805 120.234 80.8086 120.234C79.0195 120.234 77.5859 119.641 76.5078 118.453C75.4375 117.258 74.9023 115.668 74.9023 113.684V113.543ZM77.75 113.789C77.75 115.094 78.0195 116.117 78.5586 116.859C79.0977 117.594 79.8477 117.961 80.8086 117.961C81.7695 117.961 82.5156 117.586 83.0469 116.836C83.5859 116.086 83.8555 114.988 83.8555 113.543C83.8555 112.262 83.5781 111.246 83.0234 110.496C82.4766 109.746 81.7305 109.371 80.7852 109.371C79.8555 109.371 79.1172 109.742 78.5703 110.484C78.0234 111.219 77.75 112.32 77.75 113.789Z" fill="black"/>
<path d="M151.863 120H148.91V102.938H151.863V120ZM157.875 107.32L157.957 108.785C158.895 107.652 160.125 107.086 161.648 107.086C164.289 107.086 165.633 108.598 165.68 111.621V120H162.832V111.785C162.832 110.98 162.656 110.387 162.305 110.004C161.961 109.613 161.395 109.418 160.605 109.418C159.457 109.418 158.602 109.938 158.039 110.977V120H155.191V107.32H157.875ZM175.699 116.555C175.699 116.047 175.488 115.66 175.066 115.395C174.652 115.129 173.961 114.895 172.992 114.691C172.023 114.488 171.215 114.23 170.566 113.918C169.145 113.23 168.434 112.234 168.434 110.93C168.434 109.836 168.895 108.922 169.816 108.188C170.738 107.453 171.91 107.086 173.332 107.086C174.848 107.086 176.07 107.461 177 108.211C177.938 108.961 178.406 109.934 178.406 111.129H175.559C175.559 110.582 175.355 110.129 174.949 109.77C174.543 109.402 174.004 109.219 173.332 109.219C172.707 109.219 172.195 109.363 171.797 109.652C171.406 109.941 171.211 110.328 171.211 110.812C171.211 111.25 171.395 111.59 171.762 111.832C172.129 112.074 172.871 112.32 173.988 112.57C175.105 112.812 175.98 113.105 176.613 113.449C177.254 113.785 177.727 114.191 178.031 114.668C178.344 115.145 178.5 115.723 178.5 116.402C178.5 117.543 178.027 118.469 177.082 119.18C176.137 119.883 174.898 120.234 173.367 120.234C172.328 120.234 171.402 120.047 170.59 119.672C169.777 119.297 169.145 118.781 168.691 118.125C168.238 117.469 168.012 116.762 168.012 116.004H170.777C170.816 116.676 171.07 117.195 171.539 117.562C172.008 117.922 172.629 118.102 173.402 118.102C174.152 118.102 174.723 117.961 175.113 117.68C175.504 117.391 175.699 117.016 175.699 116.555ZM184.559 104.238V107.32H186.797V109.43H184.559V116.508C184.559 116.992 184.652 117.344 184.84 117.562C185.035 117.773 185.379 117.879 185.871 117.879C186.199 117.879 186.531 117.84 186.867 117.762V119.965C186.219 120.145 185.594 120.234 184.992 120.234C182.805 120.234 181.711 119.027 181.711 116.613V109.43H179.625V107.32H181.711V104.238H184.559ZM195.621 109.922C195.246 109.859 194.859 109.828 194.461 109.828C193.156 109.828 192.277 110.328 191.824 111.328V120H188.977V107.32H191.695L191.766 108.738C192.453 107.637 193.406 107.086 194.625 107.086C195.031 107.086 195.367 107.141 195.633 107.25L195.621 109.922ZM205.102 118.758C204.266 119.742 203.078 120.234 201.539 120.234C200.164 120.234 199.121 119.832 198.41 119.027C197.707 118.223 197.355 117.059 197.355 115.535V107.32H200.203V115.5C200.203 117.109 200.871 117.914 202.207 117.914C203.59 117.914 204.523 117.418 205.008 116.426V107.32H207.855V120H205.172L205.102 118.758ZM215.965 117.961C216.676 117.961 217.266 117.754 217.734 117.34C218.203 116.926 218.453 116.414 218.484 115.805H221.168C221.137 116.594 220.891 117.332 220.43 118.02C219.969 118.699 219.344 119.238 218.555 119.637C217.766 120.035 216.914 120.234 216 120.234C214.227 120.234 212.82 119.66 211.781 118.512C210.742 117.363 210.223 115.777 210.223 113.754V113.461C210.223 111.531 210.738 109.988 211.77 108.832C212.801 107.668 214.207 107.086 215.988 107.086C217.496 107.086 218.723 107.527 219.668 108.41C220.621 109.285 221.121 110.438 221.168 111.867H218.484C218.453 111.141 218.203 110.543 217.734 110.074C217.273 109.605 216.684 109.371 215.965 109.371C215.043 109.371 214.332 109.707 213.832 110.379C213.332 111.043 213.078 112.055 213.07 113.414V113.871C213.07 115.246 213.316 116.273 213.809 116.953C214.309 117.625 215.027 117.961 215.965 117.961ZM228.527 117.961C229.238 117.961 229.828 117.754 230.297 117.34C230.766 116.926 231.016 116.414 231.047 115.805H233.73C233.699 116.594 233.453 117.332 232.992 118.02C232.531 118.699 231.906 119.238 231.117 119.637C230.328 120.035 229.477 120.234 228.562 120.234C226.789 120.234 225.383 119.66 224.344 118.512C223.305 117.363 222.785 115.777 222.785 113.754V113.461C222.785 111.531 223.301 109.988 224.332 108.832C225.363 107.668 226.77 107.086 228.551 107.086C230.059 107.086 231.285 107.527 232.23 108.41C233.184 109.285 233.684 110.438 233.73 111.867H231.047C231.016 111.141 230.766 110.543 230.297 110.074C229.836 109.605 229.246 109.371 228.527 109.371C227.605 109.371 226.895 109.707 226.395 110.379C225.895 111.043 225.641 112.055 225.633 113.414V113.871C225.633 115.246 225.879 116.273 226.371 116.953C226.871 117.625 227.59 117.961 228.527 117.961ZM238.91 120H236.062V107.32H238.91V120ZM235.887 104.027C235.887 103.59 236.023 103.227 236.297 102.938C236.578 102.648 236.977 102.504 237.492 102.504C238.008 102.504 238.406 102.648 238.688 102.938C238.969 103.227 239.109 103.59 239.109 104.027C239.109 104.457 238.969 104.816 238.688 105.105C238.406 105.387 238.008 105.527 237.492 105.527C236.977 105.527 236.578 105.387 236.297 105.105C236.023 104.816 235.887 104.457 235.887 104.027ZM241.488 113.543C241.488 112.301 241.734 111.184 242.227 110.191C242.719 109.191 243.41 108.426 244.301 107.895C245.191 107.355 246.215 107.086 247.371 107.086C249.082 107.086 250.469 107.637 251.531 108.738C252.602 109.84 253.18 111.301 253.266 113.121L253.277 113.789C253.277 115.039 253.035 116.156 252.551 117.141C252.074 118.125 251.387 118.887 250.488 119.426C249.598 119.965 248.566 120.234 247.395 120.234C245.605 120.234 244.172 119.641 243.094 118.453C242.023 117.258 241.488 115.668 241.488 113.684V113.543ZM244.336 113.789C244.336 115.094 244.605 116.117 245.145 116.859C245.684 117.594 246.434 117.961 247.395 117.961C248.355 117.961 249.102 117.586 249.633 116.836C250.172 116.086 250.441 114.988 250.441 113.543C250.441 112.262 250.164 111.246 249.609 110.496C249.062 109.746 248.316 109.371 247.371 109.371C246.441 109.371 245.703 109.742 245.156 110.484C244.609 111.219 244.336 112.32 244.336 113.789ZM258.328 107.32L258.41 108.785C259.348 107.652 260.578 107.086 262.102 107.086C264.742 107.086 266.086 108.598 266.133 111.621V120H263.285V111.785C263.285 110.98 263.109 110.387 262.758 110.004C262.414 109.613 261.848 109.418 261.059 109.418C259.91 109.418 259.055 109.938 258.492 110.977V120H255.645V107.32H258.328ZM274.629 120.234C272.824 120.234 271.359 119.668 270.234 118.535C269.117 117.395 268.559 115.879 268.559 113.988V113.637C268.559 112.371 268.801 111.242 269.285 110.25C269.777 109.25 270.465 108.473 271.348 107.918C272.23 107.363 273.215 107.086 274.301 107.086C276.027 107.086 277.359 107.637 278.297 108.738C279.242 109.84 279.715 111.398 279.715 113.414V114.562H271.43C271.516 115.609 271.863 116.438 272.473 117.047C273.09 117.656 273.863 117.961 274.793 117.961C276.098 117.961 277.16 117.434 277.98 116.379L279.516 117.844C279.008 118.602 278.328 119.191 277.477 119.613C276.633 120.027 275.684 120.234 274.629 120.234ZM274.289 109.371C273.508 109.371 272.875 109.645 272.391 110.191C271.914 110.738 271.609 111.5 271.477 112.477H276.902V112.266C276.84 111.312 276.586 110.594 276.141 110.109C275.695 109.617 275.078 109.371 274.289 109.371ZM289.043 116.555C289.043 116.047 288.832 115.66 288.41 115.395C287.996 115.129 287.305 114.895 286.336 114.691C285.367 114.488 284.559 114.23 283.91 113.918C282.488 113.23 281.777 112.234 281.777 110.93C281.777 109.836 282.238 108.922 283.16 108.188C284.082 107.453 285.254 107.086 286.676 107.086C288.191 107.086 289.414 107.461 290.344 108.211C291.281 108.961 291.75 109.934 291.75 111.129H288.902C288.902 110.582 288.699 110.129 288.293 109.77C287.887 109.402 287.348 109.219 286.676 109.219C286.051 109.219 285.539 109.363 285.141 109.652C284.75 109.941 284.555 110.328 284.555 110.812C284.555 111.25 284.738 111.59 285.105 111.832C285.473 112.074 286.215 112.32 287.332 112.57C288.449 112.812 289.324 113.105 289.957 113.449C290.598 113.785 291.07 114.191 291.375 114.668C291.688 115.145 291.844 115.723 291.844 116.402C291.844 117.543 291.371 118.469 290.426 119.18C289.48 119.883 288.242 120.234 286.711 120.234C285.672 120.234 284.746 120.047 283.934 119.672C283.121 119.297 282.488 118.781 282.035 118.125C281.582 117.469 281.355 116.762 281.355 116.004H284.121C284.16 116.676 284.414 117.195 284.883 117.562C285.352 117.922 285.973 118.102 286.746 118.102C287.496 118.102 288.066 117.961 288.457 117.68C288.848 117.391 289.043 117.016 289.043 116.555Z" fill="black"/>
<path d="M0 82V81H-1V82H0ZM968 82H969V81H968V82ZM968 152V153H969V152H968ZM0 152H-1V153H0V152ZM0 83H968V81H0V83ZM967 82V152H969V82H967ZM968 151H0V153H968V151ZM1 152V82H-1V152H1Z" fill="white"/>
<path d="M0 0H968V83H0V0Z" fill="#11D0C5"/>
<path d="M0 0V-1H-1V0H0ZM968 0H969V-1H968V0ZM968 83V84H969V83H968ZM0 83H-1V84H0V83ZM0 1H968V-1H0V1ZM967 0V83H969V0H967ZM968 82H0V84H968V82ZM1 83V0H-1V83H1Z" fill="white"/>
</svg>
