<svg width="968" height="728" viewBox="0 0 968 728" fill="none" xmlns="http://www.w3.org/2000/svg">
<rect x="1" y="1" width="966" height="726" fill="white"/>
<path d="M0 656H485V728H0V656Z" fill="white"/>
<path d="M22.4062 709.053C22.4062 708.74 22.4974 708.48 22.6797 708.271C22.8685 708.063 23.1484 707.959 23.5195 707.959C23.8906 707.959 24.1706 708.063 24.3594 708.271C24.5547 708.48 24.6523 708.74 24.6523 709.053C24.6523 709.352 24.5547 709.603 24.3594 709.805C24.1706 710.007 23.8906 710.107 23.5195 710.107C23.1484 710.107 22.8685 710.007 22.6797 709.805C22.4974 709.603 22.4062 709.352 22.4062 709.053Z" fill="black"/>
<path d="M0 82H968V152H0V82Z" fill="#EBFFFE"/>
<path d="M33.8633 120H30.9102V102.938H33.8633V120ZM39.875 107.32L39.957 108.785C40.8945 107.652 42.125 107.086 43.6484 107.086C46.2891 107.086 47.6328 108.598 47.6797 111.621V120H44.832V111.785C44.832 110.98 44.6562 110.387 44.3047 110.004C43.9609 109.613 43.3945 109.418 42.6055 109.418C41.457 109.418 40.6016 109.938 40.0391 110.977V120H37.1914V107.32H39.875ZM53.6211 120H50.7734V107.32H53.6211V120ZM50.5977 104.027C50.5977 103.59 50.7344 103.227 51.0078 102.938C51.2891 102.648 51.6875 102.504 52.2031 102.504C52.7188 102.504 53.1172 102.648 53.3984 102.938C53.6797 103.227 53.8203 103.59 53.8203 104.027C53.8203 104.457 53.6797 104.816 53.3984 105.105C53.1172 105.387 52.7188 105.527 52.2031 105.527C51.6875 105.527 51.2891 105.387 51.0078 105.105C50.7344 104.816 50.5977 104.457 50.5977 104.027ZM61.9414 117.961C62.6523 117.961 63.2422 117.754 63.7109 117.34C64.1797 116.926 64.4297 116.414 64.4609 115.805H67.1445C67.1133 116.594 66.8672 117.332 66.4062 118.02C65.9453 118.699 65.3203 119.238 64.5312 119.637C63.7422 120.035 62.8906 120.234 61.9766 120.234C60.2031 120.234 58.7969 119.66 57.7578 118.512C56.7188 117.363 56.1992 115.777 56.1992 113.754V113.461C56.1992 111.531 56.7148 109.988 57.7461 108.832C58.7773 107.668 60.1836 107.086 61.9648 107.086C63.4727 107.086 64.6992 107.527 65.6445 108.41C66.5977 109.285 67.0977 110.438 67.1445 111.867H64.4609C64.4297 111.141 64.1797 110.543 63.7109 110.074C63.25 109.605 62.6602 109.371 61.9414 109.371C61.0195 109.371 60.3086 109.707 59.8086 110.379C59.3086 111.043 59.0547 112.055 59.0469 113.414V113.871C59.0469 115.246 59.293 116.273 59.7852 116.953C60.2852 117.625 61.0039 117.961 61.9414 117.961ZM72.3242 120H69.4766V107.32H72.3242V120ZM69.3008 104.027C69.3008 103.59 69.4375 103.227 69.7109 102.938C69.9922 102.648 70.3906 102.504 70.9062 102.504C71.4219 102.504 71.8203 102.648 72.1016 102.938C72.3828 103.227 72.5234 103.59 72.5234 104.027C72.5234 104.457 72.3828 104.816 72.1016 105.105C71.8203 105.387 71.4219 105.527 70.9062 105.527C70.3906 105.527 69.9922 105.387 69.7109 105.105C69.4375 104.816 69.3008 104.457 69.3008 104.027ZM74.9023 113.543C74.9023 112.301 75.1484 111.184 75.6406 110.191C76.1328 109.191 76.8242 108.426 77.7148 107.895C78.6055 107.355 79.6289 107.086 80.7852 107.086C82.4961 107.086 83.8828 107.637 84.9453 108.738C86.0156 109.84 86.5938 111.301 86.6797 113.121L86.6914 113.789C86.6914 115.039 86.4492 116.156 85.9648 117.141C85.4883 118.125 84.8008 118.887 83.9023 119.426C83.0117 119.965 81.9805 120.234 80.8086 120.234C79.0195 120.234 77.5859 119.641 76.5078 118.453C75.4375 117.258 74.9023 115.668 74.9023 113.684V113.543ZM77.75 113.789C77.75 115.094 78.0195 116.117 78.5586 116.859C79.0977 117.594 79.8477 117.961 80.8086 117.961C81.7695 117.961 82.5156 117.586 83.0469 116.836C83.5859 116.086 83.8555 114.988 83.8555 113.543C83.8555 112.262 83.5781 111.246 83.0234 110.496C82.4766 109.746 81.7305 109.371 80.7852 109.371C79.8555 109.371 79.1172 109.742 78.5703 110.484C78.0234 111.219 77.75 112.32 77.75 113.789Z" fill="black"/>
<path d="M151.863 120H148.91V102.938H151.863V120ZM157.875 107.32L157.957 108.785C158.895 107.652 160.125 107.086 161.648 107.086C164.289 107.086 165.633 108.598 165.68 111.621V120H162.832V111.785C162.832 110.98 162.656 110.387 162.305 110.004C161.961 109.613 161.395 109.418 160.605 109.418C159.457 109.418 158.602 109.938 158.039 110.977V120H155.191V107.32H157.875ZM175.699 116.555C175.699 116.047 175.488 115.66 175.066 115.395C174.652 115.129 173.961 114.895 172.992 114.691C172.023 114.488 171.215 114.23 170.566 113.918C169.145 113.23 168.434 112.234 168.434 110.93C168.434 109.836 168.895 108.922 169.816 108.188C170.738 107.453 171.91 107.086 173.332 107.086C174.848 107.086 176.07 107.461 177 108.211C177.938 108.961 178.406 109.934 178.406 111.129H175.559C175.559 110.582 175.355 110.129 174.949 109.77C174.543 109.402 174.004 109.219 173.332 109.219C172.707 109.219 172.195 109.363 171.797 109.652C171.406 109.941 171.211 110.328 171.211 110.812C171.211 111.25 171.395 111.59 171.762 111.832C172.129 112.074 172.871 112.32 173.988 112.57C175.105 112.812 175.98 113.105 176.613 113.449C177.254 113.785 177.727 114.191 178.031 114.668C178.344 115.145 178.5 115.723 178.5 116.402C178.5 117.543 178.027 118.469 177.082 119.18C176.137 119.883 174.898 120.234 173.367 120.234C172.328 120.234 171.402 120.047 170.59 119.672C169.777 119.297 169.145 118.781 168.691 118.125C168.238 117.469 168.012 116.762 168.012 116.004H170.777C170.816 116.676 171.07 117.195 171.539 117.562C172.008 117.922 172.629 118.102 173.402 118.102C174.152 118.102 174.723 117.961 175.113 117.68C175.504 117.391 175.699 117.016 175.699 116.555ZM184.559 104.238V107.32H186.797V109.43H184.559V116.508C184.559 116.992 184.652 117.344 184.84 117.562C185.035 117.773 185.379 117.879 185.871 117.879C186.199 117.879 186.531 117.84 186.867 117.762V119.965C186.219 120.145 185.594 120.234 184.992 120.234C182.805 120.234 181.711 119.027 181.711 116.613V109.43H179.625V107.32H181.711V104.238H184.559ZM195.621 109.922C195.246 109.859 194.859 109.828 194.461 109.828C193.156 109.828 192.277 110.328 191.824 111.328V120H188.977V107.32H191.695L191.766 108.738C192.453 107.637 193.406 107.086 194.625 107.086C195.031 107.086 195.367 107.141 195.633 107.25L195.621 109.922ZM205.102 118.758C204.266 119.742 203.078 120.234 201.539 120.234C200.164 120.234 199.121 119.832 198.41 119.027C197.707 118.223 197.355 117.059 197.355 115.535V107.32H200.203V115.5C200.203 117.109 200.871 117.914 202.207 117.914C203.59 117.914 204.523 117.418 205.008 116.426V107.32H207.855V120H205.172L205.102 118.758ZM215.965 117.961C216.676 117.961 217.266 117.754 217.734 117.34C218.203 116.926 218.453 116.414 218.484 115.805H221.168C221.137 116.594 220.891 117.332 220.43 118.02C219.969 118.699 219.344 119.238 218.555 119.637C217.766 120.035 216.914 120.234 216 120.234C214.227 120.234 212.82 119.66 211.781 118.512C210.742 117.363 210.223 115.777 210.223 113.754V113.461C210.223 111.531 210.738 109.988 211.77 108.832C212.801 107.668 214.207 107.086 215.988 107.086C217.496 107.086 218.723 107.527 219.668 108.41C220.621 109.285 221.121 110.438 221.168 111.867H218.484C218.453 111.141 218.203 110.543 217.734 110.074C217.273 109.605 216.684 109.371 215.965 109.371C215.043 109.371 214.332 109.707 213.832 110.379C213.332 111.043 213.078 112.055 213.07 113.414V113.871C213.07 115.246 213.316 116.273 213.809 116.953C214.309 117.625 215.027 117.961 215.965 117.961ZM228.527 117.961C229.238 117.961 229.828 117.754 230.297 117.34C230.766 116.926 231.016 116.414 231.047 115.805H233.73C233.699 116.594 233.453 117.332 232.992 118.02C232.531 118.699 231.906 119.238 231.117 119.637C230.328 120.035 229.477 120.234 228.562 120.234C226.789 120.234 225.383 119.66 224.344 118.512C223.305 117.363 222.785 115.777 222.785 113.754V113.461C222.785 111.531 223.301 109.988 224.332 108.832C225.363 107.668 226.77 107.086 228.551 107.086C230.059 107.086 231.285 107.527 232.23 108.41C233.184 109.285 233.684 110.438 233.73 111.867H231.047C231.016 111.141 230.766 110.543 230.297 110.074C229.836 109.605 229.246 109.371 228.527 109.371C227.605 109.371 226.895 109.707 226.395 110.379C225.895 111.043 225.641 112.055 225.633 113.414V113.871C225.633 115.246 225.879 116.273 226.371 116.953C226.871 117.625 227.59 117.961 228.527 117.961ZM238.91 120H236.062V107.32H238.91V120ZM235.887 104.027C235.887 103.59 236.023 103.227 236.297 102.938C236.578 102.648 236.977 102.504 237.492 102.504C238.008 102.504 238.406 102.648 238.688 102.938C238.969 103.227 239.109 103.59 239.109 104.027C239.109 104.457 238.969 104.816 238.688 105.105C238.406 105.387 238.008 105.527 237.492 105.527C236.977 105.527 236.578 105.387 236.297 105.105C236.023 104.816 235.887 104.457 235.887 104.027ZM241.488 113.543C241.488 112.301 241.734 111.184 242.227 110.191C242.719 109.191 243.41 108.426 244.301 107.895C245.191 107.355 246.215 107.086 247.371 107.086C249.082 107.086 250.469 107.637 251.531 108.738C252.602 109.84 253.18 111.301 253.266 113.121L253.277 113.789C253.277 115.039 253.035 116.156 252.551 117.141C252.074 118.125 251.387 118.887 250.488 119.426C249.598 119.965 248.566 120.234 247.395 120.234C245.605 120.234 244.172 119.641 243.094 118.453C242.023 117.258 241.488 115.668 241.488 113.684V113.543ZM244.336 113.789C244.336 115.094 244.605 116.117 245.145 116.859C245.684 117.594 246.434 117.961 247.395 117.961C248.355 117.961 249.102 117.586 249.633 116.836C250.172 116.086 250.441 114.988 250.441 113.543C250.441 112.262 250.164 111.246 249.609 110.496C249.062 109.746 248.316 109.371 247.371 109.371C246.441 109.371 245.703 109.742 245.156 110.484C244.609 111.219 244.336 112.32 244.336 113.789ZM258.328 107.32L258.41 108.785C259.348 107.652 260.578 107.086 262.102 107.086C264.742 107.086 266.086 108.598 266.133 111.621V120H263.285V111.785C263.285 110.98 263.109 110.387 262.758 110.004C262.414 109.613 261.848 109.418 261.059 109.418C259.91 109.418 259.055 109.938 258.492 110.977V120H255.645V107.32H258.328ZM274.629 120.234C272.824 120.234 271.359 119.668 270.234 118.535C269.117 117.395 268.559 115.879 268.559 113.988V113.637C268.559 112.371 268.801 111.242 269.285 110.25C269.777 109.25 270.465 108.473 271.348 107.918C272.23 107.363 273.215 107.086 274.301 107.086C276.027 107.086 277.359 107.637 278.297 108.738C279.242 109.84 279.715 111.398 279.715 113.414V114.562H271.43C271.516 115.609 271.863 116.438 272.473 117.047C273.09 117.656 273.863 117.961 274.793 117.961C276.098 117.961 277.16 117.434 277.98 116.379L279.516 117.844C279.008 118.602 278.328 119.191 277.477 119.613C276.633 120.027 275.684 120.234 274.629 120.234ZM274.289 109.371C273.508 109.371 272.875 109.645 272.391 110.191C271.914 110.738 271.609 111.5 271.477 112.477H276.902V112.266C276.84 111.312 276.586 110.594 276.141 110.109C275.695 109.617 275.078 109.371 274.289 109.371ZM289.043 116.555C289.043 116.047 288.832 115.66 288.41 115.395C287.996 115.129 287.305 114.895 286.336 114.691C285.367 114.488 284.559 114.23 283.91 113.918C282.488 113.23 281.777 112.234 281.777 110.93C281.777 109.836 282.238 108.922 283.16 108.188C284.082 107.453 285.254 107.086 286.676 107.086C288.191 107.086 289.414 107.461 290.344 108.211C291.281 108.961 291.75 109.934 291.75 111.129H288.902C288.902 110.582 288.699 110.129 288.293 109.77C287.887 109.402 287.348 109.219 286.676 109.219C286.051 109.219 285.539 109.363 285.141 109.652C284.75 109.941 284.555 110.328 284.555 110.812C284.555 111.25 284.738 111.59 285.105 111.832C285.473 112.074 286.215 112.32 287.332 112.57C288.449 112.812 289.324 113.105 289.957 113.449C290.598 113.785 291.07 114.191 291.375 114.668C291.688 115.145 291.844 115.723 291.844 116.402C291.844 117.543 291.371 118.469 290.426 119.18C289.48 119.883 288.242 120.234 286.711 120.234C285.672 120.234 284.746 120.047 283.934 119.672C283.121 119.297 282.488 118.781 282.035 118.125C281.582 117.469 281.355 116.762 281.355 116.004H284.121C284.16 116.676 284.414 117.195 284.883 117.562C285.352 117.922 285.973 118.102 286.746 118.102C287.496 118.102 288.066 117.961 288.457 117.68C288.848 117.391 289.043 117.016 289.043 116.555Z" fill="black"/>
<path d="M0 82V81H-1V82H0ZM968 82H969V81H968V82ZM968 152V153H969V152H968ZM0 152H-1V153H0V152ZM0 83H968V81H0V83ZM967 82V152H969V82H967ZM968 151H0V153H968V151ZM1 152V82H-1V152H1Z" fill="white"/>
<path d="M0 0H968V83H0V0Z" fill="#11D0C5"/>
<path d="M0 0V-1H-1V0H0ZM968 0H969V-1H968V0ZM968 83V84H969V83H968ZM0 83H-1V84H0V83ZM0 1H968V-1H0V1ZM967 0V83H969V0H967ZM968 82H0V84H968V82ZM1 83V0H-1V83H1Z" fill="white"/>
<rect y="152" width="968" height="504" fill="white"/>
<rect x="182.5" y="278.5" width="599" height="34" fill="white" stroke="black"/>
<path d="M31.5781 300H29.6934L22.5352 289.043V300H20.6504V285.781H22.5352L29.7129 296.787V285.781H31.5781V300ZM34.1465 294.619C34.1465 293.584 34.3483 292.653 34.752 291.826C35.1621 290.999 35.7285 290.361 36.4512 289.912C37.1803 289.463 38.0104 289.238 38.9414 289.238C40.3802 289.238 41.5423 289.736 42.4277 290.732C43.3197 291.729 43.7656 293.053 43.7656 294.707V294.834C43.7656 295.863 43.5671 296.787 43.1699 297.607C42.7793 298.421 42.2161 299.056 41.4805 299.512C40.7513 299.967 39.9115 300.195 38.9609 300.195C37.5286 300.195 36.3665 299.697 35.4746 298.701C34.5892 297.705 34.1465 296.387 34.1465 294.746V294.619ZM35.9629 294.834C35.9629 296.006 36.2331 296.947 36.7734 297.656C37.3203 298.366 38.0495 298.721 38.9609 298.721C39.8789 298.721 40.6081 298.363 41.1484 297.646C41.6888 296.924 41.959 295.915 41.959 294.619C41.959 293.46 41.6823 292.523 41.1289 291.807C40.582 291.084 39.8529 290.723 38.9414 290.723C38.0495 290.723 37.3301 291.077 36.7832 291.787C36.2363 292.497 35.9629 293.512 35.9629 294.834ZM47.7305 289.434L47.7793 290.605C48.554 289.694 49.599 289.238 50.9141 289.238C52.3919 289.238 53.3978 289.805 53.9316 290.938C54.2832 290.43 54.7389 290.02 55.2988 289.707C55.8652 289.395 56.5326 289.238 57.3008 289.238C59.6185 289.238 60.7969 290.465 60.8359 292.92V300H59.0293V293.027C59.0293 292.272 58.8568 291.709 58.5117 291.338C58.1667 290.96 57.5872 290.771 56.7734 290.771C56.1029 290.771 55.5462 290.973 55.1035 291.377C54.6608 291.774 54.4036 292.311 54.332 292.988V300H52.5156V293.076C52.5156 291.54 51.7637 290.771 50.2598 290.771C49.0749 290.771 48.2643 291.276 47.8281 292.285V300H46.0215V289.434H47.7305ZM72.5156 294.834C72.5156 296.449 72.1445 297.747 71.4023 298.73C70.6602 299.707 69.6641 300.195 68.4141 300.195C67.0794 300.195 66.0475 299.723 65.3184 298.779L65.2305 300H63.5703V285H65.377V290.596C66.1061 289.691 67.112 289.238 68.3945 289.238C69.6771 289.238 70.6829 289.723 71.4121 290.693C72.1478 291.663 72.5156 292.992 72.5156 294.678V294.834ZM70.709 294.629C70.709 293.398 70.4714 292.448 69.9961 291.777C69.5208 291.107 68.8372 290.771 67.9453 290.771C66.7539 290.771 65.8978 291.325 65.377 292.432V297.002C65.9303 298.109 66.793 298.662 67.9648 298.662C68.8307 298.662 69.5046 298.327 69.9863 297.656C70.4681 296.986 70.709 295.977 70.709 294.629ZM79.9082 291.055C79.6348 291.009 79.3385 290.986 79.0195 290.986C77.8346 290.986 77.0306 291.491 76.6074 292.5V300H74.8008V289.434H76.5586L76.5879 290.654C77.1803 289.71 78.0202 289.238 79.1074 289.238C79.459 289.238 79.7259 289.284 79.9082 289.375V291.055ZM85.7676 300.195C84.3353 300.195 83.1699 299.727 82.2715 298.789C81.373 297.845 80.9238 296.585 80.9238 295.01V294.678C80.9238 293.63 81.1224 292.695 81.5195 291.875C81.9232 291.048 82.4831 290.404 83.1992 289.941C83.9219 289.473 84.7031 289.238 85.543 289.238C86.9167 289.238 87.9844 289.691 88.7461 290.596C89.5078 291.501 89.8887 292.796 89.8887 294.482V295.234H82.7305C82.7565 296.276 83.0592 297.119 83.6387 297.764C84.2246 298.402 84.9668 298.721 85.8652 298.721C86.5033 298.721 87.0436 298.59 87.4863 298.33C87.929 298.07 88.3164 297.725 88.6484 297.295L89.752 298.154C88.8665 299.515 87.5384 300.195 85.7676 300.195ZM85.543 290.723C84.8138 290.723 84.2018 290.99 83.707 291.523C83.2122 292.051 82.9062 292.793 82.7891 293.75H88.082V293.613C88.0299 292.695 87.7826 291.986 87.3398 291.484C86.8971 290.977 86.2982 290.723 85.543 290.723ZM103.189 285.781H105.074V295.85C105.074 297.21 104.664 298.275 103.844 299.043C103.03 299.811 101.943 300.195 100.582 300.195C99.1693 300.195 98.069 299.834 97.2812 299.111C96.4935 298.389 96.0996 297.376 96.0996 296.074H97.9746C97.9746 296.888 98.196 297.523 98.6387 297.979C99.0879 298.434 99.7357 298.662 100.582 298.662C101.357 298.662 101.982 298.418 102.457 297.93C102.939 297.441 103.183 296.758 103.189 295.879V285.781ZM114.508 298.955C113.805 299.782 112.773 300.195 111.412 300.195C110.286 300.195 109.426 299.87 108.834 299.219C108.248 298.561 107.952 297.591 107.945 296.309V289.434H109.752V296.26C109.752 297.861 110.403 298.662 111.705 298.662C113.085 298.662 114.003 298.148 114.459 297.119V289.434H116.266V300H114.547L114.508 298.955ZM118.59 294.629C118.59 292.982 118.971 291.673 119.732 290.703C120.494 289.727 121.503 289.238 122.76 289.238C124.049 289.238 125.055 289.694 125.777 290.605L125.865 289.434H127.516V299.746C127.516 301.113 127.109 302.191 126.295 302.979C125.488 303.766 124.4 304.16 123.033 304.16C122.271 304.16 121.526 303.997 120.797 303.672C120.068 303.346 119.511 302.9 119.127 302.334L120.064 301.25C120.839 302.207 121.786 302.686 122.906 302.686C123.785 302.686 124.469 302.438 124.957 301.943C125.452 301.449 125.699 300.752 125.699 299.854V298.945C124.977 299.779 123.99 300.195 122.74 300.195C121.503 300.195 120.501 299.697 119.732 298.701C118.971 297.705 118.59 296.348 118.59 294.629ZM120.406 294.834C120.406 296.025 120.65 296.963 121.139 297.646C121.627 298.324 122.311 298.662 123.189 298.662C124.329 298.662 125.165 298.145 125.699 297.109V292.285C125.146 291.276 124.316 290.771 123.209 290.771C122.33 290.771 121.643 291.113 121.148 291.797C120.654 292.48 120.406 293.493 120.406 294.834ZM136.773 300C136.669 299.792 136.585 299.421 136.52 298.887C135.68 299.759 134.677 300.195 133.512 300.195C132.47 300.195 131.614 299.902 130.943 299.316C130.279 298.724 129.947 297.975 129.947 297.07C129.947 295.97 130.364 295.117 131.197 294.512C132.037 293.9 133.215 293.594 134.732 293.594H136.49V292.764C136.49 292.132 136.301 291.631 135.924 291.26C135.546 290.882 134.99 290.693 134.254 290.693C133.609 290.693 133.069 290.856 132.633 291.182C132.197 291.507 131.979 291.901 131.979 292.363H130.162C130.162 291.836 130.348 291.328 130.719 290.84C131.096 290.345 131.604 289.954 132.242 289.668C132.887 289.382 133.593 289.238 134.361 289.238C135.579 289.238 136.533 289.544 137.223 290.156C137.913 290.762 138.271 291.598 138.297 292.666V297.529C138.297 298.499 138.421 299.271 138.668 299.844V300H136.773ZM133.775 298.623C134.342 298.623 134.879 298.477 135.387 298.184C135.895 297.891 136.262 297.51 136.49 297.041V294.873H135.074C132.861 294.873 131.754 295.521 131.754 296.816C131.754 297.383 131.943 297.826 132.32 298.145C132.698 298.464 133.183 298.623 133.775 298.623ZM140.689 294.629C140.689 293.008 141.074 291.706 141.842 290.723C142.61 289.733 143.616 289.238 144.859 289.238C146.096 289.238 147.076 289.661 147.799 290.508V285H149.605V300H147.945L147.857 298.867C147.135 299.753 146.129 300.195 144.84 300.195C143.616 300.195 142.617 299.694 141.842 298.691C141.074 297.689 140.689 296.38 140.689 294.766V294.629ZM142.496 294.834C142.496 296.032 142.743 296.969 143.238 297.646C143.733 298.324 144.417 298.662 145.289 298.662C146.435 298.662 147.271 298.148 147.799 297.119V292.266C147.258 291.27 146.428 290.771 145.309 290.771C144.423 290.771 143.733 291.113 143.238 291.797C142.743 292.48 142.496 293.493 142.496 294.834ZM151.939 294.619C151.939 293.584 152.141 292.653 152.545 291.826C152.955 290.999 153.521 290.361 154.244 289.912C154.973 289.463 155.803 289.238 156.734 289.238C158.173 289.238 159.335 289.736 160.221 290.732C161.113 291.729 161.559 293.053 161.559 294.707V294.834C161.559 295.863 161.36 296.787 160.963 297.607C160.572 298.421 160.009 299.056 159.273 299.512C158.544 299.967 157.704 300.195 156.754 300.195C155.322 300.195 154.16 299.697 153.268 298.701C152.382 297.705 151.939 296.387 151.939 294.746V294.619ZM153.756 294.834C153.756 296.006 154.026 296.947 154.566 297.656C155.113 298.366 155.842 298.721 156.754 298.721C157.672 298.721 158.401 298.363 158.941 297.646C159.482 296.924 159.752 295.915 159.752 294.619C159.752 293.46 159.475 292.523 158.922 291.807C158.375 291.084 157.646 290.723 156.734 290.723C155.842 290.723 155.123 291.077 154.576 291.787C154.029 292.497 153.756 293.512 153.756 294.834ZM168.932 291.055C168.658 291.009 168.362 290.986 168.043 290.986C166.858 290.986 166.054 291.491 165.631 292.5V300H163.824V289.434H165.582L165.611 290.654C166.204 289.71 167.044 289.238 168.131 289.238C168.482 289.238 168.749 289.284 168.932 289.375V291.055ZM170.543 299.053C170.543 298.74 170.634 298.48 170.816 298.271C171.005 298.063 171.285 297.959 171.656 297.959C172.027 297.959 172.307 298.063 172.496 298.271C172.691 298.48 172.789 298.74 172.789 299.053C172.789 299.352 172.691 299.603 172.496 299.805C172.307 300.007 172.027 300.107 171.656 300.107C171.285 300.107 171.005 300.007 170.816 299.805C170.634 299.603 170.543 299.352 170.543 299.053ZM170.553 290.43C170.553 290.117 170.644 289.857 170.826 289.648C171.015 289.44 171.295 289.336 171.666 289.336C172.037 289.336 172.317 289.44 172.506 289.648C172.701 289.857 172.799 290.117 172.799 290.43C172.799 290.729 172.701 290.98 172.506 291.182C172.317 291.383 172.037 291.484 171.666 291.484C171.295 291.484 171.015 291.383 170.826 291.182C170.644 290.98 170.553 290.729 170.553 290.43Z" fill="black"/>
<rect x="22.5" y="548.5" width="160" height="50" rx="13.5" fill="#10B6AC" stroke="black"/>
<rect x="243.5" y="548.5" width="160" height="50" rx="13.5" fill="white" stroke="black"/>
<path d="M72.502 577.289H66.5449L65.207 581H63.2734L68.7031 566.781H70.3438L75.7832 581H73.8594L72.502 577.289ZM67.1113 575.746H71.9453L69.5234 569.096L67.1113 575.746ZM81.6523 579.721C82.2969 579.721 82.86 579.525 83.3418 579.135C83.8236 578.744 84.0905 578.256 84.1426 577.67H85.8516C85.819 578.275 85.6107 578.852 85.2266 579.398C84.8424 579.945 84.3281 580.382 83.6836 580.707C83.0456 581.033 82.3685 581.195 81.6523 581.195C80.2135 581.195 79.0677 580.717 78.2148 579.76C77.3685 578.796 76.9453 577.481 76.9453 575.814V575.512C76.9453 574.483 77.1341 573.568 77.5117 572.768C77.8893 571.967 78.4297 571.345 79.1328 570.902C79.8424 570.46 80.679 570.238 81.6426 570.238C82.8275 570.238 83.8105 570.593 84.5918 571.303C85.3796 572.012 85.7995 572.934 85.8516 574.066H84.1426C84.0905 573.383 83.8301 572.823 83.3613 572.387C82.8991 571.944 82.3262 571.723 81.6426 571.723C80.7246 571.723 80.0117 572.055 79.5039 572.719C79.0026 573.376 78.752 574.33 78.752 575.58V575.922C78.752 577.139 79.0026 578.077 79.5039 578.734C80.0052 579.392 80.7214 579.721 81.6523 579.721ZM92.2676 581.195C90.8353 581.195 89.6699 580.727 88.7715 579.789C87.873 578.845 87.4238 577.585 87.4238 576.01V575.678C87.4238 574.63 87.6224 573.695 88.0195 572.875C88.4232 572.048 88.9831 571.404 89.6992 570.941C90.4219 570.473 91.2031 570.238 92.043 570.238C93.4167 570.238 94.4844 570.691 95.2461 571.596C96.0078 572.501 96.3887 573.796 96.3887 575.482V576.234H89.2305C89.2565 577.276 89.5592 578.119 90.1387 578.764C90.7246 579.402 91.4668 579.721 92.3652 579.721C93.0033 579.721 93.5436 579.59 93.9863 579.33C94.429 579.07 94.8164 578.725 95.1484 578.295L96.252 579.154C95.3665 580.515 94.0384 581.195 92.2676 581.195ZM92.043 571.723C91.3138 571.723 90.7018 571.99 90.207 572.523C89.7122 573.051 89.4062 573.793 89.2891 574.75H94.582V574.613C94.5299 573.695 94.2826 572.986 93.8398 572.484C93.3971 571.977 92.7982 571.723 92.043 571.723ZM107.414 575.834C107.414 577.442 107.046 578.738 106.311 579.721C105.575 580.704 104.579 581.195 103.322 581.195C102.04 581.195 101.031 580.788 100.295 579.975V585.062H98.4883V570.434H100.139L100.227 571.605C100.962 570.694 101.984 570.238 103.293 570.238C104.562 570.238 105.565 570.717 106.301 571.674C107.043 572.631 107.414 573.962 107.414 575.668V575.834ZM105.607 575.629C105.607 574.438 105.354 573.497 104.846 572.807C104.338 572.117 103.641 571.771 102.756 571.771C101.662 571.771 100.842 572.257 100.295 573.227V578.275C100.835 579.239 101.662 579.721 102.775 579.721C103.641 579.721 104.328 579.379 104.836 578.695C105.35 578.005 105.607 576.983 105.607 575.629ZM112.17 567.875V570.434H114.143V571.83H112.17V578.383C112.17 578.806 112.258 579.125 112.434 579.34C112.609 579.548 112.909 579.652 113.332 579.652C113.54 579.652 113.827 579.613 114.191 579.535V581C113.716 581.13 113.254 581.195 112.805 581.195C111.997 581.195 111.389 580.951 110.979 580.463C110.568 579.975 110.363 579.281 110.363 578.383V571.83H108.439V570.434H110.363V567.875H112.17ZM122.785 581C122.681 580.792 122.596 580.421 122.531 579.887C121.691 580.759 120.689 581.195 119.523 581.195C118.482 581.195 117.626 580.902 116.955 580.316C116.291 579.724 115.959 578.975 115.959 578.07C115.959 576.97 116.376 576.117 117.209 575.512C118.049 574.9 119.227 574.594 120.744 574.594H122.502V573.764C122.502 573.132 122.313 572.631 121.936 572.26C121.558 571.882 121.001 571.693 120.266 571.693C119.621 571.693 119.081 571.856 118.645 572.182C118.208 572.507 117.99 572.901 117.99 573.363H116.174C116.174 572.836 116.359 572.328 116.73 571.84C117.108 571.345 117.616 570.954 118.254 570.668C118.898 570.382 119.605 570.238 120.373 570.238C121.59 570.238 122.544 570.544 123.234 571.156C123.924 571.762 124.283 572.598 124.309 573.666V578.529C124.309 579.499 124.432 580.271 124.68 580.844V581H122.785ZM119.787 579.623C120.354 579.623 120.891 579.477 121.398 579.184C121.906 578.891 122.274 578.51 122.502 578.041V575.873H121.086C118.872 575.873 117.766 576.521 117.766 577.816C117.766 578.383 117.954 578.826 118.332 579.145C118.71 579.464 119.195 579.623 119.787 579.623ZM132.248 572.055C131.975 572.009 131.678 571.986 131.359 571.986C130.174 571.986 129.37 572.491 128.947 573.5V581H127.141V570.434H128.898L128.928 571.654C129.52 570.71 130.36 570.238 131.447 570.238C131.799 570.238 132.066 570.284 132.248 570.375V572.055Z" fill="black"/>
<path d="M293.109 576.488C292.934 577.992 292.377 579.154 291.439 579.975C290.508 580.788 289.268 581.195 287.719 581.195C286.039 581.195 284.691 580.593 283.676 579.389C282.667 578.184 282.162 576.573 282.162 574.555V573.188C282.162 571.866 282.396 570.704 282.865 569.701C283.34 568.699 284.011 567.93 284.877 567.396C285.743 566.856 286.745 566.586 287.885 566.586C289.395 566.586 290.606 567.009 291.518 567.855C292.429 568.695 292.96 569.861 293.109 571.352H291.225C291.062 570.219 290.707 569.398 290.16 568.891C289.62 568.383 288.861 568.129 287.885 568.129C286.687 568.129 285.746 568.572 285.062 569.457C284.385 570.342 284.047 571.602 284.047 573.236V574.613C284.047 576.156 284.369 577.383 285.014 578.295C285.658 579.206 286.56 579.662 287.719 579.662C288.76 579.662 289.558 579.428 290.111 578.959C290.671 578.484 291.042 577.66 291.225 576.488H293.109ZM301.918 581C301.814 580.792 301.729 580.421 301.664 579.887C300.824 580.759 299.822 581.195 298.656 581.195C297.615 581.195 296.758 580.902 296.088 580.316C295.424 579.724 295.092 578.975 295.092 578.07C295.092 576.97 295.508 576.117 296.342 575.512C297.182 574.9 298.36 574.594 299.877 574.594H301.635V573.764C301.635 573.132 301.446 572.631 301.068 572.26C300.691 571.882 300.134 571.693 299.398 571.693C298.754 571.693 298.214 571.856 297.777 572.182C297.341 572.507 297.123 572.901 297.123 573.363H295.307C295.307 572.836 295.492 572.328 295.863 571.84C296.241 571.345 296.749 570.954 297.387 570.668C298.031 570.382 298.738 570.238 299.506 570.238C300.723 570.238 301.677 570.544 302.367 571.156C303.057 571.762 303.415 572.598 303.441 573.666V578.529C303.441 579.499 303.565 580.271 303.812 580.844V581H301.918ZM298.92 579.623C299.486 579.623 300.023 579.477 300.531 579.184C301.039 578.891 301.407 578.51 301.635 578.041V575.873H300.219C298.005 575.873 296.898 576.521 296.898 577.816C296.898 578.383 297.087 578.826 297.465 579.145C297.842 579.464 298.327 579.623 298.92 579.623ZM307.982 570.434L308.041 571.762C308.848 570.746 309.903 570.238 311.205 570.238C313.438 570.238 314.564 571.498 314.584 574.018V581H312.777V574.008C312.771 573.246 312.595 572.683 312.25 572.318C311.911 571.954 311.381 571.771 310.658 571.771C310.072 571.771 309.558 571.928 309.115 572.24C308.673 572.553 308.327 572.963 308.08 573.471V581H306.273V570.434H307.982ZM321.547 579.721C322.191 579.721 322.755 579.525 323.236 579.135C323.718 578.744 323.985 578.256 324.037 577.67H325.746C325.714 578.275 325.505 578.852 325.121 579.398C324.737 579.945 324.223 580.382 323.578 580.707C322.94 581.033 322.263 581.195 321.547 581.195C320.108 581.195 318.962 580.717 318.109 579.76C317.263 578.796 316.84 577.481 316.84 575.814V575.512C316.84 574.483 317.029 573.568 317.406 572.768C317.784 571.967 318.324 571.345 319.027 570.902C319.737 570.46 320.574 570.238 321.537 570.238C322.722 570.238 323.705 570.593 324.486 571.303C325.274 572.012 325.694 572.934 325.746 574.066H324.037C323.985 573.383 323.725 572.823 323.256 572.387C322.794 571.944 322.221 571.723 321.537 571.723C320.619 571.723 319.906 572.055 319.398 572.719C318.897 573.376 318.646 574.33 318.646 575.58V575.922C318.646 577.139 318.897 578.077 319.398 578.734C319.9 579.392 320.616 579.721 321.547 579.721ZM332.162 581.195C330.73 581.195 329.564 580.727 328.666 579.789C327.768 578.845 327.318 577.585 327.318 576.01V575.678C327.318 574.63 327.517 573.695 327.914 572.875C328.318 572.048 328.878 571.404 329.594 570.941C330.316 570.473 331.098 570.238 331.938 570.238C333.311 570.238 334.379 570.691 335.141 571.596C335.902 572.501 336.283 573.796 336.283 575.482V576.234H329.125C329.151 577.276 329.454 578.119 330.033 578.764C330.619 579.402 331.361 579.721 332.26 579.721C332.898 579.721 333.438 579.59 333.881 579.33C334.324 579.07 334.711 578.725 335.043 578.295L336.146 579.154C335.261 580.515 333.933 581.195 332.162 581.195ZM331.938 571.723C331.208 571.723 330.596 571.99 330.102 572.523C329.607 573.051 329.301 573.793 329.184 574.75H334.477V574.613C334.424 573.695 334.177 572.986 333.734 572.484C333.292 571.977 332.693 571.723 331.938 571.723ZM340.346 581H338.539V566H340.346V581ZM349.77 581C349.665 580.792 349.581 580.421 349.516 579.887C348.676 580.759 347.673 581.195 346.508 581.195C345.466 581.195 344.61 580.902 343.939 580.316C343.275 579.724 342.943 578.975 342.943 578.07C342.943 576.97 343.36 576.117 344.193 575.512C345.033 574.9 346.212 574.594 347.729 574.594H349.486V573.764C349.486 573.132 349.298 572.631 348.92 572.26C348.542 571.882 347.986 571.693 347.25 571.693C346.605 571.693 346.065 571.856 345.629 572.182C345.193 572.507 344.975 572.901 344.975 573.363H343.158C343.158 572.836 343.344 572.328 343.715 571.84C344.092 571.345 344.6 570.954 345.238 570.668C345.883 570.382 346.589 570.238 347.357 570.238C348.575 570.238 349.529 570.544 350.219 571.156C350.909 571.762 351.267 572.598 351.293 573.666V578.529C351.293 579.499 351.417 580.271 351.664 580.844V581H349.77ZM346.771 579.623C347.338 579.623 347.875 579.477 348.383 579.184C348.891 578.891 349.258 578.51 349.486 578.041V575.873H348.07C345.857 575.873 344.75 576.521 344.75 577.816C344.75 578.383 344.939 578.826 345.316 579.145C345.694 579.464 346.179 579.623 346.771 579.623ZM359.232 572.055C358.959 572.009 358.663 571.986 358.344 571.986C357.159 571.986 356.355 572.491 355.932 573.5V581H354.125V570.434H355.883L355.912 571.654C356.505 570.71 357.344 570.238 358.432 570.238C358.783 570.238 359.05 570.284 359.232 570.375V572.055Z" fill="black"/>
<path d="M200.865 298.248H197.525V304H195.641V289.781H200.348C201.949 289.781 203.18 290.146 204.039 290.875C204.905 291.604 205.338 292.665 205.338 294.059C205.338 294.944 205.097 295.715 204.615 296.373C204.14 297.031 203.476 297.522 202.623 297.848L205.963 303.883V304H203.951L200.865 298.248ZM197.525 296.715H200.406C201.337 296.715 202.076 296.474 202.623 295.992C203.176 295.51 203.453 294.866 203.453 294.059C203.453 293.18 203.189 292.506 202.662 292.037C202.141 291.568 201.386 291.331 200.396 291.324H197.525V296.715ZM207.213 298.619C207.213 297.584 207.415 296.653 207.818 295.826C208.229 294.999 208.795 294.361 209.518 293.912C210.247 293.463 211.077 293.238 212.008 293.238C213.447 293.238 214.609 293.736 215.494 294.732C216.386 295.729 216.832 297.053 216.832 298.707V298.834C216.832 299.863 216.633 300.787 216.236 301.607C215.846 302.421 215.283 303.056 214.547 303.512C213.818 303.967 212.978 304.195 212.027 304.195C210.595 304.195 209.433 303.697 208.541 302.701C207.656 301.705 207.213 300.387 207.213 298.746V298.619ZM209.029 298.834C209.029 300.006 209.299 300.947 209.84 301.656C210.387 302.366 211.116 302.721 212.027 302.721C212.945 302.721 213.674 302.363 214.215 301.646C214.755 300.924 215.025 299.915 215.025 298.619C215.025 297.46 214.749 296.523 214.195 295.807C213.648 295.084 212.919 294.723 212.008 294.723C211.116 294.723 210.396 295.077 209.85 295.787C209.303 296.497 209.029 297.512 209.029 298.834ZM228.043 298.834C228.043 300.449 227.672 301.747 226.93 302.73C226.188 303.707 225.191 304.195 223.941 304.195C222.607 304.195 221.575 303.723 220.846 302.779L220.758 304H219.098V289H220.904V294.596C221.633 293.691 222.639 293.238 223.922 293.238C225.204 293.238 226.21 293.723 226.939 294.693C227.675 295.663 228.043 296.992 228.043 298.678V298.834ZM226.236 298.629C226.236 297.398 225.999 296.448 225.523 295.777C225.048 295.107 224.365 294.771 223.473 294.771C222.281 294.771 221.425 295.325 220.904 296.432V301.002C221.458 302.109 222.32 302.662 223.492 302.662C224.358 302.662 225.032 302.327 225.514 301.656C225.995 300.986 226.236 299.977 226.236 298.629ZM234.713 304.195C233.281 304.195 232.115 303.727 231.217 302.789C230.318 301.845 229.869 300.585 229.869 299.01V298.678C229.869 297.63 230.068 296.695 230.465 295.875C230.868 295.048 231.428 294.404 232.145 293.941C232.867 293.473 233.648 293.238 234.488 293.238C235.862 293.238 236.93 293.691 237.691 294.596C238.453 295.501 238.834 296.796 238.834 298.482V299.234H231.676C231.702 300.276 232.005 301.119 232.584 301.764C233.17 302.402 233.912 302.721 234.811 302.721C235.449 302.721 235.989 302.59 236.432 302.33C236.874 302.07 237.262 301.725 237.594 301.295L238.697 302.154C237.812 303.515 236.484 304.195 234.713 304.195ZM234.488 294.723C233.759 294.723 233.147 294.99 232.652 295.523C232.158 296.051 231.852 296.793 231.734 297.75H237.027V297.613C236.975 296.695 236.728 295.986 236.285 295.484C235.842 294.977 235.243 294.723 234.488 294.723ZM246.041 295.055C245.768 295.009 245.471 294.986 245.152 294.986C243.967 294.986 243.163 295.491 242.74 296.5V304H240.934V293.434H242.691L242.721 294.654C243.313 293.71 244.153 293.238 245.24 293.238C245.592 293.238 245.859 293.284 246.041 293.375V295.055ZM250.65 290.875V293.434H252.623V294.83H250.65V301.383C250.65 301.806 250.738 302.125 250.914 302.34C251.09 302.548 251.389 302.652 251.812 302.652C252.021 302.652 252.307 302.613 252.672 302.535V304C252.197 304.13 251.734 304.195 251.285 304.195C250.478 304.195 249.869 303.951 249.459 303.463C249.049 302.975 248.844 302.281 248.844 301.383V294.83H246.92V293.434H248.844V290.875H250.65ZM254.068 298.619C254.068 297.584 254.27 296.653 254.674 295.826C255.084 294.999 255.65 294.361 256.373 293.912C257.102 293.463 257.932 293.238 258.863 293.238C260.302 293.238 261.464 293.736 262.35 294.732C263.242 295.729 263.688 297.053 263.688 298.707V298.834C263.688 299.863 263.489 300.787 263.092 301.607C262.701 302.421 262.138 303.056 261.402 303.512C260.673 303.967 259.833 304.195 258.883 304.195C257.451 304.195 256.288 303.697 255.396 302.701C254.511 301.705 254.068 300.387 254.068 298.746V298.619ZM255.885 298.834C255.885 300.006 256.155 300.947 256.695 301.656C257.242 302.366 257.971 302.721 258.883 302.721C259.801 302.721 260.53 302.363 261.07 301.646C261.611 300.924 261.881 299.915 261.881 298.619C261.881 297.46 261.604 296.523 261.051 295.807C260.504 295.084 259.775 294.723 258.863 294.723C257.971 294.723 257.252 295.077 256.705 295.787C256.158 296.497 255.885 297.512 255.885 298.834ZM271.197 304V289.781H275.211C276.448 289.781 277.542 290.055 278.492 290.602C279.443 291.148 280.175 291.926 280.689 292.936C281.21 293.945 281.474 295.104 281.48 296.412V297.32C281.48 298.661 281.22 299.837 280.699 300.846C280.185 301.855 279.446 302.63 278.482 303.17C277.525 303.71 276.409 303.987 275.133 304H271.197ZM273.072 291.324V302.467H275.045C276.49 302.467 277.613 302.018 278.414 301.119C279.221 300.221 279.625 298.941 279.625 297.281V296.451C279.625 294.837 279.244 293.583 278.482 292.691C277.727 291.793 276.653 291.337 275.26 291.324H273.072ZM286.002 304H284.195V293.434H286.002V304ZM284.049 290.631C284.049 290.338 284.137 290.09 284.312 289.889C284.495 289.687 284.762 289.586 285.113 289.586C285.465 289.586 285.732 289.687 285.914 289.889C286.096 290.09 286.188 290.338 286.188 290.631C286.188 290.924 286.096 291.168 285.914 291.363C285.732 291.559 285.465 291.656 285.113 291.656C284.762 291.656 284.495 291.559 284.312 291.363C284.137 291.168 284.049 290.924 284.049 290.631ZM295.426 304C295.322 303.792 295.237 303.421 295.172 302.887C294.332 303.759 293.329 304.195 292.164 304.195C291.122 304.195 290.266 303.902 289.596 303.316C288.932 302.724 288.6 301.975 288.6 301.07C288.6 299.97 289.016 299.117 289.85 298.512C290.689 297.9 291.868 297.594 293.385 297.594H295.143V296.764C295.143 296.132 294.954 295.631 294.576 295.26C294.199 294.882 293.642 294.693 292.906 294.693C292.262 294.693 291.721 294.856 291.285 295.182C290.849 295.507 290.631 295.901 290.631 296.363H288.814C288.814 295.836 289 295.328 289.371 294.84C289.749 294.345 290.257 293.954 290.895 293.668C291.539 293.382 292.245 293.238 293.014 293.238C294.231 293.238 295.185 293.544 295.875 294.156C296.565 294.762 296.923 295.598 296.949 296.666V301.529C296.949 302.499 297.073 303.271 297.32 303.844V304H295.426ZM292.428 302.623C292.994 302.623 293.531 302.477 294.039 302.184C294.547 301.891 294.915 301.51 295.143 301.041V298.873H293.727C291.513 298.873 290.406 299.521 290.406 300.816C290.406 301.383 290.595 301.826 290.973 302.145C291.35 302.464 291.835 302.623 292.428 302.623ZM301.48 302.525H307.662V304H299.273V302.672L305.104 294.928H299.361V293.434H307.369V294.713L301.48 302.525Z" fill="black"/>
<rect x="187.5" y="377.5" width="599" height="34" fill="white" stroke="black"/>
<path d="M22.6621 399H20.7871V384.781H22.6621V399ZM26.0996 399V384.781H30.1133C31.3503 384.781 32.444 385.055 33.3945 385.602C34.3451 386.148 35.0775 386.926 35.5918 387.936C36.1126 388.945 36.3763 390.104 36.3828 391.412V392.32C36.3828 393.661 36.1224 394.837 35.6016 395.846C35.0872 396.855 34.3483 397.63 33.3848 398.17C32.4277 398.71 31.3112 398.987 30.0352 399H26.0996ZM27.9746 386.324V397.467H29.9473C31.3926 397.467 32.5156 397.018 33.3164 396.119C34.1237 395.221 34.5273 393.941 34.5273 392.281V391.451C34.5273 389.837 34.1465 388.583 33.3848 387.691C32.6296 386.793 31.5553 386.337 30.1621 386.324H27.9746ZM48.375 392.662C46.7669 392.2 45.5951 391.633 44.8594 390.963C44.1302 390.286 43.7656 389.452 43.7656 388.463C43.7656 387.343 44.2116 386.419 45.1035 385.689C46.002 384.954 47.1673 384.586 48.5996 384.586C49.5762 384.586 50.4453 384.775 51.207 385.152C51.9753 385.53 52.5677 386.051 52.9844 386.715C53.4076 387.379 53.6191 388.105 53.6191 388.893H51.7344C51.7344 388.033 51.4609 387.359 50.9141 386.871C50.3672 386.376 49.5957 386.129 48.5996 386.129C47.6751 386.129 46.9525 386.334 46.4316 386.744C45.9173 387.148 45.6602 387.711 45.6602 388.434C45.6602 389.013 45.9043 389.505 46.3926 389.908C46.8874 390.305 47.724 390.67 48.9023 391.002C50.0872 391.334 51.0117 391.702 51.6758 392.105C52.3464 392.503 52.8411 392.968 53.1602 393.502C53.4857 394.036 53.6484 394.664 53.6484 395.387C53.6484 396.539 53.1992 397.464 52.3008 398.16C51.4023 398.85 50.2012 399.195 48.6973 399.195C47.7207 399.195 46.8092 399.01 45.9629 398.639C45.1165 398.261 44.4622 397.747 44 397.096C43.5443 396.445 43.3164 395.706 43.3164 394.879H45.2012C45.2012 395.738 45.5169 396.419 46.1484 396.92C46.7865 397.415 47.6361 397.662 48.6973 397.662C49.6868 397.662 50.4453 397.46 50.9727 397.057C51.5 396.653 51.7637 396.103 51.7637 395.406C51.7637 394.71 51.5195 394.173 51.0312 393.795C50.543 393.411 49.6576 393.033 48.375 392.662ZM60.1621 399.195C58.7298 399.195 57.5645 398.727 56.666 397.789C55.7676 396.845 55.3184 395.585 55.3184 394.01V393.678C55.3184 392.63 55.5169 391.695 55.9141 390.875C56.3177 390.048 56.8776 389.404 57.5938 388.941C58.3164 388.473 59.0977 388.238 59.9375 388.238C61.3112 388.238 62.3789 388.691 63.1406 389.596C63.9023 390.501 64.2832 391.796 64.2832 393.482V394.234H57.125C57.151 395.276 57.4538 396.119 58.0332 396.764C58.6191 397.402 59.3613 397.721 60.2598 397.721C60.8978 397.721 61.4382 397.59 61.8809 397.33C62.3236 397.07 62.7109 396.725 63.043 396.295L64.1465 397.154C63.2611 398.515 61.9329 399.195 60.1621 399.195ZM59.9375 389.723C59.2083 389.723 58.5964 389.99 58.1016 390.523C57.6068 391.051 57.3008 391.793 57.1836 392.75H62.4766V392.613C62.4245 391.695 62.1771 390.986 61.7344 390.484C61.2917 389.977 60.6927 389.723 59.9375 389.723ZM72.5352 396.197C72.5352 395.709 72.3496 395.331 71.9785 395.064C71.6139 394.791 70.9727 394.557 70.0547 394.361C69.1432 394.166 68.4173 393.932 67.877 393.658C67.3431 393.385 66.946 393.059 66.6855 392.682C66.4316 392.304 66.3047 391.855 66.3047 391.334C66.3047 390.468 66.6693 389.736 67.3984 389.137C68.1341 388.538 69.0716 388.238 70.2109 388.238C71.4089 388.238 72.3789 388.548 73.1211 389.166C73.8698 389.785 74.2441 390.576 74.2441 391.539H72.4277C72.4277 391.044 72.2161 390.618 71.793 390.26C71.3763 389.902 70.849 389.723 70.2109 389.723C69.5534 389.723 69.0391 389.866 68.668 390.152C68.2969 390.439 68.1113 390.813 68.1113 391.275C68.1113 391.712 68.2839 392.04 68.6289 392.262C68.974 392.483 69.5957 392.695 70.4941 392.896C71.3991 393.098 72.1315 393.339 72.6914 393.619C73.2513 393.899 73.6647 394.238 73.9316 394.635C74.2051 395.025 74.3418 395.504 74.3418 396.07C74.3418 397.014 73.9642 397.773 73.209 398.346C72.4538 398.912 71.474 399.195 70.2695 399.195C69.4232 399.195 68.6745 399.046 68.0234 398.746C67.3724 398.447 66.8613 398.03 66.4902 397.496C66.1257 396.956 65.9434 396.373 65.9434 395.748H67.75C67.7826 396.354 68.0234 396.835 68.4727 397.193C68.9284 397.545 69.5273 397.721 70.2695 397.721C70.9531 397.721 71.5 397.584 71.9102 397.311C72.3268 397.031 72.5352 396.66 72.5352 396.197ZM78.6582 399H76.8516V388.434H78.6582V399ZM76.7051 385.631C76.7051 385.338 76.793 385.09 76.9688 384.889C77.151 384.687 77.418 384.586 77.7695 384.586C78.1211 384.586 78.388 384.687 78.5703 384.889C78.7526 385.09 78.8438 385.338 78.8438 385.631C78.8438 385.924 78.7526 386.168 78.5703 386.363C78.388 386.559 78.1211 386.656 77.7695 386.656C77.418 386.656 77.151 386.559 76.9688 386.363C76.793 386.168 76.7051 385.924 76.7051 385.631ZM81.0801 393.619C81.0801 392.584 81.2819 391.653 81.6855 390.826C82.0957 389.999 82.6621 389.361 83.3848 388.912C84.1139 388.463 84.944 388.238 85.875 388.238C87.3138 388.238 88.4759 388.736 89.3613 389.732C90.2533 390.729 90.6992 392.053 90.6992 393.707V393.834C90.6992 394.863 90.5007 395.787 90.1035 396.607C89.7129 397.421 89.1497 398.056 88.4141 398.512C87.6849 398.967 86.8451 399.195 85.8945 399.195C84.4622 399.195 83.3001 398.697 82.4082 397.701C81.5228 396.705 81.0801 395.387 81.0801 393.746V393.619ZM82.8965 393.834C82.8965 395.006 83.1667 395.947 83.707 396.656C84.2539 397.366 84.9831 397.721 85.8945 397.721C86.8125 397.721 87.5417 397.363 88.082 396.646C88.6224 395.924 88.8926 394.915 88.8926 393.619C88.8926 392.46 88.6159 391.523 88.0625 390.807C87.5156 390.084 86.7865 389.723 85.875 389.723C84.9831 389.723 84.2637 390.077 83.7168 390.787C83.1699 391.497 82.8965 392.512 82.8965 393.834ZM86.6953 384H88.8828L86.2656 386.871H84.8105L86.6953 384ZM94.6738 388.434L94.7324 389.762C95.5397 388.746 96.5944 388.238 97.8965 388.238C100.13 388.238 101.256 389.498 101.275 392.018V399H99.4688V392.008C99.4622 391.246 99.2865 390.683 98.9414 390.318C98.6029 389.954 98.0723 389.771 97.3496 389.771C96.7637 389.771 96.2493 389.928 95.8066 390.24C95.3639 390.553 95.0189 390.963 94.7715 391.471V399H92.9648V388.434H94.6738ZM103.941 398.053C103.941 397.74 104.033 397.48 104.215 397.271C104.404 397.063 104.684 396.959 105.055 396.959C105.426 396.959 105.706 397.063 105.895 397.271C106.09 397.48 106.188 397.74 106.188 398.053C106.188 398.352 106.09 398.603 105.895 398.805C105.706 399.007 105.426 399.107 105.055 399.107C104.684 399.107 104.404 399.007 104.215 398.805C104.033 398.603 103.941 398.352 103.941 398.053ZM103.951 389.43C103.951 389.117 104.042 388.857 104.225 388.648C104.413 388.44 104.693 388.336 105.064 388.336C105.436 388.336 105.715 388.44 105.904 388.648C106.1 388.857 106.197 389.117 106.197 389.43C106.197 389.729 106.1 389.98 105.904 390.182C105.715 390.383 105.436 390.484 105.064 390.484C104.693 390.484 104.413 390.383 104.225 390.182C104.042 389.98 103.951 389.729 103.951 389.43Z" fill="black"/>
<path d="M201.471 398.996H198.893L198.111 403H196.715L197.496 398.996H195.162V397.658H197.75L198.424 394.201H195.904V392.844H198.688L199.488 388.781H200.885L200.084 392.844H202.662L203.463 388.781H204.869L204.068 392.844H206.061V394.201H203.805L203.131 397.658H205.328V398.996H202.877L202.096 403H200.689L201.471 398.996ZM199.146 397.658H201.725L202.398 394.201H199.82L199.146 397.658ZM215.816 396.721H209.85V403H207.975V388.781H216.783V390.324H209.85V395.188H215.816V396.721ZM218.092 397.629C218.092 396.008 218.476 394.706 219.244 393.723C220.012 392.733 221.018 392.238 222.262 392.238C223.499 392.238 224.479 392.661 225.201 393.508V388H227.008V403H225.348L225.26 401.867C224.537 402.753 223.531 403.195 222.242 403.195C221.018 403.195 220.019 402.694 219.244 401.691C218.476 400.689 218.092 399.38 218.092 397.766V397.629ZM219.898 397.834C219.898 399.032 220.146 399.969 220.641 400.646C221.135 401.324 221.819 401.662 222.691 401.662C223.837 401.662 224.674 401.148 225.201 400.119V395.266C224.661 394.27 223.831 393.771 222.711 393.771C221.826 393.771 221.135 394.113 220.641 394.797C220.146 395.48 219.898 396.493 219.898 397.834ZM233.365 396.291L235.709 392.434H237.818L234.361 397.658L237.926 403H235.836L233.395 399.045L230.953 403H228.854L232.418 397.658L228.961 392.434H231.051L233.365 396.291ZM242.184 395.012H243.541C244.394 394.999 245.064 394.774 245.553 394.338C246.041 393.902 246.285 393.312 246.285 392.57C246.285 390.904 245.455 390.07 243.795 390.07C243.014 390.07 242.389 390.295 241.92 390.744C241.458 391.187 241.227 391.776 241.227 392.512H239.42C239.42 391.385 239.83 390.451 240.65 389.709C241.477 388.96 242.525 388.586 243.795 388.586C245.136 388.586 246.188 388.941 246.949 389.65C247.711 390.36 248.092 391.346 248.092 392.609C248.092 393.228 247.89 393.827 247.486 394.406C247.089 394.986 246.546 395.419 245.855 395.705C246.637 395.952 247.239 396.363 247.662 396.936C248.092 397.508 248.307 398.208 248.307 399.035C248.307 400.311 247.89 401.324 247.057 402.072C246.223 402.821 245.139 403.195 243.805 403.195C242.47 403.195 241.383 402.834 240.543 402.111C239.71 401.389 239.293 400.435 239.293 399.25H241.109C241.109 399.999 241.354 400.598 241.842 401.047C242.33 401.496 242.984 401.721 243.805 401.721C244.677 401.721 245.344 401.493 245.807 401.037C246.269 400.581 246.5 399.927 246.5 399.074C246.5 398.247 246.246 397.613 245.738 397.17C245.23 396.727 244.498 396.499 243.541 396.486H242.184V395.012ZM260.104 403H250.787V401.701L255.709 396.232C256.438 395.406 256.939 394.735 257.213 394.221C257.493 393.7 257.633 393.163 257.633 392.609C257.633 391.867 257.408 391.258 256.959 390.783C256.51 390.308 255.911 390.07 255.162 390.07C254.264 390.07 253.564 390.327 253.062 390.842C252.568 391.35 252.32 392.059 252.32 392.971H250.514C250.514 391.662 250.934 390.604 251.773 389.797C252.62 388.99 253.749 388.586 255.162 388.586C256.484 388.586 257.529 388.934 258.297 389.631C259.065 390.321 259.449 391.242 259.449 392.395C259.449 393.794 258.557 395.461 256.773 397.395L252.965 401.525H260.104V403ZM262.848 395.871L263.57 388.781H270.855V390.451H265.104L264.674 394.328C265.37 393.918 266.161 393.713 267.047 393.713C268.342 393.713 269.371 394.143 270.133 395.002C270.895 395.855 271.275 397.01 271.275 398.469C271.275 399.934 270.878 401.089 270.084 401.936C269.296 402.775 268.193 403.195 266.773 403.195C265.517 403.195 264.492 402.847 263.697 402.15C262.903 401.454 262.451 400.49 262.34 399.26H264.049C264.16 400.074 264.449 400.689 264.918 401.105C265.387 401.516 266.005 401.721 266.773 401.721C267.613 401.721 268.271 401.434 268.746 400.861C269.228 400.288 269.469 399.497 269.469 398.488C269.469 397.538 269.208 396.776 268.688 396.203C268.173 395.624 267.486 395.334 266.627 395.334C265.839 395.334 265.221 395.507 264.771 395.852L264.293 396.242L262.848 395.871Z" fill="black"/>
<line x1="24" y1="232" x2="924" y2="232" stroke="#11D0C5" stroke-width="2"/>
<path d="M36.4375 187.938V199.176C36.4375 201.043 35.8516 202.52 34.6797 203.605C33.5156 204.691 31.9219 205.234 29.8984 205.234C27.9062 205.234 26.3242 204.707 25.1523 203.652C23.9805 202.598 23.3828 201.148 23.3594 199.305V187.938H26.875V199.199C26.875 200.316 27.1406 201.133 27.6719 201.648C28.2109 202.156 28.9531 202.41 29.8984 202.41C31.875 202.41 32.8789 201.371 32.9102 199.293V187.938H36.4375ZM42.2148 192.32L42.3203 193.785C43.2266 192.652 44.4414 192.086 45.9648 192.086C47.3086 192.086 48.3086 192.48 48.9648 193.27C49.6211 194.059 49.957 195.238 49.9727 196.809V205H46.5859V196.891C46.5859 196.172 46.4297 195.652 46.1172 195.332C45.8047 195.004 45.2852 194.84 44.5586 194.84C43.6055 194.84 42.8906 195.246 42.4141 196.059V205H39.0273V192.32H42.2148ZM56.125 205H52.7266V192.32H56.125V205ZM52.5273 189.039C52.5273 188.531 52.6953 188.113 53.0312 187.785C53.375 187.457 53.8398 187.293 54.4258 187.293C55.0039 187.293 55.4648 187.457 55.8086 187.785C56.1523 188.113 56.3242 188.531 56.3242 189.039C56.3242 189.555 56.1484 189.977 55.7969 190.305C55.4531 190.633 54.9961 190.797 54.4258 190.797C53.8555 190.797 53.3945 190.633 53.043 190.305C52.6992 189.977 52.5273 189.555 52.5273 189.039ZM66.0508 195.496C65.5898 195.434 65.1836 195.402 64.832 195.402C63.5508 195.402 62.7109 195.836 62.3125 196.703V205H58.9258V192.32H62.125L62.2188 193.832C62.8984 192.668 63.8398 192.086 65.043 192.086C65.418 192.086 65.7695 192.137 66.0977 192.238L66.0508 195.496ZM74.5586 201.496C74.5586 201.082 74.3516 200.758 73.9375 200.523C73.5312 200.281 72.875 200.066 71.9688 199.879C68.9531 199.246 67.4453 197.965 67.4453 196.035C67.4453 194.91 67.9102 193.973 68.8398 193.223C69.7773 192.465 71 192.086 72.5078 192.086C74.1172 192.086 75.4023 192.465 76.3633 193.223C77.332 193.98 77.8164 194.965 77.8164 196.176H74.4297C74.4297 195.691 74.2734 195.293 73.9609 194.98C73.6484 194.66 73.1602 194.5 72.4961 194.5C71.9258 194.5 71.4844 194.629 71.1719 194.887C70.8594 195.145 70.7031 195.473 70.7031 195.871C70.7031 196.246 70.8789 196.551 71.2305 196.785C71.5898 197.012 72.1914 197.211 73.0352 197.383C73.8789 197.547 74.5898 197.734 75.168 197.945C76.957 198.602 77.8516 199.738 77.8516 201.355C77.8516 202.512 77.3555 203.449 76.3633 204.168C75.3711 204.879 74.0898 205.234 72.5195 205.234C71.457 205.234 70.5117 205.047 69.6836 204.672C68.8633 204.289 68.2188 203.77 67.75 203.113C67.2812 202.449 67.0469 201.734 67.0469 200.969H70.2578C70.2891 201.57 70.5117 202.031 70.9258 202.352C71.3398 202.672 71.8945 202.832 72.5898 202.832C73.2383 202.832 73.7266 202.711 74.0547 202.469C74.3906 202.219 74.5586 201.895 74.5586 201.496ZM85.8789 205.234C84.0195 205.234 82.5039 204.664 81.332 203.523C80.168 202.383 79.5859 200.863 79.5859 198.965V198.637C79.5859 197.363 79.832 196.227 80.3242 195.227C80.8164 194.219 81.5117 193.445 82.4102 192.906C83.3164 192.359 84.3477 192.086 85.5039 192.086C87.2383 192.086 88.6016 192.633 89.5938 193.727C90.5938 194.82 91.0938 196.371 91.0938 198.379V199.762H83.0195C83.1289 200.59 83.457 201.254 84.0039 201.754C84.5586 202.254 85.2578 202.504 86.1016 202.504C87.4062 202.504 88.4258 202.031 89.1602 201.086L90.8242 202.949C90.3164 203.668 89.6289 204.23 88.7617 204.637C87.8945 205.035 86.9336 205.234 85.8789 205.234ZM85.4922 194.828C84.8203 194.828 84.2734 195.055 83.8516 195.508C83.4375 195.961 83.1719 196.609 83.0547 197.453H87.7656V197.184C87.75 196.434 87.5469 195.855 87.1562 195.449C86.7656 195.035 86.2109 194.828 85.4922 194.828ZM106.352 205C106.195 204.695 106.082 204.316 106.012 203.863C105.191 204.777 104.125 205.234 102.812 205.234C101.57 205.234 100.539 204.875 99.7188 204.156C98.9062 203.438 98.5 202.531 98.5 201.438C98.5 200.094 98.9961 199.062 99.9883 198.344C100.988 197.625 102.43 197.262 104.312 197.254H105.871V196.527C105.871 195.941 105.719 195.473 105.414 195.121C105.117 194.77 104.645 194.594 103.996 194.594C103.426 194.594 102.977 194.73 102.648 195.004C102.328 195.277 102.168 195.652 102.168 196.129H98.7812C98.7812 195.395 99.0078 194.715 99.4609 194.09C99.9141 193.465 100.555 192.977 101.383 192.625C102.211 192.266 103.141 192.086 104.172 192.086C105.734 192.086 106.973 192.48 107.887 193.27C108.809 194.051 109.27 195.152 109.27 196.574V202.07C109.277 203.273 109.445 204.184 109.773 204.801V205H106.352ZM103.551 202.645C104.051 202.645 104.512 202.535 104.934 202.316C105.355 202.09 105.668 201.789 105.871 201.414V199.234H104.605C102.91 199.234 102.008 199.82 101.898 200.992L101.887 201.191C101.887 201.613 102.035 201.961 102.332 202.234C102.629 202.508 103.035 202.645 103.551 202.645ZM124.949 187.938H128.465V199.75C128.465 200.836 128.223 201.797 127.738 202.633C127.262 203.461 126.586 204.102 125.711 204.555C124.836 205.008 123.848 205.234 122.746 205.234C120.941 205.234 119.535 204.777 118.527 203.863C117.52 202.941 117.016 201.641 117.016 199.961H120.555C120.555 200.797 120.73 201.414 121.082 201.812C121.434 202.211 121.988 202.41 122.746 202.41C123.418 202.41 123.953 202.18 124.352 201.719C124.75 201.258 124.949 200.602 124.949 199.75V187.938ZM138.848 203.711C138.012 204.727 136.855 205.234 135.379 205.234C134.02 205.234 132.98 204.844 132.262 204.062C131.551 203.281 131.188 202.137 131.172 200.629V192.32H134.559V200.512C134.559 201.832 135.16 202.492 136.363 202.492C137.512 202.492 138.301 202.094 138.73 201.297V192.32H142.129V205H138.941L138.848 203.711ZM150.52 205.234C148.66 205.234 147.145 204.664 145.973 203.523C144.809 202.383 144.227 200.863 144.227 198.965V198.637C144.227 197.363 144.473 196.227 144.965 195.227C145.457 194.219 146.152 193.445 147.051 192.906C147.957 192.359 148.988 192.086 150.145 192.086C151.879 192.086 153.242 192.633 154.234 193.727C155.234 194.82 155.734 196.371 155.734 198.379V199.762H147.66C147.77 200.59 148.098 201.254 148.645 201.754C149.199 202.254 149.898 202.504 150.742 202.504C152.047 202.504 153.066 202.031 153.801 201.086L155.465 202.949C154.957 203.668 154.27 204.23 153.402 204.637C152.535 205.035 151.574 205.234 150.52 205.234ZM150.133 194.828C149.461 194.828 148.914 195.055 148.492 195.508C148.078 195.961 147.812 196.609 147.695 197.453H152.406V197.184C152.391 196.434 152.188 195.855 151.797 195.449C151.406 195.035 150.852 194.828 150.133 194.828ZM157.176 198.566C157.176 196.621 157.637 195.055 158.559 193.867C159.488 192.68 160.738 192.086 162.309 192.086C163.699 192.086 164.781 192.562 165.555 193.516L165.695 192.32H168.766V204.578C168.766 205.688 168.512 206.652 168.004 207.473C167.504 208.293 166.797 208.918 165.883 209.348C164.969 209.777 163.898 209.992 162.672 209.992C161.742 209.992 160.836 209.805 159.953 209.43C159.07 209.062 158.402 208.586 157.949 208L159.449 205.938C160.293 206.883 161.316 207.355 162.52 207.355C163.418 207.355 164.117 207.113 164.617 206.629C165.117 206.152 165.367 205.473 165.367 204.59V203.91C164.586 204.793 163.559 205.234 162.285 205.234C160.762 205.234 159.527 204.641 158.582 203.453C157.645 202.258 157.176 200.676 157.176 198.707V198.566ZM160.562 198.812C160.562 199.961 160.793 200.863 161.254 201.52C161.715 202.168 162.348 202.492 163.152 202.492C164.184 202.492 164.922 202.105 165.367 201.332V196C164.914 195.227 164.184 194.84 163.176 194.84C162.363 194.84 161.723 195.172 161.254 195.836C160.793 196.5 160.562 197.492 160.562 198.812ZM170.852 198.543C170.852 197.285 171.094 196.164 171.578 195.18C172.062 194.195 172.758 193.434 173.664 192.895C174.578 192.355 175.637 192.086 176.84 192.086C178.551 192.086 179.945 192.609 181.023 193.656C182.109 194.703 182.715 196.125 182.84 197.922L182.863 198.789C182.863 200.734 182.32 202.297 181.234 203.477C180.148 204.648 178.691 205.234 176.863 205.234C175.035 205.234 173.574 204.648 172.48 203.477C171.395 202.305 170.852 200.711 170.852 198.695V198.543ZM174.238 198.789C174.238 199.992 174.465 200.914 174.918 201.555C175.371 202.188 176.02 202.504 176.863 202.504C177.684 202.504 178.324 202.191 178.785 201.566C179.246 200.934 179.477 199.926 179.477 198.543C179.477 197.363 179.246 196.449 178.785 195.801C178.324 195.152 177.676 194.828 176.84 194.828C176.012 194.828 175.371 195.152 174.918 195.801C174.465 196.441 174.238 197.438 174.238 198.789Z" fill="black"/>
<rect x="1" y="1" width="966" height="726" stroke="#171212" stroke-width="2"/>
</svg>
