<svg width="485" height="728" viewBox="0 0 485 728" fill="none" xmlns="http://www.w3.org/2000/svg">
<rect x="1" y="1" width="483" height="726" fill="white"/>
<path d="M24.5254 704.434V710H22.6504V695.781H27.8945C29.4505 695.781 30.668 696.178 31.5469 696.973C32.4323 697.767 32.875 698.818 32.875 700.127C32.875 701.507 32.4421 702.572 31.5762 703.32C30.7168 704.062 29.4831 704.434 27.875 704.434H24.5254ZM24.5254 702.9H27.8945C28.8971 702.9 29.6654 702.666 30.1992 702.197C30.7331 701.722 31 701.038 31 700.146C31 699.3 30.7331 698.623 30.1992 698.115C29.6654 697.607 28.9329 697.344 28.002 697.324H24.5254V702.9ZM36.9473 710H35.1406V699.434H36.9473V710ZM34.9941 696.631C34.9941 696.338 35.082 696.09 35.2578 695.889C35.4401 695.687 35.707 695.586 36.0586 695.586C36.4102 695.586 36.6771 695.687 36.8594 695.889C37.0417 696.09 37.1328 696.338 37.1328 696.631C37.1328 696.924 37.0417 697.168 36.8594 697.363C36.6771 697.559 36.4102 697.656 36.0586 697.656C35.707 697.656 35.4401 697.559 35.2578 697.363C35.082 697.168 34.9941 696.924 34.9941 696.631ZM44.2324 710.195C42.8001 710.195 41.6348 709.727 40.7363 708.789C39.8379 707.845 39.3887 706.585 39.3887 705.01V704.678C39.3887 703.63 39.5872 702.695 39.9844 701.875C40.388 701.048 40.9479 700.404 41.6641 699.941C42.3867 699.473 43.168 699.238 44.0078 699.238C45.3815 699.238 46.4492 699.691 47.2109 700.596C47.9727 701.501 48.3535 702.796 48.3535 704.482V705.234H41.1953C41.2214 706.276 41.5241 707.119 42.1035 707.764C42.6895 708.402 43.4316 708.721 44.3301 708.721C44.9681 708.721 45.5085 708.59 45.9512 708.33C46.3939 708.07 46.7812 707.725 47.1133 707.295L48.2168 708.154C47.3314 709.515 46.0033 710.195 44.2324 710.195ZM44.0078 700.723C43.2786 700.723 42.6667 700.99 42.1719 701.523C41.6771 702.051 41.3711 702.793 41.2539 703.75H46.5469V703.613C46.4948 702.695 46.2474 701.986 45.8047 701.484C45.362 700.977 44.763 700.723 44.0078 700.723ZM54.9746 704.629C54.9746 703.008 55.3587 701.706 56.127 700.723C56.8952 699.733 57.901 699.238 59.1445 699.238C60.3815 699.238 61.3613 699.661 62.084 700.508V695H63.8906V710H62.2305L62.1426 708.867C61.4199 709.753 60.4141 710.195 59.125 710.195C57.901 710.195 56.9017 709.694 56.127 708.691C55.3587 707.689 54.9746 706.38 54.9746 704.766V704.629ZM56.7812 704.834C56.7812 706.032 57.0286 706.969 57.5234 707.646C58.0182 708.324 58.7018 708.662 59.5742 708.662C60.7201 708.662 61.5566 708.148 62.084 707.119V702.266C61.5436 701.27 60.7135 700.771 59.5938 700.771C58.7083 700.771 58.0182 701.113 57.5234 701.797C57.0286 702.48 56.7812 703.493 56.7812 704.834ZM71.0879 710.195C69.6556 710.195 68.4902 709.727 67.5918 708.789C66.6934 707.845 66.2441 706.585 66.2441 705.01V704.678C66.2441 703.63 66.4427 702.695 66.8398 701.875C67.2435 701.048 67.8034 700.404 68.5195 699.941C69.2422 699.473 70.0234 699.238 70.8633 699.238C72.237 699.238 73.3047 699.691 74.0664 700.596C74.8281 701.501 75.209 702.796 75.209 704.482V705.234H68.0508C68.0768 706.276 68.3796 707.119 68.959 707.764C69.5449 708.402 70.2871 708.721 71.1855 708.721C71.8236 708.721 72.3639 708.59 72.8066 708.33C73.2493 708.07 73.6367 707.725 73.9688 707.295L75.0723 708.154C74.1868 709.515 72.8587 710.195 71.0879 710.195ZM70.8633 700.723C70.1341 700.723 69.5221 700.99 69.0273 701.523C68.5326 702.051 68.2266 702.793 68.1094 703.75H73.4023V703.613C73.3503 702.695 73.1029 701.986 72.6602 701.484C72.2174 700.977 71.6185 700.723 70.8633 700.723ZM91.1953 704.834C91.1953 706.442 90.8275 707.738 90.0918 708.721C89.3561 709.704 88.36 710.195 87.1035 710.195C85.821 710.195 84.8118 709.788 84.0762 708.975V714.062H82.2695V699.434H83.9199L84.0078 700.605C84.7435 699.694 85.7656 699.238 87.0742 699.238C88.3438 699.238 89.3464 699.717 90.082 700.674C90.8242 701.631 91.1953 702.962 91.1953 704.668V704.834ZM89.3887 704.629C89.3887 703.438 89.1348 702.497 88.627 701.807C88.1191 701.117 87.4225 700.771 86.5371 700.771C85.4434 700.771 84.623 701.257 84.0762 702.227V707.275C84.6165 708.239 85.4434 708.721 86.5566 708.721C87.4225 708.721 88.1094 708.379 88.6172 707.695C89.1315 707.005 89.3887 705.983 89.3887 704.629ZM100.023 710C99.9193 709.792 99.8346 709.421 99.7695 708.887C98.9297 709.759 97.9271 710.195 96.7617 710.195C95.7201 710.195 94.8639 709.902 94.1934 709.316C93.5293 708.724 93.1973 707.975 93.1973 707.07C93.1973 705.97 93.6139 705.117 94.4473 704.512C95.2871 703.9 96.4655 703.594 97.9824 703.594H99.7402V702.764C99.7402 702.132 99.5514 701.631 99.1738 701.26C98.7962 700.882 98.2396 700.693 97.5039 700.693C96.8594 700.693 96.319 700.856 95.8828 701.182C95.4466 701.507 95.2285 701.901 95.2285 702.363H93.4121C93.4121 701.836 93.5977 701.328 93.9688 700.84C94.3464 700.345 94.8542 699.954 95.4922 699.668C96.1367 699.382 96.8431 699.238 97.6113 699.238C98.8288 699.238 99.7826 699.544 100.473 700.156C101.163 700.762 101.521 701.598 101.547 702.666V707.529C101.547 708.499 101.671 709.271 101.918 709.844V710H100.023ZM97.0254 708.623C97.5918 708.623 98.1289 708.477 98.6367 708.184C99.1445 707.891 99.5124 707.51 99.7402 707.041V704.873H98.3242C96.1107 704.873 95.0039 705.521 95.0039 706.816C95.0039 707.383 95.1927 707.826 95.5703 708.145C95.9479 708.464 96.4329 708.623 97.0254 708.623ZM98.6953 695H100.883L98.2656 697.871H96.8105L98.6953 695ZM103.949 704.629C103.949 702.982 104.33 701.673 105.092 700.703C105.854 699.727 106.863 699.238 108.119 699.238C109.408 699.238 110.414 699.694 111.137 700.605L111.225 699.434H112.875V709.746C112.875 711.113 112.468 712.191 111.654 712.979C110.847 713.766 109.76 714.16 108.393 714.16C107.631 714.16 106.885 713.997 106.156 713.672C105.427 713.346 104.87 712.9 104.486 712.334L105.424 711.25C106.199 712.207 107.146 712.686 108.266 712.686C109.145 712.686 109.828 712.438 110.316 711.943C110.811 711.449 111.059 710.752 111.059 709.854V708.945C110.336 709.779 109.35 710.195 108.1 710.195C106.863 710.195 105.86 709.697 105.092 708.701C104.33 707.705 103.949 706.348 103.949 704.629ZM105.766 704.834C105.766 706.025 106.01 706.963 106.498 707.646C106.986 708.324 107.67 708.662 108.549 708.662C109.688 708.662 110.525 708.145 111.059 707.109V702.285C110.505 701.276 109.675 700.771 108.568 700.771C107.689 700.771 107.003 701.113 106.508 701.797C106.013 702.48 105.766 703.493 105.766 704.834ZM117.572 710H115.766V699.434H117.572V710ZM115.619 696.631C115.619 696.338 115.707 696.09 115.883 695.889C116.065 695.687 116.332 695.586 116.684 695.586C117.035 695.586 117.302 695.687 117.484 695.889C117.667 696.09 117.758 696.338 117.758 696.631C117.758 696.924 117.667 697.168 117.484 697.363C117.302 697.559 117.035 697.656 116.684 697.656C116.332 697.656 116.065 697.559 115.883 697.363C115.707 697.168 115.619 696.924 115.619 696.631ZM122.182 699.434L122.24 700.762C123.048 699.746 124.102 699.238 125.404 699.238C127.637 699.238 128.764 700.498 128.783 703.018V710H126.977V703.008C126.97 702.246 126.794 701.683 126.449 701.318C126.111 700.954 125.58 700.771 124.857 700.771C124.271 700.771 123.757 700.928 123.314 701.24C122.872 701.553 122.527 701.963 122.279 702.471V710H120.473V699.434H122.182ZM138.031 710C137.927 709.792 137.842 709.421 137.777 708.887C136.938 709.759 135.935 710.195 134.77 710.195C133.728 710.195 132.872 709.902 132.201 709.316C131.537 708.724 131.205 707.975 131.205 707.07C131.205 705.97 131.622 705.117 132.455 704.512C133.295 703.9 134.473 703.594 135.99 703.594H137.748V702.764C137.748 702.132 137.559 701.631 137.182 701.26C136.804 700.882 136.247 700.693 135.512 700.693C134.867 700.693 134.327 700.856 133.891 701.182C133.454 701.507 133.236 701.901 133.236 702.363H131.42C131.42 701.836 131.605 701.328 131.977 700.84C132.354 700.345 132.862 699.954 133.5 699.668C134.145 699.382 134.851 699.238 135.619 699.238C136.837 699.238 137.79 699.544 138.48 700.156C139.171 700.762 139.529 701.598 139.555 702.666V707.529C139.555 708.499 139.678 709.271 139.926 709.844V710H138.031ZM135.033 708.623C135.6 708.623 136.137 708.477 136.645 708.184C137.152 707.891 137.52 707.51 137.748 707.041V704.873H136.332C134.118 704.873 133.012 705.521 133.012 706.816C133.012 707.383 133.201 707.826 133.578 708.145C133.956 708.464 134.441 708.623 135.033 708.623Z" fill="black"/>
<rect y="152" width="485" height="504" fill="white"/>
<rect x="185.5" y="217.5" width="271" height="34" fill="white" stroke="black"/>
<path d="M34.5781 239H32.6934L25.5352 228.043V239H23.6504V224.781H25.5352L32.7129 235.787V224.781H34.5781V239ZM37.1465 233.619C37.1465 232.584 37.3483 231.653 37.752 230.826C38.1621 229.999 38.7285 229.361 39.4512 228.912C40.1803 228.463 41.0104 228.238 41.9414 228.238C43.3802 228.238 44.5423 228.736 45.4277 229.732C46.3197 230.729 46.7656 232.053 46.7656 233.707V233.834C46.7656 234.863 46.5671 235.787 46.1699 236.607C45.7793 237.421 45.2161 238.056 44.4805 238.512C43.7513 238.967 42.9115 239.195 41.9609 239.195C40.5286 239.195 39.3665 238.697 38.4746 237.701C37.5892 236.705 37.1465 235.387 37.1465 233.746V233.619ZM38.9629 233.834C38.9629 235.006 39.2331 235.947 39.7734 236.656C40.3203 237.366 41.0495 237.721 41.9609 237.721C42.8789 237.721 43.6081 237.363 44.1484 236.646C44.6888 235.924 44.959 234.915 44.959 233.619C44.959 232.46 44.6823 231.523 44.1289 230.807C43.582 230.084 42.8529 229.723 41.9414 229.723C41.0495 229.723 40.3301 230.077 39.7832 230.787C39.2363 231.497 38.9629 232.512 38.9629 233.834ZM50.7305 228.434L50.7793 229.605C51.554 228.694 52.599 228.238 53.9141 228.238C55.3919 228.238 56.3978 228.805 56.9316 229.938C57.2832 229.43 57.7389 229.02 58.2988 228.707C58.8652 228.395 59.5326 228.238 60.3008 228.238C62.6185 228.238 63.7969 229.465 63.8359 231.92V239H62.0293V232.027C62.0293 231.272 61.8568 230.709 61.5117 230.338C61.1667 229.96 60.5872 229.771 59.7734 229.771C59.1029 229.771 58.5462 229.973 58.1035 230.377C57.6608 230.774 57.4036 231.311 57.332 231.988V239H55.5156V232.076C55.5156 230.54 54.7637 229.771 53.2598 229.771C52.0749 229.771 51.2643 230.276 50.8281 231.285V239H49.0215V228.434H50.7305ZM75.5156 233.834C75.5156 235.449 75.1445 236.747 74.4023 237.73C73.6602 238.707 72.6641 239.195 71.4141 239.195C70.0794 239.195 69.0475 238.723 68.3184 237.779L68.2305 239H66.5703V224H68.377V229.596C69.1061 228.691 70.112 228.238 71.3945 228.238C72.6771 228.238 73.6829 228.723 74.4121 229.693C75.1478 230.663 75.5156 231.992 75.5156 233.678V233.834ZM73.709 233.629C73.709 232.398 73.4714 231.448 72.9961 230.777C72.5208 230.107 71.8372 229.771 70.9453 229.771C69.7539 229.771 68.8978 230.325 68.377 231.432V236.002C68.9303 237.109 69.793 237.662 70.9648 237.662C71.8307 237.662 72.5046 237.327 72.9863 236.656C73.4681 235.986 73.709 234.977 73.709 233.629ZM82.9082 230.055C82.6348 230.009 82.3385 229.986 82.0195 229.986C80.8346 229.986 80.0306 230.491 79.6074 231.5V239H77.8008V228.434H79.5586L79.5879 229.654C80.1803 228.71 81.0202 228.238 82.1074 228.238C82.459 228.238 82.7259 228.284 82.9082 228.375V230.055ZM88.7676 239.195C87.3353 239.195 86.1699 238.727 85.2715 237.789C84.373 236.845 83.9238 235.585 83.9238 234.01V233.678C83.9238 232.63 84.1224 231.695 84.5195 230.875C84.9232 230.048 85.4831 229.404 86.1992 228.941C86.9219 228.473 87.7031 228.238 88.543 228.238C89.9167 228.238 90.9844 228.691 91.7461 229.596C92.5078 230.501 92.8887 231.796 92.8887 233.482V234.234H85.7305C85.7565 235.276 86.0592 236.119 86.6387 236.764C87.2246 237.402 87.9668 237.721 88.8652 237.721C89.5033 237.721 90.0436 237.59 90.4863 237.33C90.929 237.07 91.3164 236.725 91.6484 236.295L92.752 237.154C91.8665 238.515 90.5384 239.195 88.7676 239.195ZM88.543 229.723C87.8138 229.723 87.2018 229.99 86.707 230.523C86.2122 231.051 85.9062 231.793 85.7891 232.75H91.082V232.613C91.0299 231.695 90.7826 230.986 90.3398 230.484C89.8971 229.977 89.2982 229.723 88.543 229.723ZM94.9297 238.053C94.9297 237.74 95.0208 237.48 95.2031 237.271C95.3919 237.063 95.6719 236.959 96.043 236.959C96.4141 236.959 96.694 237.063 96.8828 237.271C97.0781 237.48 97.1758 237.74 97.1758 238.053C97.1758 238.352 97.0781 238.603 96.8828 238.805C96.694 239.007 96.4141 239.107 96.043 239.107C95.6719 239.107 95.3919 239.007 95.2031 238.805C95.0208 238.603 94.9297 238.352 94.9297 238.053ZM94.9395 229.43C94.9395 229.117 95.0306 228.857 95.2129 228.648C95.4017 228.44 95.6816 228.336 96.0527 228.336C96.4238 228.336 96.7038 228.44 96.8926 228.648C97.0879 228.857 97.1855 229.117 97.1855 229.43C97.1855 229.729 97.0879 229.98 96.8926 230.182C96.7038 230.383 96.4238 230.484 96.0527 230.484C95.6816 230.484 95.4017 230.383 95.2129 230.182C95.0306 229.98 94.9395 229.729 94.9395 229.43Z" fill="black"/>
<rect x="22.5" y="321.5" width="160" height="50" rx="13.5" fill="#10B6AC" stroke="black"/>
<rect x="243.5" y="321.5" width="160" height="50" rx="13.5" fill="white" stroke="black"/>
<path d="M72.502 350.289H66.5449L65.207 354H63.2734L68.7031 339.781H70.3438L75.7832 354H73.8594L72.502 350.289ZM67.1113 348.746H71.9453L69.5234 342.096L67.1113 348.746ZM81.6523 352.721C82.2969 352.721 82.86 352.525 83.3418 352.135C83.8236 351.744 84.0905 351.256 84.1426 350.67H85.8516C85.819 351.275 85.6107 351.852 85.2266 352.398C84.8424 352.945 84.3281 353.382 83.6836 353.707C83.0456 354.033 82.3685 354.195 81.6523 354.195C80.2135 354.195 79.0677 353.717 78.2148 352.76C77.3685 351.796 76.9453 350.481 76.9453 348.814V348.512C76.9453 347.483 77.1341 346.568 77.5117 345.768C77.8893 344.967 78.4297 344.345 79.1328 343.902C79.8424 343.46 80.679 343.238 81.6426 343.238C82.8275 343.238 83.8105 343.593 84.5918 344.303C85.3796 345.012 85.7995 345.934 85.8516 347.066H84.1426C84.0905 346.383 83.8301 345.823 83.3613 345.387C82.8991 344.944 82.3262 344.723 81.6426 344.723C80.7246 344.723 80.0117 345.055 79.5039 345.719C79.0026 346.376 78.752 347.33 78.752 348.58V348.922C78.752 350.139 79.0026 351.077 79.5039 351.734C80.0052 352.392 80.7214 352.721 81.6523 352.721ZM92.2676 354.195C90.8353 354.195 89.6699 353.727 88.7715 352.789C87.873 351.845 87.4238 350.585 87.4238 349.01V348.678C87.4238 347.63 87.6224 346.695 88.0195 345.875C88.4232 345.048 88.9831 344.404 89.6992 343.941C90.4219 343.473 91.2031 343.238 92.043 343.238C93.4167 343.238 94.4844 343.691 95.2461 344.596C96.0078 345.501 96.3887 346.796 96.3887 348.482V349.234H89.2305C89.2565 350.276 89.5592 351.119 90.1387 351.764C90.7246 352.402 91.4668 352.721 92.3652 352.721C93.0033 352.721 93.5436 352.59 93.9863 352.33C94.429 352.07 94.8164 351.725 95.1484 351.295L96.252 352.154C95.3665 353.515 94.0384 354.195 92.2676 354.195ZM92.043 344.723C91.3138 344.723 90.7018 344.99 90.207 345.523C89.7122 346.051 89.4062 346.793 89.2891 347.75H94.582V347.613C94.5299 346.695 94.2826 345.986 93.8398 345.484C93.3971 344.977 92.7982 344.723 92.043 344.723ZM107.414 348.834C107.414 350.442 107.046 351.738 106.311 352.721C105.575 353.704 104.579 354.195 103.322 354.195C102.04 354.195 101.031 353.788 100.295 352.975V358.062H98.4883V343.434H100.139L100.227 344.605C100.962 343.694 101.984 343.238 103.293 343.238C104.562 343.238 105.565 343.717 106.301 344.674C107.043 345.631 107.414 346.962 107.414 348.668V348.834ZM105.607 348.629C105.607 347.438 105.354 346.497 104.846 345.807C104.338 345.117 103.641 344.771 102.756 344.771C101.662 344.771 100.842 345.257 100.295 346.227V351.275C100.835 352.239 101.662 352.721 102.775 352.721C103.641 352.721 104.328 352.379 104.836 351.695C105.35 351.005 105.607 349.983 105.607 348.629ZM112.17 340.875V343.434H114.143V344.83H112.17V351.383C112.17 351.806 112.258 352.125 112.434 352.34C112.609 352.548 112.909 352.652 113.332 352.652C113.54 352.652 113.827 352.613 114.191 352.535V354C113.716 354.13 113.254 354.195 112.805 354.195C111.997 354.195 111.389 353.951 110.979 353.463C110.568 352.975 110.363 352.281 110.363 351.383V344.83H108.439V343.434H110.363V340.875H112.17ZM122.785 354C122.681 353.792 122.596 353.421 122.531 352.887C121.691 353.759 120.689 354.195 119.523 354.195C118.482 354.195 117.626 353.902 116.955 353.316C116.291 352.724 115.959 351.975 115.959 351.07C115.959 349.97 116.376 349.117 117.209 348.512C118.049 347.9 119.227 347.594 120.744 347.594H122.502V346.764C122.502 346.132 122.313 345.631 121.936 345.26C121.558 344.882 121.001 344.693 120.266 344.693C119.621 344.693 119.081 344.856 118.645 345.182C118.208 345.507 117.99 345.901 117.99 346.363H116.174C116.174 345.836 116.359 345.328 116.73 344.84C117.108 344.345 117.616 343.954 118.254 343.668C118.898 343.382 119.605 343.238 120.373 343.238C121.59 343.238 122.544 343.544 123.234 344.156C123.924 344.762 124.283 345.598 124.309 346.666V351.529C124.309 352.499 124.432 353.271 124.68 353.844V354H122.785ZM119.787 352.623C120.354 352.623 120.891 352.477 121.398 352.184C121.906 351.891 122.274 351.51 122.502 351.041V348.873H121.086C118.872 348.873 117.766 349.521 117.766 350.816C117.766 351.383 117.954 351.826 118.332 352.145C118.71 352.464 119.195 352.623 119.787 352.623ZM132.248 345.055C131.975 345.009 131.678 344.986 131.359 344.986C130.174 344.986 129.37 345.491 128.947 346.5V354H127.141V343.434H128.898L128.928 344.654C129.52 343.71 130.36 343.238 131.447 343.238C131.799 343.238 132.066 343.284 132.248 343.375V345.055Z" fill="black"/>
<path d="M293.109 349.488C292.934 350.992 292.377 352.154 291.439 352.975C290.508 353.788 289.268 354.195 287.719 354.195C286.039 354.195 284.691 353.593 283.676 352.389C282.667 351.184 282.162 349.573 282.162 347.555V346.188C282.162 344.866 282.396 343.704 282.865 342.701C283.34 341.699 284.011 340.93 284.877 340.396C285.743 339.856 286.745 339.586 287.885 339.586C289.395 339.586 290.606 340.009 291.518 340.855C292.429 341.695 292.96 342.861 293.109 344.352H291.225C291.062 343.219 290.707 342.398 290.16 341.891C289.62 341.383 288.861 341.129 287.885 341.129C286.687 341.129 285.746 341.572 285.062 342.457C284.385 343.342 284.047 344.602 284.047 346.236V347.613C284.047 349.156 284.369 350.383 285.014 351.295C285.658 352.206 286.56 352.662 287.719 352.662C288.76 352.662 289.558 352.428 290.111 351.959C290.671 351.484 291.042 350.66 291.225 349.488H293.109ZM301.918 354C301.814 353.792 301.729 353.421 301.664 352.887C300.824 353.759 299.822 354.195 298.656 354.195C297.615 354.195 296.758 353.902 296.088 353.316C295.424 352.724 295.092 351.975 295.092 351.07C295.092 349.97 295.508 349.117 296.342 348.512C297.182 347.9 298.36 347.594 299.877 347.594H301.635V346.764C301.635 346.132 301.446 345.631 301.068 345.26C300.691 344.882 300.134 344.693 299.398 344.693C298.754 344.693 298.214 344.856 297.777 345.182C297.341 345.507 297.123 345.901 297.123 346.363H295.307C295.307 345.836 295.492 345.328 295.863 344.84C296.241 344.345 296.749 343.954 297.387 343.668C298.031 343.382 298.738 343.238 299.506 343.238C300.723 343.238 301.677 343.544 302.367 344.156C303.057 344.762 303.415 345.598 303.441 346.666V351.529C303.441 352.499 303.565 353.271 303.812 353.844V354H301.918ZM298.92 352.623C299.486 352.623 300.023 352.477 300.531 352.184C301.039 351.891 301.407 351.51 301.635 351.041V348.873H300.219C298.005 348.873 296.898 349.521 296.898 350.816C296.898 351.383 297.087 351.826 297.465 352.145C297.842 352.464 298.327 352.623 298.92 352.623ZM307.982 343.434L308.041 344.762C308.848 343.746 309.903 343.238 311.205 343.238C313.438 343.238 314.564 344.498 314.584 347.018V354H312.777V347.008C312.771 346.246 312.595 345.683 312.25 345.318C311.911 344.954 311.381 344.771 310.658 344.771C310.072 344.771 309.558 344.928 309.115 345.24C308.673 345.553 308.327 345.963 308.08 346.471V354H306.273V343.434H307.982ZM321.547 352.721C322.191 352.721 322.755 352.525 323.236 352.135C323.718 351.744 323.985 351.256 324.037 350.67H325.746C325.714 351.275 325.505 351.852 325.121 352.398C324.737 352.945 324.223 353.382 323.578 353.707C322.94 354.033 322.263 354.195 321.547 354.195C320.108 354.195 318.962 353.717 318.109 352.76C317.263 351.796 316.84 350.481 316.84 348.814V348.512C316.84 347.483 317.029 346.568 317.406 345.768C317.784 344.967 318.324 344.345 319.027 343.902C319.737 343.46 320.574 343.238 321.537 343.238C322.722 343.238 323.705 343.593 324.486 344.303C325.274 345.012 325.694 345.934 325.746 347.066H324.037C323.985 346.383 323.725 345.823 323.256 345.387C322.794 344.944 322.221 344.723 321.537 344.723C320.619 344.723 319.906 345.055 319.398 345.719C318.897 346.376 318.646 347.33 318.646 348.58V348.922C318.646 350.139 318.897 351.077 319.398 351.734C319.9 352.392 320.616 352.721 321.547 352.721ZM332.162 354.195C330.73 354.195 329.564 353.727 328.666 352.789C327.768 351.845 327.318 350.585 327.318 349.01V348.678C327.318 347.63 327.517 346.695 327.914 345.875C328.318 345.048 328.878 344.404 329.594 343.941C330.316 343.473 331.098 343.238 331.938 343.238C333.311 343.238 334.379 343.691 335.141 344.596C335.902 345.501 336.283 346.796 336.283 348.482V349.234H329.125C329.151 350.276 329.454 351.119 330.033 351.764C330.619 352.402 331.361 352.721 332.26 352.721C332.898 352.721 333.438 352.59 333.881 352.33C334.324 352.07 334.711 351.725 335.043 351.295L336.146 352.154C335.261 353.515 333.933 354.195 332.162 354.195ZM331.938 344.723C331.208 344.723 330.596 344.99 330.102 345.523C329.607 346.051 329.301 346.793 329.184 347.75H334.477V347.613C334.424 346.695 334.177 345.986 333.734 345.484C333.292 344.977 332.693 344.723 331.938 344.723ZM340.346 354H338.539V339H340.346V354ZM349.77 354C349.665 353.792 349.581 353.421 349.516 352.887C348.676 353.759 347.673 354.195 346.508 354.195C345.466 354.195 344.61 353.902 343.939 353.316C343.275 352.724 342.943 351.975 342.943 351.07C342.943 349.97 343.36 349.117 344.193 348.512C345.033 347.9 346.212 347.594 347.729 347.594H349.486V346.764C349.486 346.132 349.298 345.631 348.92 345.26C348.542 344.882 347.986 344.693 347.25 344.693C346.605 344.693 346.065 344.856 345.629 345.182C345.193 345.507 344.975 345.901 344.975 346.363H343.158C343.158 345.836 343.344 345.328 343.715 344.84C344.092 344.345 344.6 343.954 345.238 343.668C345.883 343.382 346.589 343.238 347.357 343.238C348.575 343.238 349.529 343.544 350.219 344.156C350.909 344.762 351.267 345.598 351.293 346.666V351.529C351.293 352.499 351.417 353.271 351.664 353.844V354H349.77ZM346.771 352.623C347.338 352.623 347.875 352.477 348.383 352.184C348.891 351.891 349.258 351.51 349.486 351.041V348.873H348.07C345.857 348.873 344.75 349.521 344.75 350.816C344.75 351.383 344.939 351.826 345.316 352.145C345.694 352.464 346.179 352.623 346.771 352.623ZM359.232 345.055C358.959 345.009 358.663 344.986 358.344 344.986C357.159 344.986 356.355 345.491 355.932 346.5V354H354.125V343.434H355.883L355.912 344.654C356.505 343.71 357.344 343.238 358.432 343.238C358.783 343.238 359.05 343.284 359.232 343.375V345.055Z" fill="black"/>
<rect y="152" width="485" height="504" fill="white"/>
<rect x="185.5" y="217.5" width="271" height="34" fill="white" stroke="black"/>
<path d="M34.5781 239H32.6934L25.5352 228.043V239H23.6504V224.781H25.5352L32.7129 235.787V224.781H34.5781V239ZM37.1465 233.619C37.1465 232.584 37.3483 231.653 37.752 230.826C38.1621 229.999 38.7285 229.361 39.4512 228.912C40.1803 228.463 41.0104 228.238 41.9414 228.238C43.3802 228.238 44.5423 228.736 45.4277 229.732C46.3197 230.729 46.7656 232.053 46.7656 233.707V233.834C46.7656 234.863 46.5671 235.787 46.1699 236.607C45.7793 237.421 45.2161 238.056 44.4805 238.512C43.7513 238.967 42.9115 239.195 41.9609 239.195C40.5286 239.195 39.3665 238.697 38.4746 237.701C37.5892 236.705 37.1465 235.387 37.1465 233.746V233.619ZM38.9629 233.834C38.9629 235.006 39.2331 235.947 39.7734 236.656C40.3203 237.366 41.0495 237.721 41.9609 237.721C42.8789 237.721 43.6081 237.363 44.1484 236.646C44.6888 235.924 44.959 234.915 44.959 233.619C44.959 232.46 44.6823 231.523 44.1289 230.807C43.582 230.084 42.8529 229.723 41.9414 229.723C41.0495 229.723 40.3301 230.077 39.7832 230.787C39.2363 231.497 38.9629 232.512 38.9629 233.834ZM50.7305 228.434L50.7793 229.605C51.554 228.694 52.599 228.238 53.9141 228.238C55.3919 228.238 56.3978 228.805 56.9316 229.938C57.2832 229.43 57.7389 229.02 58.2988 228.707C58.8652 228.395 59.5326 228.238 60.3008 228.238C62.6185 228.238 63.7969 229.465 63.8359 231.92V239H62.0293V232.027C62.0293 231.272 61.8568 230.709 61.5117 230.338C61.1667 229.96 60.5872 229.771 59.7734 229.771C59.1029 229.771 58.5462 229.973 58.1035 230.377C57.6608 230.774 57.4036 231.311 57.332 231.988V239H55.5156V232.076C55.5156 230.54 54.7637 229.771 53.2598 229.771C52.0749 229.771 51.2643 230.276 50.8281 231.285V239H49.0215V228.434H50.7305ZM75.5156 233.834C75.5156 235.449 75.1445 236.747 74.4023 237.73C73.6602 238.707 72.6641 239.195 71.4141 239.195C70.0794 239.195 69.0475 238.723 68.3184 237.779L68.2305 239H66.5703V224H68.377V229.596C69.1061 228.691 70.112 228.238 71.3945 228.238C72.6771 228.238 73.6829 228.723 74.4121 229.693C75.1478 230.663 75.5156 231.992 75.5156 233.678V233.834ZM73.709 233.629C73.709 232.398 73.4714 231.448 72.9961 230.777C72.5208 230.107 71.8372 229.771 70.9453 229.771C69.7539 229.771 68.8978 230.325 68.377 231.432V236.002C68.9303 237.109 69.793 237.662 70.9648 237.662C71.8307 237.662 72.5046 237.327 72.9863 236.656C73.4681 235.986 73.709 234.977 73.709 233.629ZM82.9082 230.055C82.6348 230.009 82.3385 229.986 82.0195 229.986C80.8346 229.986 80.0306 230.491 79.6074 231.5V239H77.8008V228.434H79.5586L79.5879 229.654C80.1803 228.71 81.0202 228.238 82.1074 228.238C82.459 228.238 82.7259 228.284 82.9082 228.375V230.055ZM88.7676 239.195C87.3353 239.195 86.1699 238.727 85.2715 237.789C84.373 236.845 83.9238 235.585 83.9238 234.01V233.678C83.9238 232.63 84.1224 231.695 84.5195 230.875C84.9232 230.048 85.4831 229.404 86.1992 228.941C86.9219 228.473 87.7031 228.238 88.543 228.238C89.9167 228.238 90.9844 228.691 91.7461 229.596C92.5078 230.501 92.8887 231.796 92.8887 233.482V234.234H85.7305C85.7565 235.276 86.0592 236.119 86.6387 236.764C87.2246 237.402 87.9668 237.721 88.8652 237.721C89.5033 237.721 90.0436 237.59 90.4863 237.33C90.929 237.07 91.3164 236.725 91.6484 236.295L92.752 237.154C91.8665 238.515 90.5384 239.195 88.7676 239.195ZM88.543 229.723C87.8138 229.723 87.2018 229.99 86.707 230.523C86.2122 231.051 85.9062 231.793 85.7891 232.75H91.082V232.613C91.0299 231.695 90.7826 230.986 90.3398 230.484C89.8971 229.977 89.2982 229.723 88.543 229.723ZM94.9297 238.053C94.9297 237.74 95.0208 237.48 95.2031 237.271C95.3919 237.063 95.6719 236.959 96.043 236.959C96.4141 236.959 96.694 237.063 96.8828 237.271C97.0781 237.48 97.1758 237.74 97.1758 238.053C97.1758 238.352 97.0781 238.603 96.8828 238.805C96.694 239.007 96.4141 239.107 96.043 239.107C95.6719 239.107 95.3919 239.007 95.2031 238.805C95.0208 238.603 94.9297 238.352 94.9297 238.053ZM94.9395 229.43C94.9395 229.117 95.0306 228.857 95.2129 228.648C95.4017 228.44 95.6816 228.336 96.0527 228.336C96.4238 228.336 96.7038 228.44 96.8926 228.648C97.0879 228.857 97.1855 229.117 97.1855 229.43C97.1855 229.729 97.0879 229.98 96.8926 230.182C96.7038 230.383 96.4238 230.484 96.0527 230.484C95.6816 230.484 95.4017 230.383 95.2129 230.182C95.0306 229.98 94.9395 229.729 94.9395 229.43Z" fill="black"/>
<rect x="22.5" y="321.5" width="160" height="50" rx="13.5" fill="#10B6AC" stroke="black"/>
<rect x="243.5" y="321.5" width="160" height="50" rx="13.5" fill="white" stroke="black"/>
<path d="M72.502 350.289H66.5449L65.207 354H63.2734L68.7031 339.781H70.3438L75.7832 354H73.8594L72.502 350.289ZM67.1113 348.746H71.9453L69.5234 342.096L67.1113 348.746ZM81.6523 352.721C82.2969 352.721 82.86 352.525 83.3418 352.135C83.8236 351.744 84.0905 351.256 84.1426 350.67H85.8516C85.819 351.275 85.6107 351.852 85.2266 352.398C84.8424 352.945 84.3281 353.382 83.6836 353.707C83.0456 354.033 82.3685 354.195 81.6523 354.195C80.2135 354.195 79.0677 353.717 78.2148 352.76C77.3685 351.796 76.9453 350.481 76.9453 348.814V348.512C76.9453 347.483 77.1341 346.568 77.5117 345.768C77.8893 344.967 78.4297 344.345 79.1328 343.902C79.8424 343.46 80.679 343.238 81.6426 343.238C82.8275 343.238 83.8105 343.593 84.5918 344.303C85.3796 345.012 85.7995 345.934 85.8516 347.066H84.1426C84.0905 346.383 83.8301 345.823 83.3613 345.387C82.8991 344.944 82.3262 344.723 81.6426 344.723C80.7246 344.723 80.0117 345.055 79.5039 345.719C79.0026 346.376 78.752 347.33 78.752 348.58V348.922C78.752 350.139 79.0026 351.077 79.5039 351.734C80.0052 352.392 80.7214 352.721 81.6523 352.721ZM92.2676 354.195C90.8353 354.195 89.6699 353.727 88.7715 352.789C87.873 351.845 87.4238 350.585 87.4238 349.01V348.678C87.4238 347.63 87.6224 346.695 88.0195 345.875C88.4232 345.048 88.9831 344.404 89.6992 343.941C90.4219 343.473 91.2031 343.238 92.043 343.238C93.4167 343.238 94.4844 343.691 95.2461 344.596C96.0078 345.501 96.3887 346.796 96.3887 348.482V349.234H89.2305C89.2565 350.276 89.5592 351.119 90.1387 351.764C90.7246 352.402 91.4668 352.721 92.3652 352.721C93.0033 352.721 93.5436 352.59 93.9863 352.33C94.429 352.07 94.8164 351.725 95.1484 351.295L96.252 352.154C95.3665 353.515 94.0384 354.195 92.2676 354.195ZM92.043 344.723C91.3138 344.723 90.7018 344.99 90.207 345.523C89.7122 346.051 89.4062 346.793 89.2891 347.75H94.582V347.613C94.5299 346.695 94.2826 345.986 93.8398 345.484C93.3971 344.977 92.7982 344.723 92.043 344.723ZM107.414 348.834C107.414 350.442 107.046 351.738 106.311 352.721C105.575 353.704 104.579 354.195 103.322 354.195C102.04 354.195 101.031 353.788 100.295 352.975V358.062H98.4883V343.434H100.139L100.227 344.605C100.962 343.694 101.984 343.238 103.293 343.238C104.562 343.238 105.565 343.717 106.301 344.674C107.043 345.631 107.414 346.962 107.414 348.668V348.834ZM105.607 348.629C105.607 347.438 105.354 346.497 104.846 345.807C104.338 345.117 103.641 344.771 102.756 344.771C101.662 344.771 100.842 345.257 100.295 346.227V351.275C100.835 352.239 101.662 352.721 102.775 352.721C103.641 352.721 104.328 352.379 104.836 351.695C105.35 351.005 105.607 349.983 105.607 348.629ZM112.17 340.875V343.434H114.143V344.83H112.17V351.383C112.17 351.806 112.258 352.125 112.434 352.34C112.609 352.548 112.909 352.652 113.332 352.652C113.54 352.652 113.827 352.613 114.191 352.535V354C113.716 354.13 113.254 354.195 112.805 354.195C111.997 354.195 111.389 353.951 110.979 353.463C110.568 352.975 110.363 352.281 110.363 351.383V344.83H108.439V343.434H110.363V340.875H112.17ZM122.785 354C122.681 353.792 122.596 353.421 122.531 352.887C121.691 353.759 120.689 354.195 119.523 354.195C118.482 354.195 117.626 353.902 116.955 353.316C116.291 352.724 115.959 351.975 115.959 351.07C115.959 349.97 116.376 349.117 117.209 348.512C118.049 347.9 119.227 347.594 120.744 347.594H122.502V346.764C122.502 346.132 122.313 345.631 121.936 345.26C121.558 344.882 121.001 344.693 120.266 344.693C119.621 344.693 119.081 344.856 118.645 345.182C118.208 345.507 117.99 345.901 117.99 346.363H116.174C116.174 345.836 116.359 345.328 116.73 344.84C117.108 344.345 117.616 343.954 118.254 343.668C118.898 343.382 119.605 343.238 120.373 343.238C121.59 343.238 122.544 343.544 123.234 344.156C123.924 344.762 124.283 345.598 124.309 346.666V351.529C124.309 352.499 124.432 353.271 124.68 353.844V354H122.785ZM119.787 352.623C120.354 352.623 120.891 352.477 121.398 352.184C121.906 351.891 122.274 351.51 122.502 351.041V348.873H121.086C118.872 348.873 117.766 349.521 117.766 350.816C117.766 351.383 117.954 351.826 118.332 352.145C118.71 352.464 119.195 352.623 119.787 352.623ZM132.248 345.055C131.975 345.009 131.678 344.986 131.359 344.986C130.174 344.986 129.37 345.491 128.947 346.5V354H127.141V343.434H128.898L128.928 344.654C129.52 343.71 130.36 343.238 131.447 343.238C131.799 343.238 132.066 343.284 132.248 343.375V345.055Z" fill="black"/>
<path d="M293.109 349.488C292.934 350.992 292.377 352.154 291.439 352.975C290.508 353.788 289.268 354.195 287.719 354.195C286.039 354.195 284.691 353.593 283.676 352.389C282.667 351.184 282.162 349.573 282.162 347.555V346.188C282.162 344.866 282.396 343.704 282.865 342.701C283.34 341.699 284.011 340.93 284.877 340.396C285.743 339.856 286.745 339.586 287.885 339.586C289.395 339.586 290.606 340.009 291.518 340.855C292.429 341.695 292.96 342.861 293.109 344.352H291.225C291.062 343.219 290.707 342.398 290.16 341.891C289.62 341.383 288.861 341.129 287.885 341.129C286.687 341.129 285.746 341.572 285.062 342.457C284.385 343.342 284.047 344.602 284.047 346.236V347.613C284.047 349.156 284.369 350.383 285.014 351.295C285.658 352.206 286.56 352.662 287.719 352.662C288.76 352.662 289.558 352.428 290.111 351.959C290.671 351.484 291.042 350.66 291.225 349.488H293.109ZM301.918 354C301.814 353.792 301.729 353.421 301.664 352.887C300.824 353.759 299.822 354.195 298.656 354.195C297.615 354.195 296.758 353.902 296.088 353.316C295.424 352.724 295.092 351.975 295.092 351.07C295.092 349.97 295.508 349.117 296.342 348.512C297.182 347.9 298.36 347.594 299.877 347.594H301.635V346.764C301.635 346.132 301.446 345.631 301.068 345.26C300.691 344.882 300.134 344.693 299.398 344.693C298.754 344.693 298.214 344.856 297.777 345.182C297.341 345.507 297.123 345.901 297.123 346.363H295.307C295.307 345.836 295.492 345.328 295.863 344.84C296.241 344.345 296.749 343.954 297.387 343.668C298.031 343.382 298.738 343.238 299.506 343.238C300.723 343.238 301.677 343.544 302.367 344.156C303.057 344.762 303.415 345.598 303.441 346.666V351.529C303.441 352.499 303.565 353.271 303.812 353.844V354H301.918ZM298.92 352.623C299.486 352.623 300.023 352.477 300.531 352.184C301.039 351.891 301.407 351.51 301.635 351.041V348.873H300.219C298.005 348.873 296.898 349.521 296.898 350.816C296.898 351.383 297.087 351.826 297.465 352.145C297.842 352.464 298.327 352.623 298.92 352.623ZM307.982 343.434L308.041 344.762C308.848 343.746 309.903 343.238 311.205 343.238C313.438 343.238 314.564 344.498 314.584 347.018V354H312.777V347.008C312.771 346.246 312.595 345.683 312.25 345.318C311.911 344.954 311.381 344.771 310.658 344.771C310.072 344.771 309.558 344.928 309.115 345.24C308.673 345.553 308.327 345.963 308.08 346.471V354H306.273V343.434H307.982ZM321.547 352.721C322.191 352.721 322.755 352.525 323.236 352.135C323.718 351.744 323.985 351.256 324.037 350.67H325.746C325.714 351.275 325.505 351.852 325.121 352.398C324.737 352.945 324.223 353.382 323.578 353.707C322.94 354.033 322.263 354.195 321.547 354.195C320.108 354.195 318.962 353.717 318.109 352.76C317.263 351.796 316.84 350.481 316.84 348.814V348.512C316.84 347.483 317.029 346.568 317.406 345.768C317.784 344.967 318.324 344.345 319.027 343.902C319.737 343.46 320.574 343.238 321.537 343.238C322.722 343.238 323.705 343.593 324.486 344.303C325.274 345.012 325.694 345.934 325.746 347.066H324.037C323.985 346.383 323.725 345.823 323.256 345.387C322.794 344.944 322.221 344.723 321.537 344.723C320.619 344.723 319.906 345.055 319.398 345.719C318.897 346.376 318.646 347.33 318.646 348.58V348.922C318.646 350.139 318.897 351.077 319.398 351.734C319.9 352.392 320.616 352.721 321.547 352.721ZM332.162 354.195C330.73 354.195 329.564 353.727 328.666 352.789C327.768 351.845 327.318 350.585 327.318 349.01V348.678C327.318 347.63 327.517 346.695 327.914 345.875C328.318 345.048 328.878 344.404 329.594 343.941C330.316 343.473 331.098 343.238 331.938 343.238C333.311 343.238 334.379 343.691 335.141 344.596C335.902 345.501 336.283 346.796 336.283 348.482V349.234H329.125C329.151 350.276 329.454 351.119 330.033 351.764C330.619 352.402 331.361 352.721 332.26 352.721C332.898 352.721 333.438 352.59 333.881 352.33C334.324 352.07 334.711 351.725 335.043 351.295L336.146 352.154C335.261 353.515 333.933 354.195 332.162 354.195ZM331.938 344.723C331.208 344.723 330.596 344.99 330.102 345.523C329.607 346.051 329.301 346.793 329.184 347.75H334.477V347.613C334.424 346.695 334.177 345.986 333.734 345.484C333.292 344.977 332.693 344.723 331.938 344.723ZM340.346 354H338.539V339H340.346V354ZM349.77 354C349.665 353.792 349.581 353.421 349.516 352.887C348.676 353.759 347.673 354.195 346.508 354.195C345.466 354.195 344.61 353.902 343.939 353.316C343.275 352.724 342.943 351.975 342.943 351.07C342.943 349.97 343.36 349.117 344.193 348.512C345.033 347.9 346.212 347.594 347.729 347.594H349.486V346.764C349.486 346.132 349.298 345.631 348.92 345.26C348.542 344.882 347.986 344.693 347.25 344.693C346.605 344.693 346.065 344.856 345.629 345.182C345.193 345.507 344.975 345.901 344.975 346.363H343.158C343.158 345.836 343.344 345.328 343.715 344.84C344.092 344.345 344.6 343.954 345.238 343.668C345.883 343.382 346.589 343.238 347.357 343.238C348.575 343.238 349.529 343.544 350.219 344.156C350.909 344.762 351.267 345.598 351.293 346.666V351.529C351.293 352.499 351.417 353.271 351.664 353.844V354H349.77ZM346.771 352.623C347.338 352.623 347.875 352.477 348.383 352.184C348.891 351.891 349.258 351.51 349.486 351.041V348.873H348.07C345.857 348.873 344.75 349.521 344.75 350.816C344.75 351.383 344.939 351.826 345.316 352.145C345.694 352.464 346.179 352.623 346.771 352.623ZM359.232 345.055C358.959 345.009 358.663 344.986 358.344 344.986C357.159 344.986 356.355 345.491 355.932 346.5V354H354.125V343.434H355.883L355.912 344.654C356.505 343.71 357.344 343.238 358.432 343.238C358.783 343.238 359.05 343.284 359.232 343.375V345.055Z" fill="black"/>
<rect y="152" width="485" height="504" fill="white"/>
<rect x="185.5" y="217.5" width="271" height="34" fill="white" stroke="black"/>
<path d="M25.6621 239H23.7871V224.781H25.6621V239ZM29.0996 239V224.781H33.1133C34.3503 224.781 35.444 225.055 36.3945 225.602C37.3451 226.148 38.0775 226.926 38.5918 227.936C39.1126 228.945 39.3763 230.104 39.3828 231.412V232.32C39.3828 233.661 39.1224 234.837 38.6016 235.846C38.0872 236.855 37.3483 237.63 36.3848 238.17C35.4277 238.71 34.3112 238.987 33.0352 239H29.0996ZM30.9746 226.324V237.467H32.9473C34.3926 237.467 35.5156 237.018 36.3164 236.119C37.1237 235.221 37.5273 233.941 37.5273 232.281V231.451C37.5273 229.837 37.1465 228.583 36.3848 227.691C35.6296 226.793 34.5553 226.337 33.1621 226.324H30.9746ZM51.375 232.662C49.7669 232.2 48.5951 231.633 47.8594 230.963C47.1302 230.286 46.7656 229.452 46.7656 228.463C46.7656 227.343 47.2116 226.419 48.1035 225.689C49.002 224.954 50.1673 224.586 51.5996 224.586C52.5762 224.586 53.4453 224.775 54.207 225.152C54.9753 225.53 55.5677 226.051 55.9844 226.715C56.4076 227.379 56.6191 228.105 56.6191 228.893H54.7344C54.7344 228.033 54.4609 227.359 53.9141 226.871C53.3672 226.376 52.5957 226.129 51.5996 226.129C50.6751 226.129 49.9525 226.334 49.4316 226.744C48.9173 227.148 48.6602 227.711 48.6602 228.434C48.6602 229.013 48.9043 229.505 49.3926 229.908C49.8874 230.305 50.724 230.67 51.9023 231.002C53.0872 231.334 54.0117 231.702 54.6758 232.105C55.3464 232.503 55.8411 232.968 56.1602 233.502C56.4857 234.036 56.6484 234.664 56.6484 235.387C56.6484 236.539 56.1992 237.464 55.3008 238.16C54.4023 238.85 53.2012 239.195 51.6973 239.195C50.7207 239.195 49.8092 239.01 48.9629 238.639C48.1165 238.261 47.4622 237.747 47 237.096C46.5443 236.445 46.3164 235.706 46.3164 234.879H48.2012C48.2012 235.738 48.5169 236.419 49.1484 236.92C49.7865 237.415 50.6361 237.662 51.6973 237.662C52.6868 237.662 53.4453 237.46 53.9727 237.057C54.5 236.653 54.7637 236.103 54.7637 235.406C54.7637 234.71 54.5195 234.173 54.0312 233.795C53.543 233.411 52.6576 233.033 51.375 232.662ZM63.1621 239.195C61.7298 239.195 60.5645 238.727 59.666 237.789C58.7676 236.845 58.3184 235.585 58.3184 234.01V233.678C58.3184 232.63 58.5169 231.695 58.9141 230.875C59.3177 230.048 59.8776 229.404 60.5938 228.941C61.3164 228.473 62.0977 228.238 62.9375 228.238C64.3112 228.238 65.3789 228.691 66.1406 229.596C66.9023 230.501 67.2832 231.796 67.2832 233.482V234.234H60.125C60.151 235.276 60.4538 236.119 61.0332 236.764C61.6191 237.402 62.3613 237.721 63.2598 237.721C63.8978 237.721 64.4382 237.59 64.8809 237.33C65.3236 237.07 65.7109 236.725 66.043 236.295L67.1465 237.154C66.2611 238.515 64.9329 239.195 63.1621 239.195ZM62.9375 229.723C62.2083 229.723 61.5964 229.99 61.1016 230.523C60.6068 231.051 60.3008 231.793 60.1836 232.75H65.4766V232.613C65.4245 231.695 65.1771 230.986 64.7344 230.484C64.2917 229.977 63.6927 229.723 62.9375 229.723ZM75.5352 236.197C75.5352 235.709 75.3496 235.331 74.9785 235.064C74.6139 234.791 73.9727 234.557 73.0547 234.361C72.1432 234.166 71.4173 233.932 70.877 233.658C70.3431 233.385 69.946 233.059 69.6855 232.682C69.4316 232.304 69.3047 231.855 69.3047 231.334C69.3047 230.468 69.6693 229.736 70.3984 229.137C71.1341 228.538 72.0716 228.238 73.2109 228.238C74.4089 228.238 75.3789 228.548 76.1211 229.166C76.8698 229.785 77.2441 230.576 77.2441 231.539H75.4277C75.4277 231.044 75.2161 230.618 74.793 230.26C74.3763 229.902 73.849 229.723 73.2109 229.723C72.5534 229.723 72.0391 229.866 71.668 230.152C71.2969 230.439 71.1113 230.813 71.1113 231.275C71.1113 231.712 71.2839 232.04 71.6289 232.262C71.974 232.483 72.5957 232.695 73.4941 232.896C74.3991 233.098 75.1315 233.339 75.6914 233.619C76.2513 233.899 76.6647 234.238 76.9316 234.635C77.2051 235.025 77.3418 235.504 77.3418 236.07C77.3418 237.014 76.9642 237.773 76.209 238.346C75.4538 238.912 74.474 239.195 73.2695 239.195C72.4232 239.195 71.6745 239.046 71.0234 238.746C70.3724 238.447 69.8613 238.03 69.4902 237.496C69.1257 236.956 68.9434 236.373 68.9434 235.748H70.75C70.7826 236.354 71.0234 236.835 71.4727 237.193C71.9284 237.545 72.5273 237.721 73.2695 237.721C73.9531 237.721 74.5 237.584 74.9102 237.311C75.3268 237.031 75.5352 236.66 75.5352 236.197ZM81.6582 239H79.8516V228.434H81.6582V239ZM79.7051 225.631C79.7051 225.338 79.793 225.09 79.9688 224.889C80.151 224.687 80.418 224.586 80.7695 224.586C81.1211 224.586 81.388 224.687 81.5703 224.889C81.7526 225.09 81.8438 225.338 81.8438 225.631C81.8438 225.924 81.7526 226.168 81.5703 226.363C81.388 226.559 81.1211 226.656 80.7695 226.656C80.418 226.656 80.151 226.559 79.9688 226.363C79.793 226.168 79.7051 225.924 79.7051 225.631ZM84.0801 233.619C84.0801 232.584 84.2819 231.653 84.6855 230.826C85.0957 229.999 85.6621 229.361 86.3848 228.912C87.1139 228.463 87.944 228.238 88.875 228.238C90.3138 228.238 91.4759 228.736 92.3613 229.732C93.2533 230.729 93.6992 232.053 93.6992 233.707V233.834C93.6992 234.863 93.5007 235.787 93.1035 236.607C92.7129 237.421 92.1497 238.056 91.4141 238.512C90.6849 238.967 89.8451 239.195 88.8945 239.195C87.4622 239.195 86.3001 238.697 85.4082 237.701C84.5228 236.705 84.0801 235.387 84.0801 233.746V233.619ZM85.8965 233.834C85.8965 235.006 86.1667 235.947 86.707 236.656C87.2539 237.366 87.9831 237.721 88.8945 237.721C89.8125 237.721 90.5417 237.363 91.082 236.646C91.6224 235.924 91.8926 234.915 91.8926 233.619C91.8926 232.46 91.6159 231.523 91.0625 230.807C90.5156 230.084 89.7865 229.723 88.875 229.723C87.9831 229.723 87.2637 230.077 86.7168 230.787C86.1699 231.497 85.8965 232.512 85.8965 233.834ZM89.6953 224H91.8828L89.2656 226.871H87.8105L89.6953 224ZM97.6738 228.434L97.7324 229.762C98.5397 228.746 99.5944 228.238 100.896 228.238C103.13 228.238 104.256 229.498 104.275 232.018V239H102.469V232.008C102.462 231.246 102.286 230.683 101.941 230.318C101.603 229.954 101.072 229.771 100.35 229.771C99.7637 229.771 99.2493 229.928 98.8066 230.24C98.3639 230.553 98.0189 230.963 97.7715 231.471V239H95.9648V228.434H97.6738ZM106.941 238.053C106.941 237.74 107.033 237.48 107.215 237.271C107.404 237.063 107.684 236.959 108.055 236.959C108.426 236.959 108.706 237.063 108.895 237.271C109.09 237.48 109.188 237.74 109.188 238.053C109.188 238.352 109.09 238.603 108.895 238.805C108.706 239.007 108.426 239.107 108.055 239.107C107.684 239.107 107.404 239.007 107.215 238.805C107.033 238.603 106.941 238.352 106.941 238.053ZM106.951 229.43C106.951 229.117 107.042 228.857 107.225 228.648C107.413 228.44 107.693 228.336 108.064 228.336C108.436 228.336 108.715 228.44 108.904 228.648C109.1 228.857 109.197 229.117 109.197 229.43C109.197 229.729 109.1 229.98 108.904 230.182C108.715 230.383 108.436 230.484 108.064 230.484C107.693 230.484 107.413 230.383 107.225 230.182C107.042 229.98 106.951 229.729 106.951 229.43Z" fill="black"/>
<rect x="22.5" y="321.5" width="160" height="50" rx="13.5" fill="#5B5B5B" stroke="black"/>
<rect x="243.5" y="321.5" width="160" height="50" rx="13.5" fill="white" stroke="black"/>
<path d="M72.502 350.289H66.5449L65.207 354H63.2734L68.7031 339.781H70.3438L75.7832 354H73.8594L72.502 350.289ZM67.1113 348.746H71.9453L69.5234 342.096L67.1113 348.746ZM81.6523 352.721C82.2969 352.721 82.86 352.525 83.3418 352.135C83.8236 351.744 84.0905 351.256 84.1426 350.67H85.8516C85.819 351.275 85.6107 351.852 85.2266 352.398C84.8424 352.945 84.3281 353.382 83.6836 353.707C83.0456 354.033 82.3685 354.195 81.6523 354.195C80.2135 354.195 79.0677 353.717 78.2148 352.76C77.3685 351.796 76.9453 350.481 76.9453 348.814V348.512C76.9453 347.483 77.1341 346.568 77.5117 345.768C77.8893 344.967 78.4297 344.345 79.1328 343.902C79.8424 343.46 80.679 343.238 81.6426 343.238C82.8275 343.238 83.8105 343.593 84.5918 344.303C85.3796 345.012 85.7995 345.934 85.8516 347.066H84.1426C84.0905 346.383 83.8301 345.823 83.3613 345.387C82.8991 344.944 82.3262 344.723 81.6426 344.723C80.7246 344.723 80.0117 345.055 79.5039 345.719C79.0026 346.376 78.752 347.33 78.752 348.58V348.922C78.752 350.139 79.0026 351.077 79.5039 351.734C80.0052 352.392 80.7214 352.721 81.6523 352.721ZM92.2676 354.195C90.8353 354.195 89.6699 353.727 88.7715 352.789C87.873 351.845 87.4238 350.585 87.4238 349.01V348.678C87.4238 347.63 87.6224 346.695 88.0195 345.875C88.4232 345.048 88.9831 344.404 89.6992 343.941C90.4219 343.473 91.2031 343.238 92.043 343.238C93.4167 343.238 94.4844 343.691 95.2461 344.596C96.0078 345.501 96.3887 346.796 96.3887 348.482V349.234H89.2305C89.2565 350.276 89.5592 351.119 90.1387 351.764C90.7246 352.402 91.4668 352.721 92.3652 352.721C93.0033 352.721 93.5436 352.59 93.9863 352.33C94.429 352.07 94.8164 351.725 95.1484 351.295L96.252 352.154C95.3665 353.515 94.0384 354.195 92.2676 354.195ZM92.043 344.723C91.3138 344.723 90.7018 344.99 90.207 345.523C89.7122 346.051 89.4062 346.793 89.2891 347.75H94.582V347.613C94.5299 346.695 94.2826 345.986 93.8398 345.484C93.3971 344.977 92.7982 344.723 92.043 344.723ZM107.414 348.834C107.414 350.442 107.046 351.738 106.311 352.721C105.575 353.704 104.579 354.195 103.322 354.195C102.04 354.195 101.031 353.788 100.295 352.975V358.062H98.4883V343.434H100.139L100.227 344.605C100.962 343.694 101.984 343.238 103.293 343.238C104.562 343.238 105.565 343.717 106.301 344.674C107.043 345.631 107.414 346.962 107.414 348.668V348.834ZM105.607 348.629C105.607 347.438 105.354 346.497 104.846 345.807C104.338 345.117 103.641 344.771 102.756 344.771C101.662 344.771 100.842 345.257 100.295 346.227V351.275C100.835 352.239 101.662 352.721 102.775 352.721C103.641 352.721 104.328 352.379 104.836 351.695C105.35 351.005 105.607 349.983 105.607 348.629ZM112.17 340.875V343.434H114.143V344.83H112.17V351.383C112.17 351.806 112.258 352.125 112.434 352.34C112.609 352.548 112.909 352.652 113.332 352.652C113.54 352.652 113.827 352.613 114.191 352.535V354C113.716 354.13 113.254 354.195 112.805 354.195C111.997 354.195 111.389 353.951 110.979 353.463C110.568 352.975 110.363 352.281 110.363 351.383V344.83H108.439V343.434H110.363V340.875H112.17ZM122.785 354C122.681 353.792 122.596 353.421 122.531 352.887C121.691 353.759 120.689 354.195 119.523 354.195C118.482 354.195 117.626 353.902 116.955 353.316C116.291 352.724 115.959 351.975 115.959 351.07C115.959 349.97 116.376 349.117 117.209 348.512C118.049 347.9 119.227 347.594 120.744 347.594H122.502V346.764C122.502 346.132 122.313 345.631 121.936 345.26C121.558 344.882 121.001 344.693 120.266 344.693C119.621 344.693 119.081 344.856 118.645 345.182C118.208 345.507 117.99 345.901 117.99 346.363H116.174C116.174 345.836 116.359 345.328 116.73 344.84C117.108 344.345 117.616 343.954 118.254 343.668C118.898 343.382 119.605 343.238 120.373 343.238C121.59 343.238 122.544 343.544 123.234 344.156C123.924 344.762 124.283 345.598 124.309 346.666V351.529C124.309 352.499 124.432 353.271 124.68 353.844V354H122.785ZM119.787 352.623C120.354 352.623 120.891 352.477 121.398 352.184C121.906 351.891 122.274 351.51 122.502 351.041V348.873H121.086C118.872 348.873 117.766 349.521 117.766 350.816C117.766 351.383 117.954 351.826 118.332 352.145C118.71 352.464 119.195 352.623 119.787 352.623ZM132.248 345.055C131.975 345.009 131.678 344.986 131.359 344.986C130.174 344.986 129.37 345.491 128.947 346.5V354H127.141V343.434H128.898L128.928 344.654C129.52 343.71 130.36 343.238 131.447 343.238C131.799 343.238 132.066 343.284 132.248 343.375V345.055Z" fill="black"/>
<path d="M293.109 349.488C292.934 350.992 292.377 352.154 291.439 352.975C290.508 353.788 289.268 354.195 287.719 354.195C286.039 354.195 284.691 353.593 283.676 352.389C282.667 351.184 282.162 349.573 282.162 347.555V346.188C282.162 344.866 282.396 343.704 282.865 342.701C283.34 341.699 284.011 340.93 284.877 340.396C285.743 339.856 286.745 339.586 287.885 339.586C289.395 339.586 290.606 340.009 291.518 340.855C292.429 341.695 292.96 342.861 293.109 344.352H291.225C291.062 343.219 290.707 342.398 290.16 341.891C289.62 341.383 288.861 341.129 287.885 341.129C286.687 341.129 285.746 341.572 285.062 342.457C284.385 343.342 284.047 344.602 284.047 346.236V347.613C284.047 349.156 284.369 350.383 285.014 351.295C285.658 352.206 286.56 352.662 287.719 352.662C288.76 352.662 289.558 352.428 290.111 351.959C290.671 351.484 291.042 350.66 291.225 349.488H293.109ZM301.918 354C301.814 353.792 301.729 353.421 301.664 352.887C300.824 353.759 299.822 354.195 298.656 354.195C297.615 354.195 296.758 353.902 296.088 353.316C295.424 352.724 295.092 351.975 295.092 351.07C295.092 349.97 295.508 349.117 296.342 348.512C297.182 347.9 298.36 347.594 299.877 347.594H301.635V346.764C301.635 346.132 301.446 345.631 301.068 345.26C300.691 344.882 300.134 344.693 299.398 344.693C298.754 344.693 298.214 344.856 297.777 345.182C297.341 345.507 297.123 345.901 297.123 346.363H295.307C295.307 345.836 295.492 345.328 295.863 344.84C296.241 344.345 296.749 343.954 297.387 343.668C298.031 343.382 298.738 343.238 299.506 343.238C300.723 343.238 301.677 343.544 302.367 344.156C303.057 344.762 303.415 345.598 303.441 346.666V351.529C303.441 352.499 303.565 353.271 303.812 353.844V354H301.918ZM298.92 352.623C299.486 352.623 300.023 352.477 300.531 352.184C301.039 351.891 301.407 351.51 301.635 351.041V348.873H300.219C298.005 348.873 296.898 349.521 296.898 350.816C296.898 351.383 297.087 351.826 297.465 352.145C297.842 352.464 298.327 352.623 298.92 352.623ZM307.982 343.434L308.041 344.762C308.848 343.746 309.903 343.238 311.205 343.238C313.438 343.238 314.564 344.498 314.584 347.018V354H312.777V347.008C312.771 346.246 312.595 345.683 312.25 345.318C311.911 344.954 311.381 344.771 310.658 344.771C310.072 344.771 309.558 344.928 309.115 345.24C308.673 345.553 308.327 345.963 308.08 346.471V354H306.273V343.434H307.982ZM321.547 352.721C322.191 352.721 322.755 352.525 323.236 352.135C323.718 351.744 323.985 351.256 324.037 350.67H325.746C325.714 351.275 325.505 351.852 325.121 352.398C324.737 352.945 324.223 353.382 323.578 353.707C322.94 354.033 322.263 354.195 321.547 354.195C320.108 354.195 318.962 353.717 318.109 352.76C317.263 351.796 316.84 350.481 316.84 348.814V348.512C316.84 347.483 317.029 346.568 317.406 345.768C317.784 344.967 318.324 344.345 319.027 343.902C319.737 343.46 320.574 343.238 321.537 343.238C322.722 343.238 323.705 343.593 324.486 344.303C325.274 345.012 325.694 345.934 325.746 347.066H324.037C323.985 346.383 323.725 345.823 323.256 345.387C322.794 344.944 322.221 344.723 321.537 344.723C320.619 344.723 319.906 345.055 319.398 345.719C318.897 346.376 318.646 347.33 318.646 348.58V348.922C318.646 350.139 318.897 351.077 319.398 351.734C319.9 352.392 320.616 352.721 321.547 352.721ZM332.162 354.195C330.73 354.195 329.564 353.727 328.666 352.789C327.768 351.845 327.318 350.585 327.318 349.01V348.678C327.318 347.63 327.517 346.695 327.914 345.875C328.318 345.048 328.878 344.404 329.594 343.941C330.316 343.473 331.098 343.238 331.938 343.238C333.311 343.238 334.379 343.691 335.141 344.596C335.902 345.501 336.283 346.796 336.283 348.482V349.234H329.125C329.151 350.276 329.454 351.119 330.033 351.764C330.619 352.402 331.361 352.721 332.26 352.721C332.898 352.721 333.438 352.59 333.881 352.33C334.324 352.07 334.711 351.725 335.043 351.295L336.146 352.154C335.261 353.515 333.933 354.195 332.162 354.195ZM331.938 344.723C331.208 344.723 330.596 344.99 330.102 345.523C329.607 346.051 329.301 346.793 329.184 347.75H334.477V347.613C334.424 346.695 334.177 345.986 333.734 345.484C333.292 344.977 332.693 344.723 331.938 344.723ZM340.346 354H338.539V339H340.346V354ZM349.77 354C349.665 353.792 349.581 353.421 349.516 352.887C348.676 353.759 347.673 354.195 346.508 354.195C345.466 354.195 344.61 353.902 343.939 353.316C343.275 352.724 342.943 351.975 342.943 351.07C342.943 349.97 343.36 349.117 344.193 348.512C345.033 347.9 346.212 347.594 347.729 347.594H349.486V346.764C349.486 346.132 349.298 345.631 348.92 345.26C348.542 344.882 347.986 344.693 347.25 344.693C346.605 344.693 346.065 344.856 345.629 345.182C345.193 345.507 344.975 345.901 344.975 346.363H343.158C343.158 345.836 343.344 345.328 343.715 344.84C344.092 344.345 344.6 343.954 345.238 343.668C345.883 343.382 346.589 343.238 347.357 343.238C348.575 343.238 349.529 343.544 350.219 344.156C350.909 344.762 351.267 345.598 351.293 346.666V351.529C351.293 352.499 351.417 353.271 351.664 353.844V354H349.77ZM346.771 352.623C347.338 352.623 347.875 352.477 348.383 352.184C348.891 351.891 349.258 351.51 349.486 351.041V348.873H348.07C345.857 348.873 344.75 349.521 344.75 350.816C344.75 351.383 344.939 351.826 345.316 352.145C345.694 352.464 346.179 352.623 346.771 352.623ZM359.232 345.055C358.959 345.009 358.663 344.986 358.344 344.986C357.159 344.986 356.355 345.491 355.932 346.5V354H354.125V343.434H355.883L355.912 344.654C356.505 343.71 357.344 343.238 358.432 343.238C358.783 343.238 359.05 343.284 359.232 343.375V345.055Z" fill="black"/>
<path d="M0 82H485V152H0V82Z" fill="#EBFFFE"/>
<path d="M33.8633 120H30.9102V102.938H33.8633V120ZM39.875 107.32L39.957 108.785C40.8945 107.652 42.125 107.086 43.6484 107.086C46.2891 107.086 47.6328 108.598 47.6797 111.621V120H44.832V111.785C44.832 110.98 44.6562 110.387 44.3047 110.004C43.9609 109.613 43.3945 109.418 42.6055 109.418C41.457 109.418 40.6016 109.938 40.0391 110.977V120H37.1914V107.32H39.875ZM53.6211 120H50.7734V107.32H53.6211V120ZM50.5977 104.027C50.5977 103.59 50.7344 103.227 51.0078 102.938C51.2891 102.648 51.6875 102.504 52.2031 102.504C52.7188 102.504 53.1172 102.648 53.3984 102.938C53.6797 103.227 53.8203 103.59 53.8203 104.027C53.8203 104.457 53.6797 104.816 53.3984 105.105C53.1172 105.387 52.7188 105.527 52.2031 105.527C51.6875 105.527 51.2891 105.387 51.0078 105.105C50.7344 104.816 50.5977 104.457 50.5977 104.027ZM61.9414 117.961C62.6523 117.961 63.2422 117.754 63.7109 117.34C64.1797 116.926 64.4297 116.414 64.4609 115.805H67.1445C67.1133 116.594 66.8672 117.332 66.4062 118.02C65.9453 118.699 65.3203 119.238 64.5312 119.637C63.7422 120.035 62.8906 120.234 61.9766 120.234C60.2031 120.234 58.7969 119.66 57.7578 118.512C56.7188 117.363 56.1992 115.777 56.1992 113.754V113.461C56.1992 111.531 56.7148 109.988 57.7461 108.832C58.7773 107.668 60.1836 107.086 61.9648 107.086C63.4727 107.086 64.6992 107.527 65.6445 108.41C66.5977 109.285 67.0977 110.438 67.1445 111.867H64.4609C64.4297 111.141 64.1797 110.543 63.7109 110.074C63.25 109.605 62.6602 109.371 61.9414 109.371C61.0195 109.371 60.3086 109.707 59.8086 110.379C59.3086 111.043 59.0547 112.055 59.0469 113.414V113.871C59.0469 115.246 59.293 116.273 59.7852 116.953C60.2852 117.625 61.0039 117.961 61.9414 117.961ZM72.3242 120H69.4766V107.32H72.3242V120ZM69.3008 104.027C69.3008 103.59 69.4375 103.227 69.7109 102.938C69.9922 102.648 70.3906 102.504 70.9062 102.504C71.4219 102.504 71.8203 102.648 72.1016 102.938C72.3828 103.227 72.5234 103.59 72.5234 104.027C72.5234 104.457 72.3828 104.816 72.1016 105.105C71.8203 105.387 71.4219 105.527 70.9062 105.527C70.3906 105.527 69.9922 105.387 69.7109 105.105C69.4375 104.816 69.3008 104.457 69.3008 104.027ZM74.9023 113.543C74.9023 112.301 75.1484 111.184 75.6406 110.191C76.1328 109.191 76.8242 108.426 77.7148 107.895C78.6055 107.355 79.6289 107.086 80.7852 107.086C82.4961 107.086 83.8828 107.637 84.9453 108.738C86.0156 109.84 86.5938 111.301 86.6797 113.121L86.6914 113.789C86.6914 115.039 86.4492 116.156 85.9648 117.141C85.4883 118.125 84.8008 118.887 83.9023 119.426C83.0117 119.965 81.9805 120.234 80.8086 120.234C79.0195 120.234 77.5859 119.641 76.5078 118.453C75.4375 117.258 74.9023 115.668 74.9023 113.684V113.543ZM77.75 113.789C77.75 115.094 78.0195 116.117 78.5586 116.859C79.0977 117.594 79.8477 117.961 80.8086 117.961C81.7695 117.961 82.5156 117.586 83.0469 116.836C83.5859 116.086 83.8555 114.988 83.8555 113.543C83.8555 112.262 83.5781 111.246 83.0234 110.496C82.4766 109.746 81.7305 109.371 80.7852 109.371C79.8555 109.371 79.1172 109.742 78.5703 110.484C78.0234 111.219 77.75 112.32 77.75 113.789Z" fill="black"/>
<path d="M151.863 120H148.91V102.938H151.863V120ZM157.875 107.32L157.957 108.785C158.895 107.652 160.125 107.086 161.648 107.086C164.289 107.086 165.633 108.598 165.68 111.621V120H162.832V111.785C162.832 110.98 162.656 110.387 162.305 110.004C161.961 109.613 161.395 109.418 160.605 109.418C159.457 109.418 158.602 109.938 158.039 110.977V120H155.191V107.32H157.875ZM175.699 116.555C175.699 116.047 175.488 115.66 175.066 115.395C174.652 115.129 173.961 114.895 172.992 114.691C172.023 114.488 171.215 114.23 170.566 113.918C169.145 113.23 168.434 112.234 168.434 110.93C168.434 109.836 168.895 108.922 169.816 108.188C170.738 107.453 171.91 107.086 173.332 107.086C174.848 107.086 176.07 107.461 177 108.211C177.938 108.961 178.406 109.934 178.406 111.129H175.559C175.559 110.582 175.355 110.129 174.949 109.77C174.543 109.402 174.004 109.219 173.332 109.219C172.707 109.219 172.195 109.363 171.797 109.652C171.406 109.941 171.211 110.328 171.211 110.812C171.211 111.25 171.395 111.59 171.762 111.832C172.129 112.074 172.871 112.32 173.988 112.57C175.105 112.812 175.98 113.105 176.613 113.449C177.254 113.785 177.727 114.191 178.031 114.668C178.344 115.145 178.5 115.723 178.5 116.402C178.5 117.543 178.027 118.469 177.082 119.18C176.137 119.883 174.898 120.234 173.367 120.234C172.328 120.234 171.402 120.047 170.59 119.672C169.777 119.297 169.145 118.781 168.691 118.125C168.238 117.469 168.012 116.762 168.012 116.004H170.777C170.816 116.676 171.07 117.195 171.539 117.562C172.008 117.922 172.629 118.102 173.402 118.102C174.152 118.102 174.723 117.961 175.113 117.68C175.504 117.391 175.699 117.016 175.699 116.555ZM184.559 104.238V107.32H186.797V109.43H184.559V116.508C184.559 116.992 184.652 117.344 184.84 117.562C185.035 117.773 185.379 117.879 185.871 117.879C186.199 117.879 186.531 117.84 186.867 117.762V119.965C186.219 120.145 185.594 120.234 184.992 120.234C182.805 120.234 181.711 119.027 181.711 116.613V109.43H179.625V107.32H181.711V104.238H184.559ZM195.621 109.922C195.246 109.859 194.859 109.828 194.461 109.828C193.156 109.828 192.277 110.328 191.824 111.328V120H188.977V107.32H191.695L191.766 108.738C192.453 107.637 193.406 107.086 194.625 107.086C195.031 107.086 195.367 107.141 195.633 107.25L195.621 109.922ZM205.102 118.758C204.266 119.742 203.078 120.234 201.539 120.234C200.164 120.234 199.121 119.832 198.41 119.027C197.707 118.223 197.355 117.059 197.355 115.535V107.32H200.203V115.5C200.203 117.109 200.871 117.914 202.207 117.914C203.59 117.914 204.523 117.418 205.008 116.426V107.32H207.855V120H205.172L205.102 118.758ZM215.965 117.961C216.676 117.961 217.266 117.754 217.734 117.34C218.203 116.926 218.453 116.414 218.484 115.805H221.168C221.137 116.594 220.891 117.332 220.43 118.02C219.969 118.699 219.344 119.238 218.555 119.637C217.766 120.035 216.914 120.234 216 120.234C214.227 120.234 212.82 119.66 211.781 118.512C210.742 117.363 210.223 115.777 210.223 113.754V113.461C210.223 111.531 210.738 109.988 211.77 108.832C212.801 107.668 214.207 107.086 215.988 107.086C217.496 107.086 218.723 107.527 219.668 108.41C220.621 109.285 221.121 110.438 221.168 111.867H218.484C218.453 111.141 218.203 110.543 217.734 110.074C217.273 109.605 216.684 109.371 215.965 109.371C215.043 109.371 214.332 109.707 213.832 110.379C213.332 111.043 213.078 112.055 213.07 113.414V113.871C213.07 115.246 213.316 116.273 213.809 116.953C214.309 117.625 215.027 117.961 215.965 117.961ZM228.527 117.961C229.238 117.961 229.828 117.754 230.297 117.34C230.766 116.926 231.016 116.414 231.047 115.805H233.73C233.699 116.594 233.453 117.332 232.992 118.02C232.531 118.699 231.906 119.238 231.117 119.637C230.328 120.035 229.477 120.234 228.562 120.234C226.789 120.234 225.383 119.66 224.344 118.512C223.305 117.363 222.785 115.777 222.785 113.754V113.461C222.785 111.531 223.301 109.988 224.332 108.832C225.363 107.668 226.77 107.086 228.551 107.086C230.059 107.086 231.285 107.527 232.23 108.41C233.184 109.285 233.684 110.438 233.73 111.867H231.047C231.016 111.141 230.766 110.543 230.297 110.074C229.836 109.605 229.246 109.371 228.527 109.371C227.605 109.371 226.895 109.707 226.395 110.379C225.895 111.043 225.641 112.055 225.633 113.414V113.871C225.633 115.246 225.879 116.273 226.371 116.953C226.871 117.625 227.59 117.961 228.527 117.961ZM238.91 120H236.062V107.32H238.91V120ZM235.887 104.027C235.887 103.59 236.023 103.227 236.297 102.938C236.578 102.648 236.977 102.504 237.492 102.504C238.008 102.504 238.406 102.648 238.688 102.938C238.969 103.227 239.109 103.59 239.109 104.027C239.109 104.457 238.969 104.816 238.688 105.105C238.406 105.387 238.008 105.527 237.492 105.527C236.977 105.527 236.578 105.387 236.297 105.105C236.023 104.816 235.887 104.457 235.887 104.027ZM241.488 113.543C241.488 112.301 241.734 111.184 242.227 110.191C242.719 109.191 243.41 108.426 244.301 107.895C245.191 107.355 246.215 107.086 247.371 107.086C249.082 107.086 250.469 107.637 251.531 108.738C252.602 109.84 253.18 111.301 253.266 113.121L253.277 113.789C253.277 115.039 253.035 116.156 252.551 117.141C252.074 118.125 251.387 118.887 250.488 119.426C249.598 119.965 248.566 120.234 247.395 120.234C245.605 120.234 244.172 119.641 243.094 118.453C242.023 117.258 241.488 115.668 241.488 113.684V113.543ZM244.336 113.789C244.336 115.094 244.605 116.117 245.145 116.859C245.684 117.594 246.434 117.961 247.395 117.961C248.355 117.961 249.102 117.586 249.633 116.836C250.172 116.086 250.441 114.988 250.441 113.543C250.441 112.262 250.164 111.246 249.609 110.496C249.062 109.746 248.316 109.371 247.371 109.371C246.441 109.371 245.703 109.742 245.156 110.484C244.609 111.219 244.336 112.32 244.336 113.789ZM258.328 107.32L258.41 108.785C259.348 107.652 260.578 107.086 262.102 107.086C264.742 107.086 266.086 108.598 266.133 111.621V120H263.285V111.785C263.285 110.98 263.109 110.387 262.758 110.004C262.414 109.613 261.848 109.418 261.059 109.418C259.91 109.418 259.055 109.938 258.492 110.977V120H255.645V107.32H258.328ZM274.629 120.234C272.824 120.234 271.359 119.668 270.234 118.535C269.117 117.395 268.559 115.879 268.559 113.988V113.637C268.559 112.371 268.801 111.242 269.285 110.25C269.777 109.25 270.465 108.473 271.348 107.918C272.23 107.363 273.215 107.086 274.301 107.086C276.027 107.086 277.359 107.637 278.297 108.738C279.242 109.84 279.715 111.398 279.715 113.414V114.562H271.43C271.516 115.609 271.863 116.438 272.473 117.047C273.09 117.656 273.863 117.961 274.793 117.961C276.098 117.961 277.16 117.434 277.98 116.379L279.516 117.844C279.008 118.602 278.328 119.191 277.477 119.613C276.633 120.027 275.684 120.234 274.629 120.234ZM274.289 109.371C273.508 109.371 272.875 109.645 272.391 110.191C271.914 110.738 271.609 111.5 271.477 112.477H276.902V112.266C276.84 111.312 276.586 110.594 276.141 110.109C275.695 109.617 275.078 109.371 274.289 109.371ZM289.043 116.555C289.043 116.047 288.832 115.66 288.41 115.395C287.996 115.129 287.305 114.895 286.336 114.691C285.367 114.488 284.559 114.23 283.91 113.918C282.488 113.23 281.777 112.234 281.777 110.93C281.777 109.836 282.238 108.922 283.16 108.188C284.082 107.453 285.254 107.086 286.676 107.086C288.191 107.086 289.414 107.461 290.344 108.211C291.281 108.961 291.75 109.934 291.75 111.129H288.902C288.902 110.582 288.699 110.129 288.293 109.77C287.887 109.402 287.348 109.219 286.676 109.219C286.051 109.219 285.539 109.363 285.141 109.652C284.75 109.941 284.555 110.328 284.555 110.812C284.555 111.25 284.738 111.59 285.105 111.832C285.473 112.074 286.215 112.32 287.332 112.57C288.449 112.812 289.324 113.105 289.957 113.449C290.598 113.785 291.07 114.191 291.375 114.668C291.688 115.145 291.844 115.723 291.844 116.402C291.844 117.543 291.371 118.469 290.426 119.18C289.48 119.883 288.242 120.234 286.711 120.234C285.672 120.234 284.746 120.047 283.934 119.672C283.121 119.297 282.488 118.781 282.035 118.125C281.582 117.469 281.355 116.762 281.355 116.004H284.121C284.16 116.676 284.414 117.195 284.883 117.562C285.352 117.922 285.973 118.102 286.746 118.102C287.496 118.102 288.066 117.961 288.457 117.68C288.848 117.391 289.043 117.016 289.043 116.555Z" fill="black"/>
<path d="M0 82V81H-1V82H0ZM485 82H486V81H485V82ZM485 152V153H486V152H485ZM0 152H-1V153H0V152ZM0 83H485V81H0V83ZM484 82V152H486V82H484ZM485 151H0V153H485V151ZM1 152V82H-1V152H1Z" fill="white"/>
<path d="M0 0H485V83H0V0Z" fill="#11D0C5"/>
<path d="M28.6875 34.4277H22.5254V39.4668H29.6836V41H20.6504V26.7812H29.5859V28.3242H22.5254V32.8945H28.6875V34.4277ZM33.4434 30.4336L33.502 31.7617C34.3092 30.7461 35.3639 30.2383 36.666 30.2383C38.8991 30.2383 40.0254 31.498 40.0449 34.0176V41H38.2383V34.0078C38.2318 33.2461 38.056 32.6829 37.7109 32.3184C37.3724 31.9538 36.8418 31.7715 36.1191 31.7715C35.5332 31.7715 35.0189 31.9277 34.5762 32.2402C34.1335 32.5527 33.7884 32.9629 33.541 33.4707V41H31.7344V30.4336H33.4434ZM47.0078 39.7207C47.6523 39.7207 48.2155 39.5254 48.6973 39.1348C49.179 38.7441 49.446 38.2559 49.498 37.6699H51.207C51.1745 38.2754 50.9661 38.8516 50.582 39.3984C50.1979 39.9453 49.6836 40.3815 49.0391 40.707C48.401 41.0326 47.724 41.1953 47.0078 41.1953C45.569 41.1953 44.4232 40.7168 43.5703 39.7598C42.724 38.7962 42.3008 37.4811 42.3008 35.8145V35.5117C42.3008 34.4831 42.4896 33.5684 42.8672 32.7676C43.2448 31.9668 43.7852 31.3451 44.4883 30.9023C45.1979 30.4596 46.0345 30.2383 46.998 30.2383C48.1829 30.2383 49.166 30.5931 49.9473 31.3027C50.735 32.0124 51.1549 32.9336 51.207 34.0664H49.498C49.446 33.3828 49.1855 32.8229 48.7168 32.3867C48.2546 31.944 47.6816 31.7227 46.998 31.7227C46.0801 31.7227 45.3672 32.0547 44.8594 32.7188C44.3581 33.3763 44.1074 34.3301 44.1074 35.5801V35.9219C44.1074 37.1393 44.3581 38.0768 44.8594 38.7344C45.3607 39.3919 46.0768 39.7207 47.0078 39.7207ZM59.7617 41C59.6576 40.7917 59.5729 40.4206 59.5078 39.8867C58.668 40.7591 57.6654 41.1953 56.5 41.1953C55.4583 41.1953 54.6022 40.9023 53.9316 40.3164C53.2676 39.724 52.9355 38.9753 52.9355 38.0703C52.9355 36.9701 53.3522 36.1172 54.1855 35.5117C55.0254 34.8997 56.2038 34.5938 57.7207 34.5938H59.4785V33.7637C59.4785 33.1322 59.2897 32.6309 58.9121 32.2598C58.5345 31.8822 57.9779 31.6934 57.2422 31.6934C56.5977 31.6934 56.0573 31.8561 55.6211 32.1816C55.1849 32.5072 54.9668 32.901 54.9668 33.3633H53.1504C53.1504 32.8359 53.3359 32.3281 53.707 31.8398C54.0846 31.3451 54.5924 30.9544 55.2305 30.668C55.875 30.3815 56.5814 30.2383 57.3496 30.2383C58.5671 30.2383 59.5208 30.5443 60.2109 31.1562C60.901 31.7617 61.2591 32.5983 61.2852 33.666V38.5293C61.2852 39.4993 61.4089 40.2708 61.6562 40.8438V41H59.7617ZM56.7637 39.623C57.3301 39.623 57.8672 39.4766 58.375 39.1836C58.8828 38.8906 59.2507 38.5098 59.4785 38.041V35.873H58.0625C55.849 35.873 54.7422 36.5208 54.7422 37.8164C54.7422 38.3828 54.931 38.8255 55.3086 39.1445C55.6862 39.4635 56.1712 39.623 56.7637 39.623ZM73.0625 35.834C73.0625 37.4486 72.6914 38.7474 71.9492 39.7305C71.207 40.707 70.2109 41.1953 68.9609 41.1953C67.6263 41.1953 66.5944 40.7233 65.8652 39.7793L65.7773 41H64.1172V26H65.9238V31.5957C66.653 30.6908 67.6589 30.2383 68.9414 30.2383C70.224 30.2383 71.2298 30.7233 71.959 31.6934C72.6947 32.6634 73.0625 33.9915 73.0625 35.6777V35.834ZM71.2559 35.6289C71.2559 34.3984 71.0182 33.4479 70.543 32.7773C70.0677 32.1068 69.3841 31.7715 68.4922 31.7715C67.3008 31.7715 66.4447 32.3249 65.9238 33.4316V38.002C66.4772 39.1087 67.3398 39.6621 68.5117 39.6621C69.3776 39.6621 70.0514 39.3268 70.5332 38.6562C71.015 37.9857 71.2559 36.9766 71.2559 35.6289ZM79.7324 41.1953C78.3001 41.1953 77.1348 40.7266 76.2363 39.7891C75.3379 38.8451 74.8887 37.5853 74.8887 36.0098V35.6777C74.8887 34.6296 75.0872 33.6953 75.4844 32.875C75.888 32.0482 76.4479 31.4036 77.1641 30.9414C77.8867 30.4727 78.668 30.2383 79.5078 30.2383C80.8815 30.2383 81.9492 30.6908 82.7109 31.5957C83.4727 32.5007 83.8535 33.7962 83.8535 35.4824V36.2344H76.6953C76.7214 37.276 77.0241 38.1191 77.6035 38.7637C78.1895 39.4017 78.9316 39.7207 79.8301 39.7207C80.4681 39.7207 81.0085 39.5905 81.4512 39.3301C81.8939 39.0697 82.2812 38.7246 82.6133 38.2949L83.7168 39.1543C82.8314 40.515 81.5033 41.1953 79.7324 41.1953ZM79.5078 31.7227C78.7786 31.7227 78.1667 31.9896 77.6719 32.5234C77.1771 33.0508 76.8711 33.793 76.7539 34.75H82.0469V34.6133C81.9948 33.6953 81.7474 32.9857 81.3047 32.4844C80.862 31.9766 80.263 31.7227 79.5078 31.7227ZM87.6523 39.5254H93.834V41H85.4453V39.6719L91.2754 31.9277H85.5332V30.4336H93.541V31.7129L87.6523 39.5254ZM102.398 41C102.294 40.7917 102.21 40.4206 102.145 39.8867C101.305 40.7591 100.302 41.1953 99.1367 41.1953C98.0951 41.1953 97.2389 40.9023 96.5684 40.3164C95.9043 39.724 95.5723 38.9753 95.5723 38.0703C95.5723 36.9701 95.9889 36.1172 96.8223 35.5117C97.6621 34.8997 98.8405 34.5938 100.357 34.5938H102.115V33.7637C102.115 33.1322 101.926 32.6309 101.549 32.2598C101.171 31.8822 100.615 31.6934 99.8789 31.6934C99.2344 31.6934 98.694 31.8561 98.2578 32.1816C97.8216 32.5072 97.6035 32.901 97.6035 33.3633H95.7871C95.7871 32.8359 95.9727 32.3281 96.3438 31.8398C96.7214 31.3451 97.2292 30.9544 97.8672 30.668C98.5117 30.3815 99.2181 30.2383 99.9863 30.2383C101.204 30.2383 102.158 30.5443 102.848 31.1562C103.538 31.7617 103.896 32.5983 103.922 33.666V38.5293C103.922 39.4993 104.046 40.2708 104.293 40.8438V41H102.398ZM99.4004 39.623C99.9668 39.623 100.504 39.4766 101.012 39.1836C101.52 38.8906 101.887 38.5098 102.115 38.041V35.873H100.699C98.4857 35.873 97.3789 36.5208 97.3789 37.8164C97.3789 38.3828 97.5677 38.8255 97.9453 39.1445C98.3229 39.4635 98.8079 39.623 99.4004 39.623ZM106.314 35.6289C106.314 34.0078 106.699 32.7057 107.467 31.7227C108.235 30.7331 109.241 30.2383 110.484 30.2383C111.721 30.2383 112.701 30.6615 113.424 31.5078V26H115.23V41H113.57L113.482 39.8672C112.76 40.7526 111.754 41.1953 110.465 41.1953C109.241 41.1953 108.242 40.694 107.467 39.6914C106.699 38.6888 106.314 37.3802 106.314 35.7656V35.6289ZM108.121 35.834C108.121 37.0319 108.368 37.9694 108.863 38.6465C109.358 39.3236 110.042 39.6621 110.914 39.6621C112.06 39.6621 112.896 39.1478 113.424 38.1191V33.2656C112.883 32.2695 112.053 31.7715 110.934 31.7715C110.048 31.7715 109.358 32.1133 108.863 32.7969C108.368 33.4805 108.121 34.4928 108.121 35.834ZM117.564 35.6191C117.564 34.584 117.766 33.653 118.17 32.8262C118.58 31.9993 119.146 31.3613 119.869 30.9121C120.598 30.4629 121.428 30.2383 122.359 30.2383C123.798 30.2383 124.96 30.7363 125.846 31.7324C126.738 32.7285 127.184 34.0534 127.184 35.707V35.834C127.184 36.8626 126.985 37.7871 126.588 38.6074C126.197 39.4212 125.634 40.056 124.898 40.5117C124.169 40.9674 123.329 41.1953 122.379 41.1953C120.947 41.1953 119.785 40.6973 118.893 39.7012C118.007 38.7051 117.564 37.3867 117.564 35.7461V35.6191ZM119.381 35.834C119.381 37.0059 119.651 37.9466 120.191 38.6562C120.738 39.3659 121.467 39.7207 122.379 39.7207C123.297 39.7207 124.026 39.3626 124.566 38.6465C125.107 37.9238 125.377 36.9147 125.377 35.6191C125.377 34.4603 125.1 33.5228 124.547 32.8066C124 32.084 123.271 31.7227 122.359 31.7227C121.467 31.7227 120.748 32.0775 120.201 32.7871C119.654 33.4967 119.381 34.5124 119.381 35.834Z" fill="black"/>
<path d="M0 0V-1H-1V0H0ZM485 0H486V-1H485V0ZM485 83V84H486V83H485ZM0 83H-1V84H0V83ZM0 1H485V-1H0V1ZM484 0V83H486V0H484ZM485 82H0V84H485V82ZM1 83V0H-1V83H1Z" fill="white"/>
<rect x="1" y="1" width="483" height="726" stroke="#171212" stroke-width="2"/>
</svg>
